<!-- Generated by IcoMoon.io -->
<svg version="1.1" xmlns="http://www.w3.org/2000/svg" width="32" height="32" viewBox="0 0 32 32">
<title>auction1</title>
<path d="M18.95 27.297h-0.826c-0.348-1.71-1.863-3.001-3.674-3.001h-6c-1.811 0-3.326 1.291-3.674 3.001h-0.826c-0.415 0-0.75 0.336-0.75 0.75s0.335 0.75 0.75 0.75h15c0.415 0 0.75-0.336 0.75-0.75s-0.336-0.75-0.75-0.75zM22.731 10.004l-6.364-6.366c-0.586-0.586-1.536-0.586-2.121 0s-0.586 1.536 0 2.122l6.364 6.366c0.586 0.586 1.536 0.586 2.121 0s0.586-1.536 0-2.122zM12.125 20.614l-6.364-6.366c-0.586-0.586-1.535-0.586-2.121 0s-0.586 1.536 0 2.122l6.364 6.366c0.586 0.586 1.536 0.586 2.121 0s0.586-1.536 0-2.122zM6.821 13.187l6.364-6.366 6.364 6.366-6.364 6.366-6.364-6.366zM28.141 24.956l-1.067-1.159-3.182 3.183 1.067 1.159c0.879 0.879 2.303 0.879 3.182 0s0.879-2.304 0-3.183zM20.978 17.799c0.126-0.496 0.020-1.040-0.368-1.429-0.586-0.586-1.536-0.586-2.121 0l-2.121 2.122c-0.586 0.586-0.586 1.536 0 2.122 0.388 0.388 0.932 0.494 1.428 0.368l5.036 4.937 3.182-3.183-5.035-4.937z"></path>
</svg>
