<!-- Generated by IcoMoon.io -->
<svg version="1.1" xmlns="http://www.w3.org/2000/svg" width="32" height="32" viewBox="0 0 32 32">
<title>backward</title>
<path d="M14.945 4.956l-11.496 9.924c-0.332 0.284-0.332 0.832 0 1.116l11.496 9.928c0.428 0.368 1.056 0.036 1.056-0.56v-19.851c0-0.592-0.628-0.928-1.056-0.556v0zM27.744 4.956l-11.496 9.924c-0.079 0.070-0.142 0.157-0.184 0.253s-0.064 0.201-0.064 0.307c0 0.208 0.084 0.416 0.248 0.56l11.496 9.928c0.428 0.368 1.056 0.036 1.056-0.56v-19.855c0-0.592-0.628-0.928-1.056-0.556z"></path>
</svg>
