<!-- Generated by IcoMoon.io -->
<svg version="1.1" xmlns="http://www.w3.org/2000/svg" width="32" height="32" viewBox="0 0 32 32">
<title>camera</title>
<path d="M26.43 8.118h-4.030l-0.96-2.69c-0.066-0.184-0.188-0.343-0.348-0.456s-0.351-0.173-0.547-0.173h-9.090c-0.4 0-0.758 0.252-0.892 0.628l-0.963 2.69h-4.030c-1.31 0-2.37 1.061-2.37 2.37v13.511c0 1.31 1.061 2.37 2.37 2.37h20.859c1.31 0 2.37-1.061 2.37-2.37v-13.511c0-1.31-1.061-2.37-2.37-2.37zM26.667 24c0 0.13-0.107 0.237-0.237 0.237h-20.859c-0.13 0-0.237-0.107-0.237-0.237v-13.511c0-0.13 0.107-0.237 0.237-0.237h5.532l0.507-1.416 0.678-1.902h7.422l0.679 1.902 0.507 1.416h5.535c0.13 0 0.237 0.107 0.237 0.237v13.511zM16 12.148c-2.619 0-4.741 2.122-4.741 4.741s2.121 4.741 4.741 4.741c2.619 0 4.741-2.121 4.741-4.741s-2.122-4.741-4.741-4.741zM16 19.733c-1.57 0-2.844-1.274-2.844-2.844s1.274-2.845 2.844-2.845c1.57 0 2.844 1.274 2.844 2.845s-1.274 2.844-2.844 2.844z"></path>
</svg>
