<!-- Generated by IcoMoon.io -->
<svg version="1.1" xmlns="http://www.w3.org/2000/svg" width="32" height="32" viewBox="0 0 32 32">
<title>dingding</title>
<path d="M18.423 8.015c-4.652-1.695-11.459-4.794-11.459-4.794-0.483-0.126-0.551 0.342-0.551 0.342-0.154 1.88 1.034 4.938 1.649 5.625 0.612 0.686 9.818 3.498 9.818 3.498s-7.080-1.428-8.788-1.92c-1.711-0.492-1.166 0.548-1.166 0.548 0.351 1.898 1.997 4.055 3.298 4.258 1.298 0.203 6.772 0.123 6.772 0.123s-1.092 0.126-2.868 0.366c-1.314 0.178-2.985 0.385-3.418 0.548-1.018 0.385 0.738 1.926 0.738 1.926 2.606 2.363 3.991 1.554 3.991 1.554 1.025-0.329 1.889-0.569 2.622-0.745l-0.908 3.766h2.603l-1.434 5.689 6.317-8.366h-3.308l0.686-1.191c0.009 0.016 0.012 0.025 0.012 0.025s2.348-3.757 3.246-5.674l0.018-0.031h-0.003c0.154-0.332 0.265-0.606 0.308-0.794 0.523-2.194-3.523-3.058-8.178-4.754z"></path>
</svg>
