<!-- Generated by IcoMoon.io -->
<svg version="1.1" xmlns="http://www.w3.org/2000/svg" width="32" height="32" viewBox="0 0 32 32">
<title>fuel-fill</title>
<path d="M25.977 6.556l-2.133-2.133c-0.208-0.208-0.546-0.208-0.754 0s-0.208 0.546 0 0.754l1.756 1.756-1.756 1.756c-0.1 0.1-0.156 0.235-0.156 0.377v1.6c0 1.177 0.957 2.133 2.133 2.133v9.067c0 0.294-0.239 0.533-0.533 0.533s-0.533-0.239-0.533-0.533v-1.067c0-0.882-0.718-1.6-1.6-1.6h-0.533v-13.867c0-1.177-0.957-2.133-2.133-2.133h-10.667c-1.177 0-2.133 0.957-2.133 2.133v19.2c-1.177 0-2.133 0.957-2.133 2.133v1.6c-0 0.070 0.014 0.139 0.040 0.204s0.066 0.124 0.116 0.173c0.050 0.050 0.108 0.089 0.173 0.116s0.134 0.040 0.204 0.040h18.133c0.070 0 0.139-0.014 0.204-0.040s0.124-0.066 0.173-0.116c0.050-0.049 0.089-0.108 0.116-0.173s0.040-0.134 0.040-0.204v-1.6c0-1.177-0.957-2.133-2.133-2.133v-4.267h0.533c0.294 0 0.533 0.239 0.533 0.533v1.067c0 0.882 0.718 1.6 1.6 1.6s1.6-0.718 1.6-1.6v-14.933c-0-0.070-0.014-0.139-0.041-0.204s-0.066-0.123-0.116-0.173zM19.733 12.277c0 0.070-0.014 0.139-0.040 0.204s-0.066 0.124-0.116 0.173c-0.050 0.050-0.108 0.089-0.173 0.116s-0.134 0.041-0.204 0.040h-9.6c-0.070 0-0.139-0.014-0.204-0.040s-0.124-0.066-0.173-0.116c-0.050-0.050-0.089-0.108-0.116-0.173s-0.041-0.134-0.040-0.204v-6.41c-0-0.070 0.014-0.139 0.040-0.204s0.066-0.124 0.116-0.173c0.050-0.050 0.108-0.089 0.173-0.116s0.134-0.041 0.204-0.040h9.6c0.070-0 0.139 0.014 0.204 0.040s0.124 0.066 0.173 0.116c0.049 0.050 0.089 0.108 0.116 0.173s0.041 0.134 0.040 0.204v6.41z"></path>
</svg>
