<!-- Generated by IcoMoon.io -->
<svg version="1.1" xmlns="http://www.w3.org/2000/svg" width="32" height="32" viewBox="0 0 32 32">
<title>gold</title>
<path d="M10.477 14.977h11.111c0.013 0 0.029 0 0.042-0.003 0.143-0.023 0.237-0.156 0.214-0.299l-1.306-8.057c-0.020-0.127-0.13-0.218-0.257-0.218h-8.499c-0.127 0-0.237 0.091-0.257 0.218l-1.306 8.057c-0.003 0.013-0.003 0.029-0.003 0.042 0 0.143 0.117 0.26 0.26 0.26zM13.44 8.609h5.182l0.672 4.158h-6.53l0.676-4.158zM13.521 17.793c-0.020-0.127-0.13-0.218-0.257-0.218h-8.499c-0.127 0-0.237 0.091-0.257 0.218l-1.306 8.057c-0.003 0.013-0.003 0.029-0.003 0.042 0 0.143 0.117 0.26 0.26 0.26h11.111c0.013 0 0.029 0 0.042-0.003 0.143-0.023 0.237-0.156 0.214-0.299l-1.306-8.057zM5.75 23.943l0.672-4.158h5.182l0.672 4.158h-6.527zM28.797 25.85l-1.306-8.057c-0.020-0.127-0.13-0.218-0.257-0.218h-8.499c-0.127 0-0.237 0.091-0.257 0.218l-1.306 8.057c-0.003 0.013-0.003 0.029-0.003 0.042 0 0.143 0.117 0.26 0.26 0.26h11.111c0.013 0 0.029 0 0.042-0.003 0.14-0.023 0.237-0.156 0.214-0.299v0zM19.72 23.943l0.672-4.158h5.182l0.672 4.158h-6.527z"></path>
</svg>
