<!-- Generated by IcoMoon.io -->
<svg version="1.1" xmlns="http://www.w3.org/2000/svg" width="32" height="32" viewBox="0 0 32 32">
<title>hdd</title>
<path d="M25.6 3.2h-18.286c-0.506 0-0.914 0.409-0.914 0.914v23.771c0 0.506 0.409 0.914 0.914 0.914h18.286c0.506 0 0.914-0.409 0.914-0.914v-23.771c0-0.506-0.408-0.914-0.914-0.914zM8.457 5.257h16v5.943h-16v-5.943zM24.457 18.971h-16v-5.943h16v5.943zM24.457 26.743h-16v-5.943h16v5.943zM16 7.314h-5.257c-0.126 0-0.229 0.103-0.229 0.229v1.371c0 0.126 0.103 0.229 0.229 0.229h5.257c0.126 0 0.229-0.103 0.229-0.229v-1.371c0-0.126-0.103-0.229-0.229-0.229zM10.743 16.914h5.257c0.126 0 0.229-0.103 0.229-0.228v-1.371c0-0.126-0.103-0.229-0.229-0.229h-5.257c-0.126 0-0.229 0.103-0.229 0.229v1.371c0 0.126 0.103 0.228 0.229 0.228zM20.114 23.886c0 0.303 0.12 0.594 0.335 0.808s0.505 0.335 0.808 0.335c0.303 0 0.594-0.12 0.808-0.335s0.335-0.505 0.335-0.808c0-0.303-0.12-0.594-0.335-0.808s-0.505-0.335-0.808-0.335c-0.303 0-0.594 0.12-0.808 0.335s-0.335 0.505-0.335 0.808v0z"></path>
</svg>
