<!-- Generated by IcoMoon.io -->
<svg version="1.1" xmlns="http://www.w3.org/2000/svg" width="32" height="32" viewBox="0 0 32 32">
<title>insurance</title>
<path d="M9.12 18.88c0 0 0.16-0.16 0.32-0.16-0.48-1.12-0.64-2.4-0.64-3.52v-6.72c0-0.16 0-0.16 0.16-0.32 0-0.16 0-0.16 0.16-0.16 2.4-0.32 4.64-1.12 6.72-2.24 0 0 0.16 0 0.16 0s0.16 0 0.16 0c2.080 1.12 4.32 1.92 6.72 2.24 0.16 0 0.16 0 0.32 0.16 0 0 0.16 0.16 0.16 0.32v6.72c0 2.080-0.64 4-1.6 5.76l0.32 0.16 1.92 0.32c0.96-1.92 1.6-4.16 1.6-6.24v-9.12c-3.2 0-6.4-0.96-9.12-2.72l-0.48-0.16-0.16 0.16c-2.72 1.76-5.92 2.72-9.28 2.72v9.12c0 1.6 0.32 3.2 0.8 4.64l1.76-0.96z"></path>
<path d="M16 6.72c-1.92 0.96-4.16 1.76-6.4 2.080v6.4c0 1.12 0.16 2.24 0.48 3.36 1.12-0.32 2.24-0.32 3.36-0.32 1.6 0 3.2 0.32 4.64 0.96l2.72 1.6c0.96-1.6 1.44-3.52 1.44-5.44v-6.4c-2.080-0.48-4.32-1.28-6.24-2.24zM16 15.52l-1.12 1.12c-0.16 0.16-0.32 0.32-0.64 0.32-0.16 0-0.48-0.16-0.64-0.32l-2.24-2.4 1.28-1.28 1.76 1.76 1.6-1.76 3.36-3.36 1.28 1.28-4.64 4.64z"></path>
<path d="M8.32 28c0.96 0 1.76-0.8 1.76-1.76s-0.8-1.76-1.76-1.76-1.76 0.8-1.76 1.76c0 0.96 0.8 1.76 1.76 1.76z"></path>
<path d="M28.64 24.64l-0.32-1.12c0 0 0 0 0 0-0.16-0.16-0.32-0.32-0.48-0.48s-0.48-0.16-0.64-0.16l-5.44-0.8c0 0 0 0 0 0l-4-2.24c-1.28-0.64-2.72-0.8-4.16-0.8-2.88 0-3.68 0.48-4 0.64l-2.4 1.28c-0.16 0-0.32 0.16-0.48 0.16h-1.44c-0.8 0-1.44 0.64-1.76 1.6l-0.32 1.76c0 0.16 0 0.48 0 0.64s0.16 0.32 0.32 0.48c0.16 0.16 0.32 0.32 0.64 0.48s0.48 0.16 0.8 0.16h0.8c0-0.64 0.32-1.28 0.8-1.76s1.12-0.8 1.76-0.8 1.28 0.32 1.76 0.8c0.48 0.48 0.8 1.12 0.8 1.76h9.76c0-0.64 0.32-1.28 0.8-1.76s1.12-0.8 1.76-0.8c0.64 0 1.28 0.32 1.76 0.8s0.8 1.12 0.8 1.76h1.92c0.16 0 0.32 0 0.48-0.16s0.32-0.16 0.48-0.32c0.16-0.16 0.16-0.32 0.16-0.64s0-0.32-0.16-0.48zM12.96 21.76c-1.6-0.16-3.36-0.16-4.8-0.32l1.6-0.96c0.16-0.16 0.8-0.48 3.040-0.48v1.76zM13.92 21.76v-1.92c1.12 0 2.4 0.32 3.36 0.64l2.56 1.44c-1.44 0-3.68 0-5.92-0.16z"></path>
<path d="M23.2 28c0.96 0 1.76-0.8 1.76-1.76s-0.8-1.76-1.76-1.76-1.76 0.8-1.76 1.76c0.16 0.96 0.8 1.76 1.76 1.76z"></path>
</svg>
