<!-- Generated by IcoMoon.io -->
<svg version="1.1" xmlns="http://www.w3.org/2000/svg" width="32" height="32" viewBox="0 0 32 32">
<title>line-chart</title>
<path d="M28.533 25.867h-22.933v-20.8c0-0.147-0.12-0.267-0.267-0.267h-1.867c-0.147 0-0.267 0.12-0.267 0.267v22.933c0 0.147 0.12 0.267 0.267 0.267h25.067c0.147 0 0.267-0.12 0.267-0.267v-1.867c0-0.147-0.12-0.267-0.267-0.267zM9.127 20.723c0.103 0.103 0.27 0.103 0.377 0l4.61-4.587 4.253 4.28c0.103 0.103 0.273 0.103 0.377 0l9.18-9.177c0.103-0.103 0.103-0.273 0-0.377l-1.32-1.32c-0.050-0.050-0.118-0.077-0.188-0.077s-0.138 0.028-0.188 0.077l-7.667 7.663-4.247-4.273c-0.050-0.050-0.118-0.077-0.188-0.077s-0.138 0.028-0.188 0.077l-6.127 6.090c-0.050 0.050-0.077 0.118-0.077 0.188s0.028 0.138 0.077 0.188l1.317 1.323z"></path>
</svg>
