<!-- Generated by IcoMoon.io -->
<svg version="1.1" xmlns="http://www.w3.org/2000/svg" width="32" height="32" viewBox="0 0 32 32">
<title>login</title>
<path d="M16.556 3.2c-4.54-0.012-8.534 2.337-10.817 5.885-0.101 0.158 0.012 0.366 0.199 0.366h2.093c0.143 0 0.277-0.063 0.366-0.173 0.208-0.253 0.432-0.497 0.667-0.729 0.97-0.967 2.099-1.729 3.355-2.259 1.298-0.548 2.679-0.828 4.105-0.828s2.807 0.277 4.105 0.828c1.256 0.53 2.384 1.292 3.355 2.259s1.729 2.096 2.262 3.349c0.551 1.298 0.828 2.676 0.828 4.102s-0.28 2.804-0.828 4.102c-0.53 1.253-1.292 2.381-2.262 3.349s-2.099 1.73-3.355 2.259c-1.299 0.549-2.695 0.83-4.105 0.828-1.426 0-2.807-0.28-4.105-0.828-1.254-0.529-2.393-1.296-3.355-2.259-0.235-0.235-0.455-0.479-0.667-0.729-0.089-0.11-0.226-0.173-0.366-0.173h-2.093c-0.188 0-0.304 0.208-0.199 0.366 2.28 3.539 6.257 5.885 10.785 5.885 7.031 0 12.74-5.659 12.812-12.669 0.071-7.123-5.647-12.913-12.779-12.931zM12.785 19.334v-2.262h-9.347c-0.131 0-0.238-0.107-0.238-0.238v-1.667c0-0.131 0.107-0.238 0.238-0.238h9.347v-2.262c0-0.199 0.232-0.313 0.387-0.188l4.224 3.334c0.028 0.022 0.052 0.051 0.067 0.083s0.024 0.068 0.024 0.104c0 0.036-0.008 0.072-0.024 0.104s-0.039 0.061-0.067 0.083l-4.224 3.334c-0.155 0.122-0.387 0.012-0.387-0.188z"></path>
</svg>
