<!-- Generated by IcoMoon.io -->
<svg version="1.1" xmlns="http://www.w3.org/2000/svg" width="32" height="32" viewBox="0 0 32 32">
<title>merge-cells</title>
<path d="M15.037 15.884l-4.878-3.859c-0.097-0.078-0.236-0.006-0.236 0.116v2.76h-4.525v-9.503h6.594v4.137c0 0.071 0.058 0.129 0.129 0.129h1.939c0.071 0 0.129-0.058 0.129-0.129v-5.43c0-0.501-0.404-0.905-0.905-0.905h-9.18c-0.501 0-0.905 0.404-0.905 0.905v23.79c0 0.501 0.404 0.905 0.905 0.905h9.18c0.501 0 0.905-0.404 0.905-0.905v-5.43c0-0.071-0.058-0.129-0.129-0.129h-1.939c-0.071 0-0.129 0.058-0.129 0.129v4.137h-6.594v-9.503h4.525v2.76c0 0.123 0.142 0.194 0.236 0.116l4.878-3.859c0.018-0.013 0.033-0.031 0.043-0.051s0.015-0.043 0.015-0.065-0.005-0.045-0.015-0.065c-0.010-0.020-0.025-0.038-0.043-0.051v0zM27.895 3.2h-9.18c-0.501 0-0.905 0.404-0.905 0.905v5.43c0 0.071 0.058 0.129 0.129 0.129h1.939c0.071 0 0.129-0.058 0.129-0.129v-4.137h6.594v9.503h-4.525v-2.76c0-0.123-0.139-0.194-0.236-0.116l-4.881 3.859c-0.017 0.014-0.031 0.031-0.041 0.051s-0.015 0.042-0.015 0.064 0.005 0.044 0.015 0.064c0.010 0.020 0.024 0.037 0.041 0.051l4.881 3.863c0.094 0.074 0.236 0.007 0.236-0.116v-2.76h4.525v9.503h-6.594v-4.137c0-0.071-0.058-0.129-0.129-0.129h-1.939c-0.071 0-0.129 0.058-0.129 0.129v5.43c0 0.501 0.404 0.905 0.905 0.905h9.18c0.501 0 0.905-0.404 0.905-0.905v-23.79c0-0.501-0.404-0.905-0.905-0.905z"></path>
</svg>
