<!-- Generated by IcoMoon.io -->
<svg version="1.1" xmlns="http://www.w3.org/2000/svg" width="32" height="32" viewBox="0 0 32 32">
<title>pie-chart</title>
<path d="M26.239 16.175h-10.414v-10.414c0-0.128-0.105-0.233-0.233-0.233h-0.756c-1.528-0.003-3.042 0.297-4.453 0.882s-2.694 1.443-3.773 2.525c-1.063 1.059-1.909 2.315-2.493 3.697-0.607 1.434-0.919 2.975-0.916 4.532-0.002 1.528 0.297 3.042 0.882 4.453s1.443 2.694 2.525 3.773c1.068 1.068 2.313 1.908 3.697 2.493 1.434 0.607 2.975 0.919 4.532 0.916 1.528 0.003 3.042-0.297 4.453-0.882s2.694-1.443 3.773-2.525c1.068-1.068 1.908-2.313 2.493-3.697 0.608-1.434 0.919-2.975 0.916-4.532v-0.756c0-0.128-0.105-0.233-0.233-0.233zM21.634 24.023c-0.901 0.894-1.969 1.601-3.144 2.081s-2.432 0.724-3.701 0.717c-2.563-0.012-4.971-1.015-6.784-2.828-1.824-1.824-2.828-4.25-2.828-6.83s1.004-5.006 2.828-6.83c1.588-1.588 3.633-2.557 5.841-2.778v10.598h10.597c-0.224 2.22-1.201 4.276-2.81 5.87v0zM28.799 14.558l-0.076-0.82c-0.247-2.679-1.437-5.207-3.351-7.115-1.915-1.912-4.438-3.095-7.133-3.345l-0.823-0.076c-0.137-0.012-0.253 0.093-0.253 0.23v11.173c0 0.128 0.105 0.233 0.233 0.233l11.171-0.029c0.137 0 0.244-0.116 0.233-0.25zM19.136 12.865v-7.464c1.832 0.384 3.514 1.291 4.84 2.612 1.329 1.326 2.24 3.014 2.618 4.832l-7.459 0.020z"></path>
</svg>
