<!-- Generated by IcoMoon.io -->
<svg version="1.1" xmlns="http://www.w3.org/2000/svg" width="32" height="32" viewBox="0 0 32 32">
<title>promotion</title>
<path d="M25.739 9.151h-1.63c0.215-0.341 0.357-0.724 0.397-1.129 0.129-1.294-0.551-2.453-1.709-2.967-1.064-0.473-2.26-0.279-3.121 0.503l-2.059 1.869c-0.401-0.439-0.977-0.715-1.617-0.715-0.641 0-1.218 0.277-1.619 0.718l-2.062-1.872c-0.863-0.782-2.058-0.975-3.122-0.503-1.158 0.514-1.838 1.674-1.708 2.968 0.041 0.404 0.182 0.787 0.397 1.128h-1.626c-0.807 0-1.461 0.655-1.461 1.463v2.195c0 0.404 0.327 0.732 0.73 0.732h20.939c0.403 0 0.73-0.328 0.73-0.732v-2.195c0-0.808-0.654-1.463-1.461-1.463zM13.809 8.907v0.244h-3.436c-0.908 0-1.622-0.848-1.396-1.795 0.1-0.417 0.4-0.772 0.789-0.952 0.534-0.247 1.125-0.168 1.573 0.239l2.471 2.243c-0 0.007-0.001 0.014-0.001 0.022zM23.057 7.828c-0.055 0.761-0.74 1.323-1.501 1.323h-3.364v-0.244c0-0.009-0.001-0.017-0.001-0.026l2.432-2.208c0.374-0.34 0.898-0.498 1.382-0.354 0.695 0.208 1.103 0.799 1.052 1.509zM6.261 15.005v10.732c0 0.808 0.654 1.463 1.461 1.463h6.817v-12.195h-8.278zM17.461 15.005v12.195h6.817c0.807 0 1.461-0.655 1.461-1.463v-10.732h-8.278z"></path>
</svg>
