<!-- Generated by IcoMoon.io -->
<svg version="1.1" xmlns="http://www.w3.org/2000/svg" width="32" height="32" viewBox="0 0 32 32">
<title>retweet</title>
<path d="M3.467 17.33h2.119c0.147 0 0.267-0.12 0.267-0.267v-8.508h17.615v2.419c0 0.063 0.020 0.123 0.060 0.173 0.023 0.029 0.050 0.053 0.082 0.071s0.067 0.029 0.103 0.034c0.036 0.004 0.073 0.001 0.108-0.008s0.068-0.027 0.096-0.049l4.776-3.749c0.143-0.167 0.12-0.343 0-0.44l-4.776-3.746c-0.049-0.039-0.11-0.061-0.173-0.060-0.153 0-0.28 0.127-0.28 0.28v2.419h-17.875c-1.316 0-2.389 1.073-2.389 2.393v8.771c0 0.147 0.12 0.267 0.267 0.267zM28.527 14.664h-2.119c-0.147 0-0.267 0.12-0.267 0.267v8.508h-17.615v-2.419c0-0.063-0.020-0.123-0.060-0.173-0.022-0.029-0.050-0.053-0.082-0.071s-0.067-0.029-0.103-0.034c-0.036-0.004-0.073-0.002-0.108 0.008s-0.068 0.027-0.097 0.049l-4.775 3.749c-0.143 0.167-0.12 0.343 0 0.44l4.775 3.746c0.050 0.040 0.11 0.060 0.173 0.060 0.153 0 0.28-0.127 0.28-0.28v-2.419h17.882c1.316 0 2.389-1.073 2.389-2.393v-8.771c-0.007-0.147-0.127-0.267-0.273-0.267z"></path>
</svg>
