<!-- Generated by IcoMoon.io -->
<svg version="1.1" xmlns="http://www.w3.org/2000/svg" width="32" height="32" viewBox="0 0 32 32">
<title>seat</title>
<path d="M19.348 16.494c-0.926 0-1.715-0.29-2.368-0.869s-0.98-1.275-0.98-2.088v-7.392c0-0.813 0.33-1.507 0.989-2.081s1.451-0.862 2.377-0.862h3.366c0.926 0 1.715 0.29 2.368 0.869s0.98 1.275 0.98 2.088v7.392c0 0.813-0.33 1.507-0.989 2.081s-1.451 0.862-2.377 0.862h-3.366zM19.36 13.54h3.36v-7.385h-3.36v7.385zM12.407 23.879c-0.716 0-1.367-0.19-1.955-0.569s-0.994-0.887-1.218-1.523l-4.433-12.673v-5.912h3.381v5.908l4.226 11.815h14.793v2.954h-14.793zM4.8 28.802v-2.954h22.4v2.954h-22.4z"></path>
</svg>
