<!-- Generated by IcoMoon.io -->
<svg version="1.1" xmlns="http://www.w3.org/2000/svg" width="32" height="32" viewBox="0 0 32 32">
<title>sound</title>
<path d="M19.394 3.2c-0.19 0-0.384 0.052-0.561 0.171l-11.43 7.47h-5.288c-0.284 0-0.516 0.232-0.516 0.516v9.286c0 0.284 0.232 0.516 0.516 0.516h5.288l11.43 7.47c0.177 0.116 0.374 0.171 0.561 0.171 0.538 0 1.035-0.429 1.035-1.035v-23.53c0-0.606-0.497-1.035-1.035-1.035zM18.108 25.382l-10.014-6.545h-4.172v-5.675h4.172l10.014-6.545v18.765zM29.328 14.839h-4.127c-0.284 0-0.516 0.232-0.516 0.516v1.29c0 0.284 0.232 0.516 0.516 0.516h4.127c0.284 0 0.516-0.232 0.516-0.516v-1.29c0-0.284-0.232-0.516-0.516-0.516zM27.977 23.28l-3.556-2.054c-0.058-0.033-0.123-0.055-0.19-0.064s-0.135-0.004-0.2 0.014c-0.065 0.018-0.126 0.048-0.179 0.089s-0.098 0.092-0.131 0.151l-0.642 1.112c-0.142 0.245-0.058 0.561 0.187 0.703l3.556 2.054c0.058 0.033 0.123 0.055 0.19 0.064s0.135 0.004 0.2-0.014c0.065-0.018 0.126-0.048 0.179-0.089s0.098-0.092 0.131-0.151l0.642-1.112c0.142-0.245 0.055-0.561-0.187-0.703v0zM23.718 10.583c0.033 0.058 0.078 0.11 0.131 0.151s0.114 0.071 0.179 0.089c0.065 0.018 0.133 0.022 0.2 0.014s0.131-0.030 0.19-0.064l3.556-2.054c0.245-0.142 0.329-0.458 0.187-0.703l-0.638-1.109c-0.033-0.058-0.078-0.11-0.131-0.151s-0.114-0.071-0.179-0.089c-0.065-0.018-0.133-0.022-0.2-0.014s-0.131 0.030-0.19 0.064l-3.556 2.054c-0.118 0.069-0.204 0.181-0.239 0.313s-0.017 0.272 0.052 0.39l0.638 1.109z"></path>
</svg>
