<!-- Generated by IcoMoon.io -->
<svg version="1.1" xmlns="http://www.w3.org/2000/svg" width="32" height="32" viewBox="0 0 32 32">
<title>strike-through</title>
<path d="M28.571 14.229h-10.917c-0.286-0.057-0.586-0.114-0.903-0.171-0.454-0.083-0.634-0.117-0.88-0.166-1.466-0.286-2.349-0.571-3.051-0.977-1.003-0.586-1.491-1.38-1.491-2.431 0-1.057 0.434-1.934 1.257-2.543 0.811-0.6 1.966-0.917 3.337-0.917 1.566 0 2.774 0.411 3.594 1.223 0.417 0.411 0.723 0.917 0.909 1.503 0.037 0.117 0.080 0.286 0.123 0.509 0.026 0.137 0.148 0.234 0.283 0.234h2.080c0.16 0 0.289-0.131 0.289-0.289v-0.029c-0.020-0.194-0.037-0.346-0.057-0.457-0.209-1.243-0.8-2.334-1.706-3.151-1.268-1.157-3.134-1.766-5.391-1.766-2.066 0-3.926 0.517-5.237 1.454-0.731 0.526-1.297 1.177-1.674 1.934-0.386 0.774-0.58 1.669-0.58 2.654 0 0.843 0.163 1.557 0.494 2.186 0.237 0.449 0.56 0.843 0.974 1.2h-6.594c-0.126 0-0.229 0.103-0.229 0.229v1.714c0 0.126 0.103 0.229 0.229 0.229h12.377c0.060 0.011 0.111 0.023 0.169 0.034 0.883 0.177 1.414 0.297 1.903 0.434 0.657 0.186 1.16 0.38 1.577 0.614 1.023 0.577 1.523 1.406 1.523 2.543 0 1.008-0.443 1.908-1.246 2.537-0.871 0.683-2.16 1.040-3.728 1.040-1.249 0-2.306-0.243-3.149-0.714-0.831-0.466-1.403-1.137-1.706-1.986-0.023-0.063-0.049-0.149-0.077-0.257-0.034-0.126-0.151-0.214-0.277-0.214h-2.277c-0.16 0-0.289 0.132-0.289 0.289v0.029c0.006 0.066 0.011 0.12 0.017 0.163 0.186 1.394 0.866 2.537 2.020 3.394 1.346 0.994 3.24 1.52 5.48 1.52 2.406 0 4.423-0.566 5.834-1.637 0.714-0.54 1.263-1.206 1.631-1.972 0.372-0.774 0.563-1.654 0.563-2.614 0-0.909-0.166-1.669-0.508-2.326-0.166-0.32-0.374-0.614-0.623-0.88h5.928c0.126 0 0.229-0.103 0.229-0.228v-1.714c-0.001-0.060-0.025-0.118-0.068-0.16s-0.1-0.066-0.161-0.066v0z"></path>
</svg>
