<?xml version="1.0" encoding="UTF-8"?>
<svg id="Layer_1" data-name="Layer 1" xmlns="http://www.w3.org/2000/svg" version="1.1" viewBox="0 0 20 20">
  <defs>
    <style>
      .cls-1 {
        fill: #000;
        stroke-width: 0px;
      }
    </style>
  </defs>
  <path class="cls-1" d="M12.9,11.5c-.9,0-1.4.5-2.9.5s-2-.5-2.9-.5c-2.4,0-4.3,1.9-4.3,4.2v.8c0,.8.7,1.5,1.5,1.5h11.3c.9,0,1.5-.7,1.5-1.5v-.8c0-2.3-1.9-4.2-4.3-4.2ZM15.7,16.5H4.3v-.8c0-1.5,1.2-2.7,2.8-2.7s1.2.5,2.9.5,2.4-.5,2.9-.5c1.5,0,2.8,1.2,2.8,2.7v.8ZM10,11c2.6,0,4.6-2,4.6-4.5s-2.1-4.5-4.6-4.5-4.6,2-4.6,4.5,2.1,4.5,4.6,4.5ZM10,3.5c1.7,0,3.1,1.3,3.1,3s-1.4,3-3.1,3-3.1-1.3-3.1-3,1.4-3,3.1-3Z"/>
</svg>