<svg width="24" height="24" viewBox="0 0 24 24" fill="none" xmlns="http://www.w3.org/2000/svg">
<path d="M12.4272 11.4807C11.4647 11.4807 10.6408 11.138 9.9555 10.4527C9.27 9.76721 8.92725 8.94321 8.92725 7.98071C8.92725 7.01821 9.27 6.1943 9.9555 5.50896C10.6408 4.82346 11.4647 4.48071 12.4272 4.48071C13.3897 4.48071 14.2137 4.82346 14.899 5.50896C15.5845 6.1943 15.9272 7.01821 15.9272 7.98071C15.9272 8.94321 15.5845 9.76721 14.899 10.4527C14.2137 11.138 13.3897 11.4807 12.4272 11.4807ZM4.92725 17.577V16.873C4.92725 16.3833 5.06025 15.9298 5.32625 15.5125C5.59225 15.0951 5.94775 14.7743 6.39275 14.55C7.38108 14.0655 8.37816 13.702 9.384 13.4597C10.3898 13.2174 11.4042 13.0962 12.4272 13.0962C13.4502 13.0962 14.4647 13.2174 15.4705 13.4597C16.4763 13.702 17.4734 14.0655 18.4617 14.55C18.9067 14.7743 19.2622 15.0951 19.5282 15.5125C19.7942 15.9298 19.9272 16.3833 19.9272 16.873V17.577C19.9272 17.9986 19.7795 18.3573 19.484 18.653C19.1885 18.9485 18.8298 19.0962 18.408 19.0962H6.4465C6.02466 19.0962 5.666 18.9485 5.3705 18.653C5.075 18.3573 4.92725 17.9986 4.92725 17.577ZM6.42725 17.5962H18.4272V16.873C18.4272 16.6705 18.3686 16.483 18.2512 16.3105C18.1339 16.1381 17.9747 15.9975 17.7735 15.8885C16.9118 15.4641 16.0333 15.1426 15.138 14.924C14.2425 14.7055 13.3389 14.5962 12.4272 14.5962C11.5156 14.5962 10.612 14.7055 9.7165 14.924C8.82116 15.1426 7.94266 15.4641 7.081 15.8885C6.87983 15.9975 6.72058 16.1381 6.60325 16.3105C6.48591 16.483 6.42725 16.6705 6.42725 16.873V17.5962ZM12.4272 9.98071C12.9772 9.98071 13.4481 9.78488 13.8397 9.39321C14.2314 9.00155 14.4272 8.53071 14.4272 7.98071C14.4272 7.43071 14.2314 6.95988 13.8397 6.56821C13.4481 6.17655 12.9772 5.98071 12.4272 5.98071C11.8772 5.98071 11.4064 6.17655 11.0147 6.56821C10.6231 6.95988 10.4272 7.43071 10.4272 7.98071C10.4272 8.53071 10.6231 9.00155 11.0147 9.39321C11.4064 9.78488 11.8772 9.98071 12.4272 9.98071Z" fill="#1C1B1F"/>
</svg>
