<?xml version="1.0" encoding="UTF-8"?>
<svg id="Layer_1" data-name="Layer 1" xmlns="http://www.w3.org/2000/svg" xmlns:xlink="http://www.w3.org/1999/xlink" version="1.1" viewBox="0 0 24 24">
  <defs>
    <style>
      .cls-1 {
        mask: url(#mask);
      }

      .cls-2 {
        fill: #000;
      }

      .cls-2, .cls-3 {
        stroke-width: 0px;
      }

      .cls-3 {
        fill: #d9d9d9;
      }
    </style>
    <mask id="mask" x="0" y="0" width="24" height="24" maskUnits="userSpaceOnUse">
      <g id="mask0_17153_54137" data-name="mask0 17153 54137">
        <rect class="cls-3" y="0" width="24" height="24"/>
      </g>
    </mask>
  </defs>
  <g class="cls-1">
    <path class="cls-2" d="M12.3,13.1l5.4-3.6-5.4-3.6v7.3ZM14.9,18.7h3.5c0,.3-.2.6-.4.8-.2.2-.5.4-.9.4l-11.1,1.4c-.5,0-.9,0-1.3-.4-.4-.3-.6-.7-.7-1.2l-1.3-10.3c0-.5,0-.9.4-1.3.3-.4.7-.6,1.2-.7h.9c0,0,0,1.4,0,1.4h-.7c0,0-.2.1-.2.2,0,0,0,.1,0,.2l1.3,10.3c0,0,0,.2.1.2,0,0,.1,0,.2,0l9.1-1.1ZM8.9,16.7c-.5,0-.9-.2-1.3-.5s-.5-.8-.5-1.3V4.2c0-.5.2-.9.5-1.3.3-.3.8-.5,1.3-.5h10.8c.5,0,.9.2,1.3.5.4.4.5.8.5,1.3v10.8c0,.5-.2.9-.5,1.3s-.8.5-1.3.5h-10.8ZM8.9,15.2h10.8c0,0,.2,0,.2,0,0,0,0-.1,0-.2V4.2c0,0,0-.2,0-.2,0,0-.1,0-.2,0h-10.8c0,0-.2,0-.2,0,0,0,0,.1,0,.2v10.8c0,0,0,.2,0,.2,0,0,.1,0,.2,0Z"/>
  </g>
</svg>