<?xml version="1.0" encoding="UTF-8"?>
<svg id="Layer_1" data-name="Layer 1" xmlns="http://www.w3.org/2000/svg" version="1.1" viewBox="0 0 24 24">
  <defs>
    <style>
      .cls-1 {
        fill: #000;
        stroke-width: 0px;
      }
    </style>
  </defs>
  <path class="cls-1" d="M16.6,22c-3,0-5.4-2.4-5.4-5.4s2.4-5.4,5.4-5.4,5.4,2.4,5.4,5.4-2.4,5.4-5.4,5.4ZM16.6,12.4c-2.3,0-4.2,1.9-4.2,4.2s1.9,4.2,4.2,4.2,4.2-1.9,4.2-4.2-1.9-4.2-4.2-4.2Z"/>
  <path class="cls-1" d="M16.6,19.5c-.2,0-.3,0-.4-.2-.1-.1-.2-.3-.2-.4v-4.6c0-.2,0-.3.2-.4.1-.1.3-.2.4-.2s.3,0,.4.2c.1.1.2.3.2.4v4.6c0,.2,0,.3-.2.4-.1.1-.3.2-.4.2Z"/>
  <path class="cls-1" d="M18.9,17.2h-4.6c-.2,0-.3,0-.4-.2-.1-.1-.2-.3-.2-.4s0-.3.2-.4c.1-.1.3-.2.4-.2h4.6c.2,0,.3,0,.4.2.1.1.2.3.2.4s0,.3-.2.4c-.1.1-.3.2-.4.2ZM9.7,19.5h-5.4c-.6,0-1.2-.2-1.6-.7-.4-.4-.7-1-.7-1.6V4.3c0-.6.2-1.2.7-1.6.4-.4,1-.7,1.6-.7h9.6c.6,0,1.2.2,1.6.7.4.4.7,1,.7,1.6v5.1c0,.2,0,.3-.2.4-.1.1-.3.2-.4.2s-.3,0-.4-.2c-.1-.1-.2-.3-.2-.4v-5.1c0-.6-.5-1-1-1H4.3c-.6,0-1,.5-1,1v12.9c0,.6.5,1,1,1h5.4c.2,0,.3,0,.4.2.1.1.2.3.2.4s0,.3-.2.4c-.1.1-.3.2-.4.2Z"/>
  <path class="cls-1" d="M13,9.9h-7.9c-.2,0-.3,0-.4-.2-.1-.1-.2-.3-.2-.4s0-.3.2-.4c.1-.1.3-.2.4-.2h7.9c.2,0,.3,0,.4.2.1.1.2.3.2.4s0,.3-.2.4c-.1.1-.3.2-.4.2ZM9.7,13.2h-4.6c-.2,0-.3,0-.4-.2-.1-.1-.2-.3-.2-.4s0-.3.2-.4c.1-.1.3-.2.4-.2h4.6c.2,0,.3,0,.4.2.1.1.2.3.2.4s0,.3-.2.4c-.1.1-.3.2-.4.2ZM8.9,6.6h-3.8c-.2,0-.3,0-.4-.2-.1-.1-.2-.3-.2-.4s0-.3.2-.4c.1-.1.3-.2.4-.2h3.8c.2,0,.3,0,.4.2.1.1.2.3.2.4s0,.3-.2.4c-.1.1-.3.2-.4.2Z"/>
</svg>