<?xml version="1.0" encoding="UTF-8"?>
<svg id="Layer_1" data-name="Layer 1" xmlns="http://www.w3.org/2000/svg" xmlns:xlink="http://www.w3.org/1999/xlink" version="1.1" viewBox="0 0 24 24">
  <defs>
    <style>
      .cls-1 {
        mask: url(#mask);
      }

      .cls-2 {
        fill: #000;
      }

      .cls-2, .cls-3 {
        stroke-width: 0px;
      }

      .cls-3 {
        fill: #d9d9d9;
      }
    </style>
    <mask id="mask" x="0" y="0" width="24" height="24" maskUnits="userSpaceOnUse">
      <g id="mask0_16270_33208" data-name="mask0 16270 33208">
        <rect class="cls-3" y="0" width="24" height="24"/>
      </g>
    </mask>
  </defs>
  <g class="cls-1">
    <path class="cls-2" d="M10.9,14.1l-1.6-1.6c-.2-.2-.3-.2-.5-.2-.2,0-.4,0-.5.2-.2.2-.2.3-.2.5s0,.4.2.5l2.1,2.1c.2.2.4.3.6.3s.5,0,.6-.3l4.2-4.2c.2-.2.2-.3.2-.5,0-.2,0-.4-.2-.6-.2-.2-.3-.2-.5-.2s-.4,0-.5.2l-3.8,3.8ZM12,21.7c-1.2,0-2.3-.2-3.4-.7-1.1-.5-2-1.1-2.8-1.9-.8-.8-1.4-1.7-1.9-2.8-.5-1.1-.7-2.2-.7-3.4s.2-2.3.7-3.4c.5-1.1,1.1-2,1.9-2.8s1.7-1.4,2.8-1.9c1.1-.5,2.2-.7,3.4-.7s2.3.2,3.4.7c1.1.5,2,1.1,2.8,1.9.8.8,1.4,1.7,1.9,2.8.5,1.1.7,2.2.7,3.4s-.2,2.3-.7,3.4c-.5,1.1-1.1,2-1.9,2.8-.8.8-1.7,1.4-2.8,1.9-1.1.5-2.2.7-3.4.7ZM2.2,7.2c-.1-.1-.2-.3-.2-.5s0-.4.2-.5l2.9-2.9c.1-.1.3-.2.5-.2.2,0,.4,0,.5.2.1.1.2.3.2.5s0,.4-.2.5l-2.9,2.9c-.1.1-.3.2-.5.2-.2,0-.4,0-.5-.2ZM21.8,7.2c-.1.1-.3.2-.5.2s-.4,0-.5-.2l-2.9-2.9c-.1-.1-.2-.3-.2-.5,0-.2,0-.4.2-.5.1-.1.3-.2.5-.2s.4,0,.5.2l2.9,2.9c.1.1.2.3.2.5,0,.2,0,.4-.2.5ZM12,20.1c2,0,3.7-.7,5.1-2.1,1.4-1.4,2.1-3.1,2.1-5.1s-.7-3.7-2.1-5.1c-1.4-1.4-3.1-2.1-5.1-2.1s-3.7.7-5.1,2.1c-1.4,1.4-2.1,3.1-2.1,5.1s.7,3.7,2.1,5.1c1.4,1.4,3.1,2.1,5.1,2.1Z"/>
  </g>
</svg>