<!-- Generated by IcoMoon.io -->
<svg version="1.1" xmlns="http://www.w3.org/2000/svg" width="32" height="32" viewBox="0 0 32 32">
<title>alert</title>
<path d="M6.461 24.187c0 0.51 0.412 0.923 0.923 0.923h16.548c0.51 0 0.923-0.412 0.923-0.923v-6.717c0-5.080-4.117-9.196-9.196-9.196s-9.196 4.117-9.196 9.196v6.717zM8.537 17.47c0-3.932 3.188-7.121 7.121-7.121s7.121 3.188 7.121 7.121v5.564h-10.234v-4.93c0-0.159-0.13-0.288-0.288-0.288h-1.268c-0.159 0-0.288 0.13-0.288 0.288v4.93h-2.162v-5.564zM7.15 10.191l1.142-1.142c0.089-0.089 0.089-0.236 0-0.326l-1.957-1.957c-0.043-0.043-0.102-0.067-0.163-0.067s-0.12 0.024-0.163 0.067l-1.142 1.142c-0.043 0.043-0.067 0.102-0.067 0.163s0.024 0.12 0.067 0.163l1.957 1.957c0.089 0.089 0.234 0.089 0.326 0zM26.454 7.908l-1.142-1.142c-0.043-0.043-0.102-0.067-0.163-0.067s-0.12 0.024-0.163 0.067l-1.957 1.957c-0.043 0.043-0.067 0.102-0.067 0.163s0.024 0.12 0.067 0.163l1.142 1.142c0.089 0.089 0.236 0.089 0.326 0l1.958-1.957c0.089-0.092 0.089-0.236 0-0.326v0zM24.883 26.955h-18.45c-0.51 0-0.923 0.412-0.923 0.923v0.692c0 0.127 0.104 0.231 0.231 0.231h19.834c0.127 0 0.231-0.104 0.231-0.231v-0.692c0-0.51-0.412-0.923-0.923-0.923zM14.85 6.429h1.614c0.127 0 0.231-0.104 0.231-0.231v-2.768c0-0.127-0.104-0.231-0.231-0.231h-1.614c-0.127 0-0.231 0.104-0.231 0.231v2.768c0 0.127 0.104 0.231 0.231 0.231z"></path>
</svg>
