<?xml version="1.0" encoding="utf-8"?>
<!-- Generator: Adobe Illustrator 28.1.0, SVG Export Plug-In . SVG Version: 6.00 Build 0)  -->
<svg version="1.1" id="Layer_1" xmlns="http://www.w3.org/2000/svg" xmlns:xlink="http://www.w3.org/1999/xlink" x="0px" y="0px"
	 viewBox="0 0 24 24" style="enable-background:new 0 0 24 24;" xml:space="preserve">
<g>
	<path d="M12,4C9.9,4,7.8,4.9,6.3,6.4C5.6,7.2,5,8.1,4.6,9.1c-0.4,1-0.6,2-0.6,3.1c0,1,0.2,2.1,0.6,3c0.4,1,1,1.8,1.7,2.6
		C7,18.4,7.9,19,8.9,19.4c1,0.4,2,0.6,3,0.6H12c2.1,0,4.2-0.9,5.7-2.4c1.5-1.5,2.3-3.6,2.3-5.7c0-1-0.2-2.1-0.6-3
		c-0.4-1-1-1.8-1.7-2.6C16.9,5.5,16,4.9,15,4.6S13,4,12,4z M11,15c0-0.1,0-0.3,0.1-0.4c0-0.1,0.1-0.2,0.2-0.3
		c0.1-0.1,0.2-0.2,0.3-0.2C11.7,14,11.8,14,12,14h0c0.3,0,0.5,0.1,0.7,0.3c0.2,0.2,0.3,0.4,0.3,0.7c0,0.1,0,0.3-0.1,0.4
		c0,0.1-0.1,0.2-0.2,0.3c-0.1,0.1-0.2,0.2-0.3,0.2C12.3,16,12.2,16,12,16h0c-0.3,0-0.5-0.1-0.7-0.3C11.1,15.5,11,15.3,11,15z
		 M11.3,12.3v-4c0-0.2,0.1-0.3,0.2-0.5c0.1-0.1,0.3-0.2,0.5-0.2c0.2,0,0.3,0.1,0.5,0.2c0.1,0.1,0.2,0.3,0.2,0.5v4
		c0,0.2-0.1,0.3-0.2,0.5C12.3,12.9,12.2,13,12,13c-0.2,0-0.3-0.1-0.5-0.2C11.4,12.7,11.3,12.5,11.3,12.3z"/>
</g>
</svg>
