<!-- Generated by IcoMoon.io -->
<svg version="1.1" xmlns="http://www.w3.org/2000/svg" width="32" height="32" viewBox="0 0 32 32">
<title>api</title>
<path d="M28.735 4.603l-1.331-1.331c-0.050-0.050-0.113-0.072-0.179-0.072s-0.129 0.025-0.179 0.072l-2.388 2.388c-1.038-0.703-2.264-1.079-3.518-1.076-1.607 0-3.214 0.612-4.441 1.839l-3.198 3.198c-0.047 0.047-0.073 0.111-0.073 0.177s0.026 0.13 0.073 0.177l8.527 8.527c0.050 0.050 0.113 0.072 0.179 0.072 0.063 0 0.129-0.025 0.179-0.072l3.198-3.198c2.162-2.165 2.417-5.514 0.763-7.956l2.388-2.388c0.097-0.1 0.097-0.26 0-0.358v0zM24.071 13.795l-1.864 1.864-5.862-5.863 1.864-1.864c0.781-0.781 1.823-1.215 2.931-1.215s2.147 0.43 2.931 1.215c0.781 0.781 1.215 1.823 1.215 2.931s-0.433 2.147-1.215 2.931v0zM18.102 17.091c-0.047-0.047-0.111-0.073-0.177-0.073s-0.13 0.026-0.177 0.073l-2.090 2.090-2.834-2.834 2.093-2.093c0.097-0.097 0.097-0.257 0-0.355l-1.142-1.142c-0.047-0.047-0.111-0.073-0.177-0.073s-0.13 0.026-0.177 0.073l-2.093 2.093-1.35-1.35c-0.023-0.023-0.051-0.042-0.082-0.054s-0.064-0.018-0.097-0.018c-0.063 0-0.129 0.025-0.179 0.072l-3.195 3.198c-2.162 2.166-2.417 5.514-0.763 7.956l-2.388 2.388c-0.047 0.047-0.073 0.111-0.073 0.177s0.026 0.13 0.073 0.177l1.331 1.331c0.050 0.050 0.113 0.072 0.179 0.072s0.129-0.025 0.179-0.072l2.388-2.388c1.058 0.719 2.288 1.076 3.518 1.076 1.607 0 3.214-0.612 4.441-1.839l3.198-3.198c0.097-0.097 0.097-0.257 0-0.355l-1.349-1.349 2.093-2.093c0.097-0.097 0.097-0.257 0-0.355l-1.149-1.136zM13.796 24.070c-0.384 0.386-0.841 0.692-1.344 0.901s-1.043 0.315-1.587 0.314c-1.108 0-2.147-0.43-2.931-1.215-0.386-0.384-0.692-0.841-0.901-1.344s-0.315-1.043-0.314-1.587c0-1.108 0.43-2.147 1.215-2.931l1.864-1.864 5.863 5.863-1.864 1.864z"></path>
</svg>
