<svg width="24" height="24" viewBox="0 0 24 24" fill="none" xmlns="http://www.w3.org/2000/svg">
<path d="M2.84043 18.5563V17.0563H5.76343L5.03668 16.3603C4.21484 15.5999 3.63051 14.7489 3.28368 13.8073C2.93684 12.8656 2.76343 11.914 2.76343 10.9525C2.76343 9.22435 3.26951 7.67468 4.28168 6.30352C5.29384 4.93235 6.6211 3.99102 8.26343 3.47952V5.06027C7.0571 5.53193 6.08884 6.30468 5.35868 7.37852C4.62851 8.45218 4.26343 9.64352 4.26343 10.9525C4.26343 11.7345 4.41151 12.4941 4.70768 13.2313C5.00384 13.9684 5.46476 14.6498 6.09043 15.2755L6.72493 15.9103V13.1718H8.22493V18.5563H2.84043ZM19.6979 9.71977H18.1827C18.0802 9.13643 17.8882 8.57327 17.6067 8.03027C17.3253 7.48743 16.9481 6.97435 16.4749 6.49102L15.8404 5.85627V8.59477H14.3404V3.21027H19.7249V4.71027H16.8019L17.5287 5.40627C18.1608 6.0551 18.6523 6.74227 19.0029 7.46777C19.3534 8.19343 19.5851 8.9441 19.6979 9.71977Z" fill="#1C1B1F"/>
<path d="M16.2521 20.7897L16.0483 19.607C15.7585 19.5237 15.5085 19.4217 15.2983 19.3012C15.088 19.1807 14.8816 19.0314 14.6791 18.8532L13.5558 19.2552L12.7676 17.9782L13.6963 17.1897C13.6182 16.8924 13.5791 16.6117 13.5791 16.3475C13.5791 16.0833 13.6182 15.8026 13.6963 15.5052L12.7676 14.7167L13.5558 13.4397L14.6791 13.8417C14.8816 13.6636 15.088 13.5142 15.2983 13.3937C15.5085 13.2732 15.7585 13.1713 16.0483 13.088L16.2521 11.9052H17.7521L17.9558 13.088C18.2457 13.1713 18.4957 13.2757 18.7058 13.4012C18.9162 13.5269 19.1226 13.684 19.3251 13.8725L20.4481 13.4397L21.2366 14.7475L20.3078 15.536C20.386 15.8128 20.4251 16.0885 20.4251 16.363C20.4251 16.6373 20.386 16.9129 20.3078 17.1897L21.2366 17.9782L20.4481 19.2552L19.3251 18.8532C19.1226 19.0314 18.9162 19.1807 18.7058 19.3012C18.4957 19.4217 18.2457 19.5237 17.9558 19.607L17.7521 20.7897H16.2521ZM17.0021 18.4245C17.5712 18.4245 18.0597 18.2207 18.4673 17.813C18.8752 17.4052 19.0791 16.9167 19.0791 16.3475C19.0791 15.7783 18.8752 15.2898 18.4673 14.882C18.0597 14.4743 17.5712 14.2705 17.0021 14.2705C16.4329 14.2705 15.9444 14.4743 15.5366 14.882C15.1289 15.2898 14.9251 15.7783 14.9251 16.3475C14.9251 16.9167 15.1289 17.4052 15.5366 17.813C15.9444 18.2207 16.4329 18.4245 17.0021 18.4245Z" fill="#1C1B1F"/>
</svg>
