<!-- Generated by IcoMoon.io -->
<svg version="1.1" xmlns="http://www.w3.org/2000/svg" width="32" height="32" viewBox="0 0 32 32">
<title>apple</title>
<path d="M22.781 16.729c-0.012-2.098 0.938-3.68 2.858-4.846-1.074-1.538-2.698-2.384-4.84-2.548-2.028-0.16-4.246 1.181-5.058 1.181-0.858 0-2.821-1.126-4.366-1.126-3.188 0.049-6.575 2.541-6.575 7.612 0 1.498 0.274 3.046 0.822 4.64 0.732 2.098 3.372 7.24 6.126 7.157 1.44-0.034 2.458-1.022 4.332-1.022 1.818 0 2.76 1.022 4.366 1.022 2.778-0.040 5.166-4.714 5.861-6.818-3.726-1.757-3.526-5.144-3.526-5.252v0zM22.455 24.944c-0.44 0.612-0.883 1.095-1.289 1.406-0.323 0.246-0.572 0.351-0.738 0.357-0.277-0.003-0.544-0.071-1.068-0.271-0.037-0.015-0.077-0.031-0.129-0.049l-0.135-0.052c-0.535-0.206-0.855-0.317-1.265-0.425-0.572-0.148-1.141-0.228-1.751-0.228-0.621 0-1.206 0.077-1.788 0.221-0.428 0.108-0.788 0.228-1.314 0.425-0.022 0.009-0.249 0.095-0.314 0.12-0.108 0.040-0.191 0.071-0.268 0.098-0.32 0.111-0.523 0.157-0.705 0.16-0.022 0-0.040-0.003-0.055-0.006-0.034-0.006-0.077-0.018-0.126-0.040-0.138-0.055-0.305-0.157-0.492-0.302-0.431-0.335-0.905-0.861-1.388-1.535-0.846-1.188-1.646-2.763-2.031-3.868-0.474-1.378-0.708-2.698-0.708-3.957 0-1.852 0.548-3.261 1.489-4.218 0.809-0.818 1.898-1.277 3.009-1.302 0.182 0.003 0.446 0.046 0.781 0.138 0.265 0.071 0.554 0.166 0.945 0.305 0.117 0.043 0.52 0.188 0.569 0.206 0.237 0.086 0.415 0.148 0.591 0.203 0.56 0.178 0.994 0.277 1.465 0.277 0.477 0 0.886-0.102 1.468-0.302 0.218-0.074 1.012-0.369 1.154-0.418 0.788-0.28 1.369-0.431 1.871-0.468 0.148-0.012 0.28-0.012 0.406-0.003 0.698 0.055 1.295 0.194 1.803 0.425-1.157 1.335-1.754 2.969-1.751 4.874-0.009 0.452 0.028 0.975 0.157 1.594 0.197 0.938 0.572 1.868 1.166 2.738 0.452 0.662 1.012 1.258 1.683 1.778-0.354 0.729-0.788 1.483-1.243 2.117zM19.547 7.344c1.56-1.852 1.419-3.538 1.372-4.144-1.378 0.080-2.972 0.938-3.88 1.994-1 1.132-1.588 2.532-1.461 4.111 1.489 0.114 2.849-0.652 3.969-1.96v0z"></path>
</svg>
