<svg width="24" height="24" viewBox="0 0 24 24" fill="none" xmlns="http://www.w3.org/2000/svg">
<path d="M6.74538 12.75L10.0376 16.0422C10.1865 16.1911 10.2599 16.3652 10.2579 16.5645C10.256 16.7638 10.1826 16.9411 10.0376 17.0962C9.88263 17.2512 9.70446 17.3313 9.50313 17.3365C9.30179 17.3417 9.12363 17.2667 8.96863 17.1115L4.48963 12.6327C4.30896 12.4519 4.21863 12.241 4.21863 12C4.21863 11.759 4.30896 11.5481 4.48963 11.3672L8.96863 6.8885C9.1173 6.73983 9.29388 6.66641 9.49838 6.66825C9.70288 6.67025 9.88263 6.74875 10.0376 6.90375C10.1826 7.05891 10.2576 7.23458 10.2626 7.43075C10.2678 7.62691 10.1928 7.80258 10.0376 7.95775L6.74538 11.25H18.5109C18.7237 11.25 18.9019 11.3218 19.0454 11.4655C19.189 11.609 19.2609 11.7872 19.2609 12C19.2609 12.2128 19.189 12.391 19.0454 12.5345C18.9019 12.6782 18.7237 12.75 18.5109 12.75H6.74538Z" fill="#1C1B1F"/>
</svg>
