<!-- Generated by IcoMoon.io -->
<svg version="1.1" xmlns="http://www.w3.org/2000/svg" width="32" height="32" viewBox="0 0 32 32">
<path d="M15.715 20.861c-4.851-4.032-7.44-9.371-7.505-15.469 3.028-0.899 5.58-2.221 7.79-4.033 2.208 1.812 4.759 3.134 7.787 4.033-0.073 5.731-2.934 11.207-8.072 15.469zM28.923 10.296c0.032-1.020-0.118-1.218-0.123-1.226-0.097-0.113-0.123-0.192-0.303-0.221-0.967-0.074-1.225 1.313-1.343 1.943-0.029 0.247-0.273 2.168-0.661 5.163-0.038 0.482-0.732 1.964-1.717 2.521 0.529 1.828-0.482 2.44-1.555 3.087-0.676 0.408-1.44 0.871-2.014 1.718-0.059 0.089-0.159 0.137-0.259 0.137-0.244 0-0.401-0.277-0.259-0.487 0.65-0.961 1.514-1.484 2.211-1.903 1.052-0.637 1.664-1.006 1.291-2.333-2.801 0.849-4.554 2.432-5.823 5.242-0.309 0.832-0.259 1.935-0.194 3.209h5.632c-0.003-0.89 0.053-2.421 0.47-2.97 0.202-0.267 1.808-1.536 2.369-2.032 0.617-0.555 0.994-1.076 1.217-1.684l0.041-0.16c0.232-0.9 0.588-2.261 0.747-5.516 0.003-0.22 0.029-0.577 0.068-1.115 0.050-0.731 0.126-1.834 0.203-3.342l0.003-0.031zM25.528 28.146v2.12c0 0.207-0.168 0.375-0.376 0.375h-7.505c-0.206 0-0.373-0.168-0.373-0.375v-2.12c0-0.207 0.168-0.375 0.373-0.375h7.505c0.209 0 0.376 0.168 0.376 0.375zM14.725 30.266c0 0.207-0.168 0.375-0.373 0.375h-7.505c-0.206 0-0.376-0.168-0.376-0.375v-2.12c0-0.207 0.17-0.375 0.376-0.375h7.505c0.206 0 0.373 0.168 0.373 0.375v2.12zM7.723 24.177c0.417 0.549 0.473 2.079 0.47 2.97h5.632c0.068-1.275 0.115-2.377-0.194-3.209-1.27-2.811-3.022-4.393-5.823-5.242-0.373 1.327 0.238 1.696 1.293 2.333 0.694 0.42 1.558 0.942 2.208 1.903 0.097 0.143 0.059 0.337-0.085 0.434-0.142 0.096-0.336 0.059-0.432-0.084-0.573-0.847-1.338-1.31-2.014-1.718-1.073-0.646-2.084-1.259-1.555-3.087-0.985-0.556-1.679-2.038-1.717-2.521-0.388-2.995-0.632-4.916-0.661-5.163-0.116-0.63-0.377-2.017-1.343-1.943-0.162 0.027-0.201 0.092-0.3 0.221-0.009 0.008-0.159 0.206-0.126 1.226l0.003 0.031c0.076 1.507 0.153 2.611 0.203 3.341 0.038 0.539 0.065 0.895 0.068 1.115 0.159 3.255 0.514 4.616 0.747 5.516l0.041 0.16c0.223 0.608 0.6 1.129 1.22 1.688 0.558 0.493 2.162 1.757 2.366 2.029zM16.001 5.324c-2.225 0-4.036 1.81-4.036 4.034s1.811 4.035 4.036 4.035c2.222 0 4.033-1.81 4.033-4.035s-1.811-4.034-4.033-4.034zM16.001 4.699c-2.569 0-4.659 2.090-4.659 4.659s2.090 4.66 4.659 4.66c2.569 0 4.659-2.090 4.659-4.66s-2.090-4.659-4.659-4.659zM17.976 8.068c-0.115-0.13-0.312-0.142-0.441-0.028l-2.231 1.962-0.811-0.917c-0.055-0.062-0.132-0.1-0.215-0.105s-0.164 0.023-0.226 0.078c-0.031 0.027-0.056 0.060-0.074 0.097s-0.029 0.077-0.031 0.118c-0.003 0.041 0.003 0.082 0.017 0.121s0.034 0.075 0.062 0.105l1.017 1.15c0.114 0.129 0.312 0.141 0.441 0.027l2.463-2.168c0.129-0.114 0.141-0.311 0.029-0.441z"></path>
</svg>
