<?xml version="1.0" encoding="UTF-8"?>
<svg id="Layer_1" data-name="Layer 1" xmlns="http://www.w3.org/2000/svg" xmlns:xlink="http://www.w3.org/1999/xlink" version="1.1" viewBox="0 0 24 24">
  <defs>
    <style>
      .cls-1 {
        mask: url(#mask);
      }

      .cls-2 {
        fill: #000;
      }

      .cls-2, .cls-3 {
        stroke-width: 0px;
      }

      .cls-3 {
        fill: #d9d9d9;
      }
    </style>
    <mask id="mask" x="0" y="0" width="24" height="24" maskUnits="userSpaceOnUse">
      <g id="mask0_16059_32616" data-name="mask0 16059 32616">
        <rect class="cls-3" y="0" width="24" height="24"/>
      </g>
    </mask>
  </defs>
  <g class="cls-1">
    <path class="cls-2" d="M4.9,22c-.5,0-1-.2-1.3-.6-.4-.4-.6-.8-.6-1.3V6c0-.5.2-1,.6-1.3.4-.4.8-.6,1.3-.6h4.7c0-.6.3-1.1.8-1.5.4-.4,1-.6,1.6-.6s1.2.2,1.6.6c.4.4.7.9.8,1.5h4.7c.5,0,1,.2,1.3.6.4.4.6.8.6,1.3v14.1c0,.5-.2,1-.6,1.3-.4.4-.8.6-1.3.6H4.9ZM4.9,20.4h14.1c0,0,.2,0,.2-.1,0,0,.1-.1.1-.2V6c0,0,0-.2-.1-.2,0,0-.1-.1-.2-.1H4.9c0,0-.2,0-.2.1,0,0-.1.1-.1.2v14.1c0,0,0,.2.1.2,0,0,.1.1.2.1ZM7.7,17.9h5.3c.2,0,.4,0,.6-.2.2-.2.2-.3.2-.6s0-.4-.2-.6c-.2-.2-.3-.2-.6-.2h-5.3c-.2,0-.4,0-.6.2-.2.2-.2.3-.2.6s0,.4.2.6c.2.2.3.2.6.2ZM7.7,13.8h8.4c.2,0,.4,0,.6-.2.2-.2.2-.3.2-.6s0-.4-.2-.6c-.2-.2-.3-.2-.6-.2H7.7c-.2,0-.4,0-.6.2-.2.2-.2.3-.2.6s0,.4.2.6c.2.2.3.2.6.2ZM7.7,9.8h8.4c.2,0,.4,0,.6-.2.2-.2.2-.3.2-.6s0-.4-.2-.6c-.2-.2-.3-.2-.6-.2H7.7c-.2,0-.4,0-.6.2-.2.2-.2.3-.2.6s0,.4.2.6c.2.2.3.2.6.2ZM11.9,5c.2,0,.4,0,.6-.2.1-.1.2-.3.2-.6s0-.4-.2-.6c-.1-.1-.3-.2-.6-.2s-.4,0-.6.2c-.1.1-.2.3-.2.6s0,.4.2.6c.1.1.3.2.6.2Z"/>
  </g>
</svg>