<!-- Generated by IcoMoon.io -->
<svg version="1.1" xmlns="http://www.w3.org/2000/svg" width="32" height="32" viewBox="0 0 32 32">
<path d="M16 5.333c-5.891 0-10.667 4.776-10.667 10.667s4.776 10.667 10.667 10.667c1.765 0 3.427-0.428 4.891-1.184 0.654-0.338 1.459-0.082 1.797 0.572s0.082 1.459-0.572 1.797c-1.833 0.948-3.914 1.482-6.115 1.482-7.364 0-13.333-5.97-13.333-13.333s5.97-13.333 13.333-13.333c7.364 0 13.333 5.97 13.333 13.333v2c0 1.303-0.44 2.492-1.307 3.359s-2.057 1.307-3.359 1.307c-1.71 0-3.083-0.808-3.886-2.020-1.211 1.246-2.905 2.020-4.781 2.020-3.682 0-6.667-2.985-6.667-6.667s2.985-6.667 6.667-6.667c1.212 0 2.352 0.325 3.334 0.893 0.637 0.369 0.855 1.184 0.487 1.822s-1.184 0.855-1.822 0.486c-0.587-0.34-1.268-0.534-1.999-0.534-2.209 0-4 1.791-4 4s1.791 4 4 4c2.209 0 4-1.791 4-4 0-0.736 0.597-1.333 1.333-1.333s1.333 0.597 1.333 1.333v2c0 1.147 0.778 2 2 2 0.697 0 1.174-0.227 1.474-0.526s0.526-0.777 0.526-1.474v-2c0-5.891-4.776-10.667-10.667-10.667z"></path>
</svg>
