<svg width="24" height="24" viewBox="0 0 24 24" fill="none" xmlns="http://www.w3.org/2000/svg">
<path fill-rule="evenodd" clip-rule="evenodd" d="M8.21697 11.081H7.708V10.2966H8.23139C8.33136 10.2966 8.41739 10.3144 8.48948 10.35C8.56254 10.3856 8.61877 10.4346 8.65818 10.4971C8.69759 10.5595 8.71729 10.6316 8.71729 10.7133C8.71729 10.8248 8.6774 10.9142 8.59762 10.9815C8.51784 11.0478 8.39096 11.081 8.21697 11.081ZM8.17083 9.87418H7.708V9.14316H8.18237C8.32079 9.14316 8.42748 9.17585 8.50246 9.24121C8.5784 9.30657 8.61636 9.3926 8.61636 9.4993C8.61636 9.57716 8.59666 9.64397 8.55725 9.69972C8.5188 9.75547 8.46593 9.79873 8.39865 9.82949C8.33232 9.85928 8.25638 9.87418 8.17083 9.87418ZM7.73601 14.5916C7.73601 14.383 7.70477 14.2071 7.64229 14.0639C7.58077 13.9207 7.49378 13.8121 7.38132 13.7381C7.26885 13.664 7.13716 13.627 6.98625 13.627C6.83534 13.627 6.70365 13.664 6.59118 13.7381C6.47872 13.8121 6.39125 13.9207 6.32877 14.0639C6.26725 14.2071 6.23649 14.383 6.23649 14.5916C6.23649 14.8002 6.26725 14.9761 6.32877 15.1194C6.39125 15.2626 6.47872 15.3712 6.59118 15.4452C6.70365 15.5192 6.83534 15.5562 6.98625 15.5562C7.13716 15.5562 7.26885 15.5192 7.38132 15.4452C7.49378 15.3712 7.58077 15.2626 7.64229 15.1194C7.70477 14.9761 7.73601 14.8002 7.73601 14.5916ZM16.6921 14.5195H17.116C17.2352 14.5195 17.3342 14.5032 17.413 14.4705C17.4918 14.4378 17.5505 14.3888 17.5889 14.3235C17.6283 14.2581 17.648 14.1769 17.648 14.0798C17.648 13.9817 17.6283 13.8991 17.5889 13.8318C17.5505 13.7645 17.4913 13.7135 17.4116 13.6789C17.3327 13.6434 17.2332 13.6256 17.1131 13.6256H16.6921V14.5195Z" fill="black"/>
<path fill-rule="evenodd" clip-rule="evenodd" d="M12 21C7.02944 21 3 16.9706 3 12C3 7.02944 7.02944 3 12 3C16.9706 3 21 7.02944 21 12C21 16.9706 16.9706 21 12 21ZM7.08368 8.63852V11.5914H8.3453C8.56638 11.5914 8.75238 11.5559 8.90329 11.4847C9.05421 11.4136 9.16811 11.317 9.24501 11.1949C9.32287 11.0719 9.3618 10.932 9.3618 10.7753C9.3618 10.6302 9.33104 10.5052 9.26952 10.4005C9.208 10.2947 9.12774 10.2125 9.02873 10.1539C8.93069 10.0953 8.82543 10.0635 8.71297 10.0587V10.0299C8.81582 10.0068 8.90714 9.9679 8.98692 9.91311C9.06766 9.85736 9.13111 9.78623 9.17725 9.69972C9.22338 9.61225 9.24645 9.51084 9.24645 9.39549C9.24645 9.24746 9.20993 9.11673 9.13687 9.0033C9.06382 8.88892 8.95472 8.79952 8.80957 8.73512C8.66443 8.67072 8.48323 8.63852 8.266 8.63852H7.08368ZM9.76804 8.63852V11.5914H11.7636V11.0767H10.3924V10.3716H11.6554V9.85688H10.3924V9.15326H11.7578V8.63852H9.76804ZM13.7075 9.2167C13.795 9.2811 13.8445 9.37146 13.8561 9.48777H14.4544C14.4515 9.31186 14.4044 9.1571 14.3131 9.02349C14.2218 8.88988 14.094 8.78559 13.9296 8.71061C13.7662 8.63563 13.5749 8.59814 13.3557 8.59814C13.1404 8.59814 12.9482 8.63563 12.779 8.71061C12.6098 8.78559 12.4767 8.88988 12.3796 9.02349C12.2835 9.1571 12.2359 9.3133 12.2369 9.49209C12.2359 9.71029 12.3075 9.8838 12.4517 10.0126C12.5959 10.1414 12.7924 10.2361 13.0414 10.2966L13.3629 10.3774C13.4706 10.4033 13.5614 10.4322 13.6354 10.4639C13.7104 10.4956 13.7671 10.5341 13.8056 10.5792C13.845 10.6244 13.8647 10.6802 13.8647 10.7465C13.8647 10.8176 13.8431 10.8806 13.7998 10.9354C13.7566 10.9902 13.6955 11.0329 13.6167 11.0637C13.5388 11.0945 13.447 11.1098 13.3413 11.1098C13.2337 11.1098 13.137 11.0935 13.0515 11.0608C12.9669 11.0272 12.8991 10.9777 12.8482 10.9123C12.7982 10.846 12.7699 10.7633 12.7631 10.6643H12.159C12.1638 10.8767 12.2152 11.0551 12.3133 11.1992C12.4123 11.3425 12.5497 11.4506 12.7256 11.5237C12.9025 11.5967 13.1101 11.6332 13.3485 11.6332C13.5888 11.6332 13.7941 11.5972 13.9642 11.5251C14.1353 11.452 14.266 11.3497 14.3564 11.218C14.4477 11.0853 14.4938 10.9287 14.4948 10.7479C14.4938 10.6249 14.4712 10.5158 14.427 10.4206C14.3838 10.3255 14.3227 10.2428 14.2439 10.1726C14.1651 10.1025 14.0718 10.0434 13.9642 9.9953C13.8565 9.94724 13.7383 9.90879 13.6095 9.87995L13.3442 9.81651C13.2798 9.80209 13.2192 9.78479 13.1625 9.7646C13.1058 9.74345 13.0558 9.71894 13.0126 9.69107C12.9693 9.66223 12.9352 9.62811 12.9102 9.5887C12.8862 9.54929 12.8751 9.50315 12.877 9.45028C12.877 9.38684 12.8953 9.33012 12.9318 9.28014C12.9693 9.23016 13.0231 9.19123 13.0933 9.16335C13.1635 9.13451 13.2495 9.12009 13.3514 9.12009C13.5014 9.12009 13.6201 9.1523 13.7075 9.2167ZM14.8023 8.63852V9.15326H15.7063V11.5914H16.3234V9.15326H17.2275V8.63852H14.8023ZM8.18587 15.4135C8.30795 15.1876 8.36899 14.9136 8.36899 14.5916C8.36899 14.2696 8.30795 13.9957 8.18587 13.7698C8.06476 13.5439 7.89942 13.3718 7.68987 13.2536C7.48129 13.1344 7.24675 13.0748 6.98625 13.0748C6.72383 13.0748 6.48833 13.1344 6.27974 13.2536C6.07116 13.3718 5.9063 13.5439 5.78519 13.7698C5.66407 13.9957 5.60352 14.2696 5.60352 14.5916C5.60352 14.9127 5.66407 15.1862 5.78519 15.412C5.9063 15.6379 6.07116 15.8105 6.27974 15.9297C6.48833 16.0489 6.72383 16.1085 6.98625 16.1085C7.24675 16.1085 7.48129 16.0493 7.68987 15.9311C7.89942 15.8119 8.06476 15.6394 8.18587 15.4135ZM8.83146 13.1152V16.0681H9.45578V14.8483H10.6568V14.3335H9.45578V13.6299H10.7866V13.1152H8.83146ZM11.2065 13.1152V16.0681H11.8309V14.8483H13.0319V14.3335H11.8309V13.6299H13.1617V13.1152H11.2065ZM13.5816 13.1152V16.0681H15.5772V15.5533H14.206V14.8483H15.469V14.3335H14.206V13.6299H15.5714V13.1152H13.5816ZM16.0677 16.0681V13.1152H17.2328C17.4558 13.1152 17.6461 13.1551 17.8037 13.2349C17.9623 13.3137 18.083 13.4257 18.1656 13.5708C18.2493 13.715 18.2911 13.8846 18.2911 14.0798C18.2911 14.2759 18.2488 14.4446 18.1642 14.5859C18.0796 14.7262 17.9571 14.8339 17.7965 14.9088C17.7877 14.913 17.7788 14.917 17.7698 14.9209L18.3963 16.0681H17.7071L17.1478 15.0213H16.6921V16.0681H16.0677Z" fill="black"/>
</svg>
