<svg width="17" height="16" viewBox="0 0 17 16" fill="none" xmlns="http://www.w3.org/2000/svg">
<rect x="2.16663" y="2.23535" width="12" height="12" rx="6" fill="black"/>
<path d="M4.88912 7.72746V5.75885H5.67733C5.82216 5.75885 5.94295 5.78032 6.03972 5.82325C6.13648 5.86619 6.20921 5.92578 6.25792 6.00204C6.30662 6.07766 6.33097 6.16481 6.33097 6.2635C6.33097 6.34039 6.31559 6.408 6.28483 6.46632C6.25407 6.52399 6.21178 6.57141 6.15795 6.60858C6.10476 6.64511 6.04388 6.67106 5.97531 6.68644V6.70566C6.05029 6.70887 6.12046 6.73001 6.18582 6.76911C6.25183 6.8082 6.30534 6.86299 6.34635 6.93348C6.38736 7.00333 6.40787 7.08663 6.40787 7.1834C6.40787 7.28785 6.38191 7.38109 6.33001 7.46312C6.27874 7.5445 6.2028 7.6089 6.1022 7.65632C6.00159 7.70374 5.87759 7.72746 5.7302 7.72746H4.88912ZM5.30533 7.38718H5.64465C5.76064 7.38718 5.84523 7.36507 5.89841 7.32085C5.9516 7.276 5.9782 7.2164 5.9782 7.14206C5.9782 7.08759 5.96506 7.03953 5.93879 6.99788C5.91251 6.95623 5.87502 6.92354 5.82632 6.89983C5.77826 6.87612 5.72091 6.86427 5.65426 6.86427H5.30533V7.38718ZM5.30533 6.58263H5.61389C5.67092 6.58263 5.72155 6.57269 5.76576 6.55283C5.81062 6.53232 5.84587 6.50348 5.8715 6.46632C5.89777 6.42915 5.91091 6.38461 5.91091 6.3327C5.91091 6.26157 5.8856 6.20422 5.83497 6.16064C5.78499 6.11707 5.71386 6.09528 5.62158 6.09528H5.30533V6.58263Z" fill="white"/>
<path d="M6.6787 7.72746V5.75885H8.0052V6.10201H7.09491V6.57109H7.93695V6.91425H7.09491V7.38429H8.00904V7.72746H6.6787Z" fill="white"/>
<path d="M9.40403 6.32501C9.39634 6.24748 9.36334 6.18724 9.30503 6.1443C9.24671 6.10137 9.16757 6.0799 9.0676 6.0799C8.99967 6.0799 8.94232 6.08951 8.89554 6.10874C8.84876 6.12732 8.81287 6.15327 8.78788 6.1866C8.76353 6.21992 8.75136 6.25773 8.75136 6.30002C8.75007 6.33527 8.75744 6.36603 8.77346 6.3923C8.79013 6.41858 8.81288 6.44132 8.84171 6.46055C8.87055 6.47913 8.90387 6.49547 8.94168 6.50957C8.97949 6.52303 9.01986 6.53456 9.0628 6.54418L9.23966 6.58647C9.32553 6.6057 9.40435 6.63133 9.47613 6.66337C9.5479 6.69541 9.61006 6.73482 9.66261 6.7816C9.71515 6.82838 9.75585 6.88349 9.78468 6.94693C9.81416 7.01037 9.82922 7.08311 9.82986 7.16513C9.82922 7.28561 9.79846 7.39006 9.73758 7.4785C9.67734 7.56629 9.59019 7.63454 9.47613 7.68324C9.3627 7.7313 9.22589 7.75533 9.06568 7.75533C8.90676 7.75533 8.76834 7.73098 8.65043 7.68228C8.53316 7.63357 8.44152 7.56148 8.37551 7.466C8.31015 7.36988 8.27587 7.251 8.27266 7.10938H8.67542C8.6799 7.17539 8.69881 7.2305 8.73213 7.27471C8.76609 7.31829 8.81127 7.35129 8.86767 7.37372C8.9247 7.39551 8.9891 7.4064 9.06087 7.4064C9.13136 7.4064 9.19256 7.39615 9.24447 7.37564C9.29702 7.35514 9.33771 7.32662 9.36655 7.29009C9.39538 7.25357 9.4098 7.21159 9.4098 7.16417C9.4098 7.11996 9.39666 7.08279 9.37039 7.05267C9.34476 7.02255 9.30695 6.99692 9.25697 6.97577C9.20762 6.95462 9.14706 6.9354 9.07529 6.9181L8.86094 6.86427C8.69496 6.8239 8.56392 6.76077 8.46779 6.6749C8.37167 6.58903 8.32393 6.47337 8.32457 6.3279C8.32393 6.20871 8.35565 6.10457 8.41973 6.0155C8.48445 5.92642 8.57321 5.85689 8.68599 5.80691C8.79878 5.75693 8.92694 5.73193 9.07049 5.73193C9.21659 5.73193 9.34412 5.75693 9.45306 5.80691C9.56264 5.85689 9.64787 5.92642 9.70874 6.0155C9.76962 6.10457 9.80102 6.20774 9.80295 6.32501H9.40403Z" fill="white"/>
<path d="M10.0348 6.10201V5.75885H11.6516V6.10201H11.0489V7.72746H10.6375V6.10201H10.0348Z" fill="white"/>
<path d="M5.74599 9.72759C5.74599 9.94227 5.7053 10.1249 5.62391 10.2755C5.54317 10.4261 5.43295 10.5411 5.29325 10.6206C5.15419 10.6994 4.99783 10.7388 4.82417 10.7388C4.64922 10.7388 4.49222 10.6991 4.35316 10.6196C4.2141 10.5402 4.1042 10.4251 4.02346 10.2745C3.94272 10.1239 3.90234 9.94163 3.90234 9.72759C3.90234 9.51292 3.94272 9.33028 4.02346 9.17969C4.1042 9.0291 4.2141 8.91439 4.35316 8.83557C4.49222 8.75611 4.64922 8.71638 4.82417 8.71638C4.99783 8.71638 5.15419 8.75611 5.29325 8.83557C5.43295 8.91439 5.54317 9.0291 5.62391 9.17969C5.7053 9.33028 5.74599 9.51292 5.74599 9.72759ZM5.32401 9.72759C5.32401 9.58853 5.30318 9.47126 5.26153 9.37578C5.22052 9.2803 5.16252 9.20789 5.08755 9.15854C5.01257 9.1092 4.92478 9.08453 4.82417 9.08453C4.72356 9.08453 4.63577 9.1092 4.56079 9.15854C4.48581 9.20789 4.4275 9.2803 4.38584 9.37578C4.34483 9.47126 4.32433 9.58853 4.32433 9.72759C4.32433 9.86665 4.34483 9.98392 4.38584 10.0794C4.4275 10.1749 4.48581 10.2473 4.56079 10.2966C4.63577 10.346 4.72356 10.3707 4.82417 10.3707C4.92478 10.3707 5.01257 10.346 5.08755 10.2966C5.16252 10.2473 5.22052 10.1749 5.26153 10.0794C5.30318 9.98392 5.32401 9.86665 5.32401 9.72759Z" fill="white"/>
<path d="M6.05431 10.7119V8.74329H7.35774V9.08645H6.47052V9.55553H7.27123V9.89869H6.47052V10.7119H6.05431Z" fill="white"/>
<path d="M7.6377 10.7119V8.74329H8.94113V9.08645H8.05391V9.55553H8.85462V9.89869H8.05391V10.7119H7.6377Z" fill="white"/>
<path d="M9.22109 10.7119V8.74329H10.5476V9.08645H9.63731V9.55553H10.4793V9.89869H9.63731V10.3687H10.5514V10.7119H9.22109Z" fill="white"/>
<path d="M10.8785 10.7119V8.74329H11.6552C11.8038 8.74329 11.9307 8.76988 12.0358 8.82307C12.1416 8.87562 12.222 8.95028 12.2771 9.04704C12.3328 9.14316 12.3607 9.25627 12.3607 9.38636C12.3607 9.51708 12.3325 9.62955 12.2761 9.72375C12.2197 9.81731 12.138 9.88908 12.031 9.93907C11.9246 9.98905 11.7958 10.014 11.6446 10.014H11.1246V9.67953H11.5773C11.6568 9.67953 11.7228 9.66864 11.7753 9.64685C11.8279 9.62506 11.867 9.59238 11.8926 9.5488C11.9189 9.50523 11.932 9.45108 11.932 9.38636C11.932 9.32099 11.9189 9.26588 11.8926 9.22102C11.867 9.17617 11.8276 9.1422 11.7744 9.11913C11.7218 9.09542 11.6555 9.08357 11.5754 9.08357H11.2947V10.7119H10.8785ZM11.9416 9.81603L12.4309 10.7119H11.9714L11.4927 9.81603H11.9416Z" fill="white"/>
</svg>
