<svg width="24" height="25" viewBox="0 0 24 25" fill="none" xmlns="http://www.w3.org/2000/svg">
<path d="M4.11233 21.6476C3.86733 21.6476 3.66183 21.5613 3.49583 21.3888C3.32983 21.2165 3.24683 21.0078 3.24683 20.7628V15.8783C3.24683 15.3797 3.42341 14.9537 3.77658 14.6003C4.12991 14.2472 4.55591 14.0706 5.05458 14.0706H5.24683V9.99384C5.24683 9.49501 5.42341 9.06901 5.77658 8.71584C6.12991 8.36267 6.55591 8.18609 7.05458 8.18609H10.9968V6.71684C10.7033 6.52317 10.4632 6.29592 10.2766 6.03509C10.0901 5.77426 9.99683 5.46301 9.99683 5.10134C9.99683 4.87701 10.0404 4.66009 10.1276 4.45059C10.2147 4.24092 10.3455 4.04892 10.5198 3.87459L11.4256 2.96884C11.4526 2.94184 11.5597 2.89501 11.7468 2.82834C11.7802 2.82834 11.8872 2.87517 12.0681 2.96884L12.9738 3.87459C13.1482 4.04892 13.2789 4.24092 13.3661 4.45059C13.4532 4.66009 13.4968 4.87701 13.4968 5.10134C13.4968 5.46301 13.4036 5.77426 13.2171 6.03509C13.0304 6.29592 12.7903 6.52317 12.4968 6.71684V8.18609H16.4391C16.9377 8.18609 17.3637 8.36267 17.7171 8.71584C18.0702 9.06901 18.2468 9.49501 18.2468 9.99384V14.0706H18.4391C18.9377 14.0706 19.3637 14.2472 19.7171 14.6003C20.0702 14.9537 20.2468 15.3797 20.2468 15.8783V20.7628C20.2468 21.0078 20.1606 21.2165 19.9881 21.3888C19.8157 21.5613 19.6071 21.6476 19.3621 21.6476H4.11233ZM6.74683 14.0706H16.7468V9.99384C16.7468 9.90401 16.718 9.83026 16.6603 9.77259C16.6027 9.71492 16.5289 9.68609 16.4391 9.68609H7.05458C6.96474 9.68609 6.89099 9.71492 6.83333 9.77259C6.77566 9.83026 6.74683 9.90401 6.74683 9.99384V14.0706ZM4.74683 20.1476H18.7468V15.8783C18.7468 15.7885 18.718 15.7148 18.6603 15.6571C18.6027 15.5994 18.5289 15.5706 18.4391 15.5706H5.05458C4.96474 15.5706 4.89099 15.5994 4.83333 15.6571C4.77566 15.7148 4.74683 15.7885 4.74683 15.8783V20.1476Z" fill="black"/>
</svg>
