<?xml version="1.0" encoding="UTF-8"?>
<svg id="Layer_1" data-name="Layer 1" xmlns="http://www.w3.org/2000/svg" version="1.1" viewBox="0 0 32 32">
  <defs>
    <style>
      .cls-1 {
        fill: #000;
        stroke-width: 0px;
      }
    </style>
  </defs>
  <path class="cls-1" d="M26,14c.4.3.8.6,1.2,1,.7.5.9,1.2.6,2,0,.2,0,.4-.2.5-.6,1.5-.6,3.1-.6,4.6,0,.4,0,.7,0,1.1-.2.7-.8,1.1-1.4,1.2-.9,0-1.8,0-2.8,0-.8,0-1.4-.7-1.5-1.5,0-.3,0-.6,0-.8,0-.3-.1-.3-.3-.3-2.9,0-5.8,0-8.7,0s-.8,0-1.2,0c-.2,0-.2,0-.2.2,0,.3,0,.6,0,.8,0,.8-.7,1.5-1.6,1.5-.9,0-1.8,0-2.6,0-.9,0-1.5-.7-1.5-1.6,0-1,0-2.1,0-3.1,0-.2,0-.4,0-.6-.2-.7-.5-1.5-.7-2.2-.2-.7,0-1.3.5-1.8.4-.3.8-.7,1.2-1-.6-.4-1.1-.8-1.7-1.1-.1,0-.2-.1-.3-.3-.1-.2,0-.4,0-.6.2-.2.4-.2.7,0,.6.4,1.1.7,1.7,1.1.2.2.3,0,.4-.1.6-1.4,1.2-2.7,1.8-4.1.3-.7.9-1.1,1.7-1.1,3.8,0,7.6,0,11.4,0,.8,0,1.4.4,1.7,1.1.6,1.4,1.2,2.7,1.8,4.1,0,.2.2.2.4.1.5-.4,1.1-.7,1.6-1.1.3-.2.6-.2.8,0,.2.3.1.6-.2.8-.6.4-1.1.8-1.7,1.1h0ZM16,14.5c-2.9,0-5.8,0-8.7,0-.2,0-.4,0-.5.2-1.1,1.1,0,0-1.1,1.1-.3.2-.3.4-.2.7.3,1,.3,1.6.6,2.6.2.7.7,1.2,1.4,1.2,5.5,0,11,0,16.5,0,.7,0,1-.3,1.5-1.3s.5-1.6,1-2.5c0-.3,0-.5-.2-.7l-1.1-1.1c-.2-.1-.3-.2-.6-.2-2.9,0-5.8,0-8.6,0ZM16.5,13c2.6,0,4.4,0,7,0,.3,0,.3,0,.2-.3-.6-1.3-.6-2-1.2-3.3-.1-.3-.3-.5-.7-.5-3.8,0-7.6,0-11.4,0-.4,0-.6.1-.7.5-.6,1.3-.8,1.9-1.4,3.2,0,.2,0,.3.2.3,2.6,0,5.4,0,8,0ZM6.1,21.1c0,.6,0,1.1,0,1.6,0,.3.2.5.6.5.8,0,1.7,0,2.5,0,.3,0,.5-.2.5-.5,0-.3,0-.5,0-.8,0-.2,0-.2-.2-.2-.5,0-1,0-1.6,0-.7,0-1.3-.1-1.9-.6h0ZM25.9,21.1c-.6.5-1.3.6-2,.6-.2,0-.5,0-.7,0-.3,0-.8-.1-.9,0-.2.2,0,.6,0,1,0,.3.2.5.5.5.9,0,1.7,0,2.6,0,.3,0,.5-.2.5-.5,0-.5,0-1,0-1.6Z"/>
</svg>