<svg width="24" height="25" viewBox="0 0 24 25" fill="none" xmlns="http://www.w3.org/2000/svg">
<path d="M10.9993 20.2461V13.1076L4.74927 9.48835V16.4539C4.74927 16.505 4.7621 16.5531 4.78777 16.5981C4.81343 16.6429 4.85185 16.6814 4.90302 16.7134L10.9993 20.2461ZM12.4993 20.2461L18.5955 16.7134C18.6467 16.6814 18.6851 16.6429 18.7108 16.5981C18.7364 16.5531 18.7493 16.505 18.7493 16.4539V9.48835L12.4993 13.1076V20.2461ZM10.8455 21.8826L4.15327 18.0306C3.8686 17.8666 3.64677 17.6474 3.48777 17.3731C3.32877 17.0986 3.24927 16.7973 3.24927 16.4691V8.8846C3.24927 8.55644 3.32877 8.2551 3.48777 7.9806C3.64677 7.70627 3.8686 7.4871 4.15327 7.3231L10.8455 3.4711C11.13 3.30694 11.4313 3.22485 11.7493 3.22485C12.0673 3.22485 12.3685 3.30694 12.653 3.4711L19.3453 7.3231C19.6299 7.4871 19.8518 7.70627 20.0108 7.9806C20.1698 8.2551 20.2493 8.55644 20.2493 8.8846V16.4691C20.2493 16.7973 20.1698 17.0986 20.0108 17.3731C19.8518 17.6474 19.6299 17.8666 19.3453 18.0306L12.653 21.8826C12.3685 22.0468 12.0673 22.1289 11.7493 22.1289C11.4313 22.1289 11.13 22.0468 10.8455 21.8826ZM15.605 9.57685L17.9243 8.2461L11.903 4.76335C11.8519 4.73135 11.8006 4.71535 11.7493 4.71535C11.6979 4.71535 11.6467 4.73135 11.5955 4.76335L9.42427 6.01335L15.605 9.57685ZM11.7493 11.8154L14.0743 10.4691L7.89927 6.89985L5.57427 8.2461L11.7493 11.8154Z" fill="#1C1B1F"/>
</svg>
