<svg width="25" height="24" viewBox="0 0 25 24" fill="none" xmlns="http://www.w3.org/2000/svg">
<path d="M11.9338 20.9769V12.1154L4.18384 7.63467V15.4769C4.18384 15.8051 4.26334 16.1064 4.42234 16.3809C4.58134 16.6553 4.80317 16.8744 5.08784 17.0384L11.9338 20.9769ZM13.4338 20.9769L20.2798 17.0384C20.5645 16.8744 20.7863 16.6553 20.9453 16.3809C21.1043 16.1064 21.1838 15.8051 21.1838 15.4769V7.63467L13.4338 12.1154V20.9769ZM17.2548 8.17892L20.3683 6.37692L13.5876 2.47892C13.3031 2.31475 13.0018 2.23267 12.6838 2.23267C12.3658 2.23267 12.0646 2.31475 11.7801 2.47892L9.58384 3.73867L17.2548 8.17892ZM12.6838 10.8232L15.7551 9.05592L8.08009 4.60967L4.99359 6.38267L12.6838 10.8232Z" fill="#1C1B1F"/>
</svg>
