<!-- Generated by IcoMoon.io -->
<svg version="1.1" xmlns="http://www.w3.org/2000/svg" width="32" height="32" viewBox="0 0 32 32">
<path d="M16 12c0.736 0 1.333-0.597 1.333-1.333s-0.597-1.333-1.333-1.333c-0.736 0-1.333 0.597-1.333 1.333s0.597 1.333 1.333 1.333z"></path>
<path d="M21.333 12c0.736 0 1.333-0.597 1.333-1.333s-0.597-1.333-1.333-1.333c-0.736 0-1.333 0.597-1.333 1.333s0.597 1.333 1.333 1.333z"></path>
<path d="M16 17.333c0.736 0 1.333-0.597 1.333-1.333s-0.597-1.333-1.333-1.333c-0.736 0-1.333 0.597-1.333 1.333s0.597 1.333 1.333 1.333z"></path>
<path d="M21.333 17.333c0.736 0 1.333-0.597 1.333-1.333s-0.597-1.333-1.333-1.333c-0.736 0-1.333 0.597-1.333 1.333s0.597 1.333 1.333 1.333z"></path>
<path d="M28 4h-18.667c-0.8 0-1.333 0.533-1.333 1.333s0.533 1.333 1.333 1.333c0 0.933 0 1.733 0 2.667h-5.333c-0.8 0-1.333 0.533-1.333 1.333s0.533 1.333 1.333 1.333v14.667c0 0.8 0.533 1.333 1.333 1.333h10.667c0.8 0 1.333-0.533 1.333-1.333v-2.667c0-0.8 0.533-1.333 1.333-1.333s1.333 0.533 1.333 1.333v2.667c0 0.8 0.533 1.333 1.333 1.333h5.333c0.8 0 1.333-0.533 1.333-1.333v-20c0.8 0 1.333-0.533 1.333-1.333s-0.533-1.333-1.333-1.333zM9.333 13.6c0 3.867 0 7.867 0 11.733h-2.667v-13.333h2.667c0 0.533 0 1.067 0 1.6zM25.333 25.333h-2.667v-1.333c0-2.267-1.733-4-4-4s-4 1.733-4 4v1.333h-2.667v-18.667h13.333v18.667z"></path>
</svg>
