<!-- Generated by IcoMoon.io -->
<svg version="1.1" xmlns="http://www.w3.org/2000/svg" width="32" height="32" viewBox="0 0 32 32">
<title>build</title>
<path d="M27.86 6.4h-15.853c-0.52 0-0.939 0.42-0.939 0.939v6.928h-6.928c-0.52 0-0.939 0.42-0.939 0.939v7.985c0 0.52 0.42 0.94 0.939 0.94h15.853c0.52 0 0.94-0.42 0.94-0.94v-6.928h6.928c0.52 0 0.94-0.42 0.94-0.939v-7.985c0-0.52-0.42-0.939-0.94-0.939zM13.064 8.396h5.872v5.872h-5.872v-5.872zM11.068 22.136h-5.872v-5.872h5.872v5.872zM18.936 22.136h-5.872v-5.872h5.872v5.872zM26.804 14.268h-5.872v-5.872h5.872v5.872z"></path>
</svg>
