<!-- Generated by IcoMoon.io -->
<svg version="1.1" xmlns="http://www.w3.org/2000/svg" width="32" height="32" viewBox="0 0 32 32">
<path d="M9.333 6.667c0 0.933 0 1.733 0 2.667h-5.333c-0.8 0-1.333 0.667-1.333 1.333s0.533 1.333 1.333 1.333v14.667c0 0.8 0.533 1.333 1.333 1.333h10.667v-4c0-0.133 0-0.4 0-0.533 0.267-1.2 1.333-2.133 2.667-2.133 1.467 0 2.667 1.2 2.667 2.667v4h5.333c0.8 0 1.333-0.533 1.333-1.333v-20c-0.267 0-1.067 0-2.267 0-4.8 0-15.333 0-16.4 0zM9.333 25.333h-2.667v-13.333h2.667v13.333zM16 18.667c-0.8 0-1.333-0.533-1.333-1.333s0.533-1.333 1.333-1.333c0.8 0 1.333 0.533 1.333 1.333s-0.533 1.333-1.333 1.333zM17.333 12c0 0.8-0.533 1.333-1.333 1.333s-1.333-0.533-1.333-1.333c0-0.8 0.533-1.333 1.333-1.333s1.333 0.533 1.333 1.333zM22.667 17.333c0 0.8-0.533 1.333-1.333 1.333s-1.333-0.533-1.333-1.333c0-0.8 0.533-1.333 1.333-1.333s1.333 0.533 1.333 1.333zM22.667 12c0 0.8-0.533 1.333-1.333 1.333s-1.333-0.533-1.333-1.333c0-0.8 0.533-1.333 1.333-1.333s1.333 0.533 1.333 1.333z"></path>
<path d="M28 4h-18.667c-0.8 0-1.333 0.533-1.333 1.333s0.533 1.333 1.333 1.333h18.667c0.8 0 1.333-0.533 1.333-1.333s-0.533-1.333-1.333-1.333z"></path>
</svg>
