<!-- Generated by IcoMoon.io -->
<svg version="1.1" xmlns="http://www.w3.org/2000/svg" width="32" height="32" viewBox="0 0 32 32">
<path d="M26.080 20.853c-0.387-0.64-0.907-1.12-1.547-1.453-1.413-0.707-2.853-1.227-4.32-1.573-0.147 0-0.173 0.027-0.227 0.16l-0.373 2.16c0 0-0.040 0.107-0.093 0.133l-2 0.973-0.053-0.347-0.173-1.027-0.173-0.933c0.013-0.24 0.067-0.48 0.107-0.693l0.147-0.8c0.027-0.133-0.907-0.12-1.373-0.12s-1.4 0-1.373 0.12l0.147 0.787c0.040 0.213 0.080 0.453 0.093 0.693l-0.16 0.933-0.173 1.027-0.053 0.347-1.987-0.973c0 0-0.093-0.080-0.093-0.133l-0.373-2.16c-0.027-0.147-0.067-0.173-0.227-0.16-1.467 0.347-2.907 0.867-4.32 1.573-0.64 0.333-1.16 0.813-1.547 1.453-0.387 0.627-0.587 1.32-0.587 2.080v1.067c0 0.733 0.267 1.36 0.787 1.88s1.147 0.787 1.88 0.787h16c0.733 0 1.36-0.267 1.88-0.787s0.787-1.147 0.787-1.88v-1.067c0-0.76-0.2-1.453-0.587-2.080l-0.013 0.013z"></path>
<path d="M16 16c1.467 0 2.72-0.52 3.76-1.573 1.053-1.040 1.573-2.293 1.573-3.76s-0.52-2.72-1.573-3.76c-1.040-1.053-2.293-1.573-3.76-1.573s-2.72 0.52-3.76 1.573c-1.053 1.040-1.573 2.293-1.573 3.76s0.52 2.72 1.573 3.76c1.040 1.053 2.293 1.573 3.76 1.573z"></path>
</svg>
