<!-- Generated by IcoMoon.io -->
<svg version="1.1" xmlns="http://www.w3.org/2000/svg" width="32" height="32" viewBox="0 0 32 32">
<path d="M17.6 22.133c0 0.133-0.133 0.4-0.267 0.533l-1.067 0.533c-0.133 0-0.4 0-0.533 0l-1.067-0.533c-0.133-0.133-0.267-0.267-0.267-0.533v-0.267l0.133-0.8 0.133-1.067 0.133-0.933c0-0.267 0-0.533-0.133-0.667l-0.133-0.933c0 0 0 0 0.133 0 0.267-0.133 0.667-0.133 0.933-0.133 0.133 0 0.267 0 0.4 0s0.267 0 0.4 0 0.667 0 0.933 0.133c0 0 0 0 0.133 0l-0.133 0.933c0 0.267-0.133 0.4-0.133 0.667l0.133 0.933 0.133 1.067 0.133 0.8v0.267z"></path>
<path d="M19.734 6.933c-1.067-1.067-2.267-1.6-3.733-1.6s-2.667 0.533-3.733 1.6c-1.067 1.067-1.6 2.267-1.6 3.733s0.533 2.667 1.6 3.733c0.8 0.8 1.6 1.2 2.667 1.467 0.4 0 0.8 0.133 1.067 0.133s0.8 0 1.067-0.133c0.933-0.267 1.867-0.667 2.667-1.467 1.067-1.067 1.6-2.267 1.6-3.733s-0.533-2.667-1.6-3.733zM17.867 12.533c-0.533 0.533-1.2 0.8-1.867 0.8s-1.333-0.267-1.867-0.8c-0.533-0.533-0.8-1.2-0.8-1.867s0.267-1.333 0.8-1.867c0.533-0.533 1.2-0.8 1.867-0.8s1.333 0.267 1.867 0.8c0.533 0.533 0.8 1.2 0.8 1.867s-0.267 1.333-0.8 1.867zM26.134 20.8c-0.4-0.667-0.933-1.067-1.6-1.467-1.467-0.667-2.933-1.2-4.4-1.6-0.133 0-0.133 0-0.267 0.133l-0.4 2.4c0 0 0 0 0.133 0 1.2 0.267 2.4 0.8 3.6 1.333 0.267 0.133 0.4 0.267 0.533 0.533 0.267 0.267 0.267 0.533 0.267 0.8v1.067h-16v-1.067c0-0.267 0-0.533 0.133-0.667 0.133-0.267 0.267-0.4 0.533-0.533 1.2-0.533 2.4-1.067 3.6-1.333h0.133l-0.4-2.4c0-0.133 0-0.133-0.267-0.133-1.467 0.4-2.933 0.933-4.4 1.6-0.667 0.267-1.2 0.8-1.6 1.467s-0.533 1.333-0.533 2.133v0.933c0 0.667 0.267 1.333 0.8 1.867 0.667 0.533 1.333 0.8 2 0.8h16c0.667 0 1.333-0.267 1.867-0.8s0.8-1.2 0.8-1.867v-1.067c0-0.8-0.267-1.467-0.533-2.133zM14.934 19.067l-0.267 0.933c0.133 0 0.267 0 0.4 0 0.267 0 0.667 0 0.933 0s0.667 0 0.933 0c0.133 0 0.267 0 0.4 0l-0.133-0.933c0-0.267 0-0.533 0.133-0.667l0.133-0.933c0 0 0 0-0.133 0-0.267-0.133-0.667-0.133-0.933-0.133-0.133 0-0.267 0-0.4 0s-0.267 0-0.4 0-0.667 0-0.933 0.133h-0.133l0.133 0.933c0.133 0.267 0.133 0.533 0.267 0.667z"></path>
</svg>
