<?xml version="1.0" encoding="UTF-8"?>
<svg id="Layer_1" data-name="Layer 1" xmlns="http://www.w3.org/2000/svg" xmlns:xlink="http://www.w3.org/1999/xlink" version="1.1" viewBox="0 0 24 24">
  <defs>
    <style>
      .cls-1 {
        mask: url(#mask);
      }

      .cls-2 {
        fill: #000;
      }

      .cls-2, .cls-3 {
        stroke-width: 0px;
      }

      .cls-3 {
        fill: #d9d9d9;
      }
    </style>
    <mask id="mask" x="0" y="0" width="24" height="24" maskUnits="userSpaceOnUse">
      <g id="mask0_16059_32580" data-name="mask0 16059 32580">
        <rect class="cls-3" y="0" width="24" height="24"/>
      </g>
    </mask>
  </defs>
  <g class="cls-1">
    <path class="cls-2" d="M4.9,22c-.5,0-1-.2-1.3-.5-.4-.4-.5-.8-.5-1.3V6.1c0-.5.2-1,.5-1.3.4-.4.8-.5,1.3-.5h1.4v-1.4c0-.2,0-.4.2-.6.2-.2.3-.2.6-.2s.4,0,.6.2c.2.2.2.3.2.6v1.4h7.9v-1.4c0-.2,0-.4.2-.6.2-.2.3-.2.6-.2s.4,0,.6.2c.2.2.2.3.2.6v1.4h1.4c.5,0,1,.2,1.3.5.4.4.5.8.5,1.3v14c0,.5-.2,1-.5,1.3s-.8.5-1.3.5H4.9ZM4.9,20.4h14c0,0,.2,0,.2-.1,0,0,.1-.1.1-.2v-9.8H4.6v9.8c0,0,0,.2.1.2,0,0,.1.1.2.1ZM4.6,8.7h14.6v-2.6c0,0,0-.2-.1-.2,0,0-.1-.1-.2-.1H4.9c0,0-.2,0-.2.1,0,0-.1.1-.1.2v2.6ZM11.9,14.2c-.3,0-.5,0-.7-.3-.2-.2-.3-.4-.3-.7s0-.5.3-.7c.2-.2.4-.3.7-.3s.5,0,.7.3c.2.2.3.4.3.7s0,.5-.3.7-.4.3-.7.3ZM7.7,14.2c-.3,0-.5,0-.7-.3-.2-.2-.3-.4-.3-.7s0-.5.3-.7c.2-.2.4-.3.7-.3s.5,0,.7.3c.2.2.3.4.3.7s0,.5-.3.7c-.2.2-.4.3-.7.3ZM16.1,14.2c-.3,0-.5,0-.7-.3s-.3-.4-.3-.7,0-.5.3-.7c.2-.2.4-.3.7-.3s.5,0,.7.3c.2.2.3.4.3.7s0,.5-.3.7c-.2.2-.4.3-.7.3ZM11.9,18.3c-.3,0-.5,0-.7-.3-.2-.2-.3-.4-.3-.7s0-.5.3-.7c.2-.2.4-.3.7-.3s.5,0,.7.3.3.4.3.7,0,.5-.3.7c-.2.2-.4.3-.7.3ZM7.7,18.3c-.3,0-.5,0-.7-.3-.2-.2-.3-.4-.3-.7s0-.5.3-.7c.2-.2.4-.3.7-.3s.5,0,.7.3c.2.2.3.4.3.7s0,.5-.3.7c-.2.2-.4.3-.7.3ZM16.1,18.3c-.3,0-.5,0-.7-.3-.2-.2-.3-.4-.3-.7s0-.5.3-.7.4-.3.7-.3.5,0,.7.3c.2.2.3.4.3.7s0,.5-.3.7c-.2.2-.4.3-.7.3Z"/>
  </g>
</svg>