<!-- Generated by IcoMoon.io -->
<svg version="1.1" xmlns="http://www.w3.org/2000/svg" width="32" height="32" viewBox="0 0 32 32">
<path d="M6.667 29.333c-0.733 0-1.361-0.261-1.883-0.783s-0.783-1.15-0.783-1.883v-18.667c0-0.733 0.261-1.361 0.783-1.883s1.15-0.783 1.883-0.783h1.333v-2.667h2.667v2.667h10.667v-2.667h2.667v2.667h1.333c0.733 0 1.361 0.261 1.883 0.783s0.783 1.15 0.783 1.883v18.667c0 0.733-0.261 1.361-0.783 1.883s-1.15 0.783-1.883 0.783h-18.667zM6.667 26.667h18.667v-13.333h-18.667v13.333zM6.667 10.667h18.667v-2.667h-18.667v2.667z"></path>
</svg>
