<!-- Generated by IcoMoon.io -->
<svg version="1.1" xmlns="http://www.w3.org/2000/svg" width="32" height="32" viewBox="0 0 32 32">
<title>calender</title>
<path d="M1.778 10.917c0-2.525 2.047-4.571 4.571-4.571h19.302c2.525 0 4.571 2.047 4.571 4.571v15.492c0 2.525-2.047 4.571-4.571 4.571h-19.302c-2.525 0-4.571-2.047-4.571-4.571v-15.492zM6.349 9.393c-0.842 0-1.524 0.682-1.524 1.524v15.492c0 0.842 0.682 1.524 1.524 1.524h19.302c0.842 0 1.524-0.682 1.524-1.524v-15.492c0-0.842-0.682-1.524-1.524-1.524h-19.302z"></path>
<path d="M3.301 7.869h25.397v6.349h-25.397v-6.349z"></path>
<path d="M19.555 4.315c0-1.683 1.364-3.048 3.048-3.048h2.032c1.683 0 3.048 1.364 3.048 3.048v2.032c0 1.683-1.364 3.048-3.048 3.048h-2.032c-1.683 0-3.048-1.364-3.048-3.048v-2.032zM24.634 4.315h-2.032v2.032h2.032v-2.032z"></path>
<path d="M5.587 4.315c0-1.683 1.364-3.048 3.048-3.048h2.032c1.683 0 3.048 1.364 3.048 3.048v2.032c0 1.683-1.364 3.048-3.048 3.048h-2.032c-1.683 0-3.048-1.364-3.048-3.048v-2.032zM10.666 4.315h-2.032v2.032h2.032v-2.032z"></path>
</svg>
