<!-- Generated by IcoMoon.io -->
<svg version="1.1" xmlns="http://www.w3.org/2000/svg" width="32" height="32" viewBox="0 0 32 32">
<path d="M26.864 7.487h-4.197l-1-2.827c-0.069-0.193-0.196-0.361-0.363-0.479s-0.366-0.181-0.57-0.181h-9.469c-0.417 0-0.79 0.265-0.929 0.66l-1.003 2.827h-4.198c-1.364 0-2.469 1.115-2.469 2.491v14.198c0 1.376 1.105 2.491 2.469 2.491h21.728c1.364 0 2.469-1.115 2.469-2.491v-14.198c0-1.376-1.105-2.491-2.469-2.491zM16 21.685c-2.728 0-4.938-2.229-4.938-4.982s2.21-4.982 4.938-4.982c2.728 0 4.938 2.229 4.938 4.982s-2.21 4.982-4.938 4.982zM13.037 16.703c0 0.793 0.312 1.553 0.868 2.113s1.309 0.875 2.095 0.875 1.539-0.315 2.095-0.875c0.556-0.561 0.868-1.321 0.868-2.113s-0.312-1.553-0.868-2.114c-0.556-0.561-1.309-0.875-2.095-0.875s-1.539 0.315-2.095 0.875c-0.556 0.561-0.868 1.321-0.868 2.114z"></path>
</svg>
