<svg width="24" height="24" viewBox="0 0 24 24" fill="none" xmlns="http://www.w3.org/2000/svg">
<path d="M11.7521 17.3091C12.8996 17.3091 13.8723 16.9101 14.6703 16.1121C15.4683 15.3141 15.8673 14.3413 15.8673 13.1938C15.8673 12.0463 15.4683 11.0736 14.6703 10.2756C13.8723 9.4776 12.8996 9.0786 11.7521 9.0786C10.6046 9.0786 9.63183 9.4776 8.83383 10.2756C8.03583 11.0736 7.63683 12.0463 7.63683 13.1938C7.63683 14.3413 8.03583 15.3141 8.83383 16.1121C9.63183 16.9101 10.6046 17.3091 11.7521 17.3091ZM11.7521 15.8093C11.0136 15.8093 10.3931 15.558 9.89058 15.0553C9.38791 14.5528 9.13658 13.9323 9.13658 13.1938C9.13658 12.4553 9.38791 11.8348 9.89058 11.3323C10.3931 10.8297 11.0136 10.5783 11.7521 10.5783C12.4906 10.5783 13.1111 10.8297 13.6136 11.3323C14.1162 11.8348 14.3676 12.4553 14.3676 13.1938C14.3676 13.9323 14.1162 14.5528 13.6136 15.0553C13.1111 15.558 12.4906 15.8093 11.7521 15.8093ZM4.05983 20.6938C3.55466 20.6938 3.12708 20.5188 2.77708 20.1688C2.42708 19.8188 2.25208 19.3913 2.25208 18.8861V7.5016C2.25208 6.99643 2.42708 6.56885 2.77708 6.21885C3.12708 5.86885 3.55466 5.69385 4.05983 5.69385H7.11357L8.42133 4.2766C8.58549 4.09576 8.78391 3.95343 9.01657 3.8496C9.24924 3.74576 9.49441 3.69385 9.75208 3.69385H13.7521C14.0097 3.69385 14.2549 3.74576 14.4876 3.8496C14.7202 3.95343 14.9187 4.09576 15.0828 4.2766L16.3906 5.69385H19.4443C19.9495 5.69385 20.3771 5.86885 20.7271 6.21885C21.0771 6.56885 21.2521 6.99643 21.2521 7.5016V18.8861C21.2521 19.3913 21.0771 19.8188 20.7271 20.1688C20.3771 20.5188 19.9495 20.6938 19.4443 20.6938H4.05983ZM4.05983 19.1938H19.4443C19.5342 19.1938 19.6079 19.165 19.6656 19.1073C19.7232 19.0497 19.7521 18.9759 19.7521 18.8861V7.5016C19.7521 7.41176 19.7232 7.33801 19.6656 7.28035C19.6079 7.22268 19.5342 7.19385 19.4443 7.19385H15.7213L13.8866 5.19385H9.61758L7.78283 7.19385H4.05983C3.96999 7.19385 3.89624 7.22268 3.83858 7.28035C3.78091 7.33801 3.75208 7.41176 3.75208 7.5016V18.8861C3.75208 18.9759 3.78091 19.0497 3.83858 19.1073C3.89624 19.165 3.96999 19.1938 4.05983 19.1938Z" fill="#1C1B1F"/>
</svg>
