<svg width="16" height="16" viewBox="0 0 16 16" fill="none" xmlns="http://www.w3.org/2000/svg">
<path fill-rule="evenodd" clip-rule="evenodd" d="M8.25673 2C6.75106 2 5.37939 2.49733 4.56773 2.90367C4.49439 2.94033 4.42595 2.97611 4.36239 3.011C4.23639 3.07967 4.12906 3.14367 4.04373 3.2L4.96706 4.55933L5.40173 4.73233C7.10039 5.58933 9.37839 5.58933 11.0774 4.73233L11.5707 4.47633L12.4437 3.2C12.2627 3.08237 12.0747 2.97584 11.8807 2.881C11.0731 2.479 9.73373 2 8.25673 2ZM6.10973 3.53867C5.78284 3.47715 5.45993 3.39612 5.14273 3.296C5.90306 2.95833 7.03606 2.6 8.25706 2.6C9.10273 2.6 9.90239 2.772 10.5637 2.99C9.78873 3.099 8.96173 3.284 8.17373 3.51167C7.55373 3.691 6.82906 3.67167 6.10973 3.53867ZM11.4297 5.22667L11.3477 5.268C9.47906 6.21067 7.00039 6.21067 5.13173 5.268L5.05406 5.22867C2.24639 8.309 0.103061 13.999 8.25673 13.999C16.4104 13.999 14.2151 8.20333 11.4297 5.22667ZM7.91039 8.64695C7.73358 8.64695 7.56401 8.71719 7.43899 8.84221C7.31397 8.96724 7.24373 9.13681 7.24373 9.31362C7.24373 9.49043 7.31397 9.66 7.43899 9.78502C7.56401 9.91005 7.73358 9.98028 7.91039 9.98028V8.64695ZM8.57706 7.98028V7.64695H7.91039V7.98028C7.55677 7.98028 7.21763 8.12076 6.96759 8.37081C6.71754 8.62086 6.57706 8.95999 6.57706 9.31362C6.57706 9.66724 6.71754 10.0064 6.96759 10.2564C7.21763 10.5065 7.55677 10.647 7.91039 10.647V11.9803C7.62039 11.9803 7.37339 11.7953 7.28139 11.5359C7.26775 11.4935 7.24573 11.4543 7.21664 11.4205C7.18755 11.3867 7.15199 11.3591 7.11205 11.3393C7.07211 11.3196 7.02861 11.308 6.98412 11.3053C6.93963 11.3026 6.89506 11.3089 6.85303 11.3237C6.81101 11.3386 6.77239 11.3617 6.73946 11.3917C6.70653 11.4218 6.67995 11.4581 6.66131 11.4986C6.64267 11.5391 6.63233 11.5829 6.63091 11.6274C6.6295 11.672 6.63703 11.7164 6.65306 11.758C6.74497 12.018 6.91524 12.2431 7.14042 12.4023C7.3656 12.5615 7.63461 12.647 7.91039 12.647V12.9803H8.57706V12.647C8.93068 12.647 9.26982 12.5065 9.51987 12.2564C9.76992 12.0064 9.91039 11.6672 9.91039 11.3136C9.91039 10.96 9.76992 10.6209 9.51987 10.3708C9.26982 10.1208 8.93068 9.98028 8.57706 9.98028V8.64695C8.86706 8.64695 9.11406 8.83195 9.20606 9.09128C9.21971 9.13371 9.24173 9.17297 9.27082 9.20674C9.29991 9.24051 9.33547 9.2681 9.37541 9.28789C9.41534 9.30767 9.45885 9.31925 9.50333 9.32193C9.54782 9.32461 9.5924 9.31834 9.63442 9.30349C9.67645 9.28864 9.71507 9.26552 9.748 9.23549C9.78093 9.20545 9.8075 9.16912 9.82615 9.12864C9.84479 9.08815 9.85513 9.04434 9.85654 8.9998C9.85796 8.95525 9.85043 8.91087 9.83439 8.86928C9.74249 8.60926 9.57222 8.38414 9.34704 8.22493C9.12186 8.06571 8.85284 7.98024 8.57706 7.98028ZM8.57706 10.647V11.9803C8.75387 11.9803 8.92344 11.91 9.04847 11.785C9.17349 11.66 9.24373 11.4904 9.24373 11.3136C9.24373 11.1368 9.17349 10.9672 9.04847 10.8422C8.92344 10.7172 8.75387 10.647 8.57706 10.647Z" fill="black"/>
<path fill-rule="evenodd" clip-rule="evenodd" d="M8.57706 7.98028V7.64695H7.91039V7.98028C7.55677 7.98028 7.21763 8.12076 6.96759 8.37081C6.71754 8.62086 6.57706 8.95999 6.57706 9.31362C6.57706 9.66724 6.71754 10.0064 6.96759 10.2564C7.21763 10.5065 7.55677 10.647 7.91039 10.647V11.9803C7.62039 11.9803 7.37339 11.7953 7.28139 11.5359C7.26775 11.4935 7.24573 11.4543 7.21664 11.4205C7.18755 11.3867 7.15199 11.3591 7.11205 11.3393C7.07211 11.3196 7.02861 11.308 6.98412 11.3053C6.93963 11.3026 6.89506 11.3089 6.85303 11.3237C6.81101 11.3386 6.77239 11.3617 6.73946 11.3917C6.70653 11.4218 6.67995 11.4581 6.66131 11.4986C6.64267 11.5391 6.63233 11.5829 6.63091 11.6274C6.6295 11.672 6.63703 11.7164 6.65306 11.758C6.74497 12.018 6.91524 12.2431 7.14042 12.4023C7.3656 12.5615 7.63461 12.647 7.91039 12.647V12.9803H8.57706V12.647C8.93068 12.647 9.26982 12.5065 9.51987 12.2564C9.76992 12.0064 9.91039 11.6672 9.91039 11.3136C9.91039 10.96 9.76992 10.6209 9.51987 10.3708C9.26982 10.1208 8.93068 9.98028 8.57706 9.98028V8.64695C8.86706 8.64695 9.11406 8.83195 9.20606 9.09128C9.21971 9.13371 9.24173 9.17297 9.27082 9.20674C9.29991 9.24051 9.33547 9.2681 9.37541 9.28789C9.41534 9.30767 9.45885 9.31925 9.50333 9.32193C9.54782 9.32461 9.5924 9.31834 9.63442 9.30349C9.67645 9.28864 9.71507 9.26552 9.748 9.23549C9.78093 9.20545 9.8075 9.16912 9.82615 9.12864C9.84479 9.08815 9.85513 9.04434 9.85654 8.9998C9.85796 8.95525 9.85043 8.91087 9.83439 8.86928C9.74249 8.60926 9.57222 8.38414 9.34704 8.22493C9.12186 8.06571 8.85284 7.98024 8.57706 7.98028ZM7.43899 8.84221C7.56401 8.71719 7.73358 8.64695 7.91039 8.64695V9.98028C7.73358 9.98028 7.56401 9.91005 7.43899 9.78502C7.31397 9.66 7.24373 9.49043 7.24373 9.31362C7.24373 9.13681 7.31397 8.96724 7.43899 8.84221ZM8.57706 11.9803V10.647C8.75387 10.647 8.92344 10.7172 9.04847 10.8422C9.17349 10.9672 9.24373 11.1368 9.24373 11.3136C9.24373 11.4904 9.17349 11.66 9.04847 11.785C8.92344 11.91 8.75387 11.9803 8.57706 11.9803Z" fill="white"/>
<path d="M3.63797 4.37247C3.50046 4.25032 3.58686 4.02295 3.7708 4.02295H12.7182C12.9021 4.02295 12.9886 4.25032 12.851 4.37247L12.0812 5.05638C11.902 5.21551 11.902 5.49535 12.0812 5.65448L12.851 6.33838C12.9886 6.46054 12.9021 6.68791 12.7182 6.68791H3.7708C3.58686 6.68791 3.50046 6.46054 3.63797 6.33838L4.40786 5.65448C4.58699 5.49535 4.58699 5.21551 4.40786 5.05638L3.63797 4.37247Z" fill="white"/>
<path d="M5.30371 6.16695V4.54464H5.64671V5.88415H6.34221V6.16695H5.30371Z" fill="black"/>
<path d="M7.99699 5.35579C7.99699 5.53271 7.96346 5.68321 7.89639 5.80732C7.82985 5.93142 7.73902 6.02621 7.62389 6.09169C7.5093 6.15665 7.38044 6.18913 7.23733 6.18913C7.09316 6.18913 6.96378 6.15639 6.84918 6.0909C6.73458 6.02542 6.64402 5.93063 6.57748 5.80652C6.51094 5.68242 6.47767 5.53218 6.47767 5.35579C6.47767 5.17888 6.51094 5.02838 6.57748 4.90427C6.64402 4.78017 6.73458 4.68564 6.84918 4.62069C6.96378 4.5552 7.09316 4.52246 7.23733 4.52246C7.38044 4.52246 7.5093 4.5552 7.62389 4.62069C7.73902 4.68564 7.82985 4.78017 7.89639 4.90427C7.96346 5.02838 7.99699 5.17888 7.99699 5.35579ZM7.64924 5.35579C7.64924 5.2412 7.63208 5.14456 7.59775 5.06587C7.56396 4.98718 7.51616 4.92751 7.45438 4.88685C7.39259 4.84618 7.32024 4.82585 7.23733 4.82585C7.15442 4.82585 7.08207 4.84618 7.02028 4.88685C6.9585 4.92751 6.91044 4.98718 6.87611 5.06587C6.84231 5.14456 6.82542 5.2412 6.82542 5.35579C6.82542 5.47039 6.84231 5.56703 6.87611 5.64572C6.91044 5.7244 6.9585 5.78408 7.02028 5.82474C7.08207 5.86541 7.15442 5.88574 7.23733 5.88574C7.32024 5.88574 7.39259 5.86541 7.45438 5.82474C7.51616 5.78408 7.56396 5.7244 7.59775 5.64572C7.63208 5.56703 7.64924 5.47039 7.64924 5.35579Z" fill="black"/>
<path d="M8.43921 6.16695H8.07165L8.6317 4.54464H9.07371L9.63297 6.16695H9.26541L8.85904 4.91536H8.84637L8.43921 6.16695ZM8.41624 5.52927H9.28442V5.79702H8.41624V5.52927Z" fill="black"/>
<path d="M11.1852 4.54464V6.16695H10.8889L10.1831 5.14588H10.1712V6.16695H9.82823V4.54464H10.1292L10.8295 5.56492H10.8438V4.54464H11.1852Z" fill="black"/>
</svg>
