<!-- Generated by IcoMoon.io -->
<svg version="1.1" xmlns="http://www.w3.org/2000/svg" width="32" height="32" viewBox="0 0 32 32">
<title>car-for-sale</title>
<path d="M27.1 14.5c-0.1-0.2-1.6-0.9-1.6-0.9 0.2-0.1 0.4-0.2 0.4-0.7 0-0.6 0-0.8-0.4-0.8h-1.3c0 0 0 0 0 0-0.8-1.8-1-2.3-2.2-2.9-1.7-0.8-4.8-0.9-6.1-0.9-1.2 0-4.4 0-6.1 0.9-1.3 0.6-1.2 0.9-2.2 2.9 0 0 0 0 0 0h-1.2c-0.4 0.1-0.4 0.3-0.4 0.8s0.2 0.6 0.4 0.7c0 0-1.4 0.7-1.6 0.9s-0.4 1.5-0.4 3.8 0.2 4.6 0.2 4.6h0.6c0 0.7 0.1 0.8 0.4 0.8h3.8c0.3 0 0.4-0.1 0.4-0.8h12.3c0 0.7 0.1 0.8 0.4 0.8h3.9c0.2 0 0.3-0.1 0.3-0.8h0.6c0 0 0.2-2.3 0.2-4.6s-0.2-3.6-0.4-3.8zM9.7 16.6c-0.9 0.1-1.7 0.1-2.6 0.1-1 0-1 0.1-1.1-0.5 0-0.3 0-0.6 0-0.8v-0.1h0.1c0.6 0 1.1 0 2.1 0.3 0.5 0.2 1 0.4 1.4 0.7 0.2 0.2 0.3 0.3 0.3 0.3h-0.2zM21.6 20.1l-0.2 0.5h-10.8c0 0 0 0-0.2-0.5-0.2-0.4 0-0.6 0.4-0.7 0.7-0.3 2.9-1 5.2-1s4.5 0.6 5.2 1c0.3 0 0.6 0.1 0.4 0.7v0zM9.3 13.5c-0.2 0-0.3 0-0.5 0 0.1-0.2 0.2-0.5 0.3-0.7 0.4-0.8 0.8-1.7 1.6-2.1 1.1-0.6 3.5-0.8 5.3-0.8s4.2 0.3 5.3 0.8c0.8 0.4 1.2 1.3 1.6 2.1 0.1 0.3 0.2 0.5 0.3 0.7-0.1 0-0.2 0-0.5 0h-13.4zM25.9 16.2c-0.1 0.6 0 0.5-1 0.5-0.9 0-1.8-0.1-2.6-0.1-0.1 0-0.2-0.3-0.1-0.3 0.4-0.3 0.9-0.6 1.4-0.7 1-0.3 1.6-0.3 2.2-0.3 0 0 0.1 0 0.1 0s0 0.1 0 0.1c0.1 0.3 0.1 0.5 0 0.8v0z"></path>
</svg>
