<svg width="24" height="24" viewBox="0 0 24 24" fill="none" xmlns="http://www.w3.org/2000/svg">
<path fill-rule="evenodd" clip-rule="evenodd" d="M5.39299 5.83467H19.3404C19.7083 5.83467 19.8811 6.28941 19.6061 6.53372L18.0862 7.88386C17.9966 7.96343 17.9966 8.10335 18.0862 8.18291L19.6061 9.53306C19.8811 9.77737 19.7083 10.2321 19.3404 10.2321H5.39299C5.02512 10.2321 4.85232 9.77737 5.12734 9.53306L6.64723 8.18291C6.7368 8.10335 6.7368 7.96343 6.64723 7.88386L5.12734 6.53372C4.85232 6.28941 5.02512 5.83467 5.39299 5.83467ZM5.26017 6.38419C5.12265 6.26204 5.20906 6.03467 5.39299 6.03467H6.90425H17.8211H19.3404C19.5243 6.03467 19.6107 6.26204 19.4732 6.38419L17.9533 7.73434C17.7742 7.89347 17.7742 8.17331 17.9533 8.33244L19.4732 9.68258C19.6107 9.80474 19.5243 10.0321 19.3404 10.0321H18.8766H5.87564H5.39299C5.20906 10.0321 5.12265 9.80474 5.26017 9.68258L6.78005 8.33244C6.95919 8.17331 6.95919 7.89347 6.78005 7.73434L5.26017 6.38419Z" fill="black"/>
<path d="M7.95557 6.81666H8.47006V7.2724C8.8775 7.45294 9.30387 7.60255 9.74269 7.72122C9.76697 7.58611 9.80815 7.46441 9.86621 7.35611C9.96602 7.16995 10.1019 7.02816 10.2738 6.93073C10.4457 6.8325 10.6397 6.78339 10.856 6.78339C11.0707 6.78339 11.2639 6.8325 11.4358 6.93073C11.6085 7.02816 11.7448 7.16995 11.8446 7.35611C11.9452 7.54226 11.9955 7.76802 11.9955 8.03339L11.9954 8.05625C12.1694 8.06235 12.3437 8.06407 12.5178 8.06141L12.9475 6.81666H13.6106L13.9951 7.93201C14.2469 7.89126 14.4964 7.84097 14.7423 7.78114V6.81666H15.1939L15.6663 7.50497C15.87 7.43207 16.07 7.35201 16.2656 7.26481V6.81666H16.7778V7.01461L17.3561 6.7145L17.8211 6.03467H6.90425L7.45059 6.839L7.95557 7.03998V6.81666Z" fill="black"/>
<path d="M17.0216 7.902L17.1446 7.84C17.7562 8.4936 18.3488 9.23782 18.8766 10.0321H19.3404C19.5243 10.0321 19.6107 9.80474 19.4732 9.68258L17.9533 8.33244C17.7742 8.17331 17.7742 7.89347 17.9533 7.73434L19.4732 6.38419C19.6107 6.26204 19.5243 6.03467 19.3404 6.03467H17.8211L17.3561 6.7145L16.7778 7.01461V8.02038C16.8598 7.98209 16.9411 7.94263 17.0216 7.902Z" fill="black"/>
<path d="M7.58109 7.843L7.69759 7.902C7.78276 7.94496 7.86876 7.98662 7.95557 8.02697V7.03998L7.45059 6.839L6.90425 6.03467H5.39299C5.20906 6.03467 5.12265 6.26204 5.26017 6.38419L6.78005 7.73434C6.95919 7.89347 6.95919 8.17331 6.78005 8.33244L5.26017 9.68258C5.12265 9.80474 5.20906 10.0321 5.39299 10.0321H5.87564C6.39541 9.24651 6.97804 8.50462 7.58109 7.843Z" fill="black"/>
<path d="M17.1446 7.84L17.0216 7.902C16.9411 7.94263 16.8598 7.98209 16.7778 8.02038V9.25012H16.3334L15.7622 8.42389C15.5956 8.47933 15.4271 8.53049 15.2568 8.57737V9.25012H14.7423V8.70496C14.5933 8.73794 14.4432 8.76775 14.2923 8.7944L14.4494 9.25012H13.8981L13.7756 8.87289C13.4375 8.91603 13.0965 8.94359 12.7546 8.95558L12.6588 9.25012H12.1075L12.2071 8.96147C12.0317 8.9591 11.8564 8.95263 11.6815 8.94208C11.61 9.01969 11.5281 9.08474 11.4358 9.13724C11.2639 9.23467 11.0707 9.28339 10.856 9.28339C10.6397 9.28339 10.4457 9.23428 10.2738 9.13605C10.1019 9.03782 9.96602 8.89564 9.86621 8.70948C9.86027 8.6984 9.85451 8.68718 9.84892 8.67582C9.37642 8.56509 8.91472 8.42226 8.47006 8.24736V8.82593H9.51331V9.25012H7.95557V8.02697C7.86876 7.98662 7.78276 7.94496 7.69759 7.902L7.58109 7.843C6.97804 8.50462 6.39541 9.24651 5.87564 10.0321H18.8766C18.3488 9.23782 17.7562 8.4936 17.1446 7.84Z" fill="black"/>
<path d="M9.84892 8.67582C9.76064 8.49636 9.7165 8.28222 9.7165 8.03339C9.7165 7.92241 9.72523 7.81835 9.74269 7.72122C9.30387 7.60255 8.8775 7.45294 8.47006 7.2724V8.24736C8.91472 8.42226 9.37642 8.56509 9.84892 8.67582Z" fill="black"/>
<path d="M10.2381 8.03339C10.2381 8.20528 10.2635 8.35025 10.3142 8.46828C10.3657 8.5863 10.4377 8.67582 10.5304 8.73681C10.6231 8.79781 10.7316 8.8283 10.856 8.8283C10.9804 8.8283 11.0889 8.79781 11.1816 8.73681C11.2742 8.67582 11.3459 8.5863 11.3966 8.46828C11.4481 8.35025 11.4739 8.20528 11.4739 8.03339L11.4738 8.02473C11.0609 7.98924 10.6514 7.92883 10.2498 7.8435C10.242 7.90265 10.2381 7.96595 10.2381 8.03339Z" fill="black"/>
<path d="M11.3966 7.5985C11.3459 7.48047 11.2742 7.39096 11.1816 7.32997C11.0889 7.26897 10.9804 7.23847 10.856 7.23847C10.7316 7.23847 10.6231 7.26897 10.5304 7.32997C10.4377 7.39096 10.3657 7.48047 10.3142 7.5985C10.2834 7.67022 10.2619 7.75189 10.2498 7.8435C10.6514 7.92883 11.0609 7.98924 11.4738 8.02473C11.473 7.85662 11.4473 7.71454 11.3966 7.5985Z" fill="black"/>
<path d="M13.2886 7.37274H13.2696L13.0527 8.0394C13.1996 8.02954 13.3463 8.01653 13.4923 8.00038L13.2886 7.37274Z" fill="black"/>
<path d="M12.97 8.29361H13.5876L13.4923 8.00038C13.3463 8.01653 13.1996 8.02954 13.0527 8.0394L12.97 8.29361Z" fill="black"/>
<path d="M12.7546 8.95558C13.0965 8.94359 13.4375 8.91603 13.7756 8.87289L13.718 8.69522H12.8393L12.7546 8.95558Z" fill="black"/>
<path d="M11.9954 8.05625C11.9925 8.31174 11.9423 8.52989 11.8446 8.71067C11.7981 8.79733 11.7438 8.87447 11.6815 8.94208C11.8564 8.95263 12.0317 8.9591 12.2071 8.96147L12.5178 8.06141C12.3437 8.06407 12.1694 8.06235 11.9954 8.05625Z" fill="black"/>
<path d="M14.7423 7.78114C14.4964 7.84097 14.2469 7.89126 13.9951 7.93201L14.2923 8.7944C14.4432 8.76775 14.5933 8.73794 14.7423 8.70496V7.78114Z" fill="black"/>
<path d="M15.2747 7.71851H15.2568V8.57737C15.4271 8.53049 15.5956 8.47933 15.7622 8.42389L15.2747 7.71851Z" fill="black"/>
<path d="M16.2656 7.26481C16.07 7.35201 15.87 7.43207 15.6663 7.50497L16.1913 8.2699C16.2161 8.26031 16.2409 8.25063 16.2656 8.24085V7.26481Z" fill="black"/>
<path fill-rule="evenodd" clip-rule="evenodd" d="M6.85159 4.3555C8.06909 3.746 10.1266 3 12.3851 3C14.6006 3 16.6096 3.7185 17.8211 4.3215C18.112 4.46376 18.394 4.62355 18.6656 4.8L17.8211 6.03467H6.90425L6.06559 4.8C6.19359 4.7155 6.35459 4.6195 6.54359 4.5165C6.63893 4.46417 6.74159 4.4105 6.85159 4.3555ZM16.1913 8.2699L16.2442 8.34708H16.2656V8.24085C16.2409 8.25063 16.2161 8.26031 16.1913 8.2699ZM5.87564 10.0321C2.76556 14.7328 1.90591 20.9985 12.3851 20.9985C22.8252 20.9985 21.954 14.6639 18.8766 10.0321H5.87564ZM7.71409 4.944C8.18989 5.09417 8.67426 5.21572 9.16459 5.308C10.2436 5.5075 11.3306 5.5365 12.2606 5.2675C13.4426 4.926 14.6831 4.6485 15.8456 4.485C14.8536 4.158 13.6541 3.9 12.3856 3.9C10.5541 3.9 8.85459 4.4375 7.71409 4.944ZM11.1585 13.2633C11.346 13.0758 11.6004 12.9704 11.8656 12.9704V14.9704C11.6004 14.9704 11.346 14.8651 11.1585 14.6775C10.9709 14.49 10.8656 14.2356 10.8656 13.9704C10.8656 13.7052 10.9709 13.4509 11.1585 13.2633ZM12.8656 11.4704V11.9704C13.2793 11.9704 13.6828 12.0986 14.0206 12.3374C14.3583 12.5762 14.6137 12.9139 14.7516 13.3039C14.7756 13.3663 14.7869 13.4329 14.7848 13.4997C14.7827 13.5665 14.7672 13.6322 14.7392 13.693C14.7113 13.7537 14.6714 13.8082 14.622 13.8532C14.5726 13.8983 14.5147 13.933 14.4516 13.9552C14.3886 13.9775 14.3217 13.9869 14.255 13.9829C14.1883 13.9789 14.123 13.9615 14.0631 13.9318C14.0032 13.9022 13.9499 13.8608 13.9062 13.8101C13.8626 13.7595 13.8296 13.7006 13.8091 13.6369C13.6711 13.2479 13.3006 12.9704 12.8656 12.9704V14.9704C13.396 14.9704 13.9047 15.1811 14.2798 15.5562C14.6549 15.9313 14.8656 16.44 14.8656 16.9704C14.8656 17.5009 14.6549 18.0096 14.2798 18.3846C13.9047 18.7597 13.396 18.9704 12.8656 18.9704V19.4704H11.8656V18.9704C11.4519 18.9705 11.0484 18.8423 10.7106 18.6035C10.3729 18.3646 10.1174 18.027 9.97959 17.6369C9.95554 17.5745 9.94424 17.508 9.94637 17.4412C9.94849 17.3743 9.964 17.3086 9.99197 17.2479C10.0199 17.1872 10.0598 17.1327 10.1092 17.0876C10.1586 17.0426 10.2165 17.0079 10.2795 16.9856C10.3426 16.9633 10.4094 16.9539 10.4762 16.958C10.5429 16.962 10.6082 16.9793 10.6681 17.009C10.728 17.0387 10.7813 17.0801 10.825 17.1307C10.8686 17.1814 10.9016 17.2403 10.9221 17.3039C11.0601 17.6929 11.4306 17.9704 11.8656 17.9704V15.9704C11.3352 15.9704 10.8265 15.7597 10.4514 15.3846C10.0763 15.0096 9.86559 14.5009 9.86559 13.9704C9.86559 13.44 10.0763 12.9313 10.4514 12.5562C10.8265 12.1811 11.3352 11.9704 11.8656 11.9704V11.4704H12.8656ZM12.8656 17.9704V15.9704C13.1308 15.9704 13.3852 16.0758 13.5727 16.2633C13.7602 16.4509 13.8656 16.7052 13.8656 16.9704C13.8656 17.2356 13.7602 17.49 13.5727 17.6775C13.3852 17.8651 13.1308 17.9704 12.8656 17.9704Z" fill="black"/>
</svg>
