<?xml version="1.0" encoding="utf-8"?>
<!-- Generator: Adobe Illustrator 28.1.0, SVG Export Plug-In . SVG Version: 6.00 Build 0)  -->
<svg version="1.1" id="Layer_1" xmlns="http://www.w3.org/2000/svg" xmlns:xlink="http://www.w3.org/1999/xlink" x="0px" y="0px"
	 viewBox="0 0 32 32" style="enable-background:new 0 0 32 32;" xml:space="preserve">
<path d="M27.6,17.3c0.5,0,0.9-0.4,0.9-0.9c0-0.5-0.4-0.9-0.9-0.9s-0.9,0.4-0.9,0.9C26.7,16.9,27.1,17.3,27.6,17.3z"/>
<path d="M28.5,22.9c0.6,0,1-0.5,1-1c0-0.6-0.5-1-1-1c-0.6,0-1,0.5-1,1C27.4,22.4,27.9,22.9,28.5,22.9z"/>
<path d="M8,24.7c-0.9-0.9-1.6-1.9-2.1-3c-0.4,0.2-0.7,0.6-0.9,1c-0.2,0.4-0.1,0.9,0.1,1.3C5.1,24,5,24,5,24c-0.2,0-0.4,0-0.6,0.1
	c-0.2,0.1-0.3,0.2-0.5,0.3c-0.1,0.1-0.2,0.3-0.3,0.5c-0.1,0.2-0.1,0.4-0.1,0.6c0,0.2,0,0.4,0.1,0.6c0.1,0.2,0.2,0.3,0.3,0.5
	c0.1,0.1,0.3,0.2,0.5,0.3c0.2,0.1,0.4,0.1,0.6,0.1h6.3C10,26.3,8.9,25.6,8,24.7z M27.3,23.4C27.3,23.4,27.3,23.4,27.3,23.4
	c-0.3-0.2-0.5-0.5-0.6-0.8c-0.1-0.3-0.2-0.7-0.1-1c0-0.3,0.2-0.7,0.4-0.9c0.2-0.3,0.5-0.5,0.8-0.6c-0.2-0.2-0.5-0.4-0.8-0.5
	c-0.3-0.1-0.6-0.1-0.9,0c-0.1-0.2-0.2-0.4-0.4-0.6c-0.3,1.7-1,3.3-2.1,4.7c-1.1,1.4-2.5,2.5-4.1,3.1h7.8c0.1,0,0.2,0,0.2-0.1
	c0.1,0,0.1-0.1,0.2-0.2c0.1-0.1,0.1-0.2,0.2-0.3c0.2-0.5,0.3-1,0.1-1.6C28,24.2,27.7,23.7,27.3,23.4z"/>
<path d="M22.2,10.5c-1.1-1.1-2.4-1.9-3.9-2.4c-1.5-0.5-3-0.6-4.5-0.3c0,0.1,0,0.2,0,0.3c0,0.5-0.1,1-0.3,1.4
	c-0.2,0.4-0.5,0.8-0.9,1.1c1.7-0.7,3.6-0.7,5.3-0.1c1.7,0.7,3.1,2,3.9,3.6c0.8,1.7,0.9,3.6,0.3,5.3c-0.6,1.7-1.8,3.2-3.4,4.1
	c-1.6,0.9-3.5,1.1-5.3,0.6c-1.8-0.5-3.3-1.7-4.2-3.3c-0.9-1.6-1.2-3.5-0.8-5.3c0.4-1.8,1.5-3.4,3.1-4.4c-0.3,0.1-0.6,0.1-0.9,0.1
	c-0.1,0.4-0.3,0.7-0.5,1c-0.3,0.3-0.6,0.5-0.9,0.7c-0.4,0.2-0.8,0.2-1.2,0.2c-0.4,0-0.8-0.1-1.1-0.3c-0.8,1.6-1.1,3.3-0.9,5.1
	C6,19.9,6.6,21.6,7.7,23c1.1,1.4,2.5,2.5,4.1,3.2c1.6,0.7,3.4,0.9,5.2,0.6c1.7-0.3,3.4-1,4.7-2.2c1.3-1.2,2.3-2.7,2.9-4.3
	c0.5-1.7,0.6-3.5,0.2-5.2C24.3,13.3,23.4,11.7,22.2,10.5z"/>
<path d="M10.9,21.8c0.9,0.9,2,1.5,3.3,1.7c1.2,0.2,2.5,0.1,3.7-0.4c1.2-0.5,2.2-1.3,2.9-2.3c0.7-1,1.1-2.3,1.1-3.5
	c0-1.3-0.4-2.5-1.1-3.5c-0.7-1-1.7-1.9-2.9-2.3c-1.2-0.5-2.4-0.6-3.7-0.4c-1.2,0.2-2.4,0.8-3.3,1.7C9.7,14,9,15.6,9,17.3
	C9,19,9.7,20.6,10.9,21.8z M12.4,21.6l3-2.5l3,2.5c-0.9,0.6-1.9,0.9-3,0.9C14.3,22.6,13.3,22.2,12.4,21.6z M14.5,16.4
	c0.2-0.2,0.4-0.3,0.6-0.3c0.2,0,0.5,0,0.7,0.1c0.2,0.1,0.4,0.2,0.5,0.4c0.1,0.2,0.2,0.4,0.2,0.7s-0.1,0.5-0.2,0.7
	c-0.1,0.2-0.3,0.3-0.5,0.4c-0.2,0.1-0.5,0.1-0.7,0.1c-0.2,0-0.4-0.2-0.6-0.3c-0.1-0.1-0.2-0.2-0.3-0.4c-0.1-0.1-0.1-0.3-0.1-0.5
	s0-0.3,0.1-0.5C14.3,16.6,14.4,16.5,14.5,16.4z M19.7,14.3c0.6,0.9,0.9,1.9,0.9,3c0,1.1-0.3,2.1-0.9,3l-0.1-0.1l-2.4-2.9l2.2-2.6
	L19.7,14.3z M18.4,12.9l-3,2.5L12.5,13l0,0l-0.1-0.1c0.9-0.6,1.9-0.9,3-0.9S17.5,12.3,18.4,12.9z M11,14.3l2.5,3l-2.5,3
	c-0.6-0.9-0.9-1.9-0.9-3S10.4,15.2,11,14.3z M5.8,11.6c0.2,0,0.4,0,0.6-0.1c0.2,0.4,0.5,0.7,0.9,0.9c0.4,0.2,0.8,0.2,1.3,0.1
	c0.4-0.1,0.8-0.4,1-0.8c0.2-0.4,0.3-0.8,0.2-1.2c0.4,0.1,0.8,0.2,1.2,0.1c0.4-0.1,0.8-0.3,1.1-0.5c0.3-0.3,0.6-0.6,0.7-1
	C13,8.5,13,8.1,12.9,7.7c-0.1-0.4-0.3-0.8-0.5-1.1c-0.3-0.3-0.6-0.6-1-0.7c-0.4-0.1-0.8-0.2-1.2-0.1C9.8,5.8,9.4,5.9,9,6.2
	C8.8,6.1,8.6,6,8.4,5.9c-0.2-0.1-0.5-0.1-0.7,0C7.4,5.9,7.2,6,7,6.2C6.8,6.3,6.6,6.5,6.5,6.7C6.4,6.9,6.3,7.1,6.2,7.3
	c0,0.2,0,0.5,0,0.7c0,0.2,0.1,0.5,0.3,0.7C6.6,8.9,6.8,9.1,7,9.2C6.9,9.3,6.8,9.3,6.7,9.4C6.6,9.3,6.4,9.1,6.2,9.1C6,9,5.8,9,5.6,9
	C5.4,9.1,5.2,9.2,5,9.3C4.8,9.4,4.7,9.6,4.6,9.8c-0.1,0.2-0.1,0.4-0.1,0.6c0,0.2,0.1,0.4,0.2,0.6s0.3,0.3,0.5,0.4
	C5.4,11.5,5.6,11.6,5.8,11.6L5.8,11.6z"/>
</svg>
