<!-- Generated by IcoMoon.io -->
<svg version="1.1" xmlns="http://www.w3.org/2000/svg" width="32" height="32" viewBox="0 0 32 32">
<title>car-merchant</title>
<path d="M23.5 13.7c-4.1 0-7.5 3.4-7.5 7.5s3.4 7.5 7.5 7.5 7.5-3.4 7.5-7.5-3.4-7.5-7.5-7.5zM26.3 22.1h-1.9v1.9c0 0.6-0.4 0.9-0.9 0.9s-0.9-0.4-0.9-0.9v-1.9h-1.9c-0.6 0-0.9-0.4-0.9-0.9s0.4-0.9 0.9-0.9h1.9v-1.9c0-0.6 0.4-0.9 0.9-0.9s0.9 0.4 0.9 0.9v1.9h1.9c0.6 0 0.9 0.4 0.9 0.9s-0.3 0.9-0.9 0.9z"></path>
<path d="M8.9 19.3l1.1-2.2c0.5-0.9 1.4-1.6 2.5-1.6h3.3c0.1 0 0.2 0 0.2 0 1.7-2.2 4.4-3.8 7.5-3.8 1.1 0 2.2 0.2 3.2 0.6-0.4-0.6-0.8-1.1-1.3-1.5h0.9c0.6 0 0.9-0.4 0.9-0.9s-0.3-0.9-0.9-0.9h-2.6l-1.1-2.8c-0.8-1.7-2.4-2.8-4.3-2.8h-8.3c-1.9 0-3.6 1.1-4.3 2.8l-1.2 2.8h-2.6c-0.5 0-0.9 0.3-0.9 0.9s0.4 0.9 0.9 0.9h0.9c-1 0.9-1.8 2.3-1.8 3.8v3.8c0 0.8 0.4 1.6 0.9 2.1v1.7c0 1.6 1.2 2.8 2.8 2.8h1.9c1.6 0 2.8-1.2 2.8-2.8v-0.9h4.7c0-0.7 0.1-1.3 0.2-1.9h-5.4zM7.6 16.5h-2.8c-0.6 0-0.9-0.4-0.9-0.9s0.4-0.9 0.9-0.9h2.8c0.6 0 0.9 0.4 0.9 0.9s-0.4 0.9-0.9 0.9zM6.2 9.9l1.3-3c0.5-1 1.4-1.7 2.5-1.7h8.2c1.1 0 2.2 0.7 2.6 1.7l1.3 3h-15.9z"></path>
</svg>
