<svg width="24" height="24" viewBox="0 0 24 24" fill="none" xmlns="http://www.w3.org/2000/svg">
<path fill-rule="evenodd" clip-rule="evenodd" d="M16.7837 15.3241C16.2562 15.6005 15.3087 16.4409 15.2751 16.6622C15.2323 16.944 15.2728 17.0474 15.5201 17.2876C15.8017 17.5612 16.9574 18.722 18.0985 19.8772C19.074 20.8648 19.1529 20.9244 19.5689 20.9881C20.3884 21.1137 21.1634 20.2185 20.9494 19.3935C20.8753 19.1078 20.9533 19.1939 18.4114 16.5947C17.9751 16.1486 17.5371 15.6941 17.4381 15.5848C17.1516 15.2684 17.003 15.2092 16.7837 15.3241ZM17.8272 16.5883C20.132 18.8527 20.591 19.3506 20.466 19.4506C20.3381 19.553 20.3234 19.5418 19.5219 18.7323C19.1057 18.312 18.3285 17.534 17.7949 17.0035C17.2613 16.473 16.8248 16.0227 16.8248 16.0028C16.8248 15.9677 16.9754 15.7972 17.0065 15.7972C17.015 15.7972 17.3843 16.1532 17.8272 16.5883Z" fill="black"/>
<path d="M17.8272 16.5883C20.132 18.8527 20.591 19.3506 20.466 19.4506C20.3381 19.553 20.3234 19.5418 19.5219 18.7323C19.1057 18.312 18.3285 17.534 17.7949 17.0035C17.2613 16.473 16.8248 16.0227 16.8248 16.0028C16.8248 15.9677 16.9754 15.7972 17.0065 15.7972C17.015 15.7972 17.3843 16.1532 17.8272 16.5883Z" fill="black"/>
<path fill-rule="evenodd" clip-rule="evenodd" d="M7.68735 7.23931C7.58657 7.32194 7.50777 7.4301 7.45848 7.55348L7.12974 8.3614H13.3085L12.9798 7.55328C12.9305 7.43 12.8517 7.32192 12.751 7.23934C12.6503 7.15676 12.531 7.10242 12.4044 7.0815C11.6813 6.9671 10.9507 6.91142 10.2193 6.91495C9.48791 6.91142 8.75734 6.9671 8.03421 7.0815C7.90756 7.10236 7.78814 7.15669 7.68735 7.23931ZM6.68424 10.4261C6.727 10.4669 6.78052 10.4934 6.83787 10.5021L8.12903 10.692C8.12903 10.692 7.7322 9.90566 7.6288 9.87252C7.5254 9.83937 6.76022 9.78975 6.76022 9.78975C6.64862 9.78975 6.59341 9.87984 6.57761 10.0629C6.57354 10.1337 6.58046 10.2048 6.59809 10.2733C6.61148 10.3321 6.64149 10.3853 6.68424 10.4261ZM10.2099 10.8982L11.7395 10.8071L12.1248 9.95752C12.1248 9.95752 10.7671 10.0807 10.2191 10.0807C9.67109 10.0807 8.31379 9.95752 8.31379 9.95752L8.69911 10.8094L10.2099 10.8982ZM13.7542 10.4269C13.7969 10.3861 13.827 10.3329 13.8403 10.2741C13.858 10.2056 13.8649 10.1345 13.8608 10.0637C13.845 9.88146 13.79 9.79057 13.6782 9.79057C13.6782 9.79057 12.9132 9.84018 12.8098 9.87333C12.7064 9.90648 12.3094 10.6928 12.3094 10.6928L13.6006 10.5029C13.6579 10.4942 13.7114 10.4677 13.7542 10.4269Z" fill="black"/>
<path fill-rule="evenodd" clip-rule="evenodd" d="M17.4388 10.2194C17.4388 14.2066 14.2066 17.4388 10.2194 17.4388C6.23224 17.4388 3 14.2066 3 10.2194C3 6.23224 6.23224 3 10.2194 3C14.2066 3 17.4388 6.23224 17.4388 10.2194ZM13.3177 13.623V13.1994H13.5122C13.6901 13.2071 13.8675 13.1761 14.0333 13.1085C14.1991 13.0409 14.3496 12.938 14.4752 12.8065V13.623C14.4752 13.6776 14.4543 13.7301 14.4172 13.7688C14.3801 13.8074 14.3298 13.8292 14.2774 13.8292H13.5165C13.4904 13.8293 13.4646 13.8241 13.4405 13.8138C13.4164 13.8034 13.3944 13.7883 13.376 13.7691C13.3575 13.75 13.3428 13.7272 13.3328 13.7021C13.3228 13.677 13.3177 13.6501 13.3177 13.623ZM5.9529 13.623V12.7945C6.07859 12.9299 6.2304 13.036 6.39831 13.1058C6.56623 13.1756 6.74643 13.2075 6.92703 13.1994H7.10945V13.623C7.10945 13.6776 7.0886 13.7301 7.0515 13.7688C7.0144 13.8074 6.96408 13.8292 6.91162 13.8292H6.15073C6.09827 13.8292 6.04795 13.8074 6.01085 13.7688C5.97375 13.7301 5.9529 13.6776 5.9529 13.623ZM6.92703 12.8935C6.34876 12.8935 5.95856 12.5529 5.95856 11.9685V11.7997H14.4803V11.9685C14.4803 12.5529 14.0893 12.8935 13.5118 12.8935H6.92703ZM14.0823 8.11819L14.57 8.20645C14.615 8.21398 14.656 8.238 14.6856 8.27418C14.7152 8.31036 14.7315 8.35635 14.7315 8.4039V8.50375C14.7315 8.54957 14.7165 8.59402 14.6889 8.62971C14.6614 8.6654 14.6229 8.6902 14.58 8.69998L13.9108 8.85718L14.2319 9.368C14.3939 9.62537 14.4802 9.92647 14.4803 10.2343V11.4951H5.95876V10.2343C5.95874 9.92649 6.045 9.62539 6.20692 9.368L6.52688 8.85962L5.85887 8.70039C5.81592 8.6906 5.77747 8.66581 5.74989 8.63012C5.72232 8.59442 5.70728 8.54998 5.70728 8.50415V8.40431C5.7072 8.35672 5.7234 8.31066 5.75297 8.27439C5.78254 8.23813 5.82355 8.21404 5.86862 8.20645L6.35656 8.11717C6.39552 8.11009 6.43563 8.11691 6.4704 8.13654C6.50517 8.15618 6.53257 8.18747 6.54815 8.22536L6.70091 8.58163L6.76159 8.48504L7.18827 7.43432C7.25735 7.26348 7.36703 7.11379 7.50698 6.99937C7.64693 6.88495 7.81253 6.80957 7.98817 6.78033C8.72651 6.66326 9.47248 6.60629 10.2193 6.60992C10.9662 6.60609 11.7122 6.66287 12.4507 6.77972C12.6261 6.8091 12.7915 6.88455 12.9313 6.99896C13.0711 7.11338 13.1806 7.26299 13.2496 7.43371L13.6772 8.48606L13.7389 8.58407L13.8907 8.22637C13.9063 8.18849 13.9336 8.1572 13.9684 8.13756C14.0032 8.11793 14.0433 8.1111 14.0823 8.11819Z" fill="black"/>
</svg>
