<svg width="20" height="20" viewBox="0 0 20 20" fill="none" xmlns="http://www.w3.org/2000/svg">
<path d="M12.9962 3.31368L13.1573 3.74181L13.3185 3.31368C13.3857 3.13489 13.4908 2.97253 13.6265 2.83757C13.7623 2.70261 13.9255 2.59819 14.1053 2.53135L14.5334 2.3711L14.1053 2.21084C13.9257 2.14382 13.7626 2.03928 13.627 1.90426C13.4914 1.76925 13.3864 1.60689 13.3192 1.42813L13.1581 1L12.9962 1.42813C12.929 1.60689 12.8241 1.76925 12.6885 1.90426C12.5529 2.03928 12.3898 2.14382 12.2102 2.21084L11.7798 2.3711L12.2102 2.53135C12.3898 2.59829 12.5529 2.70275 12.6885 2.8377C12.8241 2.97266 12.929 3.13496 12.9962 3.31368ZM15.9837 4.888L16.1055 5.21239L16.2262 4.888C16.2771 4.75238 16.3567 4.62922 16.4597 4.52684C16.5626 4.42447 16.6864 4.34526 16.8227 4.29458L17.1488 4.17303L16.8227 4.05148C16.6864 4.0008 16.5626 3.9216 16.4597 3.81922C16.3567 3.71685 16.2771 3.59369 16.2262 3.45806L16.104 3.13368L15.9822 3.45806C15.9311 3.59362 15.8514 3.71672 15.7485 3.81909C15.6456 3.92145 15.5219 4.00069 15.3856 4.05148L15.0591 4.17303L15.3856 4.29458C15.5222 4.34518 15.6462 4.42434 15.7494 4.52672C15.8526 4.62909 15.9325 4.75229 15.9837 4.888ZM17.8069 3.08568L17.9287 3.41045L18.0509 3.08568C18.1019 2.95012 18.1816 2.82702 18.2845 2.72465C18.3874 2.62229 18.5112 2.54305 18.6474 2.49226L18.9735 2.3711L18.6474 2.24955C18.5111 2.19887 18.3873 2.11966 18.2844 2.01729C18.1814 1.91491 18.1018 1.79175 18.0509 1.65613L17.9287 1.33174L17.8069 1.65613C17.7558 1.79169 17.6762 1.91479 17.5732 2.01715C17.4703 2.11951 17.3466 2.19876 17.2103 2.24955L16.8838 2.3711L17.2103 2.49226C17.3465 2.54318 17.4702 2.62247 17.5731 2.72482C17.676 2.82716 17.7557 2.95019 17.8069 3.08568ZM16.1799 17.8012V18.6075C16.1799 18.6592 16.1901 18.7104 16.2101 18.7581C16.23 18.8059 16.2593 18.8492 16.2961 18.8857C16.333 18.9222 16.3767 18.9511 16.4248 18.9707C16.4729 18.9903 16.5244 19.0003 16.5764 19H18.0941C18.1987 19 18.2991 18.9586 18.3731 18.885C18.4471 18.8114 18.4887 18.7116 18.4887 18.6075V17.0533C18.2382 17.3037 17.938 17.4994 17.6073 17.6282C17.2766 17.7569 16.9226 17.8159 16.5678 17.8012H16.1799ZM1.48994 17.0304V18.6075C1.48994 18.7116 1.53151 18.8114 1.60551 18.885C1.67951 18.9586 1.77988 19 1.88453 19H3.40221C3.50686 19 3.60723 18.9586 3.68123 18.885C3.75523 18.8114 3.7968 18.7116 3.7968 18.6075V17.8012H3.43295C3.07271 17.8166 2.71328 17.7559 2.37836 17.6231C2.04343 17.4902 1.74064 17.2882 1.48994 17.0304ZM1.50122 15.4581C1.50122 16.5706 2.27952 17.219 3.43295 17.219H16.5671C17.7189 17.219 18.4988 16.5706 18.4988 15.4581V15.1368H1.50122V15.4581ZM18.6778 8.29677L17.7049 8.12877C17.6272 8.11528 17.5472 8.12827 17.4779 8.16564C17.4085 8.20302 17.3539 8.26259 17.3228 8.33471L17.02 9.01561L16.897 8.82903L16.044 6.82581C15.9065 6.50083 15.688 6.21604 15.4092 5.99825C15.1304 5.78045 14.8005 5.63683 14.4505 5.5809C12.9776 5.35846 11.4895 5.25039 9.99981 5.25768C8.51016 5.25075 7.02224 5.35921 5.54952 5.58206C5.19918 5.63772 4.86887 5.78122 4.58973 5.99902C4.31058 6.21683 4.0918 6.50176 3.95402 6.82697L3.10295 8.82709L2.98193 9.01097L2.67722 8.33277C2.64615 8.26066 2.59151 8.20108 2.52215 8.16371C2.45279 8.12633 2.37279 8.11334 2.29508 8.12684L1.32183 8.29677C1.23192 8.31123 1.15013 8.35708 1.09115 8.42611C1.03217 8.49514 0.999852 8.58282 1 8.67342V8.86348C1.00002 8.95071 1.03001 9.03531 1.08501 9.10326C1.14001 9.1712 1.2167 9.2184 1.30237 9.23703L2.63481 9.54013L1.99661 10.5079C1.67362 10.9978 1.50158 11.571 1.50161 12.1569V14.5569H18.4988V12.1569C18.4987 11.571 18.3265 10.9978 18.0034 10.5079L17.3629 9.53548L18.6976 9.23626C18.7833 9.21763 18.86 9.17043 18.915 9.10248C18.97 9.03454 19 8.94994 19 8.86271V8.67264C18.9999 8.58213 18.9675 8.49458 18.9084 8.42571C18.8494 8.35683 18.7676 8.31112 18.6778 8.29677ZM4.49298 7.0538C4.5913 6.81894 4.74848 6.61305 4.94951 6.45577C5.15054 6.29849 5.38873 6.19506 5.64136 6.15535C7.08373 5.93759 8.54093 5.83159 9.99981 5.83832C11.4587 5.83159 12.9159 5.93759 14.3583 6.15535C14.6107 6.19518 14.8487 6.29862 15.0496 6.45582C15.2504 6.61302 15.4075 6.81875 15.5058 7.05342L16.1616 8.59174H3.83727L4.49298 7.0538ZM3.25511 12.6667C3.14071 12.6501 3.03396 12.5997 2.94868 12.5221C2.86341 12.4444 2.80354 12.3431 2.77685 12.2312C2.74167 12.1007 2.72787 11.9654 2.73599 11.8306C2.76751 11.4822 2.87764 11.3107 3.10023 11.3107C3.10023 11.3107 4.62646 11.4052 4.83271 11.4683C5.03896 11.5314 5.83048 13.0283 5.83048 13.0283L3.25511 12.6667ZM13.032 13.2474L9.98113 13.4208L6.96757 13.2516L6.19901 11.6301C6.19901 11.6301 8.9063 11.8646 9.99942 11.8646C11.0925 11.8646 13.8006 11.6301 13.8006 11.6301L13.032 13.2474ZM17.2224 12.2328C17.1957 12.3447 17.1358 12.446 17.0505 12.5236C16.9653 12.6013 16.8585 12.6517 16.7441 12.6683L14.1687 13.0298C14.1687 13.0298 14.9607 11.5329 15.1669 11.4698C15.3731 11.4067 16.899 11.3123 16.899 11.3123C17.122 11.3123 17.2317 11.4853 17.2632 11.8321C17.2714 11.967 17.2576 12.1023 17.2224 12.2328Z" fill="black"/>
</svg>
