<?xml version="1.0" encoding="UTF-8"?>
<svg id="Layer_1" data-name="Layer 1" xmlns="http://www.w3.org/2000/svg" version="1.1" viewBox="0 0 20 20">
  <defs>
    <style>
      .cls-1 {
        fill: #000;
        stroke-width: 0px;
      }
    </style>
  </defs>
  <path class="cls-1" d="M14.7,12c0-.1-.9-.5-.9-.5.1,0,.2,0,.2-.4s0-.4-.2-.4h-.7c-.5-1-.5-1.3-1.2-1.6-.9-.5-2.7-.5-3.4-.5s-2.5,0-3.4.5c-.7.3-.7.5-1.2,1.6,0,0,0,0,0,0h-.7c-.2,0-.2.1-.2.4s0,.3.2.4c0,0-.8.4-.9.5-.1.1-.2.9-.2,2.1s.1,2.6.1,2.6h.3c0,.4,0,.4.2.4h2.1c.2,0,.2,0,.2-.4h6.9c0,.4,0,.4.2.4h2.2c.1,0,.2,0,.2-.4h.3s.1-1.3.1-2.6-.1-2-.2-2.1h0ZM4.9,13.2c-.5,0-1,0-1.5,0s-.6,0-.6-.3c0-.2,0-.3,0-.5h0c0,0,0,0,0,0,.3,0,.6,0,1.2.2.3,0,.6.2.8.4.1,0,.1.2.1.2h-.2s0,0,0,0ZM11.6,15.2v.3h-6.1s0,0-.1-.3c-.1-.2,0-.3.2-.4.4-.1,1.6-.6,2.9-.6s2.5.4,2.9.6c.1,0,.3.1.2.4ZM4.7,11.5h-.3c0-.1.1-.3.2-.4.2-.5.5-1,.9-1.2.6-.3,1.9-.5,3-.5s2.3.1,3,.5c.4.2.7.7.9,1.2,0,.1.1.3.2.4h-7.8ZM14,13c0,.3,0,.3-.6.3s-1,0-1.5,0c0,0-.1-.1,0-.2.2-.2.5-.3.8-.4.6-.2.9-.2,1.2-.2,0,0,0,0,0,0,0,0,0,0,0,0,0,.2,0,.3,0,.5h0Z"/>
  <path class="cls-1" d="M17.8,6.9c0,0-.7-.4-.7-.4.1,0,.2,0,.2-.3s0-.3-.2-.3h-.6c-.4-.8-.4-1-1-1.3-.7-.4-2.1-.4-2.7-.4s-1.9,0-2.6.4c-.6.3-.5.4-1,1.3h0s-.6,0-.6,0c-.2,0-.2,0-.2.3s0,.2.2.3c0,0-.6.3-.7.4,0,0-.1.5-.2,1.3h.5c1.5,0,2.7.2,3.4.5.4,0,.7-.1,1.1-.1,1,0,2,.3,2.3.4.1,0,.3,0,.2.3v.2h-2.5c.1.2.2.4.4.8h0c0,0,.5,0,.5,0,.2,0,.4,0,.5.2h1.4c0,.3,0,.3.2.3h1.7c0,0,.1,0,.1-.3h.2s0-1,0-2-.1-1.6-.2-1.7h0ZM10.2,7.8c-.4,0-.8,0-1.2,0s-.4,0-.5-.2c0-.1,0-.2,0-.4h0c0,0,0,0,0,0,.2,0,.5,0,.9.1.2,0,.4.2.6.3,0,0,.1.1.1.1h-.1ZM10,6.5h-.2c0-.1,0-.2.1-.3.2-.4.4-.8.7-.9.5-.2,1.5-.4,2.3-.4s1.8.1,2.3.4c.3.2.5.6.7.9,0,.1,0,.2.1.3h-6.1ZM17.3,7.6c0,.3,0,.2-.4.2s-.8,0-1.1,0c0,0,0-.1,0-.1.2-.1.4-.2.6-.3.5-.1.7-.2.9-.1,0,0,0,0,0,0,0,0,0,0,0,0,0,.1,0,.2,0,.4h0Z"/>
  <path class="cls-1" d="M5.2,6.8c.1,0,.2.1,0,.2l-1.3,1.3c-.1,0-.3,0-.4,0l-1.3-1.3c0,0,0-.2,0-.2h.7v-1.7c0-.1.1-.2.2-.2h.9c.1,0,.2.1.2.2v1.7h.7ZM7.5,4.4c.1,0,.2-.1,0-.2l-1.3-1.3c0,0-.3,0-.4,0l-1.3,1.3c0,0,0,.2,0,.2h.7v1.7c0,.1.1.2.2.2h.9c.1,0,.2-.1.2-.2v-1.6h.7Z"/>
</svg>