<?xml version="1.0" encoding="utf-8"?>
<!-- Generator: Adobe Illustrator 28.1.0, SVG Export Plug-In . SVG Version: 6.00 Build 0)  -->
<svg version="1.1" id="Layer_1" xmlns="http://www.w3.org/2000/svg" xmlns:xlink="http://www.w3.org/1999/xlink" x="0px" y="0px"
	 viewBox="0 0 20 20" style="enable-background:new 0 0 20 20;" xml:space="preserve">
<style type="text/css">
	.st0{fill-rule:evenodd;clip-rule:evenodd;}
</style>
<g>
	<path d="M5.8,16.8c0.5,0,0.9-0.4,0.9-0.9c0-0.5-0.4-0.9-0.9-0.9c-0.5,0-0.9,0.4-0.9,0.9C4.9,16.4,5.3,16.8,5.8,16.8z"/>
	<path d="M17,15l-0.2-0.6v0c-0.1-0.1-0.2-0.2-0.3-0.3c-0.1,0-0.2-0.1-0.4-0.1l-3-0.4h0L11,12.3c-0.7-0.3-1.5-0.5-2.3-0.4
		c-1.6,0-2,0.3-2.1,0.4L5.2,13C5.1,13,5,13,5,13H4.2c-0.5,0-0.8,0.3-0.9,0.9l-0.3,1c0,0.1,0,0.2,0,0.3c0,0.1,0.1,0.2,0.2,0.3
		c0.1,0.1,0.2,0.2,0.4,0.3c0.1,0,0.3,0.1,0.4,0.1h0.4c0-0.3,0.1-0.7,0.4-1c0.3-0.3,0.6-0.4,1-0.4c0.3,0,0.7,0.1,1,0.4
		c0.3,0.3,0.4,0.6,0.4,1h5.4c0-0.3,0.1-0.7,0.4-1c0.3-0.3,0.6-0.4,1-0.4c0.4,0,0.7,0.1,1,0.4c0.3,0.3,0.4,0.6,0.4,1h1
		c0.1,0,0.2,0,0.3-0.1c0.1,0,0.2-0.1,0.2-0.2c0-0.1,0.1-0.2,0.1-0.3C17,15.2,17,15.1,17,15z M8.4,13.3c-0.9,0-1.8-0.1-2.6-0.2
		l0.9-0.5c0.1-0.1,0.4-0.3,1.7-0.3V13.3z M8.8,13.4v-1.1c0.7,0,1.3,0.1,1.8,0.4l1.4,0.7C11.3,13.5,10.1,13.4,8.8,13.4z"/>
	<path d="M14,16.8c0.5,0,0.9-0.4,0.9-0.9c0-0.5-0.4-0.9-0.9-0.9c-0.5,0-0.9,0.4-0.9,0.9C13,16.4,13.5,16.8,14,16.8z"/>
	<path class="st0" d="M3,4.1c0-0.5,0.4-0.9,0.9-0.9h12.2c0.5,0,0.9,0.4,0.9,0.9v8.3c0,0.5-0.4,0.9-0.9,0.9h-1.5l-1.4-0.2l-0.8-0.4
		h3.3c0.4,0,0.7-0.3,0.7-0.7V4.6c0-0.3-0.3-0.7-0.7-0.7H4.3C4,3.9,3.7,4.2,3.7,4.6V12c0,0.3,0.2,0.5,0.4,0.6c-0.3,0-0.6,0.1-0.8,0.3
		l0,0C3.1,12.9,3,12.6,3,12.4V4.1z M15.7,12.4H12l-0.9-0.5l0,0c-0.8-0.3-1.6-0.5-2.5-0.5c-0.8,0-1.4,0-1.7,0.1
		c-0.3,0.1-0.6,0.2-0.7,0.3l-1,0.6H4.3c-0.3,0-0.4-0.2-0.4-0.4V4.6c0-0.3,0.2-0.4,0.4-0.4h11.4c0.3,0,0.4,0.2,0.4,0.4V12
		C16.1,12.3,15.9,12.4,15.7,12.4z M5.6,5.6c0,0.3-0.2,0.4-0.4,0.4S4.8,5.9,4.8,5.6c0-0.3,0.2-0.4,0.4-0.4S5.6,5.4,5.6,5.6z
		 M5.2,11.6c0.3,0,0.4-0.2,0.4-0.4c0-0.3-0.2-0.4-0.4-0.4s-0.4,0.2-0.4,0.4C4.8,11.4,4.9,11.6,5.2,11.6z M15.2,5.6
		c0,0.3-0.2,0.4-0.4,0.4s-0.4-0.2-0.4-0.4c0-0.3,0.2-0.4,0.4-0.4S15.2,5.4,15.2,5.6z M14.8,11.6c0.3,0,0.4-0.2,0.4-0.4
		c0-0.3-0.2-0.4-0.4-0.4s-0.4,0.2-0.4,0.4C14.4,11.4,14.6,11.6,14.8,11.6z M12.2,5.9h-0.3c0,0,0-0.1,0-0.1c0,0,0,0-0.1-0.1
		c0,0,0,0-0.1,0c0,0-0.1,0-0.1,0c-0.1,0-0.2,0-0.2,0s-0.1,0.1-0.1,0.2c0,0.1,0,0.2,0,0.3c0,0.1,0,0.2,0,0.3c0,0.1,0.1,0.1,0.1,0.2
		c0,0,0.1,0,0.2,0c0,0,0.1,0,0.1,0c0,0,0.1,0,0.1,0c0,0,0,0,0.1-0.1c0,0,0-0.1,0-0.1h0.3c0,0.1,0,0.1-0.1,0.2c0,0.1-0.1,0.1-0.1,0.2
		c0,0-0.1,0.1-0.2,0.1c-0.1,0-0.2,0-0.3,0c-0.1,0-0.3,0-0.4-0.1c-0.1,0-0.2-0.2-0.3-0.3c0-0.1-0.1-0.3-0.1-0.4c0-0.2,0-0.3,0.1-0.4
		c0-0.1,0.2-0.2,0.3-0.3c0.1,0,0.2-0.1,0.4-0.1c0.1,0,0.2,0,0.3,0c0.1,0,0.1,0,0.2,0.1c0,0,0.1,0.1,0.1,0.2
		C12.2,5.7,12.2,5.8,12.2,5.9z M7.6,10.5v-0.4l0.9-0.8C8.6,9.1,8.6,9.1,8.7,9c0,0,0.1-0.1,0.1-0.2c0,0,0-0.1,0-0.2
		c0-0.1,0-0.1,0-0.2c0,0-0.1-0.1-0.1-0.1c0,0-0.1,0-0.2,0s-0.1,0-0.2,0c0,0-0.1,0.1-0.1,0.1c0,0,0,0.1,0,0.2H7.5
		c0-0.2,0-0.3,0.1-0.4C7.8,8.1,7.9,8.1,8,8c0.1-0.1,0.3-0.1,0.5-0.1s0.3,0,0.5,0.1s0.3,0.1,0.3,0.3c0.1,0.1,0.1,0.3,0.1,0.4
		c0,0.1,0,0.2,0,0.3c0,0.1-0.1,0.2-0.2,0.3C9,9.4,8.9,9.5,8.7,9.6L8.4,10l0,0h1.1v0.4L7.6,10.5L7.6,10.5z M10.2,10.4
		c0.1,0,0.3,0.1,0.5,0.1c0.2,0,0.4,0,0.5-0.1c0.1,0,0.3-0.2,0.3-0.3c0.1-0.1,0.1-0.3,0.1-0.4c0-0.2,0-0.3-0.1-0.4
		c-0.1-0.1-0.2-0.2-0.4-0.2l0,0c0.1,0,0.3-0.1,0.4-0.2c0.1-0.1,0.1-0.2,0.1-0.4c0-0.1,0-0.3-0.1-0.3c-0.1-0.1-0.2-0.2-0.3-0.3
		c-0.1,0-0.3-0.1-0.5-0.1S10.4,8,10.3,8c-0.1,0-0.3,0.1-0.4,0.3C9.8,8.4,9.8,8.5,9.8,8.7h0.5c0,0,0-0.1,0-0.2c0,0,0.1-0.1,0.1-0.1
		c0,0,0.1,0,0.2,0c0.1,0,0.1,0,0.2,0s0.1,0,0.1,0.1c0,0,0,0.1,0,0.2c0,0.1,0,0.1,0,0.2c0,0-0.1,0.1-0.1,0.1s-0.1,0-0.2,0h-0.2v0.3
		h0.2c0.1,0,0.2,0,0.3,0c0.1,0,0.1,0.1,0.2,0.1s0,0.1,0,0.2c0,0.1,0,0.1,0,0.2S11,10,11,10c0,0-0.1,0-0.2,0s-0.1,0-0.2,0
		c0,0-0.1,0-0.1-0.1c0,0,0-0.1,0-0.2H9.8c0,0.1,0,0.3,0.1,0.4C10,10.2,10.1,10.3,10.2,10.4z M12.1,9.6V10h1.2v0.4h0.5V10h0.3V9.6
		h-0.3V7.9h-0.3h-0.2h-0.2L12.1,9.6z M13.3,8.5L13.3,8.5l-0.7,1.1l0,0h0.7V8.5z M7,10.5V7.9H6.5L5.8,8.3v0.5l0.6-0.3l0,0v2.1L7,10.5
		L7,10.5z M9.4,5.3v1.6h0.7c0.1,0,0.2,0,0.3,0c0.1,0,0.1-0.1,0.2-0.2c0-0.1,0-0.1,0-0.2c0-0.1,0-0.1,0-0.2c0,0-0.1-0.1-0.1-0.1
		c0,0-0.1,0-0.2,0l0,0c0,0,0.1,0,0.1,0c0,0,0.1-0.1,0.1-0.1c0,0,0-0.1,0-0.2c0-0.1,0-0.1,0-0.2c0,0-0.1-0.1-0.2-0.1
		c-0.1,0-0.2,0-0.3,0L9.4,5.3L9.4,5.3z M10,6.7H9.7V6.3H10c0,0,0.1,0,0.1,0c0,0,0.1,0,0.1,0.1s0,0.1,0,0.1c0,0,0,0.1,0,0.1
		C10.1,6.7,10.1,6.7,10,6.7z M10,6H9.7V5.6H10c0.1,0,0.1,0,0.2,0c0,0,0,0.1,0,0.1c0,0,0,0.1,0,0.1C10.1,6,10.1,6,10,6
		C10,6,10,6,10,6z M8,7H7.7l0.6-1.6h0.4L9.3,7H8.9L8.7,6.6H8.1L8,7z M8.4,5.7l0.2,0.6H8.2L8.4,5.7L8.4,5.7z"/>
</g>
</svg>
