<!-- Generated by IcoMoon.io -->
<svg version="1.1" xmlns="http://www.w3.org/2000/svg" width="32" height="32" viewBox="0 0 32 32">
<title>car</title>
<path d="M7.467 24.711v1.422c0 0.403-0.136 0.741-0.409 1.013s-0.61 0.409-1.013 0.409h-1.422c-0.403 0-0.741-0.136-1.013-0.409s-0.409-0.61-0.409-1.013v-11.378l2.987-8.533c0.142-0.427 0.397-0.77 0.764-1.031s0.776-0.391 1.227-0.391h15.644c0.45 0 0.859 0.13 1.227 0.391s0.622 0.604 0.764 1.031l2.987 8.533v11.378c0 0.403-0.136 0.741-0.409 1.013s-0.61 0.409-1.013 0.409h-1.422c-0.403 0-0.741-0.136-1.013-0.409s-0.409-0.61-0.409-1.013v-1.422h-17.067zM7.182 11.911h17.636l-1.493-4.267h-14.649l-1.493 4.267zM6.044 21.867h19.911v-7.111h-19.911v7.111z"></path>
</svg>
