<svg width="24" height="24" viewBox="0 0 24 24" fill="none" xmlns="http://www.w3.org/2000/svg">
<path d="M3.90298 19.2173L10.953 16.7172L6.40298 12.1673L3.90298 19.2173ZM20.974 7.79225C20.856 7.91658 20.7178 7.97875 20.5595 7.97875C20.4011 7.97875 20.2631 7.91983 20.1452 7.802L20.0797 7.7365C19.8079 7.46467 19.4778 7.32875 19.0895 7.32875C18.701 7.32875 18.3708 7.46467 18.099 7.7365L13.0335 12.802C12.9156 12.9198 12.7776 12.9803 12.6192 12.9835C12.4609 12.9868 12.3196 12.9263 12.1952 12.802C12.0709 12.6775 12.0087 12.5378 12.0087 12.3828C12.0087 12.2276 12.0709 12.0878 12.1952 11.9635L17.2605 6.898C17.7618 6.39683 18.3682 6.14625 19.0797 6.14625C19.7912 6.14625 20.3976 6.39683 20.899 6.898L20.974 6.973C21.092 7.091 21.151 7.22758 21.151 7.38275C21.151 7.53775 21.092 7.67425 20.974 7.79225ZM8.51048 4.91725C8.63481 4.79292 8.77456 4.73075 8.92973 4.73075C9.08489 4.73075 9.22464 4.79292 9.34898 4.91725L9.56048 5.12875C10.0938 5.66208 10.3605 6.30183 10.3605 7.048C10.3605 7.79417 10.0938 8.43392 9.56048 8.96725L9.37973 9.148C9.26189 9.266 9.12381 9.32658 8.96548 9.32975C8.80714 9.33292 8.66573 9.27233 8.54123 9.148C8.41689 9.02367 8.35473 8.88392 8.35473 8.72875C8.35473 8.57375 8.41689 8.434 8.54123 8.3095L8.72223 8.12875C9.01956 7.83142 9.16823 7.47117 9.16823 7.048C9.16823 6.625 9.01956 6.26475 8.72223 5.96725L8.51048 5.75575C8.39264 5.63775 8.33206 5.49958 8.32873 5.34125C8.32556 5.18292 8.38614 5.04158 8.51048 4.91725ZM12.3682 3.1865C12.4926 3.06217 12.6323 3 12.7875 3C12.9426 3 13.0824 3.06217 13.2067 3.1865L14.272 4.252C14.7798 4.75967 15.0337 5.36925 15.0337 6.08075C15.0337 6.79225 14.7798 7.40183 14.272 7.9095L11.2067 10.975C11.0887 11.093 10.9506 11.1536 10.7922 11.1568C10.6339 11.1599 10.4926 11.0993 10.3682 10.975C10.2439 10.8507 10.1817 10.7109 10.1817 10.5557C10.1817 10.4006 10.2439 10.2608 10.3682 10.1365L13.4337 7.07125C13.7054 6.79942 13.8412 6.46925 13.8412 6.08075C13.8412 5.69225 13.7054 5.36208 13.4337 5.09025L12.3682 4.025C12.2502 3.907 12.1896 3.76883 12.1865 3.6105C12.1833 3.45217 12.2439 3.31083 12.3682 3.1865ZM19.4835 14.6287C19.3591 14.7531 19.2194 14.8152 19.0642 14.8152C18.9092 14.8152 18.7696 14.7531 18.6452 14.6287L17.8682 13.852C17.5644 13.548 17.1926 13.396 16.7527 13.396C16.3131 13.396 15.9413 13.548 15.6375 13.852L14.8605 14.6287C14.7425 14.7467 14.6043 14.8073 14.446 14.8105C14.2876 14.8137 14.1463 14.7531 14.022 14.6287C13.8976 14.5044 13.8355 14.3647 13.8355 14.2095C13.8355 14.0545 13.8976 13.9148 14.022 13.7903L14.799 13.0135C15.3386 12.4737 15.9899 12.2037 16.7527 12.2037C17.5156 12.2037 18.1669 12.4737 18.7067 13.0135L19.4835 13.7903C19.6015 13.9083 19.6621 14.0464 19.6652 14.2048C19.6684 14.3631 19.6078 14.5044 19.4835 14.6287ZM2.06248 19.8825L5.33748 10.777C5.41448 10.5795 5.53081 10.4288 5.68648 10.325C5.84231 10.2212 6.01064 10.1693 6.19148 10.1693C6.31198 10.1693 6.42414 10.1894 6.52798 10.2298C6.63181 10.2703 6.73048 10.3372 6.82398 10.4307L12.6895 16.296C12.783 16.3897 12.8499 16.4884 12.8902 16.5922C12.9307 16.6961 12.951 16.8083 12.951 16.9288C12.951 17.1096 12.8991 17.2778 12.7952 17.4335C12.6914 17.5893 12.5407 17.7057 12.3432 17.7825L3.23748 21.0575C3.05681 21.128 2.88281 21.1389 2.71548 21.0902C2.54814 21.0416 2.40423 20.957 2.28373 20.8365C2.16323 20.716 2.07864 20.5721 2.02998 20.4048C1.98114 20.2374 1.99198 20.0633 2.06248 19.8825Z" fill="black"/>
</svg>
