<svg width="20" height="20" viewBox="0 0 20 20" fill="none" xmlns="http://www.w3.org/2000/svg">
<path d="M14.9091 1H5.09091C4.00633 1.0013 2.96655 1.43272 2.19963 2.19963C1.43272 2.96655 1.0013 4.00633 1 5.09091V11.6364C1.00119 12.5791 1.32735 13.4926 1.9235 14.2228C2.51965 14.9531 3.34934 15.4556 4.27273 15.6455V18.1818C4.27271 18.3299 4.3129 18.4753 4.38901 18.6024C4.46513 18.7294 4.57431 18.8335 4.70492 18.9034C4.83553 18.9732 4.98265 19.0063 5.1306 18.9992C5.27856 18.992 5.42178 18.9448 5.545 18.8625L10.2455 15.7273H14.9091C15.9937 15.726 17.0335 15.2946 17.8004 14.5276C18.5673 13.7607 18.9987 12.7209 19 11.6364V5.09091C18.9987 4.00633 18.5673 2.96655 17.8004 2.19963C17.0335 1.43272 15.9937 1.0013 14.9091 1ZM13.2727 10.8182H6.72727C6.51028 10.8182 6.30217 10.732 6.14873 10.5785C5.99529 10.4251 5.90909 10.217 5.90909 10C5.90909 9.783 5.99529 9.5749 6.14873 9.42146C6.30217 9.26802 6.51028 9.18182 6.72727 9.18182H13.2727C13.4897 9.18182 13.6978 9.26802 13.8513 9.42146C14.0047 9.5749 14.0909 9.783 14.0909 10C14.0909 10.217 14.0047 10.4251 13.8513 10.5785C13.6978 10.732 13.4897 10.8182 13.2727 10.8182ZM14.9091 7.54545H5.09091C4.87391 7.54545 4.66581 7.45925 4.51237 7.30581C4.35893 7.15238 4.27273 6.94427 4.27273 6.72727C4.27273 6.51028 4.35893 6.30217 4.51237 6.14873C4.66581 5.99529 4.87391 5.90909 5.09091 5.90909H14.9091C15.1261 5.90909 15.3342 5.99529 15.4876 6.14873C15.6411 6.30217 15.7273 6.51028 15.7273 6.72727C15.7273 6.94427 15.6411 7.15238 15.4876 7.30581C15.3342 7.45925 15.1261 7.54545 14.9091 7.54545Z" fill="black"/>
</svg>
