<!-- Generated by IcoMoon.io -->
<svg version="1.1" xmlns="http://www.w3.org/2000/svg" width="32" height="32" viewBox="0 0 32 32">
<path d="M23.127 3.093c-1.152-0.093-2.587-0.093-4.415-0.093h-5.424c-1.828 0-3.263 0-4.415 0.093-1.173 0.097-2.143 0.295-3.020 0.743-1.443 0.735-2.616 1.908-3.351 3.351-0.448 0.877-0.645 1.847-0.741 3.020-0.095 1.152-0.095 2.587-0.095 4.415v5.683c0 0.792 0.156 1.576 0.459 2.307s0.747 1.396 1.307 1.956c1.131 1.131 2.664 1.766 4.263 1.766h0.801c0.332 0 0.559 0.335 0.436 0.643-0.916 2.288 1.72 4.357 3.725 2.925l3.548-2.533c0.945-0.666 2.071-1.027 3.227-1.035h1.008c2.065 0 3.324 0 4.383-0.309 1.233-0.361 2.356-1.027 3.264-1.936s1.574-2.031 1.936-3.264c0.309-1.059 0.309-2.317 0.309-4.383v-1.82c0-1.828 0-3.263-0.093-4.415-0.097-1.173-0.295-2.143-0.743-3.020-0.735-1.443-1.908-2.616-3.351-3.351-0.877-0.448-1.847-0.647-3.020-0.743zM6.761 5.619c0.548-0.28 1.225-0.444 2.275-0.529 1.061-0.087 2.413-0.088 4.297-0.088h5.333c1.884 0 3.236 0 4.297 0.088 1.049 0.085 1.727 0.251 2.276 0.529 1.066 0.544 1.933 1.411 2.476 2.477 0.28 0.548 0.444 1.225 0.529 2.275 0.087 1.061 0.088 2.413 0.088 4.297v1.579c0 2.323-0.011 3.269-0.229 4.016-0.267 0.911-0.759 1.741-1.431 2.412s-1.501 1.163-2.412 1.431c-0.747 0.219-1.693 0.229-4.016 0.229h-0.825c-1.564 0.010-3.088 0.499-4.367 1.4l-3.556 2.54c-0.381 0.272-0.881-0.12-0.707-0.555 0.15-0.375 0.206-0.78 0.163-1.182s-0.184-0.786-0.411-1.12c-0.226-0.334-0.531-0.608-0.888-0.797s-0.754-0.288-1.158-0.287h-0.801c-1.069 0-2.094-0.425-2.849-1.18s-1.18-1.781-1.18-2.849v-5.639c0-1.884 0-3.236 0.088-4.297 0.085-1.049 0.251-1.727 0.529-2.275 0.543-1.067 1.411-1.933 2.477-2.476z"></path>
<path d="M12 14.667c0 0.354-0.14 0.693-0.391 0.943s-0.589 0.391-0.943 0.391c-0.354 0-0.693-0.141-0.943-0.391s-0.391-0.589-0.391-0.943c0-0.354 0.14-0.693 0.391-0.943s0.589-0.391 0.943-0.391c0.354 0 0.693 0.141 0.943 0.391s0.391 0.589 0.391 0.943zM17.333 14.667c0 0.354-0.141 0.693-0.391 0.943s-0.589 0.391-0.943 0.391c-0.354 0-0.693-0.141-0.943-0.391s-0.391-0.589-0.391-0.943c0-0.354 0.141-0.693 0.391-0.943s0.589-0.391 0.943-0.391c0.354 0 0.693 0.141 0.943 0.391s0.391 0.589 0.391 0.943zM22.667 14.667c0 0.354-0.141 0.693-0.391 0.943s-0.589 0.391-0.943 0.391c-0.354 0-0.693-0.141-0.943-0.391s-0.391-0.589-0.391-0.943c0-0.354 0.141-0.693 0.391-0.943s0.589-0.391 0.943-0.391c0.354 0 0.693 0.141 0.943 0.391s0.391 0.589 0.391 0.943z"></path>
</svg>
