<!-- Generated by IcoMoon.io -->
<svg version="1.1" xmlns="http://www.w3.org/2000/svg" width="32" height="32" viewBox="0 0 32 32">
<title>chat</title>
<path d="M23.84 27.52c0.16 0 0.48 0.16 0.64 0.32 1.12 0.96 2.56 1.28 4 0.96-0.8-1.76-0.96-4-0.32-5.92 0.8-2.4 1.12-4.8 0.16-7.2-0.8-2.080-2.4-3.84-4.48-4.96 0.16 0.64 0.16 1.44 0.16 2.080 0 2.88-1.12 5.76-3.2 7.84s-4.8 3.2-7.84 3.36c-0.48 0-1.12 0-1.6-0.16 1.6 2.88 4.64 4.64 8 4.8 1.44 0 2.88-0.32 4.16-0.96 0-0.16 0.16-0.16 0.32-0.16z"></path>
<path d="M12.8 3.2c-5.28-0.16-9.6 4.16-9.6 9.44 0 1.28 0.32 2.56 0.8 3.68 0 0 0 0 0 0 0.64 1.92 0.48 4-0.32 5.92 1.44 0.48 2.88 0.16 4-0.96 0.16-0.16 0.32-0.16 0.48-0.16s0.32 0 0.48 0c1.28 0.64 2.72 0.96 4.16 0.96 5.28 0 9.28-4.16 9.28-9.44 0-5.12-4.16-9.28-9.28-9.44zM7.68 14.080c-0.8 0-1.44-0.64-1.44-1.44s0.64-1.44 1.44-1.44c0.8 0 1.44 0.64 1.44 1.44-0.16 0.8-0.8 1.44-1.44 1.44zM12.64 14.080c-0.8 0-1.44-0.64-1.44-1.44s0.64-1.44 1.44-1.44c0.8 0 1.44 0.64 1.44 1.44s-0.64 1.44-1.44 1.44zM17.76 14.080c-0.8 0-1.44-0.64-1.44-1.44s0.64-1.44 1.44-1.44c0.8 0 1.44 0.64 1.44 1.44-0.16 0.8-0.8 1.44-1.44 1.44z"></path>
</svg>
