<svg width="25" height="25" viewBox="0 0 25 25" fill="none" xmlns="http://www.w3.org/2000/svg">
<mask id="mask0_19602_73585" style="mask-type:alpha" maskUnits="userSpaceOnUse" x="0" y="0" width="25" height="25">
<rect x="0.527344" y="0.118652" width="24" height="24" fill="#D9D9D9"/>
</mask>
<g mask="url(#mask0_19602_73585)">
<path d="M12.5258 4.61865C14.6192 4.61865 16.3928 5.34507 17.8466 6.7979C19.3004 8.25074 20.0273 10.0238 20.0273 12.1172C20.0273 14.2105 19.3009 15.9841 17.8481 17.4379C16.3953 18.8917 14.6222 19.6187 12.5288 19.6187C10.4355 19.6187 8.66193 18.8922 7.20809 17.4394C5.75426 15.9866 5.02734 14.2135 5.02734 12.1202C5.02734 10.0268 5.75376 8.25324 7.20659 6.7994C8.65943 5.34557 10.4325 4.61865 12.5258 4.61865ZM12.5273 18.1187C14.194 18.1187 15.6107 17.5353 16.7773 16.3687C17.944 15.202 18.5273 13.7853 18.5273 12.1187C18.5273 10.452 17.944 9.03532 16.7773 7.86865C15.6107 6.70199 14.194 6.11865 12.5273 6.11865C10.8607 6.11865 9.44401 6.70199 8.27734 7.86865C7.11068 9.03532 6.52734 10.452 6.52734 12.1187C6.52734 13.7853 7.11068 15.202 8.27734 16.3687C9.44401 17.5353 10.8607 18.1187 12.5273 18.1187ZM9.16209 10.1204C9.16209 10.3769 9.24884 10.5914 9.42234 10.7639C9.59584 10.9362 9.81093 11.0224 10.0676 11.0224C10.3241 11.0224 10.5386 10.9357 10.7111 10.7622C10.8834 10.5887 10.9696 10.3736 10.9696 10.1169C10.9696 9.8604 10.8828 9.6459 10.7093 9.4734C10.5358 9.30107 10.3208 9.2149 10.0641 9.2149C9.80759 9.2149 9.59309 9.30165 9.42059 9.47515C9.24826 9.64865 9.16209 9.86374 9.16209 10.1204ZM14.0851 10.1204C14.0851 10.3769 14.1718 10.5914 14.3453 10.7639C14.5188 10.9362 14.7339 11.0224 14.9906 11.0224C15.2471 11.0224 15.4616 10.9357 15.6341 10.7622C15.8064 10.5887 15.8926 10.3736 15.8926 10.1169C15.8926 9.8604 15.8058 9.6459 15.6323 9.4734C15.4588 9.30107 15.2438 9.2149 14.9871 9.2149C14.7306 9.2149 14.5161 9.30165 14.3436 9.47515C14.1713 9.64865 14.0851 9.86374 14.0851 10.1204ZM2.02734 5.36865V3.4264C2.02734 2.92924 2.20434 2.50365 2.55834 2.14965C2.91234 1.79565 3.33793 1.61865 3.83509 1.61865H5.77734C5.98984 1.61865 6.16801 1.69057 6.31184 1.8344C6.45551 1.97824 6.52734 2.1564 6.52734 2.3689C6.52734 2.58157 6.45551 2.75965 6.31184 2.90315C6.16801 3.04682 5.98984 3.11865 5.77734 3.11865H3.83509C3.74526 3.11865 3.67151 3.14749 3.61384 3.20515C3.55618 3.26282 3.52734 3.33657 3.52734 3.4264V5.36865C3.52734 5.58115 3.45543 5.75932 3.31159 5.90315C3.16776 6.04682 2.98959 6.11865 2.77709 6.11865C2.56443 6.11865 2.38634 6.04682 2.24284 5.90315C2.09918 5.75932 2.02734 5.58115 2.02734 5.36865ZM5.77734 22.6187H3.83509C3.33793 22.6187 2.91234 22.4417 2.55834 22.0877C2.20434 21.7337 2.02734 21.3081 2.02734 20.8109V18.8687C2.02734 18.6562 2.09926 18.478 2.24309 18.3342C2.38693 18.1905 2.56509 18.1187 2.77759 18.1187C2.99026 18.1187 3.16834 18.1905 3.31184 18.3342C3.45551 18.478 3.52734 18.6562 3.52734 18.8687V20.8109C3.52734 20.9007 3.55618 20.9745 3.61384 21.0322C3.67151 21.0898 3.74526 21.1187 3.83509 21.1187H5.77734C5.98984 21.1187 6.16801 21.1906 6.31184 21.3344C6.45551 21.4782 6.52734 21.6564 6.52734 21.8689C6.52734 22.0816 6.45551 22.2597 6.31184 22.4032C6.16801 22.5468 5.98984 22.6187 5.77734 22.6187ZM21.2196 22.5224H19.2773C19.0648 22.5224 18.8867 22.4505 18.7428 22.3067C18.5992 22.1628 18.5273 21.9847 18.5273 21.7722C18.5273 21.5595 18.5992 21.3814 18.7428 21.2379C18.8867 21.0942 19.0648 21.0224 19.2773 21.0224H21.2196C21.3094 21.0224 21.3832 20.9936 21.4408 20.9359C21.4985 20.8782 21.5273 20.8045 21.5273 20.7147V18.7724C21.5273 18.5599 21.5993 18.3818 21.7431 18.2382C21.8869 18.0943 22.0651 18.0224 22.2776 18.0224C22.4903 18.0224 22.6683 18.0943 22.8118 18.2382C22.9555 18.3818 23.0273 18.5599 23.0273 18.7724V20.7147C23.0273 21.2118 22.8503 21.6374 22.4963 21.9914C22.1423 22.3454 21.7168 22.5224 21.2196 22.5224ZM21.5273 5.36865V3.4264C21.5273 3.33657 21.4985 3.26282 21.4408 3.20515C21.3832 3.14749 21.3094 3.11865 21.2196 3.11865H19.2773C19.0648 3.11865 18.8867 3.04674 18.7428 2.9029C18.5992 2.75907 18.5273 2.5809 18.5273 2.3684C18.5273 2.15574 18.5992 1.97765 18.7428 1.83415C18.8867 1.69049 19.0648 1.61865 19.2773 1.61865H21.2196C21.7168 1.61865 22.1423 1.79565 22.4963 2.14965C22.8503 2.50365 23.0273 2.92924 23.0273 3.4264V5.36865C23.0273 5.58115 22.9554 5.75932 22.8116 5.90315C22.6678 6.04682 22.4896 6.11865 22.2771 6.11865C22.0644 6.11865 21.8863 6.04682 21.7428 5.90315C21.5992 5.75932 21.5273 5.58115 21.5273 5.36865ZM12.5273 15.4264C13.1222 15.4264 13.6776 15.2892 14.1936 15.0149C14.7096 14.7404 15.1343 14.3641 15.4676 13.8859C15.5613 13.7154 15.5603 13.5449 15.4648 13.3744C15.3693 13.2039 15.2197 13.1187 15.0158 13.1187H10.0388C9.83501 13.1187 9.68534 13.2039 9.58984 13.3744C9.49434 13.5449 9.49343 13.7154 9.58709 13.8859C9.92043 14.3641 10.3451 14.7404 10.8611 15.0149C11.3771 15.2892 11.9325 15.4264 12.5273 15.4264Z" fill="black"/>
</g>
</svg>
