<?xml version="1.0" encoding="utf-8"?>
<!-- Generator: Adobe Illustrator 28.1.0, SVG Export Plug-In . SVG Version: 6.00 Build 0)  -->
<svg version="1.1" id="Layer_1" xmlns="http://www.w3.org/2000/svg" xmlns:xlink="http://www.w3.org/1999/xlink" x="0px" y="0px"
	 viewBox="0 0 20 20" style="enable-background:new 0 0 20 20;" xml:space="preserve">
<style type="text/css">
	.st0{fill-rule:evenodd;clip-rule:evenodd;}
</style>
<g>
	<path class="st0" d="M12.4,3.5h-1.2c-0.1-0.5-0.6-0.9-1.1-0.9c-0.6,0-1,0.4-1.1,0.9H7.7c-0.2,0-0.3,0.1-0.3,0.3v1
		c0,0.2,0.1,0.3,0.3,0.3h4.7c0.2,0,0.3-0.1,0.3-0.3v-1C12.7,3.6,12.6,3.5,12.4,3.5z M14.5,4.1h-1.2v0.6c0,0.5-0.4,0.9-0.9,0.9H7.7
		c-0.5,0-0.9-0.4-0.9-0.9V4.1H5.6C5.3,4.1,5,4.4,5,4.7v8.4l1.2-0.7c0.1,0,0.3-0.2,0.7-0.3c0.4-0.1,1-0.2,1.7-0.2
		c0.9,0,1.7,0.2,2.5,0.5l0,0l1,0.6h0.8c0.2,0,0.3,0.2,0.3,0.3c0,0.1,0,0.2-0.1,0.2l0.1,0l1.9,0.3V4.7C15.1,4.4,14.8,4.1,14.5,4.1z
		 M8.9,10.3l-1.1,1l0,0c-0.1,0.1-0.3,0.1-0.4,0l-0.5-0.5c-0.1-0.1-0.1-0.3,0-0.4c0.1-0.1,0.3-0.1,0.4,0l0.3,0.3l0.9-0.9
		c0.1-0.1,0.3-0.1,0.4,0C9,10,9,10.2,8.9,10.3z M8.9,7.6L7.7,8.6l0,0c-0.1,0.1-0.3,0.1-0.4,0L6.8,8.1C6.7,8,6.7,7.8,6.8,7.7
		c0.1-0.1,0.3-0.1,0.4,0L7.5,8l0.9-0.9C8.6,7,8.8,7,8.9,7.1C9,7.2,9,7.4,8.9,7.6z M12.9,10.9h-2.7c-0.2,0-0.3-0.2-0.3-0.3
		s0.2-0.3,0.3-0.3h2.7c0.2,0,0.3,0.2,0.3,0.3S13.1,10.9,12.9,10.9z M12.9,8.2h-2.7c-0.2,0-0.3-0.2-0.3-0.3s0.2-0.3,0.3-0.3h2.7
		c0.2,0,0.3,0.2,0.3,0.3S13.1,8.2,12.9,8.2z"/>
	<path d="M6.7,16.4C6.7,16.5,6.7,16.5,6.7,16.4c0,0.6-0.4,0.9-0.9,0.9c-0.5,0-0.9-0.4-0.9-0.8c0,0,0-0.1,0-0.1
		c0-0.5,0.4-0.9,0.9-0.9c0.2,0,0.4,0.1,0.6,0.2l0,0c0,0,0,0,0.1,0.1c0,0,0,0,0,0c0,0,0.1,0.1,0.1,0.1c0,0.1,0.1,0.1,0.1,0.2
		C6.7,16.2,6.7,16.4,6.7,16.4z"/>
	<g>
		<path d="M17,15.6l-0.2-0.6c-0.1-0.1-0.2-0.2-0.3-0.3c-0.1,0-0.2-0.1-0.4-0.1l-1-0.2l-1.3-0.2l-0.8-0.1l-1.9-1l-0.3-0.2
			c-0.7-0.4-1.5-0.5-2.3-0.5c-0.7,0-1.2,0-1.6,0.2c-0.3,0.1-0.5,0.2-0.6,0.2l-1.3,0.8c0,0-0.1,0-0.1,0s-0.1,0-0.1,0H4.1
			c-0.2,0-0.4,0.1-0.6,0.2s-0.3,0.4-0.3,0.6L3,15.4c0,0.1,0,0.2,0,0.3C3,15.9,3.1,16,3.2,16c0.1,0.1,0.2,0.2,0.4,0.3
			c0.1,0.1,0.3,0.1,0.4,0.1h0.5c0-0.4,0.2-0.7,0.4-1c0.5-0.6,1.5-0.6,2,0c0.3,0.3,0.4,0.6,0.4,1h5.3c0-0.4,0.2-0.7,0.4-1
			c0.3-0.3,0.6-0.4,1-0.4c0.4,0,0.8,0.2,1,0.4c0.3,0.3,0.4,0.6,0.4,1h1c0.1,0,0.2,0,0.3-0.1c0.1,0,0.2-0.1,0.2-0.2
			c0-0.1,0.1-0.2,0.1-0.3C17,15.8,17,15.6,17,15.6z M8.4,13.9H8.1c-0.6,0-1.1-0.1-1.6-0.1l-0.8-0.1L6,13.6l0.7-0.4
			c0.2-0.1,0.5-0.2,1.4-0.3l0,0h0.2L8.4,13.9L8.4,13.9z M11.1,14.1c-0.6,0-1.3,0-2.1-0.1H8.8v-1.1H9H9c0.1,0,0.2,0,0.4,0
			c0.4,0.1,0.9,0.2,1.3,0.4l0.6,0.3L11.1,14.1z"/>
	</g>
	<path d="M14.9,16.4C14.9,16.5,14.9,16.5,14.9,16.4c0,0.6-0.4,0.9-0.9,0.9c-0.5,0-0.9-0.4-0.9-0.8c0,0,0-0.1,0-0.1
		c0-0.2,0.1-0.4,0.2-0.5l0,0c0,0,0.1-0.1,0.1-0.1l0,0c0,0,0,0,0.1-0.1l0,0c0.2-0.2,0.4-0.2,0.6-0.2c0.4,0,0.8,0.3,0.9,0.7
		C14.9,16.2,14.9,16.4,14.9,16.4z"/>
</g>
</svg>
