<!-- Generated by IcoMoon.io -->
<svg version="1.1" xmlns="http://www.w3.org/2000/svg" width="32" height="32" viewBox="0 0 32 32">
<title>check-fill</title>
<path d="M16 30.402c7.896 0 14.4-6.515 14.4-14.407s-6.518-14.393-14.4-14.393c-7.896 0-14.4 6.501-14.4 14.393s6.504 14.407 14.4 14.407zM14.47 22.854c-0.579 0-1.034-0.248-1.447-0.758l-3.307-3.98c-0.276-0.358-0.4-0.689-0.4-1.060 0-0.785 0.62-1.405 1.406-1.405 0.455 0 0.813 0.179 1.171 0.62l2.536 3.154 5.526-8.815c0.331-0.537 0.758-0.799 1.24-0.799 0.772 0 1.461 0.551 1.461 1.336 0 0.331-0.152 0.689-0.372 1.019l-6.435 9.903c-0.331 0.51-0.827 0.785-1.378 0.785z"></path>
</svg>
