<?xml version="1.0" encoding="utf-8"?>
<!-- Generator: Adobe Illustrator 28.1.0, SVG Export Plug-In . SVG Version: 6.00 Build 0)  -->
<svg version="1.1" id="Layer_1" xmlns="http://www.w3.org/2000/svg" xmlns:xlink="http://www.w3.org/1999/xlink" x="0px" y="0px"
	 viewBox="0 0 32 32" style="enable-background:new 0 0 32 32;" xml:space="preserve">
<style type="text/css">
	.st0{fill:#D9D9D9;filter:url(#Adobe_OpacityMaskFilter);}
	.st1{mask:url(#mask0_14130_58210_00000085248914459914620880000003748249601995315375_);}
</style>
<defs>
	<filter id="Adobe_OpacityMaskFilter" filterUnits="userSpaceOnUse" x="3" y="3.3" width="26" height="25.5">
		<feColorMatrix  type="matrix" values="1 0 0 0 0  0 1 0 0 0  0 0 1 0 0  0 0 0 1 0"/>
	</filter>
</defs>
<mask maskUnits="userSpaceOnUse" x="3" y="3.3" width="26" height="25.5" id="mask0_14130_58210_00000085248914459914620880000003748249601995315375_">
	<rect x="-1.8" y="-1.5" class="st0" width="32.6" height="32.6"/>
</mask>
<g class="st1">
	<path d="M21.3,20c-1,0-1.9-0.4-2.6-1.1c-0.7-0.7-1.1-1.6-1.1-2.6c0-1,0.4-1.9,1.1-2.6c0.7-0.7,1.6-1.1,2.6-1.1c1,0,1.9,0.4,2.6,1.1
		c0.7,0.7,1.1,1.6,1.1,2.6c0,1-0.4,1.9-1.1,2.6C23.2,19.6,22.3,20,21.3,20z M21.3,17.9c0.4,0,0.8-0.2,1.1-0.5
		c0.3-0.3,0.5-0.7,0.5-1.1c0-0.4-0.2-0.8-0.5-1.1c-0.3-0.3-0.7-0.5-1.1-0.5c-0.4,0-0.8,0.2-1.1,0.5c-0.3,0.3-0.5,0.7-0.5,1.1
		c0,0.4,0.2,0.8,0.5,1.1C20.5,17.8,20.9,17.9,21.3,17.9z M14.9,28.7c-0.3,0-0.6-0.1-0.9-0.4c-0.2-0.2-0.4-0.5-0.4-0.9v-2.2
		c0-0.4,0.1-0.8,0.3-1.1c0.2-0.3,0.4-0.6,0.8-0.8c0.7-0.4,1.2-0.7,1.7-0.8c0.5-0.2,1.1-0.3,1.9-0.4c0.3,0,0.5,0,0.7,0
		c0.2,0.1,0.4,0.2,0.6,0.4l1.6,2l1.6-2c0.2-0.2,0.4-0.3,0.6-0.4c0.2,0,0.5,0,0.7,0c0.8,0.1,1.4,0.3,1.9,0.4s1,0.4,1.7,0.8
		c0.3,0.2,0.6,0.5,0.8,0.8c0.2,0.3,0.3,0.7,0.3,1.1v2.3c0,0.3-0.1,0.6-0.4,0.9c-0.2,0.2-0.5,0.4-0.9,0.4H14.9z M15.7,26.7h4.8
		L18.4,24c-0.5,0.1-0.9,0.3-1.4,0.5c-0.5,0.2-0.9,0.4-1.3,0.6V26.7z M22.2,26.7H27v-1.6c-0.4-0.3-0.9-0.5-1.3-0.7
		c-0.5-0.2-0.9-0.3-1.4-0.5L22.2,26.7z M5,24.3v-19v4.8V9.5V24.3z M5.5,26.3c-0.7,0-1.3-0.2-1.7-0.7C3.2,25.1,3,24.6,3,23.9V5.7
		C3,5,3.2,4.5,3.7,4c0.5-0.5,1.1-0.7,1.7-0.7h18.2c0.7,0,1.3,0.2,1.7,0.7c0.5,0.5,0.7,1.1,0.7,1.7v5.9c-0.3-0.3-0.6-0.6-0.9-0.9
		c-0.3-0.3-0.7-0.5-1.1-0.6V5.7c0-0.1,0-0.2-0.1-0.3c-0.1-0.1-0.2-0.1-0.3-0.1H5.5c-0.1,0-0.2,0-0.3,0.1S5,5.6,5,5.7v18.2
		c0,0.1,0,0.2,0.1,0.3c0.1,0.1,0.2,0.1,0.3,0.1h5.1c0,0.2-0.1,0.3-0.1,0.5c0,0.2,0,0.3,0,0.5v1.1H5.5z M9.1,10.5h8.8
		c0.5-0.3,1-0.6,1.5-0.7c0.5-0.2,1.1-0.2,1.6-0.3v0c0-0.3-0.1-0.5-0.3-0.7S20.3,8.5,20,8.5H9.1c-0.3,0-0.5,0.1-0.7,0.3
		C8.2,9,8.1,9.2,8.1,9.5c0,0.3,0.1,0.5,0.3,0.7C8.6,10.4,8.8,10.5,9.1,10.5z M9.1,15.8h5.4c0-0.4,0.1-0.7,0.1-1
		c0.1-0.3,0.2-0.7,0.3-1H9.1c-0.3,0-0.5,0.1-0.7,0.3s-0.3,0.4-0.3,0.7c0,0.3,0.1,0.5,0.3,0.7C8.6,15.7,8.8,15.8,9.1,15.8z M9.1,21.1
		h3.2c0.2-0.2,0.5-0.4,0.8-0.5c0.3-0.2,0.5-0.3,0.8-0.4v-0.2c0-0.2-0.1-0.4-0.2-0.6c-0.1-0.2-0.3-0.3-0.7-0.3h-4
		c-0.3,0-0.5,0.1-0.7,0.3c-0.2,0.2-0.3,0.4-0.3,0.7c0,0.3,0.1,0.5,0.3,0.7S8.8,21.1,9.1,21.1z"/>
</g>
</svg>
