<!-- Generated by IcoMoon.io -->
<svg version="1.1" xmlns="http://www.w3.org/2000/svg" width="32" height="32" viewBox="0 0 32 32">
<title>clock</title>
<path d="M16 4.686c-6.249 0-11.314 5.066-11.314 11.314s5.066 11.314 11.314 11.314c6.249 0 11.314-5.066 11.314-11.314s-5.066-11.314-11.314-11.314zM1.6 16c0-7.953 6.447-14.4 14.4-14.4s14.4 6.447 14.4 14.4c0 7.953-6.447 14.4-14.4 14.4s-14.4-6.447-14.4-14.4z"></path>
<path d="M15.9 6.4c0.828 0 1.5 0.744 1.5 1.662v7.281l4.171 2.31c0.741 0.41 1.041 1.408 0.671 2.229s-1.271 1.153-2.012 0.743l-5-2.769c-0.508-0.281-0.829-0.857-0.829-1.486v-8.307c0-0.918 0.672-1.662 1.5-1.662z"></path>
</svg>
