<!-- Generated by IcoMoon.io -->
<svg version="1.1" xmlns="http://www.w3.org/2000/svg" width="32" height="32" viewBox="0 0 32 32">
<path d="M24.553 12.309c-1.309-3.454-4.643-5.911-8.549-5.911s-7.24 2.454-8.549 5.909c-2.46 0.649-4.271 2.897-4.257 5.566 0.017 2.983 2.331 5.409 5.246 5.669 0.134 0.011 0.249-0.094 0.249-0.229v-1.726c0-0.114-0.086-0.211-0.2-0.226-0.771-0.097-1.5-0.434-2.060-0.986-0.686-0.671-1.063-1.574-1.063-2.531 0-0.8 0.26-1.554 0.749-2.183 0.477-0.611 1.149-1.054 1.889-1.249l1.083-0.286 0.397-1.049c0.246-0.651 0.589-1.263 1.020-1.814 0.426-0.549 0.931-1.029 1.497-1.429 1.174-0.826 2.557-1.263 4-1.263s2.826 0.437 4 1.266c0.569 0.4 1.071 0.88 1.497 1.429 0.431 0.551 0.774 1.163 1.020 1.814l0.394 1.046 1.080 0.286c1.549 0.411 2.631 1.82 2.631 3.429 0 0.96-0.377 1.86-1.063 2.531-0.557 0.549-1.283 0.889-2.054 0.986-0.114 0.014-0.197 0.111-0.197 0.226v1.729c0 0.134 0.117 0.24 0.251 0.229 2.906-0.263 5.214-2.686 5.234-5.663 0.017-2.669-1.791-4.917-4.246-5.569z"></path>
<path d="M12.139 20.529c0.051-0.957 0.449-1.849 1.129-2.531 0.726-0.729 1.714-1.137 2.743-1.137 1.034 0 2.009 0.403 2.743 1.137 0.040 0.040 0.077 0.080 0.117 0.123l-0.714 0.56c-0.034 0.026-0.060 0.062-0.075 0.102s-0.018 0.084-0.009 0.126c0.009 0.042 0.030 0.081 0.060 0.112s0.068 0.053 0.11 0.063l2.806 0.686c0.143 0.034 0.283-0.074 0.283-0.22l0.014-2.894c0-0.191-0.217-0.3-0.369-0.18l-0.663 0.52c-1.046-1.2-2.583-1.96-4.3-1.96-3.069 0-5.571 2.431-5.697 5.477-0.006 0.129 0.097 0.237 0.229 0.237h1.369c0.12-0.003 0.22-0.097 0.226-0.22zM21.457 20.746h-1.369c-0.12 0-0.22 0.094-0.229 0.217-0.051 0.957-0.449 1.849-1.129 2.531-0.726 0.729-1.714 1.137-2.743 1.137-1.034 0-2.009-0.403-2.743-1.137-0.040-0.040-0.077-0.080-0.117-0.123l0.714-0.56c0.034-0.026 0.060-0.062 0.075-0.102s0.018-0.084 0.009-0.126c-0.009-0.042-0.030-0.081-0.060-0.112s-0.068-0.053-0.11-0.063l-2.806-0.686c-0.143-0.034-0.283 0.074-0.283 0.22l-0.011 2.897c0 0.191 0.217 0.3 0.369 0.18l0.663-0.52c1.046 1.2 2.583 1.96 4.3 1.96 3.069 0 5.571-2.431 5.697-5.477 0.006-0.129-0.097-0.237-0.229-0.237z"></path>
</svg>
