<!-- Generated by IcoMoon.io -->
<svg version="1.1" xmlns="http://www.w3.org/2000/svg" width="32" height="32" viewBox="0 0 32 32">
<title>coffee</title>
<path d="M10.075 10.225c0.498 0 0.9-0.402 0.9-0.9v-5.225c0-0.498-0.402-0.9-0.9-0.9s-0.9 0.402-0.9 0.9v5.225c0 0.498 0.402 0.9 0.9 0.9zM25.4 13.825h-3c0-0.995-0.805-1.8-1.8-1.8h-12.4c-0.995 0-1.8 0.805-1.8 1.8v6.2c0 0.085 0.005 0.168 0.018 0.248-0.013 0.175-0.018 0.35-0.018 0.528 0 4.417 3.583 8 8 8 4.003 0 7.317-2.937 7.908-6.775h3.092c0.995 0 1.8-0.805 1.8-1.8v-4.6c0-0.995-0.805-1.8-1.8-1.8zM20.6 20.225h-0.028c0.018 0.19 0.028 0.38 0.028 0.575 0 3.425-2.775 6.2-6.2 6.2s-6.2-2.775-6.2-6.2c0-0.195 0.010-0.385 0.027-0.575h-0.027v-6.4h12.4v6.4zM25.4 20.025h-2.8v-4.4h2.8v4.4zM18.525 10.225c0.498 0 0.9-0.402 0.9-0.9v-5.225c0-0.498-0.402-0.9-0.9-0.9s-0.9 0.402-0.9 0.9v5.225c0 0.498 0.403 0.9 0.9 0.9zM14.275 10.225c0.498 0 0.9-0.402 0.9-0.9v-5.225c0-0.498-0.402-0.9-0.9-0.9s-0.9 0.402-0.9 0.9v5.225c0 0.498 0.402 0.9 0.9 0.9z"></path>
</svg>
