<svg width="24" height="24" viewBox="0 0 24 24" fill="none" xmlns="http://www.w3.org/2000/svg">
<path d="M6.29489 5.76671C7.17493 4.95786 8.21555 4.34701 9.34647 3.97258C8.65806 5.00519 8.12107 6.43468 7.79439 8.11207C6.13568 7.70826 5.05535 7.15493 4.52597 6.79173L4.5261 6.79155L4.51839 6.78681C4.26594 6.63165 3.89015 6.65567 3.67861 6.90858L3.67115 6.91749L3.6649 6.92729C-0.360081 13.2403 4.52465 21.8681 12.0061 21.7539C19.4938 21.8323 24.2474 13.3826 20.4308 7.05614C17.5074 1.89099 10.3651 0.633097 5.84198 4.39666L5.84166 4.39628L5.83208 4.40553C5.78326 4.45267 5.72511 4.49871 5.65721 4.55201L5.65076 4.55707C5.58716 4.60698 5.5155 4.66321 5.45003 4.72474C5.31374 4.85283 5.17898 5.02707 5.17487 5.27478L5.17485 5.27478L5.17485 5.27729C5.17461 5.36498 5.19165 5.45187 5.225 5.53297C5.25834 5.61408 5.30733 5.68783 5.36918 5.75001C5.43102 5.81218 5.50451 5.86157 5.58544 5.89535C5.66637 5.92912 5.75316 5.94662 5.84086 5.94686L5.84214 5.94686C6.0104 5.94611 6.17213 5.88175 6.29489 5.76671ZM15.531 18.3066L15.5311 18.3067L15.5327 18.3021C15.8391 17.4384 16.0677 16.5535 16.2386 15.6594C17.5829 15.3532 18.8886 14.8986 20.132 14.3041C19.152 17.9041 15.5364 20.5222 11.9423 20.4088C11.4536 20.3758 10.8988 19.955 10.3802 19.126C9.89738 18.354 9.47002 17.2639 9.17742 15.9267C11.0368 16.2075 12.9573 16.2075 14.8167 15.9272C14.6766 16.5714 14.4985 17.2067 14.2833 17.8299C14.2209 17.9944 14.226 18.1769 14.2974 18.3377C14.3693 18.4996 14.5025 18.6263 14.6678 18.6899C14.8331 18.7536 15.0169 18.7489 15.1788 18.6771C15.3407 18.6052 15.4674 18.4719 15.531 18.3066ZM14.6572 3.96053C16.3576 4.51167 17.9324 5.69455 18.9179 7.13193C18.3199 7.44965 17.4052 7.82062 16.217 8.11121C15.8895 6.4279 15.3494 4.99409 14.6572 3.96053ZM12.0057 3.54302C12.5144 3.54302 13.101 3.97066 13.6476 4.85396C14.166 5.69175 14.619 6.89563 14.9078 8.37628C13.2029 8.66843 10.8079 8.66843 9.10297 8.37629C9.39216 6.89533 9.8453 5.69144 10.3638 4.85373C10.9104 3.97053 11.4971 3.54302 12.0057 3.54302ZM8.93276 14.5384C8.73157 13.0531 8.71966 11.2064 8.90136 9.69802C10.7364 10.0088 13.2736 10.0088 15.1089 9.69823C15.287 11.2399 15.3 12.9716 15.0746 14.5376C13.0426 14.8914 10.9648 14.8917 8.93276 14.5384ZM3.60889 12.6725C3.48238 11.1646 3.76617 9.65111 4.42934 8.29226C5.15394 8.68267 6.22177 9.11477 7.58657 9.43829C7.39814 10.9523 7.38725 12.7055 7.55532 14.2373C6.18066 13.8801 4.85513 13.3546 3.60889 12.6725ZM9.34314 19.9839C6.73823 19.147 4.60796 16.8631 3.90475 14.3227C5.13662 14.9084 6.42951 15.3569 7.76007 15.6598C8.08193 17.4157 8.63104 18.913 9.34314 19.9839ZM20.4172 12.6605C19.1656 13.348 17.8336 13.8772 16.4519 14.2361C16.6374 12.6626 16.609 10.9698 16.4236 9.43848C17.7978 9.11309 18.8704 8.67709 19.5949 8.28499C20.2542 9.64347 20.5384 11.1542 20.4172 12.6605Z" fill="#9CA3AF" stroke="#9CA3AF" stroke-width="0.36"/>
</svg>
