<svg width="20" height="20" viewBox="0 0 20 20" fill="none" xmlns="http://www.w3.org/2000/svg">
<g clip-path="url(#clip0_182_4289)">
<path d="M8.62301 8.0269C8.62764 8.12564 8.65353 8.34001 8.80142 8.47655C8.93464 8.59965 9.08796 8.6674 9.25464 8.6674H13.0932L12.2653 9.53782C12.2653 9.53786 12.2652 9.5379 12.2652 9.53794C12.1472 9.66119 12.0777 9.82733 12.0777 9.98787C12.0777 10.0689 12.0966 10.1542 12.1263 10.2296C12.1558 10.3042 12.1992 10.3772 12.2546 10.4286L12.2553 10.4292C12.3252 10.493 12.4856 10.6196 12.6796 10.6196H12.6945V10.6197L12.6984 10.6195C12.8243 10.6147 13.0162 10.5809 13.152 10.4395L13.1523 10.4392L14.9895 8.50939L14.9988 8.49967L15.0051 8.48785C15.0128 8.47362 15.0223 8.45887 15.0348 8.44428L15.035 8.4441C15.1312 8.3313 15.2023 8.17579 15.1962 8.04734L15.1962 8.04718C15.1915 7.95224 15.1684 7.75615 15.0395 7.61795L15.0398 7.61769L15.0333 7.61182L15.0063 7.58753L13.1538 5.63964L13.1533 5.63909C13.049 5.53101 12.8667 5.45919 12.7095 5.45919C12.6284 5.45919 12.5431 5.47804 12.4677 5.50781C12.3931 5.53727 12.3201 5.58064 12.2687 5.63608L12.2682 5.63657C12.2019 5.7091 12.0683 5.87759 12.0778 6.08066L12.1777 6.07599L12.0778 6.0798C12.0846 6.25976 12.1474 6.41155 12.2648 6.53596L12.2651 6.5363L13.0915 7.40392H9.25464C9.09547 7.40392 8.92058 7.4755 8.80753 7.58855C8.75022 7.64587 8.70322 7.71934 8.67116 7.794C8.63951 7.8677 8.61911 7.95035 8.62301 8.0269ZM8.62301 8.0269L8.7229 8.02222M8.62301 8.0269C8.62302 8.02709 8.62303 8.02729 8.62304 8.02748L8.7229 8.02222M8.7229 8.02222C8.72738 8.11781 8.75278 8.29556 8.86928 8.4031L8.7229 8.02222ZM14.9589 8.3792C15.0455 8.27764 15.1008 8.14619 15.0963 8.05209L14.9589 8.3792ZM14.9589 8.3792C14.941 8.40011 14.9275 8.42103 14.9171 8.44044L14.9589 8.3792Z" fill="black" stroke="black" stroke-width="0.2"/>
<path d="M6.84516 14.365L6.84466 14.3645L4.9919 12.4178L4.95857 12.3872L4.95219 12.3814L4.95246 12.3811C4.82685 12.2442 4.80542 12.0511 4.80079 11.9569C4.79687 11.8839 4.81544 11.805 4.8446 11.7342C4.87417 11.6623 4.9177 11.5911 4.97107 11.5342L4.97331 11.5318L4.97335 11.5318L4.99339 11.5118L6.846 9.5651C6.84602 9.56508 6.84604 9.56505 6.84606 9.56503C6.98037 9.42332 7.17554 9.38814 7.30063 9.38023L7.30694 9.37983V9.38003H7.3174C7.51135 9.38003 7.67176 9.50666 7.74173 9.57041L7.74238 9.571L7.74238 9.571C7.79781 9.6224 7.84119 9.69545 7.87064 9.77003C7.90041 9.84542 7.91927 9.93072 7.91927 10.0118C7.91927 10.1723 7.84977 10.3384 7.73179 10.4617C7.73175 10.4617 7.73171 10.4618 7.73167 10.4618L6.90229 11.3337H10.7408C10.9075 11.3337 11.0609 11.4015 11.1941 11.5246C11.342 11.6611 11.3679 11.8755 11.3725 11.9742M6.84516 14.365L11.2726 11.9789M6.84516 14.365C6.94952 14.4731 7.13177 14.5449 7.28902 14.5449C7.37007 14.5449 7.45536 14.5261 7.53075 14.4963C7.60534 14.4668 7.67838 14.4235 7.72978 14.368L7.7298 14.368M6.84516 14.365L7.7298 14.368M11.3725 11.9742L11.2726 11.9789M11.3725 11.9742C11.3725 11.974 11.3725 11.9738 11.3725 11.9736L11.2726 11.9789M11.3725 11.9742C11.3764 12.0508 11.356 12.1334 11.3243 12.2071C11.2923 12.2818 11.2453 12.3553 11.188 12.4126C11.0749 12.5256 10.9 12.5972 10.7408 12.5972H6.90846M11.2726 11.9789C11.2786 12.0924 11.2113 12.2478 11.1172 12.3419C11.0231 12.436 10.8738 12.4972 10.7408 12.4972H6.81322L6.90846 12.5972M6.90846 12.5972H6.77037L6.67513 12.4972L7.73323 13.4632L7.73335 13.4633L7.66094 13.5323L7.73316 13.4631L6.90846 12.5972ZM7.7298 14.368L7.73094 14.3668M7.7298 14.368L7.73094 14.3668M7.73094 14.3668C7.79641 14.2937 7.92974 14.1255 7.92069 13.9229L7.73094 14.3668ZM6.66915 11.4337H6.80717H6.66915Z" fill="black" stroke="black" stroke-width="0.2"/>
<path d="M10.0955 18.0983H9.99548C9.70788 18.0983 9.42175 18.0817 9.14608 18.0499L9.14589 18.0498C8.63313 17.9897 8.21255 17.9127 7.82681 17.8049C7.44584 17.7002 7.05407 17.5548 6.59503 17.3471C5.89787 17.0318 5.22337 16.5869 4.58937 16.0254L4.58925 16.0253C4.00492 15.506 3.49224 14.8873 3.06757 14.1876C2.64713 13.495 2.325 12.7177 2.13732 11.9429C1.9318 11.1086 1.85757 10.2376 1.92268 9.42436C1.99062 8.55184 2.17643 7.7425 2.472 7.01948L2.47221 7.01897C2.66756 6.54863 2.84888 6.17503 3.0448 5.84697L3.04487 5.84686C3.24661 5.51012 3.49613 5.16251 3.80476 4.78764L3.80485 4.78753C4.29267 4.19669 4.89333 3.66436 5.5881 3.20823C6.24808 2.77381 7.01171 2.4261 7.79492 2.20384L7.79504 2.2038C8.50732 2.00267 9.24387 1.89982 9.98353 1.89982C10.083 1.89982 10.183 1.90132 10.2835 1.90588M10.0955 18.0983L10.2793 2.00579M10.0955 18.0983V18.0962C10.6094 18.0894 11.1403 18.0308 11.6747 17.9231C12.4488 17.7671 13.2142 17.4795 13.9485 17.0715L13.9486 17.0715C14.6458 16.6828 15.3006 16.1762 15.8453 15.6043M10.0955 18.0983L17.1381 13.61C17.519 12.8452 17.7714 12.0715 17.8864 11.3098M10.2835 1.90588C10.2836 1.90588 10.2837 1.90589 10.2838 1.90589L10.2793 2.00579M10.2835 1.90588C10.2833 1.90587 10.2832 1.90587 10.2831 1.90586L10.2793 2.00579M10.2835 1.90588C11.1504 1.93914 11.9732 2.0978 12.7304 2.37492L12.7306 2.375C13.5246 2.66784 14.2371 3.0518 14.8448 3.51554L14.8448 3.51558C15.2466 3.82256 15.5568 4.09471 15.8239 4.37093L15.8244 4.37144C16.1028 4.66346 16.3717 4.98984 16.6416 5.36984M10.2793 2.00579C11.1366 2.03865 11.9492 2.19549 12.696 2.46882C13.4817 2.75859 14.1852 3.13798 14.7841 3.59504C15.1829 3.89974 15.4891 4.1686 15.752 4.44044C16.0268 4.72872 16.2927 5.05135 16.5601 5.42775M16.6416 5.36984C16.6416 5.3698 16.6416 5.36977 16.6415 5.36974L16.5601 5.42775M16.6416 5.36984C17.0915 6.00159 17.4514 6.72624 17.7126 7.52512L17.7127 7.52543C17.961 8.29296 18.094 9.14418 18.097 9.98751L18.097 9.98787V10.0189M16.6416 5.36984L16.5601 5.42775M16.5601 5.42775C17.0037 6.0506 17.3592 6.76606 17.6176 7.5562C17.8625 8.31348 17.994 9.15441 17.997 9.98787V10.0312M4.65567 15.9505C5.28301 16.5062 5.94918 16.9453 6.63626 17.256C7.09182 17.4621 7.47868 17.6055 7.85358 17.7086L4.65567 15.9505ZM4.65567 15.9505C4.07913 15.4382 3.57278 14.8273 3.15306 14.1357L4.65567 15.9505ZM17.997 10.0312L17.9985 10.0372C17.9955 10.4225 17.9596 10.8288 17.8864 11.3098M17.997 10.0312H18.0224H18.097V10.0189M17.997 10.0312L18.094 10.0069L18.0955 10.0129L18.097 10.0189M18.097 10.0189L18.0986 10.0252L18.0985 10.0379C18.0954 10.4291 18.059 10.8402 17.9853 11.3247M17.9853 11.3247L17.8864 11.3098M17.9853 11.3247C17.9853 11.3247 17.9853 11.3248 17.9853 11.3248L17.8864 11.3098M17.9853 11.3247C17.8686 12.0979 17.6126 12.8816 17.2276 13.6546C16.8854 14.3421 16.4074 15.0165 15.8453 15.6043M15.8453 15.6043C15.8453 15.6043 15.8452 15.6044 15.8452 15.6044L15.7729 15.5353M15.8453 15.6043C15.8453 15.6043 15.8453 15.6043 15.8453 15.6043L15.7729 15.5353M15.7729 15.5353C15.2352 16.0999 14.5885 16.6003 13.8999 16.9841C13.174 17.3874 12.4182 17.6712 11.6549 17.8251C11.0918 17.9386 10.5332 17.9968 9.99548 17.9968L15.7729 15.5353ZM9.89548 17.9976C9.64546 17.9943 9.39743 17.9782 9.15754 17.9505L9.99548 17.9983H9.89548V17.9976ZM9.99548 3.16927H10.0117L10.0161 3.16779C10.3187 3.1684 10.6239 3.18609 10.9334 3.22363C11.5236 3.31353 12.1036 3.47251 12.6631 3.69913C13.1957 3.93318 13.7035 4.23049 14.1807 4.58824C14.634 4.95045 15.0477 5.36414 15.416 5.82498C15.7692 6.29768 16.0666 6.80552 16.3036 7.34415C16.5273 7.89762 16.6862 8.47609 16.7776 9.07676C16.8205 9.433 16.8395 9.72572 16.8395 9.99982C16.8395 10.2736 16.819 10.5662 16.7761 10.9335C16.6862 11.5236 16.5273 12.1035 16.3007 12.6644C16.0651 13.1972 15.7692 13.705 15.4116 14.182C15.0478 14.6354 14.6341 15.0491 14.1733 15.4174C13.7023 15.7704 13.193 16.0664 12.654 16.3051C12.1021 16.5286 11.5237 16.6876 10.923 16.779C10.617 16.8157 10.3063 16.8334 9.99847 16.8334C9.69061 16.8334 9.37848 16.8157 9.06354 16.7775C8.47187 16.6876 7.89338 16.5286 7.33387 16.302C6.80126 16.068 6.29342 15.7706 5.81622 15.4129C5.36292 15.0507 4.94921 14.637 4.58098 14.1762C4.22919 13.705 3.93182 13.1971 3.69324 12.6568C3.4697 12.1065 3.31071 11.5266 3.2193 10.9258C3.14583 10.3135 3.1458 9.69073 3.21931 9.06773C3.30922 8.47758 3.46817 7.89769 3.69474 7.3383C3.93037 6.80549 4.22772 6.29615 4.58392 5.82054C4.94612 5.36723 5.3598 4.95353 5.82064 4.5853C6.29337 4.23201 6.80124 3.93467 7.3399 3.6976C7.89026 3.47405 8.47018 3.31505 9.07095 3.22364C9.37697 3.18692 9.68761 3.16927 9.99548 3.16927Z" fill="black" stroke="black" stroke-width="0.2"/>
</g>
<defs>
<clipPath id="clip0_182_4289">
<rect width="18" height="18" fill="white" transform="translate(1 1)"/>
</clipPath>
</defs>
</svg>
