<!-- Generated by IcoMoon.io -->
<svg version="1.1" xmlns="http://www.w3.org/2000/svg" width="32" height="32" viewBox="0 0 32 32">
<path d="M12 24c-0.733 0-1.361-0.261-1.883-0.783s-0.783-1.15-0.783-1.883v-16c0-0.733 0.261-1.361 0.783-1.883s1.15-0.783 1.883-0.783h12c0.733 0 1.361 0.261 1.883 0.783s0.783 1.15 0.783 1.883v16c0 0.733-0.261 1.361-0.783 1.883s-1.15 0.783-1.883 0.783h-12zM12 21.333h12v-16h-12v16zM6.667 29.333c-0.733 0-1.361-0.261-1.883-0.783s-0.783-1.15-0.783-1.883v-18.667h2.667v18.667h14.667v2.667h-14.667z"></path>
</svg>
