<svg width="24" height="24" viewBox="0 0 24 24" fill="none" xmlns="http://www.w3.org/2000/svg">
<mask id="mask0_6997_753" style="mask-type:alpha" maskUnits="userSpaceOnUse" x="0" y="0" width="24" height="24">
<rect width="24" height="24" fill="#D9D9D9"/>
</mask>
<g mask="url(#mask0_6997_753)">
<path d="M3.66675 8H20.3333V5.66675H3.66675V8ZM2 5.66675C2 5.21675 2.16525 4.82642 2.49575 4.49575C2.82642 4.16525 3.21675 4 3.66675 4H20.3333C20.7833 4 21.1736 4.16525 21.5043 4.49575C21.8348 4.82642 22 5.21675 22 5.66675V10.8167C22 11.0527 21.9202 11.2507 21.7605 11.4105C21.6007 11.5702 21.4028 11.65 21.1668 11.65H3.66675V18.3333H8.08325C8.31942 18.3333 8.51733 18.4134 8.677 18.5738C8.83683 18.7341 8.91675 18.9327 8.91675 19.1695C8.91675 19.4065 8.83683 19.6042 8.677 19.7625C8.51733 19.9208 8.31942 20 8.08325 20H3.66675C3.21675 20 2.82642 19.8347 2.49575 19.5042C2.16525 19.1736 2 18.7833 2 18.3333V5.66675ZM3.66675 5.66675V18.3333V15.2457V17.2582V5.66675ZM14.95 21.6667C14.85 21.6667 14.75 21.6472 14.65 21.6082C14.55 21.5694 14.4556 21.5056 14.3668 21.4167L11.2833 18.3333C11.1223 18.1723 11.0431 17.9764 11.0458 17.7457C11.0486 17.5152 11.1345 17.3145 11.3035 17.1435C11.4585 16.9867 11.6523 16.9082 11.8848 16.9082C12.1171 16.9082 12.3166 16.9888 12.4833 17.15L14.95 19.6167L20.225 14.3418C20.3923 14.1751 20.5912 14.0959 20.8215 14.1043C21.0517 14.1126 21.2501 14.2001 21.4168 14.3668C21.5694 14.5334 21.6493 14.7278 21.6563 14.95C21.6633 15.1722 21.5834 15.3666 21.4168 15.5332L15.5333 21.4167C15.4444 21.5056 15.3523 21.5694 15.2568 21.6082C15.1614 21.6472 15.0592 21.6667 14.95 21.6667Z" fill="black"/>
</g>
</svg>
