<!-- Generated by IcoMoon.io -->
<svg version="1.1" xmlns="http://www.w3.org/2000/svg" width="32" height="32" viewBox="0 0 32 32">
<title>dashboard</title>
<path d="M27.794 12.617c-0.643-1.521-1.574-2.903-2.743-4.069-1.166-1.169-2.548-2.1-4.068-2.743-1.58-0.669-3.254-1.006-4.983-1.006s-3.403 0.337-4.983 1.006c-1.521 0.643-2.903 1.574-4.069 2.743-1.169 1.166-2.1 2.548-2.743 4.069-0.669 1.58-1.006 3.254-1.006 4.983 0 3.791 1.666 7.363 4.569 9.803l0.049 0.040c0.166 0.137 0.374 0.214 0.589 0.214h15.191c0.214 0 0.423-0.077 0.589-0.214l0.048-0.040c2.9-2.44 4.566-6.012 4.566-9.803 0-1.729-0.34-3.403-1.006-4.983zM23.126 25.486h-14.251c-1.104-0.996-1.986-2.212-2.59-3.57s-0.915-2.829-0.913-4.315c0-2.84 1.106-5.509 3.114-7.514 2.009-2.009 4.677-3.114 7.514-3.114 2.84 0 5.509 1.106 7.514 3.114 2.009 2.009 3.114 4.677 3.114 7.514 0 3.017-1.272 5.871-3.503 7.886zM19.186 13.643c-0.043-0.043-0.101-0.066-0.161-0.066s-0.119 0.024-0.161 0.066l-2.414 2.414c-0.534-0.143-1.126-0.006-1.546 0.414-0.149 0.148-0.267 0.325-0.347 0.519s-0.122 0.402-0.122 0.612c0 0.21 0.041 0.418 0.122 0.612s0.199 0.37 0.347 0.519c0.148 0.149 0.325 0.267 0.519 0.347s0.402 0.122 0.612 0.122c0.21 0 0.418-0.041 0.612-0.122s0.371-0.199 0.519-0.347c0.199-0.198 0.342-0.446 0.415-0.717s0.073-0.557 0-0.828l2.414-2.414c0.089-0.089 0.089-0.234 0-0.323l-0.808-0.809zM15.371 10.743h1.257c0.126 0 0.228-0.103 0.228-0.229v-2.286c0-0.126-0.103-0.229-0.228-0.229h-1.257c-0.126 0-0.229 0.103-0.229 0.229v2.286c0 0.126 0.103 0.229 0.229 0.229zM22.8 16.971v1.257c0 0.126 0.103 0.228 0.229 0.228h2.286c0.126 0 0.229-0.103 0.229-0.228v-1.257c0-0.126-0.103-0.228-0.229-0.228h-2.286c-0.126 0-0.229 0.103-0.229 0.228zM23.163 11.337l-0.889-0.889c-0.043-0.043-0.101-0.066-0.161-0.066s-0.118 0.024-0.161 0.066l-1.617 1.617c-0.043 0.043-0.066 0.101-0.066 0.161s0.024 0.118 0.066 0.161l0.889 0.889c0.088 0.089 0.234 0.089 0.323 0l1.617-1.617c0.088-0.089 0.088-0.234 0-0.323zM10.060 10.449c-0.043-0.043-0.101-0.066-0.161-0.066s-0.118 0.024-0.161 0.066l-0.889 0.889c-0.043 0.043-0.066 0.101-0.066 0.161s0.024 0.118 0.066 0.161l1.617 1.617c0.089 0.089 0.234 0.089 0.323 0l0.889-0.889c0.089-0.089 0.089-0.234 0-0.323l-1.617-1.617zM8.857 16.743h-2.286c-0.126 0-0.229 0.103-0.229 0.228v1.257c0 0.126 0.103 0.228 0.229 0.228h2.286c0.126 0 0.229-0.103 0.229-0.228v-1.257c0-0.126-0.103-0.228-0.229-0.228z"></path>
</svg>
