<!-- Generated by IcoMoon.io -->
<svg version="1.1" xmlns="http://www.w3.org/2000/svg" width="32" height="32" viewBox="0 0 32 32">
<path d="M10.623 5.502h-0.256c0.141 0 0.256-0.115 0.256-0.256v0.256h9.728v-0.256c0 0.141 0.115 0.256 0.256 0.256h-0.256v2.304h2.304v-2.56c0-1.13-0.918-2.048-2.048-2.048h-10.24c-1.13 0-2.048 0.918-2.048 2.048v2.56h2.304v-2.304zM26.751 7.806h-22.528c-0.566 0-1.024 0.458-1.024 1.024v1.024c0 0.141 0.115 0.256 0.256 0.256h1.933l0.79 16.736c0.051 1.091 0.954 1.952 2.045 1.952h14.528c1.094 0 1.994-0.858 2.045-1.952l0.79-16.736h1.933c0.141 0 0.256-0.115 0.256-0.256v-1.024c0-0.566-0.458-1.024-1.024-1.024zM22.505 26.494h-14.035l-0.774-16.384h15.584l-0.774 16.384z"></path>
</svg>
