<svg width="24" height="25" viewBox="0 0 24 25" fill="none" xmlns="http://www.w3.org/2000/svg">
<path d="M6.951 20.278C6.1705 20.278 5.50783 20.0051 4.963 19.4593C4.418 18.9133 4.1455 18.2504 4.1455 17.4705H3.261C2.76383 17.4705 2.33825 17.2935 1.98425 16.9395C1.63025 16.5855 1.45325 16.16 1.45325 15.6628V12.4705C1.45325 11.9734 1.63025 11.5478 1.98425 11.1938C2.33825 10.8398 2.76383 10.6628 3.261 10.6628H12.4532V6.97053C12.4532 6.47337 12.6302 6.04778 12.9842 5.69378C13.3382 5.33978 13.7638 5.16278 14.261 5.16278H16.2032V4.41278C16.2032 4.15678 16.2898 3.94212 16.463 3.76878C16.6363 3.59562 16.851 3.50903 17.107 3.50903H17.7995C18.0555 3.50903 18.2702 3.59562 18.4435 3.76878C18.6167 3.94212 18.7032 4.15678 18.7032 4.41278V5.16278H19.282C19.6737 5.16278 20.0277 5.27553 20.344 5.50103C20.6603 5.72653 20.8787 6.02728 20.9992 6.40328L22.3657 10.4523C22.3971 10.5465 22.4195 10.6414 22.433 10.7373C22.4465 10.8331 22.4532 10.9326 22.4532 11.0358V15.6628C22.4532 16.16 22.2762 16.5855 21.9222 16.9395C21.5682 17.2935 21.1427 17.4705 20.6455 17.4705H19.761C19.761 18.2525 19.4877 18.916 18.9412 19.4608C18.3949 20.0056 17.7315 20.278 16.951 20.278C16.1705 20.278 15.5078 20.0051 14.963 19.4593C14.418 18.9133 14.1455 18.2504 14.1455 17.4705H9.761C9.761 18.2525 9.48775 18.916 8.94125 19.4608C8.39491 20.0056 7.7315 20.278 6.951 20.278ZM6.95325 18.7783C7.31991 18.7783 7.6295 18.652 7.882 18.3993C8.13466 18.1468 8.261 17.8388 8.261 17.4753C8.261 17.1118 8.13466 16.8021 7.882 16.5463C7.6295 16.2906 7.31991 16.1628 6.95325 16.1628C6.58658 16.1628 6.277 16.2906 6.0245 16.5463C5.77183 16.8021 5.6455 17.1118 5.6455 17.4753C5.6455 17.8388 5.77183 18.1468 6.0245 18.3993C6.277 18.652 6.58658 18.7783 6.95325 18.7783ZM16.9532 18.7783C17.3199 18.7783 17.6295 18.652 17.882 18.3993C18.1347 18.1468 18.261 17.8388 18.261 17.4753C18.261 17.1118 18.1347 16.8021 17.882 16.5463C17.6295 16.2906 17.3199 16.1628 16.9532 16.1628C16.5866 16.1628 16.277 16.2906 16.0245 16.5463C15.7718 16.8021 15.6455 17.1118 15.6455 17.4753C15.6455 17.8388 15.7718 18.1468 16.0245 18.3993C16.277 18.652 16.5866 18.7783 16.9532 18.7783ZM2.95325 12.4705V15.6628C2.95325 15.7526 2.98208 15.8264 3.03975 15.884C3.09741 15.9417 3.17116 15.9705 3.261 15.9705H4.661C4.893 15.5705 5.21191 15.2525 5.61775 15.0165C6.02341 14.7807 6.46858 14.6628 6.95325 14.6628C7.43791 14.6628 7.88308 14.7807 8.28875 15.0165C8.69458 15.2525 9.0135 15.5705 9.2455 15.9705H12.4532V12.1628H3.261C3.17116 12.1628 3.09741 12.1916 3.03975 12.2493C2.98208 12.307 2.95325 12.3807 2.95325 12.4705ZM13.9532 15.9705H14.661C14.893 15.5705 15.2119 15.2525 15.6177 15.0165C16.0234 14.7807 16.4686 14.6628 16.9532 14.6628C17.4379 14.6628 17.8831 14.7807 18.2887 15.0165C18.6946 15.2525 19.0135 15.5705 19.2455 15.9705H20.6455C20.7353 15.9705 20.8091 15.9417 20.8667 15.884C20.9244 15.8264 20.9532 15.7526 20.9532 15.6628V12.1628H13.9532V15.9705ZM13.9532 10.6628H20.8532L19.5802 6.87428C19.5609 6.81028 19.524 6.75903 19.4695 6.72053C19.415 6.68203 19.3525 6.66278 19.282 6.66278H14.261C14.1712 6.66278 14.0974 6.69162 14.0397 6.74928C13.9821 6.80695 13.9532 6.8807 13.9532 6.97053V10.6628Z" fill="#1C1B1F"/>
<path fill-rule="evenodd" clip-rule="evenodd" d="M2.45325 6.35503V8.47053H2.0495C1.87716 8.47053 1.73475 8.52695 1.62225 8.63978C1.50958 8.75261 1.45325 8.89503 1.45325 9.06703C1.45325 9.2392 1.50958 9.38153 1.62225 9.49403C1.73475 9.60653 1.87716 9.66278 2.0495 9.66278H10.5495C10.7217 9.66278 10.8641 9.60636 10.9767 9.49353C11.0892 9.3807 11.1455 9.23828 11.1455 9.06628C11.1455 8.89411 11.0892 8.75178 10.9767 8.63928C10.8641 8.52678 10.7217 8.47053 10.5495 8.47053H10.1455V6.35503H10.5495C10.7217 6.35503 10.8641 6.29861 10.9767 6.18578C11.0892 6.07295 11.1455 5.93053 11.1455 5.75853C11.1455 5.58636 11.0892 5.44403 10.9767 5.33153C10.8641 5.21903 10.7217 5.16278 10.5495 5.16278H2.0495C1.87716 5.16278 1.73475 5.2192 1.62225 5.33203C1.50958 5.44486 1.45325 5.58736 1.45325 5.75953C1.45325 5.93153 1.50958 6.07378 1.62225 6.18628C1.73475 6.29878 1.87716 6.35503 2.0495 6.35503H2.45325ZM6.8955 8.47053H8.95325V6.35503H6.8955V8.47053ZM5.70325 8.47053H3.6455V6.35503H5.70325V8.47053Z" fill="#1C1B1F"/>
</svg>
