<?xml version="1.0" encoding="utf-8"?>
<!-- Generator: Adobe Illustrator 28.1.0, SVG Export Plug-In . SVG Version: 6.00 Build 0)  -->
<svg version="1.1" id="Layer_1" xmlns="http://www.w3.org/2000/svg" xmlns:xlink="http://www.w3.org/1999/xlink" x="0px" y="0px"
	 viewBox="0 0 20 20" style="enable-background:new 0 0 20 20;" xml:space="preserve">
<style type="text/css">
	.st0{fill-rule:evenodd;clip-rule:evenodd;}
</style>
<path class="st0" d="M10,18c2.1,0,4.2-0.8,5.7-2.3c1.5-1.5,2.3-3.5,2.3-5.7c0-2.1-0.8-4.2-2.3-5.7C14.2,2.8,12.1,2,10,2
	C7.9,2,5.8,2.8,4.3,4.3S2,7.9,2,10c0,2.1,0.8,4.2,2.3,5.7C5.8,17.2,7.9,18,10,18L10,18z M13.7,9.3l-3-3C10.5,6.1,10.3,6,10,6
	C9.7,6,9.5,6.1,9.3,6.3C9.1,6.5,9,6.7,9,7c0,0.3,0.1,0.5,0.3,0.7L10.6,9H7C6.7,9,6.5,9.1,6.3,9.3C6.1,9.5,6,9.7,6,10
	s0.1,0.5,0.3,0.7C6.5,10.9,6.7,11,7,11h3.6l-1.3,1.3c-0.1,0.1-0.2,0.2-0.2,0.3S9,12.9,9,13c0,0.1,0,0.3,0.1,0.4
	c0.1,0.1,0.1,0.2,0.2,0.3c0.1,0.1,0.2,0.2,0.3,0.2C9.7,14,9.9,14,10,14c0.1,0,0.3,0,0.4-0.1c0.1-0.1,0.2-0.1,0.3-0.2l3-3
	c0.2-0.2,0.3-0.4,0.3-0.7S13.9,9.5,13.7,9.3L13.7,9.3z"/>
</svg>
