<!-- Generated by IcoMoon.io -->
<svg version="1.1" xmlns="http://www.w3.org/2000/svg" width="32" height="32" viewBox="0 0 32 32">
<title>direction</title>
<path d="M12 13.333c-0.4 0-0.667 0.133-0.933 0.4s-0.4 0.533-0.4 0.933v5.333h2.667v-4h4v3.333l4.667-4.667-4.667-4.667v3.333h-5.333zM16.933 1.867l13.2 13.2c0.267 0.267 0.4 0.533 0.4 0.933s-0.133 0.667-0.4 0.933l-13.2 13.2c-0.267 0.267-0.533 0.4-0.933 0.4s-0.667-0.133-0.933-0.4l-13.2-13.2c-0.267-0.267-0.4-0.533-0.4-0.933s0.133-0.667 0.4-0.933l13.2-13.2c0.267-0.267 0.533-0.4 0.933-0.4s0.667 0.133 0.933 0.4v0z"></path>
</svg>
