<!-- Generated by IcoMoon.io -->
<svg version="1.1" xmlns="http://www.w3.org/2000/svg" width="32" height="32" viewBox="0 0 32 32">
<title>disconnect</title>
<path d="M26.687 5.315c-2.82-2.82-7.383-2.82-10.2 0l-3.23 3.23 1.7 1.7 3.23-3.23c1.793-1.793 4.82-1.983 6.8 0 1.983 1.983 1.793 5.006 0 6.8l-3.23 3.23 1.703 1.703 3.23-3.23c2.813-2.82 2.813-7.383-0.003-10.203v0zM13.818 24.987c-1.793 1.793-4.82 1.983-6.8 0-1.983-1.983-1.793-5.006 0-6.8l3.23-3.23-1.703-1.703-3.23 3.23c-2.82 2.82-2.82 7.383 0 10.2s7.383 2.82 10.2 0l3.23-3.23-1.7-1.7-3.226 3.233zM7.611 5.915c-0.050-0.050-0.118-0.077-0.188-0.077s-0.138 0.028-0.188 0.077l-1.32 1.32c-0.050 0.050-0.077 0.118-0.077 0.188s0.028 0.138 0.077 0.188l18.479 18.479c0.103 0.103 0.273 0.103 0.377 0l1.32-1.32c0.103-0.103 0.103-0.273 0-0.377l-18.479-18.479z"></path>
</svg>
