<svg width="24" height="24" viewBox="0 0 24 24" fill="none" xmlns="http://www.w3.org/2000/svg">
<path d="M11.9415 15.9656C12.9742 15.9656 13.8539 15.6063 14.5808 14.8876C15.3078 14.1691 15.6713 13.2957 15.6713 12.2674C15.6713 11.7689 15.5778 11.2976 15.3908 10.8536C15.2039 10.4095 14.9314 10.0161 14.5733 9.6734L12.554 7.6944C12.3732 7.5304 12.1623 7.4484 11.9213 7.4484C11.6803 7.4484 11.4693 7.5304 11.2885 7.6944L9.26927 9.6734C8.9111 10.0161 8.6386 10.4095 8.45176 10.8536C8.26476 11.2976 8.17126 11.7689 8.17126 12.2674C8.17126 13.2957 8.54143 14.1691 9.28176 14.8876C10.0223 15.6063 10.9088 15.9656 11.9415 15.9656ZM9.67126 12.2156C9.67126 11.9336 9.72926 11.6666 9.84526 11.4146C9.96126 11.1628 10.1218 10.9346 10.327 10.7301L11.9213 9.1694L13.5155 10.7301C13.7207 10.9346 13.8813 11.1628 13.9973 11.4146C14.1133 11.6666 14.1713 11.9336 14.1713 12.2156H9.67126ZM6.22901 19.2156C5.73185 19.2156 5.30626 19.0386 4.95226 18.6846C4.59826 18.3306 4.42126 17.9051 4.42126 17.4079V8.8694C4.42126 8.58323 4.48526 8.31215 4.61326 8.05615C4.74143 7.79998 4.91843 7.58906 5.14426 7.4234L10.8368 3.14465C11.1526 2.90348 11.5136 2.7829 11.9198 2.7829C12.3259 2.7829 12.6879 2.90348 13.0058 3.14465L18.6983 7.4234C18.9241 7.58906 19.1011 7.79998 19.2293 8.05615C19.3573 8.31215 19.4213 8.58323 19.4213 8.8694V17.4079C19.4213 17.9051 19.2443 18.3306 18.8903 18.6846C18.5363 19.0386 18.1107 19.2156 17.6135 19.2156H6.22901ZM6.22901 17.7156H17.6135C17.7033 17.7156 17.7771 17.6868 17.8348 17.6291C17.8924 17.5715 17.9213 17.4977 17.9213 17.4079V8.8694C17.9213 8.81823 17.91 8.77181 17.8875 8.73015C17.8652 8.68848 17.8348 8.65157 17.7963 8.6194L12.104 4.3504C12.0527 4.3054 11.9918 4.2829 11.9213 4.2829C11.8508 4.2829 11.7898 4.3054 11.7385 4.3504L6.04626 8.6194C6.00776 8.65157 5.97735 8.68848 5.95501 8.73015C5.93251 8.77181 5.92126 8.81823 5.92126 8.8694V17.4079C5.92126 17.4977 5.9501 17.5715 6.00776 17.6291C6.06543 17.6868 6.13918 17.7156 6.22901 17.7156Z" fill="#1C1B1F"/>
</svg>
