<svg width="24" height="24" viewBox="0 0 24 24" fill="none" xmlns="http://www.w3.org/2000/svg">
<path d="M13.6 10.92H12.5V6.60001H14.7C14.9917 6.60001 15.2715 6.7138 15.4778 6.91634C15.6841 7.11888 15.8 7.39358 15.8 7.68001C15.8 7.96645 15.9159 8.24115 16.1222 8.44369C16.3285 8.64623 16.6082 8.76001 16.9 8.76001C17.1917 8.76001 17.4715 8.64623 17.6778 8.44369C17.8841 8.24115 18 7.96645 18 7.68001C18 6.82071 17.6523 5.9966 17.0334 5.38899C16.4146 4.78137 15.5752 4.44001 14.7 4.44001H12.5V2.28001C12.5 1.99358 12.3841 1.71888 12.1778 1.51634C11.9715 1.3138 11.6917 1.20001 11.4 1.20001C11.1082 1.20001 10.8285 1.3138 10.6222 1.51634C10.4159 1.71888 10.3 1.99358 10.3 2.28001V4.44001H9.19999C8.03304 4.44001 6.91388 4.89515 6.08872 5.70531C5.26356 6.51547 4.79999 7.61428 4.79999 8.76001C4.79999 9.90575 5.26356 11.0046 6.08872 11.8147C6.91388 12.6249 8.03304 13.08 9.19999 13.08H10.3V17.4H8.09999C7.80825 17.4 7.52846 17.2862 7.32217 17.0837C7.11588 16.8811 6.99999 16.6064 6.99999 16.32C6.99999 16.0336 6.8841 15.7589 6.67781 15.5563C6.47151 15.3538 6.19173 15.24 5.89999 15.24C5.60825 15.24 5.32846 15.3538 5.12217 15.5563C4.91588 15.7589 4.79999 16.0336 4.79999 16.32C4.79999 17.1793 5.14767 18.0034 5.76654 18.611C6.38541 19.2187 7.22477 19.56 8.09999 19.56H10.3V21.72C10.3 22.0064 10.4159 22.2811 10.6222 22.4837C10.8285 22.6862 11.1082 22.8 11.4 22.8C11.6917 22.8 11.9715 22.6862 12.1778 22.4837C12.3841 22.2811 12.5 22.0064 12.5 21.72V19.56H13.6C14.7669 19.56 15.8861 19.1049 16.7113 18.2947C17.5364 17.4846 18 16.3857 18 15.24C18 14.0943 17.5364 12.9955 16.7113 12.1853C15.8861 11.3752 14.7669 10.92 13.6 10.92ZM10.3 10.92H9.19999C8.61651 10.92 8.05693 10.6924 7.64435 10.2874C7.23177 9.88228 6.99999 9.33288 6.99999 8.76001C6.99999 8.18714 7.23177 7.63774 7.64435 7.23266C8.05693 6.82758 8.61651 6.60001 9.19999 6.60001H10.3V10.92ZM13.6 17.4H12.5V13.08H13.6C14.1835 13.08 14.743 13.3076 15.1556 13.7127C15.5682 14.1177 15.8 14.6671 15.8 15.24C15.8 15.8129 15.5682 16.3623 15.1556 16.7674C14.743 17.1724 14.1835 17.4 13.6 17.4Z" fill="black"/>
</svg>
