<!-- Generated by IcoMoon.io -->
<svg version="1.1" xmlns="http://www.w3.org/2000/svg" width="32" height="32" viewBox="0 0 32 32">
<title>dollar-circle</title>
<path d="M16 3.2c-7.069 0-12.8 5.731-12.8 12.8s5.731 12.8 12.8 12.8c7.069 0 12.8-5.731 12.8-12.8s-5.731-12.8-12.8-12.8zM16 26.629c-5.869 0-10.629-4.76-10.629-10.629s4.76-10.629 10.629-10.629c5.869 0 10.629 4.76 10.629 10.629s-4.76 10.629-10.629 10.629zM17.363 15.337l-0.726-0.169v-3.837c1.086 0.149 1.757 0.829 1.872 1.663 0.014 0.114 0.111 0.197 0.226 0.197h1.283c0.134 0 0.24-0.117 0.229-0.251-0.174-1.78-1.64-2.923-3.597-3.12v-0.934c0-0.126-0.103-0.229-0.229-0.229h-0.803c-0.126 0-0.229 0.103-0.229 0.229v0.943c-2.023 0.197-3.606 1.314-3.606 3.4 0 1.931 1.423 2.863 2.917 3.22l0.706 0.18v4.077c-1.263-0.169-1.971-0.843-2.117-1.752-0.017-0.108-0.114-0.188-0.226-0.188h-1.32c-0.134 0-0.24 0.114-0.229 0.248 0.129 1.572 1.32 3.017 3.863 3.203v0.897c0 0.126 0.103 0.229 0.229 0.229h0.811c0.126 0 0.229-0.103 0.229-0.232l-0.006-0.906c2.237-0.197 3.837-1.394 3.837-3.543-0.003-1.983-1.263-2.869-3.114-3.326v0zM15.403 14.874c-0.16-0.046-0.294-0.089-0.429-0.143-0.966-0.349-1.414-0.911-1.414-1.637 0-1.037 0.786-1.629 1.843-1.763v3.543zM16.637 20.714v-3.82c0.089 0.026 0.169 0.046 0.252 0.063 1.351 0.412 1.806 0.983 1.806 1.86 0 1.117-0.84 1.789-2.057 1.897z"></path>
</svg>
