<!-- Generated by IcoMoon.io -->
<svg version="1.1" xmlns="http://www.w3.org/2000/svg" width="32" height="32" viewBox="0 0 32 32">
<title>double-right</title>
<path d="M16.044 15.284l-9.284-11.862c-0.109-0.142-0.28-0.222-0.458-0.222h-2.811c-0.244 0-0.378 0.28-0.229 0.469l9.651 12.331-9.651 12.331c-0.034 0.043-0.054 0.094-0.060 0.148s0.004 0.109 0.028 0.158 0.061 0.090 0.107 0.119c0.046 0.029 0.1 0.044 0.154 0.044h2.811c0.178 0 0.349-0.084 0.458-0.222l9.284-11.858c0.331-0.425 0.331-1.015 0-1.436v0zM27.099 15.284l-9.284-11.862c-0.109-0.142-0.28-0.222-0.458-0.222h-2.811c-0.244 0-0.378 0.28-0.229 0.469l9.651 12.331-9.651 12.331c-0.034 0.043-0.054 0.094-0.060 0.148s0.004 0.109 0.028 0.158 0.061 0.090 0.107 0.119c0.046 0.029 0.1 0.044 0.154 0.044h2.811c0.178 0 0.349-0.084 0.458-0.222l9.284-11.858c0.331-0.425 0.331-1.015 0-1.436v0z"></path>
</svg>
