<!-- Generated by IcoMoon.io -->
<svg version="1.1" xmlns="http://www.w3.org/2000/svg" width="32" height="32" viewBox="0 0 32 32">
<path d="M16.075 19.325l9.8-9.8c0.333-0.333 0.722-0.494 1.167-0.483s0.833 0.183 1.167 0.517 0.5 0.722 0.5 1.167c0 0.444-0.167 0.833-0.5 1.167l-10.233 10.267c-0.267 0.267-0.567 0.467-0.9 0.6s-0.667 0.2-1 0.2c-0.333 0-0.667-0.067-1-0.2s-0.633-0.333-0.9-0.6l-10.267-10.267c-0.333-0.333-0.494-0.728-0.483-1.183s0.183-0.85 0.517-1.183c0.333-0.333 0.722-0.5 1.167-0.5s0.833 0.167 1.167 0.5l9.8 9.8z"></path>
</svg>
