<!-- Generated by IcoMoon.io -->
<svg version="1.1" xmlns="http://www.w3.org/2000/svg" width="32" height="32" viewBox="0 0 32 32">
<title>down-circle</title>
<path d="M21.086 12.942h-1.34c-0.291 0-0.568 0.14-0.74 0.377l-3.006 4.154-3.006-4.154c-0.171-0.237-0.446-0.377-0.74-0.377h-1.34c-0.186 0-0.294 0.211-0.186 0.363l5.086 7.029c0.091 0.126 0.277 0.126 0.369 0l5.086-7.029c0.112-0.151 0.003-0.363-0.183-0.363z"></path>
<path d="M16 3.2c-7.069 0-12.8 5.731-12.8 12.8s5.731 12.8 12.8 12.8c7.069 0 12.8-5.731 12.8-12.8s-5.731-12.8-12.8-12.8zM16 26.629c-5.869 0-10.629-4.76-10.629-10.629s4.76-10.629 10.629-10.629c5.869 0 10.629 4.76 10.629 10.629s-4.76 10.629-10.629 10.629z"></path>
</svg>
