<!-- Generated by IcoMoon.io -->
<svg version="1.1" xmlns="http://www.w3.org/2000/svg" width="32" height="32" viewBox="0 0 32 32">
<path d="M5.399 16c0-5.872 4.771-10.642 10.642-10.642s10.642 4.771 10.642 10.642v1.998c0 0.693-0.204 1.182-0.53 1.468-0.285 0.285-0.775 0.53-1.468 0.53-1.223 0-1.998-0.856-1.998-1.998v-1.998c0 1.794-0.734 3.425-1.876 4.648 0.815 1.223 2.161 1.998 3.874 1.998 1.305 0 2.487-0.449 3.344-1.305s1.305-2.039 1.305-3.343v-1.998c0-7.339-5.953-13.333-13.333-13.333s-13.333 5.953-13.333 13.333c0 7.38 5.953 13.333 13.333 13.333 2.202 0 4.281-0.53 6.116-1.468 0.652-0.326 0.897-1.142 0.571-1.794s-1.142-0.897-1.794-0.571c-1.468 0.775-3.14 1.182-4.893 1.182-5.872 0-10.642-4.771-10.642-10.642z"></path>
<path d="M15.959 11.992c-2.209 0-4.008 1.8-4.008 4.008s1.8 4.008 4.008 4.008c2.209 0 4.008-1.8 4.008-4.008 0-0.736 0.613-1.35 1.35-1.35s1.35 0.614 1.35 1.35c0 3.681-2.986 6.667-6.667 6.667s-6.667-2.986-6.667-6.667c0-3.681 2.986-6.667 6.667-6.667 1.227 0 2.372 0.327 3.354 0.9 0.654 0.368 0.859 1.186 0.491 1.84s-1.186 0.859-1.841 0.491c-0.573-0.327-1.268-0.532-2.004-0.532z"></path>
</svg>
