<!-- Generated by IcoMoon.io -->
<svg version="1.1" xmlns="http://www.w3.org/2000/svg" width="32" height="32" viewBox="0 0 32 32">
<title>enter</title>
<path d="M28.516 3.2h-2.133c-0.156 0-0.284 0.128-0.284 0.284v18.419h-17.281v-2.596c0-0.238-0.277-0.373-0.462-0.224l-5.046 3.982c-0.034 0.027-0.062 0.061-0.080 0.099s-0.029 0.081-0.029 0.125 0.010 0.086 0.029 0.125c0.019 0.039 0.046 0.073 0.080 0.099l5.046 3.982c0.188 0.149 0.462 0.014 0.462-0.224v-2.667h17.707c1.255 0 2.276-1.020 2.276-2.276v-18.845c0-0.156-0.128-0.284-0.284-0.284z"></path>
</svg>
