<!-- Generated by IcoMoon.io -->
<svg version="1.1" xmlns="http://www.w3.org/2000/svg" width="32" height="32" viewBox="0 0 32 32">
<title>exclamation-circle</title>
<path d="M16 3.2c-7.069 0-12.8 5.731-12.8 12.8s5.731 12.8 12.8 12.8c7.069 0 12.8-5.731 12.8-12.8s-5.731-12.8-12.8-12.8zM16 26.629c-5.869 0-10.629-4.76-10.629-10.629s4.76-10.629 10.629-10.629c5.869 0 10.629 4.76 10.629 10.629s-4.76 10.629-10.629 10.629z"></path>
<path d="M14.628 21.029c0 0.364 0.144 0.712 0.402 0.97s0.606 0.402 0.97 0.402c0.364 0 0.713-0.144 0.97-0.402s0.402-0.606 0.402-0.97c0-0.364-0.144-0.713-0.402-0.97s-0.606-0.402-0.97-0.402c-0.364 0-0.713 0.144-0.97 0.402s-0.402 0.606-0.402 0.97zM15.314 17.829h1.371c0.126 0 0.229-0.103 0.229-0.229v-7.771c0-0.126-0.103-0.229-0.229-0.229h-1.371c-0.126 0-0.229 0.103-0.229 0.229v7.771c0 0.126 0.103 0.229 0.229 0.229z"></path>
</svg>
