<!-- Generated by IcoMoon.io -->
<svg version="1.1" xmlns="http://www.w3.org/2000/svg" width="32" height="32" viewBox="0 0 32 32">
<path d="M8.533 25.333h2.133c0.378 0 0.694 0.128 0.95 0.383s0.383 0.572 0.383 0.95c0 0.378-0.128 0.694-0.383 0.95s-0.572 0.383-0.95 0.383h-5.333c-0.378 0-0.694-0.128-0.95-0.383s-0.383-0.572-0.383-0.95v-5.333c0-0.378 0.128-0.694 0.383-0.95s0.572-0.383 0.95-0.383c0.378 0 0.694 0.128 0.95 0.383s0.383 0.572 0.383 0.95v2.133l3.2-3.2c0.244-0.244 0.556-0.367 0.933-0.367s0.689 0.122 0.933 0.367c0.244 0.244 0.367 0.556 0.367 0.933s-0.122 0.689-0.367 0.933l-3.2 3.2zM25.333 8.533l-3.2 3.2c-0.244 0.244-0.556 0.367-0.933 0.367s-0.689-0.122-0.933-0.367c-0.244-0.244-0.367-0.556-0.367-0.933s0.122-0.689 0.367-0.933l3.2-3.2h-2.133c-0.378 0-0.694-0.128-0.95-0.383s-0.383-0.572-0.383-0.95c0-0.378 0.128-0.694 0.383-0.95s0.572-0.383 0.95-0.383h5.333c0.378 0 0.694 0.128 0.95 0.383s0.383 0.572 0.383 0.95v5.333c0 0.378-0.128 0.694-0.383 0.95s-0.572 0.383-0.95 0.383c-0.378 0-0.694-0.128-0.95-0.383s-0.383-0.572-0.383-0.95v-2.133z"></path>
</svg>
