<!-- Generated by IcoMoon.io -->
<svg version="1.1" xmlns="http://www.w3.org/2000/svg" width="32" height="32" viewBox="0 0 32 32">
<title>eye-on</title>
<path d="M16 27.067c-9.067 0-14.133-9.6-14.533-10.4 0 0 0-0.133 0-0.133-0.133-0.133-0.133-0.267-0.133-0.533s0-0.533 0.267-0.8c4-6.933 8.8-10.267 14.4-10.267 9.067 0 14.133 9.733 14.533 10.4 0 0 0 0 0 0.133 0.133 0.133 0.133 0.4 0.133 0.533 0 0.267 0 0.533-0.133 0.8-3.2 6.8-8.133 10.267-14.533 10.267zM4.8 16c1.2 2.133 5.333 7.867 11.2 7.867 4.933 0 8.667-2.533 11.333-7.867-1.2-2-5.2-8-11.333-8-4.267 0.133-7.867 2.667-11.2 8z"></path>
<path d="M16 21.2c-2.933 0-5.2-2.4-5.2-5.2 0-2.933 2.4-5.2 5.2-5.2 2.933 0 5.2 2.4 5.2 5.2 0 2.933-2.267 5.2-5.2 5.2zM16 13.867c-1.2 0-2.133 0.933-2.133 2.133s0.933 2.133 2.133 2.133c1.2 0 2.133-0.933 2.133-2.133s-0.933-2.133-2.133-2.133z"></path>
</svg>
