<!-- Generated by IcoMoon.io -->
<svg version="1.1" xmlns="http://www.w3.org/2000/svg" width="32" height="32" viewBox="0 0 32 32">
<title>eye-off</title>
<path d="M16 27.2c-9.2 0-14.267-10.133-14.533-10.533s-0.267-0.933 0-1.467c1.733-2.933 3.867-5.6 6.533-7.6 0.667-0.533 1.6-0.4 2.133 0.133l4.533 4.533c0 0 0 0 0 0l9.6 9.733c0.267 0.267 0.533 0.8 0.4 1.2 0 0.4-0.267 0.933-0.667 1.2-2.267 1.733-5.067 2.8-8 2.8zM4.8 16c1.2 2.133 5.2 8 11.2 8 1.6 0 3.067-0.4 4.533-1.2l-2.133-2.267c-0.133 0-0.267 0.133-0.4 0.133-0.667 0.533-1.333 0.667-2 0.667s-1.333-0.133-2-0.4c-0.667-0.267-1.2-0.667-1.733-1.2s-0.933-1.067-1.067-1.733c-0.267-0.667-0.4-1.333-0.4-2s0.133-1.333 0.4-2c0-0.133 0.133-0.267 0.133-0.4l-2.533-2.667c-1.6 1.467-2.933 3.2-4 5.067zM14 16.133c0 0.267 0 0.4 0.133 0.667s0.267 0.533 0.4 0.667c0.133 0.133 0.4 0.4 0.667 0.4 0.267 0.133 0.4 0.133 0.667 0.133l-1.867-1.867zM26.533 21.467c-0.4 0-0.667-0.133-1.067-0.4-0.667-0.533-0.8-1.6-0.267-2.267 0.667-0.933 1.333-1.867 2-2.8-1.2-2.133-5.2-8-11.2-8-0.667 0-1.467 0.133-2.133 0.267-0.8 0.133-1.733-0.4-1.867-1.2-0.267-0.933 0.267-1.733 1.2-2s1.867-0.4 2.8-0.267c9.2 0 14.267 10.133 14.4 10.533 0.267 0.4 0.267 0.933 0 1.467-0.8 1.467-1.733 2.8-2.8 4.133-0.267 0.267-0.667 0.533-1.067 0.533z"></path>
<path d="M29.067 30.933c-0.4 0-0.8-0.133-1.2-0.533l-26-26.533c-0.667-0.667-0.667-1.6 0-2.267s1.6-0.667 2.267 0l26.133 26.533c0.667 0.667 0.667 1.6 0 2.267-0.4 0.267-0.8 0.533-1.2 0.533z"></path>
</svg>
