<!-- Generated by IcoMoon.io -->
<svg version="1.1" xmlns="http://www.w3.org/2000/svg" width="32" height="32" viewBox="0 0 32 32">
<title>eye</title>
<path d="M28.63 15.214c-2.783-5.863-6.99-8.814-12.63-8.814-5.643 0-9.847 2.951-12.63 8.817-0.112 0.236-0.17 0.495-0.17 0.756s0.058 0.52 0.17 0.756c2.783 5.863 6.99 8.814 12.63 8.814 5.643 0 9.847-2.951 12.63-8.817 0.226-0.476 0.226-1.028 0-1.512v0zM16 23.428c-4.736 0-8.203-2.402-10.649-7.457 2.446-5.056 5.913-7.457 10.649-7.457s8.203 2.402 10.649 7.457c-2.443 5.056-5.91 7.457-10.649 7.457zM15.883 10.804c-2.854 0-5.167 2.314-5.167 5.167s2.314 5.167 5.167 5.167c2.854 0 5.167-2.313 5.167-5.167s-2.313-5.167-5.167-5.167zM15.883 19.26c-1.817 0-3.288-1.471-3.288-3.288s1.471-3.288 3.288-3.288c1.817 0 3.288 1.471 3.288 3.288s-1.471 3.288-3.288 3.288z"></path>
</svg>
