<!-- Generated by IcoMoon.io -->
<svg version="1.1" xmlns="http://www.w3.org/2000/svg" width="32" height="32" viewBox="0 0 32 32">
<path d="M28.774 26.344c-0.037 1.070-0.919 2.103-2.026 2.374-0.198 0.048-0.398 0.078-0.603 0.078-1.377 0.001-2.753 0.003-4.131 0-0.361 0-0.635-0.237-0.687-0.577-0.049-0.321 0.147-0.642 0.459-0.743 0.103-0.034 0.209-0.038 0.318-0.038 1.303 0.001 2.608 0.001 3.911 0 0.857 0 1.42-0.564 1.425-1.419 0.001-0.309 0.007-0.62 0.010-0.93 0.025-0.011 0.023-0.023 0-0.034-0.014-0.034-0.014-0.066 0-0.1 0.013 0 0.027 0 0.039 0 0.058-0.001 0.089 0.042 0.127 0.075 0.041 0.034 0.072 0.011 0.102-0.018 0.034-0.034 0.041-0.065-0.006-0.096-0.023-0.016-0.047-0.034-0.037-0.069 0.038-0.035 0.072 0.006 0.109 0.007 0.075 0.003 0.153-0.014 0.158-0.090 0.007-0.072-0.082-0.027-0.12-0.052-0.052-0.035-0.167 0.001-0.159-0.091 0.018-0.206-0.1-0.161-0.216-0.138-0.001-1.020-0.010-2.041-0.003-3.061 0.003-0.341 0.28-0.611 0.609-0.636 0.359-0.028 0.647 0.189 0.723 0.544-0.051 0.052-0.030 0.117-0.030 0.177-0.001 1.555-0.001 3.111 0 4.665-0.001 0.058-0.021 0.123 0.030 0.174zM24.537 28.078c0.063 0.035 0.131 0.023 0.147-0.048 0.020-0.088-0.073-0.075-0.123-0.099-0.13-0.065-0.261-0.129-0.39-0.194-0.048-0.024-0.090-0.041-0.136 0.008-0.038 0.042-0.054 0.089-0.030 0.14 0.073 0.155 0.151 0.309 0.229 0.463 0.018 0.035 0.044 0.072 0.092 0.044 0.039-0.023 0.041-0.059 0.028-0.103-0.038-0.127 0.042-0.22 0.182-0.212zM24.714 27.497c-0.203 0-0.241 0.025-0.243 0.163-0.003 0.13 0.121 0.243 0.267 0.243 0.113 0.001 0.295-0.141 0.298-0.232 0.004-0.088-0.157-0.174-0.322-0.174z"></path>
<path d="M4.545 24.516c0.004 0.524 0.006 1.050 0.013 1.574 0.008 0.66 0.436 1.186 1.070 1.327 0.117 0.025 0.236 0.025 0.354 0.025 1.316 0 2.63 0 3.946 0 0.405 0 0.696 0.237 0.741 0.598 0.051 0.404-0.256 0.753-0.676 0.759-0.435 0.007-0.87 0.001-1.305 0.001-0.926 0-1.851 0-2.777-0.001-1.502-0.001-2.701-1.189-2.714-2.694-0.001-0.17 0.008-0.338 0.013-0.507 0.065-0.044 0.061-0.088-0.001-0.131-0.016-0.024-0.016-0.048 0-0.072 0.072-0.033 0.044-0.097 0.044-0.148 0.001-1.171 0.001-2.345 0-3.516 0-0.058 0.023-0.127-0.044-0.17-0.042-0.407 0.216-0.742 0.597-0.776 0.388-0.035 0.737 0.235 0.741 0.618 0.011 1.026 0 2.052-0.003 3.078-0.023 0.011-0.025 0.023 0 0.035zM6.269 28.429c-0.018 0.146 0.085 0.219 0.22 0.245 0.145 0.028 0.212-0.102 0.296-0.185 0.045-0.045 0.023-0.093-0.017-0.133-0.123-0.123-0.246-0.246-0.369-0.369-0.024-0.024-0.049-0.048-0.088-0.027-0.032 0.020-0.055 0.062-0.038 0.085 0.092 0.126-0.008 0.243-0.006 0.384zM6.89 28.281c0.14 0.003 0.25-0.107 0.258-0.254 0.006-0.103-0.155-0.253-0.271-0.253-0.144 0-0.258 0.105-0.258 0.236 0 0.129 0.14 0.269 0.271 0.271zM6.842 27.501c-0.011 0.017-0.023 0.034-0.034 0.051 0.14 0.127 0.28 0.253 0.419 0.38 0.025 0.024 0.056 0.049 0.088 0.023 0.085-0.072 0.186-0.141 0.2-0.26 0.008-0.076 0.010-0.185-0.109-0.191-0.188-0.009-0.377-0.003-0.565-0.003zM3.721 25.226c-0.021-0.003-0.062 0.013-0.079-0.025-0.028-0.061 0.023-0.090 0.059-0.124 0.024-0.021 0.065-0.034 0.041-0.078-0.018-0.034-0.051-0.042-0.086-0.034-0.083 0.020-0.208 0.202-0.188 0.276 0.037 0.134 0.148 0.187 0.292 0.143 0.052-0.016 0.112-0.095 0.161-0.016 0.047 0.073-0.040 0.102-0.082 0.141-0.025 0.024-0.083 0.033-0.054 0.086 0.027 0.047 0.075 0.047 0.12 0.033 0.099-0.030 0.219-0.205 0.192-0.287-0.047-0.139-0.158-0.161-0.285-0.141-0.028 0.004-0.054 0.015-0.092 0.027zM4.36 25.139c-0.001-0.044-0.037-0.047-0.071-0.047-0.092 0-0.184-0.069-0.172-0.129 0.037-0.203-0.127-0.136-0.205-0.163-0.079-0.027-0.124 0.003-0.082 0.109 0.071 0.179 0.251 0.229 0.378 0.339 0.064 0.057 0.126-0.030 0.151-0.11z"></path>
<path d="M3.213 8.707c-0.018-0.205-0.018-0.408 0-0.613 0.056-0.023 0.044-0.072 0.044-0.114 0-0.584 0-1.169 0-1.752 0-0.049 0.010-0.103-0.044-0.136-0.143-1.304 0.857-2.607 2.184-2.845 0.072-0.013 0.144-0.030 0.217-0.031 0.851-0.025 1.703-0.016 2.556-0.007-0.006 0.069 0.069 0.129 0.030 0.202-0.017-0.001-0.030 0-0.040-0.003-0.178-0.045-0.335 0.028-0.361 0.168-0.030 0.158 0.102 0.317 0.281 0.335 0.126 0.013 0.25-0.131 0.236-0.3-0.008-0.109 0.052-0.089 0.112-0.093 0.216-0.020 0.28-0.099 0.25-0.309 0.452-0.003 0.902-0.013 1.354-0.004 0.346 0.007 0.62 0.284 0.642 0.623 0.024 0.352-0.212 0.654-0.562 0.715-0.078 0.014-0.157 0.016-0.236 0.016-1.299 0.001-2.596 0-3.895 0.001-0.857 0-1.423 0.565-1.423 1.42-0.001 1.261-0.003 2.52 0.001 3.78 0.001 0.3-0.109 0.53-0.377 0.667-0.4 0.205-0.885-0.040-0.966-0.482-0.020-0.106-0.025-0.212-0.003-0.319 0.069-0.205 0.076-0.41 0-0.615-0.021-0.078-0.014-0.155 0.001-0.235 0.044-0.023 0.052-0.047-0.001-0.069zM7.118 4.089c0.003 0.112 0.049 0.172 0.154 0.174 0.066 0.001 0.137 0.018 0.196-0.028 0.041-0.032 0.082-0.044 0.112 0.010 0.027 0.049 0.001 0.086-0.040 0.113-0.018 0.013-0.040 0.023-0.056 0.037-0.024 0.021-0.059 0.047-0.038 0.083 0.018 0.032 0.062 0.028 0.092 0.020 0.093-0.024 0.158-0.090 0.186-0.178 0.023-0.069 0.010-0.141-0.051-0.201-0.072-0.071-0.145-0.072-0.232-0.032-0.054 0.024-0.12 0.078-0.168 0.014-0.054-0.071 0.025-0.105 0.068-0.146 0.030-0.027 0.059-0.058 0.023-0.1-0.021-0.025-0.052-0.031-0.073-0.008-0.073 0.074-0.182 0.124-0.172 0.243zM7.539 3.665c-0.059 0-0.073 0.035-0.076 0.086-0.016 0.212 0.208 0.201 0.295 0.318 0.034 0.045 0.085 0.083 0.143 0.079 0.059-0.004 0.104-0.055 0.117-0.109 0.017-0.071-0.045-0.082-0.097-0.081-0.086 0.001-0.176-0.064-0.168-0.112 0.041-0.208-0.157-0.107-0.213-0.182z"></path>
<path d="M28.785 9.627c0.049 0.456-0.141 0.767-0.525 0.856-0.381 0.089-0.767-0.181-0.812-0.57-0.009-0.078-0.009-0.158-0.009-0.237 0-1.227-0.014-2.452 0.004-3.679 0.013-0.852-0.647-1.461-1.446-1.446-1.315 0.025-2.63 0.008-3.946 0.007-0.513-0.001-0.847-0.435-0.696-0.896 0.093-0.287 0.345-0.461 0.676-0.462 0.779-0.001 1.559-0.001 2.337 0 0.316 0 0.631 0.006 0.947 0.008 0 0.013 0 0.025 0 0.038 0.018 0.254 0.113 0.319 0.349 0.23 0.049-0.018 0.099-0.047 0.135 0.007 0.042 0.061-0.021 0.088-0.052 0.123-0.014 0.016-0.035 0.028-0.055 0.038-0.028 0.014-0.073 0.013-0.052 0.064 0.014 0.035 0.048 0.042 0.085 0.038 0.107-0.013 0.241-0.178 0.226-0.278-0.023-0.161-0.135-0.171-0.261-0.154-0.096 0.013-0.215 0.126-0.26-0.065-0.001-0.007-0.052-0.003-0.081-0.004 0-0.011 0-0.024 0-0.035 0.613-0.018 1.226-0.051 1.81 0.205 0.997 0.437 1.645 1.426 1.634 2.514-0.001 0.157 0.017 0.315-0.013 0.472-0.051 0.024-0.038 0.047 0.001 0.069 0.017 0.054 0.017 0.107 0 0.161-0.066 0.044-0.044 0.112-0.044 0.17-0.001 0.885-0.001 1.769 0 2.654 0.004 0.061-0.018 0.129 0.047 0.171zM25.048 4.198c0.148 0.062 0.274 0.034 0.378-0.090 0.031-0.038 0.086-0.072 0.025-0.124-0.047-0.040-0.079-0.011-0.11 0.031-0.034 0.045-0.079 0.076-0.138 0.068-0.015-0.058 0.030-0.075 0.051-0.105 0.042-0.058 0.155-0.103 0.065-0.191-0.083-0.081-0.182-0.089-0.285 0-0.147 0.127-0.071 0.25-0.018 0.379-0.14-0.062-0.278-0.126-0.415 0.014-0.035 0.037-0.071-0.011-0.099-0.037-0.031-0.027-0.062-0.055-0.102-0.016s-0.031 0.082 0.004 0.12c0.137 0.148 0.261 0.301 0.508 0.264 0.141-0.021 0.165-0.083 0.158-0.196-0.004-0.041-0.014-0.079-0.023-0.117zM28.354 6.805c0.151 0 0.336-0.196 0.265-0.291-0.111-0.147-0.244-0.277-0.369-0.414-0.031-0.035-0.066-0.038-0.103-0.004-0.035 0.032-0.069 0.074-0.020 0.113 0.090 0.071 0.038 0.129 0 0.199-0.072 0.143 0.076 0.397 0.226 0.397zM28.35 6.893c-0.167-0.081-0.332-0.161-0.497-0.24-0.059-0.028-0.116-0.072-0.183-0.007-0.066 0.064-0.034 0.122-0.003 0.182 0.064 0.126 0.124 0.253 0.191 0.377 0.021 0.038 0.023 0.119 0.095 0.090 0.057-0.021 0.042-0.081 0.034-0.133-0.025-0.148 0.058-0.233 0.209-0.199 0.073 0.016 0.117 0.003 0.155-0.071z"></path>
<path d="M11.758 22.827c-0.13-0.072-0.236-0.175-0.333-0.283-0.234-0.26-0.227-0.655 0.011-0.909 0.243-0.259 0.643-0.29 0.921-0.068 0.154 0.123 0.305 0.247 0.459 0.372-0.034 0-0.068 0-0.1 0.001-0.12 0.003-0.236 0.113-0.36 0.007-0.021-0.018-0.062 0.018-0.075 0.051-0.017 0.042 0.010 0.073 0.035 0.105 0.064 0.082 0.175 0.127 0.193 0.245-0.038-0.010-0.075-0.025-0.113-0.031-0.104-0.016-0.21-0.011-0.265 0.096-0.048 0.093-0.051 0.196 0.008 0.288 0.064 0.098 0.157 0.141 0.275 0.12 0.164-0.030 0.223-0.179 0.162-0.406 0.158 0.13 0.27 0.059 0.37-0.082 0.066-0.093 0.024-0.195 0.037-0.291 1.601 0.849 3.273 0.934 4.989 0.437 0.596-0.172 1.138-0.458 1.603-0.881 0.284-0.257 0.706-0.23 0.957 0.048 0.249 0.274 0.239 0.684-0.038 0.946-0.535 0.503-1.165 0.857-1.856 1.088-2.131 0.717-4.215 0.63-6.232-0.417-0.089-0.047-0.171-0.107-0.256-0.163 0.134-0.030 0.158-0.106 0.071-0.203-0.113-0.126-0.237-0.242-0.357-0.36-0.027-0.027-0.058-0.064-0.1-0.030-0.044 0.034-0.044 0.079-0.010 0.119 0.056 0.066 0.038 0.133 0.003 0.201z"></path>
<path d="M17.349 17.699c-0.006 0.024-0.011 0.048-0.017 0.072-0.145-0.071-0.292-0.136-0.435-0.212-0.062-0.034-0.105-0.027-0.148 0.020-0.034 0.035-0.082 0.065-0.049 0.127 0.088 0.163 0.174 0.325 0.261 0.486 0.017 0.031 0.047 0.052 0.083 0.030 0.025-0.015 0.031-0.039 0.027-0.072-0.028-0.226-0.013-0.243 0.226-0.249-0.158 0.763-0.963 1.428-1.774 1.456-0.294 0.010-0.587 0.009-0.881 0.001-0.383-0.007-0.678-0.314-0.671-0.687 0.006-0.369 0.298-0.661 0.672-0.669 0.232-0.004 0.463-0.001 0.695-0.001 0.395-0.001 0.647-0.223 0.691-0.618 0.010-0.089 0.007-0.181 0.007-0.271 0-1.712 0-3.425 0.001-5.137 0-0.305 0.161-0.546 0.426-0.652 0.257-0.103 0.555-0.037 0.747 0.167 0.113 0.12 0.181 0.261 0.181 0.427 0 1.712-0.001 3.423-0.004 5.136-0.061 0.018-0.096-0.097-0.161-0.035-0.031 0.030-0.059 0.082-0.025 0.12 0.071 0.081 0.033 0.148 0.001 0.229-0.054 0.144 0.011 0.281 0.147 0.331z"></path>
<path d="M9.317 12.982c0-0.334-0.001-0.666 0-0.999 0.003-0.414 0.288-0.708 0.679-0.707 0.39 0.001 0.675 0.298 0.676 0.712 0.001 0.654 0.001 1.31 0 1.964-0.001 0.425-0.285 0.726-0.681 0.725s-0.673-0.301-0.675-0.731c-0.001-0.322 0-0.643 0-0.965z"></path>
<path d="M22.768 12.979c0 0.322 0.001 0.643 0 0.965-0.001 0.428-0.282 0.732-0.675 0.733-0.397 0.001-0.681-0.295-0.682-0.722-0.003-0.654-0.003-1.31 0-1.964 0.001-0.42 0.28-0.714 0.671-0.715 0.4-0.003 0.682 0.294 0.686 0.721 0.001 0.164 0.001 0.328 0.001 0.492-0.001 0.163-0.001 0.326-0.001 0.49zM22.7 12.349c0.010-0.092-0.031-0.106-0.076-0.124-0.089-0.035-0.178-0.071-0.26-0.117-0.054-0.031-0.096-0.057-0.15-0.007-0.049 0.044-0.057 0.092-0.028 0.151 0.073 0.151 0.143 0.305 0.215 0.456 0.020 0.042 0.096 0.081 0.096 0.044-0.004-0.188 0.058-0.329 0.203-0.403z"></path>
<path d="M8.681 3.21c0.030 0.211-0.035 0.29-0.25 0.309-0.059 0.006-0.121-0.014-0.112 0.093 0.014 0.17-0.11 0.312-0.236 0.3-0.178-0.018-0.311-0.177-0.281-0.335 0.027-0.14 0.184-0.213 0.361-0.168 0.011 0.003 0.023 0.001 0.040 0.003 0.038-0.073-0.035-0.134-0.030-0.202 0.011 0 0.021 0 0.032 0.001 0.035 0.054 0.089 0.033 0.137 0.037 0.011-0.013 0.023-0.025 0.035-0.038 0.1-0.016 0.202-0.014 0.302 0z"></path>
<path d="M28.772 26.343c-0.052-0.051-0.031-0.117-0.031-0.177-0.001-1.555-0.001-3.111 0-4.665 0-0.059-0.020-0.126 0.030-0.177 0.038 0.068 0.025 0.143 0.025 0.216 0 1.507 0 3.013 0 4.519 0.001 0.093 0.009 0.191-0.024 0.283z"></path>
<path d="M12.506 22.342c-0.018-0.117-0.13-0.163-0.193-0.245-0.025-0.033-0.051-0.062-0.035-0.105 0.013-0.034 0.054-0.069 0.075-0.051 0.126 0.106 0.241-0.004 0.36-0.007 0.034-0.001 0.068-0.001 0.1-0.001 0.055 0.034 0.11 0.068 0.167 0.102-0.014 0.097 0.028 0.199-0.037 0.291-0.1 0.141-0.212 0.212-0.37 0.082-0.021-0.021-0.044-0.044-0.066-0.066z"></path>
<path d="M3.208 21.563c0.066 0.042 0.044 0.112 0.044 0.17 0.001 1.171 0.001 2.344 0 3.516 0 0.051 0.028 0.116-0.044 0.148-0.003-0.112-0.010-0.225-0.010-0.336-0.001-1.104 0-2.209 0-3.313 0-0.062 0.007-0.124 0.010-0.185z"></path>
<path d="M17.299 17.897c-0.239 0.006-0.255 0.021-0.226 0.249 0.004 0.033-0.001 0.057-0.027 0.072-0.037 0.023-0.066 0.001-0.083-0.030-0.089-0.161-0.175-0.324-0.261-0.486-0.034-0.062 0.016-0.092 0.049-0.127 0.044-0.047 0.086-0.054 0.148-0.020 0.141 0.076 0.289 0.143 0.435 0.212-0.006 0.047-0.007 0.092-0.035 0.13z"></path>
<path d="M11.757 22.823c0.037-0.069 0.055-0.136-0.006-0.203-0.034-0.040-0.034-0.085 0.010-0.119s0.073 0.003 0.1 0.030c0.12 0.119 0.244 0.235 0.357 0.36 0.088 0.097 0.064 0.174-0.071 0.203-0.145-0.066-0.275-0.16-0.391-0.271z"></path>
<path d="M27.445 24.479c0.116-0.023 0.234-0.068 0.216 0.139-0.009 0.092 0.107 0.055 0.16 0.090 0.038 0.025 0.127-0.020 0.12 0.052-0.007 0.076-0.083 0.093-0.158 0.091-0.037-0.001-0.071-0.042-0.109-0.007-0.010 0.035 0.014 0.054 0.037 0.069 0.047 0.031 0.039 0.062 0.006 0.096-0.030 0.030-0.061 0.054-0.102 0.018-0.038-0.032-0.069-0.076-0.127-0.075 0-0.023-0.001-0.045-0.001-0.068 0.010-0.069-0.016-0.14 0.035-0.208 0.068-0.092-0.011-0.095-0.075-0.097-0.001-0.034-0.001-0.068-0.001-0.1z"></path>
<path d="M3.211 6.095c0.055 0.032 0.044 0.086 0.044 0.136 0 0.584 0 1.169 0 1.752 0 0.042 0.013 0.093-0.044 0.114-0.017-0.667-0.017-1.335 0-2.003z"></path>
<path d="M17.345 17.699c-0.134-0.051-0.199-0.188-0.144-0.331 0.031-0.081 0.069-0.148-0.001-0.229-0.034-0.038-0.006-0.092 0.025-0.12 0.065-0.062 0.1 0.054 0.161 0.035 0.006 0.216 0.018 0.433-0.041 0.644z"></path>
<path d="M28.784 9.631c-0.066-0.044-0.044-0.112-0.044-0.17-0.001-0.885-0.001-1.769 0-2.654 0-0.059-0.023-0.127 0.044-0.17 0.003 0.711 0.007 1.42 0.009 2.131 0.001 0.288-0.004 0.575-0.009 0.862z"></path>
<path d="M3.211 9.019c0.076 0.205 0.069 0.41 0 0.615-0.017-0.205-0.017-0.41 0-0.615z"></path>
<path d="M27.445 24.582c0.063 0.004 0.143 0.007 0.075 0.097-0.051 0.068-0.025 0.139-0.035 0.208-0.013 0-0.024 0-0.037 0-0.001-0.1-0.003-0.203-0.003-0.305z"></path>
<path d="M8.344 3.246c-0.048-0.004-0.102 0.016-0.137-0.037 0.045 0 0.092 0.001 0.137 0.001 0 0.011 0 0.024 0 0.035z"></path>
<path d="M3.208 25.467c0.062 0.044 0.066 0.088 0.001 0.131-0.017-0.044-0.014-0.088-0.001-0.131z"></path>
<path d="M3.208 8.714c0.053 0.023 0.044 0.047 0.001 0.071-0.015-0.023-0.015-0.047-0.001-0.071z"></path>
<path d="M28.779 6.478c-0.040-0.023-0.051-0.045-0.001-0.069 0 0.023 0 0.047 0.001 0.069z"></path>
<path d="M27.448 24.886c0.013 0 0.024 0 0.036 0 0 0.023 0.001 0.045 0.001 0.068-0.012 0-0.025 0-0.039 0 0-0.023 0.001-0.045 0.001-0.068z"></path>
<path d="M4.542 24.511c-0.025-0.011-0.022-0.023 0-0.034 0.001 0.011 0.001 0.023 0 0.034z"></path>
<path d="M25.318 3.247c0-0.013 0-0.025 0-0.038 0.011 0 0.022 0 0.033 0.001 0 0.011 0 0.024 0 0.035-0.011 0-0.022 0-0.033 0.001z"></path>
<path d="M27.445 25.058c0.024 0.011 0.026 0.023 0 0.034 0.001-0.011 0-0.023 0-0.034z"></path>
<path d="M8.344 3.246c0-0.011 0-0.024 0-0.035 0.011 0 0.022-0.001 0.033-0.001-0.011 0.011-0.022 0.024-0.033 0.037z"></path>
<path d="M24.533 28.079c-0.14-0.008-0.22 0.085-0.182 0.212 0.013 0.044 0.011 0.079-0.028 0.103-0.048 0.028-0.073-0.009-0.092-0.044-0.078-0.154-0.155-0.308-0.229-0.463-0.024-0.049-0.009-0.096 0.030-0.14 0.045-0.049 0.087-0.032 0.136-0.008 0.13 0.065 0.26 0.13 0.39 0.194 0.049 0.024 0.143 0.011 0.123 0.099-0.015 0.071-0.083 0.083-0.147 0.048z"></path>
<path d="M24.716 27.496c0.165 0 0.325 0.086 0.322 0.174-0.004 0.092-0.185 0.233-0.298 0.232-0.145-0.001-0.27-0.114-0.267-0.243 0.001-0.137 0.040-0.163 0.243-0.163z"></path>
<path d="M6.274 28.43c-0.003-0.141 0.097-0.259 0.006-0.383-0.017-0.024 0.006-0.066 0.038-0.085 0.038-0.023 0.064 0.003 0.088 0.027 0.123 0.123 0.246 0.246 0.369 0.369 0.040 0.040 0.062 0.088 0.017 0.133-0.085 0.083-0.15 0.213-0.296 0.185-0.136-0.027-0.239-0.1-0.22-0.246z"></path>
<path d="M6.897 28.279c-0.131-0.003-0.271-0.143-0.271-0.271 0-0.131 0.114-0.236 0.258-0.236 0.116 0 0.277 0.15 0.271 0.253-0.008 0.147-0.119 0.256-0.258 0.254z"></path>
<path d="M6.841 27.498c0.188 0 0.377-0.007 0.565 0.003 0.117 0.006 0.117 0.114 0.109 0.191-0.014 0.119-0.116 0.188-0.2 0.26-0.032 0.027-0.062 0-0.088-0.023-0.14-0.127-0.28-0.254-0.419-0.38 0.011-0.017 0.023-0.034 0.034-0.051z"></path>
<path d="M3.726 25.227c0.038-0.011 0.064-0.023 0.092-0.027 0.127-0.020 0.239 0.004 0.285 0.141 0.028 0.082-0.093 0.257-0.192 0.287-0.045 0.014-0.093 0.014-0.12-0.033-0.031-0.054 0.028-0.062 0.054-0.086 0.041-0.041 0.127-0.068 0.082-0.141-0.048-0.078-0.109 0-0.161 0.015-0.143 0.044-0.256-0.008-0.292-0.143-0.020-0.073 0.104-0.257 0.188-0.276 0.037-0.008 0.068 0 0.086 0.034 0.024 0.044-0.017 0.057-0.041 0.078-0.037 0.033-0.088 0.064-0.059 0.124 0.017 0.038 0.058 0.023 0.079 0.025z"></path>
<path d="M4.362 25.137c-0.025 0.079-0.089 0.167-0.151 0.112-0.127-0.11-0.308-0.161-0.378-0.339-0.042-0.106 0.003-0.137 0.082-0.109 0.078 0.027 0.241-0.041 0.205 0.163-0.011 0.058 0.080 0.129 0.172 0.129 0.034 0 0.069 0.001 0.071 0.045z"></path>
<path d="M7.117 4.094c-0.010-0.119 0.099-0.17 0.171-0.243 0.021-0.021 0.052-0.017 0.073 0.008 0.037 0.042 0.007 0.073-0.023 0.1-0.044 0.041-0.121 0.075-0.068 0.146 0.048 0.064 0.114 0.010 0.168-0.014 0.085-0.038 0.158-0.037 0.232 0.032 0.061 0.059 0.073 0.131 0.051 0.201-0.028 0.088-0.092 0.154-0.186 0.178-0.031 0.008-0.073 0.013-0.092-0.020-0.021-0.037 0.014-0.061 0.038-0.083 0.017-0.014 0.038-0.024 0.056-0.037 0.041-0.028 0.068-0.064 0.040-0.113-0.030-0.055-0.071-0.042-0.112-0.010-0.059 0.047-0.13 0.028-0.196 0.028-0.103-0.001-0.15-0.062-0.152-0.174z"></path>
<path d="M7.539 3.666c0.056 0.075 0.254-0.025 0.213 0.182-0.010 0.049 0.082 0.113 0.168 0.112 0.052 0 0.114 0.010 0.097 0.081-0.013 0.052-0.059 0.103-0.117 0.109-0.058 0.004-0.109-0.034-0.143-0.079-0.086-0.117-0.311-0.106-0.295-0.318 0.004-0.051 0.018-0.086 0.076-0.086z"></path>
<path d="M28.35 6.808c-0.151 0-0.299-0.254-0.225-0.396 0.038-0.072 0.090-0.129 0-0.199-0.049-0.038-0.016-0.079 0.020-0.113s0.071-0.031 0.103 0.004c0.124 0.137 0.257 0.267 0.369 0.414 0.071 0.093-0.114 0.29-0.267 0.29z"></path>
<path d="M28.348 6.891c-0.038 0.074-0.082 0.086-0.157 0.069-0.15-0.034-0.233 0.051-0.209 0.199 0.008 0.052 0.023 0.112-0.034 0.133-0.072 0.028-0.073-0.052-0.095-0.090-0.066-0.124-0.127-0.252-0.191-0.377-0.031-0.061-0.063-0.119 0.003-0.182 0.068-0.065 0.124-0.021 0.183 0.007 0.167 0.081 0.33 0.161 0.498 0.242z"></path>
<path d="M25.048 4.197c0.007 0.038 0.018 0.076 0.021 0.116 0.008 0.113-0.016 0.175-0.158 0.196-0.247 0.037-0.371-0.116-0.508-0.264-0.035-0.037-0.044-0.081-0.004-0.12s0.071-0.011 0.102 0.016c0.028 0.025 0.064 0.072 0.099 0.037 0.137-0.14 0.275-0.075 0.415-0.014 0.011 0.011 0.023 0.023 0.034 0.034z"></path>
<path d="M25.012 4.166c-0.052-0.129-0.129-0.252 0.018-0.379 0.103-0.089 0.202-0.082 0.285 0 0.090 0.086-0.023 0.133-0.065 0.191-0.021 0.030-0.066 0.048-0.051 0.105 0.061 0.008 0.106-0.023 0.138-0.068 0.031-0.042 0.065-0.069 0.11-0.031 0.061 0.052 0.006 0.088-0.025 0.124-0.103 0.124-0.23 0.153-0.378 0.090-0.010-0.010-0.021-0.021-0.033-0.032z"></path>
<path d="M25.318 3.248c0.011-0.001 0.023-0.001 0.034-0.001 0.028 0.001 0.079-0.003 0.081 0.004 0.047 0.192 0.164 0.078 0.26 0.065 0.126-0.017 0.239-0.006 0.261 0.154 0.014 0.1-0.12 0.266-0.226 0.278-0.037 0.004-0.069-0.004-0.085-0.038-0.021-0.049 0.025-0.049 0.052-0.064 0.020-0.010 0.040-0.021 0.055-0.038 0.031-0.035 0.095-0.062 0.052-0.123-0.037-0.054-0.086-0.025-0.136-0.007-0.234 0.089-0.329 0.024-0.349-0.23z"></path>
<path d="M12.504 22.345c0.023 0.023 0.045 0.045 0.068 0.066 0.061 0.226 0.001 0.376-0.162 0.406-0.119 0.023-0.212-0.021-0.275-0.12-0.059-0.092-0.055-0.195-0.008-0.288 0.055-0.107 0.161-0.112 0.265-0.096 0.038 0.007 0.075 0.021 0.113 0.033z"></path>
<path d="M22.704 12.354c-0.147 0.073-0.207 0.215-0.203 0.401 0.001 0.037-0.075-0.001-0.096-0.044-0.072-0.151-0.141-0.305-0.215-0.456-0.028-0.059-0.021-0.107 0.028-0.151 0.054-0.049 0.096-0.023 0.15 0.007 0.082 0.047 0.172 0.082 0.26 0.117 0.045 0.020 0.086 0.034 0.076 0.126z"></path>
<path d="M25.009 4.161c0.011 0.011 0.022 0.023 0.033 0.034-0.011-0.011-0.022-0.023-0.033-0.034z"></path>
</svg>
