<svg width="24" height="24" viewBox="0 0 24 24" fill="none" xmlns="http://www.w3.org/2000/svg">
<path d="M12.0477 4.17529C14.141 4.17529 15.9146 4.90171 17.3684 6.35454C18.8223 7.80738 19.5492 9.58046 19.5492 11.6738C19.5492 13.7671 18.8228 15.5407 17.3699 16.9945C15.9171 18.4484 14.144 19.1753 12.0507 19.1753C9.95736 19.1753 8.18378 18.4489 6.72994 16.996C5.27611 15.5432 4.54919 13.7701 4.54919 11.6768C4.54919 9.58346 5.27561 7.80988 6.72844 6.35604C8.18128 4.90221 9.95436 4.17529 12.0477 4.17529ZM8.68394 9.67704C8.68394 9.93354 8.77069 10.148 8.94419 10.3205C9.11769 10.4929 9.33278 10.579 9.58944 10.579C9.84594 10.579 10.0604 10.4923 10.2329 10.3188C10.4053 10.1453 10.4914 9.93021 10.4914 9.67354C10.4914 9.41704 10.4047 9.20254 10.2312 9.03004C10.0577 8.85771 9.84261 8.77154 9.58594 8.77154C9.32944 8.77154 9.11494 8.85829 8.94244 9.03179C8.77011 9.20529 8.68394 9.42038 8.68394 9.67704ZM13.6069 9.67704C13.6069 9.93354 13.6937 10.148 13.8672 10.3205C14.0407 10.4929 14.2558 10.579 14.5124 10.579C14.7689 10.579 14.9834 10.4923 15.1559 10.3188C15.3283 10.1453 15.4144 9.93021 15.4144 9.67354C15.4144 9.41704 15.3277 9.20254 15.1542 9.03004C14.9807 8.85771 14.7656 8.77154 14.5089 8.77154C14.2524 8.77154 14.0379 8.85829 13.8654 9.03179C13.6931 9.20529 13.6069 9.42038 13.6069 9.67704ZM1.54919 4.92529V2.98304C1.54919 2.48588 1.72619 2.06029 2.08019 1.70629C2.43419 1.35229 2.85978 1.17529 3.35694 1.17529H5.29919C5.51169 1.17529 5.68986 1.24721 5.83369 1.39104C5.97736 1.53488 6.04919 1.71304 6.04919 1.92554C6.04919 2.13821 5.97736 2.31629 5.83369 2.45979C5.68986 2.60346 5.51169 2.67529 5.29919 2.67529H3.35694C3.26711 2.67529 3.19336 2.70413 3.13569 2.76179C3.07803 2.81946 3.04919 2.89321 3.04919 2.98304V4.92529C3.04919 5.13779 2.97728 5.31596 2.83344 5.45979C2.68961 5.60346 2.51144 5.67529 2.29894 5.67529C2.08628 5.67529 1.90819 5.60346 1.76469 5.45979C1.62103 5.31596 1.54919 5.13779 1.54919 4.92529ZM5.29919 22.1753H3.35694C2.85978 22.1753 2.43419 21.9983 2.08019 21.6443C1.72619 21.2903 1.54919 20.8647 1.54919 20.3675V18.4253C1.54919 18.2128 1.62111 18.0346 1.76494 17.8908C1.90878 17.7471 2.08694 17.6753 2.29944 17.6753C2.51211 17.6753 2.69019 17.7471 2.83369 17.8908C2.97736 18.0346 3.04919 18.2128 3.04919 18.4253V20.3675C3.04919 20.4574 3.07803 20.5311 3.13569 20.5888C3.19336 20.6465 3.26711 20.6753 3.35694 20.6753H5.29919C5.51169 20.6753 5.68986 20.7472 5.83369 20.891C5.97736 21.0349 6.04919 21.213 6.04919 21.4255C6.04919 21.6382 5.97736 21.8163 5.83369 21.9598C5.68986 22.1035 5.51169 22.1753 5.29919 22.1753ZM20.7414 22.079H18.7992C18.5867 22.079 18.4085 22.0071 18.2647 21.8633C18.121 21.7195 18.0492 21.5413 18.0492 21.3288C18.0492 21.1161 18.121 20.938 18.2647 20.7945C18.4085 20.6509 18.5867 20.579 18.7992 20.579H20.7414C20.8313 20.579 20.905 20.5502 20.9627 20.4925C21.0204 20.4349 21.0492 20.3611 21.0492 20.2713V18.329C21.0492 18.1165 21.1211 17.9385 21.2649 17.7948C21.4088 17.651 21.5869 17.579 21.7994 17.579C22.0121 17.579 22.1902 17.651 22.3337 17.7948C22.4774 17.9385 22.5492 18.1165 22.5492 18.329V20.2713C22.5492 20.7685 22.3722 21.194 22.0182 21.548C21.6642 21.902 21.2386 22.079 20.7414 22.079ZM21.0492 4.92529V2.98304C21.0492 2.89321 21.0204 2.81946 20.9627 2.76179C20.905 2.70413 20.8313 2.67529 20.7414 2.67529H18.7992C18.5867 2.67529 18.4085 2.60338 18.2647 2.45954C18.121 2.31571 18.0492 2.13754 18.0492 1.92504C18.0492 1.71238 18.121 1.53429 18.2647 1.39079C18.4085 1.24713 18.5867 1.17529 18.7992 1.17529H20.7414C21.2386 1.17529 21.6642 1.35229 22.0182 1.70629C22.3722 2.06029 22.5492 2.48588 22.5492 2.98304V4.92529C22.5492 5.13779 22.4773 5.31596 22.3334 5.45979C22.1896 5.60346 22.0114 5.67529 21.7989 5.67529C21.5863 5.67529 21.4082 5.60346 21.2647 5.45979C21.121 5.31596 21.0492 5.13779 21.0492 4.92529ZM12.0492 14.983C12.644 14.983 13.1994 14.8459 13.7154 14.5715C14.2314 14.297 14.6561 13.9207 14.9894 13.4425C15.0831 13.272 15.0822 13.1015 14.9867 12.931C14.8912 12.7605 14.7415 12.6753 14.5377 12.6753H9.56069C9.35686 12.6753 9.20719 12.7605 9.11169 12.931C9.01619 13.1015 9.01528 13.272 9.10894 13.4425C9.44228 13.9207 9.86695 14.297 10.3829 14.5715C10.8989 14.8459 11.4544 14.983 12.0492 14.983Z" fill="#1C1B1F"/>
</svg>
