<svg width="24" height="24" viewBox="0 0 24 24" fill="none" xmlns="http://www.w3.org/2000/svg">
<path d="M7.26679 20.5784H4.42079C3.92362 20.5784 3.49804 20.4014 3.14404 20.0474C2.79004 19.6934 2.61304 19.2678 2.61304 18.7706V10.2321C2.61304 9.94594 2.67704 9.67486 2.80504 9.41886C2.9332 9.16269 3.1102 8.95178 3.33604 8.78611L9.02854 4.49761C9.19454 4.37711 9.36804 4.28669 9.54904 4.22636C9.7302 4.16619 9.91887 4.13611 10.115 4.13611C10.3112 4.13611 10.4994 4.16619 10.6795 4.22636C10.8597 4.28669 11.0324 4.37711 11.1975 4.49761L14.0553 6.66111C14.2091 6.78161 14.2716 6.93386 14.2428 7.11786C14.214 7.30186 14.1072 7.43361 13.9225 7.51311C13.3495 7.79128 12.8499 8.17103 12.4235 8.65236C11.9974 9.13386 11.6746 9.68161 11.4553 10.2956C11.2361 10.9098 11.1451 11.5386 11.1823 12.1821C11.2195 12.8258 11.3797 13.4386 11.663 14.0206C11.7464 14.2116 11.7546 14.4019 11.6878 14.5916C11.6211 14.7813 11.4988 14.914 11.3208 14.9899C10.6015 15.3065 10.0425 15.6197 9.64379 15.9294C9.24512 16.2389 8.92587 16.6103 8.68604 17.0436C8.5092 17.3373 8.37912 17.6475 8.29579 17.9744C8.21245 18.3012 8.17079 18.632 8.17079 18.9669V19.6744C8.17079 19.9305 8.08412 20.1452 7.91079 20.3184C7.73762 20.4917 7.52295 20.5784 7.26679 20.5784ZM16.114 16.1746C16.9942 16.1746 17.8455 16.288 18.6678 16.5149C19.4903 16.7419 20.272 17.0739 21.013 17.5111C21.2745 17.6751 21.4816 17.8858 21.6343 18.1431C21.7868 18.4003 21.863 18.6749 21.863 18.9669V19.1399C21.863 19.5437 21.7242 19.8844 21.4465 20.1619C21.169 20.4395 20.8284 20.5784 20.4245 20.5784H11.8015C11.4029 20.5784 11.0635 20.4383 10.7833 20.1581C10.5031 19.8779 10.363 19.5385 10.363 19.1399V18.9669C10.363 18.6749 10.4393 18.4003 10.5918 18.1431C10.7445 17.8858 10.9515 17.6751 11.213 17.5111C11.954 17.0739 12.7361 16.7419 13.5593 16.5149C14.3823 16.288 15.2339 16.1746 16.114 16.1746ZM16.1143 14.6264C15.3506 14.6264 14.7012 14.3591 14.166 13.8246C13.6307 13.2901 13.363 12.6411 13.363 11.8776C13.363 11.1139 13.6303 10.4645 14.1648 9.92936C14.6993 9.39403 15.3483 9.12636 16.1118 9.12636C16.8755 9.12636 17.5249 9.39361 18.06 9.92811C18.5954 10.4626 18.863 11.1117 18.863 11.8754C18.863 12.6389 18.5958 13.2883 18.0613 13.8236C17.5268 14.3588 16.8778 14.6264 16.1143 14.6264Z" fill="#1C1B1F"/>
</svg>
