<svg width="24" height="24" viewBox="0 0 24 24" fill="none" xmlns="http://www.w3.org/2000/svg">
<path d="M4.42079 20.5784C3.92362 20.5784 3.49804 20.4014 3.14404 20.0474C2.79004 19.6934 2.61304 19.2678 2.61304 18.7706V10.2321C2.61304 9.94594 2.67704 9.67486 2.80504 9.41886C2.9332 9.16269 3.1102 8.95178 3.33604 8.78611L9.02854 4.49761C9.19454 4.37711 9.36804 4.28669 9.54904 4.22636C9.7302 4.16619 9.91887 4.13611 10.115 4.13611C10.3112 4.13611 10.4994 4.16619 10.6795 4.22636C10.8597 4.28669 11.0324 4.37711 11.1975 4.49761L13.7495 6.42261C13.952 6.57778 14.0559 6.75594 14.061 6.95711C14.0662 7.15844 14.0126 7.33678 13.9003 7.49211C13.788 7.64744 13.635 7.74778 13.4415 7.79311C13.2482 7.83844 13.0451 7.78353 12.8323 7.62836L10.2958 5.70336C10.2445 5.65853 10.1835 5.63611 10.113 5.63611C10.0425 5.63611 9.98162 5.65853 9.93029 5.70336L4.23804 9.98211C4.19954 10.0143 4.16912 10.0512 4.14679 10.0929C4.12429 10.1345 4.11304 10.1809 4.11304 10.2321V18.7706C4.11304 18.8604 4.14187 18.9342 4.19954 18.9919C4.2572 19.0495 4.33095 19.0784 4.42079 19.0784H7.42079C7.63329 19.0784 7.81137 19.1503 7.95504 19.2941C8.09887 19.4379 8.17079 19.6161 8.17079 19.8286C8.17079 20.0413 8.09887 20.2194 7.95504 20.3629C7.81137 20.5065 7.63329 20.5784 7.42079 20.5784H4.42079ZM16.113 16.1746C16.9874 16.1746 17.8358 16.2864 18.6583 16.5101C19.4806 16.7338 20.2655 17.0674 21.013 17.5111C21.2682 17.6688 21.4736 17.8761 21.6293 18.1331C21.7851 18.3901 21.863 18.668 21.863 18.9669V19.1399C21.863 19.5385 21.7262 19.8779 21.4525 20.1581C21.1787 20.4383 20.836 20.5784 20.4245 20.5784H11.8015C11.4029 20.5784 11.0635 20.4383 10.7833 20.1581C10.5031 19.8779 10.363 19.5385 10.363 19.1399V18.9669C10.363 18.668 10.441 18.3901 10.5968 18.1331C10.7525 17.8761 10.9579 17.6688 11.213 17.5111C11.9605 17.0674 12.7455 16.7338 13.5678 16.5101C14.3903 16.2864 15.2387 16.1746 16.113 16.1746ZM11.9553 19.0784H20.2708V18.8091C19.6361 18.4438 18.9698 18.1634 18.2718 17.9679C17.5736 17.7722 16.854 17.6744 16.113 17.6744C15.372 17.6744 14.6525 17.7722 13.9543 17.9679C13.2563 18.1634 12.59 18.4438 11.9553 18.8091V19.0784ZM16.1143 14.6264C15.3506 14.6264 14.7012 14.3591 14.166 13.8246C13.6307 13.2901 13.363 12.6411 13.363 11.8776C13.363 11.1139 13.6303 10.4645 14.1648 9.92936C14.6993 9.39403 15.3483 9.12636 16.1118 9.12636C16.8755 9.12636 17.5249 9.39361 18.06 9.92811C18.5954 10.4626 18.863 11.1117 18.863 11.8754C18.863 12.6389 18.5958 13.2883 18.0613 13.8236C17.5268 14.3588 16.8778 14.6264 16.1143 14.6264ZM16.113 13.1264C16.4605 13.1264 16.7557 13.0049 16.9985 12.7621C17.2415 12.5191 17.363 12.2239 17.363 11.8764C17.363 11.529 17.2415 11.2339 16.9985 10.9909C16.7557 10.7479 16.4605 10.6264 16.113 10.6264C15.7655 10.6264 15.4704 10.7479 15.2275 10.9909C14.9845 11.2339 14.863 11.529 14.863 11.8764C14.863 12.2239 14.9845 12.5191 15.2275 12.7621C15.4704 13.0049 15.7655 13.1264 16.113 13.1264Z" fill="#1C1B1F"/>
</svg>
