<svg width="24" height="24" viewBox="0 0 24 24" fill="none" xmlns="http://www.w3.org/2000/svg">
<path d="M4.96788 19.1944C4.82938 19.056 4.76013 18.8815 4.76013 18.6706C4.76013 18.46 4.82938 18.2865 4.96788 18.1504L6.67938 16.4386C6.14605 15.7875 5.73038 15.0575 5.43238 14.2489C5.13422 13.44 4.98513 12.5828 4.98513 11.6771C4.98513 9.58346 5.71172 7.81004 7.16488 6.35687C8.61805 4.90371 10.3915 4.17712 12.4851 4.17712H18.4659C18.8877 4.17712 19.2464 4.32487 19.5419 4.62037C19.8374 4.91587 19.9851 5.27454 19.9851 5.69637V11.6771C19.9851 13.771 19.2585 15.5444 17.8054 16.9974C16.3522 18.4505 14.5788 19.1771 12.4851 19.1771C11.5796 19.1771 10.7266 19.0281 9.92613 18.7301C9.1258 18.432 8.39997 18.0162 7.74863 17.4829L6.01213 19.1944C5.8758 19.3329 5.7023 19.4021 5.49163 19.4021C5.28097 19.4021 5.10638 19.3329 4.96788 19.1944ZM9.02738 15.1334C9.16588 15.2934 9.34005 15.3703 9.54988 15.3641C9.75988 15.358 9.93896 15.2815 10.0871 15.1349L14.0121 11.2194C14.1671 11.0644 14.2446 10.8862 14.2446 10.6849C14.2446 10.4835 14.168 10.3063 14.0149 10.1531C13.8745 10.0128 13.699 9.94262 13.4884 9.94262C13.2777 9.94262 13.1042 10.0119 12.9679 10.1504L9.02738 14.0906C8.88905 14.2275 8.81988 14.3985 8.81988 14.6039C8.81988 14.8092 8.88905 14.9857 9.02738 15.1334Z" fill="#1C1B1F"/>
</svg>
