<?xml version="1.0" encoding="UTF-8"?>
<svg id="Layer_1" data-name="Layer 1" xmlns="http://www.w3.org/2000/svg" xmlns:xlink="http://www.w3.org/1999/xlink" version="1.1" viewBox="0 0 24 24">
  <defs>
    <style>
      .cls-1 {
        mask: url(#mask);
      }

      .cls-2 {
        fill: #000;
      }

      .cls-2, .cls-3 {
        stroke-width: 0px;
      }

      .cls-3 {
        fill: #d9d9d9;
      }
    </style>
    <mask id="mask" x="0" y="0" width="24" height="24" maskUnits="userSpaceOnUse">
      <g id="mask0_17681_37284" data-name="mask0 17681 37284">
        <rect class="cls-3" y="0" width="24" height="24"/>
      </g>
    </mask>
  </defs>
  <g class="cls-1">
    <path class="cls-2" d="M9,11.8c-.2,0-.4,0-.5-.2-.1-.1-.2-.3-.2-.5s0-.4.2-.5c.1-.1.3-.2.5-.2h6c.2,0,.4,0,.5.2.1.1.2.3.2.5s0,.4-.2.5c-.1.1-.3.2-.5.2h-6ZM9,7.8c-.2,0-.4,0-.5-.2-.1-.1-.2-.3-.2-.5s0-.4.2-.5c.1-.1.3-.2.5-.2h6c.2,0,.4,0,.5.2.1.1.2.3.2.5s0,.4-.2.5c-.1.1-.3.2-.5.2h-6ZM6,14.3h7.5c.4,0,.9,0,1.2.3.4.2.7.5,1,.8l2.3,3V4.3c0,0,0-.2,0-.2,0,0-.1,0-.2,0H6.3c0,0-.2,0-.2,0,0,0,0,.1,0,.2v9.9ZM6.3,20h11.1l-2.9-3.7c-.1-.2-.3-.3-.4-.4-.2,0-.4-.1-.6-.1h-7.5v3.9c0,0,0,.2,0,.2,0,0,.1,0,.2,0ZM17.7,21.5H6.3c-.5,0-.9-.2-1.3-.5s-.5-.8-.5-1.3V4.3c0-.5.2-.9.5-1.3.3-.4.8-.5,1.3-.5h11.4c.5,0,.9.2,1.3.5.4.3.5.8.5,1.3v15.4c0,.5-.2.9-.5,1.3s-.8.5-1.3.5Z"/>
  </g>
</svg>