<!-- Generated by IcoMoon.io -->
<svg version="1.1" xmlns="http://www.w3.org/2000/svg" width="32" height="32" viewBox="0 0 32 32">
<path d="M14.667 24c-0.378 0-0.694-0.128-0.95-0.383s-0.383-0.572-0.383-0.95c0-0.378 0.128-0.694 0.383-0.95s0.572-0.383 0.95-0.383h2.667c0.378 0 0.694 0.128 0.95 0.383s0.383 0.572 0.383 0.95c0 0.378-0.128 0.694-0.383 0.95s-0.572 0.383-0.95 0.383h-2.667zM9.333 17.333c-0.378 0-0.694-0.128-0.95-0.383s-0.383-0.572-0.383-0.95c0-0.378 0.128-0.694 0.383-0.95s0.572-0.383 0.95-0.383h13.333c0.378 0 0.694 0.128 0.95 0.383s0.383 0.572 0.383 0.95c0 0.378-0.128 0.694-0.383 0.95s-0.572 0.383-0.95 0.383h-13.333zM5.333 10.667c-0.378 0-0.694-0.128-0.95-0.383s-0.383-0.572-0.383-0.95c0-0.378 0.128-0.694 0.383-0.95s0.572-0.383 0.95-0.383h21.333c0.378 0 0.694 0.128 0.95 0.383s0.383 0.572 0.383 0.95c0 0.378-0.128 0.694-0.383 0.95s-0.572 0.383-0.95 0.383h-21.333z"></path>
</svg>
