<!-- Generated by IcoMoon.io -->
<svg version="1.1" xmlns="http://www.w3.org/2000/svg" width="32" height="32" viewBox="0 0 32 32">
<path fill="none" stroke="#9ca3af" stroke-linejoin="miter" stroke-linecap="butt" stroke-miterlimit="4" stroke-width="1.3333" d="M31.333 16c0 8.468-6.865 15.333-15.333 15.333s-15.333-6.865-15.333-15.333c0-8.468 6.865-15.333 15.333-15.333s15.333 6.865 15.333 15.333z"></path>
<path d="M10.529 16.147l7.479-9.141c0.425-0.519 1.254-0.072 1.054 0.568l-1.919 6.14h4.984c0.517 0 0.799 0.603 0.468 1l-8.206 9.847c-0.442 0.531-1.287 0.033-1.036-0.611l2.647-6.808h-4.999c-0.514 0-0.797-0.598-0.472-0.996z"></path>
</svg>
