<svg width="24" height="24" viewBox="0 0 24 24" fill="none" xmlns="http://www.w3.org/2000/svg">
<path d="M9 7H16C16.2833 7 16.5208 7.09583 16.7125 7.2875C16.9042 7.47917 17 7.71667 17 8C17 8.28333 16.9042 8.52083 16.7125 8.7125C16.5208 8.90417 16.2833 9 16 9H9C8.71667 9 8.47917 8.90417 8.2875 8.7125C8.09583 8.52083 8 8.28333 8 8C8 7.71667 8.09583 7.47917 8.2875 7.2875C8.47917 7.09583 8.71667 7 9 7ZM9 10H16C16.2833 10 16.5208 10.0958 16.7125 10.2875C16.9042 10.4792 17 10.7167 17 11C17 11.2833 16.9042 11.5208 16.7125 11.7125C16.5208 11.9042 16.2833 12 16 12H9C8.71667 12 8.47917 11.9042 8.2875 11.7125C8.09583 11.5208 8 11.2833 8 11C8 10.7167 8.09583 10.4792 8.2875 10.2875C8.47917 10.0958 8.71667 10 9 10ZM5 22C4.16667 22 3.45833 21.7083 2.875 21.125C2.29167 20.5417 2 19.8333 2 19V17C2 16.7167 2.09583 16.4792 2.2875 16.2875C2.47917 16.0958 2.71667 16 3 16H5V4C5 3.45 5.19583 2.97917 5.5875 2.5875C5.97917 2.19583 6.45 2 7 2H18C18.55 2 19.0208 2.19583 19.4125 2.5875C19.8042 2.97917 20 3.45 20 4V10C20 10.2833 19.9042 10.5208 19.7125 10.7125C19.5208 10.9042 19.2833 11 19 11C18.7167 11 18.4792 10.9042 18.2875 10.7125C18.0958 10.5208 18 10.2833 18 10V4H7V16H10C10.2833 16 10.5208 16.0958 10.7125 16.2875C10.9042 16.4792 11 16.7167 11 17C11 17.2833 10.9042 17.5208 10.7125 17.7125C10.5208 17.9042 10.2833 18 10 18H4V19C4 19.2833 4.09583 19.5208 4.2875 19.7125C4.47917 19.9042 4.71667 20 5 20H10C10.2833 20 10.5208 20.0958 10.7125 20.2875C10.9042 20.4792 11 20.7167 11 21C11 21.2833 10.9042 21.5208 10.7125 21.7125C10.5208 21.9042 10.2833 22 10 22H5ZM13 21V19.35C13 19.2167 13.025 19.0875 13.075 18.9625C13.125 18.8375 13.2 18.725 13.3 18.625L18.525 13.425C18.675 13.275 18.8417 13.1667 19.025 13.1C19.2083 13.0333 19.3917 13 19.575 13C19.775 13 19.9667 13.0375 20.15 13.1125C20.3333 13.1875 20.5 13.3 20.65 13.45L21.575 14.375C21.7083 14.525 21.8125 14.6917 21.8875 14.875C21.9625 15.0583 22 15.2417 22 15.425C22 15.6083 21.9667 15.7958 21.9 15.9875C21.8333 16.1792 21.725 16.35 21.575 16.5L16.375 21.7C16.275 21.8 16.1625 21.875 16.0375 21.925C15.9125 21.975 15.7833 22 15.65 22H14C13.7167 22 13.4792 21.9042 13.2875 21.7125C13.0958 21.5208 13 21.2833 13 21ZM14.5 20.5H15.45L18.475 17.45L18.025 16.975L17.55 16.525L14.5 19.55V20.5ZM18.025 16.975L17.55 16.525L18.475 17.45L18.025 16.975Z" fill="black"/>
</svg>
