<!-- Generated by IcoMoon.io -->
<svg version="1.1" xmlns="http://www.w3.org/2000/svg" width="32" height="32" viewBox="0 0 32 32">
<title>folder-add</title>
<path d="M15.104 13.091v2.717h-2.704c-0.131 0-0.24 0.099-0.24 0.224v1.344c0 0.122 0.109 0.224 0.24 0.224h2.704v2.717c0 0.125 0.102 0.227 0.224 0.227h1.344c0.125 0 0.224-0.102 0.224-0.227v-2.717h2.704c0.131 0 0.24-0.102 0.24-0.224v-1.344c0-0.125-0.109-0.224-0.24-0.224h-2.704v-2.717c0-0.125-0.099-0.227-0.224-0.227h-1.344c-0.122 0-0.224 0.102-0.224 0.227zM27.776 8.461h-11.488l-3.754-3.59c-0.048-0.045-0.111-0.070-0.176-0.070h-8.134c-0.566 0-1.024 0.458-1.024 1.024v18.944c0 0.566 0.458 1.024 1.024 1.024h23.552c0.566 0 1.024-0.458 1.024-1.024v-15.283c0-0.566-0.458-1.024-1.024-1.024v0zM26.496 23.488h-20.992v-16.384h6.032l3.827 3.661h11.133v12.723z"></path>
</svg>
