<?xml version="1.0" encoding="utf-8"?>
<!-- Generator: Adobe Illustrator 28.1.0, SVG Export Plug-In . SVG Version: 6.00 Build 0)  -->
<svg version="1.1" id="Layer_1" xmlns="http://www.w3.org/2000/svg" xmlns:xlink="http://www.w3.org/1999/xlink" x="0px" y="0px"
	 viewBox="0 0 32 32" style="enable-background:new 0 0 32 32;" xml:space="preserve">
<path d="M32,20.8c0,0.7,0,1.4,0,2c0,0.1-0.1,0.2-0.2,0.2c-0.1,0-0.1,0-0.2,0c-10.3,0-20.7,0-31,0c-0.3,0-0.5-0.2-0.5-0.5
	c0-0.6,0-1.1,0-1.7H32z"/>
<path d="M23,12.9c1,0.9,0.8,4.4,0.8,6.5c0,0.1,0,0.4-0.2,0.4c-0.6,0-1.1,0-1.8,0c-0.5,0-0.5-0.3-0.5-0.6c0-0.2,0-0.3,0-0.6H10.8
	c0,0-0.1,0.1-0.1,0.1c-0.1,0.4-0.1,1-0.3,1c-0.6,0.1-1.2,0.1-1.9,0c-0.2,0-0.3-0.3-0.3-0.5c0-1.6,0-2.6,0-4.1c0-1.1,0.4-2.1,0.7-2.3
	c-0.2-0.1-0.4-0.1-0.6-0.2C8.2,12.6,8,12.3,8,12.2c0.1-0.2,0.4-0.4,0.6-0.5c0,0,0.1,0,0.1,0c1.1,0.2,1.7-0.4,2.1-1.2
	c0.5-1,1.5-1.4,2.7-1.4c1.7,0,3.4,0,5.2,0c1.1,0,1.8,0.4,2.4,1.2c0.1,0.2,0.3,0.4,0.4,0.5c0.3,0.7,0.8,1,1.6,0.9
	c0.4-0.1,0.9,0,1,0.5c0.1,0.5-0.3,0.6-0.8,0.7C23.1,12.9,23.1,12.9,23,12.9L23,12.9z M16,13c1.7,0,3.5,0,5.2,0
	c0.5,0,0.7-0.2,0.4-0.6c-0.4-0.7-0.9-1.3-1.3-2c-0.3-0.5-0.8-0.7-1.5-0.7c-1.9,0-3.8,0-5.7,0c-0.7,0-1.2,0.3-1.6,0.8
	c-0.4,0.6-0.8,1.2-1.2,1.7C10,12.8,10.1,13,10.9,13C12.6,13,14.3,13,16,13L16,13z M10.7,16C10.7,16,10.7,16,10.7,16
	c0.3,0,0.5,0.1,0.8,0c0.2-0.1,0.6-0.3,0.6-0.5c0-0.2-0.2-0.5-0.4-0.6c-0.5-0.2-1-0.4-1.5-0.5c-0.5-0.1-0.9,0.2-1,0.6
	c-0.1,0.5,0.2,0.8,0.7,0.9C10.2,16,10.4,16,10.7,16L10.7,16z M16,17.8L16,17.8c0.6,0,1.1,0,1.7,0c0.4,0,0.6-0.1,0.5-0.5
	c0-0.2-0.3-0.4-0.5-0.4c-1.1,0-2.2,0-3.3,0c-0.4,0-0.6,0.1-0.6,0.5c0,0.4,0.2,0.4,0.6,0.4C14.9,17.8,15.4,17.8,16,17.8L16,17.8z
	 M21.2,16c0.3,0,0.6,0,0.8,0c0.6-0.1,0.9-0.5,0.8-0.9c-0.1-0.5-0.6-0.8-1.1-0.7c-0.3,0.1-0.5,0.1-0.8,0.3c-0.4,0.2-1.2,0.2-1,0.9
	C20,15.8,20.7,16,21.2,16L21.2,16z"/>
</svg>
