<!-- Generated by IcoMoon.io -->
<svg version="1.1" xmlns="http://www.w3.org/2000/svg" width="32" height="32" viewBox="0 0 32 32">
<title>function</title>
<path d="M27.167 10.831c0.109-0.12 0.098-0.302-0.022-0.411-0.053-0.048-0.121-0.075-0.193-0.076h-2.639c-0.087 0-0.167 0.036-0.222 0.102l-4.468 5.279c-0.032 0.038-0.072 0.067-0.118 0.085s-0.096 0.023-0.144 0.016c-0.049-0.007-0.095-0.026-0.134-0.056s-0.070-0.069-0.090-0.114l-2.308-5.137c-0.023-0.051-0.060-0.095-0.107-0.125s-0.102-0.046-0.158-0.046h-6.129l0.033-0.171 0.291-1.538c0.382-2.014 1.381-2.959 3.119-2.959 0.676 0 1.291 0.062 1.774 0.171l0.513-2.428c-0.822-0.171-1.28-0.222-1.996-0.222-3.755 0-5.686 1.61-6.395 5.355l-0.342 1.796h-3.548c-0.138 0-0.258 0.098-0.284 0.233l-0.393 1.883c-0.009 0.042-0.008 0.086 0.002 0.128s0.029 0.081 0.057 0.115c0.027 0.034 0.061 0.061 0.1 0.080s0.081 0.029 0.125 0.030h3.428l-3.235 15.628c-0.009 0.042-0.008 0.086 0.002 0.128s0.029 0.081 0.057 0.115c0.027 0.034 0.061 0.061 0.1 0.080s0.081 0.029 0.125 0.030h2.407c0.138 0 0.258-0.098 0.284-0.233l3.261-15.745h4.937l2.479 5.057c0.051 0.105 0.036 0.233-0.044 0.32l-6.565 7.38c-0.105 0.12-0.095 0.305 0.025 0.411 0.055 0.047 0.124 0.073 0.193 0.073h2.643c0.087 0 0.167-0.036 0.222-0.102l4.497-5.333c0.102-0.124 0.287-0.138 0.411-0.036 0.033 0.029 0.058 0.062 0.076 0.102l2.392 5.188c0.047 0.102 0.149 0.171 0.265 0.171h2.348c0.049 0 0.098-0.013 0.141-0.037s0.079-0.058 0.105-0.1c0.026-0.042 0.041-0.089 0.044-0.139s-0.007-0.098-0.028-0.143l-3.461-7.231c-0.051-0.105-0.033-0.233 0.047-0.32l6.522-7.252z"></path>
</svg>
