<!-- Generated by IcoMoon.io -->
<svg version="1.1" xmlns="http://www.w3.org/2000/svg" width="32" height="32" viewBox="0 0 32 32">
<title>gateway</title>
<path d="M28.326 12.8c0.261 0 0.474-0.213 0.474-0.474v-5.452c0-0.261-0.213-0.474-0.474-0.474h-5.452c-0.261 0-0.474 0.213-0.474 0.474v1.659h-12.8v-1.659c0-0.261-0.213-0.474-0.474-0.474h-5.452c-0.261 0-0.474 0.213-0.474 0.474v5.452c0 0.261 0.213 0.474 0.474 0.474h1.659v7.111h-1.659c-0.261 0-0.474 0.213-0.474 0.474v5.452c0 0.261 0.213 0.474 0.474 0.474h5.452c0.261 0 0.474-0.213 0.474-0.474v-1.659h12.8v1.659c0 0.261 0.213 0.474 0.474 0.474h5.452c0.261 0 0.474-0.213 0.474-0.474v-5.452c0-0.261-0.213-0.474-0.474-0.474h-1.659v-7.111h1.659zM24.296 8.296h2.607v2.607h-2.607v-2.607zM5.096 10.904v-2.607h2.607v2.607h-2.607zM7.704 24.415h-2.607v-2.608h2.607v2.608zM26.904 21.807v2.608h-2.607v-2.608h2.607zM24.533 19.911h-1.659c-0.261 0-0.474 0.213-0.474 0.474v1.659h-12.8v-1.659c0-0.261-0.213-0.474-0.474-0.474h-1.659v-7.111h1.659c0.261 0 0.474-0.213 0.474-0.474v-1.659h12.8v1.659c0 0.261 0.213 0.474 0.474 0.474h1.659v7.111z"></path>
</svg>
