<!-- Generated by IcoMoon.io -->
<svg version="1.1" xmlns="http://www.w3.org/2000/svg" width="32" height="32" viewBox="0 0 32 32">
<title>gift</title>
<path d="M26.945 9.755h-4.564c0.42-0.662 0.668-1.447 0.668-2.288 0-2.353-1.914-4.267-4.267-4.267-1.28 0-2.433 0.569-3.215 1.465-0.782-0.897-1.935-1.466-3.215-1.466-2.353 0-4.267 1.914-4.267 4.267 0 0.841 0.244 1.626 0.668 2.288h-4.563c-0.547 0-0.989 0.442-0.989 0.989v6.184c0 0.136 0.111 0.247 0.247 0.247h1.237v10.636c0 0.547 0.442 0.989 0.989 0.989h19.787c0.547 0 0.989-0.442 0.989-0.989v-10.636h1.237c0.136 0 0.247-0.111 0.247-0.247v-6.184c0-0.547-0.442-0.989-0.989-0.989zM16.618 7.467c0-1.193 0.971-2.164 2.164-2.164s2.164 0.971 2.164 2.164c0 1.193-0.971 2.164-2.164 2.164h-2.164v-2.164zM12.352 5.302c1.193 0 2.164 0.971 2.164 2.164v2.164h-2.164c-1.193 0-2.164-0.971-2.164-2.164s0.971-2.164 2.164-2.164zM5.302 15.072v-3.215h9.214v3.215h-9.214zM6.786 17.175h7.729v9.523h-7.729v-9.523zM24.348 26.698h-7.729v-9.523h7.729v9.523zM25.832 15.072h-9.213v-3.215h9.213v3.215z"></path>
</svg>
