<!-- Generated by IcoMoon.io -->
<svg version="1.1" xmlns="http://www.w3.org/2000/svg" width="32" height="32" viewBox="0 0 32 32">
<title>gift</title>
<path d="M5.334 14.4c0.884 0 1.6 0.716 1.6 1.6v11.733h18.133v-11.733c0-0.884 0.716-1.6 1.6-1.6s1.6 0.716 1.6 1.6v13.333c0 0.884-0.716 1.6-1.6 1.6h-21.333c-0.884 0-1.6-0.716-1.6-1.6v-13.333c0-0.884 0.716-1.6 1.6-1.6z"></path>
<path d="M1.066 9.331c0-0.884 0.716-1.6 1.6-1.6h26.667c0.884 0 1.6 0.716 1.6 1.6v6.667c0 0.884-0.716 1.6-1.6 1.6h-26.667c-0.884 0-1.6-0.716-1.6-1.6v-6.667zM4.266 10.931v3.467h23.467v-3.467h-23.467z"></path>
<path d="M16 7.731c0.884 0 1.6 0.716 1.6 1.6v20c0 0.884-0.716 1.6-1.6 1.6s-1.6-0.716-1.6-1.6v-20c0-0.884 0.716-1.6 1.6-1.6z"></path>
<path d="M10 4.269c1.444 0 2.525 1.008 3.348 2.504 0.178 0.323 0.332 0.65 0.463 0.962h-3.811c-0.46 0-0.901-0.183-1.226-0.508s-0.508-0.766-0.508-1.226c0-0.46 0.183-0.901 0.508-1.226s0.766-0.508 1.226-0.508zM16 9.335c1.569-0.314 1.569-0.314 1.569-0.315l-0.003-0.012-0.005-0.023c-0.004-0.018-0.009-0.043-0.016-0.074-0.014-0.061-0.033-0.146-0.060-0.251-0.052-0.21-0.132-0.502-0.242-0.85-0.219-0.69-0.568-1.628-1.092-2.58-1.010-1.837-2.929-4.162-6.152-4.162-1.308 0-2.563 0.52-3.488 1.445s-1.445 2.18-1.445 3.488c0 1.308 0.52 2.563 1.445 3.488s2.18 1.445 3.488 1.445h6c0.479 0 0.933-0.215 1.237-0.586s0.425-0.859 0.331-1.329l-1.569 0.315z"></path>
<path d="M15.848 5.231c1.010-1.837 2.929-4.162 6.152-4.162 1.308 0 2.563 0.52 3.488 1.445s1.445 2.18 1.445 3.488-0.52 2.563-1.445 3.488c-0.925 0.925-2.18 1.445-3.488 1.445h-6c-0.479 0-0.933-0.215-1.237-0.586s-0.426-0.858-0.332-1.328l1.569 0.314c-1.569-0.314-1.569-0.314-1.569-0.315v-0.001l0.001-0.003 0.002-0.008 0.005-0.023c0.004-0.018 0.009-0.043 0.016-0.074 0.014-0.061 0.033-0.146 0.060-0.251 0.052-0.21 0.132-0.502 0.242-0.85 0.219-0.69 0.568-1.628 1.092-2.58zM18.189 7.735h3.811c0.46 0 0.901-0.183 1.226-0.508s0.508-0.766 0.508-1.226-0.183-0.901-0.508-1.226c-0.325-0.325-0.766-0.508-1.226-0.508-1.444 0-2.525 1.008-3.348 2.504-0.178 0.323-0.332 0.65-0.463 0.962z"></path>
</svg>
