<?xml version="1.0" encoding="UTF-8"?>
<svg xmlns="http://www.w3.org/2000/svg" version="1.1" viewBox="0 0 20 20">
  <!-- Generator: Adobe Illustrator 28.6.0, SVG Export Plug-In . SVG Version: 1.2.0 Build 709)  -->
  <g>
    <g id="Layer_1">
      <path d="M16.1,15.2s0,0,0,0c1.2-1.4,1.9-3.2,1.9-5.1s-.7-3.8-1.9-5.1c0,0,0,0,0,0,0,0,0,0,0,0,0,0,0,0,0,0h0c0,0,0,0,0,0,0,0,0,0,0,0h0c0,0-.1-.1-.2-.2h0s0,0,0,0h0s0,0,0,0c0,0,0,0,0,0,0,0,0,0,0,0,0,0,0,0,0,0-1.4-1.3-3.3-2.1-5.4-2.1s-4,.8-5.4,2.1c0,0,0,0,0,0,0,0,0,0,0,0,0,0,0,0,0,0,0,0,0,0,0,0h0s0,0,0,0h0c0,0-.1.1-.2.2h0s0,0,0,0h0s0,0,0,0c0,0,0,0,0,0,0,0,0,0,0,0,0,0,0,0,0,0-1.2,1.4-1.9,3.2-1.9,5.1s.7,3.8,1.9,5.1c0,0,0,0,0,0h0c0,0,0,0,0,0h0c0,0,0,0,0,0,0,0,0,0,0,0h0c0,0,.1.1.2.2h0s0,0,0,0h0c0,0,.1.1.2.2,1.4,1.3,3.3,2.1,5.4,2.1s4-.8,5.4-2.1c0,0,.1-.1.2-.2h0s0,0,0,0h0c0,0,.1-.1.2-.2h0s0,0,0,0c0,0,0,0,0,0,0,0,0,0,0,0,0,0,0,0,0,0,0,0,0,0,0,0ZM16.2,12.6c-.2.6-.6,1.1-1,1.6-.4-.4-.9-.7-1.5-1,.2-.8.3-1.8.4-2.7h2.6c0,.7-.2,1.4-.5,2.1ZM16.7,9.5h-2.6c0-1-.2-1.9-.4-2.7.5-.3,1-.6,1.5-1,.9,1.1,1.4,2.4,1.5,3.7ZM12.6,3.8c.7.3,1.4.7,1.9,1.2-.3.3-.7.5-1.1.7-.3-.8-.6-1.5-1.1-2.1,0,0,.1,0,.2,0ZM11,16.3c-.2.1-.3.2-.5.3v-3.3c.7,0,1.4.2,2.1.5-.1.4-.3.8-.5,1.2-.3.6-.7,1-1.1,1.3ZM12,5c.2.4.4.8.5,1.2-.7.3-1.4.4-2.1.5v-3.3c.2,0,.3.2.5.3.4.3.7.8,1.1,1.3ZM10.5,12.3v-1.8h2.6c0,.8-.1,1.6-.3,2.3h0c-.7-.3-1.5-.4-2.3-.5ZM10.5,9.5v-1.8c.8,0,1.6-.2,2.3-.5h0c.2.7.3,1.5.3,2.3h-2.6ZM9.5,10.5v1.8c-.8,0-1.6.2-2.3.5h0c-.2-.7-.3-1.5-.3-2.3h2.6ZM6.9,9.5c0-.8.1-1.6.3-2.3h0c.7.3,1.5.4,2.3.5v1.8h-2.6ZM9.5,13.3v3.3c-.2,0-.3-.2-.5-.3-.4-.3-.7-.8-1.1-1.3-.2-.4-.4-.8-.5-1.2.7-.3,1.4-.4,2.1-.5ZM9.5,6.7c-.7,0-1.4-.2-2.1-.5.1-.4.3-.8.5-1.2.3-.6.7-1,1.1-1.3.2-.1.3-.2.5-.3v3.3h0ZM7.4,3.8c0,0,.1,0,.2,0-.4.6-.8,1.3-1.1,2.1-.4-.2-.7-.5-1.1-.7.6-.5,1.2-.9,1.9-1.2ZM3.8,7.4c.2-.6.6-1.1,1-1.6.4.4.9.7,1.5,1-.2.8-.3,1.8-.4,2.7h-2.6c0-.7.2-1.4.5-2.1ZM3.3,10.5h2.6c0,1,.2,1.9.4,2.7-.5.3-1,.6-1.5,1-.9-1.1-1.4-2.4-1.5-3.7ZM7.4,16.2c-.7-.3-1.4-.7-1.9-1.2.3-.3.7-.5,1.1-.7.3.8.6,1.5,1.1,2.1,0,0-.1,0-.2,0ZM12.6,16.2c0,0-.1,0-.2,0,.4-.6.8-1.3,1.1-2.1.4.2.7.5,1.1.7-.6.5-1.2.9-1.9,1.2Z"/>
    </g>
  </g>
</svg>