<svg width="24" height="24" viewBox="0 0 24 24" fill="none" xmlns="http://www.w3.org/2000/svg">
<path fill-rule="evenodd" clip-rule="evenodd" d="M2.52642 11.1579C2.43956 11.1579 2.38775 11.2546 2.43593 11.3267L3.87409 13.4799C3.9228 13.5528 3.9228 13.6478 3.87409 13.7207L2.43593 15.8739C2.38775 15.946 2.43956 16.0426 2.52642 16.0426H21.152C21.2389 16.0426 21.2907 15.946 21.2425 15.8739L19.8044 13.7207C19.7557 13.6478 19.7557 13.5528 19.8044 13.4799L21.2425 11.3267C21.2907 11.2546 21.2389 11.1579 21.152 11.1579H2.52642ZM8.44659 12.7022H8.06629V13.8357C8.06629 13.904 8.05106 13.9648 8.02062 14.018C7.99075 14.0712 7.9483 14.113 7.89326 14.1434C7.83881 14.1738 7.77469 14.189 7.70092 14.189C7.62772 14.189 7.56361 14.1738 7.50857 14.1434C7.45353 14.113 7.41078 14.0712 7.38033 14.018C7.35047 13.9648 7.33554 13.904 7.33554 13.8357V12.7022H6.95524V13.8681C6.95524 13.999 6.98627 14.1136 7.04834 14.2117C7.1104 14.3099 7.19735 14.3865 7.30919 14.4414C7.42103 14.4958 7.5516 14.523 7.70092 14.523C7.84964 14.523 7.97992 14.4958 8.09176 14.4414C8.2036 14.3865 8.29055 14.3099 8.35262 14.2117C8.41527 14.1136 8.44659 13.999 8.44659 13.8681V12.7022ZM6.21461 13.1694C6.23686 13.2021 6.25413 13.2398 6.26643 13.2825H6.65288C6.64058 13.1937 6.61277 13.1124 6.56944 13.0388C6.52611 12.9646 6.47019 12.9006 6.40169 12.8468C6.33376 12.793 6.25589 12.7516 6.16806 12.7223C6.08023 12.6925 5.98537 12.6776 5.88349 12.6776C5.76462 12.6776 5.65425 12.6984 5.55237 12.7399C5.45048 12.7814 5.36119 12.8418 5.28448 12.9213C5.20778 13.0008 5.14805 13.0978 5.10531 13.2124C5.06315 13.3263 5.04207 13.4561 5.04207 13.6016C5.04207 13.791 5.0775 13.9546 5.14835 14.0925C5.21978 14.2299 5.31932 14.3359 5.44697 14.4107C5.57462 14.485 5.72276 14.5221 5.89139 14.5221C6.04246 14.5221 6.17655 14.4917 6.29365 14.4309C6.41076 14.3695 6.50269 14.2825 6.56944 14.1697C6.63619 14.0563 6.66957 13.9207 6.66957 13.7629V13.5367H5.91686V13.8225H6.30319C6.30164 13.8943 6.28528 13.9568 6.25413 14.0101C6.22193 14.0662 6.17508 14.1098 6.1136 14.1407C6.05271 14.1711 5.97922 14.1863 5.89315 14.1863C5.79829 14.1863 5.71602 14.1635 5.64635 14.1179C5.57667 14.0718 5.5228 14.0049 5.48474 13.9172C5.44668 13.8295 5.42765 13.7232 5.42765 13.5981C5.42765 13.473 5.44697 13.3672 5.48562 13.2808C5.52426 13.1937 5.57813 13.1273 5.64722 13.0818C5.7169 13.0362 5.79771 13.0134 5.88963 13.0134C5.93882 13.0134 5.98361 13.0195 6.02402 13.0318C6.065 13.0441 6.10131 13.0619 6.13292 13.0853C6.16513 13.1081 6.19236 13.1361 6.21461 13.1694ZM6.30319 13.8225L6.30332 13.8111L6.38061 13.8225H6.30319ZM9.85243 14.0881H9.20296L9.06953 14.4975H8.662L9.28296 12.7022H9.77305L10.3931 14.4975H9.9856L9.85243 14.0881ZM9.75604 13.7918H9.29954L9.52098 13.1124H9.53503L9.75604 13.7918ZM11.6564 13.7956L11.6465 13.8L12.0281 14.4975H11.6083L11.2675 13.8611H10.9899V14.4975H10.6096V12.7022H11.3193C11.4551 12.7022 11.5711 12.7264 11.6671 12.7749C11.7637 12.8229 11.8372 12.8909 11.8876 12.9792C11.9385 13.0668 11.964 13.17 11.964 13.2886C11.964 13.4079 11.9382 13.5104 11.8867 13.5963C11.8352 13.6817 11.7605 13.7471 11.6627 13.7927L11.6564 13.7956ZM10.9899 13.556V13.0125H11.2464C11.3196 13.0125 11.3802 13.0233 11.4282 13.0449C11.4768 13.066 11.5128 13.0969 11.5362 13.1379C11.5603 13.1788 11.5723 13.229 11.5723 13.2886C11.5723 13.3477 11.5603 13.3971 11.5362 13.4368C11.5128 13.4765 11.4771 13.5063 11.4291 13.5262C11.3811 13.5461 11.3208 13.556 11.2482 13.556H10.9899ZM12.5428 14.4975H12.1352L12.7562 12.7022H13.2463L13.8664 14.4975H13.4588L13.3257 14.0881H12.6762L12.5428 14.4975ZM13.2293 13.7918L13.0083 13.1124H12.9942L12.7728 13.7918H13.2293ZM15.5874 14.4975V12.7022H15.2089V13.8313H15.1931L14.4166 12.7022H14.0829V14.4975H14.4632V13.3675H14.4764L15.2589 14.4975H15.5874ZM15.8331 13.0151V12.7022H17.3104V13.0151H16.7597V14.4975H16.3838V13.0151H15.8331ZM17.8743 12.7022H17.4483L18.1044 13.8628V14.4975H18.4821V13.8628L19.1382 12.7022H18.7122L18.302 13.4754H18.2845L17.8743 12.7022Z" fill="black"/>
<path fill-rule="evenodd" clip-rule="evenodd" d="M12 3L4.63636 6.27273V11.1818C4.63636 15.7227 7.77818 19.9691 12 21C16.2218 19.9691 19.3636 15.7227 19.3636 11.1818V6.27273L12 3ZM6.21461 13.1694C6.23686 13.2021 6.25413 13.2398 6.26643 13.2825H6.65288C6.64058 13.1937 6.61277 13.1124 6.56944 13.0388C6.52611 12.9646 6.47019 12.9006 6.40169 12.8468C6.33376 12.793 6.25589 12.7516 6.16806 12.7223C6.08023 12.6925 5.98537 12.6776 5.88349 12.6776C5.76462 12.6776 5.65425 12.6984 5.55237 12.7399C5.45048 12.7814 5.36119 12.8418 5.28448 12.9213C5.20778 13.0008 5.14805 13.0978 5.10531 13.2124C5.06315 13.3263 5.04207 13.4561 5.04207 13.6016C5.04207 13.791 5.0775 13.9546 5.14835 14.0925C5.21978 14.2299 5.31932 14.3359 5.44697 14.4107C5.57462 14.485 5.72276 14.5221 5.89139 14.5221C6.04246 14.5221 6.17655 14.4917 6.29365 14.4309C6.41076 14.3695 6.50269 14.2825 6.56944 14.1697C6.63619 14.0563 6.66957 13.9207 6.66957 13.7629V13.5367H5.91686V13.8225H6.30319C6.30164 13.8943 6.28528 13.9568 6.25413 14.0101C6.22193 14.0662 6.17508 14.1098 6.1136 14.1407C6.05271 14.1711 5.97922 14.1863 5.89315 14.1863C5.79829 14.1863 5.71602 14.1635 5.64635 14.1179C5.57667 14.0718 5.5228 14.0049 5.48474 13.9172C5.44668 13.8295 5.42765 13.7232 5.42765 13.5981C5.42765 13.473 5.44697 13.3672 5.48562 13.2808C5.52426 13.1937 5.57813 13.1273 5.64722 13.0818C5.7169 13.0362 5.79771 13.0134 5.88963 13.0134C5.93882 13.0134 5.98361 13.0195 6.02402 13.0318C6.065 13.0441 6.10131 13.0619 6.13292 13.0853C6.16513 13.1081 6.19236 13.1361 6.21461 13.1694ZM6.30319 13.8225L6.30332 13.8111L6.38061 13.8225H6.30319ZM8.44659 12.7022H8.06629V13.8357C8.06629 13.904 8.05106 13.9648 8.02062 14.018C7.99075 14.0712 7.9483 14.113 7.89326 14.1434C7.83881 14.1738 7.77469 14.189 7.70092 14.189C7.62772 14.189 7.56361 14.1738 7.50857 14.1434C7.45353 14.113 7.41078 14.0712 7.38033 14.018C7.35047 13.9648 7.33554 13.904 7.33554 13.8357V12.7022H6.95524V13.8681C6.95524 13.999 6.98627 14.1136 7.04834 14.2117C7.1104 14.3099 7.19735 14.3865 7.30919 14.4414C7.42103 14.4958 7.5516 14.523 7.70092 14.523C7.84964 14.523 7.97992 14.4958 8.09176 14.4414C8.2036 14.3865 8.29055 14.3099 8.35262 14.2117C8.41527 14.1136 8.44659 13.999 8.44659 13.8681V12.7022ZM8.662 14.4975H9.06953L9.20296 14.0881H9.85243L9.9856 14.4975H10.3931L9.77305 12.7022H9.28296L8.662 14.4975ZM9.29954 13.7918H9.75604L9.53503 13.1124H9.52098L9.29954 13.7918ZM10.9899 13.8611H11.2675L11.6083 14.4975H12.0281L11.6465 13.8L11.6564 13.7956L11.6627 13.7927C11.7605 13.7471 11.8352 13.6817 11.8867 13.5963C11.9382 13.5104 11.964 13.4079 11.964 13.2886C11.964 13.17 11.9385 13.0668 11.8876 12.9792C11.8372 12.8909 11.7637 12.8229 11.6671 12.7749C11.5711 12.7264 11.4551 12.7022 11.3193 12.7022H10.6096V14.4975H10.9899V13.8611ZM10.9899 13.556V13.0125H11.2464C11.3196 13.0125 11.3802 13.0233 11.4282 13.0449C11.4768 13.066 11.5128 13.0969 11.5362 13.1379C11.5603 13.1788 11.5723 13.229 11.5723 13.2886C11.5723 13.3477 11.5603 13.3971 11.5362 13.4368C11.5128 13.4765 11.4771 13.5063 11.4291 13.5262C11.3811 13.5461 11.3208 13.556 11.2482 13.556H10.9899ZM12.6762 14.0881H13.3257L13.4588 14.4975H13.8664L13.2463 12.7022H12.7562L12.1352 14.4975H12.5428L12.6762 14.0881ZM12.7728 13.7918H13.2293L13.0083 13.1124H12.9942L12.7728 13.7918ZM15.5874 12.7022V14.4975H15.2589L14.4764 13.3675H14.4632V14.4975H14.0829V12.7022H14.4166L15.1931 13.8313H15.2089V12.7022H15.5874ZM15.8331 12.7022V13.0151H16.3838V14.4975H16.7597V13.0151H17.3104V12.7022H15.8331ZM17.4483 12.7022H17.8743L18.2845 13.4754H18.302L18.7122 12.7022H19.1382L18.4821 13.8628V14.4975H18.1044V13.8628L17.4483 12.7022ZM9.58085 8.05619L10.0073 7.62973C10.0464 7.59067 10.1097 7.59068 10.1488 7.62975L11.257 8.73863C11.3351 8.81677 11.4617 8.81679 11.5398 8.73867L13.852 6.42653C13.8911 6.38746 13.9544 6.38749 13.9935 6.42658L14.4192 6.85298C14.4583 6.89204 14.4582 6.95532 14.4192 6.99436L11.5398 9.87302C11.4617 9.95109 11.3351 9.9511 11.257 9.87303L9.58087 8.19763C9.5418 8.15858 9.5418 8.09525 9.58085 8.05619Z" fill="black"/>
</svg>
