<svg width="17" height="16" viewBox="0 0 17 16" fill="none" xmlns="http://www.w3.org/2000/svg">
<path d="M8.66654 2L3.75745 4.18182V7.45455C3.75745 10.4818 5.85199 13.3127 8.66654 14C11.4811 13.3127 13.5756 10.4818 13.5756 7.45455V4.18182L8.66654 2Z" fill="black"/>
<path d="M7.45604 5.11021C7.41699 5.07113 7.35366 5.07112 7.3146 5.11018L7.07744 5.34734C7.03838 5.3864 7.03839 5.44973 7.07745 5.48878L8.12415 6.53503C8.20225 6.6131 8.32885 6.61309 8.40694 6.53502L10.2559 4.68658C10.2949 4.64755 10.2949 4.58426 10.2559 4.5452L10.0192 4.30812C9.98013 4.26902 9.91677 4.26899 9.8777 4.30807L8.40702 5.77875C8.32889 5.85687 8.20223 5.85685 8.12413 5.7787L7.45604 5.11021Z" fill="white"/>
<path fill-rule="evenodd" clip-rule="evenodd" d="M2.24255 7.4541C2.18464 7.4541 2.1501 7.51852 2.18222 7.56661L3.141 9.00205C3.17347 9.05067 3.17347 9.114 3.141 9.16262L2.18222 10.5981C2.1501 10.6462 2.18464 10.7106 2.24255 10.7106H14.6596C14.7175 10.7106 14.7521 10.6462 14.72 10.5981L13.7612 9.16262C13.7287 9.114 13.7287 9.05067 13.7612 9.00205L14.72 7.56661C14.7521 7.51852 14.7175 7.4541 14.6596 7.4541L2.24255 7.4541ZM6.18933 8.48358H5.93579V9.23925C5.93579 9.28483 5.92564 9.32535 5.90535 9.36081C5.88544 9.39627 5.85714 9.42412 5.82044 9.44438C5.78414 9.46464 5.7414 9.47477 5.69221 9.47477C5.64342 9.47477 5.60067 9.46464 5.56398 9.44438C5.52729 9.42412 5.49879 9.39627 5.47849 9.36081C5.45858 9.32535 5.44863 9.28483 5.44863 9.23925V8.48358H5.19509V9.26087C5.19509 9.34815 5.21578 9.42451 5.25716 9.48997C5.29854 9.55542 5.3565 9.60646 5.43106 9.64309C5.50562 9.67932 5.59267 9.69744 5.69221 9.69744C5.79136 9.69744 5.87822 9.67932 5.95277 9.64309C6.02733 9.60646 6.0853 9.55542 6.12668 9.48997C6.16845 9.42451 6.18933 9.34815 6.18933 9.26087V8.48358ZM4.70134 8.79508C4.71617 8.8169 4.72769 8.84203 4.73589 8.87048H4.99352C4.98532 8.81125 4.96678 8.7571 4.9379 8.708C4.90901 8.65852 4.87173 8.61586 4.82606 8.58001C4.78078 8.54417 4.72886 8.51651 4.67031 8.49703C4.61175 8.47716 4.54851 8.46722 4.48059 8.46722C4.40135 8.46722 4.32777 8.48105 4.25985 8.50871C4.19192 8.53638 4.13239 8.5767 4.08126 8.62969C4.03012 8.68268 3.9903 8.74736 3.96181 8.82372C3.9337 8.8997 3.91965 8.98619 3.91965 9.08321C3.91965 9.20944 3.94327 9.31854 3.9905 9.41049C4.03812 9.50205 4.10448 9.57276 4.18958 9.62263C4.27468 9.67212 4.37344 9.69686 4.48586 9.69686C4.58657 9.69686 4.67597 9.6766 4.75404 9.63608C4.83211 9.59517 4.8934 9.53711 4.9379 9.46192C4.9824 9.38633 5.00465 9.29594 5.00465 9.19074V9.03996H4.50284V9.23048H4.7604C4.75936 9.27833 4.74846 9.32002 4.72769 9.35555C4.70622 9.39295 4.67499 9.42198 4.634 9.44263C4.59341 9.46289 4.54442 9.47302 4.48703 9.47302C4.4238 9.47302 4.36895 9.45783 4.3225 9.42743C4.27605 9.39666 4.24013 9.35204 4.21476 9.2936C4.18939 9.23516 4.1767 9.16425 4.1767 9.08087C4.1767 8.99749 4.18958 8.92697 4.21535 8.86931C4.24111 8.81125 4.27702 8.76703 4.32308 8.73664C4.36954 8.70625 4.42341 8.69106 4.48469 8.69106C4.51748 8.69106 4.54734 8.69515 4.57428 8.70333C4.6016 8.71151 4.62581 8.72339 4.64688 8.73898C4.66835 8.75417 4.68651 8.77288 4.70134 8.79508ZM4.7604 9.23048L4.76048 9.22289L4.81201 9.23048H4.7604ZM7.12655 9.40756H6.69358L6.60462 9.68049H6.33293L6.74691 8.48358H7.07364L7.48702 9.68049H7.21534L7.12655 9.40756ZM7.06229 9.21003H6.75796L6.90559 8.7571H6.91496L7.06229 9.21003ZM8.32923 9.21254L8.32257 9.2155L8.577 9.68049H8.29711L8.06997 9.2562H7.88489V9.68049H7.63136V8.48358H8.10447C8.19503 8.48358 8.27232 8.49975 8.33634 8.53209C8.40075 8.56404 8.44974 8.60943 8.48331 8.66826C8.51727 8.72671 8.53425 8.79547 8.53425 8.87457C8.53425 8.95405 8.51708 9.02243 8.48273 9.0797C8.44838 9.13658 8.3986 9.18022 8.33341 9.21061L8.32923 9.21254ZM7.88489 9.05282V8.69047H8.05587C8.10467 8.69047 8.14507 8.69768 8.17708 8.7121C8.20948 8.72612 8.23348 8.74677 8.2491 8.77404C8.2651 8.80132 8.27311 8.83483 8.27311 8.87457C8.27311 8.91392 8.2651 8.94684 8.2491 8.97333C8.23348 8.99983 8.20967 9.0197 8.17766 9.03295C8.14565 9.04619 8.10545 9.05282 8.05704 9.05282H7.88489ZM8.92012 9.68049H8.64843L9.06241 8.48358H9.38914L9.80252 9.68049H9.53083L9.44205 9.40756H9.00908L8.92012 9.68049ZM9.37779 9.21003L9.23046 8.7571H9.22109L9.07346 9.21003H9.37779ZM10.9499 9.68049V8.48358H10.6975V9.23633H10.687L10.1694 8.48358H9.94686V9.68049H10.2004V8.92716H10.2092L10.7309 9.68049H10.9499ZM11.1137 8.69222V8.48358H12.0986V8.69222H11.7314V9.68049H11.4808V8.69222H11.1137ZM12.4745 8.48358H12.1905L12.6279 9.25737V9.68049H12.8797V9.25737L13.3171 8.48358H13.0331L12.7596 8.99905H12.7479L12.4745 8.48358Z" fill="white"/>
</svg>
