<!-- Generated by IcoMoon.io -->
<svg version="1.1" xmlns="http://www.w3.org/2000/svg" width="32" height="32" viewBox="0 0 32 32">
<title>heart-outline</title>
<path d="M16.16 27.36l-0.64-0.32-0.48-0.32c-0.32-0.32-0.8-0.64-1.44-0.96-0.96-0.8-2.56-1.92-4.16-3.36-1.76-1.6-3.2-3.2-4.16-4.8-1.44-2.080-2.080-3.84-2.080-5.6 0-4 3.2-7.2 7.2-7.2 2.24 0 4.32 0.96 5.6 2.56 1.44-1.6 3.36-2.56 5.6-2.56 4 0 7.2 3.2 7.2 7.2 0 1.76-0.64 3.68-2.080 5.6-0.96 1.44-2.4 3.040-4.16 4.8-1.6 1.44-3.040 2.72-4.16 3.36-0.64 0.48-1.12 0.8-1.44 0.96l-0.8 0.64zM10.4 7.040c-2.88 0-5.12 2.24-5.12 4.96 0 1.28 0.48 2.72 1.6 4.32 1.12 1.44 2.4 2.88 4 4.48 1.44 1.44 3.040 2.56 4 3.2 0.48 0.32 0.96 0.64 1.12 0.8 0.32-0.16 0.64-0.48 1.12-0.8 0.96-0.8 2.4-1.92 4-3.2 1.6-1.6 2.88-3.040 3.84-4.32 1.12-1.6 1.6-3.040 1.6-4.32 0-2.72-2.24-4.96-5.12-4.96-1.92 0-3.68 1.12-4.64 2.72l-0.8 0.96-0.8-1.28c-1.12-1.6-2.88-2.56-4.8-2.56z"></path>
</svg>
