<!-- Generated by IcoMoon.io -->
<svg version="1.1" xmlns="http://www.w3.org/2000/svg" width="32" height="32" viewBox="0 0 32 32">
<path d="M15.933 24c0.467 0 0.861-0.161 1.183-0.483s0.483-0.717 0.483-1.183c0-0.467-0.161-0.861-0.483-1.183s-0.717-0.483-1.183-0.483c-0.467 0-0.861 0.161-1.183 0.483s-0.483 0.717-0.483 1.183c0 0.467 0.161 0.861 0.483 1.183s0.717 0.483 1.183 0.483zM14.733 18.867h2.467c0-0.733 0.083-1.311 0.25-1.733s0.639-1 1.417-1.733c0.578-0.578 1.033-1.128 1.367-1.65s0.5-1.15 0.5-1.883c0-1.244-0.456-2.2-1.367-2.867s-1.989-1-3.233-1c-1.267 0-2.294 0.333-3.083 1s-1.339 1.467-1.65 2.4l2.2 0.867c0.111-0.4 0.361-0.833 0.75-1.3s0.983-0.7 1.783-0.7c0.711 0 1.244 0.194 1.6 0.583s0.533 0.817 0.533 1.283c0 0.444-0.133 0.861-0.4 1.25s-0.6 0.75-1 1.083c-0.978 0.867-1.578 1.522-1.8 1.967s-0.333 1.256-0.333 2.433zM16 29.333c-1.844 0-3.578-0.35-5.2-1.050s-3.033-1.65-4.233-2.85c-1.2-1.2-2.15-2.611-2.85-4.233s-1.050-3.356-1.050-5.2c0-1.844 0.35-3.578 1.050-5.2s1.65-3.033 2.85-4.233c1.2-1.2 2.611-2.15 4.233-2.85s3.356-1.050 5.2-1.050c1.844 0 3.578 0.35 5.2 1.050s3.033 1.65 4.233 2.85c1.2 1.2 2.15 2.611 2.85 4.233s1.050 3.356 1.050 5.2c0 1.844-0.35 3.578-1.050 5.2s-1.65 3.033-2.85 4.233c-1.2 1.2-2.611 2.15-4.233 2.85s-3.356 1.050-5.2 1.050zM16 26.667c2.978 0 5.5-1.033 7.567-3.1s3.1-4.589 3.1-7.567c0-2.978-1.033-5.5-3.1-7.567s-4.589-3.1-7.567-3.1c-2.978 0-5.5 1.033-7.567 3.1s-3.1 4.589-3.1 7.567c0 2.978 1.033 5.5 3.1 7.567s4.589 3.1 7.567 3.1z"></path>
</svg>
