<svg width="24" height="24" viewBox="0 0 24 24" fill="none" xmlns="http://www.w3.org/2000/svg">
<path d="M14.5449 8.62301C14.9513 9.02951 15.2653 9.52343 15.4872 10.1048C15.709 10.6863 15.7929 11.2699 15.7389 11.8558C15.7389 12.0481 15.6698 12.2109 15.5314 12.3443C15.3929 12.4776 15.2275 12.5443 15.0352 12.5443C14.8428 12.5443 14.68 12.4776 14.5467 12.3443C14.4133 12.2109 14.3467 12.0481 14.3467 11.8558C14.4108 11.4161 14.3747 10.9994 14.2382 10.6058C14.1017 10.2123 13.8918 9.87385 13.6084 9.59051C13.3251 9.30718 12.9834 9.0921 12.5834 8.94526C12.1834 8.79843 11.7616 8.76026 11.3179 8.83076C11.1256 8.83726 10.9596 8.77285 10.8199 8.63751C10.6801 8.50235 10.607 8.3386 10.6007 8.14626C10.5942 7.95393 10.656 7.78785 10.7862 7.64801C10.9163 7.50835 11.0776 7.43534 11.2699 7.42901C11.8519 7.36234 12.4368 7.43826 13.0247 7.65676C13.6125 7.87543 14.1193 8.19751 14.5449 8.62301ZM11.6679 6.00001C11.3128 6.00001 10.9643 6.01735 10.6227 6.05201C10.281 6.08651 9.94092 6.14351 9.60242 6.22301C9.38959 6.26668 9.19792 6.23626 9.02742 6.13176C8.85692 6.02726 8.73967 5.87693 8.67567 5.68076C8.6115 5.47826 8.63267 5.28568 8.73917 5.10301C8.8455 4.92035 8.99992 4.80718 9.20242 4.76351C9.60509 4.66734 10.0118 4.59943 10.4227 4.55976C10.8337 4.51993 11.2488 4.50001 11.6679 4.50001C13.8166 4.50001 15.7903 5.05835 17.5892 6.17501C19.3878 7.29168 20.7711 8.8026 21.7389 10.7078C21.8056 10.8346 21.854 10.9624 21.8842 11.0913C21.9143 11.2201 21.9294 11.3563 21.9294 11.5C21.9294 11.6437 21.9169 11.7799 21.8919 11.9088C21.8669 12.0376 21.8211 12.1654 21.7544 12.2923C21.4481 12.9333 21.0757 13.531 20.6372 14.0855C20.1987 14.64 19.7159 15.1493 19.1889 15.6135C19.0339 15.752 18.8568 15.8093 18.6574 15.7855C18.4579 15.7618 18.2941 15.6622 18.1659 15.4865C18.0378 15.3108 17.9846 15.1224 18.0064 14.9213C18.0283 14.7199 18.1167 14.55 18.2717 14.4115C18.723 14.0025 19.1346 13.5554 19.5064 13.0703C19.8783 12.5849 20.1988 12.0615 20.4679 11.5C19.6346 9.81668 18.4304 8.47918 16.8554 7.48751C15.2804 6.49585 13.5513 6.00001 11.6679 6.00001ZM11.6679 18.5C9.56275 18.5 7.63325 17.9375 5.87942 16.8125C4.12559 15.6875 2.73142 14.2058 1.69692 12.3673C1.61359 12.2404 1.55267 12.1026 1.51417 11.9538C1.47567 11.8051 1.45642 11.6538 1.45642 11.5C1.45642 11.3462 1.47309 11.1974 1.50642 11.0538C1.53975 10.9103 1.59809 10.7699 1.68142 10.6328C2.05325 9.95326 2.47442 9.3061 2.94492 8.69126C3.41542 8.0766 3.95642 7.52568 4.56792 7.03851L2.31017 4.76526C2.17184 4.6166 2.10359 4.44001 2.10542 4.23551C2.10742 4.03101 2.18084 3.85635 2.32567 3.71151C2.4705 3.56668 2.64617 3.49426 2.85267 3.49426C3.059 3.49426 3.23459 3.56668 3.37942 3.71151L19.9564 20.2885C20.0949 20.427 20.1683 20.5984 20.1767 20.8028C20.185 21.0073 20.1116 21.1871 19.9564 21.3423C19.8116 21.4871 19.6359 21.5595 19.4294 21.5595C19.2231 21.5595 19.0475 21.4871 18.9027 21.3423L15.3834 17.8538C14.7936 18.0819 14.1874 18.2467 13.5649 18.348C12.9426 18.4493 12.3103 18.5 11.6679 18.5ZM5.62192 8.09226C5.03592 8.54493 4.50925 9.05676 4.04192 9.62776C3.57459 10.1989 3.18325 10.823 2.86792 11.5C3.70125 13.1833 4.90542 14.5208 6.48042 15.5125C8.05542 16.5042 9.78459 17 11.6679 17C12.0974 17 12.5202 16.9712 12.9362 16.9135C13.3522 16.8558 13.7653 16.7668 14.1757 16.6463L12.9102 15.35C12.7077 15.4385 12.5054 15.4984 12.3034 15.5298C12.1016 15.5613 11.8898 15.577 11.6679 15.577C10.5333 15.577 9.57009 15.1812 8.77842 14.3895C7.98675 13.5978 7.59092 12.6347 7.59092 11.5C7.59092 11.2782 7.60825 11.0663 7.64292 10.8645C7.67759 10.6625 7.73592 10.4603 7.81792 10.2578L5.62192 8.09226Z" fill="#1C1B1F"/>
</svg>
