<svg width="24" height="24" viewBox="0 0 24 24" fill="none" xmlns="http://www.w3.org/2000/svg">
<path d="M19.2943 21.3423L15.775 17.8538C15.1852 18.0819 14.579 18.2467 13.9565 18.348C13.3342 18.4493 12.7019 18.5 12.0595 18.5C9.95438 18.5 8.02646 17.9401 6.2758 16.8203C4.5253 15.7003 3.13788 14.2243 2.11355 12.3923C2.03021 12.2488 1.9693 12.1026 1.9308 11.9538C1.8923 11.8051 1.87305 11.6538 1.87305 11.5C1.87305 11.3462 1.89388 11.1933 1.93555 11.0413C1.97721 10.8894 2.03971 10.7449 2.12305 10.6078C2.52171 9.94493 2.94546 9.30359 3.3943 8.68376C3.84296 8.06376 4.36471 7.51535 4.95955 7.03851L2.7018 4.76526C2.56346 4.62693 2.49263 4.45551 2.4893 4.25101C2.48613 4.04651 2.56213 3.86668 2.7173 3.71151C2.86213 3.56668 3.0378 3.49426 3.2443 3.49426C3.45063 3.49426 3.62621 3.56668 3.77105 3.71151L20.348 20.2885C20.4865 20.427 20.56 20.5984 20.5683 20.8028C20.5766 21.0073 20.5032 21.1871 20.348 21.3423C20.2032 21.4871 20.0275 21.5595 19.821 21.5595C19.6147 21.5595 19.4391 21.4871 19.2943 21.3423ZM12.0595 15.577C12.2814 15.577 12.4932 15.5638 12.695 15.5375C12.897 15.5112 13.0942 15.4538 13.2865 15.3653L8.1943 10.273C8.11213 10.4653 8.0563 10.6625 8.0268 10.8645C7.9973 11.0663 7.98255 11.2782 7.98255 11.5C7.98255 12.6347 8.37838 13.5978 9.17005 14.3895C9.96171 15.1812 10.9249 15.577 12.0595 15.577ZM12.0595 4.50001C14.171 4.50001 16.1079 5.06251 17.87 6.18751C19.6322 7.31251 21.0223 8.79743 22.0403 10.6423C22.1171 10.7693 22.1764 10.9055 22.218 11.051C22.2597 11.1965 22.2805 11.3462 22.2805 11.5C22.2805 11.6538 22.2623 11.8035 22.2258 11.949C22.1893 12.0945 22.1325 12.2308 22.0555 12.3578C21.7517 12.9359 21.412 13.4808 21.0365 13.9923C20.6609 14.5038 20.241 14.9852 19.7768 15.4365C19.5691 15.6442 19.323 15.7397 19.0383 15.723C18.7538 15.7063 18.5076 15.5942 18.2998 15.3865L16.2038 13.3C16.1 13.1962 16.0314 13.0763 15.998 12.9403C15.9647 12.8044 15.9666 12.6628 16.0038 12.5153C16.0511 12.3436 16.085 12.1769 16.1055 12.0153C16.1262 11.8538 16.1365 11.682 16.1365 11.5C16.1365 10.3653 15.7407 9.40218 14.949 8.61051C14.1574 7.81885 13.1942 7.42301 12.0595 7.42301C11.8775 7.42301 11.7074 7.43493 11.549 7.45876C11.3907 7.48243 11.2288 7.51801 11.0633 7.56551C10.916 7.60901 10.7685 7.6141 10.621 7.58076C10.4737 7.54743 10.3481 7.47885 10.2443 7.37501L9.3133 6.44426C9.0288 6.1596 8.9343 5.82818 9.0298 5.45001C9.1253 5.07185 9.36538 4.83085 9.75005 4.72701C10.1282 4.65001 10.509 4.59293 10.8923 4.55576C11.2756 4.5186 11.6647 4.50001 12.0595 4.50001ZM13.996 9.61151C14.1987 9.83468 14.3657 10.085 14.497 10.3625C14.6284 10.64 14.7107 10.9301 14.744 11.2328C14.7607 11.3533 14.7155 11.4369 14.6085 11.4838C14.5015 11.5304 14.4012 11.507 14.3075 11.4135L12.1615 9.27701C12.0679 9.18335 12.047 9.08301 12.099 8.97601C12.1509 8.86901 12.237 8.81551 12.3575 8.81551C12.6807 8.84235 12.9788 8.92343 13.2518 9.05876C13.525 9.19393 13.773 9.37818 13.996 9.61151Z" fill="#1C1B1F"/>
</svg>
