<!-- Generated by IcoMoon.io -->
<svg version="1.1" xmlns="http://www.w3.org/2000/svg" width="32" height="32" viewBox="0 0 32 32">
<title>home</title>
<path d="M26.933 30.4h-21.867c-0.8 0-1.333-0.533-1.333-1.333v-10.667h-0.533c-1.067 0-2-0.667-2.4-1.6-0.4-1.067-0.133-2.133 0.667-2.8l11.733-11.067c1.6-1.467 4-1.467 5.6 0l11.733 11.067c0.8 0.667 1.067 1.733 0.667 2.8s-1.333 1.733-2.4 1.733h-0.4v10.667c-0.133 0.533-0.667 1.2-1.467 1.2zM6.4 27.733h19.333v-10.667c0-0.8 0.533-1.333 1.333-1.333h1.467l-11.6-10.933c-0.533-0.533-1.333-0.533-1.867 0l-11.6 10.933h1.467c0.8 0 1.333 0.533 1.333 1.333v10.667z"></path>
<path d="M20 30.4h-8c-0.8 0-1.333-0.533-1.333-1.333v-6c0-2.933 2.4-5.333 5.333-5.333s5.333 2.4 5.333 5.333v6c0 0.667-0.533 1.333-1.333 1.333zM13.333 27.733h5.333v-4.667c0-1.467-1.2-2.667-2.667-2.667s-2.667 1.2-2.667 2.667v4.667z"></path>
</svg>
