<svg width="24" height="24" viewBox="0 0 24 24" fill="none" xmlns="http://www.w3.org/2000/svg">
<path d="M4.54346 19.473V10.6268C4.54346 10.3406 4.60746 10.0695 4.73546 9.81351C4.86362 9.55735 5.04062 9.34643 5.26646 9.18076L10.959 4.89226C11.2748 4.65126 11.6358 4.53076 12.042 4.53076C12.4481 4.53076 12.8101 4.65126 13.128 4.89226L18.8205 9.18076C19.0463 9.34643 19.2233 9.55735 19.3515 9.81351C19.4795 10.0695 19.5435 10.3406 19.5435 10.6268V19.473C19.5435 19.882 19.3957 20.2343 19.1002 20.5298C18.8047 20.8253 18.4525 20.973 18.0435 20.973H14.8512C14.595 20.973 14.3804 20.8863 14.2072 20.713C14.0339 20.5398 13.9472 20.3252 13.9472 20.069V15.1845C13.9472 14.9285 13.8606 14.7138 13.6875 14.5405C13.5143 14.3673 13.2996 14.2808 13.0435 14.2808H11.0435C10.7873 14.2808 10.5726 14.3673 10.3995 14.5405C10.2263 14.7138 10.1397 14.9285 10.1397 15.1845V20.069C10.1397 20.3252 10.053 20.5398 9.87971 20.713C9.70654 20.8863 9.49187 20.973 9.23571 20.973H6.04346C5.63446 20.973 5.28221 20.8253 4.98671 20.5298C4.69121 20.2343 4.54346 19.882 4.54346 19.473Z" fill="#1C1B1F"/>
</svg>
