<!-- Generated by IcoMoon.io -->
<svg version="1.1" xmlns="http://www.w3.org/2000/svg" width="32" height="32" viewBox="0 0 32 32">
<title>home-rounded</title>
<path d="M23.1 28.8h-14.2c-3.1 0-5.7-2.7-5.7-5.9v-9.3c0-2.1 1.1-4 2.7-5.1l7.1-4.5c1.8-1.1 4.1-1.1 5.9 0l7.1 4.5c1.7 1.1 2.7 3 2.7 5.1v9.3c0.1 3.2-2.5 5.9-5.6 5.9zM16 6.1c-0.5 0-1 0.1-1.4 0.4l-7.1 4.5c-0.9 0.5-1.4 1.5-1.4 2.6v9.3c0 1.7 1.3 3 2.8 3h14.2c1.5 0 2.8-1.4 2.8-3v-9.3c0-1.1-0.5-2.1-1.4-2.6l-7.1-4.5c-0.4-0.3-0.9-0.4-1.4-0.4z"></path>
<path d="M11.7 21.6c-0.7 0-1.3 0.6-1.3 1.3s0.6 1.3 1.3 1.3c0 0 0-2.6 0-2.6zM20.3 24.2c0.7 0 1.3-0.6 1.3-1.3s-0.6-1.3-1.3-1.3c0 0 0 2.6 0 2.6zM11.7 24.2h8.5v-2.6h-8.5c0 0 0 2.6 0 2.6z"></path>
</svg>
