<!-- Generated by IcoMoon.io -->
<svg version="1.1" xmlns="http://www.w3.org/2000/svg" width="32" height="32" viewBox="0 0 32 32">
<title>home-rounded</title>
<path d="M15.181 1.612c0.481-0.374 1.156-0.374 1.637 0l12 9.333c0.325 0.253 0.515 0.641 0.515 1.052v14.667c0 1.061-0.421 2.078-1.172 2.828s-1.768 1.172-2.828 1.172h-18.667c-1.061 0-2.078-0.421-2.828-1.172s-1.172-1.768-1.172-2.828v-14.667c0-0.411 0.19-0.8 0.515-1.052l12-9.333zM5.333 12.65v14.015c0 0.354 0.14 0.693 0.391 0.943s0.589 0.391 0.943 0.391h18.667c0.354 0 0.693-0.14 0.943-0.391s0.391-0.589 0.391-0.943v-14.015l-10.667-8.296-10.667 8.296z"></path>
<path d="M10.666 16.002c0-0.736 0.597-1.333 1.333-1.333h8c0.736 0 1.333 0.597 1.333 1.333v13.333c0 0.736-0.597 1.333-1.333 1.333s-1.333-0.597-1.333-1.333v-12h-5.333v12c0 0.736-0.597 1.333-1.333 1.333s-1.333-0.597-1.333-1.333v-13.333z"></path>
</svg>
