<?xml version="1.0" encoding="UTF-8"?>
<svg id="Layer_1" data-name="Layer 1" xmlns="http://www.w3.org/2000/svg" version="1.1" viewBox="0 0 24 24">
  <defs>
    <style>
      .cls-1 {
        fill: #000;
        stroke-width: 0px;
      }
    </style>
  </defs>
  <path class="cls-1" d="M11.4,2.2c.3-.3.8-.3,1.1,0l8.2,6.4c.2.2.4.4.4.7v10c0,.7-.3,1.4-.8,1.9s-1.2.8-1.9.8H5.6c-.7,0-1.4-.3-1.9-.8s-.8-1.2-.8-1.9v-10c0-.3.1-.5.4-.7,0,0,8.2-6.4,8.2-6.4ZM4.7,9.7v9.6c0,.2,0,.5.3.6s.4.3.6.3h12.7c.2,0,.5,0,.6-.3s.3-.4.3-.6v-9.6l-7.3-5.7-7.3,5.7h0Z"/>
  <path class="cls-1" d="M8.4,12c0-.5.4-.9.9-.9h5.5c.5,0,.9.4.9.9v9.1c0,.5-.4.9-.9.9s-.9-.4-.9-.9v-8.2h-3.6v8.2c0,.5-.4.9-.9.9s-.9-.4-.9-.9v-9.1h0Z"/>
</svg>