<?xml version="1.0" encoding="UTF-8"?>
<svg id="Layer_1" data-name="Layer 1" xmlns="http://www.w3.org/2000/svg" version="1.1" viewBox="0 0 20 20">
  <defs>
    <style>
      .cls-1 {
        fill: #18181b;
        stroke-width: 0px;
      }
    </style>
  </defs>
  <path class="cls-1" d="M15,2.4v1.1c0,0,0,.2.2.2h1.3v12.9H3.6V3.7h1.3c0,0,.2,0,.2-.2v-1.1c0,0,0-.2-.2-.2h-2.1c-.3,0-.6.3-.6.6v14.5c0,.3.3.6.6.6h14.5c.3,0,.6-.3.6-.6V2.9c0-.3-.3-.6-.6-.6h-2.1c0,0-.2,0-.2.2ZM9.3,2.2v6.4h-1.6c-.1,0-.2.2-.1.3l2.3,2.9s0,0,0,0c0,0,0,0,0,0s0,0,0,0c0,0,0,0,0,0l2.3-2.9c0-.1,0-.3-.1-.3h-1.6V2.2c0,0,0-.2-.2-.2h-1.1c0,0-.2,0-.2.2Z"/>
</svg>