<!-- Generated by IcoMoon.io -->
<svg version="1.1" xmlns="http://www.w3.org/2000/svg" width="32" height="32" viewBox="0 0 32 32">
<path d="M17.333 4.333c-0.265 0-0.52 0.105-0.707 0.293s-0.293 0.442-0.293 0.707 0.105 0.52 0.293 0.707c0.187 0.188 0.442 0.293 0.707 0.293 2.564 0 5.023 1.018 6.835 2.831s2.831 4.272 2.831 6.835-1.018 5.023-2.831 6.835c-1.813 1.813-4.272 2.831-6.835 2.831-0.265 0-0.52 0.105-0.707 0.293s-0.293 0.442-0.293 0.707 0.105 0.52 0.293 0.707c0.187 0.188 0.442 0.293 0.707 0.293 3.094 0 6.062-1.229 8.25-3.417s3.417-5.155 3.417-8.25c0-3.094-1.229-6.062-3.417-8.25s-5.155-3.417-8.25-3.417z"></path>
<path d="M13.96 12.706c-0.177-0.19-0.273-0.44-0.268-0.699s0.11-0.506 0.293-0.689 0.43-0.288 0.689-0.293c0.259-0.005 0.51 0.092 0.699 0.268l4 4c0.187 0.188 0.292 0.442 0.292 0.707s-0.105 0.519-0.292 0.707l-4 4c-0.092 0.098-0.202 0.177-0.325 0.232s-0.255 0.084-0.389 0.086c-0.134 0.002-0.268-0.022-0.392-0.073s-0.238-0.125-0.333-0.22c-0.095-0.095-0.17-0.208-0.22-0.333s-0.075-0.258-0.073-0.392 0.032-0.267 0.086-0.389c0.055-0.123 0.133-0.233 0.232-0.325l2.293-2.293h-10.92c-0.265 0-0.52-0.105-0.707-0.293s-0.293-0.442-0.293-0.707c0-0.265 0.105-0.519 0.293-0.707s0.442-0.293 0.707-0.293h10.92l-2.293-2.293z"></path>
</svg>
