<!-- Generated by IcoMoon.io -->
<svg version="1.1" xmlns="http://www.w3.org/2000/svg" width="32" height="32" viewBox="0 0 32 32">
<title>instagram</title>
<path d="M15.997 9.432c-3.634 0-6.568 2.933-6.568 6.568s2.933 6.568 6.568 6.568c3.634 0 6.568-2.933 6.568-6.568s-2.933-6.568-6.568-6.568zM15.997 20.268c-2.35 0-4.268-1.918-4.268-4.268s1.918-4.268 4.268-4.268c2.35 0 4.268 1.918 4.268 4.268s-1.918 4.268-4.268 4.268zM22.833 7.633c-0.849 0-1.534 0.685-1.534 1.534s0.685 1.534 1.534 1.534c0.848 0 1.534-0.682 1.534-1.534 0-0.201-0.039-0.401-0.116-0.587s-0.19-0.355-0.332-0.498c-0.142-0.142-0.312-0.255-0.498-0.332s-0.386-0.117-0.587-0.116v0zM28.799 16c0-1.768 0.016-3.519-0.083-5.284-0.099-2.049-0.567-3.868-2.065-5.367-1.502-1.502-3.317-1.966-5.367-2.065-1.768-0.099-3.519-0.083-5.284-0.083-1.768 0-3.519-0.016-5.284 0.083-2.049 0.099-3.868 0.567-5.367 2.065-1.502 1.502-1.966 3.317-2.065 5.367-0.099 1.768-0.083 3.519-0.083 5.284s-0.016 3.519 0.083 5.284c0.099 2.049 0.567 3.868 2.065 5.367 1.502 1.502 3.317 1.966 5.367 2.065 1.768 0.099 3.519 0.083 5.284 0.083 1.768 0 3.519 0.016 5.284-0.083 2.049-0.099 3.868-0.567 5.367-2.065 1.502-1.502 1.966-3.317 2.065-5.367 0.102-1.764 0.083-3.516 0.083-5.284v0zM25.981 23.551c-0.234 0.583-0.516 1.018-0.967 1.467-0.452 0.452-0.884 0.733-1.467 0.967-1.684 0.669-5.684 0.519-7.551 0.519s-5.87 0.151-7.554-0.516c-0.583-0.234-1.018-0.516-1.467-0.967-0.452-0.452-0.733-0.884-0.967-1.467-0.666-1.688-0.516-5.687-0.516-7.554s-0.151-5.87 0.516-7.554c0.234-0.583 0.516-1.018 0.967-1.467s0.884-0.733 1.467-0.967c1.684-0.666 5.687-0.516 7.554-0.516s5.87-0.151 7.554 0.516c0.583 0.234 1.018 0.516 1.467 0.967 0.452 0.452 0.733 0.884 0.967 1.467 0.666 1.684 0.516 5.687 0.516 7.554s0.151 5.866-0.519 7.551z"></path>
</svg>
