<svg width="16" height="16" viewBox="0 0 16 16" fill="none" xmlns="http://www.w3.org/2000/svg">
<path d="M1.54123 5.31745C1.45244 5.18456 1.5477 5.00635 1.70753 5.00635H14.2926C14.4524 5.00635 14.5476 5.18456 14.4589 5.31745L12.8152 7.77762C12.7253 7.91214 12.7253 8.08754 12.8152 8.22205L14.4589 10.6822C14.5476 10.8151 14.4524 10.9933 14.2926 10.9933H1.70753C1.5477 10.9933 1.45244 10.8151 1.54123 10.6822L3.18491 8.22205C3.27478 8.08754 3.27478 7.91214 3.18491 7.77762L1.54123 5.31745Z" fill="black"/>
<path d="M6.20994 6.7998V9.1998H5.77166L4.72751 7.68926H4.70994V9.1998H4.20251V6.7998H4.64783L5.68376 8.30918H5.70486V6.7998H6.20994Z" fill="white"/>
<path d="M6.62917 9.1998V6.7998H8.24636V7.21816H7.1366V7.79004H8.16316V8.2084H7.1366V8.78145H8.25105V9.1998H6.62917Z" fill="white"/>
<path d="M9.19001 9.1998L8.5033 6.7998H9.05759L9.45486 8.46738H9.47478L9.91306 6.7998H10.3877L10.8248 8.4709H10.8459L11.2431 6.7998H11.7974L11.1107 9.1998H10.6162L10.1592 7.63066H10.1404L9.68455 9.1998H9.19001Z" fill="white"/>
</svg>
