<svg width="17" height="16" viewBox="0 0 17 16" fill="none" xmlns="http://www.w3.org/2000/svg">
<path fill-rule="evenodd" clip-rule="evenodd" d="M11.689 10.2161C11.3374 10.4003 10.7057 10.9606 10.6833 11.1081C10.6547 11.296 10.6817 11.3649 10.8466 11.5251C11.0343 11.7075 11.8048 12.4813 12.5656 13.2515C13.2159 13.9099 13.2685 13.9496 13.5458 13.9921C14.0921 14.0758 14.6088 13.479 14.4662 12.929C14.4168 12.7386 14.4688 12.7959 12.7742 11.0631C12.4833 10.7657 12.1913 10.4627 12.1253 10.3898C11.9343 10.1789 11.8352 10.1395 11.689 10.2161ZM12.3847 11.0589C13.9212 12.5685 14.2272 12.9004 14.1439 12.9671C14.0586 13.0353 14.0488 13.0279 13.5145 12.4882C13.237 12.208 12.7189 11.6893 12.3632 11.3357C12.0074 10.982 11.7164 10.6818 11.7164 10.6685C11.7164 10.6451 11.8168 10.5314 11.8375 10.5314C11.8432 10.5314 12.0894 10.7688 12.3847 11.0589Z" fill="black"/>
<path d="M12.3847 11.0589C13.9212 12.5685 14.2272 12.9004 14.1439 12.9671C14.0586 13.0353 14.0488 13.0279 13.5145 12.4882C13.237 12.208 12.7189 11.6893 12.3632 11.3357C12.0074 10.982 11.7164 10.6818 11.7164 10.6685C11.7164 10.6451 11.8168 10.5314 11.8375 10.5314C11.8432 10.5314 12.0894 10.7688 12.3847 11.0589Z" fill="black"/>
<path d="M4.47225 7.97898C4.47225 8.36861 4.73238 8.59568 5.1179 8.59568H9.50774C9.89273 8.59568 10.1534 8.36861 10.1534 7.97898V7.86646H4.47225V7.97898Z" fill="white"/>
<path fill-rule="evenodd" clip-rule="evenodd" d="M10.2132 5.47096L9.88805 5.41213C9.86208 5.4074 9.83534 5.41195 9.81216 5.42504C9.78898 5.43813 9.77071 5.45899 9.76033 5.48425L9.65913 5.72271L9.61803 5.65737L9.33293 4.9558C9.28695 4.84199 9.21393 4.74225 9.12075 4.66598C9.02757 4.5897 8.91729 4.5394 8.80031 4.51981C8.30803 4.44191 7.81067 4.40406 7.31275 4.40661C6.81487 4.40419 6.31755 4.44217 5.82532 4.52022C5.70823 4.53971 5.59783 4.58997 5.50453 4.66625C5.41123 4.74253 5.33811 4.84232 5.29206 4.95621L5.0076 5.65669L4.96715 5.72109L4.86531 5.48357C4.85492 5.45832 4.83666 5.43745 4.81348 5.42436C4.7903 5.41127 4.76356 5.40672 4.73759 5.41145L4.41229 5.47096C4.38224 5.47603 4.35491 5.49209 4.33519 5.51626C4.31548 5.54044 4.30468 5.57114 4.30473 5.60287V5.66944C4.30473 5.69999 4.31476 5.72962 4.33314 5.75341C4.35152 5.77721 4.37716 5.79374 4.40579 5.80026L4.85113 5.90641L4.63783 6.24533C4.52987 6.41693 4.47237 6.61766 4.47238 6.82285V7.66338H10.1534V6.82285C10.1533 6.61764 10.0958 6.41692 9.98781 6.24533L9.77372 5.90478L10.2198 5.79999C10.2485 5.79346 10.2741 5.77693 10.2925 5.75314C10.3109 5.72934 10.3209 5.69971 10.3209 5.66917V5.6026C10.3209 5.5709 10.31 5.54024 10.2903 5.51612C10.2706 5.492 10.2432 5.47599 10.2132 5.47096ZM5.62478 4.82621C5.55759 4.88129 5.50506 4.9534 5.4722 5.03565L5.25304 5.57427H9.37221L9.15305 5.03552C9.12018 4.95333 9.06768 4.88128 9.00054 4.82623C8.9334 4.77117 8.85386 4.73495 8.76949 4.721C8.2874 4.64473 7.80036 4.60761 7.31275 4.60997C6.82515 4.60761 6.33811 4.64473 5.85602 4.721C5.77158 4.7349 5.69197 4.77113 5.62478 4.82621ZM4.95604 6.95075C4.98454 6.97794 5.02022 6.99559 5.05846 7.0014L5.91923 7.12802C5.91923 7.12802 5.65468 6.60377 5.58574 6.58168C5.51681 6.55958 5.00669 6.5265 5.00669 6.5265C4.93229 6.5265 4.89549 6.58656 4.88495 6.70857C4.88224 6.7558 4.88685 6.80318 4.89861 6.84888C4.90753 6.88807 4.92754 6.92356 4.95604 6.95075ZM7.30651 7.26549L8.32622 7.20475L8.5831 6.63835C8.5831 6.63835 7.67798 6.7205 7.31262 6.7205C6.94727 6.7205 6.0424 6.63835 6.0424 6.63835L6.29928 7.20624L7.30651 7.26549ZM9.66934 6.95129C9.69784 6.9241 9.71785 6.88861 9.72677 6.84943C9.73853 6.80372 9.74314 6.75634 9.74043 6.70911C9.72989 6.58764 9.69321 6.52704 9.61868 6.52704C9.61868 6.52704 9.1087 6.56012 9.03976 6.58222C8.97083 6.60432 8.70614 7.12856 8.70614 7.12856L9.56692 7.00194C9.60515 6.99613 9.64083 6.97849 9.66934 6.95129Z" fill="white"/>
<path fill-rule="evenodd" clip-rule="evenodd" d="M5.62478 4.82621C5.55759 4.88129 5.50506 4.9534 5.4722 5.03565L5.25304 5.57427H9.37221L9.15305 5.03552C9.12018 4.95333 9.06768 4.88128 9.00054 4.82623C8.9334 4.77117 8.85386 4.73495 8.76949 4.721C8.2874 4.64473 7.80036 4.60761 7.31275 4.60997C6.82515 4.60761 6.33811 4.64473 5.85602 4.721C5.77158 4.7349 5.69197 4.77113 5.62478 4.82621ZM4.95604 6.95075C4.98454 6.97794 5.02022 6.99559 5.05846 7.0014L5.91923 7.12802C5.91923 7.12802 5.65468 6.60377 5.58574 6.58168C5.51681 6.55958 5.00669 6.5265 5.00669 6.5265C4.93229 6.5265 4.89549 6.58656 4.88495 6.70857C4.88224 6.7558 4.88685 6.80318 4.89861 6.84888C4.90753 6.88807 4.92754 6.92356 4.95604 6.95075ZM7.30651 7.26549L8.32622 7.20475L8.5831 6.63835C8.5831 6.63835 7.67798 6.7205 7.31262 6.7205C6.94727 6.7205 6.0424 6.63835 6.0424 6.63835L6.29928 7.20624L7.30651 7.26549ZM9.66934 6.95129C9.69784 6.9241 9.71785 6.88861 9.72677 6.84943C9.73853 6.80372 9.74314 6.75634 9.74043 6.70911C9.72989 6.58764 9.69321 6.52704 9.61868 6.52704C9.61868 6.52704 9.1087 6.56012 9.03976 6.58222C8.97083 6.60432 8.70614 7.12856 8.70614 7.12856L9.56692 7.00194C9.60515 6.99613 9.64083 6.97849 9.66934 6.95129Z" fill="black"/>
<path fill-rule="evenodd" clip-rule="evenodd" d="M12.1258 6.81294C12.1258 9.47106 9.97094 11.6259 7.31282 11.6259C4.65471 11.6259 2.49988 9.47106 2.49988 6.81294C2.49988 4.15483 4.65471 2 7.31282 2C9.97094 2 12.1258 4.15483 12.1258 6.81294ZM9.37832 9.08197V8.79958H9.508C9.62659 8.80473 9.74491 8.7841 9.85543 8.73901C9.96596 8.69391 10.0663 8.62535 10.15 8.53766V9.08197C10.15 9.11843 10.1361 9.15339 10.1114 9.17917C10.0866 9.20495 10.0531 9.21944 10.0181 9.21944H9.51086C9.49349 9.21952 9.47627 9.21603 9.46019 9.20917C9.44411 9.2023 9.4295 9.19219 9.41718 9.17941C9.40487 9.16664 9.39509 9.15145 9.38842 9.13473C9.38176 9.11801 9.37832 9.10008 9.37832 9.08197ZM4.46848 9.08197V8.52966C4.55227 8.61994 4.65348 8.69068 4.76542 8.73721C4.87736 8.78373 4.9975 8.80499 5.1179 8.79958H5.23951V9.08197C5.23951 9.11843 5.22561 9.15339 5.20088 9.17917C5.17615 9.20495 5.1426 9.21944 5.10762 9.21944H4.60037C4.56539 9.21944 4.53184 9.20495 4.50711 9.17917C4.48238 9.15339 4.46848 9.11843 4.46848 9.08197ZM5.1179 8.59568C4.73238 8.59568 4.47225 8.36861 4.47225 7.97898V7.86646H10.1534V7.97898C10.1534 8.36861 9.89273 8.59568 9.50774 8.59568H5.1179ZM9.88805 5.41213L10.2132 5.47096C10.2432 5.47599 10.2706 5.492 10.2903 5.51612C10.31 5.54024 10.3209 5.5709 10.3209 5.6026V5.66917C10.3209 5.69971 10.3109 5.72934 10.2925 5.75314C10.2741 5.77693 10.2485 5.79346 10.2198 5.79999L9.77372 5.90478L9.98781 6.24533C10.0958 6.41692 10.1533 6.61764 10.1534 6.82285V7.66338H4.47238V6.82285C4.47237 6.61766 4.52987 6.41693 4.63783 6.24533L4.85113 5.90641L4.40579 5.80026C4.37716 5.79374 4.35152 5.77721 4.33314 5.75341C4.31476 5.72962 4.30473 5.69999 4.30473 5.66944V5.60287C4.30468 5.57114 4.31548 5.54044 4.33519 5.51626C4.35491 5.49209 4.38224 5.47603 4.41229 5.47096L4.73759 5.41145C4.76356 5.40672 4.7903 5.41127 4.81348 5.42436C4.83666 5.43745 4.85492 5.45832 4.86531 5.48357L4.96715 5.72109L5.0076 5.65669L5.29206 4.95621C5.33811 4.84232 5.41123 4.74253 5.50453 4.66625C5.59783 4.58997 5.70823 4.53971 5.82532 4.52022C6.31755 4.44217 6.81487 4.40419 7.31275 4.40661C7.81067 4.40406 8.30803 4.44191 8.80031 4.51981C8.91729 4.5394 9.02757 4.5897 9.12075 4.66598C9.21393 4.74225 9.28695 4.84199 9.33293 4.9558L9.61803 5.65737L9.65913 5.72271L9.76033 5.48425C9.77071 5.45899 9.78898 5.43813 9.81216 5.42504C9.83534 5.41195 9.86208 5.4074 9.88805 5.41213Z" fill="black"/>
</svg>
