<svg width="17" height="16" viewBox="0 0 17 16" fill="none" xmlns="http://www.w3.org/2000/svg">
<path d="M2.37436 5.31745C2.28557 5.18456 2.38083 5.00635 2.54066 5.00635H15.1257C15.2855 5.00635 15.3808 5.18456 15.292 5.31745L13.6483 7.77762C13.5584 7.91214 13.5584 8.08754 13.6483 8.22205L15.292 10.6822C15.3808 10.8151 15.2855 10.9933 15.1257 10.9933H2.54066C2.38083 10.9933 2.28557 10.8151 2.37436 10.6822L4.01804 8.22205C4.10791 8.08754 4.10791 7.91214 4.01804 7.77762L2.37436 5.31745Z" fill="black"/>
<path d="M6.23715 6.89685H6.70341V8.329C6.70341 8.4898 6.665 8.6305 6.58819 8.7511C6.5121 8.8717 6.40549 8.96574 6.26838 9.03322C6.13127 9.09999 5.97154 9.13337 5.7892 9.13337C5.60615 9.13337 5.44606 9.09999 5.30895 9.03322C5.17184 8.96574 5.06523 8.8717 4.98914 8.7511C4.91305 8.6305 4.875 8.4898 4.875 8.329V6.89685H5.34125V8.28915C5.34125 8.37314 5.35956 8.4478 5.39617 8.51313C5.4335 8.57845 5.48591 8.62978 5.55338 8.66711C5.62086 8.70444 5.69947 8.7231 5.7892 8.7231C5.87966 8.7231 5.95826 8.70444 6.02502 8.66711C6.0925 8.62978 6.14455 8.57845 6.18116 8.51313C6.21849 8.4478 6.23715 8.37314 6.23715 8.28915V6.89685Z" fill="white"/>
<path d="M8.28335 7.53109C8.27473 7.44422 8.23776 7.37674 8.17243 7.32865C8.10711 7.28055 8.01845 7.2565 7.90646 7.2565C7.83037 7.2565 7.76612 7.26727 7.71372 7.28881C7.66131 7.30962 7.62111 7.3387 7.59312 7.37603C7.56584 7.41336 7.5522 7.45571 7.5522 7.50309C7.55076 7.54257 7.55902 7.57703 7.57696 7.60646C7.59563 7.63589 7.62111 7.66138 7.65342 7.68291C7.68572 7.70373 7.72305 7.72204 7.7654 7.73783C7.80776 7.75291 7.85298 7.76583 7.90108 7.7766L8.09921 7.82398C8.19541 7.84551 8.2837 7.87423 8.36411 7.91012C8.44451 7.94601 8.51414 7.99016 8.573 8.04257C8.63187 8.09497 8.67745 8.15671 8.70976 8.22778C8.74278 8.29884 8.75965 8.38032 8.76037 8.47221C8.75965 8.60717 8.72519 8.72418 8.657 8.82325C8.58952 8.9216 8.49189 8.99805 8.36411 9.05261C8.23704 9.10645 8.08378 9.13337 7.90431 9.13337C7.72628 9.13337 7.57122 9.10609 7.43913 9.05153C7.30776 8.99697 7.20511 8.91621 7.13117 8.80925C7.05795 8.70157 7.01954 8.5684 7.01595 8.40976H7.46713C7.47215 8.4837 7.49333 8.54543 7.53066 8.59497C7.56871 8.64378 7.61932 8.68075 7.68249 8.70588C7.74638 8.73028 7.81853 8.74249 7.89893 8.74249C7.97789 8.74249 8.04645 8.731 8.1046 8.70803C8.16346 8.68506 8.20905 8.65311 8.24135 8.61219C8.27365 8.57128 8.28981 8.52426 8.28981 8.47113C8.28981 8.4216 8.27509 8.37996 8.24566 8.34622C8.21694 8.31248 8.17459 8.28377 8.11859 8.26008C8.06332 8.23639 7.99548 8.21485 7.91508 8.19547L7.67495 8.13517C7.48902 8.08995 7.34222 8.01924 7.23454 7.92304C7.12686 7.82685 7.07338 7.69727 7.0741 7.53432C7.07338 7.40079 7.10891 7.28414 7.1807 7.18436C7.25321 7.08457 7.35263 7.00668 7.47897 6.95069C7.60532 6.8947 7.74889 6.8667 7.9097 6.8667C8.07337 6.8667 8.21622 6.8947 8.33826 6.95069C8.46102 7.00668 8.55649 7.08457 8.62469 7.18436C8.69289 7.28414 8.72806 7.39972 8.73022 7.53109H8.28335Z" fill="white"/>
<path d="M9.07399 9.10214V6.89685H10.56V7.28127H9.54024V7.80675H10.4835V8.19116H9.54024V8.71772H10.5643V9.10214H9.07399Z" fill="white"/>
<path d="M11.7124 9.10214H10.9307V6.89685H11.7189C11.9407 6.89685 12.1317 6.941 12.2917 7.0293C12.4518 7.11688 12.5749 7.24286 12.6611 7.40725C12.7479 7.57165 12.7914 7.76834 12.7914 7.99734C12.7914 8.22706 12.7479 8.42447 12.6611 8.58958C12.5749 8.75469 12.4511 8.88139 12.2896 8.96969C12.1288 9.05799 11.9364 9.10214 11.7124 9.10214ZM11.3969 8.70265H11.693C11.8309 8.70265 11.9468 8.67824 12.0408 8.62942C12.1356 8.57989 12.2067 8.50344 12.254 8.40006C12.3021 8.29597 12.3262 8.16173 12.3262 7.99734C12.3262 7.83438 12.3021 7.70122 12.254 7.59785C12.2067 7.49447 12.136 7.41838 12.0419 7.36957C11.9479 7.32075 11.8319 7.29634 11.6941 7.29634H11.3969V8.70265Z" fill="white"/>
</svg>
