<svg width="17" height="16" viewBox="0 0 17 16" fill="none" xmlns="http://www.w3.org/2000/svg">
<path d="M6.52307 10.2304L5.16307 8.85897C5.1101 8.8061 5.06807 8.74331 5.03939 8.67418C5.01072 8.60505 4.99596 8.53095 4.99596 8.45611C4.99596 8.38127 5.01072 8.30716 5.03939 8.23804C5.06807 8.16891 5.1101 8.10612 5.16307 8.05325L5.20307 8.01325C5.42593 7.79039 5.79164 7.79039 6.0145 8.01325L6.9345 8.93897L9.87735 5.99039C10.1002 5.76754 10.4659 5.76754 10.6888 5.99039L10.7288 6.03039C10.9516 6.25325 10.9516 6.61325 10.7288 6.83611L7.34593 10.2304C7.11164 10.4533 6.75164 10.4533 6.52307 10.2304Z" fill="white"/>
<path fill-rule="evenodd" clip-rule="evenodd" d="M14.3059 7.93897L12.9116 6.34468L13.1059 4.23611L11.0431 3.76754L9.96307 1.93896L8.02021 2.77325L6.07735 1.93896L4.99735 3.76182L2.9345 4.22468L3.12878 6.33896L1.7345 7.93897L3.12878 9.53325L2.9345 11.6475L4.99735 12.1161L6.07735 13.939L8.02021 13.099L9.96307 13.9333L11.0431 12.1104L13.1059 11.6418L12.9116 9.53325L14.3059 7.93897ZM5.16307 8.85897L6.52307 10.2304C6.75164 10.4533 7.11164 10.4533 7.34593 10.2304L10.7288 6.83611C10.9516 6.61325 10.9516 6.25325 10.7288 6.03039L10.6888 5.99039C10.4659 5.76754 10.1002 5.76754 9.87735 5.99039L6.9345 8.93897L6.0145 8.01325C5.79164 7.79039 5.42593 7.79039 5.20307 8.01325L5.16307 8.05325C5.1101 8.10612 5.06807 8.16891 5.03939 8.23804C5.01072 8.30716 4.99596 8.38127 4.99596 8.45611C4.99596 8.53095 5.01072 8.60505 5.03939 8.67418C5.06807 8.74331 5.1101 8.8061 5.16307 8.85897Z" fill="black"/>
</svg>
