<svg width="24" height="24" viewBox="0 0 24 24" fill="none" xmlns="http://www.w3.org/2000/svg">
<path d="M12 13.4558C11.8525 13.4558 11.7092 13.4365 11.5702 13.398C11.431 13.3595 11.2929 13.305 11.1557 13.2345L2.99421 8.89426C2.83005 8.80059 2.71213 8.68518 2.64046 8.54801C2.56863 8.41084 2.53271 8.26026 2.53271 8.09626C2.53271 7.93209 2.56863 7.78143 2.64046 7.64426C2.71213 7.50709 2.83005 7.39168 2.99421 7.29801L11.1557 2.95776C11.2929 2.88726 11.431 2.83276 11.5702 2.79426C11.7092 2.75576 11.8525 2.73651 12 2.73651C12.1475 2.73651 12.2907 2.75576 12.4297 2.79426C12.5689 2.83276 12.707 2.88726 12.8442 2.95776L21.0152 7.29801C21.1794 7.39168 21.2974 7.50709 21.3692 7.64426C21.441 7.78143 21.477 7.93209 21.477 8.09626C21.477 8.26026 21.441 8.41084 21.3692 8.54801C21.2974 8.68518 21.1794 8.80059 21.0152 8.89426L12.8442 13.2345C12.707 13.305 12.5689 13.3595 12.4297 13.398C12.2907 13.4365 12.1475 13.4558 12 13.4558ZM12 11.9848L19.373 8.09626L12 4.20776L4.63647 8.09626L12 11.9848ZM12 15.8885L20.0037 11.652C20.0435 11.6288 20.1795 11.6064 20.4115 11.5848C20.6115 11.5974 20.7752 11.6724 20.9027 11.8098C21.0304 11.9469 21.0942 12.1155 21.0942 12.3155C21.0942 12.4538 21.0637 12.5788 21.0027 12.6903C20.9419 12.8019 20.8422 12.8949 20.7037 12.9693L12.8442 17.1385C12.707 17.209 12.5689 17.2635 12.4297 17.302C12.2907 17.3403 12.1475 17.3595 12 17.3595C11.8525 17.3595 11.7092 17.3403 11.5702 17.302C11.431 17.2635 11.2929 17.209 11.1557 17.1385L3.30571 12.9693C3.16721 12.8949 3.06596 12.8019 3.00196 12.6903C2.9378 12.5788 2.90571 12.4538 2.90571 12.3155C2.90571 12.1155 2.97113 11.9469 3.10196 11.8098C3.23263 11.6724 3.39796 11.5974 3.59796 11.5848C3.66846 11.5719 3.73646 11.5716 3.80196 11.5838C3.8673 11.5959 3.93521 11.6187 4.00571 11.652L12 15.8885ZM12 19.7923L20.0037 15.5558C20.0435 15.5328 20.1795 15.5103 20.4115 15.4885C20.6115 15.5013 20.7752 15.5763 20.9027 15.7135C21.0304 15.8507 21.0942 16.0193 21.0942 16.2193C21.0942 16.3578 21.0637 16.4828 21.0027 16.5943C20.9419 16.7058 20.8422 16.7987 20.7037 16.873L12.8442 21.0423C12.707 21.1128 12.5689 21.1673 12.4297 21.2058C12.2907 21.2443 12.1475 21.2635 12 21.2635C11.8525 21.2635 11.7092 21.2443 11.5702 21.2058C11.431 21.1673 11.2929 21.1128 11.1557 21.0423L3.30571 16.873C3.16721 16.7987 3.06596 16.7058 3.00196 16.5943C2.9378 16.4828 2.90571 16.3578 2.90571 16.2193C2.90571 16.0193 2.97113 15.8507 3.10196 15.7135C3.23263 15.5763 3.39796 15.5013 3.59796 15.4885C3.66846 15.4757 3.73646 15.4753 3.80196 15.4875C3.8673 15.4997 3.93521 15.5224 4.00571 15.5558L12 19.7923Z" fill="#1C1B1F"/>
</svg>
