<!-- Generated by IcoMoon.io -->
<svg version="1.1" xmlns="http://www.w3.org/2000/svg" width="32" height="32" viewBox="0 0 32 32">
<title>listcar</title>
<path d="M28.8 11.867l-0.133-0.4h1.067c0.667 0 1.2-0.533 1.2-1.2s-0.533-1.2-1.2-1.2h-2.267l-1.6-3.733c-0.533-1.067-1.6-1.867-2.8-1.867h-14.133c-1.2 0-2.267 0.8-2.8 1.867l-1.6 3.733h-2.267c-0.667 0-1.2 0.533-1.2 1.2s0.533 1.2 1.2 1.2h1.067l-0.133 0.4c-1.333 0.4-2.267 1.6-2.267 2.933v7.333c0 1.2 0.667 2.267 1.867 2.8v1.333c0 1.2 0.933 2.133 2.133 2.133h2.8c1.2 0 2.133-0.933 2.133-2.133v-1.067h12.133v1.067c0 1.2 0.933 2.133 2.133 2.133h2.8c1.2 0 2.133-0.933 2.133-2.133v-1.333c1.067-0.533 1.867-1.6 1.867-2.8v-7.333c0-1.333-0.8-2.533-2.133-2.933zM7.733 24.933v1.467h-2.667v-1.467h2.667zM8.4 6.4c0.133-0.267 0.267-0.4 0.533-0.4h14.133c0.267 0 0.4 0.133 0.533 0.4l2.4 5.333h-20l2.4-5.333zM28.533 14.8v7.333c0 0.267-0.267 0.533-0.533 0.533h-23.867c-0.267 0-0.533-0.267-0.533-0.533v-7.333c0-0.267 0.267-0.533 0.533-0.533h23.867c0.267 0 0.533 0.267 0.533 0.533zM26.933 24.933v1.467h-2.8v-1.467h2.8z"></path>
<path d="M24.267 15.467c-1.733 0-3.067 1.333-3.067 3.067s1.333 3.067 3.067 3.067c1.733 0 3.067-1.333 3.067-3.067s-1.333-3.067-3.067-3.067zM24.267 19.467c-0.533 0-0.933-0.4-0.933-0.933s0.4-0.933 0.933-0.933 0.933 0.4 0.933 0.933c0 0.4-0.4 0.933-0.933 0.933z"></path>
<path d="M7.733 15.467c-1.733 0-3.067 1.333-3.067 3.067s1.333 3.067 3.067 3.067c1.733 0 3.067-1.333 3.067-3.067s-1.333-3.067-3.067-3.067zM7.733 19.467c-0.533 0-0.933-0.4-0.933-0.933s0.4-0.933 0.933-0.933 0.933 0.4 0.933 0.933c0 0.4-0.4 0.933-0.933 0.933z"></path>
</svg>
