<!-- Generated by IcoMoon.io -->
<svg version="1.1" xmlns="http://www.w3.org/2000/svg" width="32" height="32" viewBox="0 0 32 32">
<title>loading</title>
<path d="M24.761 19.202c-0.465 0-0.841-0.376-0.841-0.841 0-1.388-0.271-2.733-0.808-4.002-0.517-1.221-1.265-2.331-2.203-3.268-0.936-0.939-2.046-1.688-3.268-2.203-1.266-0.535-2.612-0.806-4-0.806-0.465 0-0.841-0.376-0.841-0.841s0.376-0.841 0.841-0.841c1.614 0 3.182 0.315 4.656 0.941 1.425 0.6 2.703 1.465 3.801 2.563s1.96 2.378 2.563 3.801c0.624 1.474 0.939 3.042 0.939 4.656 0.002 0.465-0.374 0.841-0.839 0.841v0z"></path>
</svg>
