<!-- Generated by IcoMoon.io -->
<svg version="1.1" xmlns="http://www.w3.org/2000/svg" width="32" height="32" viewBox="0 0 32 32">
<path d="M5.331 13.333c0-5.891 4.776-10.667 10.667-10.667s10.667 4.776 10.667 10.667c0 4.691-3.162 10.412-7.042 14.292-1.278 1.277-2.627 1.708-3.583 1.708h-0.042c-0.919 0.013-2.106-0.349-3.25-1.375-0.139-0.125-0.244-0.235-0.375-0.375-4.045-4.368-7.042-9.628-7.042-14.251zM23.997 13.333c0-4.419-3.582-8-8-8s-8 3.581-8 8c0 3.777 2.664 8.5 6.292 12.416 0.075 0.081 0.173 0.181 0.25 0.251 0.584 0.524 1.114 0.671 1.417 0.667h0.042c0.34 0 0.986-0.236 1.708-0.959 3.428-3.428 6.292-8.527 6.292-12.375zM14.667 13.333c0-0.736 0.597-1.333 1.333-1.333s1.333 0.597 1.333 1.333c0 0.736-0.597 1.333-1.333 1.333s-1.333-0.597-1.333-1.333zM16 9.333c-2.209 0-4 1.791-4 4s1.791 4 4 4 4-1.791 4-4c0-2.209-1.791-4-4-4z"></path>
</svg>
