<svg width="32" height="32" viewBox="0 0 32 32" fill="none" xmlns="http://www.w3.org/2000/svg">
<mask id="mask0_250_2848" style="mask-type:alpha" maskUnits="userSpaceOnUse" x="0" y="0" width="32" height="32">
<rect width="32" height="32" fill="#D9D9D9"/>
</mask>
<g mask="url(#mask0_250_2848)">
<path d="M12.754 20.6667L16 18.2L19.1793 20.641L17.959 16.6973L21.2563 14.123H17.287L16 10.154L14.713 14.123H10.7436L13.9743 16.6973L12.754 20.6667ZM5.74365 26C5.07876 26 4.51076 25.7646 4.03965 25.2937C3.56876 24.8226 3.33331 24.2546 3.33331 23.5897V19.936C3.33331 19.7171 3.3962 19.5231 3.52198 19.354C3.64754 19.1847 3.81542 19.0692 4.02565 19.0077C4.61031 18.7359 5.08554 18.3324 5.45131 17.7973C5.81709 17.2624 5.99998 16.6633 5.99998 16C5.99998 15.3367 5.81709 14.7376 5.45131 14.2027C5.08554 13.6676 4.61031 13.2641 4.02565 12.9923C3.81542 12.9308 3.64754 12.8153 3.52198 12.646C3.3962 12.4769 3.33331 12.2829 3.33331 12.064V8.41033C3.33331 7.74544 3.56876 7.17744 4.03965 6.70633C4.51076 6.23544 5.07876 6 5.74365 6H26.2563C26.9212 6 27.4892 6.23544 27.9603 6.70633C28.4312 7.17744 28.6666 7.74544 28.6666 8.41033V12.064C28.6666 12.2829 28.6038 12.4769 28.478 12.646C28.3524 12.8153 28.1845 12.9308 27.9743 12.9923C27.3896 13.2641 26.9144 13.6676 26.5486 14.2027C26.1829 14.7376 26 15.3367 26 16C26 16.6633 26.1829 17.2624 26.5486 17.7973C26.9144 18.3324 27.3896 18.7359 27.9743 19.0077C28.1845 19.0692 28.3524 19.1847 28.478 19.354C28.6038 19.5231 28.6666 19.7171 28.6666 19.936V23.5897C28.6666 24.2546 28.4312 24.8226 27.9603 25.2937C27.4892 25.7646 26.9212 26 26.2563 26H5.74365Z" fill="black"/>
</g>
</svg>
