<svg width="24" height="24" viewBox="0 0 24 24" fill="none" xmlns="http://www.w3.org/2000/svg">
<path d="M8.42857 7.42857C8.42857 6.51926 8.7898 5.64719 9.43278 5.00421C10.0758 4.36122 10.9478 4 11.8571 4C12.7665 4 13.6385 4.36122 14.2815 5.00421C14.9245 5.64719 15.2857 6.51926 15.2857 7.42857V8H16.1429C16.8248 8 17.4789 8.27092 17.9611 8.75315C18.4434 9.23539 18.7143 9.88944 18.7143 10.5714V17.4286C18.7143 18.1106 18.4434 18.7646 17.9611 19.2468C17.4789 19.7291 16.8248 20 16.1429 20H7.57143C6.88944 20 6.23539 19.7291 5.75315 19.2468C5.27092 18.7646 5 18.1106 5 17.4286V10.5714C5 9.88944 5.27092 9.23539 5.75315 8.75315C6.23539 8.27092 6.88944 8 7.57143 8H8.42857V7.42857ZM11.8571 5.14286C11.2509 5.14286 10.6696 5.38367 10.2409 5.81233C9.81224 6.24098 9.57143 6.82236 9.57143 7.42857V8H14.1429V7.42857C14.1429 6.82236 13.902 6.24098 13.4734 5.81233C13.0447 5.38367 12.4634 5.14286 11.8571 5.14286ZM11.8571 15.4286C12.1602 15.4286 12.4509 15.3082 12.6653 15.0938C12.8796 14.8795 13 14.5888 13 14.2857C13 13.9826 12.8796 13.6919 12.6653 13.4776C12.4509 13.2633 12.1602 13.1429 11.8571 13.1429C11.554 13.1429 11.2633 13.2633 11.049 13.4776C10.8347 13.6919 10.7143 13.9826 10.7143 14.2857C10.7143 14.5888 10.8347 14.8795 11.049 15.0938C11.2633 15.3082 11.554 15.4286 11.8571 15.4286Z" fill="black"/>
</svg>
