<!-- Generated by IcoMoon.io -->
<svg version="1.1" xmlns="http://www.w3.org/2000/svg" width="32" height="32" viewBox="0 0 32 32">
<title>logout</title>
<path d="M26.118 22.152h-2.050c-0.14 0-0.271 0.061-0.359 0.169-0.204 0.248-0.423 0.487-0.653 0.714-0.942 0.943-2.058 1.695-3.286 2.213-1.272 0.537-2.64 0.813-4.021 0.811-1.397 0-2.75-0.274-4.021-0.811-1.228-0.519-2.344-1.27-3.286-2.213-0.944-0.94-1.696-2.054-2.216-3.28-0.539-1.271-0.811-2.621-0.811-4.018s0.274-2.747 0.811-4.018c0.519-1.228 1.265-2.333 2.216-3.28s2.056-1.694 3.286-2.213c1.271-0.537 2.624-0.811 4.021-0.811s2.75 0.271 4.021 0.811c1.23 0.519 2.336 1.265 3.286 2.213 0.23 0.23 0.446 0.469 0.653 0.714 0.088 0.108 0.222 0.169 0.359 0.169h2.050c0.184 0 0.297-0.204 0.195-0.359-2.236-3.476-6.149-5.776-10.596-5.764-6.986 0.018-12.587 5.689-12.517 12.666 0.070 6.867 5.662 12.409 12.549 12.409 4.435 0 8.33-2.298 10.564-5.764 0.099-0.155-0.012-0.359-0.195-0.359zM28.711 15.554l-4.137-3.266c-0.155-0.122-0.379-0.012-0.379 0.184v2.216h-9.155c-0.128 0-0.233 0.105-0.233 0.233v1.633c0 0.128 0.105 0.233 0.233 0.233h9.155v2.216c0 0.195 0.227 0.306 0.379 0.184l4.137-3.266c0.028-0.022 0.050-0.050 0.066-0.082s0.024-0.067 0.024-0.102c0-0.035-0.008-0.070-0.024-0.102s-0.038-0.060-0.066-0.082v0z"></path>
</svg>
