<?xml version="1.0" encoding="UTF-8"?>
<svg id="Layer_1" data-name="Layer 1" xmlns="http://www.w3.org/2000/svg" version="1.1" viewBox="0 0 20 20">
  <defs>
    <style>
      .cls-1 {
        fill: #000;
        stroke-width: 0px;
      }
    </style>
  </defs>
  <path class="cls-1" d="M5.6,7.5h.5c0-.3.1-.5.3-.7s.5-.3.7-.3v-.5c-.3,0-.5-.1-.7-.3s-.3-.5-.3-.7h-.5c0,.3-.1.5-.3.7-.2.2-.5.3-.7.3v.5c.3,0,.5.1.7.3.2.2.3.5.3.7ZM5.9,5.8c.1.2.3.3.4.4-.2.1-.3.3-.4.4-.1-.2-.3-.3-.4-.4.2-.1.3-.3.4-.4ZM13.9,7.5h.5c0-.3.1-.5.3-.7.2-.2.5-.3.7-.3v-.5c-.3,0-.5-.1-.7-.3-.2-.2-.3-.5-.3-.7h-.5c0,.3-.1.5-.3.7-.2.2-.5.3-.7.3v.5c.3,0,.5.1.7.3.2.2.3.5.3.7ZM14.1,5.8c.1.2.3.3.4.4-.2.1-.3.3-.4.4-.1-.2-.3-.3-.4-.4.2-.1.3-.3.4-.4ZM9.7,5.2h.5c0-.3.1-.5.3-.7.2-.2.5-.3.7-.3v-.5c-.3,0-.5-.1-.7-.3-.2-.2-.3-.5-.3-.7h-.5c0,.3-.1.5-.3.7-.2.2-.5.3-.7.3v.5c.3,0,.5.1.7.3.2.2.3.5.3.7ZM10,3.5c.1.2.3.3.4.4-.2.1-.3.3-.4.4-.1-.2-.3-.3-.4-.4.2-.1.3-.3.4-.4ZM5.5,13l-1.8-1.2s0,0-.1,0c0,0,0,0-.1,0,0,0,0,0,0,0,0,0,0,0,0,.1v1.1c0,0,0,0,0,.1,0,0,0,0,0,.1l1,.6s0,0,.1,0c0,0,0,0,.1,0l.8-.6s0,0,0,0c0,0,0,0,0-.1,0,0,0,0,0-.1,0,0,0,0,0,0h0ZM4.5,13.5l-.8-.5v-.6s1.2.7,1.2.7l-.4.3ZM14.4,13.2s0,0,0,.1c0,0,0,0,0,0l.8.6s0,0,.1,0c0,0,.1,0,.1,0l1-.6s0,0,0-.1c0,0,0,0,0-.1v-1.1c0,0,0,0-.1-.1,0,0,0,0,0,0,0,0,0,0-.1,0,0,0,0,0-.1,0l-1.8,1.2s0,0,0,0,0,0,0,.1ZM16.2,12.5v.6s-.7.5-.7.5l-.4-.3,1.1-.7Z"/>
  <path class="cls-1" d="M17.5,10.6s0,0,0,0c0,0,0,0,0,0l.3-.3s0,0,0-.1c0,0,0-.1,0-.2l-.3-.5s0,0,0-.1c0,0,0,0-.1,0h-1c0,0-.1,0-.2,0l-.3.3s0,0,0,.1c0,0,0,.1,0,.2l.2.4v.2c0,0-.5-.7-.5-.7-.3-.5-.7-1-1.1-1.3-.5-.3-1.1-.5-1.6-.6l-2.9-.2h0l-2.9.2c-.7,0-1.3.3-1.9.7-.4.3-.7.7-.9,1.1l-.4.7v-.2c0,0,.1-.4.1-.4,0,0,0-.1,0-.2,0,0,0-.1,0-.1l-.3-.3s0,0,0,0c0,0,0,0,0,0h-1s0,0-.1,0c0,0,0,0,0,.1l-.3.5s0,.1,0,.2c0,0,0,.1,0,.1l.3.3s0,0,0,0c0,0,0,0,0,0h.9v.2c.1,0-.5.3-.5.3,0,0,0,0,0,0l-.5.8s0,0,0,.1v3.3c0,.1,0,.2,0,.3,0,.1.1.2.2.3v.5c0,.2,0,.4.2.6.1.1.3.2.6.2h1c.2,0,.3,0,.5-.2.1-.1.2-.3.3-.4h.8c0,0,0,0,0,0,0,0,0,0,.1,0l.8-.4v.2c.1,0,.2,0,.2.1,0,0,0,0,.1,0h5.7s0,0,.1,0c0,0,0,0,0-.1v-.2c.1,0,1,.4,1,.4,0,0,0,0,.1,0,0,0,0,0,0,0h.8c0,0,.1.2.3.4s.3.2.5.2h1c.2,0,.4,0,.6-.2.1-.1.2-.3.2-.6v-.5c0,0,.1-.2.2-.3,0-.1,0-.2,0-.3v-3.3c0,0,0-.1,0-.1l-.5-.8s0,0,0,0l-.6-.3v-.2h1ZM5.5,9.1c.5-.4,1-.6,1.6-.6l2.9-.2,2.9.2c.5,0,1,.2,1.4.5.4.3.7.7,1,1.1l.3.6H4.5l.3-.6c.2-.4.4-.7.8-.9ZM15.3,11.2l-1.6,1.6-1.7.5h-.9l-.5-.2s0,0-.1,0h-1s0,0-.1,0l-.5.2h-.9l-1.7-.5-1.5-1.6h10.5ZM3.4,10.1h-.8c0,0,.1-.3.1-.3h.8c0,0-.1.3-.1.3ZM3.1,15.4s0,0,0,.2v.3h-.1c0-.1,0-.2,0-.2,0,0,0,0,0-.1v-1.6l.8.8-.5.7ZM4.3,16.8h-1c0,0-.1,0-.2,0,0,0,0-.1,0-.2h0c0-.1,0,0,0,0,0,0,0,0,0,0,0,0,0,0,.1,0h1.3c0,.2,0,.2,0,.2,0,0,0,0-.1,0ZM12.4,15.6l-.2.5.5.2h0c0,0-5.4,0-5.4,0h0c0,0,.5-.3.5-.3l-.2-.5-1.7.7-2.3-.2v-.5l.6-.8,3,.5s0,0,0,0h5.7s0,0,0,0l3-.5.6.8v.5l-2.3.2-1.7-.7ZM16.9,15.4l-.5-.7.8-.8v1.6s0,0,0,.1c0,0,0,0,0,.1h-.1c0,0,0-.2,0-.2,0,0,0-.1,0-.2ZM16.7,16.8h-1s0,0-.1,0c0,0,0,0,0,0h1.3c0-.1,0-.1.1-.2,0,0,0,0,0,0h0s0,0,0,0c0,0,0,.1,0,.2,0,0-.1,0-.2,0ZM17.2,12.3v.8l-1.2,1.2-3.3.5h-5.6l-3.3-.5-1.2-1.2v-.8l.4-.7.9-.4,1.9,2s0,0,.1,0l1.8.5s0,0,0,0h1s0,0,.1,0l.5-.2h.9l.5.2s0,0,.1,0h1s0,0,0,0l1.8-.5s0,0,.1,0l1.9-1.9.8.4.4.7ZM16.6,9.9h.8v.2c.1,0,0,0,0,0h-.8v-.2c-.1,0,0,0,0,0Z"/>
  <path class="cls-1" d="M9.7,13.7h.5v.5h-.5v-.5Z"/>
</svg>