<?xml version="1.0" encoding="UTF-8"?>
<svg xmlns="http://www.w3.org/2000/svg" version="1.1" viewBox="0 0 20 20">
  <!-- Generator: Adobe Illustrator 28.6.0, SVG Export Plug-In . SVG Version: 1.2.0 Build 709)  -->
  <g>
    <g id="Layer_1">
      <path d="M17.4,4H2.6c-.3,0-.6.3-.6.6v11.4c0,.3.3.6.6.6h14.9c.3,0,.6-.3.6-.6V4.6c0-.3-.3-.6-.6-.6ZM16.7,6v9.3H3.3V6l-.5-.4.7-.9.8.6h11.5l.8-.6.7.9-.5.4ZM15.7,5.3l-5.7,4.5-5.7-4.5-.8-.6-.7.9.5.4,6.1,4.7c.2.1.4.2.6.2s.4,0,.6-.2l6.1-4.7.5-.4-.7-.9-.8.6Z"/>
    </g>
  </g>
</svg>