<svg width="24" height="24" viewBox="0 0 24 24" fill="none" xmlns="http://www.w3.org/2000/svg">
<path d="M19.7143 4.39282H4.28571C3.94472 4.39282 3.6177 4.52828 3.37658 4.7694C3.13546 5.01052 3 5.33754 3 5.67854V18.5357C3 18.8767 3.13546 19.2037 3.37658 19.4448C3.6177 19.6859 3.94472 19.8214 4.28571 19.8214H10.7143V18.5357H4.28571V9.53568H19.7143V11.4643H21V5.67854C21 5.33754 20.8645 5.01052 20.6234 4.7694C20.3823 4.52828 20.0553 4.39282 19.7143 4.39282ZM19.7143 8.24997H4.28571V5.67854H19.7143V8.24997Z" fill="black"/>
<path d="M21 17.2499V15.9641H19.6494C19.566 15.5619 19.4062 15.1793 19.1788 14.8372L20.1366 13.8794L19.2276 12.9704L18.2698 13.9282C17.9277 13.7008 17.5451 13.541 17.1429 13.4576V12.107H15.8571V13.4576C15.4549 13.541 15.0723 13.7008 14.7302 13.9282L13.7724 12.9704L12.8634 13.8794L13.8212 14.8372C13.5938 15.1793 13.434 15.5619 13.3506 15.9641H12V17.2499H13.3506C13.434 17.6521 13.5938 18.0347 13.8212 18.3768L12.8634 19.3346L13.7724 20.2436L14.7302 19.2858C15.0723 19.5132 15.4549 19.673 15.8571 19.7564V21.107H17.1429V19.7564C17.5451 19.673 17.9277 19.5132 18.2698 19.2858L19.2276 20.2436L20.1366 19.3346L19.1788 18.3768C19.4062 18.0347 19.566 17.6521 19.6494 17.2499H21ZM16.5 18.5356C16.1186 18.5356 15.7457 18.4225 15.4285 18.2106C15.1114 17.9986 14.8642 17.6974 14.7182 17.345C14.5723 16.9926 14.5341 16.6049 14.6085 16.2308C14.6829 15.8567 14.8666 15.513 15.1363 15.2433C15.406 14.9736 15.7496 14.7899 16.1238 14.7155C16.4979 14.6411 16.8856 14.6793 17.238 14.8252C17.5904 14.9712 17.8916 15.2184 18.1035 15.5355C18.3155 15.8527 18.4286 16.2256 18.4286 16.607C18.4281 17.1183 18.2247 17.6086 17.8631 17.9701C17.5016 18.3317 17.0113 18.5351 16.5 18.5356Z" fill="black"/>
<path d="M14.5714 7.607C14.9265 7.607 15.2143 7.31919 15.2143 6.96415C15.2143 6.60911 14.9265 6.32129 14.5714 6.32129C14.2164 6.32129 13.9286 6.60911 13.9286 6.96415C13.9286 7.31919 14.2164 7.607 14.5714 7.607Z" fill="black"/>
<path d="M16.5 7.607C16.855 7.607 17.1429 7.31919 17.1429 6.96415C17.1429 6.60911 16.855 6.32129 16.5 6.32129C16.145 6.32129 15.8571 6.60911 15.8571 6.96415C15.8571 7.31919 16.145 7.607 16.5 7.607Z" fill="black"/>
<path d="M18.4286 7.607C18.7836 7.607 19.0714 7.31919 19.0714 6.96415C19.0714 6.60911 18.7836 6.32129 18.4286 6.32129C18.0735 6.32129 17.7857 6.60911 17.7857 6.96415C17.7857 7.31919 18.0735 7.607 18.4286 7.607Z" fill="black"/>
</svg>
