<!-- Generated by IcoMoon.io -->
<svg version="1.1" xmlns="http://www.w3.org/2000/svg" width="32" height="32" viewBox="0 0 32 32">
<title>map</title>
<path d="M4.32 28.48c-0.16 0-0.32 0-0.48-0.16-0.48-0.16-0.64-0.64-0.64-0.96v-17.12c0-0.32 0.16-0.64 0.48-0.8l7.52-4.32c0.32-0.16 0.64-0.16 0.96 0l8 4 7.040-4c0.32-0.16 0.8-0.16 1.12 0s0.48 0.48 0.48 0.96v16.96c0 0.32-0.16 0.8-0.48 0.96l-7.52 4.32c-0.32 0.16-0.64 0.16-0.96 0l-8-4-7.040 4c-0.16 0-0.32 0.16-0.48 0.16zM11.68 21.92c0.16 0 0.32 0 0.48 0.16l8 4 6.4-3.68v-14.4l-5.76 3.2c-0.32 0.16-0.64 0.16-0.96 0l-8-4-6.4 3.68v14.56l5.76-3.36c0.16 0 0.32-0.16 0.48-0.16z"></path>
<path d="M11.68 24.16c-0.64 0-1.12-0.48-1.12-1.12v-16.96c0-0.64 0.48-1.12 1.12-1.12s1.12 0.48 1.12 1.12v16.96c0 0.64-0.48 1.12-1.12 1.12z"></path>
<path d="M20.32 28.48c-0.64 0-1.12-0.48-1.12-1.12v-17.12c0-0.64 0.48-1.12 1.12-1.12s1.12 0.48 1.12 1.12v16.96c-0.16 0.8-0.64 1.28-1.12 1.28z"></path>
</svg>
