<!-- Generated by IcoMoon.io -->
<svg version="1.1" xmlns="http://www.w3.org/2000/svg" width="32" height="32" viewBox="0 0 32 32">
<path d="M28.78 5.585c0.348 0.251 0.554 0.653 0.554 1.082v16c0 0.574-0.367 1.083-0.912 1.265l-8 2.667c-0.274 0.091-0.57 0.091-0.843 0l-7.578-2.526-7.578 2.526c-0.407 0.135-0.854 0.067-1.201-0.183s-0.554-0.653-0.554-1.082v-16c0-0.574 0.367-1.083 0.912-1.265l8-2.667c0.274-0.091 0.57-0.091 0.843 0l7.578 2.526 7.578-2.526c0.407-0.136 0.853-0.067 1.201 0.183zM5.333 10.294v13.189l6.245-2.082c0.274-0.091 0.57-0.091 0.843 0l7.578 2.526 6.667-2.222v-13.189l-6.245 2.082c-0.274 0.091-0.57 0.091-0.843 0l-7.578-2.526-6.667 2.222z"></path>
<path d="M10.667 8.517v13.189l0.912-0.304c0.274-0.091 0.57-0.091 0.843 0l0.912 0.304v-13.189l-1.333-0.444-1.333 0.444zM18.667 10.294v13.189l1.333 0.444 1.333-0.444v-13.189l-0.912 0.304c-0.274 0.091-0.57 0.091-0.843 0l-0.912-0.304z"></path>
</svg>
