<!-- Generated by IcoMoon.io -->
<svg version="1.1" xmlns="http://www.w3.org/2000/svg" width="32" height="32" viewBox="0 0 32 32">
<title>message-question</title>
<path d="M24.48 3.040h-16.96c-2.4 0-4.32 1.92-4.32 4.32v12.8c0 2.4 1.92 4.32 4.32 4.32h3.040l4 3.36c0.48 0.32 0.96 0.48 1.44 0.48s0.96-0.16 1.44-0.48l4.16-3.36h3.040c2.4 0 4.32-1.92 4.32-4.32v-12.8c-0.16-2.4-2.080-4.32-4.48-4.32zM26.72 20.16c0 1.12-0.96 2.080-2.080 2.080h-3.36c-0.32 0-0.48 0.16-0.64 0.32l-4.64 3.68-4.32-3.68c-0.16-0.16-0.48-0.32-0.64-0.32h-3.52c-1.12 0-2.080-0.96-2.080-2.080v-12.8c0-1.12 0.96-2.080 2.080-2.080h17.12c1.12 0 2.080 0.96 2.080 2.080v12.8zM17.6 20.64c0 0.96-0.64 1.6-1.6 1.6s-1.6-0.64-1.6-1.6c0-0.96 0.64-1.6 1.6-1.6s1.6 0.8 1.6 1.6zM20.16 10.56c0.48 2.080-0.48 4.16-2.4 4.96-0.32 0.16-0.8 0.64-0.8 1.28v0.16c0 0.64-0.48 1.12-1.12 1.12s-1.12-0.48-1.12-1.12v-0.16c0-1.44 0.96-2.72 1.92-3.2 0.8-0.32 1.44-1.28 1.12-2.56-0.16-0.64-0.8-1.28-1.44-1.44-0.48-0.16-1.12 0-1.6 0.32-0.48 0.48-0.8 1.12-0.8 1.76s-0.48 1.12-1.12 1.12-1.12-0.64-1.12-1.12c0-1.28 0.64-2.56 1.6-3.36 1.12-0.8 2.56-1.12 3.84-0.8 1.44 0.32 2.56 1.6 3.040 3.040z"></path>
</svg>
