<!-- Generated by IcoMoon.io -->
<svg version="1.1" xmlns="http://www.w3.org/2000/svg" width="32" height="32" viewBox="0 0 32 32">
<path d="M9.333 30.667c-0.733 0-1.361-0.261-1.883-0.783s-0.783-1.15-0.783-1.883v-24c0-0.733 0.261-1.361 0.783-1.883s1.15-0.783 1.883-0.783h13.333c0.733 0 1.361 0.261 1.883 0.783s0.783 1.15 0.783 1.883v24c0 0.733-0.261 1.361-0.783 1.883s-1.15 0.783-1.883 0.783h-13.333zM9.333 24v4h13.333v-4h-13.333zM16 27.333c0.378 0 0.694-0.128 0.95-0.383s0.383-0.572 0.383-0.95c0-0.378-0.128-0.694-0.383-0.95s-0.572-0.383-0.95-0.383c-0.378 0-0.694 0.128-0.95 0.383s-0.383 0.572-0.383 0.95c0 0.378 0.128 0.694 0.383 0.95s0.572 0.383 0.95 0.383zM9.333 21.333h13.333v-13.333h-13.333v13.333zM9.333 5.333h13.333v-1.333h-13.333v1.333z"></path>
</svg>
