<?xml version="1.0" encoding="UTF-8"?>
<svg id="Layer_1" data-name="Layer 1" xmlns="http://www.w3.org/2000/svg" version="1.1" viewBox="0 0 20 20">
  <defs>
    <style>
      .cls-1 {
        fill: #000;
        stroke-width: 0px;
      }
    </style>
  </defs>
  <path class="cls-1" d="M10,4c-3.3,0-6,2.7-6,6s2.7,6,6,6,6-2.7,6-6-2.7-6-6-6ZM10,15c-2.8,0-5-2.2-5-5s2.2-5,5-5,5,2.2,5,5-2.2,5-5,5ZM12,11c0,.8-.7,1.5-1.5,1.5v.5c0,.3-.2.5-.5.5s-.5-.2-.5-.5v-.5h-.1c-.5,0-1-.3-1.3-.7-.1-.2,0-.5.2-.7.2-.1.5,0,.7.2,0,.2.3.3.4.3h1.1c.3,0,.5-.2.5-.5s-.1-.3-.3-.4l-1.5-.3c-.7-.1-1.2-.7-1.2-1.4s.7-1.5,1.5-1.5v-.5c0-.3.2-.5.5-.5s.5.2.5.5v.5h.1c.5,0,1,.3,1.3.8.1.2,0,.5-.2.7-.2.1-.5,0-.7-.2,0-.2-.3-.2-.4-.2h-1.1c-.3,0-.5.2-.5.5s.1.3.3.4l1.5.3c.7.1,1.2.7,1.2,1.4h0Z"/>
</svg>