<!-- Generated by IcoMoon.io -->
<svg version="1.1" xmlns="http://www.w3.org/2000/svg" width="32" height="32" viewBox="0 0 32 32">
<title>money-collect</title>
<path d="M28.782 22.037c-0.011-0.032-0.029-0.061-0.052-0.086s-0.050-0.045-0.081-0.060c-0.031-0.014-0.064-0.022-0.098-0.024s-0.068 0.004-0.099 0.016l-1.958 0.713v-17.221c0-1.203-0.973-2.176-2.176-2.176h-16.639c-1.203 0-2.176 0.973-2.176 2.176v17.221l-1.961-0.713c-0.029-0.010-0.058-0.016-0.086-0.016-0.141 0-0.256 0.115-0.256 0.256v1.907c0 0.106 0.067 0.202 0.17 0.24l12.278 4.467c0.227 0.083 0.474 0.083 0.701 0l12.281-4.464c0.102-0.038 0.17-0.134 0.17-0.24v-1.907c0-0.032-0.006-0.061-0.016-0.090zM15.999 26.415l-8.191-2.979v-17.932h16.383v17.932l-8.192 2.979zM20.754 9.6h-1.744c-0.096 0-0.186 0.054-0.227 0.141l-2.71 5.401h-0.106l-2.71-5.401c-0.021-0.042-0.054-0.078-0.094-0.102s-0.086-0.038-0.133-0.038h-1.782c-0.042 0-0.083 0.010-0.122 0.032-0.125 0.067-0.17 0.224-0.102 0.346l3.325 6.131h-1.824c-0.141 0-0.256 0.115-0.256 0.256v0.867c0 0.141 0.115 0.256 0.256 0.256h2.432v1.248h-2.432c-0.141 0-0.256 0.115-0.256 0.256v0.867c0 0.141 0.115 0.256 0.256 0.256h2.432v2.029c0 0.141 0.115 0.256 0.256 0.256h1.597c0.141 0 0.256-0.115 0.256-0.256v-2.032h2.441c0.141 0 0.256-0.115 0.256-0.256v-0.867c0-0.141-0.115-0.256-0.256-0.256h-2.441v-1.248h2.441c0.141 0 0.256-0.115 0.256-0.256v-0.867c0-0.141-0.115-0.256-0.256-0.256h-1.843l3.318-6.131c0.019-0.038 0.032-0.080 0.032-0.122-0.003-0.138-0.118-0.253-0.259-0.253v0z"></path>
</svg>
