<svg width="20" height="20" viewBox="0 0 20 20" fill="none" xmlns="http://www.w3.org/2000/svg">
<path d="M17.1626 1H12.2524C11.4615 1 10.8203 1.64118 10.8203 2.43212V7.34225C10.8203 8.13318 11.4615 8.77437 12.2524 8.77437H17.1626C17.9535 8.77437 18.5947 8.13318 18.5947 7.34225V2.43212C18.5947 1.64118 17.9535 1 17.1626 1Z" fill="black"/>
<path d="M18.5812 13.6953L15.7203 10.8343C15.4514 10.5666 15.0874 10.4163 14.708 10.4163C14.3285 10.4163 13.9645 10.5666 13.6957 10.8343L10.8347 13.6953C10.5667 13.9641 10.4163 14.3281 10.4163 14.7076C10.4163 15.0871 10.5667 15.4512 10.8347 15.7199L13.6957 18.5809C13.9644 18.8488 14.3284 18.9993 14.708 18.9993C15.0875 18.9993 15.4515 18.8488 15.7203 18.5809L18.5812 15.7199C18.8494 15.4513 19 15.0872 19 14.7076C19 14.328 18.8494 13.964 18.5812 13.6953Z" fill="black"/>
<path d="M7.34225 1H2.43212C1.64118 1 1 1.64118 1 2.43212V7.34225C1 8.13318 1.64118 8.77437 2.43212 8.77437H7.34225C8.13318 8.77437 8.77437 8.13318 8.77437 7.34225V2.43212C8.77437 1.64118 8.13318 1 7.34225 1Z" fill="black"/>
<path d="M7.34225 10.8203H2.43212C1.64118 10.8203 1 11.4615 1 12.2524V17.1626C1 17.9535 1.64118 18.5947 2.43212 18.5947H7.34225C8.13318 18.5947 8.77437 17.9535 8.77437 17.1626V12.2524C8.77437 11.4615 8.13318 10.8203 7.34225 10.8203Z" fill="black"/>
</svg>
