<svg width="24" height="24" viewBox="0 0 24 24" fill="none" xmlns="http://www.w3.org/2000/svg">
<g clip-path="url(#clip0_7359_1431)">
<path d="M6.66667 12.3333H17.3333C17.7111 12.3333 18.0278 12.2056 18.2833 11.95C18.5389 11.6944 18.6667 11.3778 18.6667 11C18.6667 10.6222 18.5389 10.3056 18.2833 10.05C18.0278 9.79444 17.7111 9.66667 17.3333 9.66667H6.66667C6.28889 9.66667 5.97222 9.79444 5.71667 10.05C5.46111 10.3056 5.33333 10.6222 5.33333 11C5.33333 11.3778 5.46111 11.6944 5.71667 11.95C5.97222 12.2056 6.28889 12.3333 6.66667 12.3333ZM6.66667 7.66667H17.3333C17.7111 7.66667 18.0278 7.53889 18.2833 7.28333C18.5389 7.02778 18.6667 6.71111 18.6667 6.33333C18.6667 5.95556 18.5389 5.63889 18.2833 5.38333C18.0278 5.12778 17.7111 5 17.3333 5H6.66667C6.28889 5 5.97222 5.12778 5.71667 5.38333C5.46111 5.63889 5.33333 5.95556 5.33333 6.33333C5.33333 6.71111 5.46111 7.02778 5.71667 7.28333C5.97222 7.53889 6.28889 7.66667 6.66667 7.66667ZM2.66667 24C1.93333 24 1.30556 23.7389 0.783333 23.2167C0.261111 22.6944 0 22.0667 0 21.3333V2.66667C0 1.93333 0.261111 1.30556 0.783333 0.783333C1.30556 0.261111 1.93333 0 2.66667 0H21.3333C22.0667 0 22.6944 0.261111 23.2167 0.783333C23.7389 1.30556 24 1.93333 24 2.66667V21.3333C24 22.0667 23.7389 22.6944 23.2167 23.2167C22.6944 23.7389 22.0667 24 21.3333 24H2.66667ZM12 17.3333C12.7111 17.3333 13.3667 17.15 13.9667 16.7833C14.5667 16.4167 15.0556 15.9333 15.4333 15.3333C15.5667 15.1333 15.7333 14.9722 15.9333 14.85C16.1333 14.7278 16.3556 14.6667 16.6 14.6667H21.3333V2.66667H2.66667V14.6667H7.4C7.64444 14.6667 7.86667 14.7278 8.06667 14.85C8.26667 14.9722 8.43333 15.1333 8.56667 15.3333C8.94444 15.9333 9.43333 16.4167 10.0333 16.7833C10.6333 17.15 11.2889 17.3333 12 17.3333Z" fill="black"/>
</g>
<defs>
<clipPath id="clip0_7359_1431">
<rect width="24" height="24" fill="white"/>
</clipPath>
</defs>
</svg>
