<!-- Generated by IcoMoon.io -->
<svg version="1.1" xmlns="http://www.w3.org/2000/svg" width="32" height="32" viewBox="0 0 32 32">
<title>near-me</title>
<path d="M24.1 17c1 0.9 1.7 2 1.7 3.2s-0.7 2.3-1.8 3.2c-1.8 1.5-4.7 2.5-8 2.5s-6.2-1-8-2.5c-1.1-0.9-1.8-2-1.8-3.2s0.6-2.3 1.7-3.2c0.2-0.1 0.3-0.4 0.3-0.6s-0.1-0.4-0.2-0.6c-0.2-0.2-0.4-0.3-0.6-0.3s-0.4 0.1-0.6 0.2c-1.4 1.2-2.3 2.8-2.3 4.4 0 1.7 0.9 3.2 2.3 4.5 2.1 1.7 5.4 2.9 9.2 2.9s7.1-1.1 9.2-2.9c1.5-1.2 2.3-2.8 2.3-4.5 0-1.6-0.8-3.2-2.3-4.4-0.2-0.1-0.4-0.2-0.6-0.2s-0.4 0.1-0.6 0.3c-0.2 0.2-0.2 0.4-0.2 0.6 0 0.3 0.1 0.5 0.3 0.6zM20.8 19.1c0.3 0.3 0.4 0.7 0.4 1.1 0 0.6-0.3 1.1-0.9 1.6-1 0.8-2.6 1.3-4.3 1.3s-3.3-0.5-4.3-1.3c-0.5-0.4-0.9-1-0.9-1.6 0-0.3 0.1-0.7 0.3-0.9 0.1-0.1 0.1-0.2 0.1-0.3s0-0.2 0-0.3c0-0.1-0.1-0.2-0.1-0.3-0.1-0.1-0.1-0.2-0.2-0.2-0.1-0.1-0.2-0.1-0.3-0.1s-0.2 0-0.3 0c-0.1 0-0.2 0.1-0.3 0.1-0.1 0.1-0.2 0.1-0.2 0.2-0.4 0.5-0.6 1.2-0.6 1.8 0 1 0.5 2 1.5 2.8 1.2 1 3.2 1.7 5.5 1.7s4.2-0.7 5.5-1.7c0.9-0.8 1.5-1.8 1.5-2.8 0-0.7-0.3-1.4-0.7-2.1-0.1-0.2-0.3-0.3-0.6-0.3-0.2 0-0.5 0-0.6 0.1-0.2 0.1-0.3 0.3-0.3 0.5-0.4 0.3-0.3 0.5-0.2 0.7zM15.3 21.6c0.1 0.1 0.2 0.2 0.3 0.3s0.3 0.1 0.4 0.1c0.1 0 0.3 0 0.4-0.1s0.2-0.2 0.3-0.3c0 0 2.6-3.7 4.2-7.1 0.7-1.5 1.2-3 1.2-4.1 0-3.2-2.7-5.8-6.1-5.8s-6.1 2.6-6.1 5.8c0 1.1 0.5 2.5 1.2 4.1 1.6 3.3 4.2 7.1 4.2 7.1zM16 8.3c0.7 0 1.3 0.3 1.8 0.7s0.7 1.1 0.7 1.7c0 1.3-1.1 2.4-2.5 2.4s-2.5-1.1-2.5-2.4c0-0.6 0.3-1.2 0.7-1.7 0.5-0.4 1.1-0.7 1.8-0.7z"></path>
</svg>
