<?xml version="1.0" encoding="utf-8"?>
<!-- Generator: Adobe Illustrator 28.1.0, SVG Export Plug-In . SVG Version: 6.00 Build 0)  -->
<svg version="1.1" id="Layer_1" xmlns="http://www.w3.org/2000/svg" xmlns:xlink="http://www.w3.org/1999/xlink" x="0px" y="0px"
	 viewBox="0 0 20 20" style="enable-background:new 0 0 20 20;" xml:space="preserve">
<g>
	<path d="M16.8,11.8c-0.1-0.1-1-0.5-1-0.5c0.2-0.1,0.3-0.1,0.3-0.4c0-0.3,0-0.4-0.2-0.4h-0.8l0,0c-0.5-1-0.6-1.3-1.3-1.7
		c-1-0.5-2.9-0.5-3.7-0.5c-0.8,0-2.7,0-3.7,0.5c-0.8,0.4-0.7,0.5-1.3,1.7l0,0H4.2C4,10.5,4,10.6,4,10.9c0,0.3,0.1,0.3,0.3,0.4
		c0,0-0.8,0.4-1,0.5c-0.1,0.1-0.2,0.9-0.2,2.2s0.1,2.6,0.1,2.6h0.3C3.5,17,3.6,17,3.7,17H6c0.2,0,0.2-0.1,0.2-0.4h7.5
		c0,0.4,0.1,0.4,0.2,0.4h2.4c0.1,0,0.2-0.1,0.2-0.4h0.3c0,0,0.1-1.3,0.1-2.6S16.9,11.8,16.8,11.8z M6.2,12.9
		c-0.5,0.1-1.1,0.1-1.6,0.1c-0.6,0-0.6,0-0.7-0.3c0-0.2,0-0.3,0-0.5v-0.1H4c0.3,0,0.7,0,1.3,0.2c0.3,0.1,0.6,0.2,0.9,0.4
		c0.2,0.1,0.2,0.2,0.2,0.2H6.2z M13.4,14.8l-0.1,0.3H6.8c0,0,0,0-0.1-0.3c-0.1-0.2,0-0.4,0.3-0.4c0.4-0.2,1.8-0.6,3.2-0.6
		s2.7,0.4,3.2,0.6C13.3,14.6,13.5,14.6,13.4,14.8L13.4,14.8z M5.9,11.1c-0.1,0-0.2,0-0.3,0c0.1-0.1,0.1-0.3,0.2-0.4
		c0.2-0.5,0.5-1,1-1.2C7.5,9.2,8.9,9.1,10,9.1s2.5,0.1,3.2,0.5c0.5,0.2,0.7,0.7,1,1.2c0.1,0.1,0.1,0.3,0.2,0.4c-0.1,0-0.1,0-0.3,0
		H5.9z M16.1,12.6c-0.1,0.3,0,0.3-0.6,0.3c-0.5,0-1.1,0-1.6-0.1c-0.1,0-0.1-0.1,0-0.2c0.3-0.2,0.6-0.3,0.9-0.4
		c0.6-0.2,1-0.2,1.3-0.2c0,0,0,0,0.1,0c0,0,0,0,0,0.1C16.1,12.3,16.1,12.6,16.1,12.6L16.1,12.6z"/>
	<path d="M16.2,9.1L16.2,9.1c0-0.1,0-0.2,0.1-0.3c0-0.1,0-0.1,0.1-0.2c0-0.1,0.1-0.1,0.1-0.1c0.2-0.1,0.3-0.1,0.5-0.2l0,0l0,0l0,0
		c-0.1,0-0.1,0-0.2-0.1c-0.1,0-0.2-0.1-0.4-0.1c-0.1,0-0.1-0.1-0.1-0.1c0-0.2-0.1-0.4-0.1-0.6l0,0l0,0c-0.1,0.2-0.1,0.3-0.2,0.5
		c0,0.1-0.1,0.1-0.1,0.1c-0.2,0.1-0.3,0.1-0.5,0.2l0,0l0,0c0.2,0.1,0.3,0.1,0.5,0.2C16,8.3,16,8.4,16,8.4C16,8.6,16.1,8.8,16.2,9.1
		C16.1,9.1,16.1,9.1,16.2,9.1C16.1,9.1,16.1,9.1,16.2,9.1L16.2,9.1z"/>
	<path d="M13.1,6.4L13.1,6.4c0.1-0.3,0.2-0.5,0.2-0.7c0-0.1,0.1-0.3,0.1-0.4s0.1-0.2,0.2-0.2c0.3-0.1,0.7-0.2,1-0.3h0.1
		c0,0,0,0,0-0.1s0,0,0,0c-0.1,0-0.2-0.1-0.4-0.1c-0.2-0.1-0.5-0.1-0.7-0.2c-0.1,0-0.2-0.1-0.3-0.3c-0.1-0.3-0.2-0.7-0.3-1
		c0,0,0,0-0.1-0.1c0,0-0.1,0-0.1,0.1c-0.1,0.3-0.2,0.7-0.3,1c0,0.1-0.1,0.2-0.3,0.3c-0.3,0.1-0.7,0.2-1,0.3c0,0-0.1,0-0.1,0.1
		c0,0,0,0,0.1,0.1c0.3,0.1,0.7,0.2,1,0.3c0.1,0,0.2,0.1,0.3,0.3C12.8,5.6,12.9,6,13.1,6.4C13,6.4,13.1,6.4,13.1,6.4L13.1,6.4
		L13.1,6.4z"/>
	<path d="M4.3,7.8C4.4,7.8,4.4,7.8,4.3,7.8c0.1-0.2,0.1-0.4,0.2-0.5c0-0.1,0.1-0.2,0.1-0.3c0-0.1,0.1-0.2,0.2-0.2
		C5,6.7,5.3,6.6,5.5,6.6c0,0,0,0,0.1,0l0,0l0,0c-0.1,0-0.2-0.1-0.3-0.1C5.2,6.2,5,6.2,4.8,6.1C4.7,6.1,4.7,6,4.6,5.9
		C4.5,5.8,4.5,5.4,4.4,5.1c0,0,0,0,0-0.1c0,0,0,0,0,0.1C4.2,5.4,4.1,5.8,4,5.9C4,6,3.9,6.1,3.8,6.1C3.6,6.2,3.3,6.3,3.1,6.4
		c0,0,0,0-0.1,0c0,0,0,0,0.1,0c0.3,0.1,0.5,0.2,0.8,0.2c0.1,0,0.2,0.1,0.2,0.2C4.1,7.1,4.2,7.4,4.3,7.8L4.3,7.8L4.3,7.8L4.3,7.8z"/>
</g>
</svg>
