<!-- Generated by IcoMoon.io -->
<svg version="1.1" xmlns="http://www.w3.org/2000/svg" width="32" height="32" viewBox="0 0 32 32">
<title>new-transmission</title>
<path d="M17.277 8.323c-0.001 1.134-0.378 2.236-1.073 3.132s-1.668 1.537-2.766 1.82v6.565h-2.559v-6.565c-0.927-0.239-1.769-0.734-2.429-1.428s-1.112-1.559-1.305-2.497c-0.193-0.938-0.119-1.911 0.213-2.809s0.91-1.685 1.667-2.271c0.757-0.586 1.664-0.948 2.616-1.045s1.913 0.076 2.773 0.498c0.86 0.422 1.583 1.077 2.090 1.89s0.774 1.752 0.773 2.709zM28.795 26.24v1.28c0 0.339-0.135 0.665-0.375 0.905s-0.566 0.375-0.905 0.375h-23.035c-0.339 0-0.665-0.135-0.905-0.375s-0.375-0.565-0.375-0.905v-1.28c0-1.018 0.404-1.995 1.124-2.715s1.697-1.124 2.715-1.124h17.916c1.018 0 1.995 0.404 2.715 1.124s1.124 1.696 1.124 2.715zM19.837 19.842h2.559c0.34 0 0.665-0.135 0.905-0.375s0.375-0.565 0.375-0.905c0-0.34-0.135-0.665-0.375-0.905s-0.565-0.375-0.905-0.375h-2.559c-0.34 0-0.665 0.135-0.905 0.375s-0.375 0.565-0.375 0.905c0 0.339 0.135 0.665 0.375 0.905s0.565 0.375 0.905 0.375z"></path>
</svg>
