<?xml version="1.0" encoding="utf-8"?>
<!-- Generator: Adobe Illustrator 28.1.0, SVG Export Plug-In . SVG Version: 6.00 Build 0)  -->
<svg version="1.1" id="Layer_1" xmlns="http://www.w3.org/2000/svg" xmlns:xlink="http://www.w3.org/1999/xlink" x="0px" y="0px"
	 viewBox="0 0 19.6 20" style="enable-background:new 0 0 19.6 20;" xml:space="preserve">
<g>
	<path d="M16.6,11.8c-0.1-0.1-1-0.5-1-0.5c0.2-0.1,0.3-0.1,0.3-0.4c0-0.3,0-0.4-0.2-0.4h-0.8c0,0,0,0,0,0c-0.5-1-0.6-1.3-1.3-1.7
		c-1-0.5-2.9-0.5-3.7-0.5s-2.7,0-3.7,0.5c-0.8,0.4-0.7,0.5-1.3,1.7c0,0,0,0,0,0H4c-0.2,0-0.2,0.1-0.2,0.4c0,0.3,0.1,0.3,0.3,0.4
		c0,0-0.8,0.4-1,0.5c-0.1,0.1-0.2,0.9-0.2,2.2s0.1,2.6,0.1,2.6h0.3c0,0.4,0.1,0.4,0.2,0.4h2.3c0.2,0,0.2-0.1,0.2-0.4h7.5
		c0,0.4,0.1,0.4,0.2,0.4h2.4c0.1,0,0.2-0.1,0.2-0.4h0.3c0,0,0.1-1.3,0.1-2.6S16.7,11.9,16.6,11.8z M6,13c-0.5,0.1-1.1,0.1-1.6,0.1
		c-0.6,0-0.6,0-0.7-0.3c0-0.2,0-0.3,0-0.5l0-0.1h0.1c0.3,0,0.7,0,1.3,0.2c0.3,0.1,0.6,0.2,0.9,0.4C6.2,12.9,6.2,13,6.2,13L6,13z
		 M13.2,14.9l-0.1,0.3H6.6c0,0,0,0-0.1-0.3c-0.1-0.2,0-0.4,0.3-0.4c0.4-0.2,1.8-0.6,3.2-0.6s2.7,0.4,3.2,0.6
		C13.1,14.6,13.3,14.6,13.2,14.9L13.2,14.9z M5.7,11.2c-0.1,0-0.2,0-0.3,0c0.1-0.1,0.1-0.3,0.2-0.4c0.2-0.5,0.5-1,1-1.2
		c0.7-0.3,2.1-0.5,3.2-0.5s2.5,0.1,3.2,0.5c0.5,0.2,0.7,0.7,1,1.2c0.1,0.1,0.1,0.3,0.2,0.4c-0.1,0-0.1,0-0.3,0H5.7z M15.9,12.7
		c-0.1,0.3,0,0.3-0.6,0.3c-0.5,0-1.1,0-1.6-0.1c-0.1,0-0.1-0.1,0-0.2c0.3-0.2,0.6-0.3,0.9-0.4c0.6-0.2,1-0.2,1.3-0.2c0,0,0,0,0.1,0
		c0,0,0,0,0,0.1C15.9,12.4,15.9,12.6,15.9,12.7L15.9,12.7z"/>
	<path d="M16,9.1C16,9.1,16,9.1,16,9.1C16,9,16,8.9,16.1,8.8c0-0.1,0-0.1,0.1-0.2c0-0.1,0.1-0.1,0.1-0.1c0.2-0.1,0.3-0.1,0.5-0.2
		c0,0,0,0,0,0c0,0,0,0,0,0c0,0,0,0,0,0c-0.1,0-0.1,0-0.2-0.1c-0.1,0-0.2-0.1-0.4-0.1c-0.1,0-0.1-0.1-0.1-0.1C16.1,7.8,16,7.6,16,7.4
		c0,0,0,0,0,0c0,0,0,0,0,0c-0.1,0.2-0.1,0.3-0.2,0.5c0,0.1-0.1,0.1-0.1,0.1c-0.2,0.1-0.3,0.1-0.5,0.2c0,0,0,0,0,0c0,0,0,0,0,0
		c0.2,0.1,0.3,0.1,0.5,0.2c0.1,0,0.1,0.1,0.1,0.1C15.8,8.7,15.9,8.9,16,9.1C15.9,9.1,15.9,9.1,16,9.1C15.9,9.1,15.9,9.1,16,9.1
		L16,9.1z"/>
	<path d="M12.9,6.5C12.9,6.5,12.9,6.5,12.9,6.5C13,6.2,13.1,6,13.1,5.8c0-0.1,0.1-0.3,0.1-0.4c0-0.1,0.1-0.2,0.2-0.2
		c0.3-0.1,0.7-0.2,1-0.3c0,0,0.1,0,0.1,0c0,0,0,0,0-0.1s0,0,0,0c-0.1,0-0.2-0.1-0.4-0.1c-0.2-0.1-0.5-0.1-0.7-0.2
		c-0.1,0-0.2-0.1-0.3-0.3c-0.1-0.3-0.2-0.7-0.3-1c0,0,0,0-0.1-0.1c0,0-0.1,0-0.1,0.1c-0.1,0.3-0.2,0.7-0.3,1c0,0.1-0.1,0.2-0.3,0.3
		c-0.3,0.1-0.7,0.2-1,0.3c0,0-0.1,0-0.1,0.1c0,0,0,0,0.1,0.1c0.3,0.1,0.7,0.2,1,0.3c0.1,0,0.2,0.1,0.3,0.3
		C12.6,5.7,12.7,6.1,12.9,6.5C12.8,6.5,12.9,6.5,12.9,6.5C12.9,6.5,12.9,6.5,12.9,6.5L12.9,6.5z"/>
	<path d="M4.1,7.8C4.2,7.8,4.2,7.8,4.1,7.8c0.1-0.2,0.1-0.4,0.2-0.5c0-0.1,0.1-0.2,0.1-0.3c0-0.1,0.1-0.2,0.2-0.2
		c0.2-0.1,0.5-0.2,0.7-0.2c0,0,0,0,0.1,0c0,0,0,0,0,0c0,0,0,0,0,0c-0.1,0-0.2-0.1-0.3-0.1C5,6.3,4.8,6.3,4.6,6.2
		C4.5,6.2,4.5,6.1,4.4,6C4.3,5.8,4.3,5.5,4.2,5.2c0,0,0,0,0-0.1c0,0,0,0,0,0.1C4,5.5,3.9,5.8,3.8,6c0,0.1-0.1,0.2-0.2,0.2
		C3.4,6.3,3.1,6.4,2.9,6.5c0,0,0,0-0.1,0c0,0,0,0,0.1,0c0.3,0.1,0.5,0.2,0.8,0.2c0.1,0,0.2,0.1,0.2,0.2C3.9,7.2,4,7.5,4.1,7.8
		C4.1,7.8,4.1,7.8,4.1,7.8C4.1,7.8,4.1,7.8,4.1,7.8L4.1,7.8z"/>
</g>
</svg>
