<!-- Generated by IcoMoon.io -->
<svg version="1.1" xmlns="http://www.w3.org/2000/svg" width="32" height="32" viewBox="0 0 32 32">
<path d="M16 2.667c-7.36 0-13.333 5.973-13.333 13.333s5.973 13.333 13.333 13.333c7.36 0 13.333-5.973 13.333-13.333s-5.973-13.333-13.333-13.333zM11.667 18.24c-0.173 0.573-0.827 0.84-1.36 0.6-0.219-0.102-0.394-0.279-0.492-0.5s-0.113-0.469-0.042-0.7c0.16-0.547 0.24-1.107 0.227-1.653s-0.080-1.067-0.227-1.573c-0.133-0.48 0.080-1 0.533-1.2 0.56-0.253 1.213 0.053 1.387 0.653 0.2 0.68 0.293 1.373 0.307 2.093-0.001 0.772-0.113 1.54-0.333 2.28zM15.853 20.36c-0.227 0.547-0.893 0.76-1.413 0.467-0.211-0.122-0.37-0.316-0.448-0.547s-0.071-0.481 0.022-0.707c0.44-1.027 0.653-2.173 0.653-3.413 0-1.28-0.24-2.52-0.707-3.707-0.187-0.48 0.027-1.013 0.48-1.253 0.52-0.267 1.16-0.027 1.373 0.52 0.56 1.413 0.84 2.907 0.84 4.44 0.027 1.507-0.253 2.92-0.8 4.2zM20 22.133c-0.099 0.246-0.292 0.442-0.535 0.546s-0.519 0.107-0.765 0.007-0.442-0.292-0.546-0.535c-0.104-0.244-0.107-0.519-0.007-0.765 0.787-1.853 1.187-3.667 1.187-5.413s-0.4-3.533-1.173-5.347c-0.213-0.48 0.013-1.040 0.48-1.267 0.52-0.267 1.133-0.027 1.36 0.507 0.88 2.053 1.333 4.107 1.333 6.107s-0.453 4.080-1.333 6.16z"></path>
</svg>
