<!-- Generated by IcoMoon.io -->
<svg version="1.1" xmlns="http://www.w3.org/2000/svg" width="32" height="32" viewBox="0 0 32 32">
<title>node-collapse</title>
<path d="M28.558 18.462c0.133 0 0.242-0.109 0.242-0.242v-1.692c0-0.133-0.109-0.242-0.242-0.242h-19.767c-0.216-0.536-0.588-0.995-1.068-1.318s-1.044-0.496-1.622-0.495c-1.602 0-2.902 1.3-2.902 2.902s1.3 2.902 2.902 2.902c1.218 0 2.261-0.75 2.69-1.813h4.543v4.594c0 1.668 1.354 3.022 3.022 3.022h12.202c0.133 0 0.242-0.109 0.242-0.242v-1.693c0-0.133-0.109-0.242-0.242-0.242h-12.202c-0.468 0-0.846-0.378-0.846-0.846v-4.594h13.048zM13.437 9.446l5.214 4.117c0.19 0.154 0.477 0.015 0.477-0.233v-2.968h7.979c0.133 0 0.242-0.109 0.242-0.242v-1.813c0-0.133-0.109-0.242-0.242-0.242h-7.979v-2.968c0-0.245-0.284-0.387-0.477-0.233l-5.214 4.117c-0.035 0.028-0.063 0.063-0.082 0.104s-0.029 0.084-0.029 0.129c0 0.045 0.010 0.089 0.029 0.129s0.047 0.076 0.082 0.104v0z"></path>
</svg>
