<!-- Generated by IcoMoon.io -->
<svg version="1.1" xmlns="http://www.w3.org/2000/svg" width="32" height="32" viewBox="0 0 32 32">
<title>node-index</title>
<path d="M26.055 23.219c-0.397-2.407-2.535-4.132-4.97-4.013s-4.394 2.048-4.551 4.481c-4.913-0.154-6.657-1.303-6.372-3.639 0.106-0.874 0.634-1.341 1.603-1.568 0.589-0.138 1.242-0.157 1.834-0.102 0.054 0.006 0.112 0.010 0.166 0.016 0.362 0.086 0.73 0.16 1.098 0.218 1.091 0.179 2.202 0.269 3.258 0.211 2.97-0.16 4.993-1.469 5.095-4.247 0.099-2.692-1.751-4.599-4.734-5.876-0.957-0.41-1.972-0.726-2.986-0.967-0.458-0.109-0.842-0.182-1.127-0.23-0.253-2.429-2.288-4.282-4.73-4.301s-4.51 1.795-4.804 4.221c-0.294 2.426 1.28 4.682 3.655 5.246s4.798-0.746 5.623-3.044c0.301 0.054 0.598 0.115 0.896 0.186 0.903 0.211 1.805 0.493 2.637 0.851 2.263 0.967 3.498 2.244 3.44 3.837-0.051 1.427-1.075 2.087-3.079 2.196-0.88 0.048-1.844-0.029-2.794-0.186-0.266-0.045-0.509-0.090-0.723-0.138-0.125-0.026-0.211-0.048-0.25-0.058l-0.099-0.019c-0.070-0.010-0.189-0.026-0.342-0.042-0.8-0.074-1.667-0.048-2.512 0.147-1.767 0.413-3.005 1.511-3.236 3.386-0.502 4.039 2.516 5.911 8.833 6.046 0.931 2.253 3.405 3.453 5.748 2.784 2.346-0.669 3.818-2.989 3.421-5.396v0zM9.591 10.667c-0.35 0-0.697-0.069-1.020-0.203s-0.617-0.33-0.865-0.578c-0.248-0.248-0.444-0.542-0.578-0.865s-0.203-0.67-0.203-1.020c0-0.35 0.069-0.697 0.203-1.020s0.33-0.617 0.578-0.865c0.248-0.248 0.542-0.444 0.865-0.578s0.67-0.203 1.020-0.203c0.707 0 1.385 0.281 1.885 0.781s0.781 1.178 0.781 1.885c0 0.707-0.281 1.385-0.781 1.885s-1.178 0.781-1.885 0.781zM21.321 26.663c-0.35 0-0.697-0.069-1.020-0.203s-0.617-0.33-0.865-0.578c-0.248-0.248-0.444-0.541-0.578-0.865s-0.203-0.67-0.203-1.020c0-0.35 0.069-0.697 0.203-1.020s0.33-0.617 0.578-0.865c0.248-0.248 0.542-0.444 0.865-0.578s0.67-0.203 1.020-0.203c0.707 0 1.385 0.281 1.885 0.781s0.781 1.178 0.781 1.885c0 0.707-0.281 1.385-0.781 1.885s-1.178 0.781-1.885 0.781v0z"></path>
</svg>
