<!-- Generated by IcoMoon.io -->
<svg version="1.1" xmlns="http://www.w3.org/2000/svg" width="32" height="32" viewBox="0 0 32 32">
<title>noti</title>
<path d="M27.002 27h-22c-0.17 0-0.338-0.045-0.487-0.128s-0.273-0.204-0.363-0.349-0.14-0.311-0.147-0.481c-0.007-0.17 0.029-0.34 0.106-0.492 1.234-2.487 1.88-5.224 1.89-8v-3.55c0-2.652 1.054-5.196 2.929-7.071s4.419-2.929 7.071-2.929c2.652 0 5.196 1.054 7.071 2.929s2.929 4.419 2.929 7.071v3.53c0.010 2.776 0.656 5.513 1.89 8 0.081 0.153 0.122 0.324 0.117 0.497s-0.055 0.342-0.144 0.49c-0.090 0.148-0.216 0.271-0.368 0.355s-0.322 0.128-0.495 0.127v0zM6.552 25h18.9c-0.954-2.375-1.446-4.911-1.45-7.47v-3.53c0-2.122-0.843-4.157-2.343-5.657s-3.535-2.343-5.657-2.343c-2.122 0-4.157 0.843-5.657 2.343s-2.343 3.535-2.343 5.657v3.53c-0.004 2.559-0.496 5.095-1.45 7.47v0z"></path>
<path d="M16 31c-1.326 0-2.598-0.527-3.536-1.464s-1.464-2.209-1.464-3.536c0-0.265 0.105-0.52 0.293-0.707s0.442-0.293 0.707-0.293 0.52 0.105 0.707 0.293c0.188 0.188 0.293 0.442 0.293 0.707 0.001 0.795 0.317 1.558 0.88 2.12 0.572 0.543 1.331 0.846 2.12 0.846s1.548-0.303 2.12-0.846c0.093-0.093 0.204-0.167 0.326-0.218s0.252-0.076 0.384-0.076c0.132 0 0.263 0.026 0.384 0.076s0.232 0.124 0.326 0.218 0.167 0.204 0.218 0.326c0.051 0.122 0.076 0.252 0.076 0.384s-0.026 0.262-0.076 0.384c-0.050 0.122-0.124 0.232-0.218 0.326-0.465 0.464-1.017 0.832-1.625 1.082s-1.258 0.379-1.915 0.378z"></path>
<path d="M16 6c-0.265 0-0.52-0.105-0.707-0.293s-0.293-0.442-0.293-0.707v-3c0-0.265 0.105-0.52 0.293-0.707s0.442-0.293 0.707-0.293c0.265 0 0.52 0.105 0.707 0.293s0.293 0.442 0.293 0.707v3c0 0.265-0.105 0.52-0.293 0.707s-0.442 0.293-0.707 0.293z"></path>
</svg>
