<!-- Generated by IcoMoon.io -->
<svg version="1.1" xmlns="http://www.w3.org/2000/svg" width="32" height="32" viewBox="0 0 32 32">
<title>noti-fill</title>
<path d="M25.6 24c-0.96-1.92-1.44-4.16-1.44-6.24v-2.72c0-2.080-0.8-4.16-2.4-5.76-1.28-1.28-3.040-2.080-4.8-2.24v-1.44c0-0.32-0.16-0.48-0.32-0.64s-0.32-0.32-0.64-0.32c-0.32 0-0.48 0.16-0.64 0.32s-0.32 0.32-0.32 0.64v1.44c-1.76 0.32-3.52 0.96-4.8 2.24-1.6 1.6-2.4 3.52-2.4 5.76v2.88c0 2.080-0.48 4.32-1.44 6.24 0 0.16-0.16 0.32-0.16 0.48s0 0.32 0.16 0.48c0 0.16 0.16 0.32 0.32 0.32s0.32 0.16 0.48 0.16h4.8c0.16 0.64 0.48 1.28 1.12 1.92 0.8 0.8 1.76 1.12 2.88 1.12 0.48 0 1.12-0.16 1.6-0.32s0.96-0.48 1.28-0.8c0-0.16 0.16-0.16 0.16-0.32s0-0.16 0-0.32 0-0.16 0-0.32-0.16-0.16-0.16-0.32-0.16-0.16-0.32-0.16-0.16 0-0.32 0-0.16 0-0.32 0-0.16 0.16-0.32 0.16c-0.48 0.32-0.96 0.64-1.6 0.64s-1.28-0.16-1.6-0.64c-0.16-0.16-0.32-0.48-0.48-0.64h10.88c0 0 0 0 0 0v0c0.16 0 0.32 0 0.32-0.16 0.16 0 0.32-0.16 0.32-0.32 0.16-0.16 0.16-0.32 0.16-0.48 0.16-0.32 0.16-0.48 0-0.64z"></path>
</svg>
