<?xml version="1.0" encoding="UTF-8"?>
<svg id="Layer_1" data-name="Layer 1" xmlns="http://www.w3.org/2000/svg" version="1.1" viewBox="0 0 24 24">
  <defs>
    <style>
      .cls-1 {
        fill: #000;
        stroke-width: 0px;
      }
    </style>
  </defs>
  <path class="cls-1" d="M5,19c-.3,0-.5,0-.7-.3s-.3-.4-.3-.7,0-.5.3-.7.4-.3.7-.3h1v-7c0-1.4.4-2.6,1.3-3.7s1.9-1.8,3.2-2.1v-.7c0-.4.1-.8.4-1.1s.6-.4,1.1-.4.8.1,1.1.4.4.6.4,1.1v.7c1.3.3,2.4,1,3.2,2.1s1.3,2.3,1.3,3.7v7h1c.3,0,.5,0,.7.3s.3.4.3.7,0,.5-.3.7-.4.3-.7.3H5h0ZM12,22c-.5,0-1-.2-1.4-.6s-.6-.9-.6-1.4h4c0,.5-.2,1-.6,1.4s-.9.6-1.4.6h0ZM8,17h8v-7c0-1.1-.4-2-1.2-2.8s-1.7-1.2-2.8-1.2-2,.4-2.8,1.2-1.2,1.7-1.2,2.8v7h0Z"/>
</svg>