<!-- Generated by IcoMoon.io -->
<svg version="1.1" xmlns="http://www.w3.org/2000/svg" width="32" height="32" viewBox="0 0 32 32">
<path fill="#1f2937" d="M16 29.333c-0.733 0-1.361-0.261-1.883-0.783s-0.783-1.15-0.783-1.883h5.333c0 0.733-0.261 1.361-0.783 1.883s-1.15 0.783-1.883 0.783zM6.667 25.333c-0.378 0-0.694-0.128-0.95-0.383s-0.383-0.572-0.383-0.95c0-0.378 0.128-0.694 0.383-0.95s0.572-0.383 0.95-0.383h1.333v-9.333c0-1.844 0.556-3.483 1.667-4.917s2.556-2.372 4.333-2.817v-0.933c0-0.556 0.194-1.028 0.583-1.417s0.861-0.583 1.417-0.583c0.556 0 1.028 0.194 1.417 0.583s0.583 0.861 0.583 1.417v0.433c-0.244 0.489-0.422 0.989-0.533 1.5s-0.156 1.033-0.133 1.567c-0.222-0.044-0.439-0.083-0.65-0.117s-0.439-0.050-0.683-0.050c-1.467 0-2.722 0.522-3.767 1.567s-1.567 2.3-1.567 3.767v9.333h10.667v-8.567c0.4 0.178 0.828 0.317 1.283 0.417s0.917 0.15 1.383 0.15v8h1.333c0.378 0 0.694 0.128 0.95 0.383s0.383 0.572 0.383 0.95c0 0.378-0.128 0.694-0.383 0.95s-0.572 0.383-0.95 0.383h-18.667z"></path>
<path fill="#dc2626" d="M21.167 10.833c0.778 0.778 1.722 1.167 2.833 1.167s2.056-0.389 2.833-1.167c0.778-0.778 1.167-1.722 1.167-2.833s-0.389-2.056-1.167-2.833c-0.778-0.778-1.722-1.167-2.833-1.167s-2.056 0.389-2.833 1.167c-0.778 0.778-1.167 1.722-1.167 2.833s0.389 2.056 1.167 2.833z"></path>
</svg>
