<!-- Generated by IcoMoon.io -->
<svg version="1.1" xmlns="http://www.w3.org/2000/svg" width="32" height="32" viewBox="0 0 32 32">
<title>oil</title>
<path d="M6.857 26.24c-0.311 0-0.571-0.104-0.782-0.314s-0.315-0.468-0.315-0.777c0-0.309 0.105-0.57 0.315-0.784s0.471-0.32 0.782-0.32h1.097v-6.949h-1.091c-0.309 0-0.57-0.104-0.784-0.314s-0.32-0.468-0.32-0.777c0-0.309 0.105-0.57 0.315-0.784s0.471-0.32 0.782-0.32h1.097v-6.949h-1.091c-0.309 0-0.57-0.105-0.784-0.314s-0.32-0.468-0.32-0.777 0.105-0.57 0.315-0.784c0.21-0.213 0.471-0.32 0.782-0.32h18.286c0.311 0 0.571 0.104 0.782 0.314s0.316 0.468 0.316 0.777c0 0.309-0.105 0.57-0.316 0.784s-0.471 0.32-0.782 0.32h-1.097v6.949h1.091c0.309 0 0.57 0.105 0.784 0.314s0.32 0.468 0.32 0.777c0 0.309-0.105 0.57-0.316 0.784s-0.471 0.32-0.782 0.32h-1.097v6.949h1.091c0.309 0 0.57 0.104 0.784 0.314s0.32 0.468 0.32 0.777c0 0.309-0.105 0.57-0.316 0.784s-0.471 0.32-0.782 0.32h-18.286zM10.149 24.046h11.703v-6.949h-0.366c-0.311 0-0.571-0.104-0.782-0.314s-0.316-0.468-0.316-0.777c0-0.309 0.105-0.57 0.316-0.784s0.471-0.32 0.782-0.32h0.366v-6.949h-11.703v6.949h0.366c0.311 0 0.571 0.105 0.782 0.314s0.315 0.468 0.315 0.777c0 0.309-0.105 0.57-0.315 0.784s-0.471 0.32-0.782 0.32h-0.366v6.949zM16 20.389c0.914 0 1.691-0.31 2.331-0.93s0.96-1.388 0.96-2.304c0-0.729-0.193-1.333-0.579-1.81s-1.29-1.539-2.712-3.185c-1.402 1.646-2.301 2.707-2.697 3.185s-0.594 1.081-0.594 1.81c0 0.916 0.32 1.684 0.96 2.304s1.417 0.93 2.331 0.93z"></path>
</svg>
