<svg width="24" height="24" viewBox="0 0 24 24" fill="none" xmlns="http://www.w3.org/2000/svg">
<path fill-rule="evenodd" clip-rule="evenodd" d="M17.8739 1.83298C17.7914 1.70962 17.6741 1.61351 17.537 1.55682C17.4 1.49995 17.2492 1.48498 17.1036 1.51382C16.9581 1.54265 16.8244 1.614 16.7195 1.71882L13.7195 4.71882C13.6499 4.7886 13.5947 4.87141 13.5571 4.96252C13.5195 5.05364 13.5003 5.15126 13.5005 5.24982V9.43932L12.389 10.5508C12.1723 10.4927 11.9454 10.4839 11.7249 10.5251C11.5044 10.5663 11.296 10.6564 11.1149 10.7888C10.9339 10.9213 10.7848 11.0926 10.6787 11.2902C10.5727 11.4878 10.5122 11.7068 10.502 11.9308L10.5005 11.9998C10.5005 12.3976 10.6585 12.7792 10.9398 13.0605C11.2211 13.3418 11.6026 13.4998 12.0005 13.4998C12.2307 13.5001 12.4579 13.4473 12.6645 13.3457C12.8711 13.244 13.0515 13.0961 13.1917 12.9135C13.332 12.7309 13.4283 12.5185 13.4733 12.2927C13.5182 12.0668 13.5106 11.8337 13.451 11.6113L14.561 10.4998H18.7505C18.849 10.5 18.9466 10.4807 19.0378 10.4432C19.1289 10.4056 19.2117 10.3504 19.2815 10.2808L22.2815 7.28082C22.3866 7.17592 22.4583 7.04217 22.4873 6.89651C22.5164 6.75084 22.5015 6.59983 22.4446 6.46262C22.3878 6.32541 22.2914 6.20818 22.1678 6.12579C22.0443 6.0434 21.899 5.99955 21.7505 5.99982H18.0005V2.24982C18.0004 2.10141 17.9564 1.95634 17.8739 1.83298ZM19.94 7.49982L18.44 8.99982H15.0005V5.56032L16.5005 4.06032V6.74982C16.5005 6.94873 16.5795 7.1395 16.7201 7.28015C16.8608 7.4208 17.0515 7.49982 17.2505 7.49982H19.94ZM21.002 12.0013V12.0013C21.002 11.4915 20.3199 11.1815 19.9166 11.4934C19.8527 11.5428 19.787 11.5971 19.7191 11.658C19.5736 11.7885 19.5041 11.9804 19.4995 12.1758C19.4671 13.5585 19.0528 14.9074 18.2997 16.0722C17.4913 17.3224 16.3291 18.3037 14.9611 18.8912C13.5931 19.4787 12.0812 19.6457 10.618 19.3711C9.15471 19.0964 7.80631 18.3925 6.74447 17.3489C5.68263 16.3053 4.95541 14.9694 4.65541 13.5111C4.35541 12.0528 4.49621 10.5383 5.05988 9.16029C5.62355 7.78231 6.58458 6.60327 7.82059 5.77331C9.0566 4.94335 10.5117 4.50004 12.0005 4.49982V4.49982C12.0835 4.50078 12.1646 4.47151 12.2236 4.41309C12.2511 4.38588 12.2775 4.35836 12.3031 4.33055C12.687 3.91284 12.2446 3.12216 11.6794 3.17052C10.4806 3.27309 8.87415 3.49468 7.93592 3.96981C6.30097 4.79776 4.95774 6.1051 4.08583 7.71703C3.21392 9.32896 2.85488 11.1687 3.05671 12.9901C3.25854 14.8116 4.01163 16.5281 5.21528 17.91C6.41893 19.292 8.01578 20.2736 9.79233 20.7235C11.5689 21.1734 13.4404 21.0703 15.1568 20.4279C16.8731 19.7855 18.3525 18.6344 19.397 17.1286C20.4415 15.6228 21.0015 13.834 21.002 12.0013Z" fill="black"/>
<path d="M12.0005 7.49982C12.0005 7.08561 11.663 6.74432 11.253 6.8033C10.48 6.91449 9.73827 7.19724 9.08372 7.6346C8.22036 8.21148 7.54745 9.03142 7.15009 9.99073C6.75273 10.95 6.64877 12.0056 6.85134 13.024C7.05391 14.0424 7.55392 14.9779 8.28815 15.7121C9.02238 16.4464 9.95784 16.9464 10.9762 17.1489C11.9946 17.3515 13.0502 17.2475 14.0095 16.8502C14.9689 16.4528 15.7888 15.7799 16.3657 14.9166C16.803 14.262 17.0858 13.5203 17.197 12.7473C17.256 12.3373 16.9147 11.9998 16.5005 11.9998V11.9998C16.0862 11.9998 15.758 12.3389 15.6757 12.7448C15.5793 13.2206 15.3908 13.6756 15.1185 14.0832C14.7064 14.6999 14.1207 15.1805 13.4355 15.4644C12.7503 15.7482 11.9963 15.8225 11.2689 15.6778C10.5414 15.5331 9.87326 15.1759 9.34881 14.6515C8.82436 14.127 8.46721 13.4588 8.32251 12.7314C8.17782 12.004 8.25208 11.25 8.53591 10.5648C8.81974 9.87953 9.30039 9.29386 9.91707 8.88181C10.3247 8.60945 10.7796 8.42103 11.2554 8.32457C11.6614 8.24227 12.0005 7.91403 12.0005 7.49982V7.49982Z" fill="black"/>
</svg>
