<svg width="32" height="32" viewBox="0 0 32 32" fill="none" xmlns="http://www.w3.org/2000/svg">
<mask id="mask0_19025_18271" style="mask-type:alpha" maskUnits="userSpaceOnUse" x="4" y="4" width="24" height="24">
<rect x="4" y="4" width="24" height="24" fill="#D9D9D9"/>
</mask>
<g mask="url(#mask0_19025_18271)">
<path d="M8.31556 24.5C7.8104 24.5 7.38281 24.325 7.03281 23.975C6.68281 23.625 6.50781 23.1974 6.50781 22.6923V12.3078C6.50781 11.8026 6.68281 11.375 7.03281 11.025C7.38281 10.675 7.8104 10.5 8.31556 10.5H12.5078V8.80775C12.5078 8.30258 12.6828 7.875 13.0328 7.525C13.3828 7.175 13.8104 7 14.3156 7H17.7001C18.2052 7 18.6328 7.175 18.9828 7.525C19.3328 7.875 19.5078 8.30258 19.5078 8.80775V10.5H23.7001C24.2052 10.5 24.6328 10.675 24.9828 11.025C25.3328 11.375 25.5078 11.8026 25.5078 12.3078V22.6923C25.5078 23.1974 25.3328 23.625 24.9828 23.975C24.6328 24.325 24.2052 24.5 23.7001 24.5H8.31556ZM14.0078 10.5H18.0078V8.80775C18.0078 8.73075 17.9757 8.66025 17.9116 8.59625C17.8476 8.53208 17.7771 8.5 17.7001 8.5H14.3156C14.2386 8.5 14.1681 8.53208 14.1041 8.59625C14.0399 8.66025 14.0078 8.73075 14.0078 8.80775V10.5ZM24.0078 18.75H18.5078V19.596C18.5078 19.8538 18.4216 20.0689 18.2491 20.2413C18.0767 20.4138 17.8616 20.5 17.6038 20.5H14.4118C14.154 20.5 13.9389 20.4138 13.7666 20.2413C13.5941 20.0689 13.5078 19.8538 13.5078 19.596V18.75H8.00781V22.6923C8.00781 22.7693 8.0399 22.8398 8.10406 22.9038C8.16806 22.9679 8.23856 23 8.31556 23H23.7001C23.7771 23 23.8476 22.9679 23.9116 22.9038C23.9757 22.8398 24.0078 22.7693 24.0078 22.6923V18.75ZM15.0078 19H17.0078V17H15.0078V19ZM8.00781 17.25H13.5078V16.404C13.5078 16.1462 13.5941 15.9311 13.7666 15.7587C13.9389 15.5862 14.154 15.5 14.4118 15.5H17.6038C17.8616 15.5 18.0767 15.5862 18.2491 15.7587C18.4216 15.9311 18.5078 16.1462 18.5078 16.404V17.25H24.0078V12.3078C24.0078 12.2308 23.9757 12.1602 23.9116 12.0962C23.8476 12.0321 23.7771 12 23.7001 12H8.31556C8.23856 12 8.16806 12.0321 8.10406 12.0962C8.0399 12.1602 8.00781 12.2308 8.00781 12.3078V17.25Z" fill="black"/>
</g>
<g clip-path="url(#clip0_19025_18271)">
<path d="M23.9997 28.1668C26.3009 28.1668 28.1663 26.3013 28.1663 24.0002C28.1663 21.699 26.3009 19.8335 23.9997 19.8335C21.6985 19.8335 19.833 21.699 19.833 24.0002C19.833 26.3013 21.6985 28.1668 23.9997 28.1668Z" fill="black"/>
<path d="M23.9997 22.3335V25.6668M22.333 24.0002H25.6663M28.1663 24.0002C28.1663 26.3013 26.3009 28.1668 23.9997 28.1668C21.6985 28.1668 19.833 26.3013 19.833 24.0002C19.833 21.699 21.6985 19.8335 23.9997 19.8335C26.3009 19.8335 28.1663 21.699 28.1663 24.0002Z" stroke="#F3F4F6" stroke-width="0.8" stroke-linecap="round" stroke-linejoin="round"/>
</g>
<defs>
<clipPath id="clip0_19025_18271">
<rect width="10" height="10" fill="white" transform="translate(19 19)"/>
</clipPath>
</defs>
</svg>
