<!-- Generated by IcoMoon.io -->
<svg version="1.1" xmlns="http://www.w3.org/2000/svg" width="32" height="32" viewBox="0 0 32 32">
<title>paperclip</title>
<path d="M24.871 5.543c-3.124-3.124-8.21-3.124-11.33 0l-8.654 8.648c-0.056 0.056-0.086 0.133-0.086 0.212s0.030 0.156 0.086 0.212l1.224 1.224c0.056 0.056 0.132 0.087 0.211 0.087s0.155-0.031 0.211-0.087l8.654-8.648c1.074-1.074 2.504-1.665 4.022-1.665s2.948 0.59 4.019 1.665c1.074 1.074 1.664 2.503 1.664 4.019 0 1.519-0.59 2.944-1.664 4.019l-10.249 10.246c-1.336 1.336-3.508 1.336-4.844 0-0.647-0.647-1.001-1.505-1.001-2.421s0.355-1.774 1.001-2.42l8.751-8.747c0.222-0.219 0.514-0.342 0.826-0.342h0.003c0.312 0 0.6 0.123 0.819 0.342 0.222 0.222 0.342 0.514 0.342 0.826 0 0.308-0.123 0.6-0.342 0.819l-7.152 7.146c-0.056 0.056-0.086 0.133-0.086 0.212s0.030 0.156 0.086 0.212l1.224 1.224c0.056 0.056 0.132 0.087 0.211 0.087s0.155-0.031 0.211-0.087l7.149-7.149c0.66-0.66 1.021-1.535 1.021-2.467s-0.365-1.81-1.021-2.467c-1.363-1.363-3.578-1.36-4.941 0l-0.849 0.852-7.898 7.895c-0.536 0.533-0.961 1.167-1.25 1.865s-0.437 1.447-0.434 2.203c0 1.535 0.6 2.978 1.684 4.062 1.124 1.121 2.596 1.681 4.069 1.681s2.944-0.56 4.065-1.681l10.253-10.246c1.509-1.512 2.344-3.525 2.344-5.664 0.003-2.142-0.832-4.155-2.344-5.667z"></path>
</svg>
