<!-- Generated by IcoMoon.io -->
<svg version="1.1" xmlns="http://www.w3.org/2000/svg" width="32" height="32" viewBox="0 0 32 32">
<title>partition</title>
<path d="M20.115 13.946h8.227c0.253 0 0.458-0.205 0.458-0.458v-8.23c0-0.253-0.205-0.458-0.458-0.458h-8.227c-0.253 0-0.458 0.205-0.458 0.458v2.973h-4.342c-0.125 0-0.227 0.102-0.227 0.227v7.088h-2.742v-3.088c0-0.253-0.205-0.458-0.458-0.458h-8.23c-0.253 0-0.458 0.205-0.458 0.458v8.23c0 0.253 0.205 0.458 0.458 0.458h8.227c0.253 0 0.458-0.205 0.458-0.458v-3.088h2.742v7.088c0 0.125 0.102 0.227 0.227 0.227h4.342v2.973c0 0.253 0.205 0.458 0.458 0.458h8.227c0.253 0 0.458-0.205 0.458-0.458v-8.224c0-0.253-0.205-0.458-0.458-0.458h-8.224c-0.253 0-0.458 0.205-0.458 0.458v3.2h-2.515v-12.576h2.515v3.2c0 0.253 0.205 0.458 0.458 0.458zM21.827 6.973h4.8v4.803h-4.8v-4.803zM10.173 18.976h-4.8v-4.8h4.8v4.8zM21.827 21.379h4.8v4.803h-4.8v-4.803z"></path>
</svg>
