<?xml version="1.0" encoding="UTF-8"?>
<svg id="Layer_1" data-name="Layer 1" xmlns="http://www.w3.org/2000/svg" version="1.1" viewBox="0 0 20 20">
  <defs>
    <style>
      .cls-1 {
        fill: #000;
        stroke-width: 0px;
      }
    </style>
  </defs>
  <path class="cls-1" d="M18,11l-1.2-6.8c0-.5-.4-.9-.8-1.2-.4-.3-.9-.4-1.4-.3l-10.2,1.8c-1,.2-1.7,1.1-1.5,2.1v.4c-.5.3-.9,1-.9,1.6v6.7c0,1,.8,1.8,1.8,1.8h10.1c1,0,1.8-.8,1.8-1.8v-2.1h.6c.5-.2.9-.5,1.2-.9.3-.4.4-.9.3-1.4ZM14,6.9H4.2v-.4c0-.2,0-.3,0-.5,0-.1.2-.2.4-.3l10.2-1.8s0,0,.1,0c.3,0,.6.2.6.5l1.2,6.8c0,.2,0,.3-.1.5,0,.1-.2.2-.4.3h-.4c0,0,0-3.2,0-3.2,0-1-.8-1.8-1.8-1.8ZM3.2,12.3h11.4v3.1c0,.3-.3.6-.6.6H3.8c-.3,0-.6-.3-.6-.6v-3.1ZM14.6,10.2v.9H3.2v-.9h11.4ZM3.2,9v-.2c0-.3.3-.6.6-.6h10.1c.3,0,.6.3.6.6v.2H3.2Z"/>
  <path class="cls-1" d="M4.5,15.4h2.1c.3,0,.6-.3.6-.6s-.3-.6-.6-.6h-2.1c-.3,0-.6.3-.6.6s.3.6.6.6Z"/>
</svg>