<?xml version="1.0" encoding="UTF-8"?>
<svg id="Layer_1" data-name="Layer 1" xmlns="http://www.w3.org/2000/svg" version="1.1" viewBox="0 0 24 24">
  <defs>
    <style>
      .cls-1 {
        fill: #000;
        stroke-width: 0px;
      }
    </style>
  </defs>
  <path class="cls-1" d="M4.9,20.5c-.5,0-1-.2-1.3-.6-.4-.4-.6-.8-.6-1.3V5.4c0-.5.2-1,.6-1.3.4-.4.8-.6,1.3-.6h13.3c.5,0,1,.2,1.3.6.4.4.6.8.6,1.3v2.4h-1.9v-2.4H4.9v13.3h13.3v-2.4h1.9v2.4c0,.5-.2,1-.6,1.3-.4.4-.8.6-1.3.6H4.9Z"/>
  <g>
    <path class="cls-1" d="M15.3,13.4c.4,0,.7-.1,1-.4.3-.3.4-.6.4-1s-.1-.7-.4-1c-.3-.3-.6-.4-1-.4s-.7.1-1,.4c-.3.3-.4.6-.4,1s.1.7.4,1,.6.4,1,.4Z"/>
    <path class="cls-1" d="M20.4,7.8c-.4-.4-.8-.6-1.3-.6h-6.6c-.5,0-1,.2-1.3.6-.4.4-.6.8-.6,1.3v5.7c0,.5.2,1,.6,1.3.4.4.8.6,1.3.6h6.6c.5,0,1-.2,1.3-.6.4-.4.6-.8.6-1.3v-5.7c0-.5-.2-1-.6-1.3ZM19.1,14.8h-6.6v-5.7h6.6v5.7Z"/>
  </g>
</svg>