<svg width="24" height="24" viewBox="0 0 24 24" fill="none" xmlns="http://www.w3.org/2000/svg">
<path d="M7 20.25C6.30556 20.25 5.71528 20.0069 5.22917 19.5208C4.74306 19.0347 4.5 18.4444 4.5 17.75V16.0833C4.5 15.8472 4.57986 15.6493 4.73958 15.4896C4.89931 15.3299 5.09722 15.25 5.33333 15.25H7V4.08333C7 3.98611 7.04167 3.92014 7.125 3.88542C7.20833 3.85069 7.28472 3.86806 7.35417 3.9375L7.95833 4.54167C8.04167 4.625 8.13889 4.66667 8.25 4.66667C8.36111 4.66667 8.45833 4.625 8.54167 4.54167L9.20833 3.875C9.29167 3.79167 9.38889 3.75 9.5 3.75C9.61111 3.75 9.70833 3.79167 9.79167 3.875L10.4583 4.54167C10.5417 4.625 10.6389 4.66667 10.75 4.66667C10.8611 4.66667 10.9583 4.625 11.0417 4.54167L11.7083 3.875C11.7917 3.79167 11.8889 3.75 12 3.75C12.1111 3.75 12.2083 3.79167 12.2917 3.875L12.9583 4.54167C13.0417 4.625 13.1389 4.66667 13.25 4.66667C13.3611 4.66667 13.4583 4.625 13.5417 4.54167L14.2083 3.875C14.2917 3.79167 14.3889 3.75 14.5 3.75C14.6111 3.75 14.7083 3.79167 14.7917 3.875L15.4583 4.54167C15.5417 4.625 15.6389 4.66667 15.75 4.66667C15.8611 4.66667 15.9583 4.625 16.0417 4.54167L16.7083 3.875C16.7917 3.79167 16.8889 3.75 17 3.75C17.1111 3.75 17.2083 3.79167 17.2917 3.875L17.9583 4.54167C18.0417 4.625 18.1389 4.66667 18.25 4.66667C18.3611 4.66667 18.4583 4.625 18.5417 4.54167L19.1458 3.9375C19.2153 3.86806 19.2917 3.85069 19.375 3.88542C19.4583 3.92014 19.5 3.98611 19.5 4.08333V17.75C19.5 18.4444 19.2569 19.0347 18.7708 19.5208C18.2847 20.0069 17.6944 20.25 17 20.25H7ZM17 18.5833C17.2361 18.5833 17.434 18.5035 17.5938 18.3438C17.7535 18.184 17.8333 17.9861 17.8333 17.75V6.08333H8.66667V15.25H15.3333C15.5694 15.25 15.7674 15.3299 15.9271 15.4896C16.0868 15.6493 16.1667 15.8472 16.1667 16.0833V17.75C16.1667 17.9861 16.2465 18.184 16.4062 18.3438C16.566 18.5035 16.7639 18.5833 17 18.5833ZM7 18.5833H14.5V16.9167H6.16667V17.75C6.16667 17.9861 6.24653 18.184 6.40625 18.3438C6.56597 18.5035 6.76389 18.5833 7 18.5833Z" fill="black"/>
<path d="M13.6667 7.75024H10.3333C10.0972 7.75024 9.89931 7.83011 9.73958 7.98983C9.57986 8.14955 9.5 8.34747 9.5 8.58358C9.5 8.81969 9.57986 9.01761 9.73958 9.17733C9.89931 9.33705 10.0972 9.41691 10.3333 9.41691H13.6667C13.9028 9.41691 14.1007 9.33705 14.2604 9.17733C14.4201 9.01761 14.5 8.81969 14.5 8.58358C14.5 8.34747 14.4201 8.14955 14.2604 7.98983C14.1007 7.83011 13.9028 7.75024 13.6667 7.75024Z" fill="black"/>
<path d="M13.6667 10.2502H10.3333C10.0972 10.2502 9.89931 10.3301 9.73958 10.4898C9.57986 10.6495 9.5 10.8475 9.5 11.0836C9.5 11.3197 9.57986 11.5176 9.73958 11.6773C9.89931 11.8371 10.0972 11.9169 10.3333 11.9169H13.6667C13.9028 11.9169 14.1007 11.8371 14.2604 11.6773C14.4201 11.5176 14.5 11.3197 14.5 11.0836C14.5 10.8475 14.4201 10.6495 14.2604 10.4898C14.1007 10.3301 13.9028 10.2502 13.6667 10.2502Z" fill="black"/>
<path d="M15.5729 9.17733C15.7326 9.33705 15.9306 9.41691 16.1667 9.41691C16.4028 9.41691 16.6007 9.33705 16.7604 9.17733C16.9201 9.01761 17 8.81969 17 8.58358C17 8.34747 16.9201 8.14955 16.7604 7.98983C16.6007 7.83011 16.4028 7.75024 16.1667 7.75024C15.9306 7.75024 15.7326 7.83011 15.5729 7.98983C15.4132 8.14955 15.3333 8.34747 15.3333 8.58358C15.3333 8.81969 15.4132 9.01761 15.5729 9.17733Z" fill="black"/>
<path d="M15.5729 11.6773C15.7326 11.8371 15.9306 11.9169 16.1667 11.9169C16.4028 11.9169 16.6007 11.8371 16.7604 11.6773C16.9201 11.5176 17 11.3197 17 11.0836C17 10.8475 16.9201 10.6495 16.7604 10.4898C16.6007 10.3301 16.4028 10.2502 16.1667 10.2502C15.9306 10.2502 15.7326 10.3301 15.5729 10.4898C15.4132 10.6495 15.3333 10.8475 15.3333 11.0836C15.3333 11.3197 15.4132 11.5176 15.5729 11.6773Z" fill="black"/>
</svg>
