<!-- Generated by IcoMoon.io -->
<svg version="1.1" xmlns="http://www.w3.org/2000/svg" width="32" height="32" viewBox="0 0 32 32">
<path d="M8.727 5.091c-2.769 0-6.061 3.286-6.061 6.051 0 2.925 2.729 8.054 5.78 11.059 0.281 0.281 1.084 1.082 1.325 1.362 3.010 3.005 8.148 5.77 11.078 5.77 2.769 0 6.061-3.286 6.061-6.051s-3.291-6.051-6.061-6.051c-0.562 0-1.124 0.2-2.167 0.721-0.080 0.040-0.923 0.441-1.124 0.561-1.525-0.401-3.532-2.484-4.014-4.047 0.12-0.241 0.522-1.002 0.562-1.082 0.522-1.082 0.722-1.643 0.722-2.164 0-2.765-3.291-6.051-6.061-6.051zM8.727 7.776c1.284 0 3.371 2.084 3.371 3.366 0 0-0.161 0.441-0.441 1.042-0.040 0.080-0.482 0.962-0.602 1.162-0.321 0.721-0.361 0.922-0.241 1.443 0.562 2.685 3.773 5.89 6.422 6.371 0.482 0.080 0.602 0.040 1.365-0.28 0.201-0.080 1.124-0.521 1.204-0.561 0.602-0.28 1.084-0.481 1.044-0.481 1.284 0 3.371 2.084 3.371 3.366s-2.087 3.366-3.371 3.366c-2.087 0-6.582-2.444-9.111-5.009-0.281-0.281-1.084-1.082-1.365-1.362-2.569-2.565-5.017-7.012-5.017-9.136 0-1.282 2.087-3.366 3.371-3.366z"></path>
<path d="M21.373 2.739c-0.66-0.232-1.437 0.116-1.67 0.774s0.155 1.431 0.815 1.663c2.951 1.044 5.281 3.404 6.291 6.343 0.233 0.658 1.010 1.006 1.67 0.774 0.699-0.232 1.010-0.928 0.777-1.624-1.281-3.674-4.194-6.614-7.883-7.929z"></path>
<path d="M18.188 7.639c-0.377 0.141-0.66 0.422-0.849 0.844-0.33 0.797 0 1.687 0.802 2.062 1.462 0.656 2.688 1.781 3.301 3.281 0.33 0.797 1.273 1.172 2.075 0.844s1.179-1.219 0.849-2.015c-0.943-2.203-2.735-4.031-4.952-5.015-0.377-0.187-0.849-0.141-1.226 0z"></path>
</svg>
