<!-- Generated by IcoMoon.io -->
<svg version="1.1" xmlns="http://www.w3.org/2000/svg" width="32" height="32" viewBox="0 0 32 32">
<title>phone</title>
<path d="M25.44 28.8c-0.16 0-0.16 0-0.32 0-3.84-0.48-7.52-1.76-10.56-3.84-2.88-1.92-5.44-4.48-7.36-7.36-2.080-3.2-3.52-6.88-3.84-10.72 0-0.48 0-0.96 0.16-1.44s0.48-0.96 0.8-1.28c0.32-0.32 0.8-0.64 1.12-0.8 0.48-0.16 0.96-0.32 1.44-0.32h3.52c0.8 0 1.6 0.32 2.24 0.8s1.12 1.28 1.12 2.24c0.16 1.12 0.32 2.080 0.8 3.040 0.32 0.64 0.32 1.28 0.16 2.080-0.16 0.64-0.48 1.12-0.96 1.6l-0.8 0.96c1.44 2.080 3.2 4 5.44 5.44l0.8-0.8c0.48-0.48 1.12-0.8 1.76-0.96s1.28-0.16 1.92 0.16c0.96 0.32 1.92 0.64 3.040 0.8 0.8 0.16 1.6 0.48 2.24 1.28 0.48 0.64 0.8 1.44 0.8 2.4 0 0 0 0 0 0v3.52c0 0.48-0.16 0.96-0.32 1.44s-0.48 0.8-0.8 1.12c-0.32 0.32-0.8 0.64-1.28 0.8-0.32-0.32-0.8-0.16-1.12-0.16zM10.4 5.44c0 0 0 0 0 0h-3.52c-0.16 0-0.32 0-0.48 0.16-0.16 0-0.32 0.16-0.32 0.32-0.16 0-0.32 0.16-0.32 0.32s0 0.32 0 0.48c0.32 3.36 1.6 6.72 3.36 9.6 1.76 2.72 4 4.96 6.72 6.72 2.88 1.92 6.24 3.040 9.6 3.36 0.16 0 0.32 0 0.48 0s0.32-0.16 0.48-0.32c0.16-0.16 0.16-0.32 0.32-0.32 0-0.16 0.16-0.32 0.16-0.48v-3.52c0 0 0 0 0 0 0-0.32-0.16-0.48-0.32-0.8-0.16-0.16-0.48-0.32-0.8-0.48-1.12-0.16-2.4-0.48-3.52-0.96-0.16 0-0.48-0.16-0.64 0-0.16 0-0.48 0.16-0.64 0.32l-1.44 1.44c-0.32 0.32-0.96 0.48-1.44 0.16-3.040-1.76-5.76-4.32-7.52-7.52-0.32-0.32-0.32-0.8 0.16-1.28l1.44-1.44c0.16-0.16 0.32-0.32 0.32-0.64 0-0.16 0-0.48 0-0.64-0.48-1.12-0.8-2.24-0.96-3.52 0-0.32-0.16-0.48-0.32-0.64-0.32-0.16-0.64-0.32-0.8-0.32z"></path>
</svg>
