<!-- Generated by IcoMoon.io -->
<svg version="1.1" xmlns="http://www.w3.org/2000/svg" width="32" height="32" viewBox="0 0 32 32">
<title>pic-left</title>
<path d="M28.571 24.457h-25.143c-0.126 0-0.229 0.103-0.229 0.229v1.6c0 0.126 0.103 0.228 0.229 0.228h25.143c0.126 0 0.229-0.103 0.229-0.228v-1.6c0-0.126-0.103-0.229-0.229-0.229zM28.571 6.4h-25.143c-0.126 0-0.229 0.103-0.229 0.229v1.6c0 0.126 0.103 0.229 0.229 0.229h25.143c0.126 0 0.229-0.103 0.229-0.229v-1.6c0-0.126-0.103-0.229-0.229-0.229zM18.743 20.686c0.251 0 0.457-0.206 0.457-0.457v-7.543c0-0.251-0.206-0.457-0.457-0.457h-14.629c-0.251 0-0.457 0.206-0.457 0.457v7.543c0 0.251 0.206 0.457 0.457 0.457h14.629zM5.714 14.286h11.429v4.343h-11.429v-4.343zM21.486 20.286c0 0.126 0.103 0.228 0.228 0.228h6.4c0.126 0 0.229-0.103 0.229-0.228v-1.6c0-0.126-0.103-0.229-0.229-0.229h-6.4c-0.126 0-0.228 0.103-0.228 0.229v1.6zM21.714 14.457h6.4c0.126 0 0.229-0.103 0.229-0.229v-1.6c0-0.126-0.103-0.229-0.229-0.229h-6.4c-0.126 0-0.228 0.103-0.228 0.229v1.6c0 0.126 0.103 0.229 0.228 0.229z"></path>
</svg>
