<!-- Generated by IcoMoon.io -->
<svg version="1.1" xmlns="http://www.w3.org/2000/svg" width="32" height="32" viewBox="0 0 32 32">
<path d="M26.667 4h-21.333c-0.707 0-1.386 0.271-1.886 0.753s-0.781 1.136-0.781 1.818v18.857c0 0.682 0.281 1.336 0.781 1.818s1.178 0.753 1.886 0.753h21.333c0.707 0 1.385-0.271 1.886-0.753s0.781-1.136 0.781-1.818v-18.857c0-0.682-0.281-1.336-0.781-1.818s-1.178-0.753-1.886-0.753zM4.444 6.571c0-0.227 0.094-0.445 0.26-0.606s0.393-0.251 0.629-0.251h21.333c0.236 0 0.462 0.090 0.629 0.251s0.26 0.379 0.26 0.606v13.599l-3.876-3.115c-0.135-0.103-0.297-0.167-0.467-0.186s-0.343 0.008-0.499 0.078l-4.632 2.234-4.898-7.085c-0.074-0.104-0.171-0.191-0.284-0.255s-0.239-0.104-0.369-0.116c-0.13-0.012-0.262 0.003-0.385 0.044s-0.236 0.108-0.33 0.196l-7.372 7.108v-12.502z"></path>
<path d="M22.667 12c1.473 0 2.667-1.194 2.667-2.667s-1.194-2.667-2.667-2.667c-1.473 0-2.667 1.194-2.667 2.667s1.194 2.667 2.667 2.667z"></path>
</svg>
