<?xml version="1.0" encoding="utf-8"?>
<!-- Generator: Adobe Illustrator 28.1.0, SVG Export Plug-In . SVG Version: 6.00 Build 0)  -->
<svg version="1.1" id="Layer_1" xmlns="http://www.w3.org/2000/svg" xmlns:xlink="http://www.w3.org/1999/xlink" x="0px" y="0px"
	 viewBox="0 0 20 20" style="enable-background:new 0 0 20 20;" xml:space="preserve">
<g>
	<path d="M10,18c-4.4,0-8-3.6-8-8s3.6-8,8-8s8,3.6,8,8S14.4,18,10,18z M10,3.5c-3.6,0-6.5,2.9-6.5,6.5s2.9,6.5,6.5,6.5
		s6.5-2.9,6.5-6.5S13.6,3.5,10,3.5z"/>
</g>
<g>
	<path d="M8,7.1c0-0.4,0.4-0.6,0.8-0.4l4.6,3.1c0.3,0.2,0.3,0.6,0,0.8l-4.6,3.1c-0.3,0.2-0.8,0-0.8-0.4V7.1z"/>
</g>
</svg>
