<svg width="24" height="24" viewBox="0 0 24 24" fill="none" xmlns="http://www.w3.org/2000/svg">
<path d="M5.77393 21.2157C5.07526 21.2157 4.48393 20.9737 3.99993 20.4897C3.51593 20.0057 3.27393 19.4143 3.27393 18.7157V17.1197C3.27393 16.8618 3.36018 16.6467 3.53268 16.4744C3.70501 16.3019 3.92009 16.2157 4.17793 16.2157H6.27393V2.90217C6.27393 2.79833 6.31593 2.72883 6.39993 2.69366C6.48393 2.65833 6.56434 2.67275 6.64118 2.73691L7.37593 3.34641C7.46309 3.42075 7.55734 3.45791 7.65868 3.45791C7.75984 3.45791 7.85401 3.42075 7.94118 3.34641L8.77968 2.66191C8.86684 2.58758 8.96109 2.55042 9.06243 2.55042C9.16376 2.55042 9.25801 2.58758 9.34518 2.66191L10.1837 3.34641C10.2708 3.42075 10.365 3.45791 10.4662 3.45791C10.5675 3.45791 10.6618 3.42075 10.7489 3.34641L11.5874 2.66191C11.6746 2.58758 11.7688 2.55042 11.8702 2.55042C11.9713 2.55042 12.0655 2.58758 12.1527 2.66191L12.9912 3.34641C13.0783 3.42075 13.1726 3.45791 13.2739 3.45791C13.3753 3.45791 13.4695 3.42075 13.5567 3.34641L14.3952 2.66191C14.4823 2.58758 14.5765 2.55042 14.6777 2.55042C14.779 2.55042 14.8733 2.58758 14.9604 2.66191L15.7989 3.34641C15.8861 3.42075 15.9803 3.45791 16.0817 3.45791C16.1828 3.45791 16.277 3.42075 16.3642 3.34641L17.2027 2.66191C17.2898 2.58758 17.3841 2.55042 17.4854 2.55042C17.5868 2.55042 17.681 2.58758 17.7682 2.66191L18.6067 3.34641C18.6938 3.42075 18.788 3.45791 18.8892 3.45791C18.9905 3.45791 19.0848 3.42075 19.1719 3.34641L19.9067 2.73691C19.9835 2.67275 20.0639 2.65833 20.1479 2.69366C20.2319 2.72883 20.2739 2.79833 20.2739 2.90217V18.7157C20.2739 19.4143 20.0319 20.0057 19.5479 20.4897C19.0639 20.9737 18.4726 21.2157 17.7739 21.2157H5.77393ZM17.7739 19.7157C18.0573 19.7157 18.2948 19.6198 18.4864 19.4282C18.6781 19.2365 18.7739 18.999 18.7739 18.7157V4.71566H7.77393V16.2157H15.8702C16.1278 16.2157 16.3428 16.3019 16.5152 16.4744C16.6877 16.6467 16.7739 16.8618 16.7739 17.1197V18.7157C16.7739 18.999 16.8698 19.2365 17.0614 19.4282C17.2531 19.6198 17.4906 19.7157 17.7739 19.7157ZM9.71618 6.96566H13.8894C14.1021 6.96566 14.2803 7.0375 14.4239 7.18116C14.5674 7.32466 14.6392 7.50283 14.6392 7.71567C14.6392 7.9285 14.5674 8.10667 14.4239 8.25017C14.2803 8.39383 14.1021 8.46567 13.8894 8.46567H9.71618C9.50334 8.46567 9.32518 8.39383 9.18168 8.25017C9.03801 8.10667 8.96618 7.9285 8.96618 7.71567C8.96618 7.50283 9.03801 7.32466 9.18168 7.18116C9.32518 7.0375 9.50334 6.96566 9.71618 6.96566ZM9.71618 9.96567H13.8894C14.1021 9.96567 14.2803 10.0375 14.4239 10.1812C14.5674 10.3247 14.6392 10.5028 14.6392 10.7157C14.6392 10.9285 14.5674 11.1067 14.4239 11.2502C14.2803 11.3938 14.1021 11.4657 13.8894 11.4657H9.71618C9.50334 11.4657 9.32518 11.3938 9.18168 11.2502C9.03801 11.1067 8.96618 10.9285 8.96618 10.7157C8.96618 10.5028 9.03801 10.3247 9.18168 10.1812C9.32518 10.0375 9.50334 9.96567 9.71618 9.96567ZM16.7162 8.60017C16.4713 8.60017 16.2627 8.514 16.0902 8.34166C15.9178 8.16916 15.8317 7.9605 15.8317 7.71567C15.8317 7.47083 15.9178 7.26217 16.0902 7.08967C16.2627 6.91733 16.4713 6.83116 16.7162 6.83116C16.961 6.83116 17.1697 6.91733 17.3422 7.08967C17.5147 7.26217 17.6009 7.47083 17.6009 7.71567C17.6009 7.9605 17.5147 8.16916 17.3422 8.34166C17.1697 8.514 16.961 8.60017 16.7162 8.60017ZM16.7162 11.6002C16.4713 11.6002 16.2627 11.514 16.0902 11.3417C15.9178 11.1692 15.8317 10.9605 15.8317 10.7157C15.8317 10.4708 15.9178 10.2622 16.0902 10.0897C16.2627 9.91733 16.4713 9.83117 16.7162 9.83117C16.961 9.83117 17.1697 9.91733 17.3422 10.0897C17.5147 10.2622 17.6009 10.4708 17.6009 10.7157C17.6009 10.9605 17.5147 11.1692 17.3422 11.3417C17.1697 11.514 16.961 11.6002 16.7162 11.6002ZM5.77393 19.7157H15.2739V17.7157H4.77393V18.7157C4.77393 18.999 4.86976 19.2365 5.06143 19.4282C5.25309 19.6198 5.49059 19.7157 5.77393 19.7157Z" fill="#1C1B1F"/>
</svg>
