<svg width="24" height="24" viewBox="0 0 24 24" fill="none" xmlns="http://www.w3.org/2000/svg">
<path d="M6.11328 21.2157C5.41461 21.2157 4.82328 20.9737 4.33928 20.4897C3.85528 20.0057 3.61328 19.4143 3.61328 18.7157V17.1197C3.61328 16.8618 3.69953 16.6467 3.87203 16.4744C4.04436 16.3019 4.25945 16.2157 4.51728 16.2157H6.61328V2.90217C6.61328 2.79833 6.65528 2.72883 6.73928 2.69366C6.82328 2.65833 6.9037 2.67275 6.98053 2.73691L7.71528 3.34641C7.80245 3.42075 7.8967 3.45791 7.99803 3.45791C8.0992 3.45791 8.19336 3.42075 8.28053 3.34641L9.11903 2.66191C9.2062 2.58758 9.30045 2.55042 9.40178 2.55042C9.50311 2.55042 9.59737 2.58758 9.68453 2.66191L10.523 3.34641C10.6102 3.42075 10.7044 3.45791 10.8055 3.45791C10.9069 3.45791 11.0011 3.42075 11.0883 3.34641L11.9268 2.66191C12.0139 2.58758 12.1082 2.55042 12.2095 2.55042C12.3107 2.55042 12.4049 2.58758 12.492 2.66191L13.3305 3.34641C13.4177 3.42075 13.5119 3.45791 13.6133 3.45791C13.7146 3.45791 13.8089 3.42075 13.896 3.34641L14.7345 2.66191C14.8217 2.58758 14.9159 2.55042 15.017 2.55042C15.1184 2.55042 15.2126 2.58758 15.2998 2.66191L16.1383 3.34641C16.2254 3.42075 16.3197 3.45791 16.421 3.45791C16.5222 3.45791 16.6164 3.42075 16.7035 3.34641L17.542 2.66191C17.6292 2.58758 17.7234 2.55042 17.8248 2.55042C17.9261 2.55042 18.0204 2.58758 18.1075 2.66191L18.946 3.34641C19.0332 3.42075 19.1274 3.45791 19.2285 3.45791C19.3299 3.45791 19.4241 3.42075 19.5113 3.34641L20.246 2.73691C20.3229 2.67275 20.4033 2.65833 20.4873 2.69366C20.5713 2.72883 20.6133 2.79833 20.6133 2.90217V18.7157C20.6133 19.4143 20.3713 20.0057 19.8873 20.4897C19.4033 20.9737 18.8119 21.2157 18.1133 21.2157H6.11328ZM18.1133 19.7157C18.3966 19.7157 18.6341 19.6198 18.8258 19.4282C19.0174 19.2365 19.1133 18.999 19.1133 18.7157V4.71566H8.11328V16.2157H16.2095C16.4672 16.2157 16.6822 16.3019 16.8545 16.4744C17.027 16.6467 17.1133 16.8618 17.1133 17.1197V18.7157C17.1133 18.999 17.2091 19.2365 17.4008 19.4282C17.5924 19.6198 17.8299 19.7157 18.1133 19.7157ZM10.0555 6.96566H14.2288C14.4414 6.96566 14.6196 7.0375 14.7633 7.18116C14.9068 7.32466 14.9785 7.50283 14.9785 7.71567C14.9785 7.9285 14.9068 8.10667 14.7633 8.25017C14.6196 8.39383 14.4414 8.46567 14.2288 8.46567H10.0555C9.8427 8.46567 9.66453 8.39383 9.52103 8.25017C9.37736 8.10667 9.30553 7.9285 9.30553 7.71567C9.30553 7.50283 9.37736 7.32466 9.52103 7.18116C9.66453 7.0375 9.8427 6.96566 10.0555 6.96566ZM10.0555 9.96567H14.2288C14.4414 9.96567 14.6196 10.0375 14.7633 10.1812C14.9068 10.3247 14.9785 10.5028 14.9785 10.7157C14.9785 10.9285 14.9068 11.1067 14.7633 11.2502C14.6196 11.3938 14.4414 11.4657 14.2288 11.4657H10.0555C9.8427 11.4657 9.66453 11.3938 9.52103 11.2502C9.37736 11.1067 9.30553 10.9285 9.30553 10.7157C9.30553 10.5028 9.37736 10.3247 9.52103 10.1812C9.66453 10.0375 9.8427 9.96567 10.0555 9.96567ZM17.0555 8.60017C16.8107 8.60017 16.602 8.514 16.4295 8.34166C16.2572 8.16916 16.171 7.9605 16.171 7.71567C16.171 7.47083 16.2572 7.26217 16.4295 7.08967C16.602 6.91733 16.8107 6.83116 17.0555 6.83116C17.3004 6.83116 17.509 6.91733 17.6815 7.08967C17.854 7.26217 17.9403 7.47083 17.9403 7.71567C17.9403 7.9605 17.854 8.16916 17.6815 8.34166C17.509 8.514 17.3004 8.60017 17.0555 8.60017ZM17.0555 11.6002C16.8107 11.6002 16.602 11.514 16.4295 11.3417C16.2572 11.1692 16.171 10.9605 16.171 10.7157C16.171 10.4708 16.2572 10.2622 16.4295 10.0897C16.602 9.91733 16.8107 9.83117 17.0555 9.83117C17.3004 9.83117 17.509 9.91733 17.6815 10.0897C17.854 10.2622 17.9403 10.4708 17.9403 10.7157C17.9403 10.9605 17.854 11.1692 17.6815 11.3417C17.509 11.514 17.3004 11.6002 17.0555 11.6002Z" fill="#1C1B1F"/>
</svg>
