<svg width="20" height="20" viewBox="0 0 20 20" fill="none" xmlns="http://www.w3.org/2000/svg">
<path d="M11.3221 8.79762C10.8366 8.79762 10.4417 9.19261 10.4417 9.67811C10.4417 10.1636 10.8366 10.5586 11.3221 10.5586C11.8076 10.5586 12.2026 10.1636 12.2026 9.67811C12.2026 9.19261 11.8076 8.79762 11.3221 8.79762ZM11.9053 6.12866V7.71643C12.3575 7.85108 12.7446 8.13792 13.0069 8.51757L14.5171 8.02686C14.0035 7.03714 13.0434 6.31496 11.9053 6.12866ZM14.8783 9.13583L13.3677 9.62668C13.3681 9.64384 13.369 9.66089 13.369 9.67811C13.369 10.1456 13.2112 10.5766 12.9465 10.9216L13.8792 12.2053C14.5218 11.5552 14.9192 10.6622 14.9192 9.67811C14.9192 9.49382 14.9052 9.31274 14.8783 9.13583Z" fill="black"/>
<path d="M11.3219 2H4.22696C3.9049 2 3.64379 2.26111 3.64379 2.58317C3.64379 2.90524 3.9049 3.16635 4.22696 3.16635H7.25835C6.61995 3.56628 6.04339 4.05732 5.54694 4.62393H1.58317C1.26111 4.62396 1 4.8851 1 5.20717C1 5.52924 1.26111 5.79034 1.58317 5.79034H4.7033C4.03047 6.93138 3.64376 8.26036 3.64376 9.6781C3.64376 11.3278 4.16685 12.8576 5.05567 14.1105H3.401C3.07893 14.1105 2.81783 14.3716 2.81783 14.6937C2.81783 15.0157 3.07893 15.2769 3.401 15.2769H6.07355C6.43803 15.6188 6.83482 15.9245 7.25835 16.1898H1.64333C1.32126 16.1898 1.06015 16.4509 1.06015 16.773C1.06015 17.0951 1.32126 17.3562 1.64333 17.3562H11.3219C15.5557 17.3562 19 13.9118 19 9.67807C19 5.44437 15.5556 2 11.3219 2ZM14.1547 13.5052C14.144 13.5143 14.1333 13.5234 14.1218 13.5318C14.1088 13.5412 14.0954 13.55 14.082 13.5583C13.3028 14.1141 12.3499 14.4415 11.3219 14.4415C10.2939 14.4415 9.34105 14.1141 8.56181 13.5583C8.54819 13.55 8.53491 13.5411 8.52201 13.5318C8.51048 13.5234 8.49983 13.5142 8.48907 13.5052C7.31854 12.6365 6.55846 11.2445 6.55846 9.6781C6.55846 7.05154 8.69533 4.91467 11.3219 4.91467C13.9485 4.91467 16.0853 7.05154 16.0853 9.6781C16.0853 11.2445 15.3253 12.6365 14.1547 13.5052Z" fill="black"/>
<path d="M8.12688 8.02686L9.63702 8.51757C9.8994 8.13795 10.2864 7.85111 10.7386 7.71643V6.12866C9.6006 6.31499 8.64052 7.03714 8.12688 8.02686ZM12.0031 11.6081C11.7843 11.6856 11.5539 11.7252 11.3218 11.7251C11.0897 11.7252 10.8593 11.6856 10.6405 11.6081L9.70762 12.892C10.1933 13.137 10.7417 13.2752 11.3218 13.2752C11.9019 13.2752 12.4503 13.137 12.936 12.892L12.0031 11.6081ZM9.27495 9.67815C9.27495 9.66092 9.27579 9.64387 9.27621 9.62672L7.76558 9.13586C7.73835 9.31534 7.7247 9.49662 7.72473 9.67815C7.72473 10.6623 8.12217 11.5553 8.7648 12.2054L9.69749 10.9217C9.4328 10.5767 9.27495 10.1456 9.27495 9.67815Z" fill="black"/>
</svg>
