<?xml version="1.0" encoding="UTF-8"?>
<svg xmlns="http://www.w3.org/2000/svg" version="1.1" viewBox="0 0 20 20">
  <!-- Generator: Adobe Illustrator 28.6.0, SVG Export Plug-In . SVG Version: 1.2.0 Build 709)  -->
  <g>
    <g id="Layer_1">
      <path d="M17.4,2H2.6c-.4,0-.6.3-.6.6v14.7c0,.4.3.6.6.6h14.7c.4,0,.6-.3.6-.6V2.6c0-.4-.3-.6-.6-.6ZM16.6,16.6H3.4V3.4h13.1v13.1ZM9.6,7.8h3.7c0,0,.2,0,.2-.2v-1c0,0,0-.2-.2-.2h-3.7c0,0-.2,0-.2.2v1c0,0,0,.2.2.2ZM9.6,10.6h3.7c0,0,.2,0,.2-.2v-1c0,0,0-.2-.2-.2h-3.7c0,0-.2,0-.2.2v1c0,0,0,.2.2.2ZM9.6,13.5h3.7c0,0,.2,0,.2-.2v-1c0,0,0-.2-.2-.2h-3.7c0,0-.2,0-.2.2v1c0,0,0,.2.2.2ZM6.6,7.1c0,.2,0,.4.2.6.2.2.4.2.6.2s.4,0,.6-.2c.2-.2.2-.4.2-.6s0-.4-.2-.6c-.2-.2-.4-.2-.6-.2s-.4,0-.6.2c-.2.2-.2.4-.2.6ZM6.6,10c0,.2,0,.4.2.6.2.2.4.2.6.2s.4,0,.6-.2c.2-.1.2-.4.2-.6s0-.4-.2-.6c-.2-.2-.4-.2-.6-.2s-.4,0-.6.2c-.2.2-.2.4-.2.6ZM6.6,12.9c0,.2,0,.4.2.6.2.2.4.2.6.2s.4,0,.6-.2c.2-.1.2-.4.2-.6s0-.4-.2-.6c-.2-.2-.4-.2-.6-.2s-.4,0-.6.2c-.2.2-.2.4-.2.6Z"/>
    </g>
  </g>
</svg>