<!-- Generated by IcoMoon.io -->
<svg version="1.1" xmlns="http://www.w3.org/2000/svg" width="32" height="32" viewBox="0 0 32 32">
<path d="M4 9.333c-0.378 0-0.694-0.128-0.95-0.383s-0.383-0.572-0.383-0.95v-4c0-0.378 0.128-0.694 0.383-0.95s0.572-0.383 0.95-0.383h4c0.378 0 0.694 0.128 0.95 0.383s0.383 0.572 0.383 0.95c0 0.378-0.128 0.694-0.383 0.95s-0.572 0.383-0.95 0.383h-2.667v2.667c0 0.378-0.128 0.694-0.383 0.95s-0.572 0.383-0.95 0.383zM4 29.333c-0.378 0-0.694-0.128-0.95-0.383s-0.383-0.572-0.383-0.95v-4c0-0.378 0.128-0.694 0.383-0.95s0.572-0.383 0.95-0.383c0.378 0 0.694 0.128 0.95 0.383s0.383 0.572 0.383 0.95v2.667h2.667c0.378 0 0.694 0.128 0.95 0.383s0.383 0.572 0.383 0.95c0 0.378-0.128 0.694-0.383 0.95s-0.572 0.383-0.95 0.383h-4zM24 29.333c-0.378 0-0.694-0.128-0.95-0.383s-0.383-0.572-0.383-0.95c0-0.378 0.128-0.694 0.383-0.95s0.572-0.383 0.95-0.383h2.667v-2.667c0-0.378 0.128-0.694 0.383-0.95s0.572-0.383 0.95-0.383c0.378 0 0.694 0.128 0.95 0.383s0.383 0.572 0.383 0.95v4c0 0.378-0.128 0.694-0.383 0.95s-0.572 0.383-0.95 0.383h-4zM28 9.333c-0.378 0-0.694-0.128-0.95-0.383s-0.383-0.572-0.383-0.95v-2.667h-2.667c-0.378 0-0.694-0.128-0.95-0.383s-0.383-0.572-0.383-0.95c0-0.378 0.128-0.694 0.383-0.95s0.572-0.383 0.95-0.383h4c0.378 0 0.694 0.128 0.95 0.383s0.383 0.572 0.383 0.95v4c0 0.378-0.128 0.694-0.383 0.95s-0.572 0.383-0.95 0.383zM23.333 25.333v-2h2v2h-2zM23.333 21.333v-2h2v2h-2zM21.333 23.333v-2h2v2h-2zM19.333 25.333v-2h2v2h-2zM17.333 23.333v-2h2v2h-2zM21.333 19.333v-2h2v2h-2zM19.333 21.333v-2h2v2h-2zM17.333 19.333v-2h2v2h-2zM18.667 14.667c-0.378 0-0.694-0.128-0.95-0.383s-0.383-0.572-0.383-0.95v-5.333c0-0.378 0.128-0.694 0.383-0.95s0.572-0.383 0.95-0.383h5.333c0.378 0 0.694 0.128 0.95 0.383s0.383 0.572 0.383 0.95v5.333c0 0.378-0.128 0.694-0.383 0.95s-0.572 0.383-0.95 0.383h-5.333zM8 25.333c-0.378 0-0.694-0.128-0.95-0.383s-0.383-0.572-0.383-0.95v-5.333c0-0.378 0.128-0.694 0.383-0.95s0.572-0.383 0.95-0.383h5.333c0.378 0 0.694 0.128 0.95 0.383s0.383 0.572 0.383 0.95v5.333c0 0.378-0.128 0.694-0.383 0.95s-0.572 0.383-0.95 0.383h-5.333zM8 14.667c-0.378 0-0.694-0.128-0.95-0.383s-0.383-0.572-0.383-0.95v-5.333c0-0.378 0.128-0.694 0.383-0.95s0.572-0.383 0.95-0.383h5.333c0.378 0 0.694 0.128 0.95 0.383s0.383 0.572 0.383 0.95v5.333c0 0.378-0.128 0.694-0.383 0.95s-0.572 0.383-0.95 0.383h-5.333zM8.667 23.333h4v-4h-4v4zM8.667 12.667h4v-4h-4v4zM19.333 12.667h4v-4h-4v4z"></path>
</svg>
