<?xml version="1.0" encoding="UTF-8"?>
<svg id="Layer_1" data-name="Layer 1" xmlns="http://www.w3.org/2000/svg" version="1.1" viewBox="0 0 20 20">
  <defs>
    <style>
      .cls-1 {
        fill: #000;
        stroke-width: 0px;
      }
    </style>
  </defs>
  <path class="cls-1" d="M3.9,15.7h1.9c.1,0,.2,0,.3,0v-2.1c0-.3-.3-.6-.6-.6h-1.3c-.3,0-.6.3-.6.6v2.1c0,0,.2,0,.3,0ZM5.8,18h-1.9c-.2,0-.4,0-.6-.2-.2-.2-.2-.4-.2-.6s0-.4.2-.6c.2-.2.4-.2.6-.2h1.9c.2,0,.4,0,.6.2.2.2.2.4.2.6s0,.4-.2.6c-.2.2-.4.2-.6.2ZM16.8,2.9c0,0-.1,0-.2,0,0,0-.1,0-.2,0-1.6.8-3.3.3-5.1-.2-1.9-.6-3.8-1.2-5.6,0,0-.2-.2-.4-.4-.5-.2-.1-.4-.1-.6-.1-.2,0-.4.1-.5.3-.1.2-.2.4-.2.6v9.6c0,0,.2,0,.2,0h1.3c0,0,.2,0,.2,0v-1.3c1.7-1,3.5-.5,5.4,0,1.1.3,2.2.6,3.3.6s1.6-.2,2.3-.6c.2-.1.2-.3.2-.6V3.2c0,0,0-.1,0-.2,0,0,0-.1-.1-.2ZM16.6,10.6c0,.3,0,.3,0,.3-1.1.6-2.2.7-3.4.4v-3.9c-1.3-.3-2.6-.8-3.8-1v4c-1.2-.2-2.4-.2-3.6.4v-3.9c1.2-.7,2.4-.8,3.6-.5v-3.9c.6.1,1.2.3,1.9.5.7.2,1.3.4,2,.5v3.9c1.1.2,2.3.2,3.4-.4v3.6Z"/>
</svg>