<!-- Generated by IcoMoon.io -->
<svg version="1.1" xmlns="http://www.w3.org/2000/svg" width="32" height="32" viewBox="0 0 32 32">
<title>radius-up-left</title>
<path d="M20.8 5.6h1.867c0.147 0 0.267-0.12 0.267-0.267v-1.867c0-0.147-0.12-0.267-0.267-0.267h-1.867c-0.147 0-0.267 0.12-0.267 0.267v1.867c0 0.147 0.12 0.267 0.267 0.267zM22.733 26.4h-1.867c-0.147 0-0.267 0.12-0.267 0.267v1.867c0 0.147 0.12 0.267 0.267 0.267h1.867c0.147 0 0.267-0.12 0.267-0.267v-1.867c0-0.147-0.12-0.267-0.267-0.267zM5.333 20.6h-1.867c-0.147 0-0.267 0.12-0.267 0.267v1.867c0 0.147 0.12 0.267 0.267 0.267h1.867c0.147 0 0.267-0.12 0.267-0.267v-1.867c0-0.147-0.12-0.267-0.267-0.267zM5.333 26.4h-1.867c-0.147 0-0.267 0.12-0.267 0.267v1.867c0 0.147 0.12 0.267 0.267 0.267h1.867c0.147 0 0.267-0.12 0.267-0.267v-1.867c0-0.147-0.12-0.267-0.267-0.267zM28.533 3.2h-1.867c-0.147 0-0.267 0.12-0.267 0.267v1.867c0 0.147 0.12 0.267 0.267 0.267h1.867c0.147 0 0.267-0.12 0.267-0.267v-1.867c0-0.147-0.12-0.267-0.267-0.267zM28.533 9h-1.867c-0.147 0-0.267 0.12-0.267 0.267v1.867c0 0.147 0.12 0.267 0.267 0.267h1.867c0.147 0 0.267-0.12 0.267-0.267v-1.867c0-0.147-0.12-0.267-0.267-0.267zM28.533 14.8h-1.867c-0.147 0-0.267 0.12-0.267 0.267v1.867c0 0.147 0.12 0.267 0.267 0.267h1.867c0.147 0 0.267-0.12 0.267-0.267v-1.867c0-0.147-0.12-0.267-0.267-0.267zM28.533 20.6h-1.867c-0.147 0-0.267 0.12-0.267 0.267v1.867c0 0.147 0.12 0.267 0.267 0.267h1.867c0.147 0 0.267-0.12 0.267-0.267v-1.867c0-0.147-0.12-0.267-0.267-0.267zM28.533 26.4h-1.867c-0.147 0-0.267 0.12-0.267 0.267v1.867c0 0.147 0.12 0.267 0.267 0.267h1.867c0.147 0 0.267-0.12 0.267-0.267v-1.867c0-0.147-0.12-0.267-0.267-0.267zM16.933 26.4h-1.867c-0.147 0-0.267 0.12-0.267 0.267v1.867c0 0.147 0.12 0.267 0.267 0.267h1.867c0.147 0 0.267-0.12 0.267-0.267v-1.867c0-0.147-0.12-0.267-0.267-0.267zM11.133 26.4h-1.867c-0.147 0-0.267 0.12-0.267 0.267v1.867c0 0.147 0.12 0.267 0.267 0.267h1.867c0.147 0 0.267-0.12 0.267-0.267v-1.867c0-0.147-0.12-0.267-0.267-0.267zM16.933 3.2h-6.067c-4.233 0-7.667 3.433-7.667 7.667v6.067c0 0.147 0.12 0.267 0.267 0.267h1.867c0.147 0 0.267-0.12 0.267-0.267v-6.067c0-2.91 2.357-5.267 5.267-5.267h6.067c0.147 0 0.267-0.12 0.267-0.267v-1.867c0-0.147-0.12-0.267-0.267-0.267z"></path>
</svg>
