<svg width="24" height="24" viewBox="0 0 24 24" fill="none" xmlns="http://www.w3.org/2000/svg">
<path d="M19.7143 6.16667V17.8333H4.28571V6.16667H19.7143ZM19.7143 5H4.28571C3.94472 5 3.6177 5.12292 3.37658 5.34171C3.13546 5.5605 3 5.85725 3 6.16667V17.8333C3 18.1428 3.13546 18.4395 3.37658 18.6583C3.6177 18.8771 3.94472 19 4.28571 19H19.7143C20.0553 19 20.3823 18.8771 20.6234 18.6583C20.8645 18.4395 21 18.1428 21 17.8333V6.16667C21 5.85725 20.8645 5.5605 20.6234 5.34171C20.3823 5.12292 20.0553 5 19.7143 5Z" fill="black"/>
<path d="M6 8.57143H10.2V9.71429H6V8.57143ZM6 10.8571H8.4V12H6V10.8571ZM16.2 13.1429H12.6C12.1226 13.1429 11.6648 13.3235 11.3272 13.645C10.9896 13.9665 10.8 14.4025 10.8 14.8571V16H12V14.8571C12 14.7056 12.0632 14.5602 12.1757 14.4531C12.2883 14.3459 12.4409 14.2857 12.6 14.2857H16.2C16.3591 14.2857 16.5117 14.3459 16.6243 14.4531C16.7368 14.5602 16.8 14.7056 16.8 14.8571V16H18V14.8571C18 14.4025 17.8104 13.9665 17.4728 13.645C17.1352 13.3235 16.6774 13.1429 16.2 13.1429ZM14.4 12.5714C14.8747 12.5714 15.3387 12.4374 15.7334 12.1862C16.128 11.9351 16.4357 11.5781 16.6173 11.1604C16.799 10.7428 16.8465 10.2832 16.7539 9.83979C16.6613 9.39641 16.4327 8.98913 16.0971 8.66947C15.7614 8.34981 15.3338 8.13212 14.8682 8.04392C14.4027 7.95573 13.9201 8.00099 13.4816 8.17399C13.043 8.34699 12.6682 8.63996 12.4045 9.01584C12.1408 9.39172 12 9.83364 12 10.2857C12 10.8919 12.2529 11.4733 12.7029 11.902C13.153 12.3306 13.7635 12.5714 14.4 12.5714ZM14.4 9.14286C14.6373 9.14286 14.8693 9.20989 15.0667 9.33546C15.264 9.46104 15.4178 9.63953 15.5087 9.84836C15.5995 10.0572 15.6232 10.287 15.5769 10.5087C15.5306 10.7304 15.4164 10.934 15.2485 11.0938C15.0807 11.2537 14.8669 11.3625 14.6341 11.4066C14.4013 11.4507 14.1601 11.4281 13.9408 11.3416C13.7215 11.2551 13.5341 11.1086 13.4022 10.9207C13.2704 10.7327 13.2 10.5118 13.2 10.2857C13.2 9.98261 13.3264 9.69192 13.5515 9.47759C13.7765 9.26327 14.0817 9.14286 14.4 9.14286Z" fill="black"/>
</svg>
