<!-- Generated by IcoMoon.io -->
<svg version="1.1" xmlns="http://www.w3.org/2000/svg" width="32" height="32" viewBox="0 0 32 32">
<title>reload</title>
<path d="M27.797 6.775l-1.719 1.344c-2.344-2.996-5.989-4.919-10.082-4.919-7.067 0-12.788 5.714-12.797 12.785-0.009 7.077 5.723 12.815 12.797 12.815 5.525 0 10.234-3.505 12.026-8.414 0.046-0.128-0.021-0.271-0.149-0.314l-1.728-0.594c-0.060-0.021-0.126-0.017-0.184 0.011s-0.102 0.076-0.124 0.136c-0.055 0.152-0.116 0.305-0.18 0.454-0.527 1.249-1.283 2.371-2.246 3.334-0.955 0.957-2.086 1.721-3.331 2.249-1.289 0.545-2.664 0.823-4.078 0.823-1.417 0-2.789-0.277-4.078-0.823-1.246-0.526-2.377-1.29-3.331-2.249-0.958-0.955-1.721-2.088-2.246-3.334-0.546-1.292-0.823-2.664-0.823-4.081s0.277-2.789 0.823-4.081c0.527-1.25 1.283-2.371 2.246-3.334s2.085-1.719 3.331-2.249c1.289-0.546 2.664-0.823 4.078-0.823 1.417 0 2.789 0.277 4.078 0.823 1.246 0.526 2.377 1.29 3.331 2.249 0.302 0.302 0.585 0.622 0.847 0.957l-1.835 1.432c-0.036 0.028-0.064 0.066-0.080 0.109s-0.019 0.090-0.010 0.135c0.010 0.045 0.032 0.086 0.064 0.119s0.072 0.056 0.117 0.067l5.352 1.31c0.152 0.037 0.302-0.079 0.302-0.235l0.024-5.513c-0.003-0.201-0.238-0.314-0.396-0.189v0z"></path>
</svg>
