<svg width="24" height="25" viewBox="0 0 24 25" fill="none" xmlns="http://www.w3.org/2000/svg">
<path d="M3.95336 20.9509C3.7407 20.9509 3.56261 20.879 3.41911 20.7352C3.27545 20.5915 3.20361 20.4134 3.20361 20.2009V19.3067C3.20361 19.0942 3.27553 18.9161 3.41936 18.7724C3.5632 18.6286 3.74136 18.5567 3.95386 18.5567C4.16653 18.5567 4.34461 18.6286 4.48811 18.7724C4.63178 18.9161 4.70361 19.0942 4.70361 19.3067V20.2009C4.70361 20.4134 4.6317 20.5915 4.48786 20.7352C4.34403 20.879 4.16586 20.9509 3.95336 20.9509ZM7.95336 20.9509C7.7407 20.9509 7.56261 20.879 7.41911 20.7352C7.27545 20.5915 7.20361 20.4134 7.20361 20.2009V14.8067C7.20361 14.5942 7.27553 14.4161 7.41936 14.2724C7.5632 14.1286 7.74136 14.0567 7.95386 14.0567C8.16653 14.0567 8.34461 14.1286 8.48811 14.2724C8.63178 14.4161 8.70361 14.5942 8.70361 14.8067V20.2009C8.70361 20.4134 8.6317 20.5915 8.48786 20.7352C8.34403 20.879 8.16586 20.9509 7.95336 20.9509ZM11.9534 20.9509C11.7407 20.9509 11.5626 20.879 11.4191 20.7352C11.2754 20.5915 11.2036 20.4134 11.2036 20.2009V16.8067C11.2036 16.5942 11.2755 16.4161 11.4194 16.2724C11.5632 16.1286 11.7414 16.0567 11.9539 16.0567C12.1665 16.0567 12.3446 16.1286 12.4881 16.2724C12.6318 16.4161 12.7036 16.5942 12.7036 16.8067V20.2009C12.7036 20.4134 12.6317 20.5915 12.4879 20.7352C12.344 20.879 12.1659 20.9509 11.9534 20.9509ZM15.9534 20.9509C15.7407 20.9509 15.5626 20.879 15.4191 20.7352C15.2754 20.5915 15.2036 20.4134 15.2036 20.2009V15.3067C15.2036 15.0942 15.2755 14.9161 15.4194 14.7724C15.5632 14.6286 15.7414 14.5567 15.9539 14.5567C16.1665 14.5567 16.3446 14.6286 16.4881 14.7724C16.6318 14.9161 16.7036 15.0942 16.7036 15.3067V20.2009C16.7036 20.4134 16.6317 20.5915 16.4879 20.7352C16.344 20.879 16.1659 20.9509 15.9534 20.9509ZM19.9534 20.9509C19.7407 20.9509 19.5626 20.879 19.4191 20.7352C19.2754 20.5915 19.2036 20.4134 19.2036 20.2009V11.3067C19.2036 11.0942 19.2755 10.9161 19.4194 10.7724C19.5632 10.6286 19.7414 10.5567 19.9539 10.5567C20.1665 10.5567 20.3446 10.6286 20.4881 10.7724C20.6318 10.9161 20.7036 11.0942 20.7036 11.3067V20.2009C20.7036 20.4134 20.6317 20.5915 20.4879 20.7352C20.344 20.879 20.1659 20.9509 19.9534 20.9509Z" fill="#1C1B1F"/>
<path d="M13.9535 11.9067C13.7189 11.9067 13.492 11.8617 13.273 11.7717C13.054 11.6817 12.854 11.5543 12.6728 11.3894L10.1748 8.89119C10.1171 8.83352 10.0434 8.80469 9.95355 8.80469C9.86371 8.80469 9.78996 8.83352 9.7323 8.89119L4.48055 14.1432C4.33171 14.2919 4.15346 14.3653 3.9458 14.3634C3.73813 14.3614 3.55996 14.2829 3.4113 14.1279C3.2728 13.9791 3.20663 13.8021 3.2128 13.5969C3.21896 13.3916 3.29021 13.2205 3.42655 13.0837L8.6728 7.83744C8.85396 7.6576 9.05405 7.52644 9.27305 7.44394C9.49205 7.36144 9.71888 7.32019 9.95355 7.32019C10.1882 7.32019 10.4188 7.36144 10.6453 7.44394C10.8718 7.52644 11.0681 7.6576 11.2343 7.83744L13.7323 10.3357C13.79 10.3934 13.8637 10.4222 13.9535 10.4222C14.0434 10.4222 14.1171 10.3934 14.1748 10.3357L19.4265 5.08369C19.5754 4.93502 19.7536 4.8616 19.9613 4.86344C20.169 4.86544 20.3471 4.94394 20.4958 5.09894C20.6343 5.24777 20.7005 5.42477 20.6943 5.62994C20.6881 5.83527 20.6169 6.00635 20.4805 6.14319L15.2343 11.3894C15.0681 11.5543 14.8718 11.6817 14.6453 11.7717C14.4188 11.8617 14.1882 11.9067 13.9535 11.9067Z" fill="#1C1B1F"/>
</svg>
