<?xml version="1.0" encoding="utf-8"?>
<!-- Generator: Adobe Illustrator 28.1.0, SVG Export Plug-In . SVG Version: 6.00 Build 0)  -->
<svg version="1.1" id="Layer_1" xmlns="http://www.w3.org/2000/svg" xmlns:xlink="http://www.w3.org/1999/xlink" x="0px" y="0px"
	 viewBox="0 0 32 32" style="enable-background:new 0 0 32 32;" xml:space="preserve">
<path d="M16,3c-2.8,0-5.4,1.1-7.4,3c-1.9,1.9-3,4.6-3,7.4c0,7.9,9.7,15.2,10.1,15.5C15.8,29,15.9,29,16,29c0.1,0,0.2,0,0.3-0.1
	c0.4-0.3,10.1-7.6,10.1-15.5c0-2.8-1.1-5.4-3-7.4C21.4,4.1,18.8,3,16,3z M16,21.2c-1.5,0-3.1-0.5-4.3-1.3c-1.3-0.9-2.3-2.1-2.9-3.5
	c-0.6-1.4-0.7-3-0.4-4.5c0.3-1.5,1-2.9,2.1-4s2.5-1.8,4-2.1C16,5.4,17.6,5.6,19,6.2s2.6,1.6,3.5,2.9c0.9,1.3,1.3,2.8,1.3,4.3
	c0,2.1-0.8,4.1-2.3,5.5C20.1,20.4,18.1,21.2,16,21.2z M16.1,15.2l-2.4,2.4c-0.3,0.3-0.7,0.5-1.2,0.5h0c-0.4,0-0.9-0.2-1.2-0.5
	c-0.3-0.3-0.5-0.7-0.5-1.2c0-0.2,0-0.4,0.1-0.6c0.1-0.2,0.2-0.4,0.4-0.5l2.4-2.4C14.2,14,15,14.8,16.1,15.2z M21.1,10.5
	c0.2,0.7,0.1,1.5-0.2,2.2c-0.3,0.7-0.8,1.2-1.5,1.6c-0.7,0.4-1.4,0.5-2.1,0.4c-0.7-0.1-1.4-0.5-1.9-1c-0.5-0.5-0.9-1.2-1-1.9
	c-0.1-0.7,0-1.5,0.4-2.1c0.4-0.7,0.9-1.2,1.6-1.5c0.7-0.3,1.4-0.4,2.2-0.2c0.1,0,0.1,0.1,0.2,0.1c0.1,0.1,0.1,0.1,0.1,0.2
	c0,0.1,0,0.2,0,0.2c0,0.1-0.1,0.1-0.1,0.2l-1.2,1.2c-0.1,0.1-0.1,0.2-0.1,0.3v1.1c0,0.1,0,0.2,0.1,0.3c0.1,0.1,0.2,0.1,0.3,0.1h1.1
	c0.1,0,0.2,0,0.3-0.1l1.2-1.2c0.1-0.1,0.1-0.1,0.2-0.1c0.1,0,0.2,0,0.2,0c0.1,0,0.1,0.1,0.2,0.1C21.1,10.4,21.1,10.4,21.1,10.5
	L21.1,10.5z"/>
</svg>
