<!-- Generated by IcoMoon.io -->
<svg version="1.1" xmlns="http://www.w3.org/2000/svg" width="32" height="32" viewBox="0 0 32 32">
<title>safety</title>
<path d="M15.771 3.2l-10.971 3.657v10.972c0 6.060 4.911 10.971 10.971 10.971s10.971-4.911 10.971-10.971v-10.972l-10.971-3.657zM24.686 17.829c0 4.923-3.992 8.914-8.914 8.914s-8.914-3.992-8.914-8.914v-9.429l8.914-3.143 8.914 3.143v9.429z"></path>
<path d="M11.953 14.942c-0.095-0.096-0.209-0.172-0.333-0.224s-0.259-0.079-0.394-0.079c-0.135 0-0.269 0.027-0.394 0.079s-0.238 0.128-0.333 0.224c-0.096 0.095-0.172 0.209-0.224 0.333s-0.079 0.259-0.079 0.394c0 0.135 0.027 0.269 0.079 0.394s0.128 0.238 0.224 0.333l3.757 3.757c0.090 0.090 0.197 0.162 0.315 0.211s0.244 0.074 0.372 0.074 0.254-0.025 0.372-0.074c0.118-0.049 0.225-0.121 0.315-0.211l6.386-6.386c0.090-0.090 0.162-0.197 0.211-0.315s0.074-0.244 0.074-0.372c0-0.128-0.025-0.254-0.074-0.372s-0.121-0.225-0.211-0.315l-0.080-0.080c-0.090-0.090-0.197-0.162-0.315-0.211s-0.244-0.074-0.372-0.074c-0.128 0-0.254 0.025-0.372 0.074s-0.225 0.121-0.315 0.211l-5.62 5.617-2.989-2.989z"></path>
</svg>
