<!-- Generated by IcoMoon.io -->
<svg version="1.1" xmlns="http://www.w3.org/2000/svg" width="32" height="32" viewBox="0 0 32 32">
<title>schedule</title>
<path d="M27.886 8.229h-4.572v-1.6c0-0.126-0.103-0.229-0.228-0.229h-1.6c-0.126 0-0.229 0.103-0.229 0.229v1.6h-4.228v-1.6c0-0.126-0.103-0.229-0.229-0.229h-1.6c-0.126 0-0.229 0.103-0.229 0.229v1.6h-4.229v-1.6c0-0.126-0.103-0.229-0.229-0.229h-1.6c-0.126 0-0.229 0.103-0.229 0.229v1.6h-4.571c-0.506 0-0.914 0.409-0.914 0.914v16.457c0 0.506 0.409 0.914 0.914 0.914h23.771c0.506 0 0.914-0.408 0.914-0.914v-16.457c0-0.506-0.409-0.914-0.914-0.914zM26.743 24.457h-21.486v-14.171h3.429v1.6c0 0.126 0.103 0.229 0.229 0.229h1.6c0.126 0 0.229-0.103 0.229-0.229v-1.6h4.229v1.6c0 0.126 0.103 0.229 0.229 0.229h1.6c0.126 0 0.229-0.103 0.229-0.229v-1.6h4.228v1.6c0 0.126 0.103 0.229 0.229 0.229h1.6c0.126 0 0.228-0.103 0.228-0.229v-1.6h3.429v14.171zM13.257 16h-5.257c-0.126 0-0.229 0.103-0.229 0.229v1.371c0 0.126 0.103 0.229 0.229 0.229h5.257c0.126 0 0.229-0.103 0.229-0.229v-1.371c0-0.126-0.103-0.229-0.229-0.229zM13.257 19.886h-5.257c-0.126 0-0.229 0.103-0.229 0.228v1.372c0 0.126 0.103 0.228 0.229 0.228h5.257c0.126 0 0.229-0.103 0.229-0.228v-1.372c0-0.126-0.103-0.228-0.229-0.228zM22.063 14.817l-2.96 4.106-1.509-2.089c-0.086-0.12-0.223-0.188-0.368-0.188h-1.569c-0.186 0-0.294 0.211-0.186 0.363l3.26 4.52c0.042 0.058 0.098 0.106 0.162 0.139s0.135 0.050 0.207 0.050 0.143-0.017 0.207-0.050c0.064-0.033 0.12-0.080 0.162-0.139l4.714-6.534c0.108-0.151 0-0.363-0.186-0.363h-1.568c-0.143-0.003-0.28 0.069-0.366 0.186z"></path>
</svg>
