<!-- Generated by IcoMoon.io -->
<svg version="1.1" xmlns="http://www.w3.org/2000/svg" width="32" height="32" viewBox="0 0 32 32">
<path fill="none" stroke="#1f2937" stroke-linejoin="miter" stroke-linecap="butt" stroke-miterlimit="4" stroke-width="2.6667" d="M30.667 16c0 8.1-6.567 14.667-14.667 14.667s-14.667-6.566-14.667-14.667c0-8.1 6.566-14.667 14.667-14.667s14.667 6.566 14.667 14.667z"></path>
<path d="M16.222 20.139l-4.361-4.361c-0.213-0.213-0.319-0.463-0.319-0.75s0.106-0.537 0.319-0.75l2.417-2.417c0.213-0.213 0.463-0.319 0.75-0.319s0.537 0.106 0.75 0.319l4.361 4.361c0.213 0.213 0.319 0.463 0.319 0.75s-0.107 0.537-0.319 0.75l-2.417 2.417c-0.213 0.213-0.463 0.319-0.75 0.319s-0.537-0.107-0.75-0.319zM16.972 19.333l2.361-2.361-4.306-4.306-2.361 2.361 4.306 4.306zM16 22.667c-0.917 0-1.78-0.174-2.59-0.521s-1.519-0.824-2.125-1.431c-0.606-0.607-1.083-1.315-1.431-2.125s-0.521-1.674-0.521-2.59h1.111c0 0.657 0.111 1.287 0.333 1.889s0.53 1.143 0.924 1.625c0.394 0.481 0.863 0.891 1.41 1.229s1.144 0.576 1.792 0.715l-1.458-1.458 0.778-0.778 3.278 3.278c-0.241 0.056-0.488 0.097-0.743 0.125s-0.507 0.042-0.757 0.042zM21.556 16c0-0.657-0.111-1.287-0.333-1.889s-0.53-1.143-0.924-1.625c-0.394-0.481-0.863-0.891-1.41-1.229s-1.144-0.576-1.792-0.715l1.458 1.458-0.778 0.778-3.278-3.278c0.241-0.056 0.488-0.097 0.743-0.125s0.507-0.042 0.757-0.042c0.917 0 1.78 0.174 2.59 0.521s1.519 0.824 2.125 1.431c0.606 0.606 1.083 1.315 1.431 2.125s0.521 1.674 0.521 2.59h-1.111z"></path>
</svg>
