<!-- Generated by IcoMoon.io -->
<svg version="1.1" xmlns="http://www.w3.org/2000/svg" width="32" height="32" viewBox="0 0 32 32">
<title>search</title>
<path d="M19.812 12.005c0-3.925-3.285-7.242-7.506-7.242s-7.506 3.317-7.506 7.242 3.285 7.242 7.506 7.242c4.221 0 7.506-3.317 7.506-7.242zM18.623 20.436c-1.771 1.264-3.955 2.011-6.317 2.011-5.913 0-10.706-4.675-10.706-10.442s4.793-10.442 10.706-10.442c5.913 0 10.706 4.675 10.706 10.442 0 2.303-0.765 4.433-2.060 6.159l9.448 9.215-2.329 2.272-9.447-9.215z"></path>
</svg>
