<svg width="24" height="24" viewBox="0 0 24 24" fill="none" xmlns="http://www.w3.org/2000/svg">
<path d="M9.42311 15.9837C7.71544 15.9837 6.26928 15.3914 5.08461 14.2069C3.90011 13.0223 3.30786 11.5761 3.30786 9.86842C3.30786 8.16076 3.90011 6.71459 5.08461 5.52992C6.26928 4.34542 7.71544 3.75317 9.42311 3.75317C11.1308 3.75317 12.5769 4.34542 13.7616 5.52992C14.9461 6.71459 15.5384 8.16076 15.5384 9.86842C15.5384 10.5826 15.4185 11.2647 15.1789 11.9147C14.939 12.5647 14.6191 13.13 14.2191 13.6107L19.9731 19.3647C20.1116 19.503 20.1824 19.677 20.1856 19.8867C20.1888 20.0963 20.1179 20.2736 19.9731 20.4184C19.8283 20.5633 19.6526 20.6357 19.4461 20.6357C19.2398 20.6357 19.0642 20.5633 18.9194 20.4184L13.1654 14.6644C12.6654 15.0773 12.0904 15.4003 11.4404 15.6337C10.7904 15.867 10.1179 15.9837 9.42311 15.9837ZM9.42311 14.4839C10.7116 14.4839 11.8029 14.0368 12.6971 13.1424C13.5914 12.2483 14.0386 11.1569 14.0386 9.86842C14.0386 8.57992 13.5914 7.48859 12.6971 6.59442C11.8029 5.70009 10.7116 5.25292 9.42311 5.25292C8.13461 5.25292 7.04328 5.70009 6.14911 6.59442C5.25478 7.48859 4.80761 8.57992 4.80761 9.86842C4.80761 11.1569 5.25478 12.2483 6.14911 13.1424C7.04328 14.0368 8.13461 14.4839 9.42311 14.4839Z" fill="#1C1B1F"/>
</svg>
