<!-- Generated by IcoMoon.io -->
<svg version="1.1" xmlns="http://www.w3.org/2000/svg" width="32" height="32" viewBox="0 0 32 32">
<title>security-scan</title>
<path d="M26.569 6.48l-9.454-3.222c-0.114-0.039-0.267-0.058-0.42-0.058s-0.306 0.019-0.42 0.058l-9.454 3.222c-0.231 0.078-0.42 0.345-0.42 0.59v13.422c0 0.245 0.159 0.568 0.351 0.721l9.591 7.473c0.097 0.075 0.223 0.114 0.351 0.114s0.256-0.039 0.351-0.114l9.591-7.473c0.192-0.15 0.351-0.473 0.351-0.721v-13.422c0.006-0.245-0.184-0.509-0.415-0.59v0zM24.986 19.958l-8.291 6.461-8.291-6.461v-11.897l8.291-2.827 8.291 2.827v11.897zM13.659 16.466l-2.156 2.156c-0.041 0.042-0.065 0.098-0.065 0.157s0.023 0.115 0.065 0.157l0.946 0.946c0.086 0.086 0.228 0.086 0.314 0l2.156-2.156c1.55 0.977 3.62 0.79 4.969-0.559 1.566-1.566 1.566-4.104 0-5.67s-4.104-1.566-5.67 0c-1.349 1.349-1.536 3.422-0.559 4.969v0zM15.479 12.757c0.871-0.871 2.282-0.871 3.149 0 0.871 0.871 0.871 2.281 0 3.15-0.871 0.871-2.281 0.871-3.149 0s-0.871-2.279 0-3.15v0z"></path>
</svg>
