<!-- Generated by IcoMoon.io -->
<svg version="1.1" xmlns="http://www.w3.org/2000/svg" width="32" height="32" viewBox="0 0 32 32">
<title>select</title>
<path d="M27.776 3.2h-23.552c-0.566 0-1.024 0.458-1.024 1.024v23.552c0 0.566 0.458 1.024 1.024 1.024h11.52c0.141 0 0.256-0.115 0.256-0.256v-1.792c0-0.141-0.115-0.256-0.256-0.256h-10.24v-20.992h20.992v10.24c0 0.141 0.115 0.256 0.256 0.256h1.792c0.141 0 0.256-0.115 0.256-0.256v-11.52c0-0.566-0.458-1.024-1.024-1.024zM20.522 18.797l1.67-1.67c0.034-0.034 0.057-0.077 0.068-0.124s0.008-0.096-0.008-0.141c-0.016-0.045-0.044-0.085-0.081-0.116s-0.082-0.049-0.13-0.055l-5.741-0.672c-0.163-0.019-0.304 0.118-0.285 0.285l0.672 5.741c0.026 0.211 0.285 0.301 0.435 0.15l1.677-1.677 8.198 8.198c0.099 0.099 0.262 0.099 0.362 0l1.357-1.357c0.099-0.099 0.099-0.262 0-0.362l-8.195-8.202z"></path>
</svg>
