<svg width="24" height="24" viewBox="0 0 24 24" fill="none" xmlns="http://www.w3.org/2000/svg">
<g clip-path="url(#clip0_7359_1443)">
<path d="M5.96605 23.9921C6.48488 23.9921 6.93393 23.6934 7.15062 23.2586C7.23903 23.0812 7.28875 22.8811 7.28875 22.6694C7.28875 21.9389 6.69656 21.3467 5.96605 21.3467C5.23554 21.3467 4.64335 21.9389 4.64335 22.6694C4.64335 22.8819 4.69346 23.0827 4.78252 23.2606C4.99959 23.6943 5.44805 23.9921 5.96605 23.9921Z" fill="black"/>
<path d="M17.5399 23.9921C18.0585 23.9921 18.5075 23.6936 18.7243 23.2589C18.8128 23.0814 18.8626 22.8812 18.8626 22.6694C18.8626 21.9389 18.2704 21.3467 17.5399 21.3467C16.8094 21.3467 16.2172 21.9389 16.2172 22.6694C16.2172 22.8818 16.2672 23.0825 16.3561 23.2603C16.5732 23.6942 17.0217 23.9921 17.5399 23.9921Z" fill="black"/>
<path fill-rule="evenodd" clip-rule="evenodd" d="M6.63383 18.9806L5.81694 19.4522C5.19607 19.779 4.54864 19.8433 3.87468 19.6451C3.4554 19.5218 3.09857 19.3193 2.80418 19.0373C2.58467 19.2499 2.429 19.5578 2.35229 19.9446L2.01831 21.2806C1.98905 21.4346 1.99528 21.5933 2.03654 21.7446C2.07779 21.8958 2.15298 22.0357 2.25639 22.1535C2.38842 22.312 2.55306 22.4401 2.7391 22.5291C2.87863 22.5959 3.02772 22.6395 3.18054 22.6586L3.18254 22.6588C3.23282 22.665 3.28351 22.6686 3.33439 22.6694H3.98252C3.98252 22.1432 4.19155 21.6385 4.56363 21.2665C4.93571 20.8944 5.44036 20.6853 5.96657 20.6853C6.49277 20.6853 6.99742 20.8944 7.3695 21.2665C7.74159 21.6385 7.95062 22.1432 7.95062 22.6694H15.5561C15.5561 22.1432 15.7652 21.6385 16.1373 21.2665C16.5093 20.8944 17.014 20.6853 17.5402 20.6853C18.0664 20.6853 18.5711 20.8944 18.9431 21.2665C19.3152 21.6385 19.5243 22.1432 19.5243 22.6694H20.966C21.1119 22.6692 21.2553 22.6324 21.3833 22.5624C21.5113 22.4924 21.6197 22.3915 21.6987 22.2688C21.7776 22.1461 21.8245 22.0056 21.8352 21.8601C21.8458 21.7147 21.8198 21.5688 21.7596 21.436L21.4984 20.5861C21.492 20.569 21.4843 20.5524 21.4752 20.5365C21.3763 20.385 21.2423 20.2596 21.0846 20.1709C20.9268 20.0823 20.75 20.033 20.5692 20.0273L16.363 19.3792C16.342 19.3766 16.3218 19.3699 16.3035 19.3593L13.2249 17.6795L13.1937 17.6661L13.1665 17.6546C12.7123 17.4634 12.2422 17.3163 11.7628 17.2145L9.7635 17.1737L8.93466 17.6522L8.98301 17.736C9.12706 17.7273 9.28311 17.7205 9.45223 17.7161L9.47527 17.7155C9.52055 17.7143 9.56676 17.7134 9.61391 17.7126V18.8287L10.5732 20.4903C10.7594 20.8127 10.8055 21.1498 10.7117 21.5015C10.6179 21.853 10.4102 22.1216 10.0884 22.3073C9.76667 22.4931 9.43016 22.5387 9.0789 22.4442C8.72738 22.3496 8.45854 22.1411 8.27238 21.8187L6.63383 18.9806ZM10.2753 19.1973V17.7159C10.3215 17.7161 10.3677 17.7169 10.4139 17.718C10.6219 17.7234 10.8293 17.7383 11.0353 17.7626L11.0753 17.7675C11.7047 17.8455 12.3216 18.0115 12.9074 18.2615L14.8948 19.3461C14.7996 19.3445 14.7011 19.3428 14.5995 19.3409C14.1907 19.3333 13.7321 19.3234 13.2384 19.3101L13.1561 19.3079L13.1547 19.3078C12.3703 19.2863 11.5007 19.2562 10.6041 19.2135L10.4139 19.2043L10.2753 19.1973Z" fill="black"/>
<path d="M10.7117 21.5015C10.8055 21.1498 10.7594 20.8127 10.5732 20.4903L9.61391 18.8287V19.1609C9.56771 19.1584 9.52149 19.1558 9.47527 19.1532C9.25466 19.1408 9.03393 19.1276 8.81391 19.1135C8.30623 19.0809 7.80233 19.0437 7.31252 19.0013C7.07548 18.9808 6.84173 18.959 6.61245 18.936L6.63383 18.9806L8.27238 21.8187C8.45854 22.1411 8.72738 22.3496 9.0789 22.4442C9.43016 22.5387 9.76667 22.4931 10.0884 22.3073C10.4102 22.1216 10.6179 21.853 10.7117 21.5015Z" fill="black"/>
<path fill-rule="evenodd" clip-rule="evenodd" d="M18.4892 9.3243L20.5757 8.11964C20.8817 7.94298 21.0786 7.68985 21.1664 7.36023C21.2544 7.03052 21.2099 6.71243 21.033 6.40596C20.856 6.09949 20.6028 5.90192 20.2733 5.81325C19.9439 5.72448 19.6262 5.76843 19.3203 5.94509L17.2337 7.14974C16.9279 7.3263 16.731 7.57944 16.6431 7.90915C16.5553 8.23876 16.5998 8.5568 16.7768 8.86327C16.9537 9.16974 17.2069 9.36736 17.5362 9.45613C17.8657 9.5448 18.1834 9.50086 18.4892 9.3243ZM18.6008 13.5481C18.3322 13.7555 18.1788 14.0361 18.1406 14.3898C18.1024 14.7433 18.1862 15.0554 18.392 15.3259C18.5977 15.5963 18.8771 15.751 19.2304 15.79L21.6205 16.086C21.9779 16.1226 22.2909 16.0372 22.5595 15.8299C22.8282 15.6224 22.9804 15.3398 23.0162 14.9822C23.0545 14.6286 22.9698 14.3171 22.7621 14.0477C22.5544 13.7784 22.274 13.6243 21.9207 13.5853L19.5341 13.2953C19.1806 13.2564 18.8695 13.3407 18.6008 13.5481ZM14.3172 4.25936L15.2593 2.04752C15.4022 1.72204 15.4089 1.40209 15.2796 1.08764C15.1502 0.773028 14.9228 0.543921 14.5974 0.400318C14.2698 0.252462 13.9499 0.24245 13.6379 0.370284C13.326 0.498022 13.0966 0.725826 12.9496 1.0537L12.0049 3.27498C11.858 3.60275 11.8513 3.92271 11.9846 4.23486C12.118 4.54717 12.3473 4.77518 12.6725 4.91887C12.998 5.06264 13.3177 5.07008 13.6316 4.9412C13.9456 4.81221 14.1741 4.58493 14.3172 4.25936ZM5.81694 19.4522L6.63383 18.9806L6.61245 18.936C6.46601 18.9213 6.32139 18.906 6.17889 18.8902L6.11033 18.8825C6.05435 18.8762 5.99871 18.8698 5.94342 18.8633L7.24297 18.1193L7.24614 18.1173C7.38743 18.0287 7.7139 17.8303 8.81391 17.7474C8.86836 17.7433 8.9247 17.7395 8.98301 17.736L8.93466 17.6522L9.7635 17.1737L11.7628 17.2145C11.7452 17.2107 11.7263 17.2068 11.7061 17.2027C11.2897 17.1176 10.8664 17.0667 10.4404 17.0507C10.1318 17.034 9.80096 17.0311 9.47527 17.0536C8.62097 17.0749 8.05309 17.154 7.66699 17.2471C7.24398 17.3492 7.03916 17.4681 6.9149 17.5463L6.89246 17.5605L5.0539 18.612C4.95136 18.6711 4.83497 18.7019 4.71662 18.7013H3.66507C3.32178 18.7013 3.02938 18.8192 2.80418 19.0373C3.09857 19.3193 3.4554 19.5218 3.87468 19.6451C4.54864 19.8433 5.19607 19.779 5.81694 19.4522ZM2.5241 18.7203C2.51787 18.712 2.51168 18.7036 2.50553 18.6952C2.43995 18.6034 2.38327 18.5142 2.34336 18.447L2.33654 18.4352C2.39465 18.5358 2.45717 18.6309 2.5241 18.7203ZM2.31591 18.3995L1.26712 16.5829C0.906715 15.9587 0.819967 15.2963 1.00688 14.5957C1.19379 13.8951 1.59871 13.365 2.22162 13.0054L6.0731 10.7817L8.35935 6.62821C8.6076 6.18179 8.98809 5.95945 9.50084 5.96119C10.0137 5.96309 10.3966 6.18313 10.6496 6.6213L15.6548 15.2906C15.9078 15.7288 15.9069 16.1704 15.6521 16.6155C15.3972 17.0604 15.0144 17.2787 14.5037 17.2705L14.1316 17.2629L13.5755 16.9595L13.5414 16.9448C12.9684 16.698 12.3719 16.5152 11.7628 16.3984C11.1621 16.2833 10.5492 16.2325 9.93422 16.2479C8.78458 16.2485 8.01831 16.3401 7.48535 16.468C6.94163 16.5985 6.65634 16.7635 6.47972 16.8749L4.68518 17.9013H3.66507C3.1576 17.9013 2.68862 18.0702 2.31591 18.3995ZM4.78252 22.6694V23.2606C4.69346 23.0827 4.64335 22.8819 4.64335 22.6694C4.64335 21.9389 5.23554 21.3467 5.96605 21.3467C6.69656 21.3467 7.28875 21.9389 7.28875 22.6694C7.28875 22.8811 7.23903 23.0812 7.15062 23.2586V22.6694C7.15062 22.3554 7.02587 22.0542 6.80382 21.8321C6.58177 21.6101 6.2806 21.4853 5.96657 21.4853C5.65254 21.4853 5.35137 21.6101 5.12932 21.8321C4.90726 22.0542 4.78252 22.3554 4.78252 22.6694ZM16.3561 22.6694V23.2603C16.2672 23.0825 16.2172 22.8818 16.2172 22.6694C16.2172 21.9389 16.8094 21.3467 17.5399 21.3467C18.2704 21.3467 18.8626 21.9389 18.8626 22.6694C18.8626 22.8812 18.8128 23.0814 18.7243 23.2589V22.6694C18.7243 22.3554 18.5995 22.0542 18.3775 21.8321C18.1554 21.6101 17.8542 21.4853 17.5402 21.4853C17.2262 21.4853 16.925 21.6101 16.7029 21.8321C16.4809 22.0542 16.3561 22.3554 16.3561 22.6694Z" fill="black"/>
</g>
<defs>
<clipPath id="clip0_7359_1443">
<rect width="24" height="24" fill="white"/>
</clipPath>
</defs>
</svg>
