<!-- Generated by IcoMoon.io -->
<svg version="1.1" xmlns="http://www.w3.org/2000/svg" width="32" height="32" viewBox="0 0 32 32">
<title>self-drive</title>
<path d="M6.5 23.4c-0.5 0-1-0.2-1.4-0.5v2.3c0 0 0 0.1 0 0.1s0 0.1 0.1 0.1c0 0 0.1 0 0.1 0.1 0 0 0.1 0 0.1 0h2.3c0 0 0.1 0 0.1 0s0.1 0 0.1-0.1c0 0 0-0.1 0.1-0.1 0 0 0-0.1 0-0.1v-1.8h-1.5zM25.5 23.4h-1.5v1.8c0 0 0 0.1 0 0.1s0 0.1 0.1 0.1c0 0 0.1 0 0.1 0.1 0 0 0.1 0 0.1 0h2.3c0 0 0.1 0 0.1 0s0.1 0 0.1-0.1c0 0 0-0.1 0.1-0.1 0 0 0-0.1 0-0.1v-2.3c-0.4 0.3-0.9 0.5-1.4 0.5v0zM4.8 12.8h1.4l-1 1.8c-0.4 0.7-0.6 1.5-0.6 2.2v4.2c0 0.5 0.2 0.9 0.5 1.3 0.3 0.3 0.8 0.5 1.3 0.5h19c0.2 0 0.5 0 0.7-0.1s0.4-0.2 0.6-0.4c0.2-0.2 0.3-0.4 0.4-0.6s0.1-0.5 0.1-0.7v-4.3c0-0.8-0.2-1.5-0.6-2.2l-1-1.8h1.4c0.5 0 0.5-1.7 0-1.7h-2.3l-1.7-3.4c-0.2-0.3-0.4-0.5-0.7-0.7s-0.6-0.3-0.9-0.3l-5.4-0.1-5.3 0.1c-0.3 0-0.7 0.1-0.9 0.3-0.4 0.2-0.6 0.4-0.8 0.7l-1.9 3.5h-2.3c-0.4 0-0.4 1.7 0 1.7zM19.3 21.5c0 0 0 0.1-0.1 0.1 0 0-0.1 0.1-0.1 0.1h-6.2c0 0-0.1 0-0.1-0.1 0 0-0.1-0.1-0.1-0.1v-1.2c0-0.1 0.1-0.2 0.2-0.2h6.2c0.1 0 0.2 0.1 0.2 0.2v1.2zM25.7 15.4c0.3 0.5 0 1.2-0.5 1.4-0.1 0.1-0.3 0.1-0.4 0.1l-2.7 0.2c-0.1 0-0.3 0-0.4-0.1s-0.2-0.2-0.2-0.4c0-0.1 0-0.2 0.1-0.3s0.1-0.2 0.2-0.2l2.5-1.2c0.5-0.3 1.1-0.1 1.4 0.5zM7.1 13l2.7-5c0.1-0.2 0.2-0.3 0.4-0.4s0.3-0.1 0.5-0.1l5.3-0.1 5.3 0.1c0.2 0 0.4 0.1 0.5 0.1 0.2 0.1 0.3 0.3 0.4 0.4l2.7 5c0.1 0.2 0 0.5-0.3 0.5h-17.2c-0.3 0-0.5-0.2-0.3-0.5zM7.3 14.8c0.1 0 0.3 0 0.4 0.1l2.5 1.2c0.1 0.1 0.2 0.1 0.3 0.3 0.1 0.1 0.1 0.2 0 0.4 0 0.1-0.1 0.2-0.2 0.3s-0.2 0.1-0.3 0.1l-2.7-0.2c-0.6 0-1-0.5-1-1.1s0.4-1.2 1-1.1z"></path>
<path d="M14.6 7.8h2.7v0.7h-2.7v-0.7z"></path>
<path d="M19.7 12.8c1.2 0 2.1-0.9 2.1-2.1s-0.9-2.1-2.1-2.1c-1.2 0-2.1 0.9-2.1 2.1s0.9 2.1 2.1 2.1z"></path>
</svg>
