<?xml version="1.0" encoding="utf-8"?>
<!-- Generator: Adobe Illustrator 28.1.0, SVG Export Plug-In . SVG Version: 6.00 Build 0)  -->
<svg version="1.1" id="Layer_1" xmlns="http://www.w3.org/2000/svg" xmlns:xlink="http://www.w3.org/1999/xlink" x="0px" y="0px"
	 viewBox="0 0 20 20" style="enable-background:new 0 0 20 20;" xml:space="preserve">
<style type="text/css">
	.st0{fill-rule:evenodd;clip-rule:evenodd;}
</style>
<g>
	<path class="st0" d="M5.7,9.2C5.5,9.3,5.4,9.6,5.2,10c-0.1,0.1-0.1,0.3-0.3,0.5l0,0l0,0H4.1c-0.2,0-0.2,0.1-0.2,0.4
		c0,0.3,0.1,0.3,0.2,0.4h0c0,0-0.8,0.4-1,0.5C3.1,11.8,3,12.6,3,13.9s0.1,2.6,0.1,2.6h0.4c0,0.4,0,0.4,0.2,0.4H6
		c0.2,0,0.2,0,0.2-0.4h7.5c0,0.4,0,0.4,0.2,0.4h2.4c0.1,0,0.2-0.1,0.2-0.4h0.4c0,0,0.1-1.4,0.1-2.6s-0.1-2.1-0.2-2.2
		c-0.1-0.1-1-0.5-1-0.5h0c0.1,0,0.2-0.1,0.2-0.4c0-0.4,0-0.4-0.2-0.4H15l0,0l0,0c0-0.1-0.1-0.2-0.1-0.3c-0.3-0.5-0.4-0.8-0.6-1
		c-0.2,0.3-0.4,0.6-0.6,0.9c0.2,0.2,0.4,0.5,0.5,0.8c0,0,0,0.1,0.1,0.2c0,0.1,0.1,0.2,0.1,0.2c0,0-0.1,0-0.2,0h0h-1.9
		c-0.7,0.4-1.4,0.5-2.2,0.5s-1.5-0.2-2.2-0.5H6c-0.1,0-0.2,0-0.3,0c0-0.1,0.1-0.1,0.1-0.2c0,0,0-0.1,0.1-0.2
		c0.1-0.3,0.3-0.6,0.5-0.8C6,9.8,5.9,9.5,5.7,9.2z M4.5,13.1c0.5,0,1.1,0,1.6-0.1l0.2,0c0,0,0-0.1-0.2-0.2c-0.3-0.2-0.6-0.3-0.9-0.4
		c-0.6-0.2-1-0.2-1.3-0.2H3.9v0.1c0,0.2,0,0.3,0,0.5c0,0.3,0,0.3,0.5,0.3C4.4,13.1,4.5,13.1,4.5,13.1z M13.3,15.3l0.1-0.3l0,0
		c0.1-0.3,0-0.4-0.2-0.4h0c-0.4-0.2-1.8-0.6-3.2-0.6s-2.7,0.4-3.2,0.6c-0.2,0.1-0.4,0.2-0.3,0.4c0.2,0.3,0.1,0.3,0.1,0.3L13.3,15.3
		L13.3,15.3z M15.9,13.1c0,0,0-0.1,0.1-0.3l0,0c0-0.2,0-0.3,0-0.5c0,0,0,0,0,0l0,0c-0.4,0-0.7,0-1.3,0.2c-0.3,0.1-0.6,0.2-0.9,0.4
		c0,0.1,0,0.2,0,0.2c0.5,0,1.1,0.1,1.6,0.1C15.8,13.1,15.9,13.1,15.9,13.1z"/>
	<path d="M10,3C7.8,3,6,4.8,6,7s1.8,4,3.9,4s3.9-1.8,3.9-4S12.2,3,10,3z M10.4,8.9v0.5H9.5V9L9,8.9l0.1-0.8l0.9,0.1c0,0,0,0,0.1,0
		c0.2,0,0.4-0.2,0.4-0.4c0-0.2-0.2-0.4-0.4-0.4c-0.7,0-1.2-0.6-1.2-1.2c0-0.3,0.1-0.5,0.3-0.7C9.1,5.2,9.4,5.1,9.6,5V4.5h0.8V5
		L11,5.1l-0.2,0.8L10,5.7c-0.1,0-0.3,0-0.4,0.1c0,0.1-0.1,0.2-0.1,0.3c0,0.2,0.2,0.4,0.4,0.4c0.7,0,1.2,0.6,1.2,1.2
		C11.2,8.3,10.9,8.8,10.4,8.9z"/>
</g>
</svg>
