<svg width="20" height="20" viewBox="0 0 20 20" fill="none" xmlns="http://www.w3.org/2000/svg">
<g clip-path="url(#clip0_12401_216298)">
<path d="M17.9244 12.7026C16.9985 11.776 15.7137 11.3834 14.0638 11.8256L8.18008 5.93599L8.25784 5.64194C8.59671 4.37048 8.23056 3.00378 7.30258 2.0758C6.35772 1.1302 5.01447 0.783241 3.7441 1.1322C3.65507 1.15664 3.57403 1.20402 3.50907 1.26961C3.44411 1.3352 3.39751 1.4167 3.37393 1.50595C3.35043 1.59518 3.35075 1.68902 3.37487 1.77809C3.39899 1.86716 3.44605 1.94835 3.51136 2.01353L4.92805 3.43022C5.34223 3.84542 5.33818 4.51037 4.92907 4.92057C4.52319 5.32754 3.84095 5.3269 3.43669 4.92159L2.01972 3.50451C1.95442 3.43919 1.87312 3.39217 1.78393 3.36816C1.69475 3.34416 1.60083 3.344 1.51157 3.36772C1.42234 3.39145 1.34092 3.43821 1.27544 3.50331C1.20997 3.56841 1.16274 3.64956 1.13849 3.73865C0.794626 4.99506 1.1329 6.34665 2.08229 7.29604C3.00782 8.22223 4.29099 8.61619 5.94196 8.17305L11.8261 14.0627C11.387 15.7122 11.7658 16.9845 12.7041 17.9229C13.6502 18.8697 14.9941 19.214 16.2617 18.8662C16.3507 18.8418 16.4317 18.7944 16.4967 18.7288C16.5617 18.6633 16.6083 18.5818 16.6319 18.4925C16.6554 18.4033 16.6551 18.3094 16.631 18.2203C16.6069 18.1312 16.5598 18.05 16.4945 17.9848L15.0781 16.5685C14.6639 16.1533 14.668 15.4883 15.0771 15.0781C15.488 14.6693 16.1688 14.6758 16.5695 15.0776L17.9866 16.4943C18.0519 16.5596 18.1332 16.6066 18.2223 16.6306C18.3115 16.6546 18.4054 16.6547 18.4947 16.631C18.5839 16.6073 18.6653 16.5605 18.7308 16.4954C18.7962 16.4303 18.8435 16.3492 18.8677 16.2601C19.2116 15.0039 18.8734 13.652 17.9244 12.7026Z" fill="black"/>
<path d="M6.64408 10.3715L1.61702 15.3992C0.794327 16.2219 0.794327 17.5597 1.61702 18.3824C2.43971 19.2051 3.77755 19.2051 4.6002 18.3824L9.62716 13.3548L6.64408 10.3715ZM4.10478 16.7458C3.89876 16.9518 3.56513 16.9518 3.35912 16.7458C3.15314 16.5398 3.15314 16.2061 3.35912 16.0001L6.55763 12.801C6.76361 12.595 7.09735 12.595 7.3033 12.801C7.50928 13.007 7.50928 13.3407 7.3033 13.5467L4.10478 16.7458ZM18.8449 2.06297L17.9358 1.15387C17.8526 1.07071 17.7441 1.01773 17.6274 1.00335C17.5107 0.988967 17.3925 1.014 17.2916 1.07448L14.4951 2.75225C14.2008 2.92877 14.1509 3.33472 14.3934 3.57733L14.616 3.79987L11.066 7.33543L12.5578 8.82728L16.1079 5.29172L16.4215 5.60535C16.6641 5.84789 17.0701 5.79797 17.2465 5.50371L18.9243 2.70714C18.9848 2.60628 19.0098 2.48811 18.9954 2.3714C18.981 2.25469 18.928 2.14613 18.8449 2.06297Z" fill="black"/>
</g>
<defs>
<clipPath id="clip0_12401_216298">
<rect width="18" height="18" fill="white" transform="translate(1 1)"/>
</clipPath>
</defs>
</svg>
