<!-- Generated by IcoMoon.io -->
<svg version="1.1" xmlns="http://www.w3.org/2000/svg" width="32" height="32" viewBox="0 0 32 32">
<path fill="none" stroke="#9ca3af" stroke-linejoin="miter" stroke-linecap="butt" stroke-miterlimit="10" stroke-width="2.4" d="M16.302 8.008l-1.442-1.442c-1.644-1.644-4.309-1.644-5.952 0l-5.008 5.059c-1.644 1.644-1.644 4.309 0 5.952l1.273 1.273M13.782 10.598l-8.543 8.525c-0.711 0.711-0.711 1.864 0 2.575s1.864 0.711 2.575 0l6.498-6.498M20.024 19.786l-4.159 4.16c-0.711 0.711-0.711 1.864 0 2.575s1.864 0.711 2.575 0l9.662-9.662c1.644-1.644 1.644-4.309 0-5.952l-4.333-4.334c-1.644-1.644-4.309-1.644-5.952 0l-1.302 1.3"></path>
<path fill="none" stroke="#9ca3af" stroke-linejoin="miter" stroke-linecap="butt" stroke-miterlimit="10" stroke-width="2.4" d="M17.192 17.47l-6.067 6.067c-0.711 0.711-0.711 1.864 0 2.575s1.864 0.711 2.575 0l6.444-6.444"></path>
<path fill="none" stroke="#9ca3af" stroke-linejoin="miter" stroke-linecap="butt" stroke-miterlimit="10" stroke-width="2.4" d="M14.348 15.164l-6.166 6.166c-0.711 0.711-0.711 1.864 0 2.575s1.864 0.711 2.575 0l6.454-6.454M12.667 10l4.551 4.069c0.711 0.711 1.864 0.711 2.575 0s0.711-1.864 0-2.575l-4.618-4.618"></path>
<path fill="#dc2626" d="M32 5.333c0 2.946-2.388 5.333-5.333 5.333s-5.333-2.388-5.333-5.333c0-2.946 2.388-5.333 5.333-5.333s5.333 2.388 5.333 5.333z"></path>
</svg>
