<!-- Generated by IcoMoon.io -->
<svg version="1.1" xmlns="http://www.w3.org/2000/svg" width="32" height="32" viewBox="0 0 32 32">
<title>share</title>
<path d="M17.467 10.4v-4.4c0-0.4 0.133-0.8 0.4-1.067s0.667-0.4 1.067-0.4c0.4 0 0.8 0.133 1.067 0.4l10.267 10.267c0.133 0.133 0.267 0.267 0.267 0.533 0.133 0.133 0.133 0.267 0.133 0.533 0 0.133 0 0.4-0.133 0.533s-0.133 0.4-0.267 0.533l-10.267 10.133c-0.267 0.267-0.533 0.4-0.8 0.4s-0.533 0-0.8-0.133c-0.267-0.133-0.533-0.267-0.667-0.533s-0.267-0.533-0.267-0.8v-4.533h-1.2c-2.267 0-4.667 0.4-6.667 1.333-2.133 0.933-4 2.4-5.467 4.133-0.133 0.267-0.4 0.4-0.667 0.533-0.533 0.133-0.8 0.133-1.2 0-0.267-0.133-0.533-0.267-0.667-0.533s-0.267-0.533-0.267-0.8c0-13.467 11.867-15.733 16.133-16.133zM16.267 18.933c0.933 0 2 0 2.933 0.133 0.4 0 0.667 0.267 0.933 0.533s0.4 0.667 0.4 0.933v2.267l6.667-6.8-6.667-6.667v2.267c0 0.4-0.133 0.8-0.4 1.067s-0.667 0.4-1.067 0.4c-1.333 0-11.867 0.267-14.133 9.467 3.2-2.267 7.2-3.6 11.333-3.6z"></path>
</svg>
