<!-- Generated by IcoMoon.io -->
<svg version="1.1" xmlns="http://www.w3.org/2000/svg" width="32" height="32" viewBox="0 0 32 32">
<title>shield</title>
<path d="M16 30.667l-0.4-0.133c-0.533-0.267-11.733-5.333-11.733-14.533v-8c0-0.8 0.267-1.467 0.667-2.133s1.067-1.067 1.867-1.333l9.6-3.2 9.733 3.2c0.667 0.267 1.333 0.667 1.867 1.333 0.4 0.667 0.667 1.333 0.667 2.133v8c0 10.533-11.333 14.4-11.867 14.533l-0.4 0.133zM16 3.867l-8.933 2.933c-0.267 0.133-0.4 0.267-0.667 0.533-0.133 0.133-0.133 0.4-0.133 0.667v8c0 6.667 7.867 11.067 9.867 12 2-0.8 9.733-4.4 9.733-12v-8c0-0.267-0.133-0.533-0.267-0.667-0.133-0.267-0.4-0.4-0.667-0.4l-8.933-3.067z"></path>
<path d="M14.933 19.067v0c-0.4 0-0.667-0.133-0.933-0.133-0.267-0.133-0.533-0.267-0.8-0.533l-2.8-2.933 1.733-1.733 2.8 2.8 6.267-6.267 1.733 1.733-6.4 6.4c-0.267 0.267-0.533 0.4-0.8 0.533s-0.533 0.133-0.8 0.133z"></path>
</svg>
