<svg width="32" height="32" viewBox="0 0 32 32" fill="none" xmlns="http://www.w3.org/2000/svg">
<mask id="mask0_250_2851" style="mask-type:alpha" maskUnits="userSpaceOnUse" x="0" y="0" width="32" height="32">
<rect width="32" height="32" fill="#D9D9D9"/>
</mask>
<g mask="url(#mask0_250_2851)">
<path d="M9.33334 29.3334C8.60001 29.3334 7.97223 29.0722 7.45001 28.55C6.92779 28.0278 6.66668 27.4 6.66668 26.6667C6.66668 25.9334 6.92779 25.3056 7.45001 24.7834C7.97223 24.2611 8.60001 24 9.33334 24C10.0667 24 10.6945 24.2611 11.2167 24.7834C11.7389 25.3056 12 25.9334 12 26.6667C12 27.4 11.7389 28.0278 11.2167 28.55C10.6945 29.0722 10.0667 29.3334 9.33334 29.3334ZM22.6667 29.3334C21.9333 29.3334 21.3056 29.0722 20.7833 28.55C20.2611 28.0278 20 27.4 20 26.6667C20 25.9334 20.2611 25.3056 20.7833 24.7834C21.3056 24.2611 21.9333 24 22.6667 24C23.4 24 24.0278 24.2611 24.55 24.7834C25.0722 25.3056 25.3333 25.9334 25.3333 26.6667C25.3333 27.4 25.0722 28.0278 24.55 28.55C24.0278 29.0722 23.4 29.3334 22.6667 29.3334ZM6.93334 5.33335H26.6C27.1111 5.33335 27.5 5.56113 27.7667 6.01669C28.0333 6.47224 28.0445 6.93335 27.8 7.40002L23.0667 15.9334C22.8222 16.3778 22.4945 16.7222 22.0833 16.9667C21.6722 17.2111 21.2222 17.3334 20.7333 17.3334H10.8L9.33334 20H25.3333V22.6667H9.33334C8.33334 22.6667 7.57779 22.2278 7.06668 21.35C6.55557 20.4722 6.53334 19.6 7.00001 18.7334L8.80001 15.4667L4.00001 5.33335H1.33334V2.66669H5.66668L6.93334 5.33335Z" fill="black"/>
</g>
</svg>
