<!-- Generated by IcoMoon.io -->
<svg version="1.1" xmlns="http://www.w3.org/2000/svg" width="32" height="32" viewBox="0 0 32 32">
<path d="M16 30c-0.181 0-0.359-0.049-0.515-0.142-5.327-3.198-10.977-9.55-12.911-13.478-1.992-4.040-2.677-9.49 1.378-12.672 1.424-1.118 3.255-1.708 5.295-1.708 2.64 0 5.152 0.98 6.753 2.571 1.6-1.59 4.114-2.571 6.754-2.571 2.040 0 3.871 0.59 5.296 1.707 4.053 3.183 3.368 8.633 1.376 12.673-1.934 3.928-7.584 10.28-12.911 13.478-0.156 0.093-0.334 0.142-0.515 0.142zM9.247 4c-1.107 0-2.71 0.222-4.060 1.28-4.019 3.155-1.388 9.063-0.82 10.216 1.749 3.547 6.765 9.228 11.633 12.329 4.869-3.101 9.885-8.782 11.632-12.329 0.569-1.153 3.2-7.061-0.817-10.215-1.35-1.061-2.954-1.281-4.061-1.281-2.47 0-4.85 1.080-5.922 2.687-0.371 0.557-1.293 0.557-1.664 0-1.072-1.607-3.451-2.687-5.921-2.687zM18 23h-4c-0.265 0-0.52-0.105-0.707-0.293s-0.293-0.442-0.293-0.707v-3h-3c-0.265 0-0.52-0.105-0.707-0.293s-0.293-0.442-0.293-0.707v-4c0-0.265 0.105-0.52 0.293-0.707s0.442-0.293 0.707-0.293h3v-3c0-0.265 0.105-0.52 0.293-0.707s0.442-0.293 0.707-0.293h4c0.265 0 0.52 0.105 0.707 0.293s0.293 0.442 0.293 0.707v3h3c0.265 0 0.52 0.105 0.707 0.293s0.293 0.442 0.293 0.707v4c0 0.265-0.105 0.52-0.293 0.707s-0.442 0.293-0.707 0.293h-3v3c0 0.265-0.105 0.52-0.293 0.707s-0.442 0.293-0.707 0.293zM14.667 21h2.667v-3c0-0.265 0.105-0.52 0.293-0.707s0.442-0.293 0.707-0.293h2.667v-2h-2.667c-0.265 0-0.52-0.105-0.707-0.293s-0.293-0.442-0.293-0.707v-3h-2.667v3c0 0.265-0.105 0.52-0.293 0.707s-0.442 0.293-0.707 0.293h-2.666v2h2.666c0.265 0 0.52 0.105 0.707 0.293s0.293 0.442 0.293 0.707v3z"></path>
</svg>
