<!-- Generated by IcoMoon.io -->
<svg version="1.1" xmlns="http://www.w3.org/2000/svg" width="32" height="32" viewBox="0 0 32 32">
<title>slack</title>
<path d="M12.58 3.2c-1.413 0-2.557 1.147-2.557 2.56 0 0.677 0.27 1.33 0.747 1.81 0.238 0.238 0.52 0.426 0.83 0.555s0.643 0.195 0.98 0.195h2.557v-2.56c0-1.41-1.143-2.557-2.557-2.56zM12.58 10.027h-6.823c-1.413 0-2.557 1.147-2.557 2.56s1.147 2.56 2.557 2.56h6.82c1.413 0 2.557-1.147 2.557-2.56 0.003-1.413-1.143-2.56-2.553-2.56zM19.4 15.147c1.413 0 2.56-1.147 2.557-2.56v-6.827c0-1.413-1.143-2.56-2.557-2.56s-2.557 1.147-2.557 2.56v6.827c0 1.417 1.143 2.56 2.557 2.56v0zM28.78 12.587c0-1.413-1.147-2.56-2.557-2.56s-2.557 1.147-2.557 2.56v2.56h2.557c1.41 0 2.557-1.147 2.557-2.56v0zM26.22 16.853h-6.82c-1.413 0-2.557 1.147-2.557 2.56 0 0.677 0.27 1.33 0.747 1.81 0.238 0.238 0.52 0.426 0.83 0.555s0.644 0.195 0.98 0.195h6.82c1.413 0 2.557-1.147 2.557-2.56 0.003-1.413-1.143-2.557-2.557-2.56v0zM19.4 23.68h-2.557v2.56c0 1.413 1.147 2.56 2.557 2.56 1.413 0 2.56-1.147 2.557-2.56 0.003-1.413-1.143-2.557-2.557-2.56zM12.58 16.853c-1.413 0-2.557 1.147-2.557 2.56v6.827c0 1.413 1.147 2.56 2.557 2.56 1.413 0 2.56-1.147 2.557-2.56v-6.827c0-0.677-0.27-1.33-0.747-1.81-0.48-0.48-1.131-0.749-1.81-0.75v0zM3.2 19.413c0 0.677 0.27 1.33 0.747 1.81 0.238 0.238 0.52 0.426 0.83 0.555s0.643 0.195 0.98 0.195c1.413 0 2.56-1.147 2.557-2.56v-2.56h-2.557c-1.41 0-2.557 1.147-2.557 2.56v0z"></path>
</svg>
