<!-- Generated by IcoMoon.io -->
<svg version="1.1" xmlns="http://www.w3.org/2000/svg" width="32" height="32" viewBox="0 0 32 32">
<path fill="none" stroke-linejoin="round" stroke-linecap="round" stroke-miterlimit="10" stroke-width="1.875" stroke="#000" d="M2.947 6.963h4.017M25.038 6.963h4.017M23.828 2.444l2.609-1.506M5.566 0.938l2.609 1.506M14.963 2.651c0.081-0.209 0.224-0.389 0.409-0.515s0.404-0.194 0.629-0.194c0.224-0 0.444 0.068 0.629 0.194s0.328 0.306 0.41 0.515l0.732 1.874 2.009 0.117c0.224 0.013 0.439 0.093 0.617 0.231s0.31 0.325 0.379 0.538 0.073 0.443 0.010 0.658c-0.063 0.215-0.19 0.407-0.364 0.549l-1.556 1.275 0.51 1.947c0.057 0.217 0.046 0.446-0.029 0.658s-0.213 0.395-0.395 0.527c-0.181 0.132-0.399 0.206-0.623 0.213s-0.445-0.055-0.634-0.176l-1.694-1.086-1.694 1.086c-0.189 0.121-0.41 0.183-0.634 0.176s-0.441-0.081-0.623-0.213c-0.182-0.132-0.319-0.315-0.395-0.527s-0.086-0.441-0.029-0.658l0.51-1.947-1.556-1.275c-0.355-0.291-0.496-0.77-0.354-1.207s0.537-0.742 0.996-0.769l2.009-0.117 0.732-1.874z"></path>
<path fill="none" stroke-linejoin="round" stroke-linecap="round" stroke-miterlimit="10" stroke-width="1.875" stroke="#000" d="M16 23.345c2.028 0 3.672-1.644 3.672-3.672s-1.644-3.672-3.672-3.672c-2.028 0-3.672 1.644-3.672 3.672s1.644 3.672 3.672 3.672z"></path>
<path fill="none" stroke-linejoin="round" stroke-linecap="round" stroke-miterlimit="10" stroke-width="1.875" stroke="#000" d="M7.968 20.017c4.436 4.436 11.629 4.436 16.066 0l0.001-0.001v-6.025c0-1.109 0.899-2.008 2.008-2.008s2.008 0.899 2.008 2.008v6.025c0 0.528-0.104 1.050-0.306 1.537s-0.498 0.93-0.871 1.303l-4.849 4.849v3.357h-12.050v-3.357c0 0-3.095-3.096-4.849-4.849-0.373-0.373-0.669-0.815-0.871-1.303s-0.306-1.009-0.306-1.537v-6.025c0-1.109 0.899-2.008 2.008-2.008s2.008 0.899 2.008 2.008v6.025c0 0 0.001 0 0.001 0.001z"></path>
</svg>
