<svg width="24" height="24" viewBox="0 0 24 24" fill="none" xmlns="http://www.w3.org/2000/svg">
<path d="M7.04625 18.8976C6.47442 18.8976 5.99042 18.6995 5.59425 18.3033C5.19808 17.9072 5 17.4232 5 16.8513V4.97859C5 4.55293 5.19133 4.25709 5.574 4.09109C5.95667 3.92493 6.29225 3.98609 6.58075 4.27459L8.44625 6.14009L7.38475 7.20159L7.96925 7.78609L9.03075 6.72459L11.4 9.09384L10.3385 10.1553L10.923 10.7398L11.9845 9.67834L14.3923 12.0861L13.3307 13.1476L13.9152 13.7321L14.9768 12.6706L17.346 15.0398L16.2845 16.1013L16.8692 16.6861L17.9307 15.6246L19.6423 17.3361C19.9243 17.6181 19.9822 17.9488 19.8162 18.3283C19.6502 18.7078 19.3576 18.8976 18.9382 18.8976H7.04625ZM7.5385 16.6668H15.5307L7.23075 8.36684V16.3591C7.23075 16.4489 7.25958 16.5227 7.31725 16.5803C7.37492 16.638 7.44867 16.6668 7.5385 16.6668Z" fill="#1C1B1F"/>
</svg>
