<?xml version="1.0" encoding="UTF-8"?>
<svg xmlns="http://www.w3.org/2000/svg" version="1.1" viewBox="0 0 20 20">
  <!-- Generator: Adobe Illustrator 28.6.0, SVG Export Plug-In . SVG Version: 1.2.0 Build 709)  -->
  <g>
    <g id="Layer_1">
      <path d="M17.5,7.4l-4.8-.7-2.1-4.3c0-.1-.2-.2-.3-.3-.3-.1-.7,0-.8.3l-2.1,4.3-4.8.7c-.1,0-.3,0-.3.2-.1.1-.2.3-.2.4,0,.2,0,.3.2.4l3.5,3.4-.8,4.8c0,.1,0,.2,0,.3s.1.2.2.3c0,0,.2.1.3.1.1,0,.2,0,.3,0l4.3-2.3,4.3,2.3c.1,0,.3,0,.4,0,.3,0,.5-.4.5-.7l-.8-4.8,3.5-3.4c0,0,.2-.2.2-.3,0-.3-.2-.6-.5-.7ZM12.9,11.3l.7,4-3.6-1.9-3.6,1.9.7-4-2.9-2.8,4-.6,1.8-3.6,1.8,3.6,4,.6-2.9,2.8Z"/>
    </g>
  </g>
</svg>