<!-- Generated by IcoMoon.io -->
<svg version="1.1" xmlns="http://www.w3.org/2000/svg" width="32" height="32" viewBox="0 0 32 32">
<title>star-fill</title>
<path d="M23.2 28.8c-0.16 0-0.48 0-0.64-0.16l-6.56-3.52-6.56 3.68c-0.16 0-0.48 0-0.64 0s-0.48-0.16-0.64-0.32c-0.16-0.16-0.32-0.32-0.48-0.64-0.16-0.16-0.16-0.48 0-0.64l1.28-7.68-5.44-5.28c-0.16-0.16-0.16-0.48-0.32-0.64 0-0.16 0-0.48 0-0.64s0.16-0.48 0.32-0.64c0.16-0.16 0.32-0.32 0.64-0.32l7.36-1.12 3.2-6.88c0.16-0.16 0.32-0.48 0.48-0.48 0.32-0.32 0.64-0.32 0.8-0.32s0.48 0 0.64 0.16c0.16 0.16 0.32 0.32 0.48 0.48l3.2 6.88 7.36 1.12c0.16 0 0.48 0.16 0.64 0.32s0.32 0.32 0.32 0.64c0 0.16 0.16 0.48 0 0.64 0 0.16-0.16 0.48-0.32 0.64l-5.28 5.44 1.28 7.68c0 0.16 0 0.32 0 0.64 0 0.16-0.16 0.32-0.32 0.48s-0.32 0.32-0.48 0.32c0 0.16-0.16 0.16-0.32 0.16z"></path>
</svg>
