<!-- Generated by IcoMoon.io -->
<svg version="1.1" xmlns="http://www.w3.org/2000/svg" width="32" height="32" viewBox="0 0 32 32">
<title>stock</title>
<path d="M28.544 23.639h-25.088c-0.141 0-0.256 0.115-0.256 0.256v1.792c0 0.141 0.115 0.256 0.256 0.256h25.088c0.141 0 0.256-0.115 0.256-0.256v-1.792c0-0.141-0.115-0.256-0.256-0.256zM4.918 19.633l1.27 1.264c0.099 0.099 0.262 0.099 0.362 0l7.51-7.485 3.123 3.114c0.192 0.191 0.452 0.298 0.723 0.298s0.531-0.107 0.723-0.298l8.454-8.422c0.099-0.099 0.099-0.262 0-0.362l-1.27-1.267c-0.048-0.048-0.113-0.074-0.181-0.074s-0.133 0.027-0.181 0.074l-7.542 7.52-3.126-3.114c-0.192-0.191-0.452-0.298-0.723-0.298s-0.531 0.107-0.723 0.298l-8.419 8.39c-0.024 0.024-0.043 0.052-0.056 0.083s-0.020 0.064-0.020 0.098c0 0.034 0.007 0.067 0.020 0.098s0.032 0.059 0.056 0.083v0z"></path>
</svg>
