<svg width="20" height="20" viewBox="0 0 20 20" fill="none" xmlns="http://www.w3.org/2000/svg">
<path d="M18.9831 6.92638L17.965 2.85162C17.8401 2.351 17.3901 2 16.8737 2H3.12738C2.611 2 2.161 2.351 2.035 2.85162L1.01687 6.92638C1.00562 6.97025 1 7.01637 1 7.0625C1 8.61275 2.19813 9.875 3.67188 9.875C4.528 9.875 5.29187 9.44862 5.78125 8.78712C6.27063 9.44862 7.0345 9.875 7.89062 9.875C8.74675 9.875 9.51062 9.44862 10 8.78712C10.4894 9.44862 11.2521 9.875 12.1094 9.875C12.9666 9.875 13.7294 9.44862 14.2188 8.78712C14.7081 9.44862 15.4709 9.875 16.3281 9.875C17.8019 9.875 19 8.61275 19 7.0625C19 7.01637 18.9944 6.97025 18.9831 6.92638ZM16.3281 11C15.562 11 14.8341 10.766 14.2188 10.3385C12.988 11.1946 11.2307 11.1946 10 10.3385C8.76925 11.1946 7.012 11.1946 5.78125 10.3385C5.16588 10.766 4.438 11 3.67188 11C3.1195 11 2.59863 10.8706 2.125 10.6501V16.625C2.125 17.246 2.629 17.75 3.25 17.75H7.75V13.25H12.25V17.75H16.75C17.371 17.75 17.875 17.246 17.875 16.625V10.6501C17.4014 10.8706 16.8805 11 16.3281 11Z" fill="black"/>
</svg>
