<?xml version="1.0" encoding="UTF-8"?>
<svg id="Layer_1" data-name="Layer 1" xmlns="http://www.w3.org/2000/svg" version="1.1" viewBox="0 0 20 20">
  <defs>
    <style>
      .cls-1 {
        fill: #000;
        stroke-width: 0px;
      }
    </style>
  </defs>
  <path class="cls-1" d="M12.8,8.2c.3.3.3.8,0,1.1l-2.3,2.2c-.3.3-.8.5-1.2.5s-.9-.2-1.2-.5l-.8-.7c-.3-.3-.3-.8,0-1.1.3-.3.8-.3,1.1,0l.8.7c.1.1.3.1.4,0l2.3-2.2c.3-.3.8-.3,1.1,0ZM16,10c0,3.3-2.7,6-6,6s-6-2.7-6-6,2.7-6,6-6,6,2.7,6,6ZM14.5,10c0-2.5-2-4.5-4.5-4.5s-4.5,2-4.5,4.5,2,4.5,4.5,4.5,4.5-2,4.5-4.5Z"/>
</svg>