<!-- Generated by IcoMoon.io -->
<svg version="1.1" xmlns="http://www.w3.org/2000/svg" width="32" height="32" viewBox="0 0 32 32">
<title>sync</title>
<path d="M5.516 15.762c0.030-1.332 0.305-2.624 0.82-3.84 0.527-1.25 1.283-2.368 2.246-3.334s2.085-1.722 3.334-2.249c1.292-0.546 2.664-0.823 4.081-0.823s2.789 0.277 4.078 0.823c1.246 0.526 2.377 1.29 3.331 2.249 0.302 0.302 0.585 0.622 0.847 0.957l-1.835 1.432c-0.036 0.028-0.064 0.066-0.080 0.109s-0.019 0.090-0.009 0.135c0.009 0.045 0.032 0.086 0.064 0.119s0.072 0.056 0.117 0.067l5.355 1.31c0.152 0.037 0.302-0.079 0.302-0.235l0.024-5.513c0-0.204-0.235-0.32-0.393-0.192l-1.719 1.344c-2.344-2.999-5.989-4.922-10.085-4.922-6.982 0-12.663 5.595-12.794 12.55-0.001 0.033 0.005 0.065 0.017 0.095s0.030 0.058 0.052 0.081c0.023 0.023 0.050 0.042 0.080 0.054s0.062 0.019 0.095 0.019h1.829c0.134 0 0.241-0.107 0.244-0.238zM28.556 16h-1.829c-0.134 0-0.241 0.107-0.244 0.238-0.030 1.332-0.305 2.624-0.82 3.84-0.527 1.249-1.283 2.371-2.246 3.334-0.972 0.976-2.128 1.75-3.4 2.277s-2.637 0.797-4.014 0.795c-1.377 0.003-2.741-0.268-4.013-0.795s-2.427-1.301-3.399-2.277c-0.302-0.302-0.585-0.622-0.847-0.957l1.835-1.432c0.036-0.028 0.064-0.066 0.080-0.109s0.019-0.090 0.010-0.135c-0.010-0.045-0.032-0.086-0.064-0.119s-0.073-0.056-0.117-0.067l-5.355-1.311c-0.152-0.036-0.302 0.079-0.302 0.235l-0.021 5.516c0 0.204 0.235 0.32 0.393 0.192l1.719-1.344c2.344 2.996 5.989 4.919 10.085 4.919 6.985 0 12.663-5.598 12.794-12.55 0.001-0.032-0.005-0.065-0.017-0.095s-0.030-0.058-0.052-0.081c-0.023-0.023-0.050-0.042-0.080-0.054s-0.062-0.019-0.095-0.019v0z"></path>
</svg>
