<svg width="24" height="25" viewBox="0 0 24 25" fill="none" xmlns="http://www.w3.org/2000/svg">
<path d="M19.5527 3.24431C19.312 3.26216 19.0757 3.31863 18.853 3.41156H18.85C18.6362 3.49631 17.62 3.92381 16.075 4.57181L10.5385 6.90356C6.56571 8.57606 2.66046 10.2231 2.66046 10.2231L2.70696 10.2051C2.70696 10.2051 2.43771 10.2936 2.15646 10.4863C1.98231 10.5964 1.8327 10.7411 1.71696 10.9116C1.57896 11.1141 1.46796 11.4238 1.50921 11.7441C1.57671 12.2856 1.92771 12.6103 2.17971 12.7896C2.43471 12.9711 2.67771 13.0558 2.67771 13.0558H2.68371L6.34596 14.2896C6.51021 14.8168 7.46196 17.9458 7.69071 18.6666C7.82571 19.0971 7.95696 19.3663 8.12121 19.5718C8.19971 19.6768 8.29446 19.7646 8.40546 19.8351C8.46312 19.8697 8.52517 19.8965 8.58996 19.9146L8.55246 19.9056C8.56371 19.9086 8.57271 19.9176 8.58096 19.9206C8.61096 19.9288 8.63121 19.9318 8.66946 19.9378C9.24921 20.1133 9.71496 19.7533 9.71496 19.7533L9.74121 19.7323L11.9035 17.7636L15.5275 20.5438L15.61 20.5791C16.3652 20.9106 17.1302 20.7261 17.5345 20.4006C17.9417 20.0728 18.1 19.6536 18.1 19.6536L18.1262 19.5861L20.9267 5.23931C21.0062 4.88531 21.0265 4.55381 20.9387 4.23206C20.8487 3.9062 20.6396 3.62598 20.353 3.44681C20.1126 3.30056 19.8337 3.23 19.5527 3.24431ZM19.477 4.78181C19.474 4.82906 19.483 4.82381 19.462 4.91456V4.92281L16.6877 19.1203C16.6757 19.1406 16.6555 19.1848 16.6 19.2291C16.5415 19.2756 16.495 19.3048 16.2512 19.2081L11.8187 15.8098L9.14121 18.2503L9.70371 14.6578L16.9457 7.90781C17.2442 7.63031 17.1445 7.57181 17.1445 7.57181C17.1655 7.23131 16.6937 7.47206 16.6937 7.47206L7.56171 13.1293L7.55871 13.1143L3.18171 11.6406V11.6376L3.17046 11.6353L3.19296 11.6263L3.21696 11.6143L3.24021 11.6061C3.24021 11.6061 7.14846 9.95906 11.1212 8.28656C13.1102 7.44881 15.1142 6.60506 16.6555 5.95406C17.5695 5.56931 18.4845 5.18681 19.4005 4.80656C19.462 4.78256 19.4327 4.78181 19.477 4.78181Z" fill="#002851"/>
</svg>
