<svg width="20" height="20" viewBox="0 0 20 20" fill="none" xmlns="http://www.w3.org/2000/svg">
<path d="M16.1538 2H3.84615C3.35652 2 2.88695 2.1945 2.54073 2.54073C2.19451 2.88695 2 3.35652 2 3.84615V15.5385C2 16.0281 2.19451 16.4977 2.54073 16.8439C2.88695 17.1901 3.35652 17.3846 3.84615 17.3846H16.1538C16.6435 17.3846 17.1131 17.1901 17.4593 16.8439C17.8055 16.4977 18 16.0281 18 15.5385V3.84615C18 3.35652 17.8055 2.88695 17.4593 2.54073C17.1131 2.1945 16.6435 2 16.1538 2ZM16.7692 15.5385C16.7692 15.7017 16.7044 15.8582 16.589 15.9736C16.4736 16.089 16.3171 16.1538 16.1538 16.1538H3.84615C3.68294 16.1538 3.52642 16.089 3.41101 15.9736C3.2956 15.8582 3.23077 15.7017 3.23077 15.5385V3.84615C3.23077 3.68294 3.2956 3.52642 3.41101 3.41101C3.52642 3.2956 3.68294 3.23077 3.84615 3.23077H16.1538C16.3171 3.23077 16.4736 3.2956 16.589 3.41101C16.7044 3.52642 16.7692 3.68294 16.7692 3.84615V15.5385Z" fill="black"/>
<path d="M14.0005 8.76936C14.1637 8.76936 14.3202 8.70452 14.4356 8.58911C14.551 8.47371 14.6159 8.31718 14.6159 8.15397C14.6159 7.99076 14.551 7.83424 14.4356 7.71883C14.3202 7.60342 14.1637 7.53859 14.0005 7.53859H7.17893L7.97586 6.74166C8.09133 6.62619 8.1562 6.46958 8.1562 6.30628C8.1562 6.14298 8.09133 5.98637 7.97586 5.87089C7.86039 5.75542 7.70377 5.69055 7.54047 5.69055C7.37717 5.69055 7.22056 5.75542 7.10509 5.87089L5.25893 7.71705C5.17234 7.80294 5.11322 7.91263 5.08908 8.03218C5.06494 8.15174 5.07687 8.27577 5.12336 8.38853C5.16985 8.50129 5.2488 8.59769 5.35018 8.6655C5.45157 8.7333 5.57081 8.76945 5.69278 8.76936H14.0005ZM14.6159 10.9232H6.30817C6.14496 10.9232 5.98843 10.988 5.87302 11.1034C5.75762 11.2189 5.69278 11.3754 5.69278 11.5386C5.69278 11.7018 5.75762 11.8583 5.87302 11.9737C5.98843 12.0891 6.14496 12.154 6.30817 12.154H13.1297L12.3328 12.9509C12.2173 13.0664 12.1524 13.223 12.1524 13.3863C12.1524 13.5496 12.2173 13.7062 12.3328 13.8217C12.4483 13.9371 12.6049 14.002 12.7682 14.002C12.9315 14.002 13.0881 13.9371 13.2036 13.8217L15.0497 11.9755C15.1363 11.8896 15.1954 11.7799 15.2196 11.6604C15.2437 11.5408 15.2318 11.4168 15.1853 11.304C15.1388 11.1913 15.0598 11.0949 14.9585 11.0271C14.8571 10.9593 14.7378 10.9231 14.6159 10.9232Z" fill="black"/>
</svg>
