<!-- Generated by IcoMoon.io -->
<svg version="1.1" xmlns="http://www.w3.org/2000/svg" width="32" height="32" viewBox="0 0 32 32">
<path d="M8 26.667h16v-13.333h-16v13.333zM16 22.667c0.733 0 1.361-0.261 1.883-0.783s0.783-1.15 0.783-1.883c0-0.733-0.261-1.361-0.783-1.883s-1.15-0.783-1.883-0.783c-0.733 0-1.361 0.261-1.883 0.783s-0.783 1.15-0.783 1.883c0 0.733 0.261 1.361 0.783 1.883s1.15 0.783 1.883 0.783zM8 29.333c-0.733 0-1.361-0.261-1.883-0.783s-0.783-1.15-0.783-1.883v-13.333c0-0.733 0.261-1.361 0.783-1.883s1.15-0.783 1.883-0.783h9.333v-2.667c0-1.844 0.65-3.417 1.95-4.717s2.872-1.95 4.717-1.95c1.578 0 2.956 0.478 4.133 1.433s1.956 2.156 2.333 3.6c0.111 0.378 0.039 0.744-0.217 1.1s-0.561 0.533-0.917 0.533c-0.378 0-0.689-0.078-0.933-0.233s-0.422-0.411-0.533-0.767c-0.244-0.844-0.717-1.556-1.417-2.133s-1.517-0.867-2.45-0.867c-1.111 0-2.056 0.389-2.833 1.167s-1.167 1.722-1.167 2.833v2.667h4c0.733 0 1.361 0.261 1.883 0.783s0.783 1.15 0.783 1.883v13.333c0 0.733-0.261 1.361-0.783 1.883s-1.15 0.783-1.883 0.783h-16z"></path>
</svg>
