<!-- Generated by IcoMoon.io -->
<svg version="1.1" xmlns="http://www.w3.org/2000/svg" width="32" height="32" viewBox="0 0 32 32">
<title>up-circle</title>
<path d="M16.185 11.666c-0.021-0.029-0.049-0.053-0.081-0.069s-0.068-0.025-0.104-0.025c-0.036 0-0.071 0.009-0.103 0.025s-0.060 0.040-0.081 0.069l-5.086 7.029c-0.109 0.151 0 0.363 0.186 0.363h1.34c0.291 0 0.569-0.14 0.74-0.377l3.003-4.154 3.006 4.154c0.172 0.237 0.446 0.377 0.74 0.377h1.34c0.186 0 0.294-0.211 0.186-0.363l-5.086-7.029z"></path>
<path d="M16 3.2c-7.069 0-12.8 5.731-12.8 12.8s5.731 12.8 12.8 12.8c7.069 0 12.8-5.731 12.8-12.8s-5.731-12.8-12.8-12.8zM16 26.629c-5.869 0-10.629-4.76-10.629-10.629s4.76-10.629 10.629-10.629c5.869 0 10.629 4.76 10.629 10.629s-4.76 10.629-10.629 10.629z"></path>
</svg>
