<!-- Generated by IcoMoon.io -->
<svg version="1.1" xmlns="http://www.w3.org/2000/svg" width="32" height="32" viewBox="0 0 32 32">
<title>usb</title>
<path d="M24.512 13.44v-9.216c0-0.566-0.458-1.024-1.024-1.024h-13.824c-0.566 0-1.024 0.458-1.024 1.024v9.216c-2.118 0-3.84 1.667-3.84 3.712v11.392c0 0.141 0.115 0.256 0.256 0.256h1.792c0.141 0 0.256-0.115 0.256-0.256v-11.392c0-0.778 0.691-1.408 1.539-1.408h15.866c0.848 0 1.539 0.63 1.539 1.408v11.392c0 0.141 0.115 0.256 0.256 0.256h1.792c0.141 0 0.256-0.115 0.256-0.256v-11.392c0-2.045-1.722-3.712-3.84-3.712v0zM10.944 13.44v-7.936h11.264v7.936h-11.264zM14.784 7.552h-1.536c-0.141 0-0.256 0.115-0.256 0.256v1.536c0 0.141 0.115 0.256 0.256 0.256h1.536c0.141 0 0.256-0.115 0.256-0.256v-1.536c0-0.141-0.115-0.256-0.256-0.256zM19.904 7.552h-1.536c-0.141 0-0.256 0.115-0.256 0.256v1.536c0 0.141 0.115 0.256 0.256 0.256h1.536c0.141 0 0.256-0.115 0.256-0.256v-1.536c0-0.141-0.115-0.256-0.256-0.256z"></path>
</svg>
