<?xml version="1.0" encoding="utf-8"?>
<!-- Generator: Adobe Illustrator 28.1.0, SVG Export Plug-In . SVG Version: 6.00 Build 0)  -->
<svg version="1.1" id="Layer_1" xmlns="http://www.w3.org/2000/svg" xmlns:xlink="http://www.w3.org/1999/xlink" x="0px" y="0px"
	 viewBox="0 0 20 20" style="enable-background:new 0 0 20 20;" xml:space="preserve">
<style type="text/css">
	.st0{fill-rule:evenodd;clip-rule:evenodd;}
</style>
<g>
	<path d="M4.8,17.4v-3.8H4.2v-1.3l0.6-3.2h10.9l0.6,3.2v1.3h-0.6v3.8h-1.1v-3.8h-2.7v3.8H4.8z M5.9,16.1h4.8v-2.5H5.9V16.1z
		 M5.4,12.3h9.7l-0.3-1.9H5.7L5.4,12.3z"/>
	<path class="st0" d="M4.6,5.2c0.1,0.1,0,0.2,0,0.3C3.3,6.7,3.1,8.4,4.1,9.4c0.1,0.1,0.1,0.2,0,0.3C4,9.8,3.9,9.8,3.8,9.7
		c-1.3-1.2-1-3.3,0.5-4.5C4.4,5.1,4.5,5.1,4.6,5.2z"/>
	<g>
		<path class="st0" d="M14.9,4.4c-0.1,0-0.3-0.1-0.4-0.1h-0.4V6h0.4c0.2,0,0.3,0,0.4-0.1s0.2-0.1,0.3-0.3c0-0.1,0.1-0.3,0.1-0.5
			c0-0.2,0-0.4-0.1-0.5C15.1,4.6,15,4.5,14.9,4.4z"/>
		<path class="st0" d="M16.1,2.6H5.5C5.1,2.6,4.9,2.7,4.7,3L3.4,4.9c-0.2,0.3-0.2,0.7,0,1l1.3,1.9C4.9,8,5.1,8.1,5.5,8.1
			c0.3,0,10.6,0,10.6,0c0.5,0,0.9-0.4,0.9-0.9V3C17,2.5,16.6,2.6,16.1,2.6z M4.5,5.8C4.2,5.8,4,5.6,4,5.4c0-0.3,0.2-0.5,0.5-0.5
			C4.8,4.9,5,5.1,5,5.4C5,5.6,4.8,5.8,4.5,5.8z M8.4,5.6c0,0.2,0,0.4-0.1,0.5C8.1,6.2,8,6.4,7.9,6.4C7.7,6.5,7.5,6.6,7.3,6.6
			c-0.2,0-0.4,0-0.6-0.1C6.5,6.3,6.4,6.2,6.3,6.1C6.2,6,6.2,5.8,6.2,5.6V3.8h0.6v1.7c0,0.1,0,0.2,0,0.3C6.8,5.9,6.9,6,6.9,6
			c0.1,0,0.2,0,0.3,0c0.1,0,0.2,0,0.3,0s0.1-0.1,0.2-0.2c0-0.1,0-0.2,0-0.3V3.8h0.6V5.6z M10.8,6.2c-0.1,0.1-0.2,0.2-0.4,0.3
			c-0.1,0-0.3,0.1-0.6,0.1c-0.2,0-0.4,0-0.6-0.1S9,6.3,8.9,6.2C8.8,6.1,8.8,5.9,8.8,5.7h0.5c0,0.1,0,0.2,0.1,0.2
			c0,0,0.1,0.1,0.2,0.1c0.1,0,0.2,0,0.3,0s0.2,0,0.2,0c0.1,0,0.1,0,0.2-0.1c0,0,0-0.1,0-0.2c0,0,0-0.1,0-0.1c0,0-0.1-0.1-0.1-0.1
			c0,0-0.1,0-0.2-0.1L9.6,5.3C9.4,5.3,9.2,5.2,9.1,5C8.9,4.9,8.9,4.8,8.9,4.6c0-0.2,0-0.3,0.1-0.4C9.1,4,9.3,3.9,9.4,3.9
			s0.3-0.1,0.5-0.1s0.4,0,0.5,0.1c0.1,0,0.3,0.2,0.4,0.3c0.1,0.1,0.1,0.3,0.1,0.4h-0.6c0-0.1,0-0.2-0.1-0.2c-0.1,0-0.2-0.1-0.3-0.1
			c-0.1,0-0.2,0-0.2,0c0,0-0.1,0-0.1,0.1c0,0,0,0.1,0,0.1s0,0.1,0,0.1c0,0,0,0,0.1,0.1c0,0,0.1,0,0.1,0c0,0,0.1,0,0.2,0l0.2,0
			c0.1,0,0.2,0,0.3,0.1c0.1,0,0.2,0.1,0.3,0.1c0.1,0,0.1,0.1,0.2,0.2c0,0.1,0,0.2,0,0.3C10.9,5.9,10.9,6.1,10.8,6.2z M13.1,6.5h-1.8
			V3.8h1.8v0.5h-1.3v0.6H13v0.5h-1.2v0.6h1.3V6.5z M15.7,5.9c-0.1,0.2-0.3,0.4-0.5,0.5c-0.2,0.1-0.4,0.1-0.7,0.1h-1V3.8h1
			c0.3,0,0.5,0,0.7,0.1c0.2,0.1,0.3,0.3,0.5,0.5c0.1,0.2,0.1,0.5,0.1,0.7C15.8,5.5,15.8,5.7,15.7,5.9z"/>
	</g>
</g>
</svg>
