<svg width="24" height="24" viewBox="0 0 24 24" fill="none" xmlns="http://www.w3.org/2000/svg">
<path fill-rule="evenodd" clip-rule="evenodd" d="M2.37416 7.50977H21.6259C21.7857 7.50977 21.8809 7.68797 21.7922 7.82087L19.1485 11.7778C19.0586 11.9123 19.0586 12.0877 19.1485 12.2222L21.7922 16.1791C21.8809 16.312 21.7857 16.4902 21.6259 16.4902H2.37417C2.21434 16.4902 2.11908 16.312 2.20787 16.1791L4.85155 12.2222C4.94142 12.0877 4.94142 11.9123 4.85155 11.7778L2.20787 7.82087C2.11908 7.68797 2.21434 7.50977 2.37416 7.50977ZM8.80534 10.3452H8.10596V12.4337C8.10596 12.5597 8.07796 12.6717 8.02197 12.7696C7.96705 12.8676 7.88899 12.9446 7.78777 13.0006C7.68762 13.0566 7.56971 13.0846 7.43404 13.0846C7.29944 13.0846 7.18153 13.0566 7.08031 13.0006C6.97909 12.9446 6.90048 12.8676 6.84449 12.7696C6.78957 12.6717 6.76211 12.5597 6.76211 12.4337V10.3452H6.06273V12.4934C6.06273 12.7346 6.1198 12.9457 6.23394 13.1266C6.34808 13.3075 6.50799 13.4486 6.71366 13.5498C6.91933 13.6499 7.15945 13.7 7.43404 13.7C7.70754 13.7 7.94713 13.6499 8.1528 13.5498C8.35847 13.4486 8.51838 13.3075 8.63252 13.1266C8.74773 12.9457 8.80534 12.7346 8.80534 12.4934V10.3452ZM11.0089 10.9929C11.1069 11.0651 11.1623 11.1663 11.1752 11.2966H11.8456C11.8423 11.0995 11.7896 10.9262 11.6873 10.7765C11.585 10.6268 11.4418 10.51 11.2576 10.426C11.0746 10.342 10.8603 10.3 10.6148 10.3C10.3736 10.3 10.1582 10.342 9.96869 10.426C9.77918 10.51 9.63004 10.6268 9.52128 10.7765C9.4136 10.9262 9.3603 11.1011 9.36138 11.3014C9.3603 11.5459 9.44052 11.7402 9.60204 11.8845C9.76356 12.0288 9.98377 12.1349 10.2627 12.2027L10.6228 12.2932C10.7435 12.3222 10.8452 12.3545 10.9281 12.3901C11.0121 12.4256 11.0756 12.4687 11.1187 12.5193C11.1629 12.5699 11.1849 12.6324 11.1849 12.7067C11.1849 12.7863 11.1607 12.8569 11.1123 12.9182C11.0638 12.9796 10.9954 13.0275 10.9071 13.062C10.8199 13.0965 10.7171 13.1137 10.5986 13.1137C10.478 13.1137 10.3698 13.0954 10.274 13.0588C10.1792 13.0211 10.1033 12.9656 10.0462 12.8924C9.99023 12.8181 9.95846 12.7255 9.95093 12.6146H9.27416C9.27954 12.8526 9.33715 13.0523 9.44698 13.2138C9.55789 13.3743 9.71188 13.4954 9.90893 13.5772C10.1071 13.6591 10.3397 13.7 10.6067 13.7C10.8759 13.7 11.1058 13.6596 11.2964 13.5789C11.4881 13.497 11.6345 13.3823 11.7357 13.2348C11.838 13.0862 11.8897 12.9107 11.8908 12.7083C11.8897 12.5704 11.8644 12.4482 11.8149 12.3416C11.7664 12.235 11.698 12.1424 11.6097 12.0638C11.5214 11.9852 11.417 11.919 11.2964 11.8651C11.1758 11.8113 11.0433 11.7682 10.899 11.7359L10.6019 11.6648C10.5297 11.6487 10.4619 11.6293 10.3983 11.6067C10.3348 11.583 10.2788 11.5556 10.2304 11.5243C10.1819 11.492 10.1437 11.4538 10.1157 11.4096C10.0888 11.3655 10.0764 11.3138 10.0785 11.2546C10.0785 11.1835 10.099 11.12 10.1399 11.064C10.1819 11.008 10.2422 10.9644 10.3208 10.9332C10.3994 10.9009 10.4958 10.8847 10.6099 10.8847C10.7779 10.8847 10.9109 10.9208 11.0089 10.9929ZM12.3612 10.3452V13.6532H14.5967V13.0765H13.0606V12.2867H14.4755V11.7101H13.0606V10.9219H14.5902V10.3452H12.3612ZM15.1462 13.6532H16.3189C16.6548 13.6532 16.9434 13.5869 17.1846 13.4545C17.4269 13.322 17.6126 13.132 17.7419 12.8843C17.8721 12.6367 17.9373 12.3405 17.9373 11.996C17.9373 11.6525 17.8721 11.3574 17.7419 11.1108C17.6126 10.8642 17.428 10.6753 17.1878 10.5439C16.9477 10.4114 16.6613 10.3452 16.3286 10.3452H15.1462V13.6532Z" fill="black"/>
<path fill-rule="evenodd" clip-rule="evenodd" d="M15.8456 13.0539H16.2898C16.4965 13.0539 16.6704 13.0173 16.8115 12.9441C16.9536 12.8698 17.0602 12.7551 17.1313 12.6C17.2035 12.4439 17.2395 12.2426 17.2395 11.996C17.2395 11.7515 17.2035 11.5518 17.1313 11.3967C17.0602 11.2417 16.9542 11.1275 16.8131 11.0543C16.6721 10.9811 16.4981 10.9445 16.2914 10.9445H15.8456V13.0539Z" fill="black"/>
</svg>
