<!-- Generated by IcoMoon.io -->
<svg version="1.1" xmlns="http://www.w3.org/2000/svg" width="32" height="32" viewBox="0 0 32 32">
<title>user-switch</title>
<path d="M23.563 10.669c0-4.126-3.343-7.469-7.469-7.469s-7.469 3.343-7.469 7.469c0 2.494 1.223 4.704 3.102 6.060-0.012 0.006-0.021 0.009-0.027 0.012-1.346 0.569-2.554 1.385-3.593 2.427-1.033 1.031-1.856 2.254-2.421 3.599-0.557 1.318-0.857 2.729-0.885 4.159-0.001 0.032 0.005 0.064 0.017 0.094s0.029 0.057 0.052 0.080c0.022 0.023 0.049 0.041 0.079 0.054s0.061 0.019 0.094 0.019h1.804c0.13 0 0.238-0.105 0.241-0.235 0.060-2.325 0.991-4.503 2.638-6.153 1.702-1.708 3.96-2.647 6.37-2.647 4.126 0 7.469-3.343 7.469-7.469zM16.094 15.849c-2.861 0-5.18-2.319-5.18-5.18s2.319-5.18 5.18-5.18c2.861 0 5.18 2.319 5.18 5.18s-2.319 5.18-5.18 5.18zM19.256 22.505h7.951c0.132 0 0.241-0.108 0.241-0.241v-1.687c0-0.132-0.108-0.241-0.241-0.241h-5.316l1.422-1.81c0.033-0.042 0.051-0.094 0.051-0.148 0-0.133-0.108-0.241-0.241-0.241h-2.187c-0.148 0-0.286 0.069-0.38 0.184l-2.063 2.623c-0.132 0.169-0.205 0.38-0.205 0.596 0.003 0.533 0.434 0.964 0.967 0.964v0zM26.485 24.433h-7.951c-0.132 0-0.241 0.108-0.241 0.241v1.687c0 0.132 0.108 0.241 0.241 0.241h5.316l-1.421 1.81c-0.033 0.042-0.051 0.094-0.051 0.148 0 0.132 0.108 0.241 0.241 0.241h2.187c0.148 0 0.286-0.069 0.38-0.184l2.063-2.623c0.132-0.169 0.205-0.379 0.205-0.596-0.003-0.533-0.434-0.964-0.967-0.964v0z"></path>
</svg>
