<!-- Generated by IcoMoon.io -->
<svg version="1.1" xmlns="http://www.w3.org/2000/svg" width="32" height="32" viewBox="0 0 32 32">
<title>user-add</title>
<path d="M21.658 20.061c0.754-0.405 1.616-0.635 2.535-0.635h0.003c0.093 0 0.137-0.112 0.068-0.174-0.956-0.857-2.047-1.55-3.23-2.049-0.012-0.006-0.025-0.009-0.037-0.016 1.934-1.405 3.192-3.687 3.192-6.263 0-4.267-3.451-7.724-7.708-7.724s-7.705 3.457-7.705 7.724c0 2.576 1.258 4.858 3.195 6.263-0.012 0.006-0.025 0.009-0.037 0.016-1.392 0.589-2.641 1.433-3.715 2.51-1.068 1.066-1.919 2.33-2.504 3.722-0.576 1.362-0.887 2.822-0.916 4.301-0.001 0.033 0.005 0.066 0.017 0.097s0.030 0.059 0.054 0.083c0.023 0.024 0.051 0.043 0.082 0.056s0.064 0.020 0.097 0.020h1.865c0.134 0 0.246-0.109 0.249-0.243 0.062-2.404 1.025-4.656 2.728-6.363 1.76-1.766 4.102-2.738 6.593-2.738 1.766 0 3.46 0.489 4.921 1.405 0.038 0.024 0.081 0.037 0.125 0.038s0.088-0.008 0.127-0.029v0zM16.485 16.28c-1.426 0-2.769-0.557-3.781-1.57-0.498-0.497-0.893-1.087-1.162-1.737s-0.406-1.347-0.405-2.050c0-1.43 0.557-2.775 1.566-3.787s2.351-1.57 3.781-1.57c1.429 0 2.769 0.557 3.781 1.57 0.498 0.497 0.893 1.087 1.162 1.737s0.406 1.347 0.405 2.050c0 1.43-0.557 2.775-1.567 3.787-1.012 1.012-2.354 1.57-3.781 1.57zM27.94 23.692h-2.616v-2.616c0-0.137-0.112-0.249-0.249-0.249h-1.744c-0.137 0-0.249 0.112-0.249 0.249v2.616h-2.616c-0.137 0-0.249 0.112-0.249 0.249v1.744c0 0.137 0.112 0.249 0.249 0.249h2.616v2.616c0 0.137 0.112 0.249 0.249 0.249h1.744c0.137 0 0.249-0.112 0.249-0.249v-2.616h2.616c0.137 0 0.249-0.112 0.249-0.249v-1.744c0-0.137-0.112-0.249-0.249-0.249z"></path>
</svg>
