<!-- Generated by IcoMoon.io -->
<svg version="1.1" xmlns="http://www.w3.org/2000/svg" width="32" height="32" viewBox="0 0 32 32">
<title>vertical-align-bottom</title>
<path d="M28.509 25.972h-25.018c-0.162 0-0.291 0.134-0.291 0.298v2.233c0 0.164 0.129 0.298 0.291 0.298h25.018c0.162 0 0.291-0.134 0.291-0.298v-2.233c0-0.164-0.129-0.298-0.291-0.298zM15.774 21.842c0.027 0.036 0.061 0.064 0.101 0.084s0.082 0.030 0.126 0.030 0.087-0.010 0.126-0.030c0.039-0.020 0.074-0.049 0.101-0.084l4.027-5.273c0.148-0.193 0.014-0.48-0.226-0.48h-2.664v-12.592c0-0.164-0.129-0.298-0.288-0.298h-2.157c-0.158 0-0.288 0.134-0.288 0.298v12.588h-2.657c-0.241 0-0.374 0.287-0.227 0.48l4.027 5.276z"></path>
</svg>
