<!-- Generated by IcoMoon.io -->
<svg version="1.1" xmlns="http://www.w3.org/2000/svg" width="32" height="32" viewBox="0 0 32 32">
<path d="M21.467 17.733l-1.933-1.933c0.244-1.178-0.061-2.183-0.917-3.017s-1.883-1.161-3.083-0.983l-1.933-1.933c0.378-0.178 0.767-0.311 1.167-0.4s0.811-0.133 1.233-0.133c1.667 0 3.083 0.583 4.25 1.75s1.75 2.583 1.75 4.25c0 0.422-0.044 0.833-0.133 1.233s-0.222 0.789-0.4 1.167zM25.733 21.933l-1.933-1.867c0.844-0.644 1.6-1.361 2.267-2.15s1.222-1.65 1.667-2.583c-1.111-2.244-2.717-4.028-4.817-5.35s-4.406-1.983-6.917-1.983c-0.644 0-1.272 0.044-1.883 0.133s-1.228 0.222-1.85 0.4l-2.067-2.067c0.933-0.378 1.883-0.661 2.85-0.85s1.95-0.283 2.95-0.283c3.044 0 5.828 0.8 8.35 2.4s4.45 3.756 5.783 6.467c0.089 0.178 0.156 0.361 0.2 0.55s0.067 0.383 0.067 0.583c0 0.2-0.017 0.394-0.050 0.583s-0.094 0.372-0.183 0.55c-0.489 1.089-1.111 2.094-1.867 3.017s-1.611 1.739-2.567 2.45zM16 25.333c-2.978 0-5.7-0.806-8.167-2.417s-4.411-3.728-5.833-6.35c-0.111-0.178-0.194-0.372-0.25-0.583s-0.083-0.428-0.083-0.65c0-0.222 0.022-0.433 0.067-0.633s0.122-0.4 0.233-0.6c0.444-0.889 0.961-1.739 1.55-2.55s1.261-1.55 2.017-2.217l-2.767-2.8c-0.244-0.267-0.361-0.583-0.35-0.95s0.139-0.672 0.383-0.917c0.244-0.244 0.556-0.367 0.933-0.367s0.689 0.122 0.933 0.367l22.667 22.667c0.244 0.244 0.372 0.55 0.383 0.917s-0.117 0.683-0.383 0.95c-0.244 0.244-0.556 0.367-0.933 0.367s-0.689-0.122-0.933-0.367l-4.667-4.6c-0.778 0.244-1.567 0.428-2.367 0.55s-1.611 0.183-2.433 0.183zM7.4 11.2c-0.644 0.578-1.233 1.211-1.767 1.9s-0.989 1.433-1.367 2.233c1.111 2.244 2.717 4.028 4.817 5.35s4.406 1.983 6.917 1.983c0.444 0 0.878-0.028 1.3-0.083s0.856-0.117 1.3-0.183l-1.2-1.267c-0.244 0.067-0.478 0.117-0.7 0.15s-0.456 0.050-0.7 0.050c-1.667 0-3.083-0.583-4.25-1.75s-1.75-2.583-1.75-4.25c0-0.244 0.017-0.478 0.050-0.7s0.083-0.456 0.15-0.7l-2.8-2.733z"></path>
</svg>
