<!-- Generated by IcoMoon.io -->
<svg version="1.1" xmlns="http://www.w3.org/2000/svg" width="32" height="32" viewBox="0 0 32 32">
<path d="M16.001 21.333c1.667 0 3.083-0.583 4.25-1.75s1.75-2.583 1.75-4.25c0-1.667-0.583-3.083-1.75-4.25s-2.583-1.75-4.25-1.75c-1.667 0-3.083 0.583-4.25 1.75s-1.75 2.583-1.75 4.25c0 1.667 0.583 3.083 1.75 4.25s2.583 1.75 4.25 1.75zM16.001 18.933c-1 0-1.85-0.35-2.55-1.050s-1.050-1.55-1.050-2.55c0-1 0.35-1.85 1.050-2.55s1.55-1.050 2.55-1.050c1 0 1.85 0.35 2.55 1.050s1.050 1.55 1.050 2.55c0 1-0.35 1.85-1.050 2.55s-1.55 1.050-2.55 1.050zM16.001 25.333c-2.978 0-5.694-0.8-8.15-2.4s-4.394-3.711-5.817-6.333c-0.111-0.2-0.194-0.406-0.25-0.617s-0.083-0.428-0.083-0.65c0-0.222 0.028-0.439 0.083-0.65s0.139-0.417 0.25-0.617c1.422-2.622 3.361-4.733 5.817-6.333s5.172-2.4 8.15-2.4c2.978 0 5.694 0.8 8.15 2.4s4.394 3.711 5.817 6.333c0.111 0.2 0.194 0.406 0.25 0.617s0.083 0.428 0.083 0.65c0 0.222-0.028 0.439-0.083 0.65s-0.139 0.417-0.25 0.617c-1.422 2.622-3.361 4.733-5.817 6.333s-5.172 2.4-8.15 2.4zM16.001 22.667c2.511 0 4.817-0.661 6.917-1.983s3.706-3.106 4.817-5.35c-1.111-2.244-2.717-4.028-4.817-5.35s-4.406-1.983-6.917-1.983c-2.511 0-4.817 0.661-6.917 1.983s-3.706 3.106-4.817 5.35c1.111 2.244 2.717 4.028 4.817 5.35s4.406 1.983 6.917 1.983z"></path>
</svg>
