<!-- Generated by IcoMoon.io -->
<svg version="1.1" xmlns="http://www.w3.org/2000/svg" width="32" height="32" viewBox="0 0 32 32">
<path d="M26.266 23.5l-9.2-17.467c-0.533-0.933-1.867-0.933-2.4 0l-9.2 17.467c-0.4 0.933 0.133 1.867 1.2 1.867h18.4c0.933 0.133 1.6-0.933 1.2-1.867zM14.933 12.567c0-0.533 0.4-0.933 0.933-0.933s0.933 0.4 0.933 0.933v5.2c0 0.533-0.4 0.933-0.933 0.933s-0.933-0.4-0.933-0.933v-5.2zM15.866 22.567c-0.667 0-1.333-0.533-1.333-1.333 0-0.667 0.533-1.333 1.333-1.333 0.667 0 1.333 0.533 1.333 1.333s-0.667 1.333-1.333 1.333z"></path>
</svg>
