<?xml version="1.0" encoding="UTF-8"?>
<svg id="Layer_1" data-name="Layer 1" xmlns="http://www.w3.org/2000/svg" xmlns:xlink="http://www.w3.org/1999/xlink" version="1.1" viewBox="0 0 25 24">
  <defs>
    <style>
      .cls-1 {
        mask: url(#mask);
      }

      .cls-2 {
        fill: #000;
      }

      .cls-2, .cls-3 {
        stroke-width: 0px;
      }

      .cls-3 {
        fill: #d9d9d9;
      }
    </style>
    <mask id="mask" x=".5" y=".2" width="24" height="24" maskUnits="userSpaceOnUse">
      <g id="mask0_16221_61177" data-name="mask0 16221 61177">
        <rect class="cls-3" x=".5" y=".2" width="24" height="24"/>
      </g>
    </mask>
  </defs>
  <g class="cls-1">
    <path class="cls-2" d="M4.8,20.8c-.5,0-.9-.2-1.3-.5s-.5-.8-.5-1.3v-10.4c0-.5.2-.9.5-1.3s.8-.5,1.3-.5h4.2v-1.7c0-.5.2-.9.5-1.3.4-.4.8-.5,1.3-.5h3.4c.5,0,.9.2,1.3.5.3.3.5.8.5,1.3v1.7h4.2c.5,0,.9.2,1.3.5.4.3.5.8.5,1.3v10.4c0,.5-.2.9-.5,1.3-.3.4-.8.5-1.3.5H4.8ZM10.5,6.8h4v-1.7c0,0,0-.1,0-.2,0,0-.1,0-.2,0h-3.4c0,0-.1,0-.2,0,0,0,0,.1,0,.2v1.7ZM20.5,15h-5.5v.8c0,.3,0,.5-.3.6-.2.2-.4.3-.6.3h-3.2c-.3,0-.5,0-.6-.3-.2-.2-.3-.4-.3-.6v-.8h-5.5v3.9c0,0,0,.1,0,.2,0,0,.1,0,.2,0h15.4c0,0,.1,0,.2,0,0,0,0-.1,0-.2v-3.9ZM11.5,15.2h2v-2h-2v2ZM4.5,13.5h5.5v-.8c0-.3,0-.5.3-.6.2-.2.4-.3.6-.3h3.2c.3,0,.5,0,.6.3.2.2.3.4.3.6v.8h5.5v-4.9c0,0,0-.1,0-.2,0,0-.1,0-.2,0H4.8c0,0-.1,0-.2,0,0,0,0,.1,0,.2v4.9Z"/>
  </g>
</svg>