<svg width="25" height="24" viewBox="0 0 25 24" fill="none" xmlns="http://www.w3.org/2000/svg">
<mask id="mask0_16221_61177" style="mask-type:alpha" maskUnits="userSpaceOnUse" x="0" y="0" width="25" height="24">
<rect x="0.799805" width="24" height="24" fill="#D9D9D9"/>
</mask>
<g mask="url(#mask0_16221_61177)">
<path d="M5.10755 20.5C4.60239 20.5 4.1748 20.325 3.8248 19.975C3.4748 19.625 3.2998 19.1974 3.2998 18.6923V8.30775C3.2998 7.80258 3.4748 7.375 3.8248 7.025C4.1748 6.675 4.60239 6.5 5.10755 6.5H9.2998V4.80775C9.2998 4.30258 9.4748 3.875 9.8248 3.525C10.1748 3.175 10.6024 3 11.1076 3H14.4921C14.9972 3 15.4248 3.175 15.7748 3.525C16.1248 3.875 16.2998 4.30258 16.2998 4.80775V6.5H20.4921C20.9972 6.5 21.4248 6.675 21.7748 7.025C22.1248 7.375 22.2998 7.80258 22.2998 8.30775V18.6923C22.2998 19.1974 22.1248 19.625 21.7748 19.975C21.4248 20.325 20.9972 20.5 20.4921 20.5H5.10755ZM10.7998 6.5H14.7998V4.80775C14.7998 4.73075 14.7677 4.66025 14.7036 4.59625C14.6396 4.53208 14.5691 4.5 14.4921 4.5H11.1076C11.0306 4.5 10.9601 4.53208 10.8961 4.59625C10.8319 4.66025 10.7998 4.73075 10.7998 4.80775V6.5ZM20.7998 14.75H15.2998V15.596C15.2998 15.8538 15.2136 16.0689 15.0411 16.2413C14.8687 16.4138 14.6536 16.5 14.3958 16.5H11.2038C10.946 16.5 10.7309 16.4138 10.5586 16.2413C10.3861 16.0689 10.2998 15.8538 10.2998 15.596V14.75H4.7998V18.6923C4.7998 18.7693 4.83189 18.8398 4.89605 18.9038C4.96005 18.9679 5.03055 19 5.10755 19H20.4921C20.5691 19 20.6396 18.9679 20.7036 18.9038C20.7677 18.8398 20.7998 18.7693 20.7998 18.6923V14.75ZM11.7998 15H13.7998V13H11.7998V15ZM4.7998 13.25H10.2998V12.404C10.2998 12.1462 10.3861 11.9311 10.5586 11.7587C10.7309 11.5862 10.946 11.5 11.2038 11.5H14.3958C14.6536 11.5 14.8687 11.5862 15.0411 11.7587C15.2136 11.9311 15.2998 12.1462 15.2998 12.404V13.25H20.7998V8.30775C20.7998 8.23075 20.7677 8.16025 20.7036 8.09625C20.6396 8.03208 20.5691 8 20.4921 8H5.10755C5.03055 8 4.96005 8.03208 4.89605 8.09625C4.83189 8.16025 4.7998 8.23075 4.7998 8.30775V13.25Z" fill="#9CA3AF"/>
</g>
</svg>
