<!-- Generated by IcoMoon.io -->
<svg version="1.1" xmlns="http://www.w3.org/2000/svg" width="32" height="32" viewBox="0 0 32 32">
<title>zoom-out</title>
<path d="M19.892 13.851h-9.715c-0.137 0-0.249 0.112-0.249 0.249v1.868c0 0.137 0.112 0.249 0.249 0.249h9.715c0.137 0 0.249-0.112 0.249-0.249v-1.868c0-0.137-0.112-0.249-0.249-0.249zM28.735 27.053l-4.546-4.546c3.802-4.636 3.537-11.505-0.81-15.849-4.608-4.611-12.094-4.611-16.721 0-4.611 4.627-4.611 12.112 0 16.721 4.344 4.347 11.212 4.611 15.849 0.81l4.546 4.546c0.1 0.087 0.258 0.087 0.342 0l1.339-1.339c0.087-0.084 0.087-0.243 0-0.342zM21.729 21.729c-3.699 3.696-9.69 3.696-13.389 0-3.696-3.699-3.696-9.69 0-13.389 3.699-3.696 9.69-3.696 13.389 0 3.696 3.699 3.696 9.69 0 13.389z"></path>
</svg>
