<!-- Generated by IcoMoon.io -->
<svg version="1.1" xmlns="http://www.w3.org/2000/svg" width="32" height="32" viewBox="0 0 32 32">
<path d="M26.8 28.267h-21.6c-0.8 0-1.467-0.667-1.467-1.467v-15.6c0-0.8 0.667-1.467 1.467-1.467s1.467 0.667 1.467 1.467v14.133h18.667v-14.133c0-0.8 0.667-1.467 1.467-1.467s1.467 0.667 1.467 1.467v15.6c0 0.8-0.667 1.467-1.467 1.467z"></path>
<path d="M29.2 12.667h-26.4c-0.8 0-1.467-0.667-1.467-1.467v-6c0-0.8 0.667-1.467 1.467-1.467h26.4c0.8 0 1.467 0.667 1.467 1.467v6c0 0.8-0.667 1.467-1.467 1.467zM4.267 9.733h23.6v-3.067h-23.6v3.067z"></path>
<path d="M18.4 17.467h-4.8c-0.8 0-1.467-0.667-1.467-1.467s0.667-1.467 1.467-1.467h4.8c0.8 0 1.467 0.667 1.467 1.467s-0.667 1.467-1.467 1.467z"></path>
</svg>
