<!-- Generated by IcoMoon.io -->
<svg version="1.1" xmlns="http://www.w3.org/2000/svg" width="32" height="32" viewBox="0 0 32 32">
<path d="M5.333 10.931c-0.589 0-1.067 0.478-1.067 1.067v13.333c0 0.589 0.478 1.067 1.067 1.067h21.333c0.589 0 1.067-0.478 1.067-1.067v-13.333c0-0.589-0.478-1.067-1.067-1.067h-21.333zM1.066 11.998c0-2.356 1.91-4.267 4.267-4.267h21.333c2.356 0 4.267 1.91 4.267 4.267v13.333c0 2.356-1.91 4.267-4.267 4.267h-21.333c-2.356 0-4.267-1.91-4.267-4.267v-13.333z"></path>
<path d="M10.316 3.65c0.8-0.8 1.885-1.25 3.017-1.25h5.333c1.132 0 2.217 0.45 3.017 1.25s1.25 1.885 1.25 3.017v21.333c0 0.884-0.716 1.6-1.6 1.6s-1.6-0.716-1.6-1.6v-21.333c0-0.283-0.112-0.554-0.312-0.754s-0.471-0.312-0.754-0.312h-5.333c-0.283 0-0.554 0.112-0.754 0.312s-0.312 0.471-0.312 0.754v21.333c0 0.884-0.716 1.6-1.6 1.6s-1.6-0.716-1.6-1.6v-21.333c0-1.132 0.45-2.217 1.25-3.017z"></path>
</svg>
