<!-- Generated by IcoMoon.io -->
<svg version="1.1" xmlns="http://www.w3.org/2000/svg" width="32" height="32" viewBox="0 0 32 32">
<path d="M25.888 25.759v1.297c0 0.083 0.016 0.166 0.048 0.242s0.079 0.147 0.138 0.205c0.059 0.059 0.129 0.105 0.206 0.137s0.159 0.048 0.243 0.047h2.428c0.168 0 0.328-0.066 0.447-0.185s0.185-0.279 0.185-0.447v-2.5c-0.401 0.403-0.881 0.718-1.41 0.925s-1.096 0.302-1.663 0.278h-0.621z"></path>
<path d="M2.384 24.519v2.537c0 0.167 0.067 0.328 0.185 0.446s0.279 0.185 0.446 0.185h2.428c0.167 0 0.328-0.066 0.446-0.185s0.185-0.279 0.185-0.446v-1.297h-0.582c-0.576 0.025-1.151-0.073-1.687-0.286s-1.020-0.539-1.421-0.953z"></path>
<path d="M2.402 21.986c0 1.789 1.245 2.832 3.091 2.832h21.014c1.843 0 3.091-1.043 3.091-2.832v-0.517h-27.195v0.517z"></path>
<path d="M29.884 10.47l-1.556-0.27c-0.124-0.022-0.252-0.001-0.363 0.059s-0.198 0.156-0.248 0.272l-0.484 1.095-0.197-0.3-1.365-3.222c-0.22-0.523-0.57-0.981-1.016-1.331s-0.974-0.581-1.534-0.671c-2.356-0.358-4.737-0.532-7.121-0.52-2.383-0.011-4.764 0.163-7.12 0.522-0.56 0.090-1.089 0.32-1.536 0.671s-0.797 0.809-1.017 1.332l-1.362 3.217-0.194 0.296-0.487-1.091c-0.050-0.116-0.137-0.212-0.248-0.272s-0.239-0.081-0.363-0.059l-1.557 0.273c-0.144 0.023-0.275 0.097-0.369 0.208s-0.146 0.252-0.146 0.398v0.306c0 0.14 0.048 0.276 0.136 0.386s0.211 0.185 0.348 0.215l2.132 0.488-1.021 1.557c-0.517 0.788-0.792 1.71-0.792 2.652v3.86h27.195v-3.86c0-0.942-0.276-1.864-0.792-2.652l-1.025-1.564 2.136-0.481c0.137-0.030 0.26-0.106 0.348-0.215s0.136-0.245 0.136-0.386v-0.306c0-0.146-0.052-0.286-0.146-0.397s-0.225-0.184-0.369-0.207zM7.189 8.471c0.157-0.378 0.409-0.709 0.73-0.962s0.703-0.419 1.107-0.483c2.308-0.35 4.639-0.521 6.973-0.51 2.334-0.011 4.666 0.16 6.973 0.51 0.404 0.064 0.785 0.23 1.106 0.483s0.573 0.584 0.73 0.961l1.049 2.474h-19.718l1.049-2.474zM5.209 17.499c-0.183-0.027-0.354-0.108-0.49-0.233s-0.232-0.288-0.275-0.468c-0.056-0.21-0.078-0.427-0.065-0.644 0.050-0.56 0.227-0.836 0.583-0.836 0 0 2.442 0.152 2.772 0.253s1.596 2.509 1.596 2.509l-4.12-0.582zM20.852 18.433l-4.881 0.279-4.822-0.272-1.23-2.608c0 0 4.332 0.377 6.081 0.377s6.082-0.377 6.082-0.377l-1.23 2.601zM27.556 16.801c-0.043 0.18-0.139 0.343-0.275 0.468s-0.307 0.206-0.49 0.233l-4.12 0.581c0 0 1.267-2.408 1.597-2.509s2.771-0.253 2.771-0.253c0.357 0 0.532 0.278 0.583 0.836 0.013 0.217-0.009 0.435-0.065 0.644z"></path>
</svg>
