<!-- Generated by IcoMoon.io -->
<svg version="1.1" xmlns="http://www.w3.org/2000/svg" width="32" height="32" viewBox="0 0 32 32">
<path d="M26.666 28.351v1.389c0 0.089 0.018 0.177 0.052 0.259s0.084 0.157 0.147 0.22c0.063 0.063 0.138 0.112 0.22 0.146s0.171 0.051 0.26 0.051h2.6c0.179 0 0.351-0.071 0.478-0.198s0.198-0.299 0.198-0.478v-2.677c-0.429 0.431-0.943 0.768-1.51 0.99s-1.173 0.323-1.781 0.298h-0.665z"></path>
<path d="M2.132 27.188v2.584c0 0.171 0.068 0.334 0.188 0.455s0.284 0.188 0.455 0.188h2.473c0.171 0 0.334-0.068 0.455-0.188s0.188-0.284 0.188-0.455v-1.321h-0.593c-0.587 0.025-1.173-0.074-1.719-0.292s-1.039-0.549-1.448-0.971z"></path>
<path d="M2.151 24.614c0 1.822 1.268 2.885 3.148 2.885h21.403c1.877 0 3.148-1.062 3.148-2.885v-0.526h-27.699v0.526z"></path>
<path d="M13.778 2.262c0.658-0.44 1.431-0.674 2.222-0.674 1.060 0.001 2.077 0.423 2.827 1.173s1.172 1.767 1.173 2.827c0 0.791-0.235 1.564-0.674 2.222-0.042 0.063-0.086 0.124-0.131 0.184 1.358 0.086 2.712 0.232 4.058 0.436 0.57 0.092 1.108 0.327 1.562 0.684s0.81 0.823 1.034 1.356l1.39 3.282 0.2 0.306 0.493-1.115c0.051-0.118 0.14-0.216 0.253-0.277s0.243-0.082 0.37-0.060l1.585 0.275c0.146 0.024 0.28 0.098 0.376 0.211s0.149 0.256 0.149 0.405v0.311c0 0.143-0.049 0.281-0.139 0.393s-0.215 0.189-0.354 0.219l-2.175 0.49 1.044 1.593c0.527 0.803 0.807 1.741 0.807 2.701v3.932h-27.698v-3.932c0-0.96 0.28-1.899 0.807-2.701l1.040-1.585-2.171-0.497c-0.14-0.031-0.265-0.108-0.354-0.219s-0.139-0.25-0.139-0.393v-0.311c0-0.148 0.052-0.292 0.149-0.405s0.229-0.188 0.376-0.212l1.586-0.278c0.127-0.022 0.257-0.001 0.37 0.060s0.202 0.159 0.253 0.277l0.497 1.111 0.197-0.301 1.387-3.277c0.225-0.533 0.581-1 1.036-1.356s0.993-0.592 1.564-0.683c1.346-0.205 2.7-0.351 4.057-0.437-0.361-0.479-0.611-1.034-0.729-1.627-0.154-0.776-0.075-1.58 0.228-2.311s0.815-1.356 1.473-1.795zM13.753 8.896c-1.625 0.072-3.245 0.23-4.855 0.475-0.412 0.065-0.8 0.235-1.127 0.492s-0.584 0.595-0.744 0.98l-1.069 2.519h20.083l-1.068-2.52c-0.16-0.384-0.416-0.721-0.744-0.979s-0.715-0.427-1.127-0.492c-1.609-0.244-3.23-0.403-4.855-0.475-0.224 0.152-0.464 0.282-0.717 0.387-0.731 0.303-1.535 0.382-2.311 0.228-0.528-0.105-1.026-0.315-1.467-0.614zM16.364 5.951h1.455c0.096 0 0.189-0.038 0.257-0.106s0.106-0.161 0.106-0.257-0.038-0.189-0.106-0.257c-0.068-0.068-0.161-0.106-0.257-0.106h-1.455v-1.455c0-0.096-0.038-0.189-0.107-0.257s-0.161-0.107-0.257-0.107c-0.096 0-0.189 0.038-0.257 0.107s-0.107 0.161-0.107 0.257v1.455h-1.455c-0.096 0-0.189 0.038-0.257 0.106s-0.107 0.161-0.107 0.257c0 0.096 0.038 0.189 0.107 0.257s0.161 0.106 0.257 0.106h1.455v1.455c0 0.096 0.038 0.189 0.107 0.257s0.161 0.106 0.257 0.106c0.096 0 0.189-0.038 0.257-0.106s0.107-0.161 0.107-0.257v-1.455zM4.51 19.801c0.139 0.127 0.313 0.21 0.499 0.237l4.197 0.592c0 0-1.29-2.452-1.626-2.556s-2.823-0.258-2.823-0.258c-0.363 0-0.542 0.281-0.594 0.852-0.013 0.221 0.009 0.443 0.067 0.656 0.043 0.183 0.141 0.349 0.28 0.476zM15.97 21.273l4.972-0.284 1.252-2.649c0 0-4.413 0.384-6.194 0.384s-6.193-0.384-6.193-0.384l1.252 2.656 4.911 0.277zM27.49 19.804c0.139-0.127 0.237-0.293 0.28-0.476 0.057-0.214 0.080-0.436 0.067-0.656-0.051-0.568-0.23-0.852-0.594-0.852 0 0-2.487 0.155-2.823 0.258s-1.627 2.556-1.627 2.556l4.197-0.592c0.186-0.027 0.36-0.11 0.499-0.237z"></path>
</svg>
