<!-- Generated by IcoMoon.io -->
<svg version="1.1" xmlns="http://www.w3.org/2000/svg" width="32" height="32" viewBox="0 0 32 32">
<path d="M21.32 5.65l0.281 0.75 0.281-0.75c0.117-0.313 0.3-0.597 0.537-0.833s0.521-0.419 0.835-0.536l0.746-0.281-0.746-0.281c-0.313-0.117-0.597-0.3-0.834-0.537s-0.419-0.521-0.536-0.834l-0.281-0.75-0.282 0.75c-0.117 0.313-0.3 0.597-0.536 0.834s-0.521 0.419-0.834 0.537l-0.75 0.281 0.75 0.281c0.313 0.117 0.597 0.3 0.834 0.536s0.419 0.52 0.536 0.833z"></path>
<path d="M25.416 7.501l0.187 0.499 0.185-0.499c0.078-0.209 0.2-0.398 0.358-0.556s0.347-0.28 0.556-0.358l0.499-0.187-0.499-0.187c-0.209-0.078-0.398-0.2-0.556-0.358s-0.28-0.347-0.358-0.556l-0.187-0.499-0.187 0.499c-0.078 0.209-0.2 0.398-0.358 0.556s-0.347 0.28-0.556 0.358l-0.5 0.187 0.5 0.187c0.209 0.078 0.399 0.2 0.557 0.357s0.28 0.347 0.359 0.556z"></path>
<path d="M28.613 5.65l0.187 0.75 0.187-0.75c0.078-0.313 0.2-0.597 0.358-0.834s0.347-0.419 0.556-0.537l0.499-0.28-0.499-0.281c-0.209-0.117-0.398-0.3-0.556-0.536s-0.28-0.521-0.358-0.834l-0.187-0.749-0.187 0.749c-0.078 0.313-0.2 0.597-0.358 0.834s-0.347 0.419-0.556 0.537l-0.5 0.281 0.5 0.28c0.208 0.118 0.398 0.301 0.556 0.537s0.28 0.52 0.358 0.833z"></path>
<path d="M26.177 28.503v1.405c0 0.090 0.015 0.179 0.044 0.263s0.072 0.159 0.126 0.222c0.054 0.064 0.118 0.114 0.189 0.148s0.146 0.052 0.223 0.051h2.23c0.154 0 0.301-0.072 0.41-0.2s0.17-0.302 0.17-0.484v-2.708c-0.368 0.436-0.809 0.777-1.295 1.002s-1.006 0.327-1.527 0.301h-0.57z"></path>
<path d="M2.43 27.2v2.716c0 0.179 0.061 0.351 0.17 0.478s0.256 0.198 0.41 0.198h2.232c0.154 0 0.301-0.071 0.41-0.198s0.17-0.299 0.17-0.478v-1.389h-0.535c-0.53 0.027-1.058-0.078-1.551-0.307s-0.938-0.577-1.306-1.021z"></path>
<path d="M2.43 24.33c0 1.812 1.243 2.869 3.084 2.869h20.971c1.839 0 3.084-1.056 3.084-2.869v-0.524h-27.139v0.524z"></path>
<path d="M29.884 12.706l-1.557-0.26c-0.124-0.021-0.252-0.001-0.363 0.057s-0.198 0.15-0.248 0.262l-0.484 1.054-0.197-0.289-1.365-3.102c-0.22-0.503-0.57-0.944-1.016-1.281s-0.974-0.56-1.534-0.646c-2.357-0.344-4.738-0.512-7.121-0.501-2.383-0.011-4.764 0.157-7.12 0.502-0.561 0.086-1.089 0.308-1.536 0.646s-0.797 0.778-1.017 1.282l-1.362 3.097-0.194 0.285-0.488-1.050c-0.050-0.112-0.137-0.204-0.248-0.262s-0.239-0.078-0.363-0.057l-1.557 0.263c-0.144 0.022-0.275 0.093-0.369 0.2s-0.146 0.243-0.146 0.383v0.294c0 0.135 0.048 0.266 0.136 0.371s0.211 0.178 0.348 0.207l2.132 0.469-1.021 1.498c-0.517 0.759-0.792 1.646-0.792 2.553v3.716h27.195v-3.716c0-0.907-0.276-1.795-0.793-2.553l-1.025-1.506 2.136-0.463c0.137-0.029 0.26-0.102 0.348-0.207s0.136-0.236 0.136-0.371v-0.294c0-0.14-0.052-0.276-0.147-0.382s-0.225-0.177-0.369-0.2zM7.189 10.782c0.157-0.364 0.409-0.682 0.73-0.926s0.703-0.404 1.107-0.465c2.308-0.337 4.639-0.501 6.974-0.491 2.334-0.010 4.666 0.154 6.974 0.491 0.404 0.062 0.785 0.222 1.106 0.465s0.573 0.562 0.73 0.925l1.049 2.382h-19.719l1.049-2.381zM5.208 19.473c-0.183-0.026-0.354-0.104-0.49-0.224s-0.232-0.277-0.275-0.45c-0.056-0.202-0.078-0.412-0.065-0.62 0.050-0.54 0.227-0.805 0.583-0.805 0 0 2.442 0.146 2.772 0.244s1.596 2.416 1.596 2.416l-4.121-0.56zM20.851 20.372l-4.881 0.269-4.822-0.262-1.23-2.511c0 0 4.332 0.363 6.081 0.363s6.082-0.363 6.082-0.363l-1.23 2.504zM27.556 18.801c-0.043 0.173-0.139 0.33-0.275 0.45s-0.307 0.198-0.49 0.224l-4.121 0.56c0 0 1.267-2.318 1.597-2.416s2.771-0.244 2.771-0.244c0.357 0 0.532 0.268 0.583 0.805 0.013 0.209-0.009 0.418-0.065 0.62z"></path>
</svg>
