<!-- Generated by IcoMoon.io -->
<svg version="1.1" xmlns="http://www.w3.org/2000/svg" width="32" height="32" viewBox="0 0 32 32">
<path d="M9 2.6c-0.221 0-0.4 0.179-0.4 0.4v26c0 0.221 0.179 0.4 0.4 0.4h14c0.221 0 0.4-0.179 0.4-0.4v-26c0-0.221-0.179-0.4-0.4-0.4h-14zM5.4 3c0-1.988 1.612-3.6 3.6-3.6h14c1.988 0 3.6 1.612 3.6 3.6v26c0 1.988-1.612 3.6-3.6 3.6h-14c-1.988 0-3.6-1.612-3.6-3.6v-26z"></path>
<path d="M13.4 27c0-0.884 0.716-1.6 1.6-1.6h2c0.884 0 1.6 0.716 1.6 1.6s-0.716 1.6-1.6 1.6h-2c-0.884 0-1.6-0.716-1.6-1.6z"></path>
<path d="M12-0.6c0.884 0 1.6 0.716 1.6 1.6v2c0 0.106 0.042 0.208 0.117 0.283s0.177 0.117 0.283 0.117h4c0.106 0 0.208-0.042 0.283-0.117s0.117-0.177 0.117-0.283v-2c0-0.884 0.716-1.6 1.6-1.6s1.6 0.716 1.6 1.6v2c0 0.955-0.379 1.87-1.054 2.546s-1.591 1.054-2.546 1.054h-4c-0.955 0-1.87-0.379-2.546-1.054s-1.054-1.591-1.054-2.546v-2c0-0.884 0.716-1.6 1.6-1.6z"></path>
</svg>
