<!-- Generated by IcoMoon.io -->
<svg version="1.1" xmlns="http://www.w3.org/2000/svg" width="32" height="32" viewBox="0 0 32 32">
<path d="M8 1.6h16c3.535 0 6.4 2.865 6.4 6.4v16c0 3.535-2.865 6.4-6.4 6.4h-16c-3.535 0-6.4-2.865-6.4-6.4v-16c0-3.535 2.865-6.4 6.4-6.4zM12.051 23.64c0.239 0.249 0.532 0.36 0.851 0.36s0.612-0.111 0.878-0.36l11.462-11.896c0.479-0.498 0.479-1.273 0-1.771s-1.223-0.498-1.702 0l-10.611 11.011-4.468-4.62c-0.479-0.498-1.223-0.498-1.702 0s-0.479 1.273 0 1.771l5.292 5.505z"></path>
</svg>
