<!-- Generated by IcoMoon.io -->
<svg version="1.1" xmlns="http://www.w3.org/2000/svg" width="32" height="32" viewBox="0 0 32 32">
<path d="M28 9.333h-24c-0.8 0-1.333-0.533-1.333-1.333s0.533-1.333 1.333-1.333h24c0.8 0 1.333 0.533 1.333 1.333s-0.533 1.333-1.333 1.333z"></path>
<path d="M22.667 30.667h-13.333c-1.067 0-2.133-0.4-2.8-1.2-0.8-0.667-1.2-1.733-1.2-2.8v-18.667c0-0.8 0.533-1.333 1.333-1.333h2.667v-1.333c0-1.067 0.4-2.133 1.2-2.8 0.667-0.8 1.733-1.2 2.8-1.2h5.333c1.067 0 2.133 0.4 2.8 1.2 0.8 0.667 1.2 1.733 1.2 2.8v1.333h2.667c0.8 0 1.333 0.533 1.333 1.333v18.667c0 1.067-0.4 2.133-1.2 2.8s-1.733 1.2-2.8 1.2zM8 9.333v17.333c0 0.4 0.133 0.667 0.4 0.933s0.533 0.4 0.933 0.4h13.333c0.4 0 0.667-0.133 0.933-0.4s0.4-0.533 0.4-0.933v-17.333h-16zM12 6.667h8v-1.333c0-0.4-0.133-0.667-0.4-0.933s-0.533-0.4-0.933-0.4h-5.333c-0.4 0-0.667 0.133-0.933 0.4s-0.4 0.533-0.4 0.933v1.333z"></path>
<path d="M13.333 24c-0.8 0-1.333-0.533-1.333-1.333v-8c0-0.8 0.533-1.333 1.333-1.333s1.333 0.533 1.333 1.333v8c0 0.8-0.533 1.333-1.333 1.333z"></path>
<path d="M18.667 24c-0.8 0-1.333-0.533-1.333-1.333v-8c0-0.8 0.533-1.333 1.333-1.333s1.333 0.533 1.333 1.333v8c0 0.8-0.533 1.333-1.333 1.333z"></path>
</svg>
