<!-- Generated by IcoMoon.io -->
<svg version="1.1" xmlns="http://www.w3.org/2000/svg" width="32" height="32" viewBox="0 0 32 32">
<path d="M27.733 18.4c-0.933 0-1.6 0.667-1.6 1.6v5.2c0 0.267-0.133 0.533-0.267 0.8-0.133 0.133-0.4 0.267-0.8 0.267h-18.267c-0.267 0-0.533-0.133-0.8-0.267-0.133-0.133-0.267-0.4-0.267-0.8v-5.2c0-0.933-0.667-1.6-1.6-1.6-0.8 0-1.6 0.667-1.6 1.6v5.2c0 1.067 0.4 2.133 1.2 2.933 0.933 0.8 2 1.2 3.067 1.2h18.267c1.067 0 2.133-0.4 2.933-1.2s1.2-1.867 1.2-2.933v-5.2c0.133-0.933-0.533-1.6-1.467-1.6z"></path>
<path d="M14.933 21.067c0.133 0.133 0.267 0.267 0.533 0.4 0.133 0.133 0.4 0.133 0.533 0.133 0 0 0 0 0 0s0 0 0 0 0 0 0 0c0.267 0 0.4 0 0.667-0.133 0.133-0.133 0.4-0.133 0.533-0.267 0 0 0 0 0 0l6.533-6.533c0.667-0.667 0.667-1.6 0-2.267s-1.6-0.667-2.267 0l-3.867 3.867v-12c0-0.933-0.8-1.6-1.6-1.6s-1.6 0.667-1.6 1.6v11.867l-3.867-3.867c-0.667-0.667-1.6-0.667-2.267 0s-0.667 1.6 0 2.267l6.667 6.533z"></path>
</svg>
