<!-- Generated by IcoMoon.io -->
<svg version="1.1" xmlns="http://www.w3.org/2000/svg" width="32" height="32" viewBox="0 0 32 32">
<path d="M23.733 16c-0.667 0-1.067 0.533-1.067 1.067v8.933c0 0.667-0.533 1.067-1.067 1.067h-15.6c-0.667 0-1.067-0.533-1.067-1.067v-15.467c0-0.667 0.4-1.2 1.067-1.2h8.933c0.533 0 1.067-0.4 1.067-1.067s-0.533-1.067-1.067-1.067h-8.933c-1.867 0-3.333 1.467-3.333 3.333v15.6c0 1.867 1.467 3.333 3.333 3.333h15.6c1.867 0 3.333-1.467 3.333-3.333v-8.933c0-0.667-0.533-1.2-1.2-1.2z"></path>
<path d="M13.067 15.067c-0.133 0.133-0.133 0.133-0.133 0.267l-0.8 4c0 0.133 0 0.4 0.133 0.533 0 0 0.133 0.133 0.133 0.133 0.133 0 0.133 0 0.267 0 0 0 0.133 0 0.133 0l3.867-0.8c0.133 0 0.267-0.133 0.267-0.133l8.8-8.8-3.867-4-8.8 8.8zM28.533 3.467c-1.067-1.067-2.8-1.067-3.867 0l-1.6 1.6 3.867 4 1.6-1.6c0.533-0.533 0.8-1.2 0.8-2s-0.267-1.467-0.8-2z"></path>
</svg>
