<!-- Generated by IcoMoon.io -->
<svg version="1.1" xmlns="http://www.w3.org/2000/svg" width="32" height="32" viewBox="0 0 32 32">
<path d="M19.6 9.067c0 0 0 0 0 0 0-0.133 0.133-0.133 0.133-0.133s0 0 0.133-0.133v0c0 0 0 0 0 0h0.133c0.133 0 0.4-0.133 0.667-0.133s0.533 0 0.667 0c0.133 0 0.133 0 0.267 0v0 0h3.2v-6.933l-1.067-0.133c-0.933-0.133-2-0.267-3.2-0.267v0 0c-2.133 0-3.733 0.4-4.933 1.2s-2.133 1.733-2.667 2.667c-0.533 0.933-0.8 2-0.933 2.667 0 0.4 0 0.667 0 0.8s0 0.133 0 0.267c0 0 0 0 0 0.133v0 2.8h-4.533v7.467h4.533v11.333h7.733v-11.333h4.267l0.8-7.467h-5.2v-2.8c0 0 0 0 0 0zM21.733 7.333v0 0c0 0 0 0 0 0zM14.4 9.067v0 0c0 0 0-0.133 0-0.133 0-0.133 0-0.4 0.133-0.667 0.133-0.533 0.267-1.2 0.667-1.867s0.933-1.333 1.733-1.733c0.8-0.533 2-0.8 3.733-0.8 0 0 0 0 0 0v0c0 0 0 0 0 0 0.667 0 1.333 0 2 0.133v2.267h-0.8c0 0 0 0 0 0v0 0 0h-0.133c0 0-0.133 0-0.267 0-0.267 0-0.533 0-0.8 0s-0.667 0.133-0.933 0.133c-0.133 0-0.267 0.133-0.533 0.133-0.133 0-0.4 0.133-0.533 0.4v0 0 0 0c-0.267 0.133-1.2 0.933-1.2 2.133v5.333h4.933l-0.267 2.533h-4.667v11.333h-2.8v-11.333h-4.8v-2.533h4.4l0.133-5.333z"></path>
</svg>
