<!-- Generated by IcoMoon.io -->
<svg version="1.1" xmlns="http://www.w3.org/2000/svg" width="32" height="32" viewBox="0 0 32 32">
<path d="M27.6 5.6h-23.2c-0.933 0-1.733 0.8-1.733 1.867v17.867c0 0.933 0.8 1.733 1.733 1.733h23.333c0.933 0 1.733-0.8 1.733-1.733v-17.867c-0.133-1.067-0.933-1.867-1.867-1.867zM27.6 7.467v12.667l-3.333-3.067c-0.533-0.533-1.333-0.4-1.733 0l-3.333 3.467-6.667-8.133c-0.533-0.667-1.467-0.8-2-0.133l-6.267 7.467v-12.267h23.333zM20.4 12c0-1.333 1.067-2.4 2.267-2.4 1.333 0 2.267 1.067 2.267 2.4s-1.067 2.4-2.267 2.4c-1.2 0-2.267-1.067-2.267-2.4v0z"></path>
</svg>
