<!-- Generated by IcoMoon.io -->
<svg version="1.1" xmlns="http://www.w3.org/2000/svg" width="32" height="32" viewBox="0 0 32 32">
<path d="M30.667 17.333c0 0.133 0 0.133-0.133 0.267-0.133 0.4-0.4 0.8-0.8 1.2-0.4 0.267-0.8 0.4-1.333 0.4-0.8 0-1.6 0-2.4 0-0.133 0-0.133 0-0.133 0.133 0 0.267 0 0.533 0 0.8-0.133 0.4-0.4 0.8-0.667 1.067-0.4 0.267-0.8 0.4-1.2 0.4-1.333 0-2.667 0-4 0-0.133 0-0.133 0-0.267 0-0.133 0.133-0.267 0.133-0.4 0.133-0.533 0-1.2 0-1.733 0-0.267 0-0.4-0.133-0.533-0.267s-0.267-0.4-0.267-0.533c0-0.267 0.133-0.4 0.267-0.533s0.4-0.267 0.533-0.267c0.667 0 1.2 0 1.867 0 0.133 0 0.267 0 0.4 0.133 0.133 0 0.133 0.133 0.267 0 1.333 0 2.533 0 3.867 0 0.533 0 0.8-0.267 0.8-0.8 0-0.133 0-0.267 0-0.4s-0.267-0.133-0.4-0.133c-0.8-0.4-1.2-1.067-1.2-2 0-1.733 0-3.467 0-5.067 0-1.2 0.8-2 1.867-2.133 0.133 0 0.267 0 0.4 0s0.133 0 0.133-0.133c0-0.667 0-1.333 0-2-0.133-1.467-0.933-2.4-2.133-3.2-0.8-0.4-1.467-0.533-2.267-0.533-4.667 0-9.333 0-14 0-1.067 0-2 0.4-2.8 0.933-0.8 0.667-1.333 1.467-1.467 2.533 0 0.267 0 0.4 0 0.667 0 3.867 0 7.6 0 11.467 0 0.933 0.267 1.867 0.933 2.667s1.467 1.2 2.4 1.467c0.4 0.133 0.667 0.133 1.067 0.133 3.733 0 7.6 0 11.333 0 0.133 0 0.267 0 0.4 0.133 0.133 0 0.267 0.133 0.267 0.267 1.2 1.2 2.4 2.267 3.6 3.467l0.133 0.133c0 0 0-0.133 0-0.133 0-0.933 0-1.867 0-2.8 0-0.133 0-0.267 0.133-0.4s0.267-0.267 0.4-0.267c0.133 0 0.267-0.133 0.533 0 0.133 0 0.267 0.133 0.4 0.267s0.133 0.267 0.133 0.533c0 1.6 0 3.2 0 4.8 0 0.133 0 0.267-0.133 0.4s-0.267 0.267-0.4 0.267c-0.4 0.133-0.667 0-0.933-0.133l-3.733-3.6c-0.4-0.267-0.667-0.667-1.067-0.933 0 0 0 0-0.133 0 0 0-0.133 0-0.133 0-3.733 0-7.333 0-11.067 0-1.733 0-3.2-0.533-4.4-1.867-0.8-0.933-1.333-2-1.467-3.2 0-0.267 0-0.533 0-0.8 0-3.733 0-7.6 0-11.333 0.133-2.8 1.333-4.533 3.467-5.733 0.8-0.4 1.733-0.533 2.533-0.533 5.067 0 10 0 15.067 0 1.867 0 2.667 0.8 3.467 1.6s1.6 2.4 1.6 3.333c0 1.6 0 1.067 0 1.6 0 0.267 0 0.533 0 0.8 0 0.133 0.8 0 0.933 0 0.4 0 0.8 0 1.2 0.267 0.667 0.4 1.067 0.933 1.067 1.6 0 0 0 0 0 0l0.133 5.867zM24.667 14.4c0 0.8 0 1.733 0 2.533 0 0.4 0.267 0.667 0.667 0.667 1.067 0 2 0 3.067 0 0.4 0 0.667-0.267 0.667-0.667 0-1.733 0-3.333 0-5.067 0-0.4-0.267-0.667-0.667-0.667h-3.067c-0.4 0-0.667 0.267-0.667 0.667v2.533z"></path>
<path d="M15.2 11.733l-3.333 0.4-0.133 0.533 0.667 0.133c0.4 0.133 0.533 0.267 0.4 0.667l-1.067 4.933c-0.267 1.333 0.133 1.867 1.2 1.867 0.8 0 1.733-0.4 2.133-0.8l0.133-0.533c-0.267 0.267-0.667 0.4-0.933 0.4-0.4 0-0.533-0.267-0.4-0.8l1.333-6.8zM15.2 8.8c0 0.4-0.133 0.8-0.4 1.067s-0.667 0.4-1.067 0.4c-0.4 0-0.8-0.133-1.067-0.4-0.133-0.4-0.267-0.8-0.267-1.067 0-0.4 0.133-0.8 0.4-1.067s0.667-0.4 1.067-0.4c0.4 0 0.8 0.133 1.067 0.4 0.133 0.267 0.267 0.667 0.267 1.067z"></path>
</svg>
