<!-- Generated by IcoMoon.io -->
<svg version="1.1" xmlns="http://www.w3.org/2000/svg" width="32" height="32" viewBox="0 0 32 32">
<path d="M18.4 21.067c-0.133 0-0.4 0-0.533 0-1.067-0.133-2.133-0.4-3.067-0.933s-1.733-1.2-2.4-2c-0.4-0.667-0.267-1.6 0.4-2.133s1.6-0.4 2 0.267c0.4 0.533 0.933 0.933 1.467 1.2s1.2 0.533 1.867 0.533c0.667 0 1.333 0 1.867-0.267 0.667-0.267 1.2-0.533 1.6-1.067l3.6-3.6c0.8-0.8 1.333-2 1.2-3.2 0-1.2-0.533-2.267-1.333-3.2-0.8-0.8-2-1.333-3.2-1.333 0 0 0 0 0 0-1.2 0-2.267 0.4-3.2 1.333l-2 2c-0.533 0.533-1.467 0.533-2 0s-0.533-1.467 0-2l2-2c1.467-1.2 3.333-2 5.333-2s3.733 0.8 5.2 2.133c1.333 1.333 2.133 3.2 2.133 5.2s-0.667 3.867-2.133 5.2l-3.6 3.6c-0.8 0.8-1.6 1.333-2.667 1.733-0.8 0.4-1.6 0.533-2.533 0.533z"></path>
<path d="M10.133 29.333c-0.133 0-0.133 0 0 0-2 0-3.867-0.8-5.2-2.133s-2.133-3.2-2.133-5.2c0-2 0.667-3.867 2.133-5.2l3.6-3.6c0.8-0.8 1.6-1.333 2.667-1.733 0.8-0.4 1.867-0.533 2.933-0.533 1.067 0.133 2.133 0.4 3.067 0.933s1.733 1.2 2.4 2.133c0.533 0.667 0.4 1.6-0.267 2-0.667 0.533-1.6 0.4-2-0.267-0.4-0.533-0.933-0.933-1.467-1.333-0.533-0.267-1.2-0.533-1.867-0.533s-1.333 0-1.867 0.267c-0.667 0.267-1.2 0.533-1.6 1.067l-3.6 3.6c-0.8 0.8-1.333 2-1.2 3.2 0 1.2 0.533 2.267 1.333 3.2 0.8 0.8 2 1.333 3.2 1.333s2.4-0.4 3.2-1.333l2-2c0.533-0.533 1.467-0.533 2 0s0.533 1.467 0 2l-2 2c-1.6 1.333-3.467 2.133-5.333 2.133z"></path>
</svg>
