<!-- Generated by IcoMoon.io -->
<svg version="1.1" xmlns="http://www.w3.org/2000/svg" width="32" height="32" viewBox="0 0 32 32">
<path d="M16.533 30.533c-0.533 0-0.933-0.267-1.2-0.667-0.667-0.933-1.333-2-2.133-2.933-3.333-4.8-7.2-10.133-7.2-15.2 0-5.733 4.667-10.533 10.533-10.533s10.533 4.667 10.533 10.533c0 5.067-3.867 10.533-7.2 15.2-0.8 1.067-1.467 2-2.133 2.933-0.267 0.4-0.667 0.667-1.2 0.667zM16.533 4c-4.133 0-7.6 3.467-7.6 7.733s3.733 9.467 6.667 13.6c0.4 0.4 0.667 0.933 0.933 1.333 0.267-0.4 0.667-0.933 0.933-1.333 2.933-4.133 6.667-9.333 6.667-13.6 0.133-4.267-3.333-7.733-7.6-7.733z"></path>
<path d="M16.533 17.2c-3.067 0-5.6-2.533-5.6-5.6s2.533-5.6 5.6-5.6 5.6 2.533 5.6 5.6-2.533 5.6-5.6 5.6zM16.533 8.933c-1.467 0-2.667 1.2-2.667 2.667s1.2 2.667 2.667 2.667c1.467 0 2.667-1.2 2.667-2.667s-1.067-2.667-2.667-2.667z"></path>
</svg>
