<!-- Generated by IcoMoon.io -->
<svg version="1.1" xmlns="http://www.w3.org/2000/svg" width="32" height="32" viewBox="0 0 32 32">
<path d="M6.667 16.269c-0.589 0-1.067 0.477-1.067 1.067v9.333c0 0.589 0.478 1.067 1.067 1.067h18.667c0.589 0 1.067-0.477 1.067-1.067v-9.333c0-0.589-0.478-1.067-1.067-1.067h-18.667zM2.4 17.335c0-2.356 1.91-4.267 4.267-4.267h18.667c2.356 0 4.267 1.91 4.267 4.267v9.333c0 2.356-1.91 4.267-4.267 4.267h-18.667c-2.356 0-4.267-1.91-4.267-4.267v-9.333z"></path>
<path d="M16 4.269c-1.344 0-2.633 0.534-3.583 1.484s-1.484 2.239-1.484 3.583v5.333c0 0.884-0.716 1.6-1.6 1.6s-1.6-0.716-1.6-1.6v-5.333c0-2.192 0.871-4.295 2.421-5.845s3.653-2.421 5.845-2.421c2.192 0 4.295 0.871 5.845 2.421s2.421 3.653 2.421 5.845v5.333c0 0.884-0.716 1.6-1.6 1.6s-1.6-0.716-1.6-1.6v-5.333c0-1.344-0.534-2.633-1.484-3.583s-2.239-1.484-3.583-1.484z"></path>
</svg>
