<!-- Generated by IcoMoon.io -->
<svg version="1.1" xmlns="http://www.w3.org/2000/svg" width="32" height="32" viewBox="0 0 32 32">
<path d="M7.333 4.133v4.133h4.533v-4.133h-4.533zM7.333 11.067v9.2c0.267-0.133 0.533-0.133 0.8-0.267 1.2-0.267 2.533-0.4 3.733-0.4v-8.533h-4.533zM25.6 4.133h-11.067v4.133h8c0.933 0 1.733 0.8 1.733 1.6v2.133c1.867 1.333 3.467 2.933 4.667 4.933v-9.6c-0.267-1.733-1.6-3.2-3.333-3.2zM14.4 10.933v4.667c4.4 0.4 8.133 3.333 9.733 7.333 1.2 0.133 2.4 0.533 3.467 0.933 0.533 0.267 1.067 0.4 1.467 0.8-0.8-7.467-6.933-13.2-14.667-13.733z"></path>
<path d="M30.667 26.8c0-0.133-0.267-0.4-0.267-0.4-0.267-0.4-0.533-0.667-0.933-0.933-0.133 0-0.133-0.133-0.267-0.133-0.933-0.667-2.133-0.667-3.2-0.267-0.267 0.133-0.533 0.267-0.8 0.4s-0.4 0.4-0.533 0.533c-0.267 0.267-0.533 0.933-0.533 1.467-0.267-0.933 0-1.733 0.667-2.267 0.667-0.667 1.6-0.933 2.4-0.933-0.133 0-0.4-0.133-0.533-0.133-0.4-0.133-0.933-0.133-1.333-0.267-0.267-0.133-0.533-0.133-0.933-0.133-0.667-0.133-1.333-0.267-2-0.267-0.267 0-0.667-0.133-0.933-0.133-0.133 0-0.267 0-0.533 0-0.4 0-0.933-0.133-1.2 0.133 0 0-0.933 0-1.867 0 0 0 1.333 0 1.333-0.667 0-0.133-0.667-0.533-0.933-0.667-0.133-0.133-0.267-0.133-0.4-0.267-0.267-0.133-0.4-0.267-0.667-0.4-0.667-0.267-1.467-0.667-2.133-0.8-1.067-0.267-2.267-0.4-3.333-0.4-0.667 0-1.2 0-1.867 0.133 0 0-1.467 0.133-2.8 0.667-0.4 0.133-0.8 0.4-1.2 0.667 0 0 0.4 0 1.2 0.133 2 0.267 6.133 0.667 8.133 1.6-0.933-0.133-1.867-0.4-2.667-0.4-1.733-0.267-3.6-0.267-5.467-0.4 0 0-0.133 0-0.133 0-1.467-0.133-2.933-0.267-4.4-0.533-0.533-0.133-0.933-0.133-1.467-0.267 0.4 0.133 1.067 0 1.467 0 1.6-0.267 2.933-0.8 4.533-1.2 0.267-0.133 0.533-0.133 0.8-0.267 1.467-0.667 2.8-0.8 4-0.8 0.533 0 1.067 0.133 1.6 0.133 2 0.267 3.867 1.067 5.6 2 0.667 0.267 1.333 0.667 1.867 0.933 0.133 0 0.267 0 0.267 0s0.133 0 0.133 0c0.4 0 0.8 0 1.2 0.133 0.533 0 1.067 0.133 1.6 0.267 1.2 0.133 2.4 0.533 3.467 0.933 0.533 0.267 1.067 0.4 1.467 0.8 0.667 0.4 1.2 1.067 1.467 1.867 0.133 0 0.133 0.133 0.133 0.133z"></path>
<path d="M8.4 23.6c-0.667 0-1.2 0.133-1.867 0.4 0.4 0 0.933 0 1.2 0.133 0 0 0 0 0.133 0s0.4 0 0.533 0c2.133 0 4 1.6 4.267 3.733v0c0-2.4-2-4.267-4.267-4.267z"></path>
<path d="M29.2 27.467c0 0.133 0 0.267 0 0.4h-0.133c0-0.133 0-0.133 0-0.267 0-0.267-0.133-0.533-0.267-0.8s-0.4-0.4-0.667-0.533c-0.267-0.133-0.533-0.133-0.8-0.133s-0.533 0.133-0.8 0.267c-0.267 0.133-0.4 0.4-0.533 0.667s-0.133 0.4-0.133 0.667h-0.267c0-0.133 0-0.267 0-0.4 0 0 0 0 0-0.133 0 0 0 0 0 0s0-0.133 0-0.133c0 0 0-0.133 0-0.133s0 0 0 0 0-0.133 0-0.133 0-0.133 0.133-0.267c0 0 0-0.133 0-0.133s0-0.133 0-0.133c0 0 0.133-0.133 0.133-0.133s0 0 0 0 0.133-0.133 0.133-0.133c0 0 0 0 0 0s0 0 0 0 0.133-0.133 0.133-0.133c0 0 0 0 0.133 0s0.133-0.133 0.267-0.133c0 0 0.133 0 0.133 0 0.133 0 0.267 0 0.4-0.133 0 0 0.133 0 0.133 0s0.133 0 0.133 0v0c0 0 0.133 0 0.133 0s0.133 0 0.133 0 0.133 0 0.267 0c0 0 0.133 0 0.133 0s0.133 0 0.133 0c0 0 0 0 0.133 0 0 0 0.133 0 0.133 0s0.133 0.133 0.133 0.133c0.133 0 0.133 0.133 0.133 0.133s0.133 0.133 0.133 0.133c0 0.133 0.133 0.133 0.133 0.267 0 0 0 0.133 0 0.133s0 0 0 0.133 0.133 0.267 0.133 0.4 0.133 0.267 0.133 0.533c0-0.133 0-0.133 0 0z"></path>
<path d="M10.933 27.333c0 0.133 0 0.267 0 0.533h-0.133c0-0.133 0-0.267 0-0.4 0-0.4-0.133-0.667-0.4-0.933s-0.533-0.533-0.8-0.667c-0.267-0.133-0.667-0.133-1.067-0.133s-0.667 0.133-0.933 0.4c-0.267 0.267-0.533 0.533-0.667 0.8s-0.267 0.533-0.267 0.8h-0.4c0-0.133 0-0.4 0-0.533 0 0 0-0.133 0-0.133s0 0 0 0 0-0.133 0-0.133c0 0 0-0.133 0-0.133s0 0 0 0 0-0.133 0-0.133 0-0.133 0.133-0.267c0 0 0-0.133 0.133-0.133 0 0 0-0.133 0.133-0.133 0-0.133 0-0.133 0-0.267 0 0 0 0 0 0s0.133-0.133 0.133-0.133c0 0 0 0 0.133-0.133 0 0 0 0 0.133-0.133 0.133 0 0.133-0.133 0.267-0.133 0 0 0.133 0 0.133-0.133 0.133 0 0.133-0.133 0.267-0.133 0 0 0.133 0 0.133 0 0.133 0 0.267-0.133 0.4-0.133 0 0 0.133 0 0.133 0s0.133 0 0.133 0v0c0 0 0.133 0 0.133 0s0.133 0 0.133 0 0.267 0 0.267 0c0 0 0.133 0 0.133 0s0.133 0 0.133 0c0 0 0.133 0 0.133 0s0.133 0 0.133 0.133c0.133 0 0.133 0.133 0.267 0.133 0.133 0.133 0.133 0.133 0.267 0.267 0 0 0.133 0.133 0.133 0.133 0.133 0.133 0.133 0.133 0.267 0.267 0 0 0 0.133 0.133 0.133 0 0 0 0.133 0 0.133 0 0.133 0.133 0.267 0.133 0.4s0 0.133 0 0.267c0.133 0.4 0.133 0.533 0.133 0.533z"></path>
</svg>
