<!-- Generated by IcoMoon.io -->
<svg version="1.1" xmlns="http://www.w3.org/2000/svg" width="32" height="32" viewBox="0 0 32 32">
<path d="M2.667 15.067c0.133-0.133 0.133-0.267 0.267-0.533 0.533-0.533 1.2-0.533 1.733 0 0.933 1.067 1.733 2.267 2.667 3.333 0.667 0.8 1.2 1.6 1.867 2.4 0.133 0.133 0.133 0.133 0.267 0 2.933-4.267 6-8.533 8.933-12.667 0.4-0.667 1.067-0.8 1.6-0.4s0.667 1.2 0.267 1.733c-1.067 1.6-2.133 3.067-3.2 4.667l-6.667 9.467c-0.533 0.8-1.333 0.8-1.867 0-1.867-2.267-3.6-4.667-5.467-6.933-0.267-0.133-0.267-0.267-0.4-0.533v-0.533z"></path>
<path d="M19.333 21.333c-0.8 0-1.467 0-2.267 0-0.667 0-1.067-0.533-1.067-1.067 0-0.667 0.4-1.2 1.067-1.2 1.467 0 3.067 0 4.533 0 0.667 0 1.067 0.533 1.067 1.2s-0.533 1.067-1.067 1.2c-0.8-0.133-1.6-0.133-2.267-0.133z"></path>
<path d="M22.667 14.133c0.8 0 1.467 0 2.267 0 0.667 0 1.067 0.533 1.067 1.067 0 0.667-0.4 1.2-1.067 1.2-1.467 0-3.067 0-4.533 0-0.667 0-1.067-0.533-1.067-1.2s0.533-1.067 1.067-1.2c0.8 0.133 1.467 0.133 2.267 0.133z"></path>
<path d="M26 11.733c-0.667 0-1.467 0-2.133 0-0.533 0-0.933-0.267-1.067-0.8 0-0.267 0-0.533 0-0.667 0.133-0.267 0.267-0.4 0.4-0.533 0.133-0.267 0.4-0.4 0.533-0.4 1.467 0 2.933 0 4.4 0 0.533 0 1.067 0.4 1.067 0.933 0 0.267 0 0.533-0.133 0.8s-0.4 0.4-0.667 0.533c-0.133 0-0.4 0.133-0.533 0-0.533 0.133-1.2 0.133-1.867 0.133z"></path>
</svg>
