<!-- Generated by IcoMoon.io -->
<svg version="1.1" xmlns="http://www.w3.org/2000/svg" width="32" height="32" viewBox="0 0 32 32">
<path d="M25.6 30.667c-0.133 0-0.267 0-0.4 0-4.133-0.4-8.133-1.867-11.6-4.133-3.2-2-6-4.8-8.133-8.133-2.267-3.467-3.733-7.467-4.133-11.6 0-0.533 0-1.067 0.133-1.6s0.4-0.933 0.8-1.333c0.4-0.4 0.8-0.667 1.333-0.933s1.067-0.4 1.6-0.4h3.867c0.933 0 1.867 0.267 2.533 0.933s1.2 1.467 1.333 2.4c0.133 1.2 0.4 2.267 0.8 3.333 0.267 0.667 0.267 1.467 0.133 2.133s-0.533 1.333-1.067 1.867l-0.933 0.933c1.467 2.4 3.467 4.4 5.867 5.867l0.933-0.933c0.533-0.533 1.2-0.933 1.867-1.067s1.467-0.133 2.133 0.133c1.067 0.4 2.133 0.667 3.333 0.8 0.933 0.133 1.733 0.667 2.4 1.333s0.933 1.6 0.933 2.533v3.867c0 0.533-0.133 1.067-0.267 1.6-0.267 0.533-0.533 0.933-0.933 1.333s-0.8 0.667-1.333 0.8c-0.4 0.267-0.8 0.267-1.2 0.267zM9.067 5.2c0 0 0 0 0 0h-3.867c-0.133 0-0.4 0-0.533 0.133-0.133 0-0.267 0.133-0.4 0.267s-0.267 0.267-0.267 0.4c0 0.133-0.133 0.4 0 0.533 0.4 3.733 1.733 7.333 3.733 10.533 1.867 2.933 4.4 5.467 7.333 7.333 3.2 2 6.8 3.333 10.533 3.733 0.133 0 0.267 0 0.533 0 0.133 0 0.267-0.133 0.4-0.267s0.267-0.267 0.267-0.4c0.133-0.133 0.133-0.4 0.133-0.533v-3.867c0 0 0 0 0 0 0-0.267-0.133-0.667-0.267-0.8-0.267-0.267-0.533-0.4-0.8-0.4-1.333-0.133-2.667-0.533-3.867-0.933-0.267-0.133-0.533-0.133-0.667 0-0.267 0-0.4 0.133-0.667 0.4l-1.733 1.333c-0.4 0.4-1.067 0.533-1.6 0.267-3.467-2-6.267-4.8-8.133-8.133-0.267-0.667-0.267-1.333 0.133-1.733l1.6-1.6c0.133-0.133 0.267-0.4 0.4-0.667 0-0.267 0-0.533 0-0.667-0.533-1.2-0.8-2.533-1.067-3.867 0-0.267-0.133-0.533-0.4-0.8s-0.533-0.267-0.8-0.267zM24.267 14c-0.667 0-1.2-0.4-1.2-1.067-0.133-1.067-0.667-1.867-1.467-2.667-0.667-0.667-1.6-1.2-2.667-1.467-0.667-0.133-1.2-0.8-1.067-1.467s0.8-1.2 1.467-1.067c1.467 0.267 2.933 1.067 4 2.133s1.867 2.4 2.133 4c0.133 0.667-0.267 1.333-1.067 1.467 0 0.133 0 0.133-0.133 0.133zM29.333 14c-0.667 0-1.2-0.533-1.333-1.2-0.267-2.267-1.333-4.533-2.933-6.133s-3.867-2.667-6.133-2.933c-0.667-0.133-1.2-0.667-1.067-1.467 0.133-0.533 0.8-1.067 1.467-0.933 2.933 0.267 5.6 1.6 7.6 3.733 2 2 3.333 4.8 3.733 7.6 0.133 0.667-0.4 1.333-1.067 1.467-0.133-0.133-0.133-0.133-0.267-0.133z"></path>
</svg>
