<!-- Generated by IcoMoon.io -->
<svg version="1.1" xmlns="http://www.w3.org/2000/svg" width="32" height="32" viewBox="0 0 32 32">
<path d="M29.275 3.919l0.878-0.879c0.329-0.33 0.329-0.864-0-1.193s-0.864-0.329-1.193 0l-0.878 0.878c0.213 0.184 0.419 0.376 0.618 0.575s0.391 0.405 0.575 0.618zM15.908 12.344c0.376-0.376 0.376-0.987 0-1.363s-0.987-0.376-1.363 0-0.376 0.987 0 1.363c0.376 0.376 0.987 0.376 1.363 0zM14.545 21.206c-0.376 0.376-0.376 0.987 0 1.363s0.987 0.376 1.363 0c0.376-0.376 0.376-0.987 0-1.363s-0.987-0.376-1.363 0z"></path>
<path d="M25.449 7.745c0.493 0.992 0.327 2.228-0.5 3.055-1.036 1.036-2.715 1.036-3.75 0s-1.036-2.715 0-3.75c0.827-0.827 2.065-0.993 3.057-0.498l2.627-2.628c-3.882-3.277-9.693-3.087-13.351 0.571l-11.686 11.686c-0.329 0.33-0.329 0.864 0 1.193l12.78 12.78c0.329 0.329 0.864 0.33 1.193 0l11.686-11.686c3.657-3.657 3.847-9.468 0.572-13.35l-2.628 2.629zM13.352 9.788c1.034-1.034 2.716-1.034 3.749 0s1.034 2.716 0 3.749c-1.034 1.034-2.716 1.034-3.749 0s-1.034-2.716 0-3.749zM17.101 23.762c-1.034 1.034-2.716 1.034-3.749 0s-1.034-2.716 0-3.749c1.034-1.034 2.716-1.034 3.749 0s1.034 2.716 0 3.749zM21.071 16.974l-11.503 1.278c-0.439 0.049-0.878-0.258-0.932-0.745-0.051-0.463 0.282-0.88 0.745-0.932l11.503-1.278c0.463-0.051 0.88 0.282 0.932 0.745s-0.282 0.88-0.745 0.932z"></path>
</svg>
