<!-- Generated by IcoMoon.io -->
<svg version="1.1" xmlns="http://www.w3.org/2000/svg" width="32" height="32" viewBox="0 0 32 32">
<path d="M14.72 30.4v-2.56c-2.72-0.32-5.12-1.44-7.040-3.36s-3.040-4.32-3.36-7.040h-2.72v-2.72h2.56c0.32-2.72 1.44-5.12 3.52-7.040 1.92-2.080 4.32-3.2 7.040-3.52v-2.56h2.56v2.56c2.72 0.32 5.12 1.44 7.040 3.36s3.040 4.32 3.36 7.040h2.72v2.56h-2.56c-0.32 2.72-1.44 5.12-3.36 7.040s-4.32 3.040-7.040 3.36v2.88h-2.72zM16 25.28c2.56 0 4.64-0.96 6.56-2.72 1.76-1.76 2.72-4 2.72-6.56s-0.96-4.64-2.72-6.56c-1.76-1.76-4-2.72-6.56-2.72s-4.64 0.96-6.56 2.72c-1.76 1.92-2.72 4-2.72 6.56s0.96 4.64 2.72 6.56c1.92 1.76 4 2.72 6.56 2.72z"></path>
<path d="M23.2 16c0 3.976-3.224 7.2-7.2 7.2s-7.2-3.224-7.2-7.2c0-3.976 3.224-7.2 7.2-7.2s7.2 3.224 7.2 7.2z"></path>
</svg>
