<!-- Generated by IcoMoon.io -->
<svg version="1.1" xmlns="http://www.w3.org/2000/svg" width="32" height="32" viewBox="0 0 32 32">
<path d="M9 5.2c-1.436 0-2.6 1.164-2.6 2.6s1.164 2.6 2.6 2.6c1.436 0 2.6-1.164 2.6-2.6s-1.164-2.6-2.6-2.6zM3.2 7.8c0-3.203 2.597-5.8 5.8-5.8s5.8 2.597 5.8 5.8c0 3.203-2.597 5.8-5.8 5.8s-5.8-2.597-5.8-5.8z"></path>
<path d="M9 10.4c0.884 0 1.6 0.716 1.6 1.6v16.8c0 0.884-0.716 1.6-1.6 1.6s-1.6-0.716-1.6-1.6v-16.8c0-0.884 0.716-1.6 1.6-1.6z"></path>
<path d="M23 27.2c-1.436 0-2.6-1.164-2.6-2.6s1.164-2.6 2.6-2.6c1.436 0 2.6 1.164 2.6 2.6s-1.164 2.6-2.6 2.6zM17.2 24.6c0 3.203 2.597 5.8 5.8 5.8s5.8-2.597 5.8-5.8c0-3.203-2.597-5.8-5.8-5.8s-5.8 2.597-5.8 5.8z"></path>
<path d="M23 22c0.884 0 1.6-0.716 1.6-1.6v-16.8c0-0.884-0.716-1.6-1.6-1.6s-1.6 0.716-1.6 1.6v16.8c0 0.884 0.716 1.6 1.6 1.6z"></path>
</svg>
