<!-- Generated by IcoMoon.io -->
<svg version="1.1" xmlns="http://www.w3.org/2000/svg" width="32" height="32" viewBox="0 0 32 32">
<path d="M20.8 11.333c0-3.867 0-4-0.133-4.133-0.267-0.4-0.8-0.533-1.2-0.533-0.133 0-0.267 0.133-0.4 0.133-0.133 0.267-1.733 1.2-3.6 2.4l-3.333 2.267h-2.4c-2.267 0-2.4 0-2.533 0.133-0.533 0.4-0.533 0.4-0.533 4.533s0 4.133 0.533 4.533c0.267 0.133 0.267 0.133 2.533 0.267h2.4l0.133 0.133 1.6-1.867v-6l4.8-3.2v3.867l2.133-2.533zM11.467 18.533h-2.4v-4.8h2.4v4.8zM20.8 17.333l-2.4 2.667v2.133l-1.2-0.8-1.6 1.867c1.867 1.2 3.467 2.267 3.6 2.4 0.267 0.133 0.8 0.133 1.067-0.133 0.667-0.4 0.533 0.267 0.533-8.133z"></path>
<path d="M9.467 27.2c-0.533-0.533-0.533-1.333-0.133-1.867l15.6-17.6c0.533-0.533 1.333-0.667 1.867-0.133s0.533 1.333 0.133 1.867l-15.6 17.6c-0.4 0.667-1.333 0.667-1.867 0.133z"></path>
</svg>
