<!-- Generated by IcoMoon.io -->
<svg version="1.1" xmlns="http://www.w3.org/2000/svg" width="32" height="32" viewBox="0 0 32 32">
<path d="M23.333 6.8c-0.533 0.267-0.8 0.933-0.533 1.467 0 0.133 0.4 0.533 0.667 0.8 1.467 1.6 2.4 3.467 2.8 5.6 0.133 1.067 0.133 2.667 0 3.6-0.4 1.867-1.333 3.6-2.4 4.667-0.667 0.8-0.8 1.333-0.267 1.867 0.267 0.267 0.8 0.4 0.933 0.4 0.4-0.133 0.533-0.267 1.067-0.8 1.467-1.733 2.267-3.6 2.8-5.867 0.133-0.8 0.133-1.067 0.133-2.533s0-1.733-0.133-2.4c-0.533-2.267-1.467-4.267-2.933-5.867-0.8-0.8-1.067-1.067-1.467-1.067-0.267 0-0.4 0-0.667 0.133z"></path>
<path d="M16 7.067c-0.133 0-0.267 0.133-0.4 0.133-0.133 0.133-1.6 1.067-3.467 2.267l-3.067 2.267h-2.267c-2.133 0-2.267 0-2.4 0.133-0.533 0.4-0.533 0.267-0.533 4.4s0 4 0.533 4.4c0.267 0.133 0.267 0.133 2.4 0.133h2.267l3.333 2.133c1.867 1.2 3.333 2.267 3.467 2.267 0.267 0.133 0.8 0.133 1.067-0.133 0.533-0.4 0.533 0.267 0.533-9.067 0-8.4 0-8.4-0.133-8.533-0.4-0.267-0.8-0.533-1.333-0.4zM15.067 19.2v2.933l-2.267-1.467-2.133-1.6v-5.6l4.533-2.933v2.933c-0.133 1.467-0.133 4.133-0.133 5.733zM8.4 16.267v2.267h-2.267v-4.533h2.267v2.267z"></path>
<path d="M20.4 10.133c-0.8 0.4-0.933 1.333-0.4 2 0.533 0.4 0.933 1.2 1.2 1.6 0.933 2 0.667 4.667-0.667 6.267-0.267 0.4-0.533 0.933-0.4 1.2 0.133 0.8 1.067 1.2 1.733 0.8 0.133-0.133 0.267-0.133 0.267-0.267 0 0 0.133-0.267 0.4-0.667 1.6-2.267 2-5.333 0.933-8-0.667-1.467-2-3.067-2.667-3.067-0.133 0-0.267 0-0.4 0.133z"></path>
</svg>
