<!-- Generated by IcoMoon.io -->
<svg version="1.1" xmlns="http://www.w3.org/2000/svg" width="32" height="32" viewBox="0 0 32 32">
<path d="M22.803 17.658l-2.777-1.545-3.339 14.288h7.543v-10.277c0-0.504-0.132-0.999-0.383-1.433s-0.611-0.79-1.043-1.032zM11.886 5.112c0-0.695-0.201-1.374-0.578-1.951s-0.912-1.028-1.539-1.294c-0.627-0.266-1.316-0.335-1.981-0.2s-1.276 0.47-1.755 0.961c-0.479 0.491-0.806 1.117-0.938 1.798s-0.064 1.387 0.195 2.029c0.26 0.642 0.699 1.19 1.263 1.576s1.227 0.592 1.905 0.592c0.726-0.008 1.43-0.254 2.009-0.702 0.312-0.654 0.732-1.248 1.241-1.756 0.115-0.339 0.175-0.695 0.178-1.054z"></path>
<path d="M16.001 15.649c2.651 0 4.8-2.201 4.8-4.917s-2.149-4.917-4.8-4.917c-2.651 0-4.8 2.201-4.8 4.917s2.149 4.917 4.8 4.917z"></path>
<path d="M26.971 5.112c0-0.931-0.361-1.825-1.004-2.483s-1.515-1.029-2.424-1.029c-0.909 0-1.781 0.37-2.424 1.029s-1.004 1.552-1.004 2.483c0 0.368 0.060 0.734 0.178 1.082 0.507 0.499 0.927 1.084 1.241 1.728 0.579 0.449 1.283 0.695 2.009 0.702 0.45 0 0.896-0.091 1.312-0.267s0.794-0.435 1.112-0.761c0.318-0.326 0.571-0.713 0.743-1.139s0.261-0.883 0.261-1.344zM9.829 10.732c0.001-0.313 0.026-0.625 0.075-0.934-0.468 0.152-0.956 0.23-1.447 0.232-0.98 0.001-1.938-0.305-2.743-0.878l-2.331 0.878c-0.526 0.201-0.979 0.563-1.298 1.037s-0.488 1.036-0.485 1.611v9.996h4.8v-2.55c0.001-0.756 0.201-1.499 0.579-2.149s0.919-1.184 1.568-1.546l2.791-1.566c-0.97-1.147-1.506-2.613-1.509-4.13zM28.617 10.029l-2.331-0.878c-0.805 0.573-1.763 0.879-2.743 0.878-0.491-0.002-0.979-0.080-1.447-0.232 0.049 0.309 0.075 0.621 0.075 0.934-0.003 1.518-0.538 2.984-1.508 4.13l2.791 1.566c0.648 0.362 1.19 0.896 1.568 1.546s0.578 1.392 0.579 2.149v2.55h4.8v-9.996c0.003-0.575-0.166-1.138-0.485-1.611s-0.772-0.836-1.298-1.037zM16.686 18.459v5.957l-0.686 2.95-0.686-2.95v-5.957c0-0.186 0.072-0.365 0.201-0.497s0.303-0.206 0.485-0.206c0.182 0 0.356 0.074 0.485 0.206s0.201 0.31 0.201 0.497z"></path>
<path d="M16.686 18.459v5.957l-0.686 2.95-0.686-2.95v-5.957c0-0.186 0.072-0.365 0.201-0.497s0.303-0.206 0.485-0.206c0.182 0 0.356 0.074 0.485 0.206s0.201 0.31 0.201 0.497zM9.198 17.658c-0.432 0.242-0.792 0.599-1.043 1.032s-0.383 0.929-0.383 1.433v10.277h7.543l-3.339-14.288-2.777 1.545z"></path>
</svg>
