<!-- Generated by IcoMoon.io -->
<svg version="1.1" xmlns="http://www.w3.org/2000/svg" width="32" height="32" viewBox="0 0 32 32">
<path d="M24.133 30.667c-0.267 0-0.4 0-0.667-0.133l-7.467-4.133-7.467 4.133c-0.267 0.133-0.533 0.133-0.8 0.133s-0.533-0.133-0.8-0.267c-0.267-0.133-0.4-0.4-0.533-0.667s-0.133-0.533-0.133-0.8l1.467-8.8-6.133-6.133c0-0.267-0.133-0.533-0.267-0.8s0-0.533 0-0.8c0.133-0.267 0.267-0.533 0.4-0.667s0.4-0.267 0.667-0.4l8.4-1.333 3.733-8c0.133-0.267 0.267-0.4 0.533-0.667 0.4 0.133 0.667 0 0.933 0s0.533 0.133 0.8 0.267c0.267 0.133 0.4 0.4 0.533 0.667l3.733 8 8.4 1.333c0.267 0 0.533 0.133 0.667 0.4 0.267 0.133 0.4 0.4 0.4 0.667 0.133 0 0.133 0.267 0.133 0.533s-0.133 0.533-0.4 0.667l-6.133 6.133 1.467 8.8c0 0.267 0 0.4 0 0.667s-0.133 0.4-0.267 0.533c-0.133 0.133-0.267 0.267-0.533 0.4-0.267 0.267-0.4 0.267-0.667 0.267z"></path>
</svg>
