<!-- Generated by IcoMoon.io -->
<svg version="1.1" xmlns="http://www.w3.org/2000/svg" width="32" height="32" viewBox="0 0 32 32">
<path d="M30.533 4.267l-4.667 23.333c0 0-0.667 1.6-2.4 0.8l-10.667-8.267c1.333-1.2 12.667-11.333 13.2-11.867 0.8-0.667 0.267-1.067-0.533-0.533l-16 10.133-0.533 0.267-6.4-2.133c0 0-1.067-0.4-1.067-1.067-0.133-0.8 1.2-1.2 1.2-1.2l26-10.267c-0.267 0.133 1.867-0.8 1.867 0.8z"></path>
<path d="M16.933 24l-4.533 4.133c0 0-0.4 0.267-0.8 0.133l0.933-7.6 4.4 3.333z"></path>
</svg>
