<!-- Generated by IcoMoon.io -->
<svg version="1.1" xmlns="http://www.w3.org/2000/svg" width="32" height="32" viewBox="0 0 32 32">
<path d="M15.2 2c0-0.4 0.4-0.8 0.8-0.8h5.6c0.4 0 0.8 0.4 0.8 0.8 0 1.867 0.8 3.6 2 4.933 1.333 1.333 3.067 2 4.933 2 0.4 0 0.8 0.4 0.8 0.8v5.6c0 0.4-0.4 0.8-0.8 0.8-2.4 0-4.933-0.667-7.067-1.867v5.733c0 0 0 0 0 0 0 2-0.533 3.867-1.6 5.6-1.067 1.6-2.533 2.933-4.4 3.867-1.6 0.8-3.6 1.067-5.6 0.8s-3.867-1.067-5.333-2.267c-1.467-1.333-2.667-2.933-3.2-4.8s-0.667-3.867-0.133-5.867c0.533-1.867 1.6-3.6 2.933-4.933 1.467-1.333 3.2-2.267 5.2-2.533 0.267 0 0.533 0 0.667 0.133 0.267 0.133 0.4 0.4 0.4 0.667v5.867c0 0.267-0.133 0.667-0.533 0.8-0.533 0.267-0.933 0.667-1.2 1.067s-0.533 0.933-0.533 1.6c0 0.533 0.133 1.067 0.4 1.6s0.667 0.933 1.067 1.2c0.533 0.267 1.067 0.4 1.6 0.533 0.533 0 1.067-0.133 1.6-0.4s0.933-0.667 1.2-1.067c0.267-0.533 0.4-1.067 0.4-1.6v0-18.267zM16.8 2.933v17.067c0 0.8-0.267 1.733-0.667 2.4-0.4 0.8-1.067 1.333-1.867 1.733s-1.6 0.667-2.4 0.533c-0.8 0-1.733-0.267-2.4-0.8-0.667-0.4-1.333-1.067-1.733-1.867s-0.533-1.6-0.533-2.4c0-0.8 0.267-1.733 0.8-2.4 0.4-0.533 0.8-1.067 1.467-1.333v-4.133c-1.2 0.267-2.267 0.933-3.333 1.867-1.2 1.067-2.133 2.533-2.533 4.133s-0.4 3.333 0.133 4.8c0.533 1.6 1.467 2.933 2.667 4 1.333 1.067 2.8 1.733 4.4 2s3.333 0 4.8-0.8c1.467-0.667 2.8-1.867 3.6-3.2 0.933-1.333 1.333-3.067 1.333-4.667v-6.933c0-0.267 0.133-0.667 0.4-0.8s0.667-0.133 0.933 0c1.867 1.333 4.133 2.133 6.533 2.4v-3.867c-2-0.133-3.867-1.067-5.333-2.533s-2.267-3.333-2.533-5.333h-3.733z"></path>
<path d="M12.133 30.8c-0.4 0-0.933 0-1.333-0.133-2-0.267-3.867-1.067-5.467-2.4s-2.667-3.067-3.333-4.933c-0.667-2-0.667-4-0.133-6s1.6-3.733 3.067-5.2c1.467-1.333 3.333-2.267 5.333-2.667 0.4 0 0.667 0 0.933 0.267 0.267 0.133 0.4 0.533 0.4 0.933v5.867c0 0.4-0.267 0.933-0.667 1.067-0.4 0.267-0.8 0.533-1.067 0.933s-0.4 0.933-0.4 1.333c0 0.533 0.133 0.933 0.267 1.467 0.267 0.4 0.533 0.8 0.933 1.067 0.4 0.133 0.8 0.267 1.333 0.267s0.933-0.133 1.333-0.4c0.4-0.267 0.8-0.533 1.067-1.067 0.267-0.4 0.4-0.933 0.4-1.333v-17.867c0-0.667 0.533-1.2 1.2-1.2h5.6c0.667 0 1.2 0.533 1.2 1.2 0 1.733 0.667 3.467 2 4.667 1.2 1.2 2.933 2 4.667 2 0.667 0 1.2 0.533 1.2 1.2v5.6c0 0.667-0.533 1.2-1.2 1.2 0 0 0 0 0 0-2.267 0-4.533-0.533-6.667-1.6v4.933c0 2-0.533 4-1.733 5.733-1.067 1.733-2.667 3.067-4.533 4-1.333 0.667-2.933 1.067-4.4 1.067zM10.4 10.133c0 0-0.133 0 0 0-2 0.4-3.733 1.2-5.067 2.533-1.467 1.333-2.4 2.933-2.933 4.8s-0.4 3.733 0.133 5.6c0.533 1.867 1.6 3.467 3.067 4.667s3.2 2 5.2 2.267c1.867 0.267 3.867 0 5.6-0.8s3.2-2.133 4.267-3.733c1.067-1.6 1.6-3.467 1.6-5.333v-5.467c0-0.133 0.133-0.267 0.133-0.267 0.133 0 0.267 0 0.4 0 2.133 1.2 4.4 1.733 6.8 1.733 0.267 0 0.533-0.267 0.533-0.533v-5.733c0-0.267-0.267-0.533-0.533-0.533-2 0-3.867-0.8-5.2-2.133s-2.133-3.2-2.133-5.2c0-0.267-0.267-0.533-0.533-0.533h-5.733c-0.267 0-0.533 0.267-0.533 0.533v17.867c0 0 0 0.133 0 0.133s0 0.133 0 0.133c0 0.533-0.133 1.2-0.533 1.6-0.267 0.533-0.8 0.933-1.333 1.2s-1.2 0.4-1.733 0.4c-0.667 0-1.2-0.267-1.733-0.533s-0.933-0.8-1.2-1.333c-0.267-0.533-0.4-1.2-0.4-1.733 0-0.667 0.267-1.2 0.533-1.733 0.4-0.533 0.8-0.933 1.333-1.2 0.133-0.133 0.267-0.267 0.267-0.4v-5.733c0-0.133 0-0.267-0.133-0.4 0.133-0.133 0-0.133-0.133-0.133zM12.133 29.067c-0.4 0-0.8 0-1.2-0.133-1.733-0.267-3.333-0.933-4.667-2s-2.267-2.533-2.8-4.267c-0.533-1.6-0.533-3.333-0.133-5.067s1.333-3.2 2.667-4.4c0.933-0.933 2.267-1.6 3.467-2 0.133 0 0.267 0 0.267 0 0.133 0.133 0.133 0.133 0.133 0.267v4.533c0 0.133 0 0.267-0.133 0.267-0.533 0.267-0.933 0.8-1.333 1.333-0.4 0.667-0.667 1.467-0.8 2.267 0 0.8 0.133 1.6 0.533 2.267s0.933 1.333 1.6 1.733c0.667 0.4 1.467 0.667 2.267 0.667s1.6-0.133 2.267-0.533c0.667-0.4 1.333-0.933 1.733-1.6s0.667-1.467 0.667-2.267v-17.2c0-0.133 0.133-0.4 0.4-0.4h4c0.133 0 0.4 0.133 0.4 0.267-0.133 2 0.8 3.733 2.133 5.2 1.333 1.333 3.2 2.267 5.067 2.4 0.133 0 0.267 0.133 0.267 0.4v4c0 0.133 0 0.133-0.133 0.267s-0.133 0.133-0.267 0.133c-2.4-0.133-4.8-0.933-6.667-2.4-0.133-0.133-0.4-0.133-0.533 0s-0.267 0.267-0.267 0.4v6.8c0 1.733-0.533 3.467-1.467 4.8-0.933 1.467-2.267 2.667-3.867 3.333-1.067 0.667-2.4 0.933-3.6 0.933zM9.2 12.133c-1.067 0.4-2 0.933-2.8 1.733-1.2 1.067-2 2.4-2.4 4s-0.4 3.2 0.133 4.667c0.533 1.467 1.333 2.8 2.533 3.867s2.667 1.733 4.267 1.867c1.6 0.267 3.2 0 4.667-0.667s2.667-1.733 3.467-3.067c0.8-1.333 1.333-2.933 1.333-4.533v-7.067c0-0.4 0.267-0.8 0.667-1.067s0.933-0.133 1.2 0.133c1.733 1.2 3.867 2 6 2.267v-3.2c-2-0.267-3.733-1.2-5.2-2.533-1.467-1.467-2.267-3.2-2.533-5.2h-3.333v16.667c0 0.933-0.267 1.867-0.667 2.667s-1.2 1.467-2 1.867c-0.8 0.4-1.733 0.667-2.667 0.667s-1.867-0.267-2.533-0.8c-0.8-0.533-1.467-1.2-1.867-2s-0.667-1.733-0.533-2.667c0-0.933 0.4-1.867 0.933-2.533 0.4-0.533 0.8-1.067 1.333-1.333v-3.733z"></path>
</svg>
