<!-- Generated by IcoMoon.io -->
<svg version="1.1" xmlns="http://www.w3.org/2000/svg" width="32" height="32" viewBox="0 0 32 32">
<path d="M20 20.32c-0.48 0-0.8-0.16-1.12-0.48-0.64-0.64-0.64-1.6 0-2.24l5.6-5.6-5.6-5.6c-0.64-0.64-0.64-1.6 0-2.24s1.6-0.64 2.24 0l6.72 6.72c0.32 0.32 0.48 0.64 0.48 1.12s-0.16 0.8-0.48 1.12l-6.72 6.72c-0.32 0.32-0.64 0.48-1.12 0.48z"></path>
<path d="M5.28 28.32c-0.96 0-1.6-0.64-1.6-1.6v-9.28c0-1.92 0.8-3.52 2.080-4.96 1.28-1.28 3.040-2.080 4.96-2.080h16c0.96 0 1.6 0.64 1.6 1.6s-0.64 1.6-1.6 1.6h-16c-1.12 0-1.92 0.32-2.72 1.12-0.64 0.64-1.12 1.6-1.12 2.56v9.28c0 0.96-0.64 1.76-1.6 1.76z"></path>
</svg>
