<!-- Generated by IcoMoon.io -->
<svg version="1.1" xmlns="http://www.w3.org/2000/svg" width="32" height="32" viewBox="0 0 32 32">
<path d="M5.764 20.431c1.3-1.3 3.064-2.031 4.903-2.031h10.667c1.839 0 3.602 0.73 4.903 2.031s2.031 3.064 2.031 4.903v2.667c0 0.884-0.716 1.6-1.6 1.6s-1.6-0.716-1.6-1.6v-2.667c0-0.99-0.393-1.94-1.093-2.64s-1.65-1.093-2.64-1.093h-10.667c-0.99 0-1.94 0.393-2.64 1.093s-1.093 1.65-1.093 2.64v2.667c0 0.884-0.716 1.6-1.6 1.6s-1.6-0.716-1.6-1.6v-2.667c0-1.839 0.73-3.602 2.031-4.903z"></path>
<path d="M16 5.6c-2.062 0-3.733 1.671-3.733 3.733s1.671 3.733 3.733 3.733c2.062 0 3.733-1.671 3.733-3.733s-1.672-3.733-3.733-3.733zM9.066 9.333c0-3.829 3.104-6.933 6.933-6.933s6.933 3.104 6.933 6.933-3.104 6.933-6.933 6.933c-3.829 0-6.933-3.104-6.933-6.933z"></path>
</svg>
