<!-- Generated by IcoMoon.io -->
<svg version="1.1" xmlns="http://www.w3.org/2000/svg" width="32" height="32" viewBox="0 0 32 32">
<path d="M26.667 1.6h-21.333c-2.267 0-4 1.733-4 4v21.333c0 2.267 1.733 4 4 4h21.333c2.267 0 4-1.733 4-4v-21.333c0-2.267-1.733-4-4-4zM23.867 10.533h4.8v4.8h-4.8v-4.8zM21.867 15.2h-11.6v-5.733c0 0 0 0 0 0s0 0 0 0v-5.867h11.6v11.6zM8.133 15.2h-4.8v-4.667h4.8v4.667zM3.333 17.333h4.8v4.8h-4.8v-4.8zM10.267 23.067c0 0 0 0 0 0s0 0 0 0v-5.733h11.6v11.6h-11.6v-5.867zM23.867 17.333h4.8v4.8h-4.8v-4.8zM28.667 5.6v2.8h-4.8v-4.8h2.8c1.067 0 2 0.933 2 2zM5.333 3.6h2.8v4.8h-4.8v-2.8c0-1.067 0.933-2 2-2zM3.333 26.933v-2.8h4.8v4.8h-2.8c-1.067 0-2-0.933-2-2zM26.667 28.933h-2.8v-4.8h4.8v2.8c0 1.067-0.933 2-2 2z"></path>
</svg>
