<!-- Generated by IcoMoon.io -->
<svg version="1.1" xmlns="http://www.w3.org/2000/svg" width="32" height="32" viewBox="0 0 32 32">
<path d="M15.52 21.28c0.16 0.32 0.48 0.32 0.8 0.32 0 0 0 0 0 0 0.32 0 0.64-0.16 0.8-0.32l4.16-4.48c0.64-0.64 0.48-1.28 0-1.76s-1.12-0.64-1.76 0l-3.36 3.52-2.080-2.24c-0.16-0.32-0.48-0.32-0.96-0.32-0.48 0.16-0.8 0.48-0.96 0.96s0 0.8 0.32 1.12l3.040 3.2z"></path>
<path d="M26.24 3.040v-0.16c0-0.64-0.64-1.28-1.28-1.28s-1.12 0.64-1.12 1.28v0.16h-12.32v-0.32c0-0.64-0.64-1.12-1.28-1.12s-1.12 0.48-1.12 1.12v0.32c-2.4 0.16-4.32 2.24-4.32 4.8v4.16c0 0.16 0 0.32 0 0.32-0.32 2.4-0.8 4.64-1.6 6.88-0.48 1.28-0.8 2.24-1.28 3.040-0.48 0.96-0.32 2.080 0.16 2.88s1.44 1.44 2.4 1.44h0.48c0.48 2.4 2.24 3.84 4.32 3.84h16.64c2.4 0 4.48-2.080 4.48-4.8v-17.76c0-2.56-1.76-4.64-4.16-4.8v0zM7.040 7.84c0-1.12 0.8-2.080 1.92-2.24v0c0 0.64 0.48 1.28 1.12 1.28s1.12-0.64 1.12-1.28v0h12.48v0.16c0 0.64 0.48 1.28 1.12 1.28s1.12-0.64 1.12-1.28v-0.16c0.96 0.16 1.76 1.12 1.76 2.24v2.4h-20.64v-2.4zM23.52 26.72c1.6 0 3.040-0.96 3.68-2.4 0.32-0.64 0.48-1.28 0.8-1.92v3.040c0 0.64-0.16 1.12-0.48 1.6s-0.96 0.64-1.44 0.64h-16.96c-0.64 0-1.28-0.32-1.76-0.96h16.16zM27.84 12.8c-0.32 2.4-0.8 4.8-1.44 7.2-0.32 0.96-0.8 2.080-1.28 3.36-0.32 0.64-0.96 0.96-1.6 0.96h-19.040c-0.16-0.16-0.32-0.16-0.48-0.32s-0.16-0.32 0-0.48c0.48-1.12 0.96-2.24 1.28-3.36 0.8-2.4 1.28-4.96 1.6-7.36h20.96z"></path>
</svg>
