<!-- Generated by IcoMoon.io -->
<svg version="1.1" xmlns="http://www.w3.org/2000/svg" width="32" height="32" viewBox="0 0 32 32">
<title>accessories11111</title>
<path d="M26.1 19.5c-1.2-1.2-2.8-1.7-4.9-1.1l-7.5-7.5 0.1-0.4c0.4-1.6 0-3.4-1.2-4.6-1.3-1.2-3-1.7-4.6-1.2-0.1 0-0.2 0.1-0.3 0.2-0.1 0-0.1 0.1-0.2 0.2 0 0.1 0 0.2 0 0.3s0.1 0.2 0.2 0.3l1.8 1.8c0.5 0.6 0.5 1.5 0 2s-1.4 0.5-1.9 0l-1.8-1.8c-0.1-0.1-0.2-0.1-0.3-0.2-0.1 0-0.2 0-0.3 0-0.2 0.1-0.3 0.1-0.3 0.2-0.1 0.1-0.2 0.2-0.2 0.3-0.4 1.6 0 3.3 1.2 4.5s2.8 1.7 4.9 1.1l7.5 7.5c-0.6 2.1-0.1 3.7 1.1 4.9s2.9 1.6 4.5 1.2c0.1 0 0.2-0.1 0.3-0.2s0.1-0.2 0.2-0.3c0-0.1 0-0.2 0-0.3s-0.1-0.2-0.2-0.3l-1.8-1.8c-0.5-0.5-0.5-1.4 0-1.9s1.4-0.5 1.9 0l1.8 1.8c0.1 0.1 0.2 0.1 0.3 0.2 0.1 0 0.2 0 0.3 0s0.2-0.1 0.3-0.2c0.1-0.1 0.1-0.2 0.2-0.3 0.6-1.5 0.1-3.2-1.1-4.4z"></path>
<path d="M11.7 16.5l-6.4 6.4c-1.1 1.1-1.1 2.8 0 3.8s2.8 1.1 3.8 0l6.4-6.4-3.8-3.8zM8.5 24.6c-0.3 0.3-0.7 0.3-1 0s-0.3-0.7 0-1l4.1-4.1c0.3-0.3 0.7-0.3 1 0s0.3 0.7 0 1l-4.1 4.1zM27.3 5.9l-1.2-1.2c-0.1-0.1-0.2-0.2-0.4-0.2-0.1 0-0.3 0-0.4 0.1l-3.6 2.1c-0.4 0.2-0.4 0.7-0.1 1.1l0.3 0.3-4.5 4.5 1.9 1.9 4.5-4.5 0.4 0.4c0.3 0.3 0.8 0.2 1.1-0.1l2.1-3.6c0.1-0.1 0.1-0.3 0.1-0.4 0-0.2-0.1-0.3-0.2-0.4z"></path>
</svg>
