<!-- Generated by IcoMoon.io -->
<svg version="1.1" xmlns="http://www.w3.org/2000/svg" width="32" height="32" viewBox="0 0 32 32">
<path d="M20.928 18.4c-1.476 0-2.186 0.8-4.608 0.8s-3.127-0.8-4.608-0.8c-3.816 0-6.912 3.010-6.912 6.72v1.28c0 1.325 1.106 2.4 2.469 2.4h18.103c1.363 0 2.469-1.075 2.469-2.4v-1.28c0-3.71-3.096-6.72-6.912-6.72zM25.371 26.4h-18.103v-1.28c0-2.38 1.995-4.32 4.443-4.32 0.751 0 1.97 0.8 4.608 0.8 2.659 0 3.852-0.8 4.608-0.8 2.448 0 4.443 1.94 4.443 4.32v1.28zM16.32 17.6c4.089 0 7.406-3.225 7.406-7.2s-3.317-7.2-7.406-7.2c-4.089 0-7.406 3.225-7.406 7.2s3.317 7.2 7.406 7.2zM16.32 5.6c2.721 0 4.937 2.155 4.937 4.8s-2.216 4.8-4.937 4.8c-2.721 0-4.937-2.155-4.937-4.8s2.217-4.8 4.937-4.8z"></path>
</svg>
