<!-- Generated by IcoMoon.io -->
<svg version="1.1" xmlns="http://www.w3.org/2000/svg" width="32" height="32" viewBox="0 0 32 32">
<path d="M27.776 5.504h-5.376v-2.048c0-0.141-0.115-0.256-0.256-0.256h-1.792c-0.141 0-0.256 0.115-0.256 0.256v2.048h-8.192v-2.048c0-0.141-0.115-0.256-0.256-0.256h-1.792c-0.141 0-0.256 0.115-0.256 0.256v2.048h-5.376c-0.566 0-1.024 0.458-1.024 1.024v21.248c0 0.566 0.458 1.024 1.024 1.024h23.552c0.566 0 1.024-0.458 1.024-1.024v-21.248c0-0.566-0.458-1.024-1.024-1.024zM26.496 26.496h-20.992v-18.688h4.096v1.536c0 0.141 0.115 0.256 0.256 0.256h1.792c0.141 0 0.256-0.115 0.256-0.256v-1.536h8.192v1.536c0 0.141 0.115 0.256 0.256 0.256h1.792c0.141 0 0.256-0.115 0.256-0.256v-1.536h4.096v18.688zM20.080 12.864h-1.44c-0.096 0-0.186 0.054-0.227 0.141l-2.349 4.653h-0.090l-2.349-4.653c-0.021-0.042-0.054-0.078-0.094-0.102s-0.086-0.038-0.133-0.038h-1.472c-0.042 0-0.086 0.010-0.122 0.032-0.125 0.067-0.17 0.224-0.102 0.349l2.858 5.248h-1.555c-0.141 0-0.256 0.115-0.256 0.256v0.682c0 0.141 0.115 0.256 0.256 0.256h2.083v1.078h-2.083c-0.141 0-0.256 0.115-0.256 0.256v0.682c0 0.141 0.115 0.256 0.256 0.256h2.083v1.722c0 0.141 0.115 0.256 0.256 0.256h1.322c0.141 0 0.256-0.115 0.256-0.256v-1.722h2.093c0.141 0 0.256-0.115 0.256-0.256v-0.682c0-0.141-0.115-0.256-0.256-0.256h-2.093v-1.078h2.093c0.141 0 0.256-0.115 0.256-0.256v-0.682c0-0.141-0.115-0.256-0.256-0.256h-1.571l2.858-5.251c0.019-0.038 0.032-0.080 0.032-0.122 0.003-0.141-0.109-0.256-0.253-0.256v0z"></path>
</svg>
