<!-- Generated by IcoMoon.io -->
<svg version="1.1" xmlns="http://www.w3.org/2000/svg" width="32" height="32" viewBox="0 0 32 32">
<path d="M20.64 18.4c-1.44 0-2.24 0.8-4.64 0.8s-3.2-0.8-4.64-0.8c-3.84 0-6.88 3.040-6.88 6.72v1.28c0 1.28 1.12 2.4 2.4 2.4h18.080c1.44 0 2.4-1.12 2.4-2.4v-1.28c0-3.68-3.040-6.72-6.88-6.72zM25.12 26.4h-18.24v-1.28c0-2.4 1.92-4.32 4.48-4.32s1.92 0.8 4.64 0.8 3.84-0.8 4.64-0.8c2.4 0 4.48 1.92 4.48 4.32v1.28zM16 17.6c4.16 0 7.36-3.2 7.36-7.2s-3.36-7.2-7.36-7.2-7.36 3.2-7.36 7.2 3.36 7.2 7.36 7.2zM16 5.6c2.72 0 4.96 2.080 4.96 4.8s-2.24 4.8-4.96 4.8-4.96-2.080-4.96-4.8 2.24-4.8 4.96-4.8z"></path>
</svg>
