<!-- Generated by IcoMoon.io -->
<svg version="1.1" xmlns="http://www.w3.org/2000/svg" width="32" height="32" viewBox="0 0 32 32">
<path d="M22.133 29.333c-4 0-7.2-3.2-7.2-7.2s3.2-7.2 7.2-7.2 7.2 3.2 7.2 7.2-3.2 7.2-7.2 7.2zM22.133 16.533c-3.067 0-5.6 2.533-5.6 5.6s2.533 5.6 5.6 5.6 5.6-2.533 5.6-5.6-2.533-5.6-5.6-5.6z"></path>
<path d="M22.133 26c-0.267 0-0.4 0-0.533-0.267-0.133-0.133-0.267-0.4-0.267-0.533v-6.133c0-0.267 0-0.4 0.267-0.533 0.133-0.133 0.4-0.267 0.533-0.267s0.4 0 0.533 0.267c0.133 0.133 0.267 0.4 0.267 0.533v6.133c0 0.267 0 0.4-0.267 0.533-0.133 0.133-0.4 0.267-0.533 0.267z"></path>
<path d="M25.2 22.933h-6.133c-0.267 0-0.4 0-0.533-0.267-0.133-0.133-0.267-0.4-0.267-0.533s0-0.4 0.267-0.533c0.133-0.133 0.4-0.267 0.533-0.267h6.133c0.267 0 0.4 0 0.533 0.267 0.133 0.133 0.267 0.4 0.267 0.533s0 0.4-0.267 0.533c-0.133 0.133-0.4 0.267-0.533 0.267zM12.933 26h-7.2c-0.8 0-1.6-0.267-2.133-0.933-0.533-0.533-0.933-1.333-0.933-2.133v-17.2c0-0.8 0.267-1.6 0.933-2.133 0.533-0.533 1.333-0.933 2.133-0.933h12.8c0.8 0 1.6 0.267 2.133 0.933 0.533 0.533 0.933 1.333 0.933 2.133v6.8c0 0.267 0 0.4-0.267 0.533-0.133 0.133-0.4 0.267-0.533 0.267s-0.4 0-0.533-0.267c-0.133-0.133-0.267-0.4-0.267-0.533v-6.8c0-0.8-0.667-1.333-1.333-1.333h-12.933c-0.8 0-1.333 0.667-1.333 1.333v17.2c0 0.8 0.667 1.333 1.333 1.333h7.2c0.267 0 0.4 0 0.533 0.267 0.133 0.133 0.267 0.4 0.267 0.533s0 0.4-0.267 0.533c-0.133 0.133-0.4 0.267-0.533 0.267z"></path>
<path d="M17.333 13.2h-10.533c-0.267 0-0.4 0-0.533-0.267-0.133-0.133-0.267-0.4-0.267-0.533s0-0.4 0.267-0.533c0.133-0.133 0.4-0.267 0.533-0.267h10.533c0.267 0 0.4 0 0.533 0.267 0.133 0.133 0.267 0.4 0.267 0.533s0 0.4-0.267 0.533c-0.133 0.133-0.4 0.267-0.533 0.267zM12.933 17.6h-6.133c-0.267 0-0.4 0-0.533-0.267-0.133-0.133-0.267-0.4-0.267-0.533s0-0.4 0.267-0.533c0.133-0.133 0.4-0.267 0.533-0.267h6.133c0.267 0 0.4 0 0.533 0.267 0.133 0.133 0.267 0.4 0.267 0.533s0 0.4-0.267 0.533c-0.133 0.133-0.4 0.267-0.533 0.267zM11.867 8.8h-5.067c-0.267 0-0.4 0-0.533-0.267-0.133-0.133-0.267-0.4-0.267-0.533s0-0.4 0.267-0.533c0.133-0.133 0.4-0.267 0.533-0.267h5.067c0.267 0 0.4 0 0.533 0.267 0.133 0.133 0.267 0.4 0.267 0.533s0 0.4-0.267 0.533c-0.133 0.133-0.4 0.267-0.533 0.267z"></path>
</svg>
