<!-- Generated by IcoMoon.io -->
<svg version="1.1" xmlns="http://www.w3.org/2000/svg" width="32" height="32" viewBox="0 0 32 32">
<title>add-fill</title>
<path d="M25.051 6.949c-4.999-4.999-13.103-4.999-18.102 0s-4.999 13.103 0 18.102c4.999 4.999 13.103 4.999 18.102 0s4.999-13.103 0-18.102zM7.159 16c0-0.884 0.716-1.6 1.6-1.6h5.641v-5.641c0-0.884 0.716-1.6 1.6-1.6s1.6 0.716 1.6 1.6v5.641h5.641c0.884 0 1.6 0.716 1.6 1.6s-0.716 1.6-1.6 1.6h-5.641v5.641c0 0.884-0.716 1.6-1.6 1.6s-1.6-0.716-1.6-1.6v-5.641h-5.641c-0.884 0-1.6-0.716-1.6-1.6z"></path>
</svg>
