<!-- Generated by IcoMoon.io -->
<svg version="1.1" xmlns="http://www.w3.org/2000/svg" width="32" height="32" viewBox="0 0 32 32">
<path d="M15.97 3.43c-0.955-0.017-1.905 0.154-2.794 0.504s-1.701 0.872-2.388 1.536-1.237 1.457-1.617 2.334c-0.38 0.877-0.584 1.82-0.6 2.775v9.993c0 0.606-0.241 1.188-0.669 1.616s-1.010 0.669-1.616 0.669h-2.857c-0.909 0-1.781-0.361-2.424-1.004s-1.004-1.515-1.004-2.424v-4.571c0-0.909 0.361-1.781 1.004-2.424s1.515-1.004 2.424-1.004h1.714v-0.891c0.021-1.405 0.318-2.792 0.875-4.081s1.363-2.457 2.371-3.436c1.008-0.978 2.199-1.749 3.505-2.267s2.701-0.774 4.106-0.753c1.405-0.021 2.8 0.235 4.106 0.753s2.497 1.288 3.505 2.267c1.008 0.978 1.814 2.146 2.371 3.436s0.854 2.677 0.875 4.081v0.891h1.714c0.909 0 1.781 0.361 2.424 1.004s1.004 1.515 1.004 2.424v4.571c0 0.909-0.361 1.781-1.004 2.424s-1.515 1.004-2.424 1.004h-1.714v1.143c0 1.545-0.568 3.035-1.597 4.187s-2.446 1.885-3.98 2.059c-0.298 0.532-0.733 0.975-1.259 1.283s-1.125 0.47-1.735 0.47h-3.429c-0.909 0-1.781-0.361-2.424-1.004s-1.004-1.515-1.004-2.424c0-0.909 0.361-1.781 1.004-2.424s1.515-1.004 2.424-1.004h3.429c1.239 0 2.325 0.656 2.926 1.641 0.63-0.145 1.192-0.499 1.595-1.005s0.622-1.133 0.622-1.779v-13.423c-0.016-0.96-0.222-1.908-0.606-2.789s-0.939-1.676-1.633-2.34c-0.694-0.665-1.512-1.185-2.408-1.532s-1.852-0.512-2.812-0.487z"></path>
</svg>
