<!-- Generated by IcoMoon.io -->
<svg version="1.1" xmlns="http://www.w3.org/2000/svg" width="32" height="32" viewBox="0 0 32 32">
<path d="M28.571 14.914h-3.491c-0.494-4.183-3.811-7.5-7.994-7.994v-3.491c0-0.126-0.103-0.229-0.229-0.229h-1.714c-0.126 0-0.229 0.103-0.229 0.229v3.491c-4.183 0.494-7.5 3.811-7.994 7.994h-3.491c-0.126 0-0.229 0.103-0.229 0.229v1.714c0 0.126 0.103 0.229 0.229 0.229h3.491c0.494 4.183 3.811 7.5 7.994 7.994v3.491c0 0.126 0.103 0.229 0.229 0.229h1.714c0.126 0 0.229-0.103 0.229-0.229v-3.491c4.183-0.494 7.5-3.811 7.994-7.994h3.491c0.126 0 0.229-0.103 0.229-0.229v-1.714c0-0.126-0.103-0.229-0.229-0.229zM16 22.971c-3.851 0-6.971-3.12-6.971-6.971s3.12-6.971 6.971-6.971c3.851 0 6.971 3.12 6.971 6.971s-3.12 6.971-6.971 6.971z"></path>
<path d="M16 12.575c-0.917 0-1.774 0.354-2.423 1.006-0.649 0.649-1.006 1.506-1.006 2.423s0.357 1.774 1.006 2.423c0.649 0.646 1.509 1.006 2.423 1.006s1.774-0.357 2.423-1.006c0.646-0.649 1.006-1.509 1.006-2.423s-0.357-1.774-1.006-2.423c-0.317-0.32-0.694-0.574-1.11-0.747s-0.862-0.261-1.313-0.259z"></path>
</svg>
