<!-- Generated by IcoMoon.io -->
<svg version="1.1" xmlns="http://www.w3.org/2000/svg" width="32" height="32" viewBox="0 0 32 32">
<title>alert-fill</title>
<path d="M16 5.333c-2.8 0-5.6 1.2-7.6 3.2-0.933 1.067-1.733 2.267-2.267 3.6s-0.8 2.667-0.8 4.133c0 1.333 0.267 2.8 0.8 4 0.533 1.333 1.333 2.4 2.267 3.467 0.933 0.8 2.133 1.6 3.467 2.133s2.667 0.8 4 0.8h0.133c2.8 0 5.6-1.2 7.6-3.2s3.067-4.8 3.067-7.6c0-1.333-0.267-2.8-0.8-4-0.533-1.333-1.333-2.4-2.267-3.467-1.067-1.067-2.267-1.867-3.6-2.267s-2.667-0.8-4-0.8zM14.667 20c0-0.133 0-0.4 0.133-0.533 0-0.133 0.133-0.267 0.267-0.4s0.267-0.267 0.4-0.267c0.133-0.133 0.267-0.133 0.533-0.133v0c0.4 0 0.667 0.133 0.933 0.4s0.4 0.533 0.4 0.933c0 0.133 0 0.4-0.133 0.533 0 0.133-0.133 0.267-0.267 0.4s-0.267 0.267-0.4 0.267c-0.133 0.133-0.267 0.133-0.533 0.133v0c-0.4 0-0.667-0.133-0.933-0.4s-0.4-0.533-0.4-0.933zM15.067 16.4v-5.333c0-0.267 0.133-0.4 0.267-0.667 0.133-0.133 0.4-0.267 0.667-0.267s0.4 0.133 0.667 0.267c0.133 0.133 0.267 0.4 0.267 0.667v5.333c0 0.267-0.133 0.4-0.267 0.667-0.267 0.133-0.4 0.267-0.667 0.267s-0.4-0.133-0.667-0.267c-0.133-0.133-0.267-0.4-0.267-0.667z"></path>
</svg>
