<!-- Generated by IcoMoon.io -->
<svg version="1.1" xmlns="http://www.w3.org/2000/svg" width="32" height="32" viewBox="0 0 32 32">
<path d="M14.619 7.805c-0.531 0-0.914 0.383-0.914 0.911s0.386 0.911 0.914 0.911c0.531 0 0.914-0.383 0.914-0.911 0.003-0.526-0.383-0.911-0.914-0.911v0zM25.872 10.559c-0.394-0.394-0.934-0.614-1.52-0.614-0.112 0-0.212 0.011-0.306 0.029v-0.029h-0.103c-0.157-0.874-0.531-1.728-1.088-2.497-0.534-0.734-1.228-1.368-2.023-1.854l0.717-1.023v-0.094c0-0.023 0.011-0.066 0.020-0.109 0.017-0.069 0.040-0.157 0.040-0.254 0-0.529-0.386-0.911-0.914-0.911-0.28 0-0.557 0.163-0.74 0.44l-0.837 1.203c-0.857-0.28-1.783-0.429-2.68-0.429-0.894 0-1.82 0.149-2.68 0.429l-0.834-1.206c-0.189-0.274-0.46-0.44-0.743-0.44-0.531 0-0.914 0.383-0.914 0.911 0 0.177 0.071 0.366 0.191 0.497l0.646 0.923c-0.82 0.486-1.528 1.126-2.063 1.86-0.554 0.768-0.914 1.623-1.048 2.497h-0.157v0.029c-0.091-0.017-0.191-0.029-0.306-0.029-0.58 0-1.12 0.214-1.517 0.608-0.394 0.394-0.614 0.931-0.614 1.514v6.714c0 0.58 0.214 1.117 0.611 1.511 0.394 0.394 0.937 0.614 1.52 0.614 0.111 0 0.211-0.011 0.306-0.028v2.671c0 0.834 0.683 1.517 1.52 1.517h0.911v1.666c0 0.58 0.214 1.117 0.611 1.511 0.394 0.394 0.937 0.614 1.52 0.614 0.58 0 1.12-0.214 1.517-0.608 0.394-0.394 0.614-0.931 0.614-1.514v-1.663h1.823v1.66c0 0.58 0.214 1.117 0.611 1.511 0.394 0.394 0.937 0.614 1.52 0.614s1.12-0.214 1.517-0.617c0.394-0.394 0.614-0.931 0.614-1.514v-1.663h0.911c0.837 0 1.52-0.68 1.52-1.517v-2.611c0.092 0.017 0.192 0.028 0.306 0.028 0.58 0 1.12-0.214 1.517-0.608 0.394-0.394 0.614-0.931 0.614-1.514v-6.714c-0.003-0.58-0.217-1.114-0.611-1.511v0zM8.84 18.787c0 0.194-0.111 0.303-0.306 0.303s-0.306-0.108-0.306-0.303v-6.716c0-0.194 0.111-0.303 0.306-0.303s0.306 0.109 0.306 0.303v6.716zM12.585 7.451c1.071-0.78 2.437-1.208 3.857-1.208s2.785 0.431 3.857 1.214c0.926 0.677 1.548 1.548 1.791 2.5h-11.296c0.243-0.954 0.871-1.828 1.791-2.505v0zM13.708 26.726c-0.017 0.16-0.126 0.249-0.3 0.249-0.194 0-0.306-0.109-0.306-0.303v-1.663h0.606v1.717zM19.487 26.975c-0.194 0-0.306-0.109-0.306-0.303v-1.663h0.606v1.717c-0.017 0.16-0.123 0.249-0.3 0.249zM22.224 23.186h-11.559v-11.416h11.559v11.416zM24.658 18.787c0 0.194-0.111 0.303-0.306 0.303s-0.306-0.108-0.306-0.303v-6.716c0-0.194 0.112-0.303 0.306-0.303s0.306 0.109 0.306 0.303v6.716zM18.27 7.805c-0.531 0-0.914 0.383-0.914 0.911s0.386 0.911 0.914 0.911c0.531 0 0.917-0.383 0.917-0.914-0.003-0.531-0.383-0.908-0.917-0.908v0z"></path>
</svg>
