<!-- Generated by IcoMoon.io -->
<svg version="1.1" xmlns="http://www.w3.org/2000/svg" width="32" height="32" viewBox="0 0 32 32">
<path d="M12.197 21.743c-0.089 0-0.174-0.014-0.251-0.043l0.126 0.877h0.751l-0.443-0.854c-0.060 0.014-0.12 0.020-0.183 0.020v0zM24.226 13.423c-0.36 0-0.709 0.043-1.043 0.12-0.612-1.097-1.78-1.837-3.123-1.837-0.197 0-0.389 0.017-0.577 0.046-1.012-2.211-3.24-3.746-5.826-3.746-3.209 0-5.866 2.36-6.331 5.44-2.317 0.226-4.126 2.177-4.126 4.554 0 2.526 2.046 4.574 4.571 4.577h1.429l0.377-0.788c-0.749-0.237-1.237-0.829-1.117-1.394 0.131-0.617 0.937-0.968 1.803-0.786 0.654 0.14 1.154 0.546 1.3 1.003 0.066-0.108 0.159-0.197 0.27-0.259s0.235-0.095 0.362-0.095h0.006c-0.023-0.091-0.034-0.186-0.034-0.283 0-0.574 0.423-1.048 0.974-1.131v-0.726c0-0.126 0.103-0.228 0.229-0.228s0.229 0.103 0.229 0.228v0.752c0.131 0.034 0.251 0.091 0.36 0.166l0.557-0.611c0.086-0.094 0.229-0.1 0.323-0.014s0.1 0.228 0.014 0.323l-0.577 0.634c0.127 0.2 0.188 0.435 0.176 0.672s-0.098 0.464-0.245 0.65c-0.147 0.186-0.349 0.321-0.576 0.388s-0.47 0.060-0.694-0.018c-0.011 0.16-0.074 0.306-0.171 0.423l0.571 1.097 11.009-0.003c2.471-0.063 4.457-2.086 4.457-4.574 0-2.529-2.049-4.577-4.574-4.577zM11.034 21.72l-0.123 0.857h0.697l-0.169-1.186c-0.1 0.132-0.237 0.243-0.406 0.329zM24.157 9.371c0 0.364 0.144 0.713 0.402 0.97s0.606 0.402 0.97 0.402c0.364 0 0.712-0.145 0.97-0.402s0.402-0.606 0.402-0.97-0.144-0.713-0.402-0.97c-0.257-0.257-0.606-0.402-0.97-0.402s-0.713 0.145-0.97 0.402c-0.257 0.257-0.402 0.606-0.402 0.97zM22.28 11.123c0 0.090 0.018 0.179 0.052 0.262s0.085 0.159 0.149 0.222 0.139 0.114 0.223 0.149c0.083 0.034 0.172 0.052 0.262 0.052s0.179-0.018 0.262-0.052c0.083-0.034 0.159-0.085 0.222-0.149s0.114-0.139 0.149-0.222c0.035-0.083 0.052-0.172 0.052-0.262s-0.018-0.179-0.052-0.262c-0.034-0.083-0.085-0.159-0.149-0.222s-0.139-0.114-0.222-0.149c-0.083-0.034-0.172-0.052-0.262-0.052s-0.179 0.018-0.262 0.052c-0.083 0.034-0.159 0.085-0.223 0.149s-0.114 0.139-0.149 0.222c-0.034 0.083-0.052 0.172-0.052 0.262v0zM10.040 21.883l-0.331 0.694h0.743l0.1-0.706c-0.163 0.023-0.334 0.029-0.511 0.012v0z"></path>
</svg>
