<!-- Generated by IcoMoon.io -->
<svg version="1.1" xmlns="http://www.w3.org/2000/svg" width="32" height="32" viewBox="0 0 32 32">
<path d="M21.829 10.322c0.543-0.541 0.543-1.422 0-1.962l-1.996-1.997c-0.529-0.529-1.439-1.439-2.726-2.723-0.606-0.592-1.587-0.586-2.188 0.014l-11.264 11.255c-0.144 0.143-0.259 0.313-0.337 0.501s-0.118 0.389-0.118 0.592c0 0.203 0.040 0.404 0.118 0.592s0.192 0.358 0.337 0.501l11.261 11.252c0.29 0.29 0.684 0.453 1.094 0.453s0.804-0.163 1.094-0.453l4.722-4.72c0.543-0.54 0.543-1.421 0-1.962-0.261-0.26-0.614-0.406-0.983-0.406s-0.721 0.146-0.983 0.406l-3.575 3.581c-0.149 0.149-0.38 0.149-0.529 0l-8.996-8.987c-0.149-0.149-0.149-0.38 0-0.529l8.993-8.987c0.011-0.011 0.026-0.020 0.037-0.031 0.149-0.117 0.355-0.106 0.492 0.031l3.581 3.578c0.544 0.543 1.424 0.543 1.965 0v0zM13.028 16.060c0 0.806 0.32 1.578 0.891 2.148s1.344 0.89 2.15 0.89c0.806 0 1.58-0.32 2.15-0.89s0.891-1.342 0.891-2.148-0.32-1.578-0.891-2.148c-0.57-0.57-1.344-0.89-2.15-0.89s-1.58 0.32-2.15 0.89-0.891 1.342-0.891 2.148zM28.365 14.955l-3.515-3.498c-0.544-0.541-1.424-0.541-1.965 0.003-0.129 0.129-0.232 0.281-0.302 0.45s-0.106 0.349-0.106 0.531 0.036 0.363 0.106 0.531c0.070 0.168 0.172 0.321 0.302 0.45l2.374 2.371c0.149 0.149 0.149 0.38 0 0.529l-2.34 2.337c-0.129 0.129-0.232 0.282-0.302 0.45s-0.106 0.349-0.106 0.531c0 0.182 0.036 0.363 0.106 0.531s0.172 0.321 0.302 0.45c0.261 0.26 0.614 0.405 0.982 0.405s0.722-0.146 0.983-0.405l3.484-3.481c0.144-0.144 0.257-0.314 0.335-0.502s0.117-0.389 0.117-0.592c0-0.203-0.041-0.404-0.119-0.591s-0.192-0.358-0.336-0.501v0z"></path>
</svg>
