<!-- Generated by IcoMoon.io -->
<svg version="1.1" xmlns="http://www.w3.org/2000/svg" width="32" height="32" viewBox="0 0 32 32">
<path d="M14.33 3.2h-10.574c-0.306 0-0.557 0.25-0.557 0.557v10.574c0 0.306 0.25 0.557 0.557 0.557h10.574c0.306 0 0.557-0.25 0.557-0.557v-10.574c0-0.306-0.25-0.557-0.557-0.557zM12.522 12.522h-6.957v-6.957h6.957v6.957zM28.244 3.2h-10.574c-0.306 0-0.556 0.25-0.556 0.557v10.574c0 0.306 0.25 0.557 0.556 0.557h10.574c0.306 0 0.556-0.25 0.556-0.557v-10.574c0-0.306-0.25-0.557-0.556-0.557zM26.435 12.522h-6.956v-6.957h6.956v6.957zM14.33 17.113h-10.574c-0.306 0-0.557 0.25-0.557 0.556v10.574c0 0.306 0.25 0.556 0.557 0.556h10.574c0.306 0 0.557-0.25 0.557-0.556v-10.574c0-0.306-0.25-0.556-0.557-0.556zM12.522 26.435h-6.957v-6.956h6.957v6.956zM28.244 17.113h-10.574c-0.306 0-0.556 0.25-0.556 0.556v10.574c0 0.306 0.25 0.556 0.556 0.556h10.574c0.306 0 0.556-0.25 0.556-0.556v-10.574c0-0.306-0.25-0.556-0.556-0.556zM26.435 26.435h-6.956v-6.956h6.956v6.956z"></path>
</svg>
