<!-- Generated by IcoMoon.io -->
<svg version="1.1" xmlns="http://www.w3.org/2000/svg" width="32" height="32" viewBox="0 0 32 32">
<path d="M28.533 25.867h-22.933v-20.8c0-0.147-0.12-0.267-0.267-0.267h-1.867c-0.147 0-0.267 0.12-0.267 0.267v22.933c0 0.147 0.12 0.267 0.267 0.267h25.067c0.147 0 0.267-0.12 0.267-0.267v-1.867c0-0.147-0.12-0.267-0.267-0.267zM8 23.733h17.867c0.147 0 0.267-0.12 0.267-0.267v-14.533c0-0.24-0.29-0.357-0.457-0.19l-7.010 7.010-4.18-4.133c-0.050-0.050-0.118-0.077-0.188-0.077s-0.138 0.028-0.188 0.077l-6.3 6.32c-0.024 0.024-0.044 0.054-0.057 0.086s-0.020 0.066-0.020 0.101v5.34c0 0.147 0.12 0.267 0.267 0.267z"></path>
</svg>
