<!-- Generated by IcoMoon.io -->
<svg version="1.1" xmlns="http://www.w3.org/2000/svg" width="32" height="32" viewBox="0 0 32 32">
<title>arrow-left-rounded</title>
<path d="M13.28 26.72c-0.32 0-0.64-0.16-0.96-0.32l-9.28-9.28c0 0 0 0 0 0v0 0c0 0 0 0 0 0v0c-0.16-0.16-0.16-0.32-0.32-0.48 0-0.16-0.16-0.32-0.16-0.48 0 0 0 0 0 0v0c0 0 0 0 0 0v0c0 0 0 0 0 0v0c0 0 0 0 0 0s0 0 0 0 0 0 0 0 0 0 0 0v0c0 0 0 0 0 0s0 0 0 0 0 0 0 0 0 0 0 0v0c0 0 0 0 0 0v0c0 0 0 0 0 0v0c0 0 0 0 0 0 0-0.16 0-0.32 0.16-0.48v0c0 0 0 0 0 0 0-0.16 0.16-0.32 0.32-0.48v0c0 0 0 0 0 0v0c0 0 0 0 0 0v0c0 0 0 0 0 0s0 0 0 0v0c0 0 0 0 0 0v0c0 0 0 0 0 0s0 0 0 0 0 0 0 0 0 0 0 0v0 0l9.28-9.28c0.48-0.48 1.44-0.48 1.92 0s0.48 1.44 0 1.92l-7.040 6.88h20.8c0.8 0 1.28 0.64 1.28 1.28s-0.64 1.28-1.28 1.28h-20.8l7.040 7.040c0.48 0.48 0.48 1.44 0 1.92-0.16 0.32-0.64 0.48-0.96 0.48z"></path>
</svg>
