<!-- Generated by IcoMoon.io -->
<svg version="1.1" xmlns="http://www.w3.org/2000/svg" width="32" height="32" viewBox="0 0 32 32">
<title>arrow-left-rounded</title>
<path d="M13.44 26.24c-0.32 0-0.64-0.16-0.96-0.32l-8.96-8.96c-0.16-0.16-0.16-0.32-0.32-0.48 0-0.16-0.16-0.32-0.16-0.48v0 0 0 0 0 0 0 0 0 0 0 0 0 0 0 0 0 0 0 0 0c0-0.16 0-0.32 0.16-0.48v0 0c0-0.16 0.16-0.32 0.32-0.48v0 0 0 0 0 0 0 0 0 0 0 0 0 0 0 0l8.96-8.64c0.48-0.48 1.44-0.48 1.76 0 0.48 0.48 0.48 1.44 0 1.76l-6.72 6.56h20c0.8 0 1.28 0.64 1.28 1.28s-0.64 1.28-1.28 1.28h-20l6.72 6.72c0.48 0.48 0.48 1.44 0 1.76-0.16 0.32-0.48 0.48-0.8 0.48z"></path>
</svg>
