<!-- Generated by IcoMoon.io -->
<svg version="1.1" xmlns="http://www.w3.org/2000/svg" width="32" height="32" viewBox="0 0 32 32">
<path d="M17.6 25.6c-0.48-0.48-0.48-1.44 0-1.76l6.72-6.72h-19.84c-0.64 0-1.28-0.64-1.28-1.28s0.48-1.28 1.28-1.28h20l-6.88-6.56c-0.48-0.48-0.48-1.44 0-1.76s1.44-0.48 1.76 0l8.96 8.96c0.16 0.16 0.32 0.32 0.32 0.48v0 0c0.16 0 0.16 0.16 0.16 0.32v0 0 0 0 0 0 0 0 0 0 0 0 0 0 0 0 0 0 0 0 0c0 0.16-0.16 0.32-0.16 0.48-0.16 0.16-0.16 0.32-0.32 0.48v0 0 0 0 0l-8.96 8.96c-0.32 0.16-0.64 0.32-0.96 0.32-0.16-0.16-0.64-0.32-0.8-0.64z"></path>
</svg>
