<!-- Generated by IcoMoon.io -->
<svg version="1.1" xmlns="http://www.w3.org/2000/svg" width="32" height="32" viewBox="0 0 32 32">
<title>arrow_right_rounded</title>
<path d="M22.24 16.96h-14.88c-0.32 0-0.48-0.16-0.64-0.32s-0.32-0.32-0.32-0.64c0-0.32 0.16-0.48 0.32-0.64s0.48-0.32 0.64-0.32h14.88l-4.32-4.32c-0.16-0.16-0.32-0.48-0.32-0.64 0-0.32 0.16-0.48 0.32-0.64s0.48-0.32 0.64-0.32c0.32 0 0.48 0.16 0.64 0.32l5.92 5.92c0.16 0.16 0.16 0.32 0.32 0.32 0 0.16 0 0.32 0 0.48s0 0.32 0 0.48c0 0.16-0.16 0.32-0.32 0.32l-5.92 5.92c-0.16 0.16-0.48 0.32-0.64 0.32-0.32 0-0.48-0.16-0.64-0.32s-0.32-0.48-0.32-0.64c0-0.32 0.16-0.48 0.32-0.64l4.32-4.64z"></path>
</svg>
