<!-- Generated by IcoMoon.io -->
<svg version="1.1" xmlns="http://www.w3.org/2000/svg" width="32" height="32" viewBox="0 0 32 32">
<path d="M28.8 16c0 3.395-1.349 6.651-3.749 9.051s-5.656 3.749-9.051 3.749c-3.395 0-6.651-1.349-9.051-3.749s-3.749-5.656-3.749-9.051c0-3.395 1.349-6.651 3.749-9.051s5.656-3.749 9.051-3.749c3.395 0 6.651 1.349 9.051 3.749s3.749 5.656 3.749 9.051zM14.869 10.069l-4.8 4.8c-0.291 0.302-0.453 0.706-0.449 1.125s0.172 0.821 0.469 1.117c0.297 0.297 0.698 0.465 1.117 0.469s0.824-0.158 1.125-0.449l2.069-2.069v5.738c0 0.424 0.169 0.831 0.469 1.131s0.707 0.469 1.131 0.469c0.424 0 0.831-0.169 1.131-0.469s0.469-0.707 0.469-1.131v-5.738l2.069 2.069c0.148 0.153 0.324 0.275 0.519 0.359s0.405 0.128 0.618 0.13c0.212 0.002 0.423-0.039 0.62-0.119s0.375-0.199 0.525-0.349c0.15-0.15 0.269-0.329 0.349-0.525s0.121-0.407 0.119-0.62c-0.002-0.212-0.046-0.422-0.13-0.618s-0.206-0.372-0.359-0.519l-4.8-4.8c-0.3-0.3-0.707-0.468-1.131-0.468s-0.831 0.168-1.131 0.468z"></path>
</svg>
