<!-- Generated by IcoMoon.io -->
<svg version="1.1" xmlns="http://www.w3.org/2000/svg" width="32" height="32" viewBox="0 0 32 32">
<title>audit</title>
<path d="M9.497 8.308c-0.129 0-0.235 0.106-0.235 0.235v1.409c0 0.129 0.106 0.235 0.235 0.235h11.273c0.129 0 0.235-0.106 0.235-0.235v-1.409c0-0.129-0.106-0.235-0.235-0.235h-11.273zM14.899 12.536h-5.402c-0.129 0-0.235 0.106-0.235 0.235v1.409c0 0.129 0.106 0.235 0.235 0.235h5.402c0.129 0 0.235-0.106 0.235-0.235v-1.409c0-0.129-0.106-0.235-0.235-0.235zM13.49 25.982h-6.576v-20.668h16.44v9.395c0 0.129 0.106 0.235 0.235 0.235h1.644c0.129 0 0.235-0.106 0.235-0.235v-10.569c0-0.52-0.42-0.939-0.939-0.939h-18.789c-0.52 0-0.939 0.42-0.939 0.939v23.017c0 0.52 0.42 0.939 0.939 0.939h7.75c0.129 0 0.235-0.106 0.235-0.235v-1.644c0-0.129-0.106-0.235-0.235-0.235zM26.407 23.398h-4.228v-1.075c1.359-0.405 2.349-1.662 2.349-3.153 0-1.817-1.471-3.288-3.288-3.288s-3.288 1.471-3.288 3.288c0 1.488 0.989 2.748 2.349 3.153v1.075h-4.228c-0.258 0-0.47 0.211-0.47 0.47v4.462c0 0.258 0.211 0.47 0.47 0.47h10.334c0.258 0 0.47-0.211 0.47-0.47v-4.462c0-0.258-0.211-0.47-0.47-0.47zM19.772 19.171c0-0.81 0.658-1.468 1.468-1.468s1.468 0.658 1.468 1.468c0 0.81-0.658 1.468-1.468 1.468s-1.468-0.658-1.468-1.468zM25.057 26.98h-7.633v-1.761h7.633v1.761z"></path>
</svg>
