<!-- Generated by IcoMoon.io -->
<svg version="1.1" xmlns="http://www.w3.org/2000/svg" width="32" height="32" viewBox="0 0 32 32">
<path d="M21.342 14.99v-3.939l-2.079 2.079v1.86c-0.003 1.387-1.149 2.52-2.571 2.517-0.504 0.003-0.998-0.14-1.422-0.41l-1.477 1.504c0.796 0.613 1.803 0.985 2.9 0.985 2.566 0 4.65-2.054 4.65-4.596z"></path>
<path d="M25.473 14.739h-1.641c-0.12 0-0.219 0.098-0.219 0.219 0 3.838-3.11 6.948-6.948 6.948-1.723 0-3.302-0.629-4.514-1.669l-1.477 1.477c1.373 1.213 3.079 1.985 4.897 2.216v2.79h-3.966c-0.38 0-0.681 0.391-0.684 0.875v0.985c0.003 0.12 0.079 0.219 0.164 0.219h11.161c0.088 0 0.164-0.098 0.164-0.219v-0.985c0-0.484-0.301-0.875-0.684-0.875h-4.076v-2.79c4.522-0.49 8.042-4.319 8.042-8.972 0-0.12-0.099-0.219-0.219-0.219zM25.831 4.407l-1.19-1.146c-0.041-0.040-0.096-0.062-0.154-0.061s-0.112 0.023-0.153 0.064l-3.529 3.529c-0.769-1.485-2.336-2.503-4.142-2.503-2.569 0-4.65 2.060-4.65 4.596v6.128c0 0.183 0.011 0.364 0.033 0.542l-1.86 1.86c-0.296-0.785-0.446-1.617-0.443-2.456-0.005-0.12-0.104-0.219-0.219-0.219h-1.641c-0.12 0-0.219 0.098-0.219 0.219 0 1.45 0.342 2.818 0.946 4.032l-3.748 3.748c-0.041 0.041-0.064 0.097-0.064 0.155s0.023 0.113 0.064 0.155l1.168 1.168c0.085 0.085 0.224 0.085 0.309 0l19.496-19.496c0.085-0.088 0.082-0.227-0.005-0.312zM14.093 13.508v-4.623c0-1.384 1.146-2.517 2.571-2.517 1.258 0 2.3 0.884 2.525 2.043l-5.096 5.096z"></path>
</svg>
