<!-- Generated by IcoMoon.io -->
<svg version="1.1" xmlns="http://www.w3.org/2000/svg" width="32" height="32" viewBox="0 0 32 32">
<path d="M25.257 14.343c0-0.126-0.103-0.229-0.228-0.229h-1.714c-0.126 0-0.228 0.103-0.228 0.229 0 4.008-3.249 7.257-7.257 7.257s-7.257-3.249-7.257-7.257c0-0.126-0.103-0.229-0.229-0.229h-1.714c-0.126 0-0.229 0.103-0.229 0.229 0 4.82 3.617 8.797 8.286 9.36v2.926h-4.151c-0.391 0-0.706 0.408-0.706 0.914v1.028c0 0.126 0.080 0.229 0.177 0.229h11.646c0.097 0 0.177-0.103 0.177-0.229v-1.028c0-0.506-0.314-0.914-0.706-0.914h-4.266v-2.912c4.723-0.514 8.4-4.514 8.4-9.374zM15.829 19.2c2.683 0 4.857-2.149 4.857-4.8v-6.4c0-2.651-2.174-4.8-4.857-4.8s-4.857 2.149-4.857 4.8v6.4c0 2.651 2.174 4.8 4.857 4.8zM13.143 8c0-1.446 1.197-2.629 2.686-2.629s2.686 1.183 2.686 2.629v6.4c0 1.446-1.197 2.629-2.686 2.629s-2.686-1.183-2.686-2.629v-6.4z"></path>
</svg>
