<!-- Generated by IcoMoon.io -->
<svg version="1.1" xmlns="http://www.w3.org/2000/svg" width="32" height="32" viewBox="0 0 32 32">
<path d="M27.812 13.773c0.955 0 1.354-1.228 0.578-1.793l-11.808-8.59c-0.169-0.124-0.372-0.19-0.581-0.19s-0.413 0.067-0.581 0.19l-11.808 8.59c-0.776 0.563-0.377 1.793 0.581 1.793h1.914v11.564h-2.226c-0.136 0-0.247 0.111-0.247 0.247v1.608c0 0.136 0.111 0.247 0.247 0.247h24.241c0.136 0 0.247-0.111 0.247-0.247v-1.608c0-0.136-0.111-0.247-0.247-0.247h-2.226v-11.564h1.917zM16 5.57l8.382 6.097h-16.765l8.383-6.098zM8.332 13.773h3.618v11.564h-3.618v-11.564zM14.176 13.773h3.618v11.564h-3.618v-11.564zM23.668 25.337h-3.649v-11.564h3.649v11.564z"></path>
</svg>
