<!-- Generated by IcoMoon.io -->
<svg version="1.1" xmlns="http://www.w3.org/2000/svg" width="32" height="32" viewBox="0 0 32 32">
<path d="M28.533 25.867h-22.933v-20.8c0-0.147-0.12-0.267-0.267-0.267h-1.867c-0.147 0-0.267 0.12-0.267 0.267v22.933c0 0.147 0.12 0.267 0.267 0.267h25.067c0.147 0 0.267-0.12 0.267-0.267v-1.867c0-0.147-0.12-0.267-0.267-0.267zM8.533 23.2h1.867c0.147 0 0.267-0.12 0.267-0.267v-4.8c0-0.147-0.12-0.267-0.267-0.267h-1.867c-0.147 0-0.267 0.12-0.267 0.267v4.8c0 0.147 0.12 0.267 0.267 0.267zM13.6 23.2h1.867c0.147 0 0.267-0.12 0.267-0.267v-10.667c0-0.147-0.12-0.267-0.267-0.267h-1.867c-0.147 0-0.267 0.12-0.267 0.267v10.667c0 0.147 0.12 0.267 0.267 0.267zM18.667 23.2h1.867c0.147 0 0.267-0.12 0.267-0.267v-8.067c0-0.147-0.12-0.267-0.267-0.267h-1.867c-0.147 0-0.267 0.12-0.267 0.267v8.067c0 0.147 0.12 0.267 0.267 0.267zM23.733 23.2h1.867c0.147 0 0.267-0.12 0.267-0.267v-13.333c0-0.147-0.12-0.267-0.267-0.267h-1.867c-0.147 0-0.267 0.12-0.267 0.267v13.333c0 0.147 0.12 0.267 0.267 0.267z"></path>
</svg>
