<!-- Generated by IcoMoon.io -->
<svg version="1.1" xmlns="http://www.w3.org/2000/svg" width="32" height="32" viewBox="0 0 32 32">
<path fill="#000" d="M15.372 5.149c6.238 0 11.294 5.057 11.294 11.294s-5.057 11.294-11.294 11.294c-6.238 0-11.294-5.057-11.294-11.294s5.057-11.294 11.294-11.294z"></path>
<path fill="#fff" d="M9.203 15.487v-3.706h1.484c0.273 0 0.5 0.040 0.682 0.121s0.319 0.193 0.411 0.337c0.092 0.142 0.137 0.306 0.137 0.492 0 0.145-0.029 0.272-0.087 0.382-0.058 0.109-0.137 0.198-0.239 0.268-0.1 0.069-0.215 0.118-0.344 0.147v0.036c0.141 0.006 0.273 0.046 0.396 0.119 0.124 0.074 0.225 0.177 0.302 0.309 0.077 0.131 0.116 0.288 0.116 0.47 0 0.197-0.049 0.372-0.147 0.527-0.097 0.153-0.239 0.274-0.429 0.364s-0.423 0.134-0.7 0.134h-1.583zM9.986 14.846h0.639c0.218 0 0.378-0.042 0.478-0.125 0.1-0.084 0.15-0.197 0.15-0.337 0-0.103-0.025-0.193-0.074-0.271s-0.12-0.14-0.212-0.185c-0.090-0.045-0.198-0.067-0.324-0.067h-0.657v0.984zM9.986 13.332h0.581c0.107 0 0.203-0.019 0.286-0.056 0.084-0.039 0.151-0.093 0.199-0.163 0.049-0.070 0.074-0.154 0.074-0.252 0-0.134-0.048-0.242-0.143-0.324-0.094-0.082-0.228-0.123-0.402-0.123h-0.595v0.917z"></path>
<path fill="#fff" d="M12.572 15.487v-3.706h2.497v0.646h-1.713v0.883h1.585v0.646h-1.585v0.885h1.721v0.646h-2.504z"></path>
<path fill="#fff" d="M17.702 12.847c-0.014-0.146-0.077-0.259-0.186-0.34s-0.259-0.121-0.447-0.121c-0.128 0-0.236 0.018-0.324 0.054-0.088 0.035-0.156 0.084-0.203 0.147-0.046 0.063-0.069 0.134-0.069 0.213-0.002 0.066 0.011 0.124 0.042 0.174 0.031 0.049 0.074 0.092 0.128 0.128 0.054 0.035 0.117 0.066 0.188 0.092 0.071 0.025 0.147 0.047 0.228 0.065l0.333 0.080c0.162 0.036 0.31 0.084 0.445 0.145s0.252 0.134 0.351 0.223c0.099 0.088 0.175 0.192 0.23 0.311 0.055 0.119 0.084 0.256 0.085 0.411-0.001 0.227-0.059 0.423-0.174 0.59-0.113 0.165-0.277 0.294-0.492 0.385-0.213 0.090-0.471 0.136-0.773 0.136-0.299 0-0.56-0.046-0.782-0.137-0.221-0.092-0.393-0.227-0.518-0.407-0.123-0.181-0.188-0.405-0.194-0.671h0.758c0.008 0.124 0.044 0.228 0.107 0.311 0.064 0.082 0.149 0.144 0.255 0.186 0.107 0.041 0.229 0.062 0.364 0.062 0.133 0 0.248-0.019 0.346-0.058 0.099-0.039 0.175-0.092 0.23-0.161s0.081-0.148 0.081-0.237c0-0.083-0.025-0.153-0.074-0.21-0.048-0.057-0.119-0.105-0.213-0.145-0.093-0.040-0.207-0.076-0.342-0.109l-0.403-0.101c-0.312-0.076-0.559-0.195-0.74-0.356s-0.271-0.379-0.27-0.653c-0.001-0.224 0.059-0.42 0.179-0.588 0.122-0.168 0.289-0.299 0.501-0.393s0.454-0.141 0.724-0.141c0.275 0 0.515 0.047 0.72 0.141 0.206 0.094 0.367 0.225 0.481 0.393s0.174 0.362 0.177 0.583h-0.751z"></path>
<path fill="#fff" d="M18.889 12.427v-0.646h3.043v0.646h-1.134v3.060h-0.774v-3.060h-1.134z"></path>
<path fill="#fff" d="M10.816 19.252c0 0.404-0.077 0.748-0.23 1.031-0.152 0.283-0.359 0.5-0.622 0.65-0.262 0.148-0.556 0.223-0.883 0.223-0.329 0-0.625-0.075-0.887-0.224s-0.469-0.366-0.621-0.65-0.228-0.627-0.228-1.029c0-0.404 0.076-0.748 0.228-1.031s0.359-0.499 0.621-0.648c0.262-0.15 0.557-0.224 0.887-0.224 0.327 0 0.621 0.075 0.883 0.224 0.263 0.148 0.47 0.364 0.622 0.648 0.153 0.283 0.23 0.627 0.23 1.031zM10.022 19.252c0-0.262-0.039-0.483-0.118-0.662-0.077-0.18-0.186-0.316-0.328-0.409s-0.306-0.139-0.496-0.139c-0.189 0-0.355 0.046-0.496 0.139s-0.251 0.229-0.329 0.409c-0.077 0.18-0.116 0.4-0.116 0.662s0.039 0.483 0.116 0.662c0.078 0.18 0.188 0.316 0.329 0.409s0.306 0.139 0.496 0.139 0.355-0.047 0.496-0.139c0.141-0.093 0.25-0.229 0.328-0.409 0.078-0.18 0.118-0.4 0.118-0.662z"></path>
<path fill="#fff" d="M11.396 21.105v-3.706h2.454v0.646h-1.67v0.883h1.507v0.646h-1.507v1.531h-0.783z"></path>
<path fill="#fff" d="M14.377 21.105v-3.706h2.454v0.646h-1.67v0.883h1.507v0.646h-1.507v1.531h-0.783z"></path>
<path fill="#fff" d="M17.357 21.105v-3.706h2.497v0.646h-1.713v0.883h1.585v0.646h-1.585v0.885h1.721v0.646h-2.504z"></path>
<path fill="#fff" d="M20.477 21.105v-3.706h1.462c0.28 0 0.519 0.050 0.716 0.15 0.199 0.099 0.351 0.239 0.454 0.422 0.105 0.181 0.157 0.394 0.157 0.639 0 0.246-0.053 0.458-0.159 0.635-0.106 0.176-0.26 0.311-0.461 0.405-0.2 0.094-0.443 0.141-0.727 0.141h-0.979v-0.63h0.852c0.15 0 0.274-0.020 0.373-0.061s0.173-0.103 0.221-0.185c0.049-0.082 0.074-0.184 0.074-0.306 0-0.123-0.025-0.227-0.074-0.311-0.048-0.084-0.122-0.148-0.223-0.192-0.099-0.045-0.224-0.067-0.375-0.067h-0.528v3.065h-0.783zM22.478 19.418l0.921 1.686h-0.865l-0.901-1.686h0.845z"></path>
</svg>
