<!-- Generated by IcoMoon.io -->
<svg version="1.1" xmlns="http://www.w3.org/2000/svg" width="32" height="32" viewBox="0 0 32 32">
<path d="M10.956 14.775h-0.679v-1.046h0.698c0.133 0 0.248 0.024 0.344 0.071 0.097 0.047 0.172 0.113 0.225 0.196s0.079 0.179 0.079 0.288c0 0.149-0.053 0.268-0.16 0.358-0.106 0.088-0.276 0.133-0.508 0.133zM10.894 13.166h-0.617v-0.975h0.633c0.185 0 0.327 0.044 0.427 0.131 0.101 0.087 0.152 0.202 0.152 0.344 0 0.104-0.026 0.193-0.079 0.267-0.051 0.074-0.122 0.132-0.211 0.173-0.088 0.040-0.19 0.060-0.304 0.060zM10.315 19.455c0-0.278-0.042-0.513-0.125-0.704-0.082-0.191-0.198-0.336-0.348-0.434s-0.326-0.148-0.527-0.148-0.377 0.049-0.527 0.148c-0.15 0.099-0.267 0.243-0.35 0.434-0.082 0.191-0.123 0.425-0.123 0.704s0.041 0.513 0.123 0.704c0.083 0.191 0.2 0.336 0.35 0.434s0.326 0.148 0.527 0.148c0.201 0 0.377-0.049 0.527-0.148s0.266-0.243 0.348-0.434c0.083-0.191 0.125-0.426 0.125-0.704zM22.256 19.359h0.565c0.159 0 0.291-0.022 0.396-0.065s0.183-0.109 0.235-0.196c0.053-0.087 0.079-0.195 0.079-0.325 0-0.131-0.026-0.241-0.079-0.331-0.051-0.090-0.13-0.158-0.236-0.204-0.105-0.047-0.238-0.071-0.398-0.071h-0.561v1.192z"></path>
<path d="M16 28c-6.627 0-12-5.373-12-12s5.373-12 12-12c6.627 0 12 5.373 12 12s-5.373 12-12 12zM9.445 11.518v3.937h1.682c0.295 0 0.543-0.047 0.744-0.142s0.353-0.224 0.456-0.386c0.104-0.164 0.156-0.351 0.156-0.559 0-0.193-0.041-0.36-0.123-0.5-0.082-0.141-0.189-0.251-0.321-0.329-0.131-0.078-0.271-0.121-0.421-0.127v-0.038c0.137-0.031 0.259-0.083 0.365-0.156 0.108-0.074 0.192-0.169 0.254-0.285 0.062-0.117 0.092-0.252 0.092-0.406 0-0.197-0.049-0.372-0.146-0.523-0.097-0.152-0.243-0.272-0.436-0.358s-0.435-0.129-0.725-0.129h-1.576zM13.024 11.518v3.937h2.661v-0.686h-1.828v-0.94h1.684v-0.686h-1.684v-0.938h1.821v-0.686h-2.653zM18.277 12.289c0.117 0.086 0.183 0.206 0.198 0.361h0.798c-0.004-0.235-0.067-0.441-0.188-0.619s-0.292-0.317-0.511-0.417c-0.218-0.1-0.473-0.15-0.765-0.15-0.287 0-0.543 0.050-0.769 0.15s-0.403 0.239-0.533 0.417c-0.128 0.178-0.192 0.386-0.19 0.625-0.001 0.291 0.094 0.522 0.286 0.694s0.454 0.298 0.786 0.379l0.429 0.108c0.144 0.035 0.265 0.073 0.363 0.115 0.1 0.042 0.176 0.094 0.227 0.154 0.053 0.060 0.079 0.135 0.079 0.223 0 0.095-0.029 0.179-0.087 0.252s-0.139 0.13-0.244 0.171c-0.104 0.041-0.226 0.061-0.367 0.061-0.143 0-0.272-0.022-0.386-0.065-0.113-0.045-0.203-0.111-0.271-0.198-0.067-0.088-0.104-0.199-0.113-0.331h-0.805c0.006 0.283 0.075 0.521 0.206 0.713 0.132 0.191 0.315 0.335 0.55 0.433 0.236 0.097 0.513 0.146 0.831 0.146 0.32 0 0.594-0.048 0.821-0.144 0.228-0.097 0.402-0.234 0.523-0.409 0.122-0.177 0.183-0.386 0.185-0.627-0.001-0.164-0.031-0.309-0.090-0.436-0.058-0.127-0.139-0.237-0.244-0.331s-0.229-0.172-0.373-0.236c-0.144-0.064-0.301-0.115-0.473-0.154l-0.354-0.085c-0.086-0.019-0.167-0.042-0.242-0.069-0.076-0.028-0.142-0.061-0.2-0.098-0.058-0.038-0.103-0.084-0.137-0.136-0.032-0.053-0.047-0.114-0.044-0.185 0-0.085 0.024-0.16 0.073-0.227 0.050-0.067 0.122-0.119 0.215-0.156 0.094-0.038 0.208-0.058 0.344-0.058 0.2 0 0.358 0.043 0.475 0.129zM19.736 11.518v0.686h1.205v3.251h0.823v-3.251h1.205v-0.686h-3.234zM10.915 20.551c0.163-0.301 0.244-0.667 0.244-1.096s-0.081-0.795-0.244-1.096c-0.161-0.301-0.382-0.531-0.661-0.688-0.278-0.159-0.591-0.238-0.938-0.238-0.35 0-0.664 0.079-0.942 0.238-0.278 0.158-0.498 0.387-0.659 0.688s-0.242 0.666-0.242 1.096c0 0.428 0.081 0.793 0.242 1.094s0.381 0.531 0.659 0.69 0.592 0.238 0.942 0.238c0.347 0 0.66-0.079 0.938-0.237 0.279-0.159 0.5-0.389 0.661-0.69zM11.775 17.487v3.937h0.832v-1.626h1.601v-0.686h-1.601v-0.938h1.774v-0.686h-2.607zM14.942 17.487v3.937h0.833v-1.626h1.601v-0.686h-1.601v-0.938h1.774v-0.686h-2.607zM18.109 17.487v3.937h2.661v-0.686h-1.828v-0.94h1.684v-0.686h-1.684v-0.938h1.821v-0.686h-2.653zM21.424 21.424h0.833v-1.396h0.608l0.746 1.396h0.919l-0.835-1.53c0.012-0.005 0.024-0.011 0.036-0.016 0.214-0.1 0.377-0.243 0.49-0.431 0.113-0.188 0.169-0.413 0.169-0.675 0-0.26-0.056-0.486-0.167-0.679-0.11-0.193-0.271-0.343-0.483-0.448-0.21-0.106-0.464-0.16-0.761-0.16h-1.553v3.937z"></path>
</svg>
