<!-- Generated by IcoMoon.io -->
<svg version="1.1" xmlns="http://www.w3.org/2000/svg" width="32" height="32" viewBox="0 0 32 32">
<path fill="#000" d="M4 16c0-6.627 5.373-12 12-12s12 5.373 12 12c0 6.627-5.373 12-12 12s-12-5.373-12-12z"></path>
<path fill="#fff" d="M9.445 15.455v-3.937h1.576c0.29 0 0.531 0.043 0.725 0.129s0.339 0.205 0.436 0.358c0.097 0.151 0.146 0.326 0.146 0.523 0 0.154-0.031 0.289-0.092 0.406-0.062 0.115-0.146 0.21-0.254 0.285-0.106 0.073-0.228 0.125-0.365 0.156v0.038c0.15 0.006 0.29 0.049 0.421 0.127 0.132 0.078 0.239 0.188 0.321 0.329 0.082 0.14 0.123 0.306 0.123 0.5 0 0.209-0.052 0.395-0.156 0.559-0.103 0.163-0.254 0.292-0.456 0.386s-0.449 0.142-0.744 0.142h-1.682zM10.277 14.775h0.679c0.232 0 0.401-0.044 0.508-0.133 0.106-0.090 0.16-0.209 0.16-0.358 0-0.109-0.026-0.205-0.079-0.288s-0.128-0.149-0.225-0.196c-0.096-0.047-0.211-0.071-0.344-0.071h-0.698v1.046zM10.277 13.166h0.617c0.114 0 0.215-0.020 0.304-0.060 0.090-0.041 0.16-0.099 0.211-0.173 0.053-0.074 0.079-0.163 0.079-0.267 0-0.142-0.051-0.257-0.152-0.344-0.1-0.087-0.242-0.131-0.427-0.131h-0.633v0.975z"></path>
<path fill="#fff" d="M13.024 15.455v-3.937h2.653v0.686h-1.821v0.938h1.684v0.686h-1.684v0.94h1.828v0.686h-2.661z"></path>
<path fill="#fff" d="M18.475 12.65c-0.015-0.155-0.081-0.276-0.198-0.361s-0.275-0.129-0.475-0.129c-0.136 0-0.251 0.019-0.344 0.058-0.094 0.037-0.165 0.089-0.215 0.156-0.049 0.067-0.073 0.142-0.073 0.227-0.003 0.070 0.012 0.132 0.044 0.185 0.033 0.053 0.079 0.098 0.137 0.136 0.058 0.037 0.124 0.070 0.2 0.098 0.076 0.027 0.156 0.050 0.242 0.069l0.354 0.085c0.172 0.038 0.329 0.090 0.473 0.154s0.268 0.143 0.373 0.236c0.105 0.094 0.187 0.204 0.244 0.331 0.059 0.127 0.089 0.272 0.090 0.436-0.001 0.241-0.063 0.45-0.185 0.627-0.121 0.176-0.295 0.312-0.523 0.409-0.227 0.096-0.501 0.144-0.821 0.144-0.318 0-0.595-0.049-0.831-0.146-0.235-0.097-0.418-0.242-0.55-0.433-0.131-0.192-0.199-0.43-0.206-0.713h0.805c0.009 0.132 0.047 0.242 0.113 0.331 0.068 0.087 0.158 0.153 0.271 0.198 0.114 0.044 0.243 0.065 0.386 0.065 0.141 0 0.263-0.020 0.367-0.061 0.105-0.041 0.187-0.098 0.244-0.171s0.087-0.157 0.087-0.252c0-0.088-0.026-0.163-0.079-0.223-0.051-0.060-0.127-0.111-0.227-0.154-0.099-0.042-0.22-0.081-0.363-0.115l-0.429-0.108c-0.332-0.081-0.594-0.207-0.786-0.379s-0.288-0.403-0.286-0.694c-0.001-0.238 0.062-0.447 0.19-0.625 0.129-0.178 0.307-0.317 0.533-0.417s0.482-0.15 0.769-0.15c0.292 0 0.547 0.050 0.765 0.15 0.219 0.1 0.39 0.239 0.511 0.417s0.185 0.384 0.188 0.619h-0.798z"></path>
<path fill="#fff" d="M19.736 12.204v-0.686h3.234v0.686h-1.205v3.251h-0.823v-3.251h-1.205z"></path>
<path fill="#fff" d="M11.159 19.455c0 0.429-0.081 0.795-0.244 1.096-0.161 0.301-0.382 0.531-0.661 0.69-0.278 0.158-0.591 0.237-0.938 0.237-0.35 0-0.664-0.079-0.942-0.238s-0.498-0.389-0.659-0.69c-0.162-0.301-0.242-0.666-0.242-1.094 0-0.429 0.081-0.795 0.242-1.096s0.381-0.531 0.659-0.688c0.278-0.159 0.592-0.238 0.942-0.238 0.347 0 0.66 0.079 0.938 0.238 0.279 0.158 0.5 0.387 0.661 0.688 0.163 0.301 0.244 0.666 0.244 1.096zM10.315 19.455c0-0.278-0.042-0.513-0.125-0.704-0.082-0.191-0.198-0.336-0.348-0.434s-0.326-0.148-0.527-0.148-0.377 0.049-0.527 0.148c-0.15 0.099-0.267 0.243-0.35 0.434-0.082 0.191-0.123 0.425-0.123 0.704s0.041 0.513 0.123 0.704c0.083 0.191 0.2 0.336 0.35 0.434s0.326 0.148 0.527 0.148c0.201 0 0.377-0.049 0.527-0.148s0.266-0.243 0.348-0.434c0.083-0.191 0.125-0.426 0.125-0.704z"></path>
<path fill="#fff" d="M11.775 21.424v-3.937h2.607v0.686h-1.774v0.938h1.601v0.686h-1.601v1.626h-0.832z"></path>
<path fill="#fff" d="M14.942 21.424v-3.937h2.607v0.686h-1.774v0.938h1.601v0.686h-1.601v1.626h-0.833z"></path>
<path fill="#fff" d="M18.109 21.424v-3.937h2.653v0.686h-1.821v0.938h1.684v0.686h-1.684v0.94h1.828v0.686h-2.661z"></path>
<path fill="#fff" d="M21.424 21.424v-3.937h1.553c0.297 0 0.551 0.053 0.761 0.16 0.211 0.105 0.372 0.254 0.483 0.448 0.112 0.192 0.167 0.418 0.167 0.679 0 0.261-0.056 0.486-0.169 0.675-0.113 0.187-0.276 0.331-0.49 0.431-0.213 0.1-0.47 0.15-0.773 0.15h-1.040v-0.669h0.905c0.159 0 0.291-0.022 0.396-0.065s0.183-0.109 0.235-0.196c0.053-0.087 0.079-0.195 0.079-0.325 0-0.131-0.026-0.241-0.079-0.331-0.051-0.090-0.13-0.158-0.236-0.204-0.105-0.047-0.238-0.071-0.398-0.071h-0.561v3.257h-0.833zM23.55 19.632l0.979 1.792h-0.919l-0.957-1.792h0.898z"></path>
</svg>
