<!-- Generated by IcoMoon.io -->
<svg version="1.1" xmlns="http://www.w3.org/2000/svg" width="32" height="32" viewBox="0 0 32 32">
<path d="M23.337 23.64c1.345 0 2.443-1.114 2.443-2.477 0-1.646-2.443-4.333-2.443-4.333s-2.443 2.686-2.443 4.333c0 1.363 1.099 2.477 2.443 2.477zM11.733 22.283c0.218 0.218 0.572 0.218 0.788 0l7.881-7.878c0.219-0.219 0.219-0.572 0-0.788l-7.878-7.878c-0.018-0.018-0.040-0.037-0.062-0.052l-2.406-2.406c-0.052-0.052-0.123-0.081-0.197-0.081s-0.144 0.029-0.197 0.081l-1.477 1.477c-0.052 0.052-0.081 0.123-0.081 0.197s0.029 0.144 0.081 0.197l2.068 2.068-6.394 6.397c-0.218 0.218-0.218 0.572 0 0.788l7.875 7.878zM12.13 8.478l5.505 5.505h-11.007l5.502-5.505zM27.571 25.846h-24.125c-0.135 0-0.246 0.111-0.246 0.246v2.462c0 0.136 0.111 0.246 0.246 0.246h24.125c0.135 0 0.246-0.111 0.246-0.246v-2.462c0-0.135-0.111-0.246-0.246-0.246z"></path>
</svg>
