<!-- Generated by IcoMoon.io -->
<svg version="1.1" xmlns="http://www.w3.org/2000/svg" width="32" height="32" viewBox="0 0 32 32">
<path d="M28.231 11.164h-7.396v-7.396c0-0.313-0.256-0.569-0.569-0.569h-16.498c-0.313 0-0.569 0.256-0.569 0.569v16.498c0 0.313 0.256 0.569 0.569 0.569h7.396v7.396c0 0.313 0.256 0.569 0.569 0.569h16.498c0.313 0 0.569-0.256 0.569-0.569v-16.498c0-0.313-0.256-0.569-0.569-0.569zM11.164 11.733v6.684h-5.547v-12.8h12.8v5.547h-6.684c-0.313 0-0.569 0.256-0.569 0.569zM18.418 13.582v4.836h-4.836v-4.836h4.836zM26.382 26.382h-12.8v-5.547h6.684c0.313 0 0.569-0.256 0.569-0.569v-6.684h5.547v12.8z"></path>
</svg>
