<!-- Generated by IcoMoon.io -->
<svg version="1.1" xmlns="http://www.w3.org/2000/svg" width="32" height="32" viewBox="0 0 32 32">
<title>bold</title>
<path d="M22.602 15.005c1.169-1.217 1.885-2.863 1.885-4.671v-0.355c0-3.743-3.064-6.779-6.842-6.779h-10.292c-0.525 0-0.953 0.428-0.953 0.953v23.621c0 0.567 0.459 1.026 1.026 1.026h11.085c4.069 0 7.367-3.276 7.367-7.322v-0.383c0-2.539-1.301-4.776-3.276-6.090zM9.739 6.539h7.816c1.986 0 3.593 1.544 3.593 3.454v0.33c0 1.906-1.61 3.454-3.593 3.454h-7.816v-7.238zM22.49 21.475c0 2.188-1.798 3.962-4.017 3.962h-8.734v-8.299h8.734c2.219 0 4.017 1.774 4.017 3.962v0.376z"></path>
</svg>
