<!-- Generated by IcoMoon.io -->
<svg version="1.1" xmlns="http://www.w3.org/2000/svg" width="32" height="32" viewBox="0 0 32 32">
<path d="M25.6 3.2h-18.286c-0.506 0-0.914 0.409-0.914 0.914v23.771c0 0.506 0.409 0.914 0.914 0.914h18.286c0.506 0 0.914-0.409 0.914-0.914v-23.771c0-0.506-0.408-0.914-0.914-0.914zM18.171 5.257h2.743v5.997l-1.328-0.969-1.414 1.011v-6.040zM24.457 26.743h-16v-21.486h8v8.483c0 0.094 0.029 0.189 0.086 0.266 0.035 0.049 0.079 0.091 0.13 0.123s0.108 0.053 0.167 0.063c0.059 0.010 0.12 0.008 0.178-0.006s0.114-0.039 0.162-0.074l2.394-1.711 2.326 1.697c0.077 0.057 0.171 0.089 0.269 0.089 0.251 0 0.457-0.206 0.457-0.457v-8.471h1.828v21.486h0.003z"></path>
</svg>
