<!-- Generated by IcoMoon.io -->
<svg version="1.1" xmlns="http://www.w3.org/2000/svg" width="32" height="32" viewBox="0 0 32 32">
<path d="M16.974 3.2h-1.948c-0.153 0-0.278 0.125-0.278 0.278v25.044c0 0.153 0.125 0.278 0.278 0.278h1.948c0.153 0 0.278-0.125 0.278-0.278v-25.044c0-0.153-0.125-0.278-0.278-0.278zM11.2 3.2h-1.948c-0.153 0-0.278 0.125-0.278 0.278v1.948c0 0.153 0.125 0.278 0.278 0.278h1.948c0.153 0 0.278-0.125 0.278-0.278v-1.948c0-0.153-0.125-0.278-0.278-0.278zM28.522 3.2h-1.948c-0.153 0-0.278 0.125-0.278 0.278v1.948c0 0.153 0.125 0.278 0.278 0.278h1.948c0.153 0 0.278-0.125 0.278-0.278v-1.948c0-0.153-0.125-0.278-0.278-0.278zM5.426 3.2h-1.948c-0.153 0-0.278 0.125-0.278 0.278v1.948c0 0.153 0.125 0.278 0.278 0.278h1.948c0.153 0 0.278-0.125 0.278-0.278v-1.948c0-0.153-0.125-0.278-0.278-0.278zM22.748 3.2h-1.948c-0.153 0-0.278 0.125-0.278 0.278v1.948c0 0.153 0.125 0.278 0.278 0.278h1.948c0.153 0 0.278-0.125 0.278-0.278v-1.948c0-0.153-0.125-0.278-0.278-0.278zM5.426 8.974h-1.948c-0.153 0-0.278 0.125-0.278 0.278v1.948c0 0.153 0.125 0.278 0.278 0.278h1.948c0.153 0 0.278-0.125 0.278-0.278v-1.948c0-0.153-0.125-0.278-0.278-0.278zM28.522 8.974h-1.948c-0.153 0-0.278 0.125-0.278 0.278v1.948c0 0.153 0.125 0.278 0.278 0.278h1.948c0.153 0 0.278-0.125 0.278-0.278v-1.948c0-0.153-0.125-0.278-0.278-0.278zM28.522 20.522h-1.948c-0.153 0-0.278 0.125-0.278 0.278v1.948c0 0.153 0.125 0.278 0.278 0.278h1.948c0.153 0 0.278-0.125 0.278-0.278v-1.948c0-0.153-0.125-0.278-0.278-0.278zM5.426 20.522h-1.948c-0.153 0-0.278 0.125-0.278 0.278v1.948c0 0.153 0.125 0.278 0.278 0.278h1.948c0.153 0 0.278-0.125 0.278-0.278v-1.948c0-0.153-0.125-0.278-0.278-0.278zM5.426 26.296h-1.948c-0.153 0-0.278 0.125-0.278 0.278v1.948c0 0.153 0.125 0.278 0.278 0.278h1.948c0.153 0 0.278-0.125 0.278-0.278v-1.948c0-0.153-0.125-0.278-0.278-0.278zM5.426 14.748h-1.948c-0.153 0-0.278 0.125-0.278 0.278v1.948c0 0.153 0.125 0.278 0.278 0.278h1.948c0.153 0 0.278-0.125 0.278-0.278v-1.948c0-0.153-0.125-0.278-0.278-0.278zM28.522 26.296h-1.948c-0.153 0-0.278 0.125-0.278 0.278v1.948c0 0.153 0.125 0.278 0.278 0.278h1.948c0.153 0 0.278-0.125 0.278-0.278v-1.948c0-0.153-0.125-0.278-0.278-0.278zM28.522 14.748h-1.948c-0.153 0-0.278 0.125-0.278 0.278v1.948c0 0.153 0.125 0.278 0.278 0.278h1.948c0.153 0 0.278-0.125 0.278-0.278v-1.948c0-0.153-0.125-0.278-0.278-0.278zM11.2 26.296h-1.948c-0.153 0-0.278 0.125-0.278 0.278v1.948c0 0.153 0.125 0.278 0.278 0.278h1.948c0.153 0 0.278-0.125 0.278-0.278v-1.948c0-0.153-0.125-0.278-0.278-0.278zM11.2 14.748h-1.948c-0.153 0-0.278 0.125-0.278 0.278v1.948c0 0.153 0.125 0.278 0.278 0.278h1.948c0.153 0 0.278-0.125 0.278-0.278v-1.948c0-0.153-0.125-0.278-0.278-0.278zM22.748 26.296h-1.948c-0.153 0-0.278 0.125-0.278 0.278v1.948c0 0.153 0.125 0.278 0.278 0.278h1.948c0.153 0 0.278-0.125 0.278-0.278v-1.948c0-0.153-0.125-0.278-0.278-0.278zM22.748 14.748h-1.948c-0.153 0-0.278 0.125-0.278 0.278v1.948c0 0.153 0.125 0.278 0.278 0.278h1.948c0.153 0 0.278-0.125 0.278-0.278v-1.948c0-0.153-0.125-0.278-0.278-0.278z"></path>
</svg>
