<!-- Generated by IcoMoon.io -->
<svg version="1.1" xmlns="http://www.w3.org/2000/svg" width="32" height="32" viewBox="0 0 32 32">
<path d="M27.776 3.2h-23.552c-0.566 0-1.024 0.458-1.024 1.024v23.552c0 0.566 0.458 1.024 1.024 1.024h23.552c0.566 0 1.024-0.458 1.024-1.024v-23.552c0-0.566-0.458-1.024-1.024-1.024zM26.496 26.496h-20.992v-20.992h20.992v20.992zM15.104 11.328h1.792c0.141 0 0.256-0.115 0.256-0.256v-1.792c0-0.141-0.115-0.256-0.256-0.256h-1.792c-0.141 0-0.256 0.115-0.256 0.256v1.792c0 0.141 0.115 0.256 0.256 0.256zM9.28 17.152h1.792c0.141 0 0.256-0.115 0.256-0.256v-1.792c0-0.141-0.115-0.256-0.256-0.256h-1.792c-0.141 0-0.256 0.115-0.256 0.256v1.792c0 0.141 0.115 0.256 0.256 0.256zM20.928 17.152h1.792c0.141 0 0.256-0.115 0.256-0.256v-1.792c0-0.141-0.115-0.256-0.256-0.256h-1.792c-0.141 0-0.256 0.115-0.256 0.256v1.792c0 0.141 0.115 0.256 0.256 0.256zM15.104 17.152h1.792c0.141 0 0.256-0.115 0.256-0.256v-1.792c0-0.141-0.115-0.256-0.256-0.256h-1.792c-0.141 0-0.256 0.115-0.256 0.256v1.792c0 0.141 0.115 0.256 0.256 0.256zM15.104 22.976h1.792c0.141 0 0.256-0.115 0.256-0.256v-1.792c0-0.141-0.115-0.256-0.256-0.256h-1.792c-0.141 0-0.256 0.115-0.256 0.256v1.792c0 0.141 0.115 0.256 0.256 0.256z"></path>
</svg>
