<!-- Generated by IcoMoon.io -->
<svg version="1.1" xmlns="http://www.w3.org/2000/svg" width="32" height="32" viewBox="0 0 32 32">
<title>borde-rinner</title>
<path d="M28.522 14.748h-11.27v-11.548h-2.504v11.548h-11.27c-0.153 0-0.278 0.125-0.278 0.278v1.948c0 0.153 0.125 0.278 0.278 0.278h11.27v11.548h2.504v-11.548h11.27c0.153 0 0.278-0.125 0.278-0.278v-1.948c0-0.153-0.125-0.278-0.278-0.278zM28.522 8.974h-1.948c-0.153 0-0.278 0.125-0.278 0.278v1.948c0 0.153 0.125 0.278 0.278 0.278h1.948c0.153 0 0.278-0.125 0.278-0.278v-1.948c0-0.153-0.125-0.278-0.278-0.278zM28.522 26.296h-1.948c-0.153 0-0.278 0.125-0.278 0.278v1.948c0 0.153 0.125 0.278 0.278 0.278h1.948c0.153 0 0.278-0.125 0.278-0.278v-1.948c0-0.153-0.125-0.278-0.278-0.278zM28.522 3.2h-1.948c-0.153 0-0.278 0.125-0.278 0.278v1.948c0 0.153 0.125 0.278 0.278 0.278h1.948c0.153 0 0.278-0.125 0.278-0.278v-1.948c0-0.153-0.125-0.278-0.278-0.278zM28.522 20.522h-1.948c-0.153 0-0.278 0.125-0.278 0.278v1.948c0 0.153 0.125 0.278 0.278 0.278h1.948c0.153 0 0.278-0.125 0.278-0.278v-1.948c0-0.153-0.125-0.278-0.278-0.278zM20.8 5.704h1.948c0.153 0 0.278-0.125 0.278-0.278v-1.948c0-0.153-0.125-0.278-0.278-0.278h-1.948c-0.153 0-0.278 0.125-0.278 0.278v1.948c0 0.153 0.125 0.278 0.278 0.278zM22.748 26.296h-1.948c-0.153 0-0.278 0.125-0.278 0.278v1.948c0 0.153 0.125 0.278 0.278 0.278h1.948c0.153 0 0.278-0.125 0.278-0.278v-1.948c0-0.153-0.125-0.278-0.278-0.278zM11.2 26.296h-1.948c-0.153 0-0.278 0.125-0.278 0.278v1.948c0 0.153 0.125 0.278 0.278 0.278h1.948c0.153 0 0.278-0.125 0.278-0.278v-1.948c0-0.153-0.125-0.278-0.278-0.278zM9.252 5.704h1.948c0.153 0 0.278-0.125 0.278-0.278v-1.948c0-0.153-0.125-0.278-0.278-0.278h-1.948c-0.153 0-0.278 0.125-0.278 0.278v1.948c0 0.153 0.125 0.278 0.278 0.278zM3.478 5.704h1.948c0.153 0 0.278-0.125 0.278-0.278v-1.948c0-0.153-0.125-0.278-0.278-0.278h-1.948c-0.153 0-0.278 0.125-0.278 0.278v1.948c0 0.153 0.125 0.278 0.278 0.278zM5.426 26.296h-1.948c-0.153 0-0.278 0.125-0.278 0.278v1.948c0 0.153 0.125 0.278 0.278 0.278h1.948c0.153 0 0.278-0.125 0.278-0.278v-1.948c0-0.153-0.125-0.278-0.278-0.278zM3.478 11.478h1.948c0.153 0 0.278-0.125 0.278-0.278v-1.948c0-0.153-0.125-0.278-0.278-0.278h-1.948c-0.153 0-0.278 0.125-0.278 0.278v1.948c0 0.153 0.125 0.278 0.278 0.278zM5.426 20.522h-1.948c-0.153 0-0.278 0.125-0.278 0.278v1.948c0 0.153 0.125 0.278 0.278 0.278h1.948c0.153 0 0.278-0.125 0.278-0.278v-1.948c0-0.153-0.125-0.278-0.278-0.278z"></path>
</svg>
