<!-- Generated by IcoMoon.io -->
<svg version="1.1" xmlns="http://www.w3.org/2000/svg" width="32" height="32" viewBox="0 0 32 32">
<path d="M28.522 26.296h-25.044c-0.153 0-0.278 0.125-0.278 0.278v1.948c0 0.153 0.125 0.278 0.278 0.278h25.044c0.153 0 0.278-0.125 0.278-0.278v-1.948c0-0.153-0.125-0.278-0.278-0.278zM3.478 23.026h1.948c0.153 0 0.278-0.125 0.278-0.278v-1.948c0-0.153-0.125-0.278-0.278-0.278h-1.948c-0.153 0-0.278 0.125-0.278 0.278v1.948c0 0.153 0.125 0.278 0.278 0.278zM3.478 5.704h1.948c0.153 0 0.278-0.125 0.278-0.278v-1.948c0-0.153-0.125-0.278-0.278-0.278h-1.948c-0.153 0-0.278 0.125-0.278 0.278v1.948c0 0.153 0.125 0.278 0.278 0.278zM3.478 17.252h1.948c0.153 0 0.278-0.125 0.278-0.278v-1.948c0-0.153-0.125-0.278-0.278-0.278h-1.948c-0.153 0-0.278 0.125-0.278 0.278v1.948c0 0.153 0.125 0.278 0.278 0.278zM3.478 11.478h1.948c0.153 0 0.278-0.125 0.278-0.278v-1.948c0-0.153-0.125-0.278-0.278-0.278h-1.948c-0.153 0-0.278 0.125-0.278 0.278v1.948c0 0.153 0.125 0.278 0.278 0.278zM9.252 17.252h1.948c0.153 0 0.278-0.125 0.278-0.278v-1.948c0-0.153-0.125-0.278-0.278-0.278h-1.948c-0.153 0-0.278 0.125-0.278 0.278v1.948c0 0.153 0.125 0.278 0.278 0.278zM9.252 5.704h1.948c0.153 0 0.278-0.125 0.278-0.278v-1.948c0-0.153-0.125-0.278-0.278-0.278h-1.948c-0.153 0-0.278 0.125-0.278 0.278v1.948c0 0.153 0.125 0.278 0.278 0.278zM20.8 5.704h1.948c0.153 0 0.278-0.125 0.278-0.278v-1.948c0-0.153-0.125-0.278-0.278-0.278h-1.948c-0.153 0-0.278 0.125-0.278 0.278v1.948c0 0.153 0.125 0.278 0.278 0.278zM20.8 17.252h1.948c0.153 0 0.278-0.125 0.278-0.278v-1.948c0-0.153-0.125-0.278-0.278-0.278h-1.948c-0.153 0-0.278 0.125-0.278 0.278v1.948c0 0.153 0.125 0.278 0.278 0.278zM28.522 14.748h-1.948c-0.153 0-0.278 0.125-0.278 0.278v1.948c0 0.153 0.125 0.278 0.278 0.278h1.948c0.153 0 0.278-0.125 0.278-0.278v-1.948c0-0.153-0.125-0.278-0.278-0.278zM15.026 17.252h1.948c0.153 0 0.278-0.125 0.278-0.278v-1.948c0-0.153-0.125-0.278-0.278-0.278h-1.948c-0.153 0-0.278 0.125-0.278 0.278v1.948c0 0.153 0.125 0.278 0.278 0.278zM28.522 3.2h-1.948c-0.153 0-0.278 0.125-0.278 0.278v1.948c0 0.153 0.125 0.278 0.278 0.278h1.948c0.153 0 0.278-0.125 0.278-0.278v-1.948c0-0.153-0.125-0.278-0.278-0.278zM15.026 5.704h1.948c0.153 0 0.278-0.125 0.278-0.278v-1.948c0-0.153-0.125-0.278-0.278-0.278h-1.948c-0.153 0-0.278 0.125-0.278 0.278v1.948c0 0.153 0.125 0.278 0.278 0.278zM28.522 20.522h-1.948c-0.153 0-0.278 0.125-0.278 0.278v1.948c0 0.153 0.125 0.278 0.278 0.278h1.948c0.153 0 0.278-0.125 0.278-0.278v-1.948c0-0.153-0.125-0.278-0.278-0.278zM15.026 23.026h1.948c0.153 0 0.278-0.125 0.278-0.278v-1.948c0-0.153-0.125-0.278-0.278-0.278h-1.948c-0.153 0-0.278 0.125-0.278 0.278v1.948c0 0.153 0.125 0.278 0.278 0.278zM28.522 8.974h-1.948c-0.153 0-0.278 0.125-0.278 0.278v1.948c0 0.153 0.125 0.278 0.278 0.278h1.948c0.153 0 0.278-0.125 0.278-0.278v-1.948c0-0.153-0.125-0.278-0.278-0.278zM15.026 11.478h1.948c0.153 0 0.278-0.125 0.278-0.278v-1.948c0-0.153-0.125-0.278-0.278-0.278h-1.948c-0.153 0-0.278 0.125-0.278 0.278v1.948c0 0.153 0.125 0.278 0.278 0.278z"></path>
</svg>
