<!-- Generated by IcoMoon.io -->
<svg version="1.1" xmlns="http://www.w3.org/2000/svg" width="32" height="32" viewBox="0 0 32 32">
<path d="M24.8 25.76v1.12c0 0 0 0.16 0 0.16s0 0.16 0.16 0.16 0.16 0.16 0.16 0.16 0.16 0 0.16 0h2.080c0.16 0 0.32 0 0.32-0.16 0.16-0.16 0.16-0.32 0.16-0.32v-2.24c-0.32 0.32-0.8 0.64-1.28 0.8s-0.96 0.32-1.44 0.32h-0.32z"></path>
<path d="M3.84 24.64v2.24c0 0.16 0 0.32 0.16 0.32 0.16 0.16 0.32 0.16 0.32 0.16h2.080c0.16 0 0.32 0 0.32-0.16 0.16-0.16 0.16-0.32 0.16-0.32v-1.12h-0.16c-0.48 0-0.96 0-1.44-0.32-0.64-0.16-0.96-0.48-1.44-0.8v0z"></path>
<path d="M3.84 22.4c0 1.6 1.12 2.56 2.72 2.56h18.72c1.6 0 2.72-0.96 2.72-2.56v-0.48h-24.16c0 0 0 0.48 0 0.48z"></path>
<path d="M28.64 12.32c-0.16-0.16-0.16-0.16-0.32-0.16v0l-1.44-0.32c-0.16 0-0.16 0-0.32 0s-0.16 0.16-0.16 0.32l-0.48 0.96-0.16-0.32-0.96-2.4c0.8-0.64 1.12-1.44 1.12-2.56 0-1.76-1.44-3.36-3.36-3.36-1.76 0-3.36 1.44-3.36 3.36-1.12-0.16-2.24-0.16-3.36-0.16-2.080 0-4.16 0.16-6.4 0.48-0.32 0.16-0.8 0.32-1.12 0.64-0.48 0.32-0.8 0.8-0.96 1.28l-1.12 2.72-0.16 0.32-0.48-0.96c0-0.16-0.16-0.16-0.16-0.32-0.16 0-0.16 0-0.32 0l-1.44 0.32c-0.16 0-0.32 0.16-0.32 0.16-0.16 0-0.16 0.16-0.16 0.32v0.32c0 0.16 0 0.32 0.16 0.32 0 0.16 0.16 0.16 0.32 0.16l1.92 0.48-0.96 1.28c-0.48 0.64-0.64 1.6-0.64 2.4v3.36h24.16v-3.36c0-0.8-0.32-1.6-0.64-2.4l-0.96-1.44 1.92-0.48c0.16 0 0.16-0.16 0.32-0.16 0 0 0 0 0-0.16v-0.32c0-0.16 0-0.32-0.16-0.32zM20.48 7.2h1.6v-1.6c0-0.32 0.32-0.64 0.64-0.64s0.64 0.32 0.64 0.64v1.6h1.6c0.32 0 0.64 0.32 0.64 0.64s-0.32 0.64-0.64 0.64h-1.6v1.6c0 0.32-0.32 0.64-0.64 0.64s-0.64-0.32-0.64-0.64v-1.6h-1.6c-0.32 0-0.64-0.32-0.64-0.64s0.16-0.64 0.64-0.64zM8.16 10.4v0c0.16-0.32 0.32-0.64 0.64-0.8s0.64-0.32 0.96-0.48c2.080-0.32 4.16-0.48 6.24-0.48 1.12 0 2.24 0 3.36 0.16 0.32 1.44 1.6 2.56 3.2 2.56 0.48 0 0.96-0.16 1.44-0.32l0.64 1.6h-17.6l1.12-2.24zM6.4 18.4v0c-0.16 0-0.32-0.16-0.48-0.16-0.16-0.16-0.16-0.32-0.32-0.48 0-0.16 0-0.32 0-0.64 0-0.48 0.16-0.8 0.48-0.8 0 0 2.24 0.16 2.4 0.16s1.44 2.24 1.44 2.24l-3.52-0.32zM20.32 19.2l-4.32 0.16-4.32-0.16-1.12-2.24c0 0 3.84 0.32 5.44 0.32s5.44-0.32 5.44-0.32l-1.12 2.24zM26.24 17.76v0c0 0.16-0.16 0.32-0.32 0.48s-0.32 0.16-0.48 0.16l-3.68 0.48c0 0 1.12-2.080 1.44-2.24s2.4-0.16 2.4-0.16c0.32 0 0.48 0.32 0.48 0.8 0.32 0.16 0.32 0.32 0.16 0.48z"></path>
</svg>
