<!-- Generated by IcoMoon.io -->
<svg version="1.1" xmlns="http://www.w3.org/2000/svg" width="32" height="32" viewBox="0 0 32 32">
<path d="M12.001 3.202h-5.6c-0.848 0.003-1.66 0.341-2.26 0.94s-0.938 1.412-0.94 2.26v5.6c0.003 0.848 0.34 1.66 0.94 2.26s1.412 0.938 2.26 0.94h5.6c0.848-0.003 1.66-0.34 2.26-0.94s0.938-1.412 0.94-2.26v-5.6c-0.003-0.848-0.341-1.66-0.94-2.26s-1.412-0.938-2.26-0.94zM12.001 12.002h-5.6v-5.6h5.6v5.6zM27.201 7.602c-0.424 0-0.831 0.169-1.131 0.469s-0.469 0.707-0.469 1.131v2.8h-5.6v-5.6h2.8c0.424 0 0.831-0.169 1.131-0.469s0.469-0.707 0.469-1.131-0.169-0.831-0.469-1.131c-0.3-0.3-0.707-0.469-1.131-0.469h-2.8c-0.848 0.003-1.66 0.341-2.26 0.94s-0.938 1.412-0.94 2.26v5.6c0.002 0.848 0.34 1.66 0.94 2.26s1.412 0.938 2.26 0.94h5.6c0.848-0.003 1.66-0.34 2.26-0.94s0.938-1.412 0.94-2.26v-2.8c0-0.424-0.169-0.831-0.469-1.131s-0.707-0.469-1.131-0.469zM12.001 16.802h-5.6c-0.848 0.002-1.66 0.34-2.26 0.94s-0.938 1.412-0.94 2.26v5.6c0.003 0.848 0.34 1.66 0.94 2.26s1.412 0.938 2.26 0.94h5.6c0.848-0.003 1.66-0.34 2.26-0.94s0.938-1.412 0.94-2.26v-5.6c-0.003-0.848-0.341-1.66-0.94-2.26s-1.412-0.938-2.26-0.94zM12.001 25.602h-5.6v-5.6h5.6v5.6zM25.601 16.802h-5.6c-0.848 0.002-1.66 0.34-2.26 0.94s-0.938 1.412-0.94 2.26v5.6c0.002 0.848 0.34 1.66 0.94 2.26s1.412 0.938 2.26 0.94h5.6c0.848-0.003 1.66-0.34 2.26-0.94s0.938-1.412 0.94-2.26v-5.6c-0.003-0.848-0.34-1.66-0.94-2.26s-1.412-0.938-2.26-0.94zM25.601 25.602h-5.6v-5.6h5.6v5.6z"></path>
</svg>
