<!-- Generated by IcoMoon.io -->
<svg version="1.1" xmlns="http://www.w3.org/2000/svg" width="32" height="32" viewBox="0 0 32 32">
<title>branches</title>
<path d="M22.444 5.095c-1.92 0-3.479 1.559-3.479 3.479 0 1.556 1.028 2.877 2.439 3.321v2.979l-12.006 3.933v-8.832c1.373-0.466 2.361-1.768 2.361-3.296 0-1.92-1.559-3.479-3.479-3.479s-3.479 1.559-3.479 3.479c0 1.528 0.988 2.827 2.361 3.296v12.050c-1.373 0.466-2.361 1.768-2.361 3.296 0 1.92 1.559 3.479 3.479 3.479s3.479-1.559 3.479-3.479c0-1.528-0.988-2.827-2.361-3.296v-0.864l13.156-4.309c0.316-0.103 0.591-0.303 0.786-0.572s0.299-0.593 0.298-0.925v-3.513c1.333-0.491 2.286-1.771 2.286-3.268 0-1.92-1.56-3.479-3.479-3.479zM6.788 6.679c0.008-0.39 0.169-0.762 0.447-1.035s0.653-0.426 1.044-0.426c0.39 0 0.765 0.153 1.044 0.426s0.439 0.645 0.447 1.035c-0.008 0.39-0.169 0.762-0.447 1.035s-0.653 0.426-1.044 0.426c-0.39 0-0.765-0.153-1.044-0.426s-0.439-0.645-0.447-1.035v0zM9.77 25.318c-0.008 0.39-0.169 0.762-0.447 1.035s-0.653 0.426-1.044 0.426c-0.39 0-0.765-0.153-1.044-0.426s-0.439-0.645-0.447-1.035c0.008-0.39 0.169-0.762 0.447-1.035s0.653-0.426 1.044-0.426c0.39 0 0.765 0.153 1.044 0.426s0.439 0.645 0.447 1.035zM22.444 10.065c-0.39-0.008-0.762-0.169-1.035-0.447s-0.426-0.653-0.426-1.044c0-0.39 0.153-0.765 0.426-1.044s0.645-0.439 1.035-0.447c0.39 0.008 0.762 0.169 1.035 0.447s0.426 0.654 0.426 1.044c0 0.39-0.153 0.765-0.426 1.044s-0.645 0.439-1.035 0.447v0z"></path>
</svg>
