<!-- Generated by IcoMoon.io -->
<svg version="1.1" xmlns="http://www.w3.org/2000/svg" width="32" height="32" viewBox="0 0 32 32">
<title>bug</title>
<path d="M9.716 9.373h1.6c0.126 0 0.229-0.103 0.229-0.229 0-0.809 0.169-1.52 0.489-2.1 0.303-0.554 0.743-0.994 1.297-1.297 0.583-0.317 1.292-0.489 2.1-0.489h0.457c0.809 0 1.52 0.169 2.1 0.489 0.554 0.303 0.994 0.743 1.297 1.297 0.317 0.583 0.489 1.292 0.489 2.1 0 0.126 0.103 0.229 0.229 0.229h1.6c0.126 0 0.229-0.103 0.229-0.229 0-1.143-0.252-2.192-0.74-3.089-0.486-0.894-1.22-1.629-2.115-2.115-0.897-0.489-1.946-0.74-3.089-0.74h-0.457c-1.143 0-2.192 0.251-3.089 0.74-0.894 0.486-1.629 1.22-2.115 2.115-0.489 0.897-0.74 1.946-0.74 3.089 0 0.126 0.103 0.229 0.229 0.229z"></path>
<path d="M27.891 15.997h-4.229v-2.858c2.195 0 3.972-1.777 3.972-3.972 0-0.126-0.103-0.229-0.229-0.229h-1.715c-0.126 0-0.229 0.103-0.229 0.229 0 0.477-0.19 0.935-0.527 1.273s-0.796 0.527-1.273 0.527h-16.003c-0.478 0-0.935-0.19-1.273-0.527s-0.527-0.796-0.527-1.273c0-0.126-0.103-0.229-0.229-0.229h-1.715c-0.126 0-0.229 0.103-0.229 0.229 0 2.195 1.777 3.972 3.972 3.972v2.858h-4.229c-0.126 0-0.229 0.103-0.229 0.229v1.6c0 0.126 0.103 0.228 0.229 0.228h4.229v2.744c0 0.186 0.006 0.372 0.020 0.552-1.96 0.837-3.335 2.783-3.335 5.050 0 0.126 0.103 0.229 0.229 0.229h1.6c0.126 0 0.229-0.103 0.229-0.229 0-1.263 0.683-2.369 1.703-2.964 0.169 0.487 0.387 0.956 0.649 1.4 0.694 1.186 1.686 2.178 2.872 2.872s2.563 1.092 4.035 1.092c1.472 0 2.852-0.397 4.038-1.092 1.642-0.962 2.89-2.476 3.521-4.272 0.518 0.302 0.947 0.735 1.245 1.255s0.455 1.109 0.455 1.709c0 0.126 0.103 0.229 0.229 0.229h1.6c0.126 0 0.229-0.103 0.229-0.229 0-2.266-1.375-4.212-3.335-5.050 0.012-0.183 0.020-0.366 0.020-0.552v-2.744h4.229c0.126 0 0.229-0.103 0.229-0.228v-1.6c0-0.126-0.103-0.229-0.229-0.229zM21.489 20.798c0 1.052-0.277 2.058-0.794 2.941-0.506 0.866-1.229 1.589-2.095 2.095-0.883 0.517-1.889 0.794-2.941 0.794s-2.058-0.277-2.941-0.794c-0.866-0.506-1.589-1.229-2.095-2.095-0.522-0.892-0.797-1.907-0.794-2.941v-7.659h11.66v7.659z"></path>
</svg>
