<!-- Generated by IcoMoon.io -->
<svg version="1.1" xmlns="http://www.w3.org/2000/svg" width="32" height="32" viewBox="0 0 32 32">
<path d="M19.2 26.743h-6.857c-0.126 0-0.229 0.103-0.229 0.228v0.914c0 0.506 0.409 0.914 0.914 0.914h5.486c0.506 0 0.914-0.409 0.914-0.914v-0.914c0-0.126-0.103-0.228-0.229-0.228zM15.771 3.2c-5.174 0-9.371 4.197-9.371 9.371 0 3.469 1.886 6.497 4.686 8.117v3.311c0 0.506 0.409 0.914 0.914 0.914h7.543c0.506 0 0.914-0.408 0.914-0.914v-3.311c2.8-1.62 4.686-4.649 4.686-8.117 0-5.174-4.197-9.371-9.371-9.371zM19.426 18.909l-1.026 0.594v3.354h-5.257v-3.354l-1.026-0.594c-2.249-1.3-3.66-3.694-3.66-6.337 0-4.040 3.274-7.314 7.314-7.314s7.314 3.274 7.314 7.314c0 2.643-1.412 5.037-3.66 6.337z"></path>
</svg>
