<!-- Generated by IcoMoon.io -->
<svg version="1.1" xmlns="http://www.w3.org/2000/svg" width="32" height="32" viewBox="0 0 32 32">
<path d="M25.29 18.928c-0.116-0.194-1.265-0.69-1.265-0.69 0.2-0.103 0.336-0.125 0.336-0.551 0-0.465-0.002-0.621-0.313-0.621h-1.053c-0.004-0.009-0.009-0.019-0.013-0.029-0.68-1.484-0.771-1.859-1.784-2.364-1.36-0.676-3.908-0.71-4.908-0.71s-3.548 0.034-4.906 0.71c-1.015 0.504-0.989 0.764-1.784 2.364 0 0.004-0.008 0.015-0.016 0.029h-1.054c-0.308 0-0.31 0.155-0.31 0.621 0 0.427 0.137 0.448 0.336 0.551 0 0-1.11 0.535-1.265 0.69s-0.31 1.241-0.31 3.103c0 1.862 0.155 3.724 0.155 3.724h0.463c0 0.543 0.080 0.621 0.313 0.621h3.103c0.233 0 0.31-0.078 0.31-0.621h9.93c0 0.543 0.077 0.621 0.31 0.621h3.181c0.155 0 0.233-0.116 0.233-0.621h0.465c0 0 0.155-1.901 0.155-3.724s-0.194-2.909-0.31-3.103zM11.22 20.672c-0.706 0.077-1.416 0.117-2.127 0.119-0.792 0-0.819 0.051-0.875-0.444-0.021-0.226-0.014-0.454 0.020-0.679l0.024-0.118h0.116c0.465 0 0.903 0.020 1.728 0.263 0.42 0.126 0.815 0.324 1.167 0.584 0.169 0.123 0.208 0.239 0.208 0.239l-0.261 0.036zM20.807 23.464l-0.171 0.429h-8.689c0 0 0.015-0.024-0.194-0.434-0.155-0.303 0.039-0.497 0.346-0.607 0.594-0.214 2.331-0.821 4.193-0.821s3.633 0.523 4.208 0.821c0.213 0.11 0.478 0.188 0.307 0.614v-0.002zM10.838 18.169c-0.125 0.007-0.251 0.008-0.376 0.003 0.101-0.18 0.157-0.38 0.256-0.59 0.31-0.659 0.665-1.406 1.297-1.72 0.913-0.455 2.806-0.659 4.276-0.659s3.363 0.203 4.276 0.659c0.632 0.314 0.985 1.061 1.297 1.72 0.1 0.211 0.155 0.413 0.259 0.595-0.078 0.004-0.167 0-0.38-0.007h-10.905zM24.325 20.345c-0.083 0.484-0.005 0.445-0.836 0.445-0.711-0.002-1.421-0.042-2.127-0.119-0.111-0.020-0.142-0.206-0.054-0.275 0.351-0.264 0.746-0.461 1.167-0.584 0.825-0.243 1.29-0.276 1.749-0.26 0.031 0.001 0.060 0.014 0.082 0.035s0.036 0.050 0.038 0.081c0.022 0.226 0.016 0.453-0.019 0.678v-0.001z"></path>
<path d="M24.445 15.126c0.010-0.015 0.023-0.029 0.028-0.045 0.047-0.144 0.092-0.289 0.138-0.434 0.028-0.089 0.057-0.178 0.085-0.268 0.026-0.085 0.081-0.139 0.165-0.165 0.22-0.068 0.441-0.137 0.661-0.206 0.016-0.005 0.034-0.008 0.048-0.016 0.013-0.008 0.030-0.022 0.030-0.033s-0.018-0.027-0.031-0.032c-0.079-0.027-0.158-0.051-0.237-0.076-0.156-0.049-0.31-0.099-0.467-0.146-0.089-0.026-0.144-0.082-0.171-0.17-0.071-0.23-0.144-0.459-0.219-0.689-0.006-0.017-0.023-0.032-0.035-0.047-0.014 0.016-0.034 0.030-0.040 0.049-0.074 0.228-0.147 0.456-0.217 0.685-0.027 0.089-0.081 0.144-0.17 0.171-0.231 0.071-0.461 0.144-0.691 0.218-0.019 0.006-0.034 0.026-0.050 0.038 0.017 0.013 0.033 0.031 0.052 0.038 0.229 0.074 0.457 0.146 0.687 0.216 0.091 0.028 0.145 0.084 0.173 0.174 0.071 0.23 0.144 0.46 0.217 0.689 0.005 0.017 0.017 0.032 0.026 0.047 0.006 0 0.012 0 0.017 0.001v-0.002z"></path>
<path d="M20.382 11.635c0.020-0.030 0.046-0.058 0.056-0.089 0.093-0.289 0.183-0.579 0.275-0.868 0.056-0.179 0.115-0.357 0.17-0.535 0.052-0.17 0.162-0.277 0.331-0.33 0.441-0.137 0.882-0.275 1.321-0.412 0.033-0.010 0.068-0.016 0.096-0.033 0.026-0.016 0.060-0.044 0.060-0.067s-0.037-0.055-0.063-0.064c-0.157-0.054-0.316-0.102-0.475-0.152-0.311-0.098-0.621-0.199-0.934-0.293-0.178-0.054-0.287-0.163-0.341-0.34-0.143-0.46-0.289-0.919-0.438-1.377-0.012-0.035-0.047-0.063-0.071-0.094-0.027 0.033-0.067 0.060-0.078 0.097-0.148 0.456-0.293 0.913-0.433 1.371-0.054 0.177-0.162 0.289-0.339 0.344-0.462 0.143-0.922 0.288-1.381 0.435-0.038 0.012-0.067 0.051-0.101 0.077 0.034 0.026 0.065 0.063 0.105 0.075 0.457 0.146 0.914 0.293 1.374 0.433 0.182 0.055 0.29 0.169 0.345 0.349 0.141 0.46 0.289 0.919 0.436 1.378 0.011 0.034 0.035 0.063 0.052 0.094 0.012 0 0.024 0 0.035 0.001l-0.001-0.001z"></path>
<path d="M8.741 13.379c0.014-0.023 0.035-0.043 0.042-0.067 0.070-0.217 0.138-0.435 0.206-0.652 0.042-0.134 0.086-0.268 0.127-0.401 0.039-0.127 0.122-0.208 0.248-0.247 0.33-0.102 0.66-0.206 0.991-0.309 0.024-0.008 0.051-0.012 0.072-0.024 0.019-0.012 0.045-0.033 0.045-0.050s-0.027-0.041-0.046-0.047c-0.118-0.040-0.237-0.077-0.356-0.113-0.233-0.073-0.466-0.149-0.7-0.219-0.134-0.040-0.215-0.123-0.257-0.256-0.107-0.345-0.217-0.689-0.328-1.033-0.009-0.026-0.035-0.046-0.053-0.070-0.021 0.024-0.051 0.045-0.059 0.073-0.11 0.342-0.22 0.684-0.325 1.027-0.041 0.133-0.122 0.217-0.255 0.258-0.346 0.107-0.692 0.216-1.036 0.327-0.028 0.009-0.051 0.038-0.076 0.058 0.026 0.019 0.050 0.046 0.078 0.056 0.343 0.11 0.685 0.219 1.029 0.325 0.136 0.042 0.218 0.126 0.259 0.261 0.106 0.345 0.217 0.689 0.326 1.033 0.008 0.025 0.026 0.047 0.040 0.071 0.009 0 0.017 0 0.026 0.001l0.001-0.003z"></path>
</svg>
