<!-- Generated by IcoMoon.io -->
<svg version="1.1" xmlns="http://www.w3.org/2000/svg" width="32" height="32" viewBox="0 0 32 32">
<path d="M7.654 12h2.202v2.202c0 0.058 0.058 0.102 0.128 0.102h1.536c0.070 0 0.128-0.045 0.128-0.106v-2.198h2.202c0.058 0 0.102-0.058 0.102-0.128v-1.536c0-0.070-0.045-0.128-0.106-0.128h-2.198v-2.202c0-0.058-0.058-0.102-0.128-0.102h-1.536c-0.070 0-0.128 0.045-0.128 0.102v2.202h-2.202c-0.058 0-0.102 0.058-0.102 0.128v1.536c0 0.070 0.045 0.128 0.102 0.128zM18.15 12h6.195c0.058 0 0.102-0.058 0.102-0.128v-1.536c0-0.070-0.045-0.128-0.106-0.128h-6.192c-0.058 0-0.102 0.058-0.102 0.128v1.536c0 0.070 0.045 0.128 0.102 0.128zM18.15 20.48h6.195c0.058 0 0.102-0.058 0.102-0.128v-1.536c0-0.070-0.045-0.128-0.106-0.128h-6.192c-0.058 0-0.102 0.058-0.102 0.128v1.536c0 0.070 0.045 0.128 0.102 0.128zM18.15 23.808h6.195c0.058 0 0.102-0.058 0.102-0.128v-1.536c0-0.070-0.045-0.128-0.106-0.128h-6.192c-0.058 0-0.102 0.058-0.102 0.128v1.536c0 0.070 0.045 0.128 0.102 0.128zM11.888 21.216l1.958-2.397c0.138-0.166 0.022-0.419-0.189-0.419h-1.626c-0.074 0-0.144 0.032-0.189 0.093l-1.088 1.331-1.088-1.331c-0.023-0.028-0.052-0.051-0.084-0.067s-0.068-0.025-0.105-0.026h-1.629c-0.211 0-0.326 0.253-0.189 0.419l1.958 2.397-2.006 2.458c-0.141 0.166-0.026 0.419 0.186 0.419h1.626c0.074 0 0.144-0.032 0.189-0.093l1.136-1.392 1.136 1.392c0.048 0.058 0.118 0.093 0.189 0.093h1.626c0.211 0 0.326-0.253 0.189-0.419l-2-2.458zM27.776 3.2h-23.552c-0.566 0-1.024 0.458-1.024 1.024v23.552c0 0.566 0.458 1.024 1.024 1.024h23.552c0.566 0 1.024-0.458 1.024-1.024v-23.552c0-0.566-0.458-1.024-1.024-1.024zM26.624 26.624h-21.248v-21.248h21.248v21.248z"></path>
</svg>
