<!-- Generated by IcoMoon.io -->
<svg version="1.1" xmlns="http://www.w3.org/2000/svg" width="32" height="32" viewBox="0 0 32 32">
<title>calendar</title>
<path d="M27.776 5.504h-5.376v-2.048c0-0.141-0.115-0.256-0.256-0.256h-1.792c-0.141 0-0.256 0.115-0.256 0.256v2.048h-8.192v-2.048c0-0.141-0.115-0.256-0.256-0.256h-1.792c-0.141 0-0.256 0.115-0.256 0.256v2.048h-5.376c-0.566 0-1.024 0.458-1.024 1.024v21.248c0 0.566 0.458 1.024 1.024 1.024h23.552c0.566 0 1.024-0.458 1.024-1.024v-21.248c0-0.566-0.458-1.024-1.024-1.024zM26.496 26.496h-20.992v-12.16h20.992v12.16zM5.504 12.16v-4.352h4.096v1.536c0 0.141 0.115 0.256 0.256 0.256h1.792c0.141 0 0.256-0.115 0.256-0.256v-1.536h8.192v1.536c0 0.141 0.115 0.256 0.256 0.256h1.792c0.141 0 0.256-0.115 0.256-0.256v-1.536h4.096v4.352h-20.992z"></path>
</svg>
