<!-- Generated by IcoMoon.io -->
<svg version="1.1" xmlns="http://www.w3.org/2000/svg" width="32" height="32" viewBox="0 0 32 32">
<path d="M23.52 19.2c0-0.16-1.44-0.8-1.44-0.8 0.16 0 0.32 0 0.32-0.64s0-0.64-0.32-0.64h-1.12c-0.8-1.6-0.8-2.080-1.92-2.56-1.44-0.8-4.32-0.8-5.44-0.8s-4 0-5.44 0.8c-1.12 0.48-1.12 0.8-1.92 2.56 0 0 0 0 0 0h-1.12c-0.32 0-0.32 0.16-0.32 0.64s0 0.48 0.32 0.64c0 0-1.28 0.64-1.44 0.8s-0.32 1.44-0.32 3.36 0.16 4.16 0.16 4.16h0.48c0 0.64 0 0.64 0.32 0.64h3.36c0.32 0 0.32 0 0.32-0.64h11.040c0 0.64 0 0.64 0.32 0.64h3.52c0.16 0 0.32 0 0.32-0.64h0.48s0.16-2.080 0.16-4.16-0.16-3.2-0.32-3.36v0zM7.84 21.12c-0.8 0-1.6 0-2.4 0s-0.96 0-0.96-0.48c0-0.32 0-0.48 0-0.8v0c0 0 0 0 0 0 0.48 0 0.96 0 1.92 0.32 0.48 0 0.96 0.32 1.28 0.64 0.16 0 0.16 0.32 0.16 0.32h-0.32s0 0 0 0zM18.56 24.32v0.48h-9.76s0 0-0.16-0.48c-0.16-0.32 0-0.48 0.32-0.64 0.64-0.16 2.56-0.96 4.64-0.96s4 0.64 4.64 0.96c0.16 0 0.48 0.16 0.32 0.64zM7.52 18.4h-0.48c0-0.16 0.16-0.48 0.32-0.64 0.32-0.8 0.8-1.6 1.44-1.92 0.96-0.48 3.040-0.8 4.8-0.8s3.68 0.16 4.8 0.8c0.64 0.32 1.12 1.12 1.44 1.92 0 0.16 0.16 0.48 0.32 0.64h-12.48zM22.4 20.8c0 0.48 0 0.48-0.96 0.48s-1.6 0-2.4 0c0 0-0.16-0.16 0-0.32 0.32-0.32 0.8-0.48 1.28-0.64 0.96-0.32 1.44-0.32 1.92-0.32 0 0 0 0 0 0s0 0 0 0c0 0.32 0 0.48 0 0.8v0z"></path>
<path d="M28.48 11.040c0 0-1.12-0.64-1.12-0.64 0.16 0 0.32 0 0.32-0.48s0-0.48-0.32-0.48h-0.96c-0.64-1.28-0.64-1.6-1.6-2.080-1.12-0.64-3.36-0.64-4.32-0.64s-3.040 0-4.16 0.64c-0.96 0.48-0.8 0.64-1.6 2.080v0s-0.96 0-0.96 0c-0.32 0-0.32 0-0.32 0.48s0 0.32 0.32 0.48c0 0-0.96 0.48-1.12 0.64 0 0-0.16 0.8-0.32 2.080h0.8c2.4 0 4.32 0.32 5.44 0.8 0.64 0 1.12-0.16 1.76-0.16 1.6 0 3.2 0.48 3.68 0.64 0.16 0 0.48 0 0.32 0.48v0.32h-4c0.16 0.32 0.32 0.64 0.64 1.28v0c0 0 0.8 0 0.8 0 0.32 0 0.64 0 0.8 0.32h2.24c0 0.48 0 0.48 0.32 0.48h2.72c0 0 0.16 0 0.16-0.48h0.32s0-1.6 0-3.2-0.16-2.56-0.32-2.72v0zM16.32 12.48c-0.64 0-1.28 0-1.92 0s-0.64 0-0.8-0.32c0-0.16 0-0.32 0-0.64v0c0 0 0 0 0 0 0.32 0 0.8 0 1.44 0.16 0.32 0 0.64 0.32 0.96 0.48 0 0 0.16 0.16 0.16 0.16h-0.16zM16 10.4h-0.32c0-0.16 0-0.32 0.16-0.48 0.32-0.64 0.64-1.28 1.12-1.44 0.8-0.32 2.4-0.64 3.68-0.64s2.88 0.16 3.68 0.64c0.48 0.32 0.8 0.96 1.12 1.44 0 0.16 0 0.32 0.16 0.48h-9.76zM27.68 12.16c0 0.48 0 0.32-0.64 0.32s-1.28 0-1.76 0c0 0 0-0.16 0-0.16 0.32-0.16 0.64-0.32 0.96-0.48 0.8-0.16 1.12-0.32 1.44-0.16 0 0 0 0 0 0s0 0 0 0c0 0.16 0 0.32 0 0.64v0z"></path>
<path d="M8.32 10.88c0.16 0 0.32 0.16 0 0.32l-2.080 2.080c-0.16 0-0.48 0-0.64 0l-2.080-2.080c0 0 0-0.32 0-0.32h1.12v-2.72c0-0.16 0.16-0.32 0.32-0.32h1.44c0.16 0 0.32 0.16 0.32 0.32v2.72h1.12zM12 7.040c0.16 0 0.32-0.16 0-0.32l-2.080-2.080c0 0-0.48 0-0.64 0l-2.080 2.080c0 0 0 0.32 0 0.32h1.12v2.72c0 0.16 0.16 0.32 0.32 0.32h1.44c0.16 0 0.32-0.16 0.32-0.32v-2.56h1.12z"></path>
</svg>
