<!-- Generated by IcoMoon.io -->
<svg version="1.1" xmlns="http://www.w3.org/2000/svg" width="32" height="32" viewBox="0 0 32 32">
<path d="M8.2 28.6c1 0 1.7-0.8 1.7-1.7 0-1-0.8-1.7-1.7-1.7s-1.7 0.8-1.7 1.7c0 0.9 0.7 1.7 1.7 1.7z"></path>
<path d="M28.9 25.2l-0.3-1.1c0 0 0 0 0-0.1-0.1-0.2-0.3-0.4-0.5-0.5s-0.4-0.2-0.7-0.2l-5.5-0.8c0 0-0.1 0-0.1 0l-4-2.2c-1.4-0.6-2.8-0.9-4.3-0.8-2.9 0-3.7 0.5-4 0.7l-2.5 1.3c-0.1 0.1-0.3 0.1-0.4 0.1h-1.4c-0.9 0-1.5 0.6-1.7 1.6l-0.5 1.8c0 0.2 0 0.4 0 0.6 0.1 0.2 0.2 0.4 0.3 0.5 0.2 0.2 0.4 0.4 0.6 0.5s0.5 0.2 0.8 0.2h0.8c0-0.7 0.3-1.4 0.8-1.8 0.5-0.5 1.1-0.8 1.8-0.8s1.4 0.3 1.9 0.8c0.5 0.5 0.8 1.1 0.8 1.8h10c0-0.7 0.3-1.4 0.8-1.8s1.1-0.8 1.8-0.8c0.7 0 1.4 0.3 1.8 0.8 0.5 0.5 0.8 1.1 0.8 1.8h1.9c0.2 0 0.4 0 0.5-0.1 0.2-0.1 0.3-0.2 0.4-0.4s0.2-0.3 0.2-0.5c0-0.2 0-0.4-0.1-0.6zM13 22.2c-1.7-0.1-3.3-0.2-4.8-0.4l1.7-1c0.2-0.1 0.8-0.5 3.1-0.5v1.9zM13.8 22.3v-1.9c1.2 0 2.4 0.2 3.4 0.7l2.6 1.4c-1.4 0-3.6-0.1-6-0.2z"></path>
<path d="M23.4 28.6c1 0 1.7-0.8 1.7-1.7 0-1-0.8-1.7-1.7-1.7-1 0-1.7 0.8-1.7 1.7-0.1 0.9 0.7 1.7 1.7 1.7z"></path>
<path d="M3 5.1v15.4c0 0.4 0.2 0.8 0.4 1 0 0 0.1-0.1 0.1-0.1 0.4-0.3 0.9-0.6 1.5-0.6-0.5-0.1-0.8-0.6-0.8-1.1v-13.8c0-0.7 0.5-1.2 1.2-1.2h21.1c0.7 0 1.2 0.5 1.2 1.2v13.8c0 0.7-0.5 1.2-1.2 1.2h-6l1.5 0.8 2.6 0.4h2.8c0.9 0 1.6-0.7 1.6-1.6v-15.4c0-0.9-0.7-1.6-1.6-1.6h-22.8c-0.9 0-1.6 0.7-1.6 1.6zM26.6 20.5h-6.8l-1.7-0.9c-1.5-0.6-3-0.9-4.6-0.9-1.5 0-2.5 0.1-3.2 0.3s-1 0.4-1.3 0.5l-1.8 1.1h-1.8c-0.4 0-0.8-0.4-0.8-0.8v-13.9c0-0.4 0.4-0.8 0.8-0.8h21.1c0.4 0 0.8 0.4 0.8 0.8v13.8c0.1 0.4-0.3 0.8-0.7 0.8zM7.9 7.9c0 0.4-0.4 0.8-0.8 0.8s-0.9-0.4-0.9-0.8c0-0.4 0.4-0.8 0.8-0.8s0.9 0.4 0.9 0.8zM7.1 18.9c0.4 0 0.8-0.4 0.8-0.8s-0.4-0.8-0.8-0.8-0.8 0.4-0.8 0.8 0.3 0.8 0.8 0.8zM25.8 7.9c0 0.4-0.4 0.8-0.8 0.8s-0.8-0.4-0.8-0.8c0-0.4 0.4-0.8 0.8-0.8s0.8 0.4 0.8 0.8zM24.9 18.9c0.4 0 0.8-0.4 0.8-0.8s-0.4-0.8-0.8-0.8-0.8 0.4-0.8 0.8 0.4 0.8 0.8 0.8zM20.1 8.4h-0.6c0-0.1 0-0.2-0.1-0.2 0-0.1-0.1-0.1-0.1-0.2-0.1 0-0.1-0.1-0.2-0.1s-0.2 0-0.2 0c-0.2 0-0.3 0-0.4 0.1s-0.2 0.2-0.3 0.3c-0.1 0.1-0.1 0.3-0.1 0.5s0 0.4 0.1 0.5c0.1 0.1 0.2 0.3 0.3 0.3 0.1 0.1 0.2 0.1 0.4 0.1 0.1 0 0.2 0 0.2 0 0.1 0 0.1-0.1 0.2-0.1s0.1-0.1 0.1-0.2c0-0.1 0.1-0.1 0.1-0.2h0.6c0 0.1-0.1 0.3-0.1 0.4-0.1 0.1-0.2 0.2-0.3 0.3s-0.2 0.2-0.4 0.2c-0.1 0.1-0.3 0.1-0.5 0.1-0.3 0-0.5-0.1-0.7-0.2s-0.4-0.3-0.5-0.5c-0.1-0.2-0.2-0.5-0.2-0.8s0.1-0.6 0.2-0.8c0.1-0.2 0.3-0.4 0.5-0.5s0.4-0.2 0.7-0.2c0.2 0 0.3 0 0.5 0.1 0.1 0 0.3 0.1 0.4 0.2 0.1 0.2 0.2 0.3 0.3 0.5 0.1 0.1 0.1 0.2 0.1 0.4zM11.5 16.8v-0.7l1.7-1.6c0.1-0.1 0.3-0.3 0.4-0.4s0.2-0.2 0.2-0.3c0.1-0.1 0.1-0.2 0.1-0.3s0-0.3-0.1-0.4c-0.1-0.1-0.1-0.2-0.3-0.2-0.1-0.1-0.2-0.1-0.4-0.1-0.1 0-0.3 0-0.4 0.1s-0.2 0.1-0.2 0.3c-0.1 0.1-0.1 0.2-0.1 0.4h-0.9c0-0.3 0.1-0.6 0.2-0.8s0.3-0.4 0.6-0.5c0.3-0.1 0.5-0.2 0.9-0.2 0.3 0 0.6 0.1 0.9 0.2s0.4 0.3 0.6 0.5c0.1 0.2 0.2 0.5 0.2 0.7s0 0.4-0.1 0.5c-0.1 0.2-0.2 0.4-0.4 0.6s-0.4 0.5-0.8 0.8l-0.7 0.6h2v0.8h-3.4zM16.4 16.7c0.3 0.1 0.6 0.2 0.9 0.2 0.4 0 0.7-0.1 0.9-0.2 0.3-0.1 0.5-0.3 0.6-0.5 0.2-0.2 0.2-0.4 0.2-0.7s-0.1-0.5-0.3-0.7c-0.2-0.2-0.4-0.3-0.8-0.4v0c0.3 0 0.5-0.2 0.6-0.3 0.2-0.2 0.2-0.4 0.2-0.7 0-0.2-0.1-0.5-0.2-0.7s-0.3-0.4-0.6-0.5c0.1-0.1-0.2-0.2-0.5-0.2s-0.6 0.1-0.9 0.2c-0.3 0.1-0.5 0.3-0.6 0.5-0.2 0.2-0.2 0.4-0.2 0.7h1c0-0.1 0-0.2 0.1-0.3s0.2-0.2 0.3-0.2c0.1 0 0.2-0.1 0.4-0.1 0.1 0 0.3 0 0.4 0.1s0.2 0.1 0.2 0.2 0.1 0.2 0.1 0.3c0 0.1 0 0.2-0.1 0.3s-0.2 0.2-0.3 0.2-0.4 0.1-0.5 0.1h-0.4v0.7h0.4c0.2 0 0.3 0 0.5 0.1 0.1 0.1 0.2 0.1 0.3 0.2s0.1 0.2 0.1 0.3c0 0.1 0 0.2-0.1 0.3s-0.2 0.2-0.3 0.2c-0.1 0.1-0.3 0.1-0.4 0.1s-0.3 0-0.4-0.1c-0.1 0-0.2-0.1-0.3-0.2s-0.1-0.2-0.1-0.3h-1c0 0.3 0.1 0.5 0.2 0.7 0.2 0.4 0.4 0.6 0.6 0.7zM19.8 15.2v0.8h2.3v0.8h1v-0.8h0.6v-0.8h-0.7v-3.1h-1.3l-1.9 3.1zM22.1 13.2v0l-1.3 2h1.3v-2zM10.4 16.8v-4.7h-0.9l-1.2 0.7v0.9l1.1-0.7v3.8h1zM14.8 7.4v3h1.3c0.2 0 0.4 0 0.6-0.1s0.3-0.2 0.3-0.3c0.1-0.1 0.1-0.3 0.1-0.4s0-0.3-0.1-0.4c0-0.2-0.1-0.3-0.2-0.3-0.1-0.1-0.2-0.1-0.3-0.1v0c0.1 0 0.2-0.1 0.3-0.1 0.1-0.1 0.1-0.1 0.2-0.2 0-0.2 0-0.3 0-0.4s0-0.3-0.1-0.4c-0.1-0.1-0.2-0.2-0.3-0.3s-0.3-0.1-0.5-0.1h-1.3zM16 9.8h-0.5v-0.8h0.5c0.1 0 0.2 0 0.3 0.1 0.1 0 0.1 0.1 0.2 0.1 0 0.1 0.1 0.1 0.1 0.2s0 0.2-0.1 0.3c-0.2 0.1-0.4 0.1-0.5 0.1zM15.9 8.6h-0.5v-0.7h0.5c0.1 0 0.2 0 0.3 0.1s0.1 0.2 0.1 0.3c0 0.1 0 0.1-0.1 0.2 0 0.1-0.1 0.1-0.2 0.1 0.1 0 0 0-0.1 0zM12.3 10.3h-0.7l1-3h0.8l1 3h-0.7l-0.2-0.7h-1.1l-0.1 0.7zM13.1 8l0.4 1.1h-0.7l0.3-1.1z"></path>
</svg>
