<!-- Generated by IcoMoon.io -->
<svg version="1.1" xmlns="http://www.w3.org/2000/svg" width="32" height="32" viewBox="0 0 32 32">
<title>car-used</title>
<path d="M24.789 24.334v1.153c0 0.074 0.015 0.147 0.043 0.216s0.070 0.13 0.122 0.182c0.052 0.052 0.115 0.093 0.183 0.121s0.142 0.042 0.216 0.042h2.159c0.149 0 0.292-0.059 0.397-0.164s0.164-0.248 0.164-0.397v-2.222c-0.356 0.358-0.783 0.638-1.253 0.822s-0.974 0.268-1.478 0.247h-0.552z"></path>
<path d="M3.897 23.23v2.255c0 0.149 0.059 0.292 0.164 0.397s0.248 0.164 0.397 0.164h2.158c0.149 0 0.292-0.059 0.397-0.164s0.164-0.248 0.164-0.397v-1.153h-0.518c-0.512 0.022-1.024-0.065-1.5-0.255s-0.907-0.479-1.264-0.847z"></path>
<path d="M3.912 20.983c0 1.591 1.107 2.518 2.747 2.518h18.68c1.638 0 2.747-0.927 2.747-2.518v-0.459h-24.174v0.459z"></path>
<path d="M28.342 10.746l-1.384-0.24c-0.111-0.019-0.224-0.001-0.323 0.053s-0.176 0.139-0.221 0.242l-0.431 0.974-0.175-0.267-1.213-2.864c-0.196-0.465-0.506-0.872-0.903-1.183s-0.866-0.517-1.364-0.597c-2.095-0.318-4.211-0.473-6.33-0.462-2.119-0.010-4.235 0.145-6.329 0.464-0.498 0.080-0.968 0.285-1.365 0.596s-0.708 0.719-0.904 1.184l-1.21 2.86-0.172 0.263-0.433-0.97c-0.044-0.103-0.122-0.188-0.221-0.242s-0.212-0.072-0.323-0.053l-1.384 0.243c-0.128 0.021-0.244 0.086-0.328 0.185s-0.13 0.224-0.13 0.354v0.272c0 0.125 0.043 0.246 0.121 0.343s0.187 0.165 0.309 0.191l1.895 0.433-0.908 1.384c-0.459 0.701-0.704 1.52-0.704 2.358v3.432h24.174v-3.432c-0-0.838-0.245-1.657-0.705-2.358l-0.911-1.39 1.898-0.428c0.122-0.027 0.231-0.094 0.309-0.191s0.121-0.218 0.121-0.343v-0.272c0-0.129-0.046-0.255-0.13-0.353s-0.2-0.164-0.328-0.184zM8.168 8.969c0.14-0.336 0.363-0.63 0.649-0.855s0.625-0.373 0.984-0.43c2.051-0.311 4.124-0.463 6.199-0.453 2.075-0.010 4.147 0.142 6.199 0.453 0.359 0.057 0.697 0.205 0.983 0.43s0.509 0.519 0.649 0.854l0.932 2.199h-17.528l0.933-2.199zM6.407 16.994c-0.163-0.024-0.315-0.096-0.436-0.207s-0.206-0.256-0.244-0.416c-0.050-0.187-0.070-0.38-0.058-0.573 0.045-0.498 0.201-0.743 0.518-0.743 0 0 2.171 0.135 2.464 0.225s1.419 2.23 1.419 2.23l-3.663-0.517zM20.312 17.824l-4.339 0.248-4.286-0.242-1.093-2.318c0 0 3.85 0.335 5.405 0.335s5.406-0.335 5.406-0.335l-1.093 2.312zM26.272 16.373c-0.038 0.16-0.123 0.305-0.244 0.416s-0.273 0.183-0.436 0.207l-3.663 0.517c0 0 1.126-2.14 1.42-2.23s2.463-0.225 2.463-0.225c0.317 0 0.473 0.247 0.518 0.743 0.012 0.193-0.008 0.386-0.058 0.573z"></path>
</svg>
