<!-- Generated by IcoMoon.io -->
<svg version="1.1" xmlns="http://www.w3.org/2000/svg" width="32" height="32" viewBox="0 0 32 32">
<title>car-loan</title>
<path d="M16 4.8c-3.52 0-6.4 2.88-6.4 6.4s2.88 6.4 6.4 6.4 6.4-2.88 6.4-6.4-2.88-6.4-6.4-6.4zM16.64 14.24v0.8h-1.28v-0.64l-0.96-0.16 0.16-1.28 1.44 0.16c0 0 0 0 0.16 0 0.32 0 0.48-0.32 0.48-0.64s-0.32-0.64-0.64-0.64c-1.12 0-1.92-0.96-1.92-1.92 0-0.48 0.16-0.8 0.48-1.12 0.16-0.32 0.48-0.48 0.96-0.64v-0.8h1.28v0.8l0.96 0.16-0.16 1.28-1.28-0.16c-0.16 0-0.48 0-0.64 0.16 0 0.16-0.16 0.32-0.16 0.48 0 0.32 0.32 0.64 0.64 0.64 1.12 0 1.92 0.96 1.92 1.92-0.16 0.64-0.64 1.44-1.44 1.6z"></path>
<path d="M26.72 16.8c-0.48-0.64-1.6-0.64-2.24 0l-3.040 3.040c-0.16 0.16-0.16 0.32-0.32 0.48-0.48 1.12-1.44 1.76-2.56 1.76h-4.32v-1.28h4.48c0.8 0 1.44-0.64 1.44-1.44 0-0.64-0.32-0.96-0.64-1.28-1.12 0.64-2.24 0.8-3.36 0.8-2.080 0-4-0.8-5.28-2.24-0.96 0-1.76 0.48-2.4 1.12l-3.68 3.36 6.080 6.080c1.12-1.12 2.56-1.76 4-1.76h3.52c1.12 0 2.4-0.48 3.2-1.28l5.28-5.28c0.48-0.64 0.48-1.44-0.16-2.080z"></path>
</svg>
