<!-- Generated by IcoMoon.io -->
<svg version="1.1" xmlns="http://www.w3.org/2000/svg" width="32" height="32" viewBox="0 0 32 32">
<path d="M25.92 19.36c-1.12-1.12-2.72-1.6-4.8-1.12l-7.36-7.36 0.16-0.32c0.48-1.6 0-3.36-1.12-4.48s-2.88-1.6-4.48-1.12c-0.16 0-0.32 0.16-0.32 0.16-0.16 0.16-0.16 0.16-0.32 0.32 0 0.16 0 0.16 0 0.32s0.16 0.16 0.16 0.32l1.76 1.76c0.48 0.48 0.48 1.28 0 1.92-0.48 0.48-1.28 0.48-1.92 0l-1.6-1.92c-0.16 0-0.16 0-0.32-0.16-0.16 0-0.16 0-0.32 0s-0.16 0.16-0.32 0.16c0 0.16-0.16 0.32-0.16 0.32-0.48 1.6 0 3.2 1.12 4.48 1.12 1.12 2.72 1.6 4.8 1.12l7.36 7.36c-0.48 2.080 0 3.68 1.12 4.8s2.88 1.6 4.48 1.12c0.16 0 0.16-0.16 0.32-0.16 0.16-0.16 0.16-0.16 0.16-0.32s0-0.16 0-0.32-0.16-0.16-0.16-0.32l-1.76-1.76c-0.48-0.48-0.48-1.28 0-1.92 0.48-0.48 1.28-0.48 1.92 0l1.76 1.76c0.16 0.16 0.16 0.16 0.32 0.16s0.16 0 0.32 0 0.16-0.16 0.32-0.16 0.16-0.16 0.16-0.32c0.32-1.44-0.16-3.2-1.28-4.32z"></path>
<path d="M11.84 16.48l-6.24 6.24c-0.96 0.96-0.96 2.72 0 3.68s2.72 0.96 3.68 0l6.24-6.24-3.68-3.68zM8.64 24.32c-0.32 0.32-0.64 0.32-0.96 0s-0.32-0.64 0-0.96l4-4c0.32-0.32 0.64-0.32 0.96 0s0.32 0.64 0 0.96l-4 4zM27.040 6.080l-1.12-1.12c-0.16 0-0.32-0.16-0.48-0.16s-0.32 0-0.48 0.16l-3.52 2.080c-0.32 0.16-0.48 0.8-0.16 0.96l0.32 0.32-4.48 4.32 2.080 1.92 4.48-4.32 0.32 0.32c0.32 0.32 0.8 0.16 0.96-0.16l2.080-3.52c0.16-0.16 0.16-0.16 0.16-0.32s-0.16-0.32-0.16-0.48z"></path>
</svg>
