<!-- Generated by IcoMoon.io -->
<svg version="1.1" xmlns="http://www.w3.org/2000/svg" width="32" height="32" viewBox="0 0 32 32">
<path fill="#fff" d="M10.607 12.334v-3.245h0.686v2.679h1.391v0.566h-2.077z"></path>
<path fill="#fff" d="M16.878 12.334h-0.735l1.12-3.245h0.884l1.118 3.245h-0.735l-0.163-0.503-0.077-0.237-0.174-0.535-0.127-0.391-0.272-0.837h-0.025l-0.814 2.503zM16.833 11.058h1.736v0.535h-1.736v-0.535z"></path>
<path fill="#fff" d="M22.37 9.089v3.245h-0.593l-1.412-2.042h-0.024v2.042h-0.686v-3.245h0.602l1.4 2.041h0.029v-2.041h0.683z"></path>
<path fill="#000" d="M7.191 7.78c-0.49 0-0.721 0.606-0.354 0.932l2.027 1.8c0.119 0.106 0.119 0.293 0 0.399l-2.027 1.8c-0.367 0.326-0.136 0.932 0.354 0.932h18.597c0.491 0 0.721-0.606 0.354-0.932l-2.027-1.8c-0.119-0.106-0.119-0.293 0-0.399l2.027-1.8c0.367-0.326 0.136-0.932-0.354-0.932h-18.597zM7.014 8.512c-0.183-0.163-0.068-0.466 0.177-0.466h18.597c0.245 0 0.36 0.303 0.177 0.466l-2.027 1.8c-0.239 0.212-0.239 0.585 0 0.797l2.027 1.8c0.183 0.163 0.068 0.466-0.177 0.466h-18.597c-0.245 0-0.36-0.303-0.177-0.466l2.026-1.8c0.239-0.212 0.239-0.585 0-0.797l-2.027-1.8z"></path>
<path fill="#000" d="M13.752 11.291c-0.068-0.157-0.101-0.351-0.101-0.58 0-0.090 0.005-0.174 0.016-0.253-0.227-0.048-0.453-0.103-0.676-0.163-0.023 0.13-0.035 0.268-0.035 0.416 0 0.332 0.059 0.617 0.177 0.857 0.797 0.187 1.617 0.305 2.443 0.355 0.083-0.090 0.155-0.193 0.217-0.309 0.13-0.241 0.197-0.532 0.201-0.873-0.232-0.008-0.464-0.022-0.695-0.042l0 0.012c0 0.229-0.034 0.422-0.103 0.58-0.068 0.157-0.163 0.277-0.287 0.358s-0.268 0.122-0.434 0.122-0.311-0.041-0.434-0.122c-0.124-0.081-0.22-0.201-0.288-0.358z"></path>
<path fill="#000" d="M13.698 9.241c-0.229 0.13-0.41 0.319-0.543 0.567-0.077 0.144-0.132 0.307-0.165 0.487 0.223 0.060 0.449 0.115 0.676 0.163 0.016-0.122 0.045-0.231 0.086-0.327 0.069-0.157 0.165-0.277 0.288-0.358s0.268-0.122 0.434-0.122c0.166 0 0.311 0.041 0.434 0.122s0.219 0.201 0.287 0.358c0.068 0.155 0.102 0.344 0.103 0.568 0.231 0.020 0.463 0.034 0.695 0.042l0-0.030c0-0.354-0.067-0.655-0.201-0.903-0.133-0.248-0.315-0.437-0.545-0.567-0.229-0.131-0.487-0.196-0.773-0.196-0.288 0-0.547 0.065-0.776 0.196z"></path>
<path fill="#000" d="M9.135 5.807c1.623-0.813 4.367-1.807 7.378-1.807 2.954 0 5.633 0.958 7.248 1.762 0.388 0.19 0.764 0.403 1.126 0.638l-1.126 1.646h-14.556l-1.118-1.646c0.171-0.113 0.385-0.241 0.637-0.378 0.127-0.070 0.264-0.141 0.411-0.215zM10.607 10.703v-1.614h0.686v2.679h1.391v0.566h-2.077v-1.631zM13.132 11.568c0.007 0.015 0.015 0.030 0.023 0.045 0.133 0.248 0.314 0.438 0.543 0.569s0.488 0.196 0.776 0.196c0.286 0 0.544-0.065 0.773-0.195 0.123-0.070 0.232-0.157 0.328-0.26-0.826-0.050-1.646-0.168-2.443-0.355zM16.276 11.949l0.987-2.86h0.884l1.118 3.245h-0.735l-0.163-0.503-0.077-0.237h-1.172l-0.241 0.74h-0.735l0.133-0.385zM19.656 11.607v0.727h0.686v-2.042h0.024l1.412 2.042h0.593v-3.245h-0.683v1.899c-0.033 0.013-0.066 0.026-0.099 0.039l-1.33-1.938h-0.602v2.518zM7.834 13.376c-4.147 6.268-5.293 14.622 8.679 14.622 13.92 0 12.759-8.446 8.655-14.622h-17.335zM10.285 6.592c0.634 0.2 1.28 0.362 1.934 0.485 1.439 0.266 2.888 0.305 4.128-0.054 1.576-0.455 3.23-0.825 4.78-1.043-1.323-0.436-2.922-0.78-4.613-0.78-2.442 0-4.708 0.717-6.229 1.392zM14.878 17.684c0.25-0.25 0.589-0.391 0.943-0.391v2.667c-0.354 0-0.693-0.14-0.943-0.391s-0.391-0.589-0.391-0.943 0.14-0.693 0.391-0.943zM17.154 15.294v0.667c0.552 0 1.090 0.171 1.54 0.489s0.791 0.769 0.975 1.289c0.032 0.083 0.047 0.172 0.044 0.261s-0.023 0.177-0.061 0.258c-0.037 0.081-0.090 0.154-0.156 0.214s-0.143 0.106-0.227 0.136c-0.084 0.030-0.173 0.042-0.262 0.037s-0.176-0.029-0.256-0.068c-0.080-0.039-0.151-0.095-0.209-0.162s-0.102-0.146-0.129-0.231c-0.184-0.519-0.678-0.889-1.258-0.889v2.667c0.707 0 1.385 0.281 1.886 0.781s0.781 1.178 0.781 1.886c0 0.707-0.281 1.386-0.781 1.886s-1.178 0.781-1.886 0.781v0.667h-1.333v-0.667c-0.552 0-1.090-0.171-1.54-0.489s-0.791-0.769-0.975-1.289c-0.032-0.083-0.047-0.172-0.044-0.261s0.024-0.177 0.061-0.258c0.037-0.081 0.090-0.154 0.156-0.214s0.143-0.106 0.227-0.136c0.084-0.030 0.173-0.042 0.262-0.037s0.176 0.028 0.256 0.068 0.151 0.095 0.209 0.162c0.058 0.068 0.102 0.146 0.129 0.231 0.184 0.519 0.678 0.889 1.258 0.889v-2.667c-0.707 0-1.385-0.281-1.886-0.781s-0.781-1.178-0.781-1.886c0-0.707 0.281-1.385 0.781-1.886s1.178-0.781 1.886-0.781v-0.667h1.333zM17.154 23.961v-2.667c0.354 0 0.693 0.141 0.943 0.391s0.391 0.589 0.391 0.943-0.141 0.693-0.391 0.943c-0.25 0.25-0.589 0.391-0.943 0.391zM17.293 11.058h0.823l-0.127-0.391-0.272-0.837h-0.025l-0.399 1.228z"></path>
</svg>
