<!-- Generated by IcoMoon.io -->
<svg version="1.1" xmlns="http://www.w3.org/2000/svg" width="32" height="32" viewBox="0 0 32 32">
<title>car-registration</title>
<path d="M9.28 26.88c0.8 0 1.44-0.64 1.44-1.44s-0.64-1.44-1.44-1.44c-0.8 0-1.44 0.64-1.44 1.44s0.64 1.44 1.44 1.44z"></path>
<path d="M27.2 24l-0.32-0.96c-0.16-0.16-0.32-0.32-0.48-0.48-0.16 0-0.32-0.16-0.64-0.16l-4.8-0.64-3.36-2.080c-1.12-0.48-2.4-0.8-3.68-0.64-2.56 0-3.2 0.48-3.36 0.64l-2.24 1.12c-0.16 0-0.32 0-0.32 0h-1.28c-0.8 0-1.28 0.48-1.44 1.44l-0.48 1.6c0 0.16 0 0.32 0 0.48s0.16 0.32 0.32 0.48c0.16 0.16 0.32 0.32 0.64 0.48 0.16 0 0.48 0.16 0.64 0.16h0.64c0-0.48 0.16-1.12 0.64-1.6s0.96-0.64 1.6-0.64c0.48 0 1.12 0.16 1.6 0.64s0.64 0.96 0.64 1.6h8.64c0-0.48 0.16-1.12 0.64-1.6s0.96-0.64 1.6-0.64c0.64 0 1.12 0.16 1.6 0.64s0.64 0.96 0.64 1.6h1.6c0.16 0 0.32 0 0.48-0.16 0.16 0 0.32-0.16 0.32-0.32s0.16-0.32 0.16-0.48c0-0.16 0-0.32 0-0.48zM13.44 21.28c-1.44 0-2.88-0.16-4.16-0.32l1.44-0.8c0.16-0.16 0.64-0.48 2.72-0.48v1.6zM14.080 21.44v-1.76c1.12 0 2.080 0.16 2.88 0.64l2.24 1.12c-1.12 0.16-3.040 0-5.12 0z"></path>
<path d="M22.4 26.88c0.8 0 1.44-0.64 1.44-1.44s-0.64-1.44-1.44-1.44c-0.8 0-1.44 0.64-1.44 1.44-0.16 0.8 0.64 1.44 1.44 1.44z"></path>
<path d="M4.8 6.56v13.28c0 0.32 0.16 0.8 0.48 0.8v0c0.32-0.32 0.8-0.48 1.28-0.48-0.32-0.16-0.64-0.48-0.64-0.96v-11.84c0-0.64 0.48-1.12 0.96-1.12h18.24c0.64 0 1.12 0.64 1.12 1.12v11.84c0 0.64-0.48 1.12-1.12 1.12h-5.28l1.28 0.64 2.24 0.32h2.4c0.8 0 1.44-0.64 1.44-1.44v-13.28c0-0.8-0.64-1.44-1.44-1.44h-19.52c-0.8 0-1.44 0.64-1.44 1.44zM25.12 19.84h-5.92l-1.44-0.8c-1.28-0.48-2.56-0.8-4-0.8-1.28 0-2.24 0-2.72 0.16s-0.96 0.32-1.12 0.48l-1.6 0.96h-1.44c-0.48 0-0.64-0.32-0.64-0.64v-11.84c0-0.48 0.32-0.64 0.64-0.64h18.24c0.48 0 0.64 0.32 0.64 0.64v11.84c0 0.48-0.32 0.64-0.64 0.64zM8.96 8.96c0-0.32-0.32-0.64-0.64-0.64s-0.64 0.16-0.64 0.64c0 0.48 0.32 0.64 0.64 0.64s0.64-0.16 0.64-0.64zM8.32 18.56c0.48 0 0.64-0.32 0.64-0.64 0-0.48-0.32-0.64-0.64-0.64s-0.64 0.32-0.64 0.64c0 0.32 0.16 0.64 0.64 0.64zM24.32 8.96c0-0.32-0.32-0.64-0.64-0.64s-0.64 0.16-0.64 0.64c0 0.32 0.32 0.64 0.64 0.64s0.64-0.16 0.64-0.64zM23.68 18.56c0.48 0 0.64-0.32 0.64-0.64 0-0.48-0.32-0.64-0.64-0.64s-0.64 0.32-0.64 0.64c0 0.32 0.32 0.64 0.64 0.64zM19.52 9.44c0-0.16 0-0.32-0.16-0.32 0-0.16-0.16-0.32-0.16-0.32-0.16-0.16-0.16-0.16-0.32-0.16s-0.32 0-0.48 0-0.48 0.16-0.64 0.16c-0.16 0.16-0.48 0.32-0.48 0.48-0.16 0.16-0.16 0.32-0.16 0.64 0 0.16 0.16 0.48 0.16 0.64 0.16 0.16 0.32 0.48 0.48 0.48 0.16 0.16 0.48 0.16 0.64 0.16s0.32 0 0.48 0c0.16 0 0.32-0.16 0.32-0.16 0-0.16 0.16-0.16 0.16-0.32 0.16-0.16 0.16-0.16 0.16-0.32h-0.48c0 0 0 0.16 0 0.16-0.16 0.16-0.16 0.16-0.16 0.16s-0.16 0-0.16 0c0 0-0.16 0-0.16 0-0.16 0-0.32 0-0.32 0 0-0.16-0.16-0.16-0.16-0.32s0-0.32 0-0.48c0-0.16 0-0.32 0-0.48s0.16-0.32 0.16-0.32c0 0 0.16 0 0.32 0 0 0 0.16 0 0.16 0 0.16 0 0.16 0 0.16 0 0.16 0.16 0.16 0.16 0.16 0.16s0 0.16 0 0.16h0.48zM12.16 16.8l3.040-0.16v-0.64h-1.76l0.48-0.64c0.32-0.16 0.48-0.32 0.8-0.48 0.16-0.16 0.32-0.32 0.32-0.48s0-0.32 0-0.48c0-0.16 0-0.48-0.16-0.64 0-0.32-0.16-0.32-0.48-0.48s-0.48-0.16-0.8-0.16c-0.32 0-0.64 0-0.8 0.16s-0.32 0.16-0.64 0.32c-0.16 0.16-0.16 0.32-0.16 0.64h1.12c0-0.16 0-0.32 0-0.32s0.16-0.16 0.16-0.16c0.16 0 0.16 0 0.32 0s0.32 0 0.32 0c0 0 0.16 0.16 0.16 0.16 0 0.16 0 0.16 0 0.32s0 0.32 0 0.32-0.16 0.32-0.16 0.32-0.16 0.16-0.32 0.48l-1.44 1.28v0.64zM16.32 16.64c0.16 0 0.48 0.16 0.8 0.16s0.64 0 0.8-0.16c0.16 0 0.48-0.32 0.48-0.48 0.16-0.16 0.16-0.48 0.16-0.64 0-0.32 0-0.48-0.16-0.64s-0.32-0.32-0.64-0.32v0c0.16 0 0.48-0.16 0.64-0.32s0.16-0.32 0.16-0.64c0-0.16 0-0.48-0.16-0.48-0.16-0.16-0.32-0.32-0.48-0.48-0.16 0-0.48-0.16-0.8-0.16s-0.48 0.32-0.64 0.32c-0.16 0-0.48 0.16-0.64 0.48-0.16 0.16-0.16 0.32-0.16 0.64h0.8c0 0 0-0.16 0-0.32 0 0 0.16-0.16 0.16-0.16s0.16 0 0.32 0c0.16 0 0.16 0 0.32 0s0.16 0 0.16 0.16c0 0 0 0.16 0 0.32s0 0.16 0 0.32c0 0-0.16 0.16-0.16 0.16s-0.16 0-0.32 0h-0.32v0.48h0.32c0.16 0 0.32 0 0.48 0s0.16 0.16 0.32 0.16 0 0.16 0 0.32c0 0.16 0 0.16 0 0.32s-0.16 0.32-0.16 0.32c0 0-0.16 0-0.32 0s-0.16 0-0.32 0c0 0-0.16 0-0.16-0.16 0 0 0-0.16 0-0.32h-1.12c0 0.16 0 0.48 0.16 0.64s0.32 0.32 0.48 0.48zM19.36 15.36v0.64h1.92v0.64h0.8v-0.64h0.48v-0.64h-0.48v-2.72h-1.12l-1.6 2.72zM21.28 13.6v1.76h-1.12l1.12-1.76zM11.2 16.8v-4.16h-0.8l-1.12 0.64v0.8l0.96-0.48v3.36l0.96-0.16zM15.040 8.48v2.56h1.12c0.16 0 0.32 0 0.48 0s0.16-0.16 0.32-0.32c0-0.16 0-0.16 0-0.32s0-0.16 0-0.32c0 0-0.16-0.16-0.16-0.16s-0.16 0-0.32 0v0c0 0 0.16 0 0.16 0s0.16-0.16 0.16-0.16c0 0 0-0.16 0-0.32s0-0.16 0-0.32c0 0-0.16-0.16-0.32-0.16s-0.32 0-0.48 0l-0.96-0.48zM16 10.72c0.16 0 0.16 0 0.32-0.16 0 0 0-0.16 0-0.16s0 0 0-0.16-0.16-0.16-0.16-0.16c0 0-0.16 0-0.16 0h-0.48v0.64h0.48zM16 9.6c0 0 0 0 0 0 0.16 0 0.16 0 0.32-0.32 0 0 0-0.16 0-0.16s0-0.16 0-0.16c-0.16 0-0.16 0-0.32 0h-0.48v0.64h0.48zM12.8 11.2l0.16-0.64h0.96l0.32 0.64h0.64l-0.96-2.56h-0.64l-0.96 2.56h0.48zM13.44 9.12l0.32 0.96h-0.64l0.32-0.96z"></path>
</svg>
