<!-- Generated by IcoMoon.io -->
<svg version="1.1" xmlns="http://www.w3.org/2000/svg" width="32" height="32" viewBox="0 0 32 32">
<path fill="#000" d="M16.513 4c-3.011 0-5.755 0.995-7.378 1.807-0.147 0.073-0.284 0.145-0.411 0.215-0.252 0.137-0.467 0.265-0.637 0.378l1.847 2.719 0.869 0.346c3.397 1.714 7.953 1.714 11.351 0l0.987-0.512 1.746-2.553c-0.362-0.235-0.738-0.448-1.126-0.638-1.615-0.804-4.294-1.762-7.248-1.762zM12.219 7.077c-0.654-0.123-1.3-0.285-1.934-0.485 1.521-0.675 3.787-1.392 6.229-1.392 1.691 0 3.291 0.344 4.613 0.78-1.55 0.218-3.204 0.588-4.78 1.043-1.24 0.359-2.689 0.32-4.128 0.054zM22.859 10.453c5.571 5.953 9.961 17.545-6.346 17.545s-12.021-11.38-6.405-17.541l0.155 0.079c3.737 1.885 8.695 1.885 12.432 0l0.164-0.083zM15.821 17.294c-0.354 0-0.693 0.14-0.943 0.391s-0.391 0.589-0.391 0.943c0 0.354 0.14 0.693 0.391 0.943s0.589 0.391 0.943 0.391v-2.667zM17.154 15.961v-0.667h-1.333v0.667c-0.707 0-1.386 0.281-1.886 0.781s-0.781 1.178-0.781 1.886c0 0.707 0.281 1.386 0.781 1.886s1.178 0.781 1.886 0.781v2.667c-0.58 0-1.074-0.37-1.258-0.889-0.027-0.085-0.071-0.163-0.13-0.231s-0.129-0.123-0.209-0.162c-0.080-0.039-0.167-0.063-0.256-0.068s-0.178 0.007-0.262 0.037c-0.084 0.030-0.161 0.076-0.227 0.136s-0.119 0.133-0.156 0.214-0.058 0.169-0.061 0.258c-0.003 0.089 0.012 0.178 0.044 0.261 0.184 0.52 0.524 0.97 0.975 1.289s0.988 0.489 1.54 0.489v0.667h1.333v-0.667c0.707 0 1.386-0.281 1.886-0.781s0.781-1.178 0.781-1.886-0.281-1.385-0.781-1.886c-0.5-0.5-1.178-0.781-1.886-0.781v-2.667c0.58 0 1.074 0.37 1.258 0.889 0.027 0.085 0.071 0.163 0.13 0.231s0.129 0.123 0.209 0.162c0.080 0.040 0.167 0.063 0.256 0.068s0.178-0.007 0.262-0.037c0.084-0.030 0.161-0.076 0.227-0.136s0.119-0.133 0.156-0.214c0.037-0.081 0.058-0.169 0.061-0.258s-0.012-0.178-0.044-0.261c-0.184-0.52-0.524-0.97-0.975-1.289s-0.988-0.489-1.54-0.489zM17.154 21.294v2.667c0.354 0 0.693-0.141 0.943-0.391s0.391-0.589 0.391-0.943c0-0.354-0.14-0.693-0.391-0.943s-0.589-0.39-0.943-0.39z"></path>
<path fill="#fff" d="M17.154 15.961v-0.667h-1.333v0.667c-0.707 0-1.386 0.281-1.886 0.781s-0.781 1.178-0.781 1.886c0 0.707 0.281 1.386 0.781 1.886s1.178 0.781 1.886 0.781v2.667c-0.58 0-1.074-0.37-1.258-0.889-0.027-0.085-0.071-0.163-0.13-0.231s-0.129-0.123-0.209-0.162c-0.080-0.039-0.167-0.063-0.256-0.068s-0.178 0.007-0.262 0.037c-0.084 0.030-0.161 0.076-0.227 0.136s-0.119 0.133-0.156 0.214-0.058 0.169-0.061 0.258c-0.003 0.089 0.012 0.178 0.044 0.261 0.184 0.52 0.524 0.97 0.975 1.289s0.988 0.489 1.54 0.489v0.667h1.333v-0.667c0.707 0 1.386-0.281 1.886-0.781s0.781-1.178 0.781-1.886-0.281-1.385-0.781-1.886c-0.5-0.5-1.178-0.781-1.886-0.781v-2.667c0.58 0 1.074 0.37 1.258 0.889 0.027 0.085 0.071 0.163 0.13 0.231s0.129 0.123 0.209 0.162c0.080 0.040 0.167 0.063 0.256 0.068s0.178-0.007 0.262-0.037c0.084-0.030 0.161-0.076 0.227-0.136s0.119-0.133 0.156-0.214c0.037-0.081 0.058-0.169 0.061-0.258s-0.012-0.178-0.044-0.261c-0.184-0.52-0.524-0.97-0.975-1.289s-0.988-0.489-1.54-0.489zM14.878 17.684c0.25-0.25 0.589-0.391 0.943-0.391v2.667c-0.354 0-0.693-0.14-0.943-0.391s-0.391-0.589-0.391-0.943c0-0.354 0.14-0.693 0.391-0.943zM17.154 23.961v-2.667c0.354 0 0.693 0.14 0.943 0.39s0.391 0.589 0.391 0.943c0 0.354-0.14 0.693-0.391 0.943s-0.589 0.391-0.943 0.391z"></path>
<path fill="#fff" d="M7.276 8.745c-0.275-0.244-0.102-0.699 0.266-0.699h17.895c0.368 0 0.541 0.455 0.266 0.699l-1.54 1.368c-0.358 0.318-0.358 0.878 0 1.196l1.54 1.368c0.275 0.244 0.102 0.699-0.266 0.699h-17.895c-0.368 0-0.541-0.455-0.266-0.699l1.54-1.368c0.358-0.318 0.358-0.878 0-1.196l-1.54-1.368z"></path>
<path fill="#000" d="M10.607 12.334v-3.245h0.686v2.679h1.391v0.566h-2.077z"></path>
<path fill="#000" d="M15.994 10.712c0 0.354-0.067 0.655-0.201 0.903-0.133 0.248-0.315 0.438-0.545 0.569-0.229 0.13-0.487 0.195-0.773 0.195-0.288 0-0.547-0.065-0.776-0.196s-0.41-0.321-0.543-0.569c-0.133-0.248-0.2-0.549-0.2-0.901 0-0.354 0.067-0.655 0.2-0.903s0.314-0.437 0.543-0.567c0.229-0.131 0.488-0.196 0.776-0.196 0.286 0 0.544 0.065 0.773 0.196 0.23 0.13 0.412 0.319 0.545 0.567 0.134 0.248 0.201 0.549 0.201 0.903zM15.298 10.712c0-0.229-0.034-0.422-0.103-0.58-0.068-0.157-0.163-0.277-0.287-0.358s-0.268-0.122-0.434-0.122c-0.166 0-0.311 0.041-0.434 0.122s-0.22 0.201-0.288 0.358c-0.068 0.157-0.101 0.351-0.101 0.58s0.034 0.422 0.101 0.58c0.069 0.157 0.165 0.277 0.288 0.358s0.268 0.122 0.434 0.122c0.166 0 0.311-0.041 0.434-0.122s0.219-0.201 0.287-0.358c0.069-0.157 0.103-0.351 0.103-0.58z"></path>
<path fill="#000" d="M16.878 12.334h-0.735l1.12-3.245h0.884l1.119 3.245h-0.735l-0.813-2.503h-0.025l-0.814 2.503zM16.832 11.059h1.736v0.536h-1.736v-0.536z"></path>
<path fill="#000" d="M22.37 9.089v3.245h-0.593l-1.412-2.042h-0.024v2.042h-0.686v-3.245h0.602l1.401 2.041h0.029v-2.041h0.683z"></path>
</svg>
