<!-- Generated by IcoMoon.io -->
<svg version="1.1" xmlns="http://www.w3.org/2000/svg" width="32" height="32" viewBox="0 0 32 32">
<path fill="#000" d="M22.003 20.171c-0.662 0.347-1.851 1.401-1.893 1.679-0.054 0.354-0.003 0.483 0.307 0.785 0.353 0.343 1.804 1.8 3.236 3.25 1.224 1.239 1.323 1.314 1.845 1.394 1.028 0.158 2.001-0.966 1.733-2.001-0.093-0.358 0.005-0.251-3.185-3.512-0.548-0.56-1.097-1.13-1.221-1.267-0.36-0.397-0.546-0.471-0.821-0.327zM23.312 21.758c2.892 2.842 3.468 3.466 3.311 3.592-0.161 0.128-0.179 0.114-1.185-0.901-0.522-0.527-1.498-1.504-2.167-2.169s-1.218-1.231-1.218-1.256c0-0.044 0.189-0.258 0.228-0.258 0.011 0 0.474 0.447 1.030 0.993z"></path>
<path fill="#000" d="M23.312 21.758c2.892 2.842 3.468 3.466 3.311 3.592-0.161 0.128-0.179 0.114-1.185-0.901-0.522-0.527-1.498-1.504-2.167-2.169s-1.218-1.231-1.218-1.256c0-0.044 0.189-0.258 0.228-0.258 0.011 0 0.474 0.447 1.030 0.993z"></path>
<path fill="#fff" d="M8.418 15.96c0 0.733 0.49 1.161 1.215 1.161h8.263c0.725 0 1.215-0.427 1.215-1.161v-0.212h-10.694v0.212z"></path>
<path fill="#fff" d="M19.225 11.239c0.056 0.009 0.108 0.040 0.145 0.085s0.058 0.103 0.058 0.163v0.125c0 0.057-0.019 0.113-0.053 0.158s-0.083 0.076-0.137 0.088l-0.84 0.197 0.403 0.641c0.203 0.323 0.311 0.701 0.312 1.087v1.582h-10.694v-1.582c-0-0.386 0.108-0.764 0.311-1.087l0.402-0.638-0.838-0.2c-0.054-0.012-0.102-0.043-0.137-0.088s-0.053-0.101-0.053-0.158v-0.125c-0-0.060 0.020-0.117 0.057-0.163s0.089-0.076 0.145-0.085l0.612-0.112c0.049-0.009 0.099-0 0.143 0.024s0.078 0.064 0.098 0.111l0.192 0.447 0.076-0.121 0.535-1.319c0.087-0.214 0.224-0.402 0.4-0.546s0.383-0.238 0.604-0.275c0.927-0.147 1.863-0.218 2.8-0.214 0.937-0.005 1.873 0.066 2.8 0.213 0.22 0.037 0.428 0.132 0.603 0.275s0.313 0.331 0.399 0.546l0.537 1.321 0.077 0.123 0.191-0.449c0.020-0.048 0.054-0.087 0.098-0.111s0.094-0.033 0.143-0.024l0.612 0.111zM10.588 10.026c-0.126 0.104-0.225 0.239-0.287 0.394l-0.413 1.014h7.754l-0.413-1.014c-0.062-0.155-0.161-0.29-0.287-0.394s-0.276-0.172-0.435-0.198c-0.907-0.144-1.824-0.213-2.742-0.209-0.918-0.004-1.835 0.065-2.742 0.209-0.159 0.026-0.309 0.094-0.435 0.198zM9.329 14.025c0.054 0.051 0.121 0.084 0.193 0.095l1.62 0.238c0 0-0.498-0.987-0.628-1.028s-1.090-0.104-1.090-0.104c-0.14 0-0.209 0.113-0.229 0.343-0.005 0.089 0.004 0.178 0.026 0.264 0.017 0.074 0.054 0.141 0.108 0.192zM13.753 14.617l1.919-0.114 0.484-1.066c0 0-1.704 0.155-2.392 0.155s-2.391-0.155-2.391-0.155l0.484 1.069 1.896 0.112zM18.201 14.026c0.054-0.051 0.091-0.118 0.108-0.192 0.022-0.086 0.031-0.175 0.026-0.264-0.020-0.229-0.089-0.343-0.229-0.343 0 0-0.96 0.062-1.090 0.104s-0.628 1.028-0.628 1.028l1.62-0.238c0.072-0.011 0.139-0.044 0.193-0.095z"></path>
<path fill="#000" d="M10.588 10.026c-0.126 0.104-0.225 0.239-0.287 0.394l-0.413 1.014h7.754l-0.413-1.014c-0.062-0.155-0.161-0.29-0.287-0.394s-0.276-0.172-0.435-0.198c-0.907-0.144-1.824-0.213-2.742-0.209-0.918-0.004-1.835 0.065-2.742 0.209-0.159 0.026-0.309 0.094-0.435 0.198zM9.329 14.025c0.054 0.051 0.121 0.084 0.193 0.095l1.62 0.238c0 0-0.498-0.987-0.628-1.028s-1.090-0.104-1.090-0.104c-0.14 0-0.209 0.113-0.229 0.343-0.005 0.089 0.004 0.178 0.026 0.264 0.017 0.074 0.054 0.141 0.108 0.192zM13.753 14.617l1.919-0.114 0.484-1.066c0 0-1.704 0.155-2.392 0.155s-2.391-0.155-2.391-0.155l0.484 1.069 1.896 0.112zM18.201 14.026c0.054-0.051 0.091-0.118 0.108-0.192 0.022-0.086 0.031-0.175 0.026-0.264-0.020-0.229-0.089-0.343-0.229-0.343 0 0-0.96 0.062-1.090 0.104s-0.628 1.028-0.628 1.028l1.62-0.238c0.072-0.011 0.139-0.044 0.193-0.095z"></path>
<path fill="#000" d="M22.825 13.766c0-5.004-4.056-9.060-9.060-9.060s-9.060 4.056-9.060 9.060c0 5.004 4.056 9.060 9.060 9.060s9.060-4.056 9.060-9.060zM17.653 18.037v-0.532h0.244c0.223 0.010 0.446-0.029 0.654-0.114s0.397-0.214 0.555-0.379v1.025c0 0.069-0.026 0.134-0.073 0.183s-0.11 0.076-0.176 0.076h-0.955c-0.033 0-0.065-0.006-0.095-0.019s-0.058-0.032-0.081-0.056c-0.023-0.024-0.042-0.053-0.054-0.084s-0.019-0.065-0.019-0.099zM8.411 18.037v-1.040c0.158 0.17 0.348 0.303 0.559 0.391s0.437 0.128 0.663 0.117h0.229v0.532c0 0.069-0.026 0.134-0.073 0.183s-0.11 0.076-0.176 0.076h-0.955c-0.066 0-0.129-0.027-0.176-0.076s-0.073-0.114-0.073-0.183zM9.634 17.121c-0.726 0-1.215-0.427-1.215-1.161v-0.212h10.694v0.212c0 0.733-0.491 1.161-1.215 1.161h-8.263zM18.613 11.129l0.612 0.111c0.056 0.009 0.108 0.040 0.145 0.085s0.058 0.103 0.058 0.163v0.125c0 0.057-0.019 0.113-0.053 0.158s-0.083 0.076-0.137 0.088l-0.84 0.197 0.403 0.641c0.203 0.323 0.311 0.701 0.312 1.087v1.582h-10.694v-1.582c-0-0.386 0.108-0.764 0.311-1.087l0.402-0.638-0.838-0.2c-0.054-0.012-0.102-0.043-0.137-0.088s-0.053-0.101-0.053-0.158v-0.125c-0-0.060 0.020-0.117 0.057-0.163s0.089-0.076 0.145-0.085l0.612-0.112c0.049-0.009 0.099-0 0.143 0.024s0.078 0.064 0.098 0.111l0.192 0.447 0.076-0.121 0.535-1.319c0.087-0.214 0.224-0.402 0.4-0.546s0.383-0.238 0.604-0.275c0.927-0.147 1.863-0.218 2.8-0.214 0.937-0.005 1.873 0.066 2.8 0.213 0.22 0.037 0.428 0.132 0.603 0.275s0.313 0.331 0.399 0.546l0.537 1.321 0.077 0.123 0.191-0.449c0.020-0.048 0.054-0.087 0.098-0.111s0.094-0.033 0.143-0.024z"></path>
</svg>
