<!-- Generated by IcoMoon.io -->
<svg version="1.1" xmlns="http://www.w3.org/2000/svg" width="32" height="32" viewBox="0 0 32 32">
<path d="M22.378 20.432c-0.703 0.369-1.967 1.489-2.011 1.784-0.057 0.376-0.003 0.514 0.327 0.834 0.375 0.365 1.916 1.913 3.438 3.453 1.301 1.317 1.406 1.396 1.961 1.481 1.093 0.167 2.126-1.026 1.841-2.126-0.099-0.381 0.005-0.266-3.384-3.732-0.582-0.595-1.166-1.201-1.298-1.347-0.382-0.422-0.58-0.501-0.873-0.348zM23.77 22.118c3.073 3.019 3.685 3.683 3.518 3.816-0.171 0.137-0.19 0.122-1.259-0.958-0.555-0.56-1.591-1.598-2.303-2.305s-1.293-1.308-1.293-1.334c0-0.047 0.201-0.274 0.242-0.274 0.011 0 0.504 0.475 1.094 1.055z"></path>
<path d="M23.77 22.118c3.073 3.019 3.685 3.683 3.518 3.816-0.171 0.137-0.19 0.122-1.259-0.958-0.555-0.56-1.591-1.598-2.303-2.305s-1.293-1.308-1.293-1.334c0-0.047 0.201-0.274 0.242-0.274 0.011 0 0.504 0.475 1.094 1.055z"></path>
<path d="M10.25 9.652c-0.134 0.11-0.239 0.254-0.305 0.419l-0.438 1.077h8.238l-0.438-1.078c-0.066-0.164-0.171-0.308-0.305-0.419s-0.293-0.183-0.462-0.21c-0.964-0.153-1.938-0.227-2.913-0.222-0.975-0.005-1.949 0.070-2.913 0.222-0.169 0.028-0.328 0.1-0.462 0.21zM8.912 13.901c0.057 0.054 0.128 0.090 0.205 0.101l1.722 0.253c0 0-0.529-1.048-0.667-1.093s-1.158-0.11-1.158-0.11c-0.149 0-0.222 0.12-0.243 0.364-0.005 0.094 0.004 0.189 0.027 0.281 0.018 0.078 0.058 0.149 0.115 0.204zM13.613 14.531l2.039-0.121 0.514-1.133c0 0-1.81 0.164-2.541 0.164s-2.54-0.164-2.54-0.164l0.514 1.136 2.014 0.118zM18.339 13.903c0.057-0.054 0.097-0.125 0.115-0.204 0.024-0.091 0.033-0.186 0.027-0.281-0.021-0.243-0.094-0.364-0.243-0.364 0 0-1.020 0.066-1.158 0.11s-0.667 1.093-0.667 1.093l1.722-0.253c0.076-0.012 0.148-0.047 0.205-0.101z"></path>
<path d="M23.252 13.626c0-5.316-4.31-9.626-9.626-9.626s-9.626 4.31-9.626 9.626c0 5.316 4.31 9.626 9.626 9.626s9.626-4.31 9.626-9.626zM17.757 18.164v-0.565h0.259c0.237 0.010 0.474-0.031 0.695-0.121s0.422-0.227 0.589-0.403v1.089c0 0.073-0.028 0.143-0.077 0.194s-0.117 0.081-0.186 0.081h-1.015c-0.035 0-0.069-0.007-0.101-0.021s-0.061-0.034-0.086-0.060c-0.025-0.025-0.044-0.056-0.058-0.089s-0.020-0.069-0.020-0.105zM7.937 18.164v-1.105c0.168 0.181 0.37 0.322 0.594 0.415s0.464 0.136 0.705 0.125h0.243v0.565c0 0.073-0.028 0.143-0.077 0.194s-0.117 0.081-0.187 0.081h-1.015c-0.070 0-0.137-0.029-0.187-0.081s-0.077-0.122-0.077-0.194zM9.236 17.191c-0.771 0-1.291-0.454-1.291-1.233v-0.225h11.362v0.225c0 0.779-0.521 1.233-1.291 1.233h-8.78zM18.776 10.824l0.65 0.118c0.060 0.010 0.115 0.042 0.154 0.090s0.061 0.11 0.061 0.173v0.133c0 0.061-0.020 0.12-0.057 0.168s-0.088 0.081-0.145 0.094l-0.892 0.21 0.428 0.681c0.216 0.343 0.331 0.745 0.331 1.155v1.681h-11.362v-1.681c-0-0.41 0.115-0.812 0.331-1.155l0.427-0.678-0.891-0.212c-0.057-0.013-0.109-0.046-0.145-0.094s-0.057-0.107-0.057-0.168v-0.133c-0-0.063 0.021-0.125 0.061-0.173s0.094-0.080 0.154-0.091l0.651-0.119c0.052-0.009 0.105-0 0.152 0.026s0.083 0.068 0.104 0.118l0.204 0.475 0.081-0.129 0.569-1.401c0.092-0.228 0.238-0.427 0.425-0.58s0.407-0.253 0.642-0.292c0.984-0.156 1.979-0.232 2.975-0.227 0.996-0.005 1.991 0.071 2.975 0.226 0.234 0.039 0.454 0.14 0.641 0.292s0.332 0.352 0.424 0.58l0.57 1.403 0.082 0.131 0.202-0.477c0.021-0.050 0.057-0.092 0.104-0.118s0.1-0.035 0.152-0.026z"></path>
</svg>
