<!-- Generated by IcoMoon.io -->
<svg version="1.1" xmlns="http://www.w3.org/2000/svg" width="32" height="32" viewBox="0 0 32 32">
<path fill="#fff" d="M12.38 20.461l-2.72-2.743c-0.106-0.106-0.19-0.231-0.247-0.37s-0.087-0.286-0.087-0.436c0-0.15 0.030-0.298 0.087-0.436s0.141-0.264 0.247-0.37l0.080-0.080c0.446-0.446 1.177-0.446 1.623 0l1.84 1.851 5.886-5.897c0.446-0.446 1.177-0.446 1.623 0l0.080 0.080c0.446 0.446 0.446 1.166 0 1.611l-6.766 6.789c-0.469 0.446-1.188 0.446-1.646 0z"></path>
<path fill="#000" d="M27.945 15.878l-2.789 3.189 0.389 4.217-4.126 0.937-2.16 3.646-3.886-1.669-3.886 1.68-2.16-3.646-4.126-0.937 0.389-4.229-2.789-3.189 2.789-3.2-0.389-4.229 4.126-0.926 2.16-3.646 3.886 1.669 3.886-1.669 2.16 3.657 4.126 0.937-0.389 4.217 2.789 3.189zM9.66 17.718l2.72 2.743c0.457 0.446 1.177 0.446 1.646 0l6.766-6.789c0.446-0.446 0.446-1.166 0-1.611l-0.080-0.080c-0.446-0.446-1.177-0.446-1.623 0l-5.886 5.897-1.84-1.851c-0.446-0.446-1.177-0.446-1.623 0l-0.080 0.080c-0.106 0.106-0.19 0.231-0.247 0.37s-0.087 0.286-0.087 0.436c0 0.15 0.030 0.298 0.087 0.436s0.141 0.264 0.247 0.37z"></path>
</svg>
