<!-- Generated by IcoMoon.io -->
<svg version="1.1" xmlns="http://www.w3.org/2000/svg" width="32" height="32" viewBox="0 0 32 32">
<title>car-care</title>
<path d="M7.68 29.013c1.067 0 1.813-0.853 1.813-1.92s-0.853-1.92-1.813-1.92c-1.067 0-1.813 0.853-1.813 1.92-0.107 1.067 0.747 1.92 1.813 1.92z"></path>
<path d="M29.653 25.28l-0.32-1.28c0 0 0 0 0-0.107-0.107-0.213-0.32-0.427-0.533-0.533s-0.427-0.213-0.747-0.213l-5.867-0.96c0 0-0.107 0-0.107 0l-4.267-2.453c-1.387-0.64-2.987-0.96-4.587-0.96-3.093 0-3.947 0.533-4.267 0.747l-2.56 1.707c-0.213 0.107-0.32 0.107-0.533 0.107h-1.387c-0.96 0-1.6 0.64-1.813 1.813l-0.533 1.92c0 0.213 0 0.427 0 0.64 0.107 0.213 0.213 0.427 0.32 0.64 0.213 0.213 0.427 0.427 0.64 0.533s0.533 0.213 0.853 0.213h0.853c0-0.747 0.32-1.493 0.853-2.027s1.173-0.853 1.92-0.853 1.493 0.32 2.027 0.853c0.533 0.533 0.853 1.28 0.853 2.027h10.56c0-0.747 0.32-1.493 0.853-2.027s1.173-0.853 1.92-0.853c0.747 0 1.387 0.32 1.92 0.853s0.853 1.28 0.853 2.027h2.027c0.213 0 0.427-0.107 0.533-0.107 0.213-0.107 0.32-0.213 0.427-0.427s0.213-0.427 0.213-0.64c0-0.213-0.107-0.427-0.107-0.64v0zM12.693 22.080c-1.813-0.107-3.52-0.213-5.12-0.427l1.813-1.067c0.213-0.107 0.853-0.533 3.307-0.533v2.027zM13.653 22.080v-2.133c1.28 0 2.453 0.32 3.627 0.747l2.773 1.6c-1.6 0-3.947-0.107-6.4-0.213v0z"></path>
<path d="M23.787 29.013c1.067 0 1.813-0.853 1.813-1.92s-0.853-1.92-1.813-1.92-1.813 0.853-1.813 1.92c-0.107 1.067 0.747 1.92 1.813 1.92z"></path>
<path d="M29.867 12.053c-0.107 0.32-0.32 0.64-0.427 0.96-0.533-0.213-1.067-0.533-1.707-0.747-3.84-1.813-7.68-3.627-11.52-5.44-0.107-0.107-0.32 0-0.427 0-4.267 2.027-8.533 3.947-12.693 5.973-0.107 0.107-0.213 0.107-0.427 0.213-0.107-0.32-0.32-0.64-0.427-0.96 0.747-0.32 1.493-0.747 2.24-1.067 3.733-1.813 7.573-3.52 11.307-5.333 0.213-0.107 0.427-0.107 0.64 0 4.373 2.133 8.853 4.16 13.227 6.187 0 0.107 0.107 0.107 0.213 0.213v0z"></path>
<path d="M6.187 19.733c0-1.28 0-4.8 0-6.080 0-0.32 0.107-0.427 0.32-0.427 1.493-0.213 2.88-0.427 4.373-0.64 4.907-0.427 9.813-0.32 14.72 0.64 0.32 0.107 0.427 0.107 0.427 0.427 0 1.813 0 6.507 0 8.213 0 0 0 0 0 0l0.853 0.107c0.32 0 1.067 0.213 1.6 0.213 0-2.027 0-7.040 0-9.067 0-0.213-0.107-0.427-0.32-0.533-3.947-1.813-7.787-3.627-11.733-5.44-0.107-0.107-0.32-0.107-0.533 0-0.853 0.427-1.813 0.853-2.667 1.28-2.987 1.387-5.973 2.773-8.96 4.267-0.213 0.107-0.32 0.107-0.32 0.427 0 1.707 0 5.653 0 7.36 1.067 0 2.027 0 2.347-0.213l-0.107-0.533z"></path>
<path d="M25.92 6.72c0 0 0 0 0 0 0.107-0.32 0.213-0.533 0.213-0.747 0-0.107 0.107-0.32 0.107-0.427s0.107-0.213 0.213-0.213c0.32-0.107 0.64-0.213 1.067-0.32 0 0 0 0 0.107 0 0 0 0 0 0 0s0 0 0 0c-0.107 0-0.213-0.107-0.32-0.107-0.213-0.107-0.427-0.107-0.747-0.213-0.107 0-0.213-0.107-0.213-0.32-0.107-0.32-0.213-0.747-0.32-1.067 0 0 0 0-0.107-0.107 0 0 0 0-0.107 0.107-0.107 0.32-0.213 0.747-0.32 1.067 0 0.107-0.107 0.213-0.213 0.32-0.32 0.107-0.747 0.213-1.067 0.32 0 0 0 0-0.107 0.107 0 0 0 0 0.107 0.107 0.32 0.107 0.747 0.213 1.067 0.32 0.107 0 0.213 0.107 0.213 0.32 0.107 0 0.213 0.427 0.427 0.853-0.107-0.107-0.107 0 0 0-0.107 0 0 0 0 0v0z"></path>
<path d="M21.333 18.987c0 0 0 0 0 0 0.107-0.32 0.213-0.64 0.32-0.853 0-0.213 0.107-0.32 0.107-0.533 0-0.107 0.107-0.213 0.32-0.32 0.427-0.107 0.747-0.213 1.173-0.427 0 0 0.107 0 0.107 0s0 0 0-0.107c0 0 0 0-0.107-0.107-0.107 0-0.32-0.107-0.427-0.107-0.32-0.107-0.533-0.213-0.853-0.32-0.107 0-0.213-0.107-0.32-0.32-0.107-0.427-0.213-0.853-0.427-1.28 0 0 0-0.107-0.107-0.107 0 0-0.107 0.107-0.107 0.107-0.107 0.427-0.213 0.853-0.427 1.28 0 0.213-0.107 0.213-0.32 0.32-0.427 0.107-0.853 0.213-1.173 0.427 0 0-0.107 0-0.107 0.107 0 0 0.107 0.107 0.107 0.107 0.427 0.107 0.853 0.32 1.173 0.427 0.213 0 0.213 0.107 0.32 0.32 0.32 0.533 0.533 0.853 0.747 1.387-0.107 0-0.107 0 0 0-0.107 0-0.107 0 0 0v0z"></path>
<path d="M6.187 8.32c0 0 0 0 0 0 0.107-0.32 0.213-0.533 0.213-0.747 0-0.107 0.107-0.32 0.107-0.427s0.107-0.213 0.213-0.32c0.32-0.107 0.747-0.213 1.067-0.32 0 0 0.107 0 0.107 0s0 0 0-0.107c0 0 0 0 0 0-0.107 0-0.213-0.107-0.427-0.107-0.107-0.107-0.427-0.213-0.64-0.32-0.107 0-0.213-0.107-0.32-0.32-0.107-0.32-0.213-0.747-0.32-1.067 0 0 0 0-0.107-0.107 0 0-0.107 0-0.107 0.107 0 0.32-0.107 0.747-0.213 1.067 0 0.107-0.107 0.213-0.32 0.32-0.32 0.107-0.747 0.213-1.067 0.427 0 0-0.107 0-0.107 0s0 0 0.107 0.107c0.32 0.107 0.747 0.213 1.067 0.32 0.107 0 0.213 0.107 0.32 0.32 0.107 0.32 0.213 0.747 0.427 1.173-0.107 0-0.107 0 0 0 0 0 0 0 0 0v0z"></path>
</svg>
