<!-- Generated by IcoMoon.io -->
<svg version="1.1" xmlns="http://www.w3.org/2000/svg" width="32" height="32" viewBox="0 0 32 32">
<title>card</title>
<path d="M15.216 3.202h-9.927c-0.287 0-0.522 0.235-0.522 0.522v9.927c0 0.287 0.235 0.522 0.522 0.522h9.927c0.287 0 0.522-0.235 0.522-0.522v-9.927c0-0.287-0.235-0.522-0.522-0.522zM13.518 11.953h-6.531v-6.531h6.531v6.531zM28.278 3.202h-9.927c-0.287 0-0.522 0.235-0.522 0.522v9.927c0 0.287 0.235 0.522 0.522 0.522h9.927c0.287 0 0.522-0.235 0.522-0.522v-9.927c0-0.287-0.235-0.522-0.522-0.522zM26.58 11.953h-6.531v-6.531h6.531v6.531zM28.278 16.263h-9.927c-0.287 0-0.522 0.235-0.522 0.522v9.927c0 0.287 0.235 0.522 0.522 0.522h9.927c0.287 0 0.522-0.235 0.522-0.522v-9.927c0-0.287-0.235-0.522-0.522-0.522zM26.58 25.014h-6.531v-6.531h6.531v6.531zM13.91 21.749h-4.18v-4.18c0-0.144-0.118-0.261-0.261-0.261h-1.567c-0.144 0-0.261 0.118-0.261 0.261v4.18h-4.18c-0.144 0-0.261 0.117-0.261 0.261v1.567c0 0.144 0.118 0.261 0.261 0.261h4.18v4.18c0 0.144 0.118 0.261 0.261 0.261h1.567c0.144 0 0.261-0.118 0.261-0.261v-4.18h4.18c0.144 0 0.261-0.118 0.261-0.261v-1.567c0-0.144-0.118-0.261-0.261-0.261z"></path>
</svg>
