<!-- Generated by IcoMoon.io -->
<svg version="1.1" xmlns="http://www.w3.org/2000/svg" width="32" height="32" viewBox="0 0 32 32">
<title>cars-for-rent</title>
<path d="M7.36 7.52l-0.16-0.8c-0.16-0.64 0-1.76 0.96-2.080 0.48-0.16 5.28-1.28 5.28-1.28z"></path>
<path d="M10.24 8.32l1.92 2.88c0.32 0.8 0.32 1.44-0.32 1.92-0.8 0.48-1.28 0-1.76-0.64l-1.92-2.88z"></path>
<path d="M11.2 13.6c-0.48 0-1.12-0.32-1.44-0.96l-1.92-2.88c0-0.16 0-0.48 0.16-0.48 0.16-0.16 0.48 0 0.48 0.16l1.76 2.88c0 0 0 0 0 0 0.64 0.8 1.12 0.48 1.28 0.48 0.64-0.32 0.32-0.96 0.16-1.44l-1.76-2.88c0-0.16 0-0.32 0.16-0.48s0.48 0 0.48 0.16l1.76 2.88c0 0 0 0 0 0 0.64 0.96 0.48 1.92-0.32 2.4-0.32 0.16-0.48 0.16-0.8 0.16v0z"></path>
<path d="M23.2 8.8c-0.8 1.92-3.2 2.24-4 2.080-0.32-0.16-0.64 0-0.96 0.16l-2.56 2.080c-0.64 0.48-1.44 0.48-1.92-0.16s-0.48-1.44 0.16-1.92l2.56-2.080z"></path>
<path d="M22.24 4.48h4.32c0.32 0 0.48 0.32 0.48 0.64l-1.76 4.32h-4.48z"></path>
<path d="M24 6.24c0 2.4-1.92 3.84-4.48 3.68s-6.24-2.72-6.24-2.72l-5.92 4c-0.64 0.48-1.6 0.64-2.080 0-0.64-0.64-0.48-1.28 0.16-1.76l7.52-5.92c0.48-0.32 0.8-0.32 1.28-0.32l8.64 1.28h3.84z"></path>
<path d="M12.96 14.56c-0.64 0-1.12-0.48-1.12-1.12v-0.64c0-0.16 0.16-0.32 0.32-0.32s0.32 0.16 0.32 0.32v0.64c0 0.16 0.16 0.32 0.32 0.32s0.32-0.16 0.32-0.32v-0.48c0-0.16 0.16-0.32 0.32-0.32s0.32 0.16 0.32 0.32v0.48c0.16 0.64-0.32 1.12-0.8 1.12z"></path>
<path d="M12.16 13.44c-0.16 0-0.32-0.16-0.32-0.32v-2.080c0-0.64 0.48-1.12 1.12-1.12s1.12 0.48 1.12 1.12v2.080c0 0.16-0.16 0.32-0.32 0.32s-0.48-0.16-0.48-0.32v-2.080c0-0.16-0.16-0.32-0.32-0.32s-0.32 0.16-0.32 0.32v2.080c0 0.16-0.16 0.32-0.48 0.32z"></path>
<path d="M12.96 16.32c-0.16 0-0.32-0.16-0.32-0.32v-1.76c0-0.16 0.16-0.32 0.32-0.32s0.32 0.16 0.32 0.32v1.76c0 0.16-0.16 0.32-0.32 0.32z"></path>
<path d="M14.4 15.52h-3.040c-1.28 0-2.24 0.96-2.24 2.24v9.76c0 0.48 0.48 0.96 0.96 0.96h5.6c0.48 0 0.96-0.48 0.96-0.96v-9.76c0-1.28-0.96-2.24-2.24-2.24v0zM11.040 16.96c0.16-0.16 0.48-0.32 0.64-0.32h2.4c0.48 0 0.96 0.48 0.96 0.96 0 0.32-0.16 0.48-0.32 0.64s-0.48 0.32-0.64 0.32h-2.4c-0.48 0-0.96-0.48-0.96-0.96 0.16-0.32 0.16-0.48 0.32-0.64zM15.36 26.080c0 0.16-0.16 0.32-0.32 0.32h-4.32c-0.16 0-0.32-0.16-0.32-0.32v-1.92c0-0.16 0.16-0.32 0.32-0.32h4.48c0.16 0 0.32 0.16 0.32 0.32l-0.16 1.92zM15.36 20.32v1.92c0 0.16-0.16 0.32-0.32 0.32h-4.32c-0.16 0-0.32-0.16-0.32-0.32v-1.92c0-0.16 0.16-0.32 0.32-0.32h4.48c0.16 0 0.16 0.16 0.16 0.32z"></path>
<path d="M15.68 28.8h-5.6c-0.64 0-1.28-0.48-1.28-1.28v-9.76c0-1.44 1.12-2.56 2.56-2.56h3.040c1.44 0 2.56 1.12 2.56 2.56v9.76c0 0.8-0.64 1.28-1.28 1.28v0zM11.36 15.68c-1.12 0-2.080 0.96-2.080 2.080v9.76c0 0.48 0.32 0.8 0.8 0.8h5.6c0.48 0 0.8-0.32 0.8-0.8v-9.76c0-1.12-0.96-2.080-2.080-2.080h-3.040zM15.040 26.72h-4.32c-0.32 0-0.48-0.32-0.48-0.48v-1.92c0-0.32 0.32-0.48 0.48-0.48h4.48c0.32 0 0.48 0.32 0.48 0.48v1.92c0 0.16-0.32 0.48-0.64 0.48v0zM10.72 24.16c0 0-0.16 0 0 0l-0.16 1.92c0 0 0 0.16 0.16 0.16h4.48c0 0 0.16 0 0.16-0.16v-1.92c0 0 0-0.16-0.16-0.16l-4.48 0.16zM15.040 22.72h-4.32c-0.32 0-0.48-0.32-0.48-0.48v-1.92c0-0.32 0.32-0.48 0.48-0.48h4.48c0.32 0 0.48 0.32 0.48 0.48v1.92c0 0.32-0.32 0.48-0.64 0.48v0zM10.72 20.16c0 0-0.16 0.16 0 0l-0.16 1.92c0 0 0 0.16 0.16 0.16h4.48c0 0 0.16 0 0.16-0.16v-1.92c0 0 0-0.16-0.16-0.16h-4.48zM14.080 18.72h-2.4c-0.64 0-1.12-0.48-1.12-1.12 0-0.32 0.16-0.64 0.32-0.8s0.48-0.32 0.8-0.32h2.4c0.64 0 1.12 0.48 1.12 1.12 0 0.32-0.16 0.64-0.32 0.8s-0.48 0.32-0.8 0.32v0zM11.68 16.96c-0.16 0-0.32 0-0.48 0.16s-0.16 0.32-0.16 0.48 0.32 0.64 0.64 0.64h2.4c0.16 0 0.32 0 0.48-0.16s0.16-0.32 0.16-0.48-0.32-0.64-0.64-0.64h-2.4z"></path>
</svg>
