<!-- Generated by IcoMoon.io -->
<svg version="1.1" xmlns="http://www.w3.org/2000/svg" width="32" height="32" viewBox="0 0 32 32">
<path d="M28.32 14.24c-0.16-0.32-1.76-0.96-1.76-0.96 0.32-0.16 0.48-0.16 0.48-0.8s0-0.8-0.48-0.8h-1.44c0 0 0 0 0 0-0.96-2.080-1.12-2.56-2.4-3.2-1.92-0.96-5.28-0.96-6.72-0.96s-4.8 0-6.72 0.96c-1.44 0.64-1.44 1.12-2.4 3.2 0 0 0 0 0 0h-1.6c-0.48 0-0.48 0.16-0.48 0.8s0.16 0.64 0.48 0.8c0 0-1.6 0.8-1.76 0.96-0.16 0.32-0.32 1.76-0.32 4.32s0.16 5.12 0.16 5.12h0.64c0 0.8 0.16 0.8 0.48 0.8h4.32c0.32 0 0.48-0.16 0.48-0.8h13.6c0 0.8 0.16 0.8 0.48 0.8h4.32c0.16 0 0.32-0.16 0.32-0.8h0.64c0 0 0.16-2.56 0.16-5.12s-0.32-4-0.48-4.32zM8.96 16.64c-0.96 0.16-1.92 0.16-2.88 0.16-1.12 0-1.12 0-1.28-0.64 0-0.32 0-0.64 0-0.96v-0.16h0.16c0.64 0 1.28 0 2.4 0.32 0.64 0.16 1.12 0.48 1.6 0.8 0.16 0.16 0.32 0.32 0.32 0.32l-0.32 0.16zM22.24 20.48l-0.16 0.64h-12c0 0 0 0-0.32-0.64-0.16-0.48 0-0.64 0.48-0.8 0.8-0.32 3.2-1.12 5.76-1.12s4.96 0.64 5.76 1.12c0.32 0.16 0.64 0.32 0.48 0.8v0zM8.48 13.28c-0.16 0-0.32 0-0.48 0 0.16-0.32 0.16-0.48 0.32-0.8 0.48-0.96 0.96-1.92 1.76-2.4 1.28-0.64 3.84-0.96 5.92-0.96s4.64 0.32 5.92 0.96c0.8 0.48 1.28 1.44 1.76 2.4 0.16 0.32 0.16 0.48 0.32 0.8-0.16 0-0.16 0-0.48 0h-15.040zM27.040 16.32c-0.16 0.64 0 0.64-1.12 0.64-0.96 0-1.92 0-2.88-0.16-0.16 0-0.16-0.32 0-0.32 0.48-0.32 0.96-0.64 1.6-0.8 1.12-0.32 1.76-0.32 2.4-0.32 0 0 0.16 0 0.16 0s0 0 0 0.16c-0.16 0.16-0.16 0.48-0.16 0.8v0z"></path>
</svg>
