<!-- Generated by IcoMoon.io -->
<svg version="1.1" xmlns="http://www.w3.org/2000/svg" width="32" height="32" viewBox="0 0 32 32">
<path d="M8.48 6.4v3.52h4v-3.52h-4zM8.48 12.48v8c0.16 0 0.48-0.16 0.64-0.16 1.12-0.32 2.24-0.32 3.36-0.32v-7.52h-4zM24.32 6.4h-9.6v3.52h6.88c0.8 0 1.44 0.64 1.44 1.44v1.76c1.6 1.12 3.040 2.56 4 4.32v-8.32c0-1.44-1.12-2.72-2.72-2.72zM14.72 12.32v4c3.84 0.32 7.2 2.88 8.48 6.4 0.96 0.16 2.080 0.48 3.040 0.8 0.48 0.16 0.96 0.48 1.28 0.64-0.8-6.4-6.24-11.36-12.8-11.84z"></path>
<path d="M28.8 26.24c0-0.16-0.16-0.32-0.32-0.32-0.16-0.32-0.48-0.64-0.8-0.8 0 0-0.16-0.16-0.16-0.16-0.8-0.48-1.76-0.64-2.72-0.16-0.32 0.16-0.48 0.16-0.64 0.32s-0.32 0.32-0.48 0.48c-0.16 0.32-0.64 0.96-0.48 1.28-0.16-0.8 0-1.44 0.64-1.92 0.48-0.48 1.44-0.8 2.080-0.8-0.16 0-0.32-0.16-0.48-0.16-0.48-0.16-0.8-0.32-1.28-0.32-0.32 0-0.48-0.16-0.8-0.16-0.64-0.16-1.12-0.16-1.76-0.16-0.32 0-0.48 0-0.8-0.16-0.16 0-0.32 0-0.48 0-0.32 0-0.8-0.16-1.12 0 0 0-0.8 0-1.6 0 0 0 1.12 0 1.12-0.64 0-0.16-0.64-0.48-0.8-0.48s-0.16-0.16-0.32-0.16-0.48-0.16-0.64-0.32c-0.64-0.32-1.28-0.48-1.92-0.64-0.96-0.32-1.92-0.32-2.88-0.32-0.48 0-1.12 0-1.6 0 0 0-1.28 0.16-2.4 0.64-0.32 0.16-0.8 0.32-0.96 0.64 0 0 0.48 0 0.96 0.16 1.76 0.16 5.28 0.64 7.040 1.28-0.8-0.16-1.6-0.32-2.4-0.48-1.6-0.16-3.2-0.16-4.64-0.32 0 0-0.16 0-0.16 0-1.28-0.16-2.56-0.32-3.84-0.48-0.48 0-0.8-0.16-1.28-0.32 0.32 0.16 0.96 0 1.28 0 1.28-0.16 2.56-0.64 3.84-1.12 0.16 0 0.48-0.16 0.64-0.16 1.12-0.32 2.24-0.32 3.36-0.32 0.48 0 0.96 0 1.28 0.16 1.76 0.32 3.36 0.96 4.96 1.76 0.64 0.32 1.12 0.48 1.6 0.8 0 0 0.16 0 0.32 0 0 0 0 0 0.16 0 0.32 0 0.64 0 0.96 0 0.48 0 0.96 0.16 1.44 0.16 0.96 0.16 2.080 0.48 3.040 0.8 0.48 0.16 0.96 0.48 1.28 0.64 0.64 0.48 1.12 0.96 1.28 1.6 0.48 0 0.48 0 0.48 0.16z"></path>
<path d="M13.12 27.040c0 0.16 0 0.16 0 0 0 0.16 0 0.16 0 0.16 0 0.16 0 0 0-0.16-0.16-1.76-1.76-3.36-3.68-3.36-0.16 0-0.32 0-0.48 0 0 0 0 0 0 0-0.32-0.16-0.64-0.16-0.96-0.16 0.48-0.16 0.96-0.32 1.6-0.32 1.76 0.16 3.52 1.76 3.52 3.84z"></path>
<path d="M27.52 26.72c0 0.16 0 0.16 0 0.32v0c-0.16-0.16-0.16-0.16 0-0.32-0.16-0.16-0.32-0.32-0.32-0.48-0.16-0.16-0.32-0.32-0.48-0.48-0.48-0.16-0.64-0.16-0.96-0.16s-0.48 0.16-0.64 0.32c-0.16 0.16-0.32 0.32-0.48 0.48 0 0.16-0.16 0.32-0.16 0.64h-0.32c0-0.16 0-0.32 0-0.32 0-0.16 0-0.16 0-0.32s0-0.16 0.16-0.32c0 0 0-0.16 0.16-0.16 0-0.16 0.16-0.16 0.16-0.32 0 0 0 0 0 0 0-0.16 0.16-0.16 0.32-0.16s0.16-0.16 0.32-0.16c0.16 0 0.32 0 0.48 0 0 0 0 0 0 0 0.16 0 0.32 0 0.32 0 0.16 0 0.32 0.16 0.32 0.16s0.16 0.16 0.16 0.16c0 0 0 0 0.16 0.16 0 0 0 0 0 0s0.16 0.16 0.16 0.32c0 0.16 0.16 0.16 0.16 0.32 0 0 0 0 0 0.16 0.48-0.16 0.48 0 0.48 0.16 0 0 0 0 0 0z"></path>
<path d="M7.52 26.4c0 0.16 0 0.16 0 0.32v0c0-0.16 0-0.16 0-0.32z"></path>
<path d="M7.84 25.6c0 0.16-0.16 0.16-0.16 0.32 0 0 0-0.16 0.16-0.32 0 0 0 0 0 0z"></path>
<path d="M11.52 26.72v0c0 0.16 0 0.32 0 0.48v0c0-0.16 0-0.32 0-0.48-0.16-0.16-0.32-0.48-0.48-0.8s-0.48-0.48-0.8-0.64c-0.32-0.16-0.64-0.16-0.96-0.16s-0.64 0.16-0.8 0.32c-0.32 0.16-0.48 0.48-0.48 0.8s-0.16 0.64-0.16 0.96h-0.32c0-0.16 0-0.32 0-0.32 0-0.16 0-0.16 0-0.32 0 0 0 0 0-0.16s0-0.32 0.16-0.32c0 0 0 0 0 0 0-0.16 0.16-0.16 0.16-0.32 0.16-0.16 0.16-0.32 0.32-0.32 0.16-0.16 0.16-0.16 0.32-0.32 0 0 0 0 0 0s0.16 0 0.16-0.16c0.16 0 0.16-0.16 0.32-0.16s0.32 0 0.32 0c0 0 0 0 0 0 0.16 0 0.32 0 0.32 0 0.16 0 0.32 0 0.32 0.16 0 0 0.16 0.16 0.16 0.16s0 0 0 0c0.16 0 0.32 0.16 0.32 0.32s0.8 0.16 0.96 0.32c0 0 0 0 0 0 0.16 0.16 0.16 0.32 0.16 0.64 0 0 0 0.16 0 0.32z"></path>
</svg>
