<!-- Generated by IcoMoon.io -->
<svg version="1.1" xmlns="http://www.w3.org/2000/svg" width="32" height="32" viewBox="0 0 32 32">
<path d="M10.602 5.668c-0.17 0-0.308 0.138-0.308 0.308v20.048c0 0.17 0.138 0.308 0.308 0.308h10.795c0.17 0 0.308-0.138 0.308-0.308v-20.048c0-0.17-0.138-0.308-0.308-0.308h-10.795zM7.827 5.976c0-1.533 1.243-2.776 2.776-2.776h10.795c1.533 0 2.776 1.243 2.776 2.776v20.048c0 1.533-1.243 2.776-2.776 2.776h-10.795c-1.533 0-2.776-1.243-2.776-2.776v-20.048z"></path>
<path d="M13.995 24.482c0-0.681 0.552-1.234 1.234-1.234h1.542c0.681 0 1.234 0.552 1.234 1.234s-0.552 1.234-1.234 1.234h-1.542c-0.681 0-1.234-0.552-1.234-1.234z"></path>
<path d="M12.916 3.2c0.681 0 1.234 0.552 1.234 1.234v1.542c0 0.082 0.032 0.16 0.090 0.218s0.136 0.090 0.218 0.090h3.084c0.082 0 0.16-0.032 0.218-0.090s0.090-0.136 0.090-0.218v-1.542c0-0.681 0.552-1.234 1.234-1.234s1.234 0.552 1.234 1.234v1.542c0 0.736-0.293 1.442-0.813 1.963s-1.227 0.813-1.963 0.813h-3.084c-0.736 0-1.442-0.292-1.963-0.813s-0.813-1.227-0.813-1.963v-1.542c0-0.681 0.552-1.234 1.234-1.234z"></path>
</svg>
