<!-- Generated by IcoMoon.io -->
<svg version="1.1" xmlns="http://www.w3.org/2000/svg" width="32" height="32" viewBox="0 0 32 32">
<path d="M15.944 26.37h1.445v-2.741l5.055-5.185v-6.889h-11.556v6.889l5.056 5.185v2.741zM13.056 27.852v-2.963l-4.225-4.333c-0.265-0.272-0.469-0.586-0.614-0.945s-0.217-0.735-0.217-1.13v-6.926c0-0.815 0.283-1.512 0.849-2.093s1.246-0.87 2.040-0.87h1.444l-1.444 1.482v-5.926c0-0.42 0.138-0.772 0.415-1.056s0.62-0.426 1.029-0.426c0.409 0 0.752 0.142 1.029 0.426s0.415 0.636 0.415 1.056v4.444h5.778v-4.444c0-0.42 0.138-0.772 0.415-1.056s0.62-0.426 1.029-0.426 0.752 0.142 1.029 0.426c0.277 0.284 0.415 0.636 0.415 1.056v5.926l-1.444-1.482h1.444c0.795 0 1.475 0.29 2.040 0.87s0.849 1.278 0.849 2.093v6.926c0 0.395-0.072 0.772-0.217 1.13s-0.349 0.673-0.614 0.945l-4.225 4.333v2.963c0 0.42-0.138 0.772-0.415 1.056s-0.62 0.426-1.029 0.426h-4.333c-0.409 0-0.752-0.142-1.029-0.426s-0.415-0.636-0.415-1.056z"></path>
</svg>
