<!-- Generated by IcoMoon.io -->
<svg version="1.1" xmlns="http://www.w3.org/2000/svg" width="32" height="32" viewBox="0 0 32 32">
<path d="M21.6 4.8h-2.24c-0.16-0.96-0.96-1.6-1.92-1.6s-1.76 0.64-1.92 1.6h-2.080c-0.32 0-0.48 0.16-0.48 0.48v1.76c0 0.32 0.16 0.48 0.48 0.48h8.32c0.32 0 0.48-0.16 0.48-0.48v-1.76c-0.16-0.32-0.32-0.48-0.64-0.48zM25.44 5.76h-2.24v1.12c0 0.8-0.64 1.6-1.6 1.6h-8.16c-0.8 0-1.6-0.64-1.6-1.6v-1.12h-2.24c-0.64 0-0.96 0.48-0.96 0.96v13.44l0.64-0.32c0.64-0.32 1.6-0.8 4.32-0.8 1.44 0 3.040 0.32 4.48 0.8h0.16l3.68 2.080 4.64 0.64v-16c-0.16-0.32-0.64-0.8-1.12-0.8zM15.36 15.84l-2.080 1.76c-0.16 0.16-0.64 0.16-0.8 0l-0.8-0.8c-0.16-0.16-0.16-0.64 0-0.8s0.64-0.16 0.8 0l0.48 0.48 1.6-1.44c0.16-0.16 0.64-0.16 0.8 0 0.32 0.32 0.32 0.64 0 0.8zM15.36 11.040l-1.92 1.92c-0.32 0.16-0.64 0.16-0.8 0l-0.8-0.96c-0.32-0.16-0.32-0.48 0-0.8s0.64-0.16 0.8 0l0.48 0.48 1.6-1.44c0.16-0.16 0.64-0.16 0.8 0 0.16 0.32 0.16 0.64-0.16 0.8zM22.56 16.96h-4.8c-0.32 0-0.48-0.32-0.48-0.48s0.32-0.48 0.48-0.48h4.8c0.32 0 0.48 0.32 0.48 0.48s-0.16 0.48-0.48 0.48zM22.56 12.16h-4.8c-0.32 0-0.48-0.32-0.48-0.48 0-0.32 0.32-0.48 0.48-0.48h4.8c0.32 0 0.48 0.32 0.48 0.48 0.16 0.16-0.16 0.48-0.48 0.48z"></path>
<path d="M28.32 25.6l-0.32-1.12c0 0 0 0 0 0-0.16-0.16-0.32-0.32-0.48-0.48s-0.48-0.16-0.64-0.16l-5.28-0.8c0 0 0 0 0 0l-4-2.080c-1.28-0.48-2.72-0.8-4.16-0.8-2.72 0-3.52 0.48-3.84 0.64l-2.24 1.28c-0.16 0-0.32 0.16-0.48 0.16h-1.12c-0.8 0-1.44 0.64-1.6 1.6l-0.48 1.6c0 0.16 0 0.32 0 0.64 0 0.16 0.16 0.32 0.32 0.48s0.32 0.32 0.64 0.48c0.16 0 0.32 0.16 0.64 0.16h0.8c0-0.64 0.32-1.28 0.8-1.76s1.12-0.8 1.76-0.8c0.64 0 1.28 0.32 1.76 0.8s0.8 1.12 0.8 1.76h9.44c0-0.64 0.32-1.28 0.8-1.76s1.12-0.8 1.76-0.8c0.64 0 1.28 0.32 1.76 0.8s0.8 1.12 0.8 1.76h1.76c0.16 0 0.32 0 0.48-0.16s0.32-0.16 0.32-0.32 0.16-0.32 0.16-0.48c-0.16-0.32-0.16-0.48-0.16-0.64v0zM13.12 22.72c-1.6-0.16-3.2-0.16-4.64-0.32l1.6-0.96c0.16-0.16 0.8-0.48 2.88-0.48l0.16 1.76zM13.92 22.88v-1.92c1.12 0 2.24 0.16 3.36 0.64l2.56 1.28c-1.6 0.16-3.68 0-5.92 0z"></path>
<path d="M8.48 28.8c0.96 0 1.6-0.8 1.6-1.6 0-0.96-0.8-1.6-1.6-1.6-0.96 0-1.6 0.8-1.6 1.6s0.8 1.6 1.6 1.6z"></path>
<path d="M23.040 28.8c0.96 0 1.6-0.8 1.6-1.6 0-0.96-0.8-1.6-1.6-1.6-0.96 0-1.6 0.8-1.6 1.6-0.16 0.8 0.64 1.6 1.6 1.6z"></path>
</svg>
