<!-- Generated by IcoMoon.io -->
<svg version="1.1" xmlns="http://www.w3.org/2000/svg" width="32" height="32" viewBox="0 0 32 32">
<title>check-car-price</title>
<path d="M29.5 8.5c0 4-1.7 6.8-1.8 6.9s-0.1 0.2-0.2 0.2-0.2 0.1-0.3 0.1c-0.1 0-0.2 0-0.3 0s-0.2-0.1-0.3-0.1-0.3-0.3-0.3-0.5c0-0.2 0-0.4 0.1-0.6 0 0 1.6-2.6 1.6-6.1 0-2-1.3-3.4-3.1-3.4-0.8 0-1.6 0.3-2.2 0.9s-0.9 1.4-0.9 2.2c0 0.7 0.4 2.6 0.5 3.2 0 0.2 0 0.4-0.1 0.6s-0.3 0.3-0.5 0.3c-0.2 0-0.4 0-0.6-0.1s-0.3-0.3-0.3-0.5c-0.1-0.3-0.5-2.5-0.5-3.5 0-1.2 0.5-2.4 1.4-3.3s2-1.4 3.3-1.4c2.5 0.1 4.5 2.2 4.5 5.1zM25 9.7c0.3 2.6 0.8 7.6 0.2 8.1l-11.2 11.2c-0.2 0.2-0.4 0.3-0.6 0.4s-0.4 0.1-0.7 0.1c-0.2 0-0.5 0-0.7-0.1s-0.4-0.2-0.6-0.4l-7.4-7.5c-0.2-0.2-0.3-0.4-0.4-0.6s-0.1-0.4-0.1-0.7c0-0.2 0-0.5 0.1-0.7s0.2-0.3 0.4-0.5l11.2-11.2c0.2-0.2 2.1-0.2 4.3-0.1 0 0.1 0 0.3 0 0.4 0 0.6 0.1 1.4 0.3 2.2-0.2 0.3-0.3 0.6-0.3 0.9s0 0.7 0.1 1c0.1 0.3 0.3 0.6 0.5 0.8s0.5 0.4 0.8 0.5c0.3 0.1 0.7 0.1 1 0.1 0.3-0.1 0.6-0.2 0.9-0.4s0.5-0.5 0.6-0.7c0.1-0.3 0.2-0.6 0.2-1 0-0.7-0.4-1.4-0.9-1.7-0.1-0.7-0.2-1.3-0.2-1.6 0-0.1 0-0.1 0-0.2 0.3 0 0.6 0 0.8 0 1.5 0.2 1.5 0.2 1.7 1.7zM19 18.1c-0.2-0.5-0.5-1.1-1.1-1.7l0.9-0.9-0.9-0.9-0.9 0.9c-1.2-0.8-2.5-0.8-3.4 0.1s-0.7 2.1 0 3.5c0.5 1 0.6 1.5 0.2 1.9s-1 0.2-1.5-0.3c-0.6-0.6-1-1.4-1.2-2l-1.4 0.8c0.2 0.6 0.6 1.4 1.2 2l-0.9 0.9 0.9 0.9 1-1c1.3 0.9 2.6 0.8 3.5-0.1s1-1.9 0.2-3.4c-0.5-1.1-0.6-1.7-0.3-2s0.8-0.3 1.4 0.3c0.7 0.7 0.9 1.4 1.1 1.7l1.2-0.7z"></path>
</svg>
