<!-- Generated by IcoMoon.io -->
<svg version="1.1" xmlns="http://www.w3.org/2000/svg" width="32" height="32" viewBox="0 0 32 32">
<path d="M19.84 5.6h-1.92c-0.16-0.8-0.96-1.44-1.76-1.44-0.96 0-1.6 0.64-1.76 1.44h-2.080c-0.32 0-0.48 0.16-0.48 0.48v1.6c0 0.32 0.16 0.48 0.48 0.48h7.52c0.32 0 0.48-0.16 0.48-0.48v-1.6c0-0.32-0.16-0.48-0.48-0.48zM23.2 6.56h-1.92v0.96c0 0.8-0.64 1.44-1.44 1.44h-7.52c-0.8 0-1.44-0.64-1.44-1.44v-0.96h-1.92c-0.48 0-0.96 0.48-0.96 0.96v13.44l1.92-1.12c0.16 0 0.48-0.32 1.12-0.48s1.6-0.32 2.72-0.32c1.44 0 2.72 0.32 4 0.8v0l1.6 0.96h1.28c0.32 0 0.48 0.32 0.48 0.48s0 0.32-0.16 0.32h0.16l3.040 0.48v-14.56c0-0.48-0.48-0.96-0.96-0.96zM14.24 16.48l-1.76 1.6c-0.16 0.16-0.48 0.16-0.64 0l-0.8-0.8c-0.16-0.16-0.16-0.48 0-0.64s0.48-0.16 0.64 0l0.48 0.48 1.44-1.44c0.16-0.16 0.48-0.16 0.64 0 0.16 0.32 0.16 0.64 0 0.8zM14.24 12.16l-1.92 1.6c-0.16 0.16-0.48 0.16-0.64 0l-0.8-0.8c-0.16-0.16-0.16-0.48 0-0.64s0.48-0.16 0.64 0l0.48 0.48 1.44-1.44c0.32-0.16 0.64-0.16 0.8 0s0.16 0.48 0 0.8zM20.64 17.44h-4.32c-0.32 0-0.48-0.32-0.48-0.48s0.32-0.48 0.48-0.48h4.32c0.32 0 0.48 0.32 0.48 0.48s-0.16 0.48-0.48 0.48zM20.64 13.12h-4.32c-0.32 0-0.48-0.32-0.48-0.48s0.32-0.48 0.48-0.48h4.32c0.32 0 0.48 0.32 0.48 0.48s-0.16 0.48-0.48 0.48z"></path>
<path d="M10.72 26.24c0 0.16 0 0.16 0 0 0 0.96-0.64 1.44-1.44 1.44s-1.44-0.64-1.44-1.28c0 0 0-0.16 0-0.16 0-0.8 0.64-1.44 1.44-1.44 0.32 0 0.64 0.16 0.96 0.32v0c0 0 0 0 0.16 0.16 0 0 0 0 0 0s0.16 0.16 0.16 0.16c0 0.16 0.16 0.16 0.16 0.32s0 0.48 0 0.48z"></path>
<path d="M27.2 24.96l-0.32-0.96c-0.16-0.16-0.32-0.32-0.48-0.48-0.16 0-0.32-0.16-0.64-0.16l-1.6-0.32-2.080-0.32-1.28-0.16-3.040-1.6-0.48-0.32c-1.12-0.64-2.4-0.8-3.68-0.8-1.12 0-1.92 0-2.56 0.32-0.48 0.16-0.8 0.32-0.96 0.32l-2.080 1.28c0 0-0.16 0-0.16 0s-0.16 0-0.16 0h-1.12c-0.32 0-0.64 0.16-0.96 0.32s-0.48 0.64-0.48 0.96l-0.32 1.6c0 0.16 0 0.32 0 0.48 0 0.32 0.16 0.48 0.32 0.48 0.16 0.16 0.32 0.32 0.64 0.48 0.16 0.16 0.48 0.16 0.64 0.16h0.8c0-0.64 0.32-1.12 0.64-1.6 0.8-0.96 2.4-0.96 3.2 0 0.48 0.48 0.64 0.96 0.64 1.6h8.48c0-0.64 0.32-1.12 0.64-1.6 0.48-0.48 0.96-0.64 1.6-0.64s1.28 0.32 1.6 0.64c0.48 0.48 0.64 0.96 0.64 1.6h1.6c0.16 0 0.32 0 0.48-0.16 0.16 0 0.32-0.16 0.32-0.32s0.16-0.32 0.16-0.48c0 0 0-0.32 0-0.32zM13.44 22.24h-0.48c-0.96 0-1.76-0.16-2.56-0.16l-1.28-0.16 0.48-0.16 1.12-0.64c0.32-0.16 0.8-0.32 2.24-0.48v0h0.32l0.16 1.6zM17.76 22.56c-0.96 0-2.080 0-3.36-0.16h-0.32v-1.76h0.32c0.16 0 0.32 0 0.64 0 0.64 0.16 1.44 0.32 2.080 0.64l0.96 0.48-0.32 0.8z"></path>
<path d="M23.84 26.24c0 0.16 0 0.16 0 0 0 0.96-0.64 1.44-1.44 1.44s-1.44-0.64-1.44-1.28c0 0 0-0.16 0-0.16 0-0.32 0.16-0.64 0.32-0.8v0c0 0 0.16-0.16 0.16-0.16v0c0 0 0 0 0.16-0.16v0c0.32-0.32 0.64-0.32 0.96-0.32 0.64 0 1.28 0.48 1.44 1.12-0.16 0-0.16 0.32-0.16 0.32z"></path>
</svg>
