<!-- Generated by IcoMoon.io -->
<svg version="1.1" xmlns="http://www.w3.org/2000/svg" width="32" height="32" viewBox="0 0 32 32">
<path d="M21.343 11.456h-1.34c-0.291 0-0.568 0.14-0.74 0.38l-4.491 6.229-2.034-2.823c-0.171-0.237-0.446-0.38-0.74-0.38h-1.34c-0.186 0-0.294 0.211-0.186 0.363l3.56 4.937c0.084 0.117 0.195 0.213 0.323 0.279s0.271 0.1 0.415 0.1c0.144 0 0.287-0.035 0.415-0.1s0.239-0.162 0.323-0.279l6.017-8.343c0.112-0.151 0.003-0.363-0.183-0.363z"></path>
<path d="M16 3.2c-7.069 0-12.8 5.731-12.8 12.8s5.731 12.8 12.8 12.8c7.069 0 12.8-5.731 12.8-12.8s-5.731-12.8-12.8-12.8zM16 26.629c-5.869 0-10.629-4.76-10.629-10.629s4.76-10.629 10.629-10.629c5.869 0 10.629 4.76 10.629 10.629s-4.76 10.629-10.629 10.629z"></path>
</svg>
