<!-- Generated by IcoMoon.io -->
<svg version="1.1" xmlns="http://www.w3.org/2000/svg" width="32" height="32" viewBox="0 0 32 32">
<path d="M3.2 15.714c0.092-0.143 0.135-0.315 0.244-0.45 0.454-0.562 1.214-0.55 1.674 0.038 0.844 1.080 1.686 2.161 2.526 3.243 0.591 0.76 1.186 1.516 1.77 2.282 0.128 0.169 0.178 0.124 0.28-0.021 2.851-4.075 5.703-8.148 8.558-12.221 0.416-0.594 1.017-0.751 1.522-0.398 0.541 0.379 0.651 1.12 0.243 1.704-1.030 1.476-2.063 2.95-3.097 4.422l-6.394 9.12c-0.516 0.736-1.275 0.758-1.828 0.047-1.737-2.229-3.475-4.459-5.214-6.689-0.118-0.151-0.177-0.334-0.283-0.49v-0.588z"></path>
<path d="M19.196 21.704c-0.707 0-1.415 0-2.122 0-0.59 0-1.065-0.483-1.078-1.087-0.013-0.656 0.418-1.192 1.027-1.199 1.448-0.018 2.896-0.018 4.344 0 0.609 0.008 1.042 0.543 1.028 1.197-0.013 0.609-0.483 1.086-1.076 1.089-0.708 0.005-1.415 0-2.122 0z"></path>
<path d="M22.394 14.857c0.708 0 1.415-0.003 2.122 0 0.594 0 1.064 0.482 1.078 1.087 0.014 0.656-0.417 1.192-1.026 1.199-1.448 0.018-2.896 0.018-4.344 0-0.608-0.007-1.042-0.544-1.027-1.198 0.013-0.608 0.482-1.086 1.075-1.088 0.71-0.002 1.415 0.001 2.122 0.001z"></path>
<path d="M25.596 12.582c-0.698 0-1.397 0.008-2.096 0-0.541-0.008-0.917-0.312-1.065-0.829-0.063-0.227-0.057-0.47 0.015-0.694s0.208-0.418 0.389-0.556c0.183-0.142 0.404-0.217 0.631-0.214 1.414 0 2.829-0.010 4.243 0 0.563 0.005 0.997 0.413 1.073 0.954 0.041 0.27-0.010 0.547-0.143 0.781s-0.34 0.409-0.583 0.494c-0.16 0.049-0.326 0.070-0.492 0.062-0.657 0.003-1.315 0.002-1.972 0.002z"></path>
</svg>
