<!-- Generated by IcoMoon.io -->
<svg version="1.1" xmlns="http://www.w3.org/2000/svg" width="32" height="32" viewBox="0 0 32 32">
<path d="M13.474 20.664c0.094 0.132 0.218 0.239 0.362 0.312s0.303 0.112 0.465 0.112c0.162 0 0.321-0.039 0.465-0.112s0.268-0.181 0.362-0.312l6.739-9.344c0.122-0.17 0-0.406-0.208-0.406h-1.501c-0.326 0-0.637 0.157-0.829 0.426l-5.027 6.976-2.278-3.162c-0.192-0.266-0.499-0.426-0.829-0.426h-1.501c-0.208 0-0.33 0.237-0.208 0.406l3.987 5.53z"></path>
<path d="M27.776 3.2h-23.552c-0.566 0-1.024 0.458-1.024 1.024v23.552c0 0.566 0.458 1.024 1.024 1.024h23.552c0.566 0 1.024-0.458 1.024-1.024v-23.552c0-0.566-0.458-1.024-1.024-1.024zM26.496 26.496h-20.992v-20.992h20.992v20.992z"></path>
</svg>
