<!-- Generated by IcoMoon.io -->
<svg version="1.1" xmlns="http://www.w3.org/2000/svg" width="32" height="32" viewBox="0 0 32 32">
<path d="M28.788 16.003v-0.009c0-7.067-5.726-12.794-12.794-12.794s-12.794 5.726-12.794 12.794v0.012c0 7.068 5.726 12.794 12.794 12.794s12.794-5.726 12.794-12.794v-0.003zM28.582 13.709v0zM21.059 19.875c1.645-2.528 1.615-5.825-0.341-8.11l4.995-0.258c0.63 1.366 0.984 2.885 0.984 4.487 0 5.696-4.447 10.352-10.060 10.684l4.422-6.803zM15.994 20.309c-2.383 0-4.312-1.928-4.312-4.312 0-2.39 1.928-4.312 4.312-4.312s4.312 1.925 4.312 4.309c0 2.383-1.928 4.315-4.312 4.315zM27.348 10.107v0zM15.994 5.291c3.73 0 7.018 1.91 8.931 4.804l-8.107-0.428c-2.999-0.175-5.849 1.513-6.837 4.339l-2.728-4.195c1.941-2.734 5.133-4.521 8.74-4.521zM3.4 18.264c0.8 4.459 3.909 8.119 8.045 9.691-4.136-1.565-7.246-5.225-8.045-9.691zM5.291 15.994c0-1.719 0.406-3.343 1.126-4.782l3.681 7.24c1.356 2.666 4.226 4.296 7.197 3.74l-2.276 4.462c-5.456-0.495-9.728-5.077-9.728-10.659zM15.277 28.769c0.123 0.006 0.246 0.012 0.369 0.015-0.123-0.006-0.246-0.009-0.369-0.015z"></path>
</svg>
