<!-- Generated by IcoMoon.io -->
<svg version="1.1" xmlns="http://www.w3.org/2000/svg" width="32" height="32" viewBox="0 0 32 32">
<path d="M16 3.2c-7.069 0-12.8 5.731-12.8 12.8s5.731 12.8 12.8 12.8c7.069 0 12.8-5.731 12.8-12.8s-5.731-12.8-12.8-12.8zM16 26.629c-5.869 0-10.629-4.76-10.629-10.629s4.76-10.629 10.629-10.629c5.869 0 10.629 4.76 10.629 10.629s-4.76 10.629-10.629 10.629zM22.229 10.283h-1.44c-0.126 0-0.229 0.103-0.229 0.229v10.977c0 0.126 0.103 0.228 0.229 0.228h1.44c0.126 0 0.228-0.103 0.228-0.228v-10.977c0-0.126-0.103-0.229-0.228-0.229zM14.189 11.7c1.414 0 2.374 0.9 2.486 2.217 0.012 0.12 0.109 0.211 0.229 0.211h1.503c0.068 0 0.126-0.057 0.126-0.126 0-2.32-1.828-3.946-4.351-3.946-2.94 0-4.637 1.986-4.637 5.269v1.4c0 3.257 1.697 5.217 4.637 5.217 2.514 0 4.351-1.574 4.351-3.786 0-0.068-0.057-0.126-0.126-0.126h-1.506c-0.12 0-0.217 0.092-0.229 0.209-0.12 1.229-1.077 2.069-2.486 2.069-1.746 0-2.731-1.283-2.731-3.577v-1.409c0.003-2.326 0.989-3.623 2.734-3.623v0z"></path>
</svg>
