<!-- Generated by IcoMoon.io -->
<svg version="1.1" xmlns="http://www.w3.org/2000/svg" width="32" height="32" viewBox="0 0 32 32">
<title>clear</title>
<path d="M28.364 27.812l-1.722-9.928h0.581c0.468 0 0.845-0.377 0.845-0.845v-6.238c0-0.468-0.377-0.845-0.845-0.845h-7.992v-5.913c0-0.468-0.377-0.845-0.845-0.845h-5.198c-0.468 0-0.845 0.377-0.845 0.845v5.913h-7.992c-0.468 0-0.845 0.377-0.845 0.845v6.238c0 0.468 0.377 0.845 0.845 0.845h0.582l-1.722 9.928c-0.021 0.121-0.015 0.246 0.017 0.364s0.090 0.229 0.169 0.323 0.178 0.17 0.29 0.222c0.112 0.052 0.233 0.079 0.356 0.078h23.488c0.049 0 0.097-0.003 0.143-0.013 0.109-0.018 0.214-0.058 0.308-0.117s0.175-0.136 0.239-0.227 0.109-0.193 0.134-0.301c0.024-0.108 0.027-0.22 0.008-0.33v0zM5.782 12.231h8.837v-6.757h2.339v6.757h8.836v3.379h-20.012v-3.379zM20.986 26.526v-5.068c0-0.143-0.117-0.26-0.26-0.26h-1.559c-0.143 0-0.26 0.117-0.26 0.26v5.068h-6.238v-5.068c0-0.143-0.117-0.26-0.26-0.26h-1.559c-0.143 0-0.26 0.117-0.26 0.26v5.068h-4.847l1.465-8.447h17.157l1.465 8.447h-4.844z"></path>
</svg>
