<!-- Generated by IcoMoon.io -->
<svg version="1.1" xmlns="http://www.w3.org/2000/svg" width="32" height="32" viewBox="0 0 32 32">
<path d="M21.3 20c-1 0-1.9-0.4-2.6-1.1s-1.1-1.6-1.1-2.6c0-1 0.4-1.9 1.1-2.6s1.6-1.1 2.6-1.1c1 0 1.9 0.4 2.6 1.1s1.1 1.6 1.1 2.6c0 1-0.4 1.9-1.1 2.6s-1.6 1.1-2.6 1.1zM21.3 17.9c0.4 0 0.8-0.2 1.1-0.5s0.5-0.7 0.5-1.1c0-0.4-0.2-0.8-0.5-1.1s-0.7-0.5-1.1-0.5c-0.4 0-0.8 0.2-1.1 0.5s-0.5 0.7-0.5 1.1c0 0.4 0.2 0.8 0.5 1.1 0.3 0.4 0.7 0.5 1.1 0.5zM14.9 28.7c-0.3 0-0.6-0.1-0.9-0.4-0.2-0.2-0.4-0.5-0.4-0.9v-2.2c0-0.4 0.1-0.8 0.3-1.1s0.4-0.6 0.8-0.8c0.7-0.4 1.2-0.7 1.7-0.8 0.5-0.2 1.1-0.3 1.9-0.4 0.3 0 0.5 0 0.7 0 0.2 0.1 0.4 0.2 0.6 0.4l1.6 2 1.6-2c0.2-0.2 0.4-0.3 0.6-0.4 0.2 0 0.5 0 0.7 0 0.8 0.1 1.4 0.3 1.9 0.4s1 0.4 1.7 0.8c0.3 0.2 0.6 0.5 0.8 0.8s0.3 0.7 0.3 1.1v2.3c0 0.3-0.1 0.6-0.4 0.9-0.2 0.2-0.5 0.4-0.9 0.4h-12.6zM15.7 26.7h4.8l-2.1-2.7c-0.5 0.1-0.9 0.3-1.4 0.5s-0.9 0.4-1.3 0.6v1.6zM22.2 26.7h4.8v-1.6c-0.4-0.3-0.9-0.5-1.3-0.7-0.5-0.2-0.9-0.3-1.4-0.5l-2.1 2.8zM5 24.3v0zM5.5 26.3c-0.7 0-1.3-0.2-1.7-0.7-0.6-0.5-0.8-1-0.8-1.7v-18.2c0-0.7 0.2-1.2 0.7-1.7s1.1-0.7 1.7-0.7h18.2c0.7 0 1.3 0.2 1.7 0.7 0.5 0.5 0.7 1.1 0.7 1.7v5.9c-0.3-0.3-0.6-0.6-0.9-0.9s-0.7-0.5-1.1-0.6v-4.4c0-0.1 0-0.2-0.1-0.3s-0.2-0.1-0.3-0.1h-18.1c-0.1 0-0.2 0-0.3 0.1s-0.2 0.2-0.2 0.3v18.2c0 0.1 0 0.2 0.1 0.3s0.2 0.1 0.3 0.1h5.1c0 0.2-0.1 0.3-0.1 0.5s0 0.3 0 0.5v1.1h-4.9zM9.1 10.5h8.8c0.5-0.3 1-0.6 1.5-0.7 0.5-0.2 1.1-0.2 1.6-0.3v0c0-0.3-0.1-0.5-0.3-0.7s-0.4-0.3-0.7-0.3h-10.9c-0.3 0-0.5 0.1-0.7 0.3s-0.3 0.4-0.3 0.7c0 0.3 0.1 0.5 0.3 0.7s0.4 0.3 0.7 0.3zM9.1 15.8h5.4c0-0.4 0.1-0.7 0.1-1 0.1-0.3 0.2-0.7 0.3-1h-5.8c-0.3 0-0.5 0.1-0.7 0.3s-0.3 0.4-0.3 0.7c0 0.3 0.1 0.5 0.3 0.7s0.4 0.3 0.7 0.3zM9.1 21.1h3.2c0.2-0.2 0.5-0.4 0.8-0.5 0.3-0.2 0.5-0.3 0.8-0.4v-0.2c0-0.2-0.1-0.4-0.2-0.6s-0.3-0.3-0.7-0.3h-4c-0.3 0-0.5 0.1-0.7 0.3s-0.3 0.4-0.3 0.7c0 0.3 0.1 0.5 0.3 0.7s0.5 0.3 0.8 0.3z"></path>
</svg>
