<!-- Generated by IcoMoon.io -->
<svg version="1.1" xmlns="http://www.w3.org/2000/svg" width="32" height="32" viewBox="0 0 32 32">
<title>clock-circle</title>
<path d="M16 3.2c-7.069 0-12.8 5.731-12.8 12.8s5.731 12.8 12.8 12.8c7.069 0 12.8-5.731 12.8-12.8s-5.731-12.8-12.8-12.8zM16 26.629c-5.869 0-10.629-4.76-10.629-10.629s4.76-10.629 10.629-10.629c5.869 0 10.629 4.76 10.629 10.629s-4.76 10.629-10.629 10.629z"></path>
<path d="M20.992 19.614l-4.074-2.946v-7.071c0-0.126-0.103-0.229-0.229-0.229h-1.374c-0.126 0-0.229 0.103-0.229 0.229v7.869c0 0.074 0.034 0.143 0.094 0.186l4.726 3.446c0.103 0.074 0.246 0.052 0.32-0.048l0.817-1.114c0.074-0.106 0.052-0.248-0.051-0.32z"></path>
</svg>
