<!-- Generated by IcoMoon.io -->
<svg version="1.1" xmlns="http://www.w3.org/2000/svg" width="32" height="32" viewBox="0 0 32 32">
<path d="M16 29.333c-1.844 0-3.578-0.35-5.2-1.050s-3.033-1.65-4.233-2.85c-1.2-1.2-2.15-2.611-2.85-4.233s-1.050-3.355-1.050-5.2 0.35-3.578 1.050-5.2c0.7-1.622 1.65-3.033 2.85-4.233s2.611-2.15 4.233-2.85c1.622-0.7 3.356-1.050 5.2-1.050s3.578 0.35 5.2 1.050c1.622 0.7 3.033 1.65 4.233 2.85s2.15 2.611 2.85 4.233c0.7 1.622 1.050 3.356 1.050 5.2s-0.35 3.578-1.050 5.2c-0.7 1.622-1.65 3.033-2.85 4.233s-2.611 2.15-4.233 2.85c-1.622 0.7-3.356 1.050-5.2 1.050zM16 26.667c1.422 0 2.789-0.267 4.1-0.8s2.467-1.3 3.467-2.3l-7.567-7.567v-10.667c-2.978 0-5.5 1.033-7.567 3.1s-3.1 4.589-3.1 7.567c0 2.978 1.033 5.5 3.1 7.567s4.589 3.1 7.567 3.1z"></path>
</svg>
