<!-- Generated by IcoMoon.io -->
<svg version="1.1" xmlns="http://www.w3.org/2000/svg" width="32" height="32" viewBox="0 0 32 32">
<path d="M20.954 11.482c0-0.126-0.103-0.229-0.229-0.229l-1.886 0.009-2.84 3.386-2.837-3.383-1.889-0.009c-0.126 0-0.229 0.1-0.229 0.229 0 0.054 0.020 0.106 0.054 0.149l3.717 4.429-3.717 4.426c-0.035 0.042-0.054 0.094-0.054 0.149 0 0.126 0.103 0.228 0.229 0.228l1.889-0.008 2.837-3.386 2.837 3.383 1.886 0.009c0.126 0 0.229-0.1 0.229-0.229 0-0.054-0.020-0.106-0.054-0.149l-3.712-4.426 3.717-4.429c0.034-0.040 0.052-0.094 0.052-0.149z"></path>
<path d="M16 3.2c-7.069 0-12.8 5.731-12.8 12.8s5.731 12.8 12.8 12.8c7.069 0 12.8-5.731 12.8-12.8s-5.731-12.8-12.8-12.8zM16 26.629c-5.869 0-10.629-4.76-10.629-10.629s4.76-10.629 10.629-10.629c5.869 0 10.629 4.76 10.629 10.629s-4.76 10.629-10.629 10.629z"></path>
</svg>
