<!-- Generated by IcoMoon.io -->
<svg version="1.1" xmlns="http://www.w3.org/2000/svg" width="32" height="32" viewBox="0 0 32 32">
<path d="M10.943 21.087h1.885c0.15 0 0.294-0.067 0.394-0.182l2.778-3.312 2.778 3.312c0.096 0.115 0.24 0.182 0.394 0.182h1.885c0.218 0 0.336-0.253 0.195-0.419l-3.914-4.669 3.917-4.669c0.141-0.166 0.022-0.419-0.195-0.419h-1.885c-0.15 0-0.294 0.067-0.394 0.182l-2.781 3.312-2.778-3.312c-0.096-0.115-0.24-0.182-0.394-0.182h-1.885c-0.218 0-0.336 0.253-0.195 0.419l3.914 4.669-3.914 4.669c-0.032 0.037-0.052 0.082-0.058 0.131s0.001 0.097 0.021 0.141 0.053 0.081 0.094 0.108c0.041 0.026 0.089 0.040 0.138 0.040z"></path>
<path d="M27.776 3.2h-23.552c-0.566 0-1.024 0.458-1.024 1.024v23.552c0 0.566 0.458 1.024 1.024 1.024h23.552c0.566 0 1.024-0.458 1.024-1.024v-23.552c0-0.566-0.458-1.024-1.024-1.024zM26.496 26.496h-20.992v-20.992h20.992v20.992z"></path>
</svg>
