<!-- Generated by IcoMoon.io -->
<svg version="1.1" xmlns="http://www.w3.org/2000/svg" width="32" height="32" viewBox="0 0 32 32">
<path d="M17.681 16l10.307-12.286c0.173-0.204 0.028-0.514-0.24-0.514h-3.133c-0.184 0-0.361 0.082-0.483 0.224l-8.501 10.134-8.501-10.134c-0.118-0.141-0.294-0.224-0.483-0.224h-3.133c-0.267 0-0.412 0.31-0.24 0.514l10.307 12.286-10.307 12.286c-0.039 0.046-0.064 0.101-0.072 0.16s0.001 0.119 0.026 0.174c0.025 0.054 0.065 0.1 0.116 0.132s0.109 0.049 0.169 0.048h3.133c0.185 0 0.361-0.082 0.483-0.224l8.501-10.134 8.501 10.134c0.118 0.141 0.295 0.224 0.483 0.224h3.133c0.267 0 0.412-0.31 0.24-0.514l-10.307-12.286z"></path>
</svg>
