<!-- Generated by IcoMoon.io -->
<svg version="1.1" xmlns="http://www.w3.org/2000/svg" width="32" height="32" viewBox="0 0 32 32">
<path d="M24.554 13.906c-1.308-3.451-4.643-5.906-8.548-5.906s-7.24 2.451-8.549 5.903c-2.449 0.643-4.257 2.871-4.257 5.526 0 3.157 2.557 5.714 5.711 5.714h14.177c3.154 0 5.711-2.557 5.711-5.714 0-2.649-1.803-4.877-4.246-5.523zM25.591 21.934c-0.328 0.33-0.718 0.591-1.148 0.769s-0.89 0.269-1.355 0.268h-14.177c-0.946 0-1.834-0.368-2.503-1.037-0.33-0.328-0.591-0.719-0.769-1.149s-0.269-0.891-0.268-1.357c0-0.8 0.26-1.552 0.749-2.18 0.478-0.609 1.141-1.047 1.889-1.249l1.083-0.283 0.397-1.046c0.246-0.651 0.589-1.26 1.020-1.811 0.426-0.547 0.93-1.027 1.497-1.426 1.174-0.826 2.557-1.263 4-1.263s2.826 0.437 4 1.263c0.568 0.4 1.071 0.88 1.497 1.426 0.431 0.551 0.774 1.163 1.020 1.811l0.394 1.043 1.080 0.286c1.552 0.414 2.632 1.823 2.632 3.429 0 0.946-0.369 1.837-1.037 2.506z"></path>
</svg>
