<!-- Generated by IcoMoon.io -->
<svg version="1.1" xmlns="http://www.w3.org/2000/svg" width="32" height="32" viewBox="0 0 32 32">
<path d="M21.486 14.512h-10.971c-0.126 0-0.229 0.103-0.229 0.229v11.486c0 0.126 0.103 0.228 0.229 0.228h10.971c0.126 0 0.229-0.103 0.229-0.228v-11.486c0-0.126-0.103-0.229-0.229-0.229zM12.114 16.341h7.771v3.343h-7.771v-3.343zM19.886 24.627h-7.771v-3.343h7.771v3.343z"></path>
<path d="M13.486 23.137c0 0.243 0.096 0.475 0.268 0.647s0.404 0.268 0.646 0.268c0.242 0 0.475-0.096 0.646-0.268s0.268-0.404 0.268-0.647c0-0.242-0.096-0.475-0.268-0.646s-0.404-0.268-0.646-0.268c-0.242 0-0.475 0.096-0.646 0.268s-0.268 0.404-0.268 0.646zM13.486 18.052c0 0.243 0.096 0.475 0.268 0.647s0.404 0.268 0.646 0.268 0.475-0.096 0.646-0.268c0.171-0.172 0.268-0.404 0.268-0.647s-0.096-0.475-0.268-0.647c-0.171-0.171-0.404-0.268-0.646-0.268s-0.475 0.096-0.646 0.268c-0.171 0.172-0.268 0.404-0.268 0.647z"></path>
<path d="M24.554 12.311c-1.309-3.454-4.643-5.911-8.548-5.911s-7.24 2.454-8.549 5.909c-2.46 0.649-4.271 2.897-4.257 5.566 0.017 2.983 2.331 5.408 5.246 5.668 0.134 0.011 0.249-0.094 0.249-0.229v-1.726c0-0.114-0.086-0.212-0.2-0.226-0.771-0.097-1.5-0.434-2.060-0.986-0.686-0.671-1.063-1.574-1.063-2.531 0-0.8 0.26-1.554 0.749-2.183 0.477-0.611 1.149-1.054 1.889-1.249l1.083-0.286 0.397-1.049c0.246-0.651 0.589-1.263 1.020-1.814 0.426-0.549 0.931-1.029 1.497-1.429 1.174-0.826 2.557-1.263 4-1.263s2.826 0.437 4 1.266c0.569 0.4 1.072 0.88 1.497 1.429 0.432 0.551 0.774 1.163 1.020 1.814l0.394 1.046 1.080 0.286c1.548 0.411 2.631 1.82 2.631 3.428 0 0.96-0.377 1.86-1.063 2.532-0.557 0.548-1.283 0.888-2.054 0.986-0.114 0.014-0.197 0.112-0.197 0.226v1.728c0 0.134 0.117 0.24 0.251 0.229 2.906-0.263 5.214-2.686 5.234-5.663 0.017-2.668-1.791-4.917-4.246-5.568z"></path>
</svg>
