<!-- Generated by IcoMoon.io -->
<svg version="1.1" xmlns="http://www.w3.org/2000/svg" width="32" height="32" viewBox="0 0 32 32">
<path d="M16.006 6.4c3.906 0 7.24 2.454 8.548 5.906 2.443 0.646 4.246 2.874 4.246 5.523 0 3.157-2.557 5.714-5.711 5.714h-1.146c-0.126 0-0.229-0.103-0.229-0.229v-1.714c0-0.126 0.103-0.229 0.229-0.229h1.146c0.465 0.001 0.926-0.090 1.355-0.268s0.82-0.44 1.148-0.769c0.669-0.668 1.037-1.56 1.037-2.506 0-1.606-1.083-3.014-2.632-3.431l-1.080-0.286-0.394-1.043c-0.246-0.649-0.589-1.26-1.020-1.811-0.426-0.546-0.929-1.026-1.497-1.426-1.174-0.826-2.557-1.263-4-1.263s-2.826 0.437-4 1.263c-0.567 0.399-1.071 0.879-1.497 1.426-0.431 0.551-0.774 1.16-1.020 1.811l-0.397 1.046-1.083 0.283c-0.743 0.197-1.411 0.64-1.889 1.249-0.466 0.597-0.723 1.306-0.749 2.060-0.031 0.966 0.326 1.897 0.997 2.588 0.674 0.694 1.58 1.077 2.543 1.077h1.146c0.126 0 0.229 0.103 0.229 0.229v1.714c0 0.126-0.103 0.229-0.229 0.229h-1.146c-3.154 0-5.711-2.557-5.711-5.714 0-2.652 1.809-4.883 4.257-5.526 1.309-3.451 4.643-5.903 8.549-5.903zM16.1 14.886c0.031 0.015 0.059 0.037 0.080 0.065l3.2 4.051c0.117 0.149 0.012 0.369-0.18 0.369h-2.117v6.923c0 0.126-0.103 0.228-0.228 0.228h-1.714c-0.126 0-0.229-0.103-0.229-0.228v-6.926h-2.111c-0.043 0-0.085-0.012-0.121-0.035s-0.066-0.055-0.084-0.093c-0.019-0.038-0.026-0.081-0.022-0.124s0.021-0.083 0.047-0.117l3.2-4.049c0.021-0.027 0.049-0.049 0.080-0.065s0.065-0.023 0.1-0.023c0.035 0 0.069 0.008 0.1 0.023z"></path>
</svg>
