<!-- Generated by IcoMoon.io -->
<svg version="1.1" xmlns="http://www.w3.org/2000/svg" width="32" height="32" viewBox="0 0 32 32">
<title>cluster</title>
<path d="M28.533 22.4h-1.8v-4.667h-9.6v-3.067h7.933c0.293 0 0.533-0.24 0.533-0.533v-8.8c0-0.293-0.24-0.533-0.533-0.533h-18.133c-0.293 0-0.533 0.24-0.533 0.533v8.8c0 0.293 0.24 0.533 0.533 0.533h7.933v3.067h-9.6v4.667h-1.8c-0.147 0-0.267 0.12-0.267 0.267v5.867c0 0.147 0.12 0.267 0.267 0.267h5.867c0.147 0 0.267-0.12 0.267-0.267v-5.867c0-0.147-0.12-0.267-0.267-0.267h-1.8v-2.4h7.333v2.4h-1.8c-0.147 0-0.267 0.12-0.267 0.267v5.867c0 0.147 0.12 0.267 0.267 0.267h5.867c0.147 0 0.267-0.12 0.267-0.267v-5.867c0-0.147-0.12-0.267-0.267-0.267h-1.8v-2.4h7.333v2.4h-1.8c-0.147 0-0.267 0.12-0.267 0.267v5.867c0 0.147 0.12 0.267 0.267 0.267h5.867c0.147 0 0.267-0.12 0.267-0.267v-5.867c0-0.147-0.12-0.267-0.267-0.267zM7.467 26.577c0 0.050-0.040 0.090-0.090 0.090h-1.957c-0.050 0-0.090-0.040-0.090-0.090v-1.957c0-0.050 0.040-0.090 0.090-0.090h1.957c0.050 0 0.090 0.040 0.090 0.090v1.957zM17.067 26.577c0 0.050-0.040 0.090-0.090 0.090h-1.957c-0.050 0-0.090-0.040-0.090-0.090v-1.957c0-0.050 0.040-0.090 0.090-0.090h1.957c0.050 0 0.090 0.040 0.090 0.090v1.957zM8.533 12.533v-5.6h14.933v5.6h-14.933zM26.667 26.577c0 0.050-0.040 0.090-0.090 0.090h-1.957c-0.050 0-0.090-0.040-0.090-0.090v-1.957c0-0.050 0.040-0.090 0.090-0.090h1.957c0.050 0 0.090 0.040 0.090 0.090v1.957zM10.933 9.733c0 0.354 0.14 0.693 0.391 0.943s0.589 0.391 0.943 0.391c0.354 0 0.693-0.14 0.943-0.391s0.391-0.589 0.391-0.943c0-0.354-0.14-0.693-0.391-0.943s-0.589-0.391-0.943-0.391c-0.354 0-0.693 0.14-0.943 0.391s-0.391 0.589-0.391 0.943z"></path>
</svg>
