<!-- Generated by IcoMoon.io -->
<svg version="1.1" xmlns="http://www.w3.org/2000/svg" width="32" height="32" viewBox="0 0 32 32">
<title>code</title>
<path d="M16.128 21.152c0 0.141 0.109 0.256 0.24 0.256h5.92c0.131 0 0.24-0.115 0.24-0.256v-1.536c0-0.141-0.109-0.256-0.24-0.256h-5.92c-0.131 0-0.24 0.115-0.24 0.256v1.536zM9.891 21.347l6.144-5.152c0.122-0.102 0.122-0.291 0-0.394l-6.144-5.149c-0.037-0.032-0.082-0.052-0.131-0.058s-0.097 0.001-0.142 0.021c-0.044 0.021-0.081 0.053-0.107 0.094s-0.040 0.089-0.040 0.138v2.006c0 0.077 0.032 0.147 0.093 0.195l3.514 2.95-3.514 2.95c-0.029 0.024-0.052 0.054-0.068 0.088s-0.025 0.070-0.025 0.108v2.006c0 0.218 0.253 0.336 0.419 0.195zM27.776 3.2h-23.552c-0.566 0-1.024 0.458-1.024 1.024v23.552c0 0.566 0.458 1.024 1.024 1.024h23.552c0.566 0 1.024-0.458 1.024-1.024v-23.552c0-0.566-0.458-1.024-1.024-1.024zM26.496 26.496h-20.992v-20.992h20.992v20.992z"></path>
</svg>
