<!-- Generated by IcoMoon.io -->
<svg version="1.1" xmlns="http://www.w3.org/2000/svg" width="32" height="32" viewBox="0 0 32 32">
<title>code-pen</title>
<path d="M28.81 11.951l-0.010-0.048c-0.006-0.032-0.010-0.061-0.019-0.093-0.006-0.019-0.013-0.035-0.016-0.054-0.010-0.026-0.016-0.054-0.029-0.080-0.006-0.019-0.016-0.035-0.026-0.054-0.013-0.026-0.026-0.048-0.038-0.074-0.010-0.016-0.019-0.035-0.032-0.051-0.026-0.038-0.054-0.077-0.083-0.115-0.016-0.019-0.035-0.042-0.055-0.061-0.013-0.016-0.029-0.029-0.045-0.042-0.019-0.019-0.042-0.035-0.061-0.051-0.016-0.013-0.032-0.026-0.051-0.038-0.006-0.003-0.013-0.010-0.019-0.013l-11.704-7.791c-0.181-0.121-0.393-0.185-0.61-0.185s-0.429 0.064-0.61 0.185l-11.71 7.797c-0.006 0.003-0.013 0.010-0.019 0.013-0.016 0.013-0.032 0.026-0.051 0.038-0.022 0.016-0.042 0.035-0.061 0.051-0.016 0.013-0.029 0.029-0.045 0.042-0.019 0.019-0.038 0.038-0.054 0.061-0.032 0.035-0.058 0.074-0.083 0.115-0.010 0.016-0.022 0.032-0.032 0.051-0.013 0.022-0.026 0.048-0.038 0.074-0.010 0.016-0.016 0.035-0.026 0.054-0.010 0.026-0.019 0.054-0.029 0.080-0.006 0.019-0.013 0.035-0.016 0.054-0.006 0.029-0.013 0.061-0.019 0.093l-0.010 0.048c-0.006 0.048-0.010 0.096-0.010 0.144v7.797c0 0.048 0.003 0.096 0.010 0.144l0.010 0.048 0.019 0.093c0.006 0.019 0.010 0.035 0.016 0.054 0.010 0.029 0.019 0.054 0.029 0.080 0.006 0.019 0.016 0.035 0.026 0.055 0.013 0.026 0.022 0.048 0.038 0.074 0.010 0.016 0.019 0.035 0.032 0.051 0.016 0.022 0.029 0.045 0.048 0.067l0.038 0.048c0.016 0.019 0.035 0.042 0.054 0.061 0.013 0.016 0.029 0.029 0.045 0.042 0.019 0.019 0.042 0.035 0.061 0.051 0.016 0.013 0.032 0.026 0.051 0.038 0.006 0.003 0.013 0.010 0.019 0.013l11.707 7.797c0.179 0.122 0.394 0.186 0.612 0.186 0.211 0 0.426-0.061 0.612-0.186l11.707-7.797c0.006-0.003 0.013-0.010 0.019-0.013 0.016-0.013 0.032-0.026 0.051-0.038 0.022-0.016 0.042-0.035 0.061-0.051 0.016-0.013 0.029-0.029 0.045-0.042 0.019-0.019 0.039-0.038 0.055-0.061l0.038-0.048 0.048-0.067c0.010-0.016 0.022-0.032 0.032-0.051 0.013-0.026 0.026-0.048 0.038-0.074 0.010-0.016 0.016-0.035 0.026-0.055 0.010-0.026 0.019-0.054 0.029-0.080 0.006-0.016 0.013-0.035 0.016-0.054 0.010-0.029 0.013-0.061 0.019-0.093l0.010-0.048c0.006-0.048 0.010-0.096 0.010-0.144v-7.804c-0.010-0.048-0.013-0.096-0.019-0.144zM17.113 6.353l8.626 5.745-3.852 2.574-4.771-3.189v-5.13h-0.003zM14.91 6.353v5.13l-4.771 3.189-3.852-2.574 8.623-5.745zM5.403 14.154l2.754 1.841-2.754 1.841v-3.682zM14.91 25.633l-8.623-5.744 3.852-2.575 4.771 3.189v5.13zM16.012 18.595l-3.894-2.6 3.894-2.603 3.894 2.6-3.894 2.603zM17.113 25.633v-5.13l4.771-3.189 3.852 2.575-8.623 5.744zM26.62 17.833l-2.754-1.841 2.754-1.841v3.682z"></path>
</svg>
