<!-- Generated by IcoMoon.io -->
<svg version="1.1" xmlns="http://www.w3.org/2000/svg" width="32" height="32" viewBox="0 0 32 32">
<path d="M26.048 26.368h-20.992c-0.141 0-0.256 0.115-0.256 0.256v1.92c0 0.141 0.115 0.256 0.256 0.256h20.992c0.141 0 0.256-0.115 0.256-0.256v-1.92c0-0.141-0.115-0.256-0.256-0.256zM26.048 3.2h-20.992c-0.141 0-0.256 0.115-0.256 0.256v1.92c0 0.141 0.115 0.256 0.256 0.256h20.992c0.141 0 0.256-0.115 0.256-0.256v-1.92c0-0.141-0.115-0.256-0.256-0.256zM18.714 11.712c0.192 0 0.301-0.224 0.182-0.374l-3.226-4.083c-0.021-0.028-0.049-0.050-0.080-0.065s-0.066-0.023-0.101-0.023c-0.035 0-0.069 0.008-0.101 0.023s-0.059 0.038-0.080 0.065l-3.226 4.083c-0.027 0.034-0.044 0.075-0.048 0.118s0.003 0.087 0.022 0.126c0.019 0.039 0.049 0.072 0.086 0.095s0.079 0.035 0.123 0.035h2.134v8.576h-2.010c-0.192 0-0.301 0.224-0.182 0.374l3.226 4.080c0.093 0.118 0.272 0.118 0.362 0l3.226-4.080c0.118-0.15 0.013-0.374-0.182-0.374h-2.134v-8.576h2.010z"></path>
</svg>
