<!-- Generated by IcoMoon.io -->
<svg version="1.1" xmlns="http://www.w3.org/2000/svg" width="32" height="32" viewBox="0 0 32 32">
<path d="M5.376 4.8h-1.92c-0.141 0-0.256 0.115-0.256 0.256v20.992c0 0.141 0.115 0.256 0.256 0.256h1.92c0.141 0 0.256-0.115 0.256-0.256v-20.992c0-0.141-0.115-0.256-0.256-0.256zM28.544 4.8h-1.92c-0.141 0-0.256 0.115-0.256 0.256v20.992c0 0.141 0.115 0.256 0.256 0.256h1.92c0.141 0 0.256-0.115 0.256-0.256v-20.992c0-0.141-0.115-0.256-0.256-0.256zM24.746 15.306l-4.083-3.222c-0.034-0.027-0.075-0.044-0.118-0.048s-0.087 0.003-0.126 0.022c-0.039 0.019-0.072 0.049-0.095 0.086s-0.035 0.079-0.035 0.123v2.134h-8.576v-2.010c0-0.192-0.224-0.301-0.374-0.182l-4.083 3.226c-0.028 0.021-0.050 0.049-0.065 0.080s-0.023 0.066-0.023 0.101c0 0.035 0.008 0.069 0.023 0.101s0.038 0.059 0.065 0.080l4.080 3.226c0.15 0.118 0.374 0.013 0.374-0.182v-2.134h8.576v2.010c0 0.192 0.224 0.301 0.374 0.182l4.080-3.226c0.122-0.093 0.122-0.272 0.006-0.365v0z"></path>
</svg>
