<!-- Generated by IcoMoon.io -->
<svg version="1.1" xmlns="http://www.w3.org/2000/svg" width="32" height="32" viewBox="0 0 32 32">
<path d="M16 3.2c-7.069 0-12.8 5.731-12.8 12.8s5.731 12.8 12.8 12.8c7.069 0 12.8-5.731 12.8-12.8s-5.731-12.8-12.8-12.8zM16 26.629c-5.869 0-10.629-4.76-10.629-10.629s4.76-10.629 10.629-10.629c5.869 0 10.629 4.76 10.629 10.629s-4.76 10.629-10.629 10.629zM21.669 9.826c-0.112-0.044-0.231-0.065-0.352-0.063s-0.239 0.029-0.348 0.077l-7.743 3.389-3.386 7.743c-0.103 0.234-0.103 0.5 0 0.734 0.097 0.223 0.277 0.397 0.506 0.486 0.109 0.043 0.22 0.063 0.334 0.063 0.126 0 0.249-0.026 0.366-0.077l7.743-3.388 3.386-7.743c0.049-0.113 0.076-0.235 0.077-0.358s-0.023-0.246-0.070-0.36-0.117-0.217-0.205-0.303c-0.088-0.086-0.193-0.154-0.308-0.199v0zM17.851 16.64l0.749 0.749-1.211 1.211-0.749-0.749-4.411 1.932 1.929-4.411-0.729-0.731 1.211-1.211 0.729 0.729 4.414-1.929-1.932 4.411zM14.64 13.429l-1.211 1.211 0.729 0.731 3.232 3.229 1.211-1.211-3.96-3.96z"></path>
</svg>
