<!-- Generated by IcoMoon.io -->
<svg version="1.1" xmlns="http://www.w3.org/2000/svg" width="32" height="32" viewBox="0 0 32 32">
<path d="M28.798 16.050v-0.069c-0.005-1.334-0.215-2.679-0.607-3.891-0.413-1.264-0.985-2.409-1.694-3.406-0.428-0.602-0.851-1.118-1.293-1.58-0.418-0.435-0.911-0.865-1.549-1.35-0.956-0.734-2.082-1.341-3.339-1.804-1.192-0.437-2.495-0.688-3.867-0.741-0.158-0.007-0.316-0.010-0.473-0.010-1.169 0-2.332 0.163-3.458 0.48-1.24 0.351-2.445 0.899-3.487 1.584-1.102 0.724-2.048 1.565-2.818 2.497-0.49 0.597-0.884 1.145-1.202 1.675-0.308 0.516-0.597 1.104-0.906 1.854-0.468 1.14-0.76 2.419-0.87 3.8-0.1 1.283 0.014 2.66 0.337 3.979 0.296 1.224 0.805 2.452 1.47 3.546 0.674 1.107 1.484 2.084 2.407 2.904 1.004 0.889 2.070 1.592 3.169 2.089 0.729 0.327 1.345 0.557 1.948 0.722 0.607 0.17 1.271 0.294 2.086 0.387 0.435 0.053 0.887 0.079 1.341 0.079 0.863 0 1.754-0.093 2.658-0.277 1.221-0.246 2.43-0.698 3.592-1.346 1.102-0.614 2.136-1.415 2.997-2.318 0.887-0.93 1.642-1.996 2.184-3.080 0.609-1.224 1.013-2.462 1.197-3.68 0.117-0.772 0.174-1.42 0.179-2.036v-0.010h-0.002zM17.79 19.747c-0.151 0.151-0.389 0.248-0.602 0.248h-6.505l1.577 1.656c0.162 0.17 0.246 0.378 0.256 0.631 0.012 0.256-0.16 0.483-0.263 0.597-0.122 0.132-0.375 0.232-0.588 0.232s-0.461-0.1-0.595-0.239l-2.968-3.119-0.057-0.052c-0.16-0.175-0.194-0.433-0.201-0.578-0.010-0.172 0.088-0.409 0.229-0.559l0.033-0.033 2.966-3.116c0.172-0.182 0.433-0.234 0.621-0.246h0.017c0.246 0 0.464 0.165 0.571 0.263 0.131 0.122 0.232 0.375 0.232 0.588s-0.093 0.44-0.256 0.609l-1.584 1.666h6.515c0.22 0 0.428 0.088 0.617 0.263 0.186 0.172 0.227 0.456 0.234 0.609 0.010 0.182-0.098 0.43-0.249 0.581zM23.934 13.404c-0.029 0.033-0.050 0.067-0.067 0.098l-2.94 3.088c-0.174 0.182-0.43 0.232-0.617 0.239h-0.024c-0.246 0-0.464-0.165-0.571-0.263-0.131-0.122-0.232-0.375-0.232-0.588s0.093-0.44 0.256-0.609l1.582-1.663h-6.515c-0.22 0-0.428-0.088-0.617-0.263-0.186-0.172-0.227-0.456-0.234-0.609-0.010-0.182 0.098-0.43 0.249-0.581s0.39-0.249 0.602-0.249h6.512l-1.58-1.659c-0.16-0.17-0.246-0.375-0.256-0.626-0.012-0.256 0.16-0.483 0.263-0.595 0.122-0.131 0.375-0.232 0.588-0.232s0.461 0.1 0.595 0.239l2.968 3.121 0.048 0.043c0.165 0.177 0.201 0.44 0.208 0.585 0.007 0.151-0.081 0.361-0.22 0.523z"></path>
</svg>
