<!-- Generated by IcoMoon.io -->
<svg version="1.1" xmlns="http://www.w3.org/2000/svg" width="32" height="32" viewBox="0 0 32 32">
<path d="M16 4.8c6.24 0 11.2 4.96 11.2 11.2s-4.96 11.2-11.2 11.2-11.2-4.96-11.2-11.2 4.96-11.2 11.2-11.2zM16 2.4c-7.52 0-13.6 6.080-13.6 13.6s6.080 13.6 13.6 13.6 13.6-6.080 13.6-13.6-6.080-13.6-13.6-13.6v0z"></path>
<path d="M24.32 12.32v0s-3.2-3.36-3.2-3.36v0c-0.16-0.16-0.48-0.32-0.8-0.32s-0.32 0-0.48 0c0 0-0.32 0-0.32 0.32 0 0-0.32 0.48-0.32 0.8s0 0.64 0.32 0.8l1.12 1.12h-5.76c-0.32 0-0.64 0-0.8 0.32 0 0-0.16 0.16-0.32 0.32 0 0 0 0.32 0 0.48s0 0.64 0.32 0.8c0.32 0.16 0.48 0.32 0.8 0.32h5.76l-1.12 1.12c-0.16 0.16-0.32 0.48-0.32 0.8s0 0.32 0 0.48c0 0 0 0.32 0.32 0.32 0 0 0.48 0.32 0.8 0.32s0.64 0 0.8-0.32l2.88-3.040s0 0 0 0c0-0.16 0.32-0.48 0.32-0.8 0-0.16 0-0.48-0.16-0.64z"></path>
<path d="M7.68 18.24v0s3.2-3.36 3.2-3.36v0c0.16-0.16 0.48-0.32 0.8-0.32s0.32 0 0.48 0c0 0 0.32 0 0.32 0.32 0 0 0.32 0.48 0.32 0.8s0 0.64-0.32 0.8l-1.12 1.12h5.76c0.32 0 0.64 0 0.8 0.32 0 0 0.16 0.16 0.32 0.32 0 0 0 0.32 0 0.48s0 0.64-0.32 0.8c-0.32 0.16-0.48 0.32-0.8 0.32h-5.76s1.12 1.12 1.12 1.12c0.16 0.16 0.32 0.48 0.32 0.8s0 0.32 0 0.48c0 0 0 0.32-0.32 0.32 0 0-0.48 0.32-0.8 0.32s-0.64 0-0.8-0.32l-2.88-3.040s0 0 0 0c0-0.16-0.32-0.48-0.32-0.8 0-0.16 0-0.48 0.16-0.64z"></path>
</svg>
