<!-- Generated by IcoMoon.io -->
<svg version="1.1" xmlns="http://www.w3.org/2000/svg" width="32" height="32" viewBox="0 0 32 32">
<title>compress</title>
<path d="M10.385 20.589h-6.702c-0.266 0-0.483 0.217-0.483 0.483v1.449c0 0.266 0.217 0.483 0.483 0.483h5.253v5.313c0 0.266 0.217 0.483 0.483 0.483h1.449c0.266 0 0.483-0.217 0.483-0.483v-6.762c0-0.534-0.432-0.966-0.966-0.966zM10.868 3.2h-1.449c-0.266 0-0.483 0.217-0.483 0.483v5.313h-5.253c-0.266 0-0.483 0.217-0.483 0.483v1.449c0 0.266 0.217 0.483 0.483 0.483h6.702c0.534 0 0.966-0.432 0.966-0.966v-6.762c0-0.266-0.217-0.483-0.483-0.483zM28.317 20.589h-6.702c-0.534 0-0.966 0.432-0.966 0.966v6.762c0 0.266 0.217 0.483 0.483 0.483h1.449c0.266 0 0.483-0.217 0.483-0.483v-5.313h5.253c0.266 0 0.483-0.217 0.483-0.483v-1.449c0-0.266-0.217-0.483-0.483-0.483zM28.317 8.996h-5.253v-5.313c0-0.266-0.217-0.483-0.483-0.483h-1.449c-0.266 0-0.483 0.217-0.483 0.483v6.762c0 0.534 0.432 0.966 0.966 0.966h6.702c0.266 0 0.483-0.217 0.483-0.483v-1.449c0-0.266-0.217-0.483-0.483-0.483z"></path>
</svg>
