<!-- Generated by IcoMoon.io -->
<svg version="1.1" xmlns="http://www.w3.org/2000/svg" width="32" height="32" viewBox="0 0 32 32">
<title>control</title>
<path d="M27.776 3.2h-23.552c-0.566 0-1.024 0.458-1.024 1.024v23.552c0 0.566 0.458 1.024 1.024 1.024h23.552c0.566 0 1.024-0.458 1.024-1.024v-23.552c0-0.566-0.458-1.024-1.024-1.024zM26.496 26.496h-20.992v-20.992h20.992v20.992zM10.496 21.472v2.464c0 0.141 0.115 0.256 0.256 0.256h1.536c0.141 0 0.256-0.115 0.256-0.256v-2.464c-0.323 0.106-0.666 0.16-1.024 0.16s-0.701-0.058-1.024-0.16zM12.544 15.136v-7.072c0-0.141-0.115-0.256-0.256-0.256h-1.536c-0.141 0-0.256 0.115-0.256 0.256v7.072c0.323-0.106 0.666-0.16 1.024-0.16s0.701 0.058 1.024 0.16zM10.496 21.472c0.323 0.106 0.666 0.16 1.024 0.16s0.701-0.058 1.024-0.16c1.338-0.432 2.304-1.686 2.304-3.168s-0.966-2.736-2.304-3.168c-0.323-0.106-0.666-0.16-1.024-0.16s-0.701 0.058-1.024 0.16c-1.338 0.432-2.304 1.686-2.304 3.168s0.966 2.736 2.304 3.168zM10.499 17.77c0.010-0.019 0.022-0.038 0.032-0.058v-0.003l0.038-0.058c0.003-0.006 0.006-0.010 0.010-0.016 0.010-0.016 0.022-0.029 0.032-0.045 0.003-0.003 0.006-0.010 0.010-0.013 0.016-0.019 0.029-0.035 0.045-0.051l0.061-0.061c0.016-0.016 0.032-0.029 0.051-0.045s0.035-0.029 0.054-0.042c0.006-0.003 0.010-0.006 0.016-0.010 0.016-0.010 0.029-0.022 0.045-0.032 0.003-0.003 0.010-0.006 0.013-0.010 0.019-0.013 0.038-0.022 0.061-0.035 0.003-0.003 0.010-0.003 0.013-0.006 0.016-0.010 0.032-0.016 0.051-0.026l0.019-0.010c0.022-0.010 0.042-0.019 0.064-0.026 0.022-0.010 0.045-0.016 0.067-0.022 0.006-0.003 0.013-0.003 0.019-0.006 0.019-0.006 0.035-0.010 0.054-0.013 0.006 0 0.010-0.003 0.016-0.003 0.022-0.006 0.048-0.010 0.070-0.013 0.006 0 0.010 0 0.016-0.003 0.019-0.003 0.038-0.003 0.058-0.006h0.019c0.026 0 0.048-0.003 0.074-0.003s0.048 0 0.074 0.003h0.019c0.019 0 0.038 0.003 0.058 0.006 0.006 0 0.010 0 0.016 0.003 0.022 0.003 0.048 0.006 0.070 0.013 0.006 0 0.010 0.003 0.016 0.003 0.019 0.003 0.038 0.010 0.054 0.013 0.006 0.003 0.013 0.003 0.019 0.006 0.022 0.006 0.045 0.013 0.067 0.022 0.022 0.006 0.042 0.016 0.064 0.026l0.019 0.010c0.016 0.006 0.035 0.016 0.051 0.026 0.003 0.003 0.010 0.003 0.013 0.006 0.019 0.010 0.042 0.022 0.061 0.035 0.003 0.003 0.010 0.006 0.013 0.010 0.016 0.010 0.032 0.019 0.045 0.032 0.006 0.003 0.010 0.006 0.016 0.010 0.019 0.013 0.038 0.029 0.054 0.042s0.035 0.029 0.051 0.045l0.061 0.061c0.016 0.016 0.032 0.035 0.045 0.051 0.003 0.003 0.006 0.010 0.010 0.013 0.013 0.013 0.022 0.029 0.032 0.045 0.003 0.006 0.006 0.010 0.010 0.016l0.038 0.058c0 0 0 0.003 0.003 0.003 0.107 0.179 0.163 0.384 0.163 0.592 0 0.192-0.048 0.374-0.131 0.534-0.010 0.019-0.022 0.038-0.032 0.058 0 0 0 0.003-0.003 0.003l-0.038 0.058c-0.003 0.006-0.006 0.010-0.010 0.016-0.010 0.016-0.022 0.029-0.032 0.045-0.003 0.003-0.006 0.010-0.010 0.013-0.016 0.019-0.029 0.035-0.045 0.051l-0.061 0.061c-0.016 0.016-0.032 0.029-0.051 0.045s-0.035 0.029-0.054 0.042c-0.006 0.003-0.010 0.006-0.016 0.010-0.016 0.010-0.029 0.022-0.045 0.032-0.003 0.003-0.010 0.006-0.013 0.010-0.019 0.013-0.038 0.022-0.061 0.035-0.003 0.003-0.010 0.003-0.013 0.006-0.016 0.010-0.032 0.016-0.051 0.026l-0.019 0.010c-0.022 0.010-0.042 0.019-0.064 0.026-0.022 0.010-0.045 0.016-0.067 0.022-0.006 0.003-0.013 0.003-0.019 0.006-0.019 0.006-0.035 0.010-0.054 0.013-0.006 0-0.010 0.003-0.016 0.003-0.022 0.006-0.048 0.010-0.070 0.013-0.006 0-0.010 0-0.016 0.003-0.019 0.003-0.038 0.003-0.058 0.006h-0.019c-0.026 0-0.048 0.003-0.074 0.003s-0.048 0-0.074-0.003h-0.019c-0.019 0-0.038-0.003-0.058-0.006-0.006 0-0.010 0-0.016-0.003-0.022-0.003-0.048-0.006-0.070-0.013-0.006 0-0.010-0.003-0.016-0.003-0.019-0.003-0.038-0.010-0.054-0.013-0.006-0.003-0.013-0.003-0.019-0.006-0.022-0.006-0.045-0.013-0.067-0.022-0.022-0.006-0.042-0.016-0.064-0.026l-0.019-0.010c-0.016-0.006-0.035-0.016-0.051-0.026-0.003-0.003-0.010-0.003-0.013-0.006-0.019-0.010-0.042-0.022-0.061-0.035-0.003-0.003-0.010-0.006-0.013-0.010-0.016-0.010-0.032-0.019-0.045-0.032-0.006-0.003-0.010-0.006-0.016-0.010-0.019-0.013-0.038-0.029-0.054-0.042s-0.035-0.029-0.051-0.045l-0.061-0.061c-0.016-0.016-0.032-0.035-0.045-0.051-0.003-0.003-0.006-0.010-0.010-0.013-0.013-0.013-0.022-0.029-0.032-0.045-0.003-0.006-0.006-0.010-0.010-0.016l-0.038-0.058v-0.003c-0.013-0.019-0.022-0.038-0.032-0.058-0.083-0.16-0.131-0.342-0.131-0.534s0.048-0.374 0.131-0.534zM19.456 16.864v7.072c0 0.141 0.115 0.256 0.256 0.256h1.536c0.141 0 0.256-0.115 0.256-0.256v-7.072c-0.323 0.106-0.666 0.16-1.024 0.16s-0.701-0.058-1.024-0.16zM21.504 10.528v-2.464c0-0.141-0.115-0.256-0.256-0.256h-1.536c-0.141 0-0.256 0.115-0.256 0.256v2.464c0.323-0.106 0.666-0.16 1.024-0.16s0.701 0.058 1.024 0.16zM19.456 16.864c0.323 0.106 0.666 0.16 1.024 0.16s0.701-0.058 1.024-0.16c1.338-0.432 2.304-1.686 2.304-3.168s-0.966-2.736-2.304-3.168c-0.323-0.106-0.666-0.16-1.024-0.16s-0.701 0.058-1.024 0.16c-1.338 0.432-2.304 1.686-2.304 3.168s0.966 2.736 2.304 3.168zM19.459 13.162c0.010-0.019 0.022-0.038 0.032-0.058v-0.003l0.038-0.058c0.003-0.006 0.006-0.010 0.010-0.016 0.010-0.016 0.022-0.029 0.032-0.045 0.003-0.003 0.006-0.010 0.010-0.013 0.016-0.019 0.029-0.035 0.045-0.051l0.061-0.061c0.016-0.016 0.032-0.029 0.051-0.045s0.035-0.029 0.054-0.042c0.006-0.003 0.010-0.006 0.016-0.010 0.016-0.010 0.029-0.022 0.045-0.032 0.003-0.003 0.010-0.006 0.013-0.010 0.019-0.013 0.038-0.022 0.061-0.035 0.003-0.003 0.010-0.003 0.013-0.006 0.016-0.010 0.032-0.016 0.051-0.026l0.019-0.010c0.022-0.010 0.042-0.019 0.064-0.026 0.022-0.010 0.045-0.016 0.067-0.022 0.006-0.003 0.013-0.003 0.019-0.006 0.019-0.006 0.035-0.010 0.054-0.013 0.006 0 0.010-0.003 0.016-0.003 0.022-0.006 0.048-0.010 0.070-0.013 0.006 0 0.010 0 0.016-0.003 0.019-0.003 0.038-0.003 0.058-0.006h0.019c0.026 0 0.048-0.003 0.074-0.003s0.048 0 0.074 0.003h0.019c0.019 0 0.038 0.003 0.058 0.006 0.006 0 0.010 0 0.016 0.003 0.022 0.003 0.048 0.006 0.070 0.013 0.006 0 0.010 0.003 0.016 0.003 0.019 0.003 0.038 0.010 0.054 0.013 0.006 0.003 0.013 0.003 0.019 0.006 0.022 0.006 0.045 0.013 0.067 0.022 0.022 0.006 0.042 0.016 0.064 0.026l0.019 0.010c0.016 0.006 0.035 0.016 0.051 0.026 0.003 0.003 0.010 0.003 0.013 0.006 0.019 0.010 0.042 0.022 0.061 0.035 0.003 0.003 0.010 0.006 0.013 0.010 0.016 0.010 0.032 0.019 0.045 0.032 0.006 0.003 0.010 0.006 0.016 0.010 0.019 0.013 0.038 0.029 0.054 0.042s0.035 0.029 0.051 0.045l0.061 0.061c0.016 0.016 0.032 0.035 0.045 0.051 0.003 0.003 0.006 0.010 0.010 0.013 0.013 0.013 0.022 0.029 0.032 0.045 0.003 0.006 0.006 0.010 0.010 0.016l0.038 0.058v0.003c0.107 0.179 0.163 0.384 0.163 0.592 0 0.192-0.048 0.374-0.131 0.534-0.010 0.019-0.022 0.038-0.032 0.058v0.003l-0.038 0.058c-0.003 0.006-0.006 0.010-0.010 0.016-0.010 0.016-0.022 0.029-0.032 0.045-0.003 0.003-0.006 0.010-0.010 0.013-0.016 0.019-0.029 0.035-0.045 0.051l-0.061 0.061c-0.016 0.016-0.032 0.029-0.051 0.045s-0.035 0.029-0.054 0.042c-0.006 0.003-0.010 0.006-0.016 0.010-0.016 0.010-0.029 0.022-0.045 0.032-0.003 0.003-0.010 0.006-0.013 0.010-0.019 0.013-0.038 0.022-0.061 0.035-0.003 0.003-0.010 0.003-0.013 0.006-0.016 0.010-0.032 0.016-0.051 0.026l-0.019 0.010c-0.022 0.010-0.042 0.019-0.064 0.026-0.022 0.010-0.045 0.016-0.067 0.022-0.006 0.003-0.013 0.003-0.019 0.006-0.019 0.006-0.035 0.010-0.054 0.013-0.006 0-0.010 0.003-0.016 0.003-0.022 0.006-0.048 0.010-0.070 0.013-0.006 0-0.010 0-0.016 0.003-0.019 0.003-0.038 0.003-0.058 0.006h-0.019c-0.026 0-0.048 0.003-0.074 0.003s-0.048 0-0.074-0.003h-0.019c-0.019 0-0.038-0.003-0.058-0.006-0.006 0-0.010 0-0.016-0.003-0.022-0.003-0.048-0.006-0.070-0.013-0.006 0-0.010-0.003-0.016-0.003-0.019-0.003-0.038-0.010-0.054-0.013-0.006-0.003-0.013-0.003-0.019-0.006-0.022-0.006-0.045-0.013-0.067-0.022-0.022-0.006-0.042-0.016-0.064-0.026l-0.019-0.010c-0.016-0.006-0.035-0.016-0.051-0.026-0.003-0.003-0.010-0.003-0.013-0.006-0.019-0.010-0.042-0.022-0.061-0.035-0.003-0.003-0.010-0.006-0.013-0.010-0.016-0.010-0.032-0.019-0.045-0.032-0.006-0.003-0.010-0.006-0.016-0.010-0.019-0.013-0.038-0.029-0.054-0.042s-0.035-0.029-0.051-0.045l-0.061-0.061c-0.016-0.016-0.032-0.035-0.045-0.051-0.003-0.003-0.006-0.010-0.010-0.013-0.013-0.013-0.022-0.029-0.032-0.045-0.003-0.006-0.006-0.010-0.010-0.016l-0.038-0.058v-0.003c-0.013-0.019-0.022-0.038-0.032-0.058-0.083-0.16-0.131-0.342-0.131-0.534s0.048-0.374 0.131-0.534z"></path>
</svg>
