<!-- Generated by IcoMoon.io -->
<svg version="1.1" xmlns="http://www.w3.org/2000/svg" width="32" height="32" viewBox="0 0 32 32">
<path d="M26.133 3.2h-20.317c-0.562 0-1.016 0.409-1.016 0.914v23.771c0 0.506 0.454 0.914 1.016 0.914h20.317c0.562 0 1.016-0.409 1.016-0.914v-23.771c0-0.506-0.454-0.914-1.016-0.914zM24.864 26.743h-17.778v-5.743h3.108c0.368 0.937 1.016 1.78 1.876 2.42 1.095 0.814 2.483 1.266 3.905 1.266s2.81-0.449 3.905-1.266c0.86-0.64 1.508-1.483 1.876-2.42h3.108v-1.8h-4.711l-0.165 0.706c-0.381 1.708-2.070 2.951-4.013 2.951s-3.632-1.243-4.016-2.951l-0.165-0.706h-4.708v-13.943h17.778v21.486zM9.879 11.114h12.191c0.14 0 0.254-0.103 0.254-0.229v-1.371c0-0.126-0.114-0.229-0.254-0.229h-12.191c-0.14 0-0.254 0.103-0.254 0.229v1.371c0 0.126 0.114 0.229 0.254 0.229zM9.879 15.686h12.191c0.14 0 0.254-0.103 0.254-0.229v-1.371c0-0.126-0.114-0.229-0.254-0.229h-12.191c-0.14 0-0.254 0.103-0.254 0.229v1.371c0 0.126 0.114 0.229 0.254 0.229z"></path>
</svg>
