<!-- Generated by IcoMoon.io -->
<svg version="1.1" xmlns="http://www.w3.org/2000/svg" width="32" height="32" viewBox="0 0 32 32">
<path d="M24.7 25.7l-2.2 2.2c-0.2 0.2-0.4 0.3-0.7 0.3s-0.5-0.1-0.7-0.3c-0.2-0.2-0.3-0.4-0.3-0.7s0.1-0.5 0.3-0.7l2.2-2.2-2.3-2.2c-0.2-0.2-0.3-0.4-0.3-0.7s0.1-0.5 0.3-0.7c0.2-0.2 0.4-0.3 0.7-0.3s0.5 0.1 0.7 0.3l2.2 2.2 2.2-2.2c0.2-0.2 0.4-0.3 0.7-0.3s0.5 0.1 0.7 0.3c0.2 0.2 0.3 0.4 0.3 0.7s-0.1 0.5-0.3 0.7l-2.2 2.2 2.2 2.2c0.2 0.2 0.3 0.4 0.3 0.7s-0.1 0.5-0.3 0.7c-0.2 0.2-0.4 0.3-0.7 0.3s-0.5-0.1-0.7-0.3l-2.1-2.2zM6.8 29c-1 0-1.8-0.3-2.4-1-0.7-0.7-1-1.5-1-2.4v-1.5c0-0.7 0.2-1.3 0.7-1.7 0.5-0.5 1.1-0.7 1.7-0.7h1.6v-16.2c0-0.7 0.2-1.3 0.7-1.7 0.6-0.6 1.2-0.8 1.9-0.8h14.2c0.7 0 1.3 0.2 1.7 0.7 0.5 0.5 0.7 1.1 0.7 1.7v10.9c0 0.3-0.1 0.5-0.3 0.7s-0.4 0.3-0.7 0.3c-0.3 0-0.5-0.1-0.7-0.3s-0.3-0.4-0.3-0.7v-10.8c0-0.1 0-0.2-0.1-0.3s-0.2-0.1-0.3-0.1h-14.2c-0.1 0-0.2 0-0.3 0.1s-0.1 0.2-0.1 0.3v16.2h7.4c0.3 0 0.5 0.1 0.7 0.3s0.3 0.4 0.3 0.7c0 0.3-0.1 0.5-0.3 0.7s-0.4 0.3-0.7 0.3h-11.1c-0.1 0-0.2 0-0.3 0.1s-0.1 0.2-0.1 0.3v1.5c0 0.4 0.1 0.7 0.4 1s0.6 0.4 1 0.4h10.1c0.3 0 0.5 0.1 0.7 0.3s0.3 0.4 0.3 0.7c0 0.3-0.1 0.5-0.3 0.7-0.1 0.2-0.4 0.3-0.7 0.3h-10.2zM18 26.9v0zM12.2 11.5c-0.3 0-0.5-0.1-0.7-0.3s-0.3-0.4-0.3-0.7c0-0.3 0.1-0.5 0.3-0.7s0.4-0.3 0.7-0.3h9.7c0.3 0 0.5 0.1 0.7 0.3s0.3 0.4 0.3 0.7c0 0.3-0.1 0.5-0.3 0.7s-0.4 0.3-0.7 0.3h-9.7zM12.2 15.4c-0.3 0-0.5-0.1-0.7-0.3s-0.3-0.4-0.3-0.7c0-0.3 0.1-0.5 0.3-0.7s0.4-0.3 0.7-0.3h9.7c0.3 0 0.5 0.1 0.7 0.3s0.3 0.4 0.3 0.7c0 0.3-0.1 0.5-0.3 0.7s-0.4 0.3-0.7 0.3h-9.7z"></path>
</svg>
