<!-- Generated by IcoMoon.io -->
<svg version="1.1" xmlns="http://www.w3.org/2000/svg" width="32" height="32" viewBox="0 0 32 32">
<path d="M13.92 21.28h-4.64c-0.64 0-1.12-0.48-1.12-1.12v-3.040h-2.88c-0.64 0-1.12-0.48-1.12-1.12s0.48-1.12 1.12-1.12h2.88c-0.64-0.32-1.12-0.8-1.44-1.28-0.48-0.8-0.48-1.92 0-2.72l3.52-6.24c0.48-0.96 1.44-1.44 2.4-1.44s1.92 0.48 2.4 1.44l3.52 6.24c0 0.16 0.16 0.48 0.32 0.8 0 0.64-0.16 1.12-0.8 1.28-0.64 0-1.12-0.16-1.28-0.8 0 0 0 0 0 0l-3.52-6.24c-0.16-0.32-0.48-0.32-0.64-0.32s-0.48 0-0.64 0.32l-3.52 6.24c0 0.16 0 0.48 0 0.48s0.16 0.32 0.64 0.32c0.64 0 1.12 0.48 1.12 1.12v5.12h3.52c0.64 0 1.12 0.48 1.12 1.12s-0.48 1.12-1.12 1.12zM26.72 17.12h-3.84c-0.64 0-1.12-0.48-1.12-1.12s0.48-1.12 1.12-1.12h3.84c0.64 0 1.12 0.48 1.12 1.12s-0.48 1.12-1.12 1.12z"></path>
<path d="M19.2 28.8v0c-1.12 0-1.92-0.48-2.4-1.44l-3.52-6.24c-0.48-0.8-0.48-1.92 0-2.72 0.32-0.48 0.8-0.96 1.44-1.12v-5.28c0-0.64 0.48-1.12 1.12-1.12h6.88c0.64 0 1.12 0.48 1.12 1.12v5.28c0.64 0.16 1.12 0.64 1.44 1.12 0.48 0.8 0.48 1.92 0 2.72l-0.64 1.28c-0.32 0.48-0.96 0.64-1.44 0.48-0.48-0.32-0.64-0.96-0.48-1.44l0.64-1.28c0-0.16 0-0.48 0-0.48s-0.16-0.32-0.64-0.32c-0.64 0-1.12-0.48-1.12-1.12v-5.12h-4.8v5.12c0 0.64-0.48 1.12-1.12 1.12s-0.48 0.16-0.64 0.32c0 0 0 0.32 0 0.48l3.52 6.24c0.16 0.32 0.48 0.32 0.64 0.32v0c0 0 0.48 0 0.64-0.32l0.32-0.64c0.32-0.48 0.96-0.64 1.44-0.48 0.48 0.32 0.64 0.96 0.48 1.44l-0.32 0.64c-0.48 0.96-1.44 1.44-2.4 1.44z"></path>
</svg>
