<!-- Generated by IcoMoon.io -->
<svg version="1.1" xmlns="http://www.w3.org/2000/svg" width="32" height="32" viewBox="0 0 32 32">
<title>copyright-circle</title>
<path d="M16 3.2c-7.069 0-12.8 5.731-12.8 12.8s5.731 12.8 12.8 12.8c7.069 0 12.8-5.731 12.8-12.8s-5.731-12.8-12.8-12.8zM16 26.629c-5.869 0-10.629-4.76-10.629-10.629s4.76-10.629 10.629-10.629c5.869 0 10.629 4.76 10.629 10.629s-4.76 10.629-10.629 10.629zM16.16 11.409c1.514 0 2.543 0.966 2.657 2.383 0.009 0.12 0.109 0.211 0.229 0.211h1.62c0.074 0 0.134-0.060 0.134-0.134 0-2.477-1.954-4.211-4.649-4.211-3.14 0-4.951 2.12-4.951 5.623v1.494c0 3.477 1.811 5.569 4.951 5.569 2.686 0 4.649-1.68 4.649-4.040 0-0.074-0.060-0.134-0.134-0.134h-1.623c-0.12 0-0.217 0.091-0.229 0.208-0.12 1.317-1.146 2.223-2.657 2.223-1.866 0-2.917-1.369-2.917-3.817v-1.503c0.003-2.486 1.057-3.871 2.92-3.871v0z"></path>
</svg>
