<!-- Generated by IcoMoon.io -->
<svg version="1.1" xmlns="http://www.w3.org/2000/svg" width="32" height="32" viewBox="0 0 32 32">
<path fill="#002851" d="M4.889 10.667h22.222v-3.111h-22.222v3.111zM2.667 7.556c0-0.6 0.22-1.12 0.661-1.561s0.961-0.661 1.561-0.661h22.222c0.6 0 1.12 0.22 1.561 0.661s0.661 0.961 0.661 1.561v6.867c0 0.315-0.106 0.579-0.319 0.792s-0.477 0.319-0.792 0.319h-23.333v8.911h5.889c0.315 0 0.579 0.107 0.792 0.321s0.32 0.479 0.32 0.794c0 0.316-0.107 0.58-0.32 0.791s-0.477 0.317-0.792 0.317h-5.889c-0.6 0-1.12-0.22-1.561-0.661s-0.661-0.961-0.661-1.561v-16.889zM4.889 7.556v0zM19.933 28.889c-0.133 0-0.267-0.026-0.4-0.078s-0.259-0.137-0.378-0.255l-4.111-4.111c-0.215-0.215-0.32-0.476-0.317-0.783s0.118-0.575 0.344-0.803c0.207-0.209 0.465-0.314 0.775-0.314s0.576 0.107 0.798 0.322l3.289 3.289 7.033-7.033c0.223-0.222 0.488-0.328 0.795-0.317s0.571 0.128 0.794 0.35c0.203 0.222 0.31 0.481 0.319 0.778s-0.097 0.555-0.319 0.778l-7.845 7.845c-0.119 0.119-0.241 0.204-0.369 0.255s-0.263 0.078-0.409 0.078z"></path>
</svg>
