<!-- Generated by IcoMoon.io -->
<svg version="1.1" xmlns="http://www.w3.org/2000/svg" width="32" height="32" viewBox="0 0 32 32">
<path d="M27.886 6.4h-23.771c-0.506 0-0.914 0.409-0.914 0.914v18.286c0 0.506 0.409 0.914 0.914 0.914h23.771c0.506 0 0.914-0.408 0.914-0.914v-18.286c0-0.506-0.409-0.914-0.914-0.914zM5.257 8.457h21.486v3.429h-21.486v-3.429zM26.743 24.457h-21.486v-10.057h21.486v10.057zM19.971 22.629h4.714c0.126 0 0.228-0.103 0.228-0.229v-2.057c0-0.126-0.103-0.229-0.228-0.229h-4.714c-0.126 0-0.228 0.103-0.228 0.229v2.057c0 0.126 0.103 0.229 0.228 0.229z"></path>
</svg>
