<!-- Generated by IcoMoon.io -->
<svg version="1.1" xmlns="http://www.w3.org/2000/svg" width="32" height="32" viewBox="0 0 32 32">
<path d="M28.404 9.032l-6.228 3.837-5.972-7.965c-0.024-0.032-0.055-0.058-0.091-0.076s-0.075-0.027-0.115-0.027c-0.040 0-0.080 0.009-0.115 0.027s-0.067 0.044-0.091 0.076l-5.968 7.965-6.231-3.837c-0.182-0.112-0.419 0.038-0.39 0.253l2.445 18.581c0.035 0.253 0.253 0.448 0.512 0.448h19.685c0.256 0 0.477-0.192 0.509-0.448l2.445-18.581c0.026-0.214-0.208-0.365-0.394-0.253zM24.372 26.124h-16.747l-1.722-13.102 4.474 2.755 5.623-7.501 5.623 7.501 4.474-2.755-1.725 13.102zM16 16.472c-1.987 0-3.603 1.616-3.603 3.604s1.616 3.604 3.603 3.604c1.987 0 3.604-1.616 3.604-3.604s-1.616-3.604-3.604-3.604zM16 21.621c-0.851 0-1.542-0.691-1.542-1.546 0-0.851 0.691-1.546 1.542-1.546s1.543 0.691 1.543 1.546c0 0.851-0.691 1.546-1.543 1.546z"></path>
</svg>
