<!-- Generated by IcoMoon.io -->
<svg version="1.1" xmlns="http://www.w3.org/2000/svg" width="32" height="32" viewBox="0 0 32 32">
<title>customer-service</title>
<path d="M16 3.2c-7.070 0-12.8 5.73-12.8 12.8v12c0 0.443 0.357 0.8 0.8 0.8h6.133c1.177 0 2.133-0.957 2.133-2.133v-6.933c0-1.177-0.957-2.133-2.133-2.133h-4.533v-1.6c0-5.743 4.657-10.4 10.4-10.4s10.4 4.657 10.4 10.4v1.6h-4.533c-1.177 0-2.133 0.957-2.133 2.133v6.933c0 1.177 0.957 2.133 2.133 2.133h6.133c0.443 0 0.8-0.357 0.8-0.8v-12c0-7.070-5.73-12.8-12.8-12.8zM9.867 20v6.4h-4.267v-6.4h4.267zM26.4 26.4h-4.267v-6.4h4.267v6.4z"></path>
</svg>
