<!-- Generated by IcoMoon.io -->
<svg version="1.1" xmlns="http://www.w3.org/2000/svg" width="32" height="32" viewBox="0 0 32 32">
<title>delete</title>
<path d="M4.8 9.143c0-0.757 0.614-1.371 1.371-1.371h20.571c0.757 0 1.371 0.614 1.371 1.371s-0.614 1.371-1.371 1.371h-20.571c-0.757 0-1.371-0.614-1.371-1.371z"></path>
<path d="M14.172 5.943h4.571c0.243 0 0.475 0.096 0.647 0.268s0.268 0.404 0.268 0.646v0.914h-6.4v-0.914c0-0.242 0.096-0.475 0.268-0.646s0.404-0.268 0.646-0.268zM22.4 7.771h2.057c0.757 0 1.371 0.614 1.371 1.371v16c0 0.97-0.385 1.9-1.071 2.586s-1.616 1.071-2.586 1.071h-11.429c-0.97 0-1.9-0.385-2.586-1.071s-1.071-1.616-1.071-2.586v-16c0-0.757 0.614-1.371 1.371-1.371h2.057v-0.914c0-0.97 0.385-1.9 1.071-2.586s1.616-1.071 2.586-1.071h4.571c0.97 0 1.9 0.385 2.586 1.071s1.071 1.616 1.071 2.586v0.914zM9.829 10.514v14.629c0 0.242 0.096 0.475 0.268 0.646s0.404 0.268 0.646 0.268h11.429c0.242 0 0.475-0.096 0.646-0.268s0.268-0.404 0.268-0.646v-14.629h-13.257z"></path>
<path d="M14.171 13.486c0.757 0 1.371 0.614 1.371 1.371v6.857c0 0.757-0.614 1.372-1.371 1.372s-1.371-0.614-1.371-1.372v-6.857c0-0.757 0.614-1.371 1.371-1.371z"></path>
<path d="M18.743 13.486c0.757 0 1.372 0.614 1.372 1.371v6.857c0 0.757-0.614 1.372-1.372 1.372s-1.371-0.614-1.371-1.372v-6.857c0-0.757 0.614-1.371 1.371-1.371z"></path>
</svg>
