<!-- Generated by IcoMoon.io -->
<svg version="1.1" xmlns="http://www.w3.org/2000/svg" width="32" height="32" viewBox="0 0 32 32">
<path d="M20.449 20.155c-0.045-0.039-0.103-0.061-0.163-0.061h-1.75c-0.077 0-0.147 0.035-0.195 0.093l-2.342 2.809-2.339-2.809c-0.024-0.029-0.054-0.052-0.087-0.068s-0.070-0.025-0.108-0.025h-1.753c-0.061 0-0.118 0.022-0.163 0.061-0.026 0.021-0.048 0.048-0.063 0.078s-0.025 0.063-0.028 0.096 0.001 0.068 0.011 0.1c0.010 0.032 0.027 0.062 0.049 0.088l3.273 3.929-3.276 3.932c-0.031 0.038-0.051 0.083-0.057 0.131s0.001 0.097 0.022 0.141c0.020 0.044 0.053 0.082 0.094 0.108s0.088 0.041 0.137 0.042h1.75c0.077 0 0.147-0.035 0.195-0.093l2.339-2.809 2.339 2.809c0.024 0.029 0.054 0.052 0.088 0.068s0.070 0.025 0.108 0.025h1.76c0.061 0 0.118-0.022 0.163-0.061 0.109-0.090 0.125-0.253 0.032-0.362l-3.273-3.932 3.276-3.932c0.089-0.109 0.073-0.269-0.035-0.358v0zM14.719 17.022h2.56c0.141 0 0.256-0.115 0.256-0.256v-13.31c0-0.141-0.115-0.256-0.256-0.256h-2.56c-0.141 0-0.256 0.115-0.256 0.256v13.31c0 0.141 0.115 0.256 0.256 0.256zM10.815 11.967h-5.311v-7.999c0-0.106-0.086-0.192-0.192-0.192h-1.92c-0.106 0-0.192 0.086-0.192 0.192v9.343c0 0.531 0.429 0.96 0.96 0.96h6.655c0.106 0 0.192-0.086 0.192-0.192v-1.92c0-0.106-0.086-0.192-0.192-0.192zM28.605 3.776h-1.92c-0.106 0-0.192 0.086-0.192 0.192v7.999h-5.311c-0.106 0-0.192 0.086-0.192 0.192v1.92c0 0.106 0.086 0.192 0.192 0.192h6.655c0.531 0 0.96-0.429 0.96-0.96v-9.343c0-0.106-0.086-0.192-0.192-0.192z"></path>
</svg>
