<!-- Generated by IcoMoon.io -->
<svg version="1.1" xmlns="http://www.w3.org/2000/svg" width="32" height="32" viewBox="0 0 32 32">
<title>delete-row</title>
<path d="M25.513 15.81l3.228-3.874c0.031-0.037 0.050-0.082 0.056-0.129s-0.001-0.096-0.021-0.139c-0.020-0.044-0.052-0.080-0.092-0.107s-0.087-0.040-0.135-0.041h-1.724c-0.076 0-0.145 0.035-0.192 0.091l-2.311 2.771-2.304-2.768c-0.024-0.028-0.053-0.051-0.086-0.067s-0.069-0.024-0.106-0.025h-1.728c-0.060 0-0.117 0.022-0.161 0.060-0.026 0.021-0.047 0.047-0.062 0.077s-0.025 0.062-0.028 0.095c-0.003 0.033 0.001 0.067 0.011 0.098s0.026 0.061 0.048 0.086l3.225 3.871-3.228 3.874c-0.031 0.037-0.050 0.082-0.056 0.129s0.001 0.096 0.021 0.139 0.052 0.080 0.092 0.107c0.040 0.026 0.087 0.040 0.135 0.041h1.724c0.076 0 0.145-0.035 0.192-0.092l2.304-2.768 2.304 2.768c0.024 0.028 0.053 0.051 0.086 0.067s0.069 0.024 0.106 0.025h1.734c0.060 0 0.117-0.022 0.161-0.060 0.107-0.088 0.123-0.249 0.032-0.356l-3.225-3.874zM16.567 14.297h-13.114c-0.139 0-0.252 0.114-0.252 0.252v2.522c0 0.139 0.114 0.252 0.252 0.252h13.114c0.139 0 0.252-0.113 0.252-0.252v-2.522c0-0.139-0.114-0.252-0.252-0.252zM13.919 20.728h-1.892c-0.104 0-0.189 0.085-0.189 0.189v5.233h-7.881c-0.104 0-0.189 0.085-0.189 0.189v1.892c0 0.104 0.085 0.189 0.189 0.189h9.205c0.523 0 0.946-0.422 0.946-0.946v-6.557c0-0.104-0.085-0.189-0.189-0.189zM3.957 5.47h7.881v5.233c0 0.104 0.085 0.189 0.189 0.189h1.892c0.104 0 0.189-0.085 0.189-0.189v-6.557c0-0.523-0.422-0.946-0.946-0.946h-9.205c-0.104 0-0.189 0.085-0.189 0.189v1.892c0 0.104 0.085 0.189 0.189 0.189z"></path>
</svg>
