<!-- Generated by IcoMoon.io -->
<svg version="1.1" xmlns="http://www.w3.org/2000/svg" width="32" height="32" viewBox="0 0 32 32">
<path d="M27.15 21.725c-1.259-0.729-2.794-0.533-3.828 0.379l-1.57-0.91v-4.495c0-0.465-0.249-0.898-0.652-1.129l-4.030-2.32v-1.988c1.31-0.444 2.252-1.683 2.252-3.144 0-1.834-1.484-3.319-3.319-3.319s-3.319 1.484-3.319 3.319c0 1.461 0.942 2.699 2.252 3.144v1.988l-4.030 2.32c-0.403 0.231-0.652 0.664-0.652 1.129v4.492l-1.57 0.91c-1.034-0.913-2.572-1.108-3.828-0.379-1.585 0.918-2.124 2.945-1.215 4.53 0.913 1.585 2.93 2.13 4.51 1.215 1.259-0.729 1.858-2.163 1.588-3.52l1.443-0.839 4.166 2.4c0.201 0.116 0.427 0.175 0.652 0.175s0.45-0.059 0.652-0.175l4.163-2.397 1.443 0.839c-0.27 1.354 0.332 2.791 1.588 3.52 1.579 0.916 3.6 0.373 4.51-1.215 0.913-1.588 0.373-3.615-1.206-4.53v0zM7.209 25.825c-0.161 0.093-0.339 0.154-0.523 0.178s-0.372 0.012-0.551-0.037c-0.18-0.048-0.348-0.132-0.495-0.246s-0.27-0.256-0.363-0.417c-0.391-0.679-0.16-1.55 0.519-1.941 0.161-0.093 0.339-0.154 0.523-0.178s0.372-0.012 0.551 0.037c0.18 0.048 0.348 0.132 0.495 0.246s0.27 0.256 0.363 0.417c0.391 0.679 0.16 1.55-0.519 1.941zM14.578 8.119c0.008-0.372 0.161-0.727 0.427-0.987s0.623-0.406 0.996-0.406c0.372 0 0.73 0.146 0.996 0.406s0.419 0.615 0.427 0.987c-0.008 0.372-0.161 0.727-0.427 0.987s-0.623 0.406-0.996 0.406c-0.372 0-0.73-0.146-0.996-0.406s-0.419-0.615-0.427-0.987v0zM19.615 21.34l-3.615 2.083-3.615-2.083v-4.16l3.615-2.083 3.615 2.083v4.16zM26.723 25.307c-0.391 0.679-1.256 0.913-1.932 0.522s-0.91-1.262-0.519-1.941c0.391-0.679 1.256-0.913 1.932-0.522 0.678 0.391 0.91 1.259 0.518 1.941z"></path>
</svg>
