<!-- Generated by IcoMoon.io -->
<svg version="1.1" xmlns="http://www.w3.org/2000/svg" width="32" height="32" viewBox="0 0 32 32">
<title>desktop</title>
<path d="M27.886 4.8h-23.771c-0.506 0-0.914 0.409-0.914 0.914v14.171c0 0.506 0.409 0.914 0.914 0.914h10.857v3.2h-4.914c-0.251 0-0.457 0.206-0.457 0.457v1.372c0 0.126 0.103 0.228 0.229 0.228h12.343c0.126 0 0.229-0.103 0.229-0.228v-1.372c0-0.251-0.206-0.457-0.457-0.457h-4.914v-3.2h10.857c0.506 0 0.914-0.409 0.914-0.914v-14.171c0-0.506-0.409-0.914-0.914-0.914zM26.743 18.743h-21.486v-11.886h21.486v11.886z"></path>
</svg>
