<!-- Generated by IcoMoon.io -->
<svg version="1.1" xmlns="http://www.w3.org/2000/svg" width="32" height="32" viewBox="0 0 32 32">
<title>diff</title>
<path d="M15.429 12.774c0-0.111-0.089-0.203-0.2-0.203h-1.2c-0.109 0-0.2 0.091-0.2 0.203v2.426h-2.414c-0.117 0-0.214 0.089-0.214 0.2v1.2c0 0.109 0.097 0.2 0.214 0.2h2.414v2.426c0 0.111 0.091 0.203 0.2 0.203h1.2c0.111 0 0.2-0.092 0.2-0.203v-2.426h2.414c0.117 0 0.214-0.091 0.214-0.2v-1.2c0-0.111-0.097-0.2-0.214-0.2h-2.414v-2.426zM17.843 21.486h-6.429c-0.117 0-0.214 0.091-0.214 0.2v1.2c0 0.108 0.097 0.2 0.214 0.2h6.429c0.117 0 0.214-0.092 0.214-0.2v-1.2c0-0.109-0.097-0.2-0.214-0.2zM17.64 7.126c-0.171-0.171-0.403-0.269-0.646-0.269h-9.68c-0.506 0-0.914 0.409-0.914 0.914v20.114c0 0.506 0.409 0.914 0.914 0.914h14.629c0.506 0 0.914-0.409 0.914-0.914v-15.163c0-0.243-0.097-0.474-0.268-0.646l-4.949-4.951zM20.8 26.743h-12.343v-17.829h8.063l4.28 4.28v13.549zM26.234 10.131l-6.94-6.677c-0.171-0.163-0.397-0.254-0.634-0.254h-8.374c-0.126 0-0.229 0.103-0.229 0.229v1.6c0 0.126 0.103 0.229 0.229 0.229h7.914l6.257 6.017v13.64c0 0.126 0.103 0.229 0.229 0.229h1.6c0.126 0 0.228-0.103 0.228-0.229v-14.126c0-0.249-0.1-0.486-0.28-0.657z"></path>
</svg>
