<!-- Generated by IcoMoon.io -->
<svg version="1.1" xmlns="http://www.w3.org/2000/svg" width="32" height="32" viewBox="0 0 32 32">
<title>direction-fill</title>
<path d="M12.801 13.866c-0.283 0-0.554 0.112-0.754 0.312s-0.312 0.471-0.312 0.754v4.267h2.133v-3.2h3.2v2.667l3.733-3.734-3.733-3.733v2.667h-4.267zM16.756 4.685l10.56 10.56c0.2 0.2 0.312 0.471 0.312 0.754s-0.112 0.554-0.312 0.754l-10.56 10.56c-0.2 0.2-0.471 0.312-0.754 0.312s-0.554-0.112-0.754-0.312l-10.56-10.56c-0.2-0.2-0.312-0.471-0.312-0.754s0.112-0.554 0.312-0.754l10.56-10.56c0.2-0.2 0.471-0.312 0.754-0.312s0.554 0.112 0.754 0.312v0z"></path>
</svg>
