<!-- Generated by IcoMoon.io -->
<svg version="1.1" xmlns="http://www.w3.org/2000/svg" width="32" height="32" viewBox="0 0 32 32">
<title>dislike</title>
<path d="M27.246 15.324c0.112-0.373 0.168-0.758 0.168-1.15 0-0.879-0.289-1.724-0.811-2.414 0.112-0.373 0.168-0.758 0.168-1.15 0-0.879-0.289-1.724-0.811-2.414 0.112-0.373 0.168-0.758 0.168-1.15 0-1.603-0.954-3.048-2.433-3.679-0.26-0.112-0.54-0.169-0.823-0.168h-18.677c-0.55 0-0.994 0.444-0.994 0.994v11.31c0 0.55 0.444 0.994 0.994 0.994h4.018l2.666 9.657c0.429 1.557 1.858 2.644 3.474 2.644 0.923 0 1.784-0.367 2.421-1.038 0.637-0.668 0.963-1.544 0.917-2.467l-0.187-3.819h7.454c0.376 0 0.743-0.099 1.066-0.289 1.255-0.73 2.035-2.054 2.035-3.449 0-0.879-0.289-1.724-0.811-2.414v0zM5.437 14.258v-8.824h2.517v8.824h-2.517zM24.925 19.242h-9.769l0.298 6.165c0.019 0.37-0.146 0.718-0.454 0.948-0.19 0.14-0.423 0.211-0.656 0.208-0.298-0.003-0.586-0.102-0.823-0.283s-0.408-0.434-0.488-0.72l-3.092-11.201v-8.924h12.907c0.311 0.139 0.574 0.365 0.76 0.651s0.284 0.619 0.284 0.959c0 0.301-0.072 0.587-0.214 0.848l-0.432 0.789 0.68 0.59c0.192 0.166 0.345 0.371 0.45 0.602s0.159 0.481 0.159 0.734c0 0.301-0.072 0.587-0.214 0.848l-0.432 0.789 0.68 0.59c0.192 0.166 0.345 0.371 0.45 0.602s0.159 0.481 0.159 0.734c0 0.301-0.072 0.587-0.214 0.848l-0.435 0.792 0.68 0.59c0.192 0.166 0.345 0.371 0.45 0.602s0.159 0.481 0.159 0.734c0 0.594-0.342 1.165-0.895 1.504v0z"></path>
</svg>
