<!-- Generated by IcoMoon.io -->
<svg version="1.1" xmlns="http://www.w3.org/2000/svg" width="32" height="32" viewBox="0 0 32 32">
<path fill="#002851" d="M6.222 28c-0.611 0-1.134-0.218-1.57-0.653s-0.653-0.959-0.653-1.57v-19.555c0-0.611 0.218-1.134 0.653-1.57s0.959-0.653 1.57-0.653h6.422c0.17-0.785 0.569-1.426 1.195-1.922s1.346-0.744 2.161-0.744 1.535 0.248 2.161 0.744c0.626 0.496 1.024 1.137 1.195 1.922h6.422c0.611 0 1.134 0.218 1.57 0.653s0.653 0.959 0.653 1.57v19.555c0 0.611-0.218 1.134-0.653 1.57s-0.959 0.653-1.57 0.653h-19.555zM6.222 25.778h19.555v-19.555h-19.555v19.555zM10.444 22.667h6.956c0.315 0 0.579-0.107 0.792-0.321s0.319-0.478 0.319-0.794-0.107-0.58-0.319-0.791c-0.213-0.211-0.477-0.317-0.792-0.317h-6.956c-0.315 0-0.579 0.107-0.792 0.321s-0.319 0.479-0.319 0.794c0 0.316 0.106 0.58 0.319 0.791s0.477 0.317 0.792 0.317zM10.444 17.111h11.111c0.315 0 0.579-0.107 0.792-0.32s0.319-0.479 0.319-0.795c0-0.316-0.106-0.579-0.319-0.79s-0.477-0.317-0.792-0.317h-11.111c-0.315 0-0.579 0.107-0.792 0.32s-0.319 0.479-0.319 0.795c0 0.316 0.106 0.579 0.319 0.79s0.477 0.317 0.792 0.317zM10.444 11.556h11.111c0.315 0 0.579-0.107 0.792-0.321s0.319-0.479 0.319-0.794c0-0.316-0.106-0.58-0.319-0.791s-0.477-0.317-0.792-0.317h-11.111c-0.315 0-0.579 0.107-0.792 0.321s-0.319 0.478-0.319 0.794 0.106 0.58 0.319 0.791c0.213 0.211 0.477 0.317 0.792 0.317zM16 5.511c0.304 0 0.565-0.109 0.783-0.328s0.328-0.48 0.328-0.783c0-0.304-0.109-0.565-0.328-0.783s-0.48-0.328-0.783-0.328c-0.304 0-0.565 0.109-0.783 0.328s-0.328 0.48-0.328 0.783c0 0.304 0.109 0.565 0.328 0.783s0.48 0.328 0.783 0.328z"></path>
</svg>
