<!-- Generated by IcoMoon.io -->
<svg version="1.1" xmlns="http://www.w3.org/2000/svg" width="32" height="32" viewBox="0 0 32 32">
<path fill="#71717a" d="M18.133 14.56h-1.467v-5.76h2.933c0.389 0 0.762 0.152 1.037 0.422s0.43 0.636 0.43 1.018c0 0.382 0.155 0.748 0.43 1.018s0.648 0.422 1.037 0.422c0.389 0 0.762-0.152 1.037-0.422s0.43-0.636 0.43-1.018c0-1.146-0.464-2.245-1.289-3.055s-1.944-1.265-3.111-1.265h-2.933v-2.88c0-0.382-0.155-0.748-0.43-1.018s-0.648-0.422-1.037-0.422c-0.389 0-0.762 0.152-1.037 0.422s-0.43 0.636-0.43 1.018v2.88h-1.467c-1.556 0-3.048 0.607-4.148 1.687s-1.718 2.545-1.718 4.073c0 1.528 0.618 2.993 1.718 4.073s2.592 1.687 4.148 1.687h1.467v5.76h-2.933c-0.389 0-0.762-0.152-1.037-0.422s-0.43-0.636-0.43-1.018-0.155-0.748-0.43-1.018-0.648-0.422-1.037-0.422-0.762 0.152-1.037 0.422c-0.275 0.27-0.43 0.636-0.43 1.018 0 1.146 0.464 2.245 1.289 3.055s1.944 1.265 3.111 1.265h2.933v2.88c0 0.382 0.155 0.748 0.43 1.018s0.648 0.422 1.037 0.422c0.389 0 0.762-0.152 1.037-0.422s0.43-0.636 0.43-1.018v-2.88h1.467c1.556 0 3.048-0.607 4.148-1.687s1.718-2.545 1.718-4.073-0.618-2.993-1.718-4.073c-1.1-1.080-2.593-1.687-4.148-1.687zM13.733 14.56h-1.467c-0.778 0-1.524-0.303-2.074-0.843s-0.859-1.273-0.859-2.037 0.309-1.496 0.859-2.036c0.55-0.54 1.296-0.844 2.074-0.844h1.467v5.76zM18.133 23.2h-1.467v-5.76h1.467c0.778 0 1.524 0.303 2.074 0.844s0.859 1.273 0.859 2.036-0.309 1.496-0.859 2.037c-0.55 0.54-1.296 0.843-2.074 0.843z"></path>
</svg>
