<!-- Generated by IcoMoon.io -->
<svg version="1.1" xmlns="http://www.w3.org/2000/svg" width="32" height="32" viewBox="0 0 32 32">
<path d="M4.8 28.8v-22.857c0-0.754 0.269-1.4 0.806-1.937s1.184-0.806 1.938-0.806h16.466c0.755 0 1.399 0.269 1.932 0.806s0.8 1.183 0.8 1.937v22.857h-21.943zM7.543 26.057h16.457v-20.114h-16.457v20.114zM21.257 17.829c0.508 0 0.94-0.178 1.295-0.533s0.533-0.787 0.533-1.295c0-0.508-0.178-0.94-0.533-1.295s-0.787-0.533-1.295-0.533c-0.508 0-0.94 0.178-1.295 0.533s-0.533 0.787-0.533 1.295c0 0.508 0.178 0.94 0.533 1.295s0.787 0.533 1.295 0.533z"></path>
</svg>
