<!-- Generated by IcoMoon.io -->
<svg version="1.1" xmlns="http://www.w3.org/2000/svg" width="32" height="32" viewBox="0 0 32 32">
<path d="M28.533 25.867h-22.933v-20.8c0-0.147-0.12-0.267-0.267-0.267h-1.867c-0.147 0-0.267 0.12-0.267 0.267v22.933c0 0.147 0.12 0.267 0.267 0.267h25.067c0.147 0 0.267-0.12 0.267-0.267v-1.867c0-0.147-0.12-0.267-0.267-0.267zM8.533 19.6c0 0.566 0.225 1.108 0.625 1.508s0.943 0.625 1.508 0.625 1.108-0.225 1.508-0.625c0.4-0.4 0.625-0.943 0.625-1.508s-0.225-1.108-0.625-1.508c-0.4-0.4-0.943-0.625-1.508-0.625s-1.108 0.225-1.508 0.625c-0.4 0.4-0.625 0.943-0.625 1.508zM12.467 12.133c0 0.424 0.169 0.831 0.469 1.131s0.707 0.469 1.131 0.469c0.424 0 0.831-0.169 1.131-0.469s0.469-0.707 0.469-1.131c0-0.424-0.169-0.831-0.469-1.131s-0.707-0.469-1.131-0.469c-0.424 0-0.831 0.169-1.131 0.469s-0.469 0.707-0.469 1.131v0zM17.733 19.733c0 0.849 0.337 1.663 0.937 2.263s1.414 0.937 2.263 0.937c0.849 0 1.663-0.337 2.263-0.937s0.937-1.414 0.937-2.263c0-0.849-0.337-1.663-0.937-2.263s-1.414-0.937-2.263-0.937c-0.849 0-1.663 0.337-2.263 0.937s-0.937 1.414-0.937 2.263v0zM22.667 9.267c0 0.495 0.197 0.97 0.547 1.32s0.825 0.547 1.32 0.547c0.495 0 0.97-0.197 1.32-0.547s0.547-0.825 0.547-1.32c0-0.495-0.197-0.97-0.547-1.32s-0.825-0.547-1.32-0.547c-0.495 0-0.97 0.197-1.32 0.547s-0.547 0.825-0.547 1.32v0z"></path>
</svg>
