<!-- Generated by IcoMoon.io -->
<svg version="1.1" xmlns="http://www.w3.org/2000/svg" width="32" height="32" viewBox="0 0 32 32">
<path d="M6.579 16l9.651-12.331c0.149-0.189 0.015-0.469-0.229-0.469h-2.811c-0.178 0-0.349 0.084-0.458 0.222l-9.284 11.862c-0.161 0.205-0.248 0.458-0.248 0.718s0.087 0.513 0.248 0.718l9.284 11.858c0.109 0.142 0.28 0.222 0.458 0.222h2.811c0.244 0 0.378-0.28 0.229-0.469l-9.651-12.331zM17.634 16l9.651-12.331c0.149-0.189 0.015-0.469-0.229-0.469h-2.811c-0.178 0-0.349 0.084-0.458 0.222l-9.284 11.862c-0.161 0.205-0.248 0.458-0.248 0.718s0.087 0.513 0.248 0.718l9.284 11.858c0.109 0.142 0.28 0.222 0.458 0.222h2.811c0.244 0 0.378-0.28 0.229-0.469l-9.651-12.331z"></path>
</svg>
