<!-- Generated by IcoMoon.io -->
<svg version="1.1" xmlns="http://www.w3.org/2000/svg" width="32" height="32" viewBox="0 0 32 32">
<path d="M15.792 20.694c0.102 0.141 0.31 0.141 0.413 0l5.696-7.872c0.122-0.17 0-0.406-0.208-0.406h-1.501c-0.326 0-0.637 0.157-0.829 0.422l-3.363 4.653-3.366-4.653c-0.192-0.266-0.499-0.422-0.829-0.422h-1.501c-0.208 0-0.33 0.237-0.208 0.406l5.696 7.872z"></path>
<path d="M27.776 3.2h-23.552c-0.566 0-1.024 0.458-1.024 1.024v23.552c0 0.566 0.458 1.024 1.024 1.024h23.552c0.566 0 1.024-0.458 1.024-1.024v-23.552c0-0.566-0.458-1.024-1.024-1.024zM26.496 26.496h-20.992v-20.992h20.992v20.992z"></path>
</svg>
