<!-- Generated by IcoMoon.io -->
<svg version="1.1" xmlns="http://www.w3.org/2000/svg" width="32" height="32" viewBox="0 0 32 32">
<title>drag</title>
<path d="M28.714 15.819l-4.083-3.222c-0.034-0.027-0.075-0.044-0.119-0.048s-0.087 0.003-0.126 0.022c-0.039 0.019-0.072 0.049-0.095 0.086s-0.035 0.079-0.035 0.123v2.070h-7.104v-7.104h2.074c0.192 0 0.301-0.224 0.182-0.374l-3.225-4.083c-0.021-0.028-0.049-0.050-0.080-0.065s-0.066-0.023-0.101-0.023c-0.035 0-0.069 0.008-0.101 0.023s-0.059 0.038-0.080 0.065l-3.225 4.083c-0.027 0.034-0.044 0.075-0.048 0.118s0.003 0.087 0.022 0.126c0.019 0.039 0.049 0.072 0.086 0.095s0.079 0.035 0.123 0.035h2.070v7.104h-7.104v-2.073c0-0.192-0.224-0.301-0.374-0.182l-4.083 3.225c-0.028 0.021-0.050 0.049-0.065 0.080s-0.023 0.066-0.023 0.101c0 0.035 0.008 0.069 0.023 0.101s0.038 0.059 0.065 0.080l4.080 3.225c0.15 0.118 0.374 0.013 0.374-0.182v-2.070h7.104v7.104h-2.073c-0.192 0-0.301 0.224-0.182 0.374l3.225 4.080c0.093 0.118 0.272 0.118 0.362 0l3.225-4.080c0.118-0.15 0.013-0.374-0.182-0.374h-2.067v-7.104h7.104v2.073c0 0.192 0.224 0.301 0.374 0.182l4.080-3.225c0.028-0.022 0.050-0.049 0.065-0.081s0.024-0.066 0.024-0.101c0-0.035-0.007-0.070-0.022-0.101s-0.037-0.060-0.064-0.082v0z"></path>
</svg>
