<!-- Generated by IcoMoon.io -->
<svg version="1.1" xmlns="http://www.w3.org/2000/svg" width="32" height="32" viewBox="0 0 32 32">
<path d="M16 3.2c-7.058 0-12.8 5.742-12.8 12.8s5.742 12.8 12.8 12.8c7.058 0 12.8-5.742 12.8-12.8s-5.742-12.8-12.8-12.8zM24.465 9.102c1.523 1.862 2.446 4.231 2.468 6.812-0.36-0.077-3.975-0.809-7.612-0.351-0.077-0.188-0.154-0.375-0.234-0.563-0.228-0.532-0.471-1.065-0.726-1.585 4.040-1.652 5.874-4 6.105-4.314zM16 5.083c2.778 0 5.317 1.043 7.246 2.754-0.197 0.28-1.843 2.492-5.729 3.951-1.791-3.292-3.775-5.994-4.080-6.4 0.84-0.203 1.698-0.305 2.563-0.305v0zM11.351 6.123c0.289 0.394 2.243 3.105 4.052 6.323-5.114 1.357-9.618 1.338-10.108 1.332 0.711-3.394 2.997-6.212 6.055-7.655zM5.068 16.015c0-0.111 0.003-0.225 0.006-0.335 0.477 0.009 5.775 0.077 11.237-1.557 0.314 0.612 0.612 1.234 0.886 1.855-0.145 0.040-0.289 0.083-0.431 0.129-5.64 1.828-8.64 6.797-8.889 7.218-1.745-1.938-2.809-4.501-2.809-7.311zM16 26.948c-2.529 0-4.858-0.862-6.711-2.308 0.197-0.403 2.409-4.677 8.575-6.828l0.071-0.025c1.535 3.988 2.169 7.332 2.332 8.292-1.349 0.576-2.801 0.872-4.268 0.868v0zM22.108 25.080c-0.111-0.665-0.692-3.865-2.123-7.794 3.428-0.548 6.437 0.351 6.809 0.468-0.486 3.040-2.231 5.668-4.686 7.326v0z"></path>
</svg>
