<!-- Generated by IcoMoon.io -->
<svg version="1.1" xmlns="http://www.w3.org/2000/svg" width="32" height="32" viewBox="0 0 32 32">
<path d="M20.5 27.5c0-0.1-0.1-0.3-0.1-0.4-0.7-1.8-2.4-3-4.4-3-0.3 0-0.7 0-1 0.1l3.3 3.3h2.2zM11.5 27.5h4.9l-2.7-2.7c-1.1 0.6-1.8 1.5-2.2 2.7z"></path>
<path d="M21.9 27.5h2.9v-3.4c0-1.9-1.5-3.4-3.4-3.4h-9.8l2.4 2.4c0.6-0.2 1.3-0.4 2-0.4 2.5 0 4.7 1.5 5.6 3.8 0.2 0.4 0.2 0.7 0.3 1zM12.7 23.8l-2.9-2.9c-1.5 0.4-2.5 1.7-2.5 3.3v3.4h2.9c0.3-1.6 1.2-3 2.5-3.8zM22.1 8.5c0-2.3-2.7-4-6.1-4s-6.1 1.8-6.1 4c0 0.5 0.2 1 0.4 1.3h11.4c0.2-0.3 0.4-0.7 0.4-1.3zM11.3 13.4v1.2c0 2.6 2.1 4.8 4.7 4.8s4.7-2.2 4.7-4.8v-1.2c-1.1 0.7-2.7 1.2-4.7 1.2s-3.6-0.4-4.7-1.2zM11.3 11.2c0 1.1 2.1 2 4.7 2s4.7-0.9 4.7-2h-9.4z"></path>
</svg>
