<!-- Generated by IcoMoon.io -->
<svg version="1.1" xmlns="http://www.w3.org/2000/svg" width="32" height="32" viewBox="0 0 32 32">
<path d="M25.6 3.2h-15.314c-0.126 0-0.229 0.103-0.229 0.229v1.6c0 0.126 0.103 0.229 0.229 0.229h14.171v19.657c0 0.126 0.103 0.229 0.229 0.229h1.6c0.126 0 0.228-0.103 0.228-0.229v-20.8c0-0.506-0.408-0.914-0.914-0.914zM21.943 6.857h-14.629c-0.506 0-0.914 0.409-0.914 0.914v15.163c0 0.243 0.097 0.474 0.269 0.646l4.951 4.951c0.063 0.063 0.134 0.114 0.211 0.157v0.054h0.12c0.1 0.037 0.206 0.057 0.314 0.057h9.677c0.506 0 0.914-0.409 0.914-0.914v-20.114c0-0.506-0.408-0.914-0.914-0.914zM11.829 25.834l-2.46-2.463h2.46v2.463zM20.8 26.743h-7.143v-4.057c0-0.632-0.511-1.143-1.143-1.143h-4.057v-12.629h12.343v17.829z"></path>
</svg>
