<!-- Generated by IcoMoon.io -->
<svg version="1.1" xmlns="http://www.w3.org/2000/svg" width="32" height="32" viewBox="0 0 32 32">
<path d="M3.2 16.533c0 0.28 0.055 0.558 0.162 0.816s0.264 0.494 0.462 0.692c0.198 0.198 0.433 0.355 0.692 0.463s0.536 0.162 0.816 0.162c0.28 0 0.558-0.055 0.816-0.162s0.494-0.264 0.692-0.463c0.198-0.198 0.355-0.433 0.462-0.692s0.162-0.536 0.162-0.816-0.055-0.557-0.162-0.816c-0.107-0.259-0.264-0.494-0.462-0.692s-0.433-0.355-0.692-0.462c-0.259-0.107-0.536-0.162-0.816-0.162s-0.558 0.055-0.816 0.162c-0.259 0.107-0.494 0.264-0.692 0.462s-0.355 0.433-0.462 0.692c-0.107 0.259-0.162 0.536-0.162 0.816v0zM13.867 16.533c0 0.566 0.225 1.108 0.625 1.508s0.943 0.625 1.508 0.625c0.566 0 1.108-0.225 1.508-0.625s0.625-0.943 0.625-1.508c0-0.566-0.225-1.108-0.625-1.508s-0.943-0.625-1.508-0.625c-0.566 0-1.108 0.225-1.508 0.625s-0.625 0.943-0.625 1.508v0zM24.533 16.533c0 0.566 0.225 1.108 0.625 1.508s0.943 0.625 1.508 0.625c0.566 0 1.108-0.225 1.508-0.625s0.625-0.943 0.625-1.508c0-0.566-0.225-1.108-0.625-1.508s-0.943-0.625-1.508-0.625c-0.566 0-1.108 0.225-1.508 0.625s-0.625 0.943-0.625 1.508v0z"></path>
</svg>
