<!-- Generated by IcoMoon.io -->
<svg version="1.1" xmlns="http://www.w3.org/2000/svg" width="32" height="32" viewBox="0 0 32 32">
<path d="M15.7 25.433l5.533-10.8c0.111-0.222 0.1-0.439-0.033-0.65s-0.322-0.317-0.567-0.317h-3.567v-6.967c0-0.178-0.083-0.283-0.25-0.317s-0.294 0.028-0.383 0.183l-5.533 10.8c-0.111 0.222-0.1 0.439 0.033 0.65s0.322 0.317 0.567 0.317h3.567v6.967c0 0.178 0.083 0.283 0.25 0.317s0.294-0.028 0.383-0.183zM16 29.333c-1.844 0-3.578-0.35-5.2-1.050s-3.033-1.65-4.233-2.85c-1.2-1.2-2.15-2.611-2.85-4.233s-1.050-3.356-1.050-5.2c0-1.844 0.35-3.578 1.050-5.2s1.65-3.033 2.85-4.233c1.2-1.2 2.611-2.15 4.233-2.85s3.356-1.050 5.2-1.050c1.844 0 3.578 0.35 5.2 1.050s3.033 1.65 4.233 2.85c1.2 1.2 2.15 2.611 2.85 4.233s1.050 3.356 1.050 5.2c0 1.844-0.35 3.578-1.050 5.2s-1.65 3.033-2.85 4.233c-1.2 1.2-2.611 2.15-4.233 2.85s-3.356 1.050-5.2 1.050zM16 26.667c2.956 0 5.472-1.039 7.55-3.117s3.117-4.594 3.117-7.55c0-2.956-1.039-5.472-3.117-7.55s-4.594-3.117-7.55-3.117c-2.956 0-5.472 1.039-7.55 3.117s-3.117 4.594-3.117 7.55c0 2.956 1.039 5.472 3.117 7.55s4.594 3.117 7.55 3.117z"></path>
</svg>
