<!-- Generated by IcoMoon.io -->
<svg version="1.1" xmlns="http://www.w3.org/2000/svg" width="32" height="32" viewBox="0 0 32 32">
<path d="M16 3.2c-7.069 0-12.8 5.731-12.8 12.8s5.731 12.8 12.8 12.8c7.069 0 12.8-5.731 12.8-12.8s-5.731-12.8-12.8-12.8zM16 26.629c-5.869 0-10.629-4.76-10.629-10.629s4.76-10.629 10.629-10.629c5.869 0 10.629 4.76 10.629 10.629s-4.76 10.629-10.629 10.629zM19.363 9.811c-0.454-0.1-0.983-0.154-1.58-0.154-3.049 0-5.111 1.591-5.674 4.283h-0.909c-0.126 0-0.229 0.103-0.229 0.229v0.777c0 0.126 0.103 0.229 0.229 0.229h0.754c-0.009 0.117-0.009 0.24-0.009 0.366v1.054h-0.746c-0.126 0-0.229 0.103-0.229 0.229v0.777c0 0.126 0.103 0.229 0.229 0.229h0.863c0.491 2.834 2.583 4.514 5.72 4.514 0.597 0 1.126-0.049 1.58-0.146 0.106-0.023 0.183-0.114 0.183-0.223v-1.223c0-0.143-0.132-0.251-0.272-0.223-0.42 0.080-0.911 0.117-1.48 0.117-1.957 0-3.271-1.046-3.709-2.817h3.731c0.126 0 0.229-0.103 0.229-0.229v-0.777c0-0.126-0.103-0.229-0.229-0.229h-3.897v-1.029c0-0.134 0-0.269 0.009-0.394h3.883c0.126 0 0.229-0.103 0.229-0.229v-0.777c0-0.126-0.103-0.229-0.229-0.229h-3.666c0.491-1.626 1.78-2.583 3.646-2.583 0.569 0 1.060 0.043 1.477 0.126 0.033 0.007 0.067 0.006 0.1-0.002s0.063-0.023 0.090-0.045 0.047-0.048 0.062-0.079c0.015-0.030 0.022-0.064 0.022-0.098v-1.223c0-0.109-0.074-0.2-0.18-0.223v0z"></path>
</svg>
