<!-- Generated by IcoMoon.io -->
<svg version="1.1" xmlns="http://www.w3.org/2000/svg" width="32" height="32" viewBox="0 0 32 32">
<path d="M21.005 10.128v-1.409c0-0.129-0.106-0.235-0.235-0.235h-11.273c-0.129 0-0.235 0.106-0.235 0.235v1.409c0 0.129 0.106 0.235 0.235 0.235h11.273c0.129 0 0.235-0.106 0.235-0.235zM9.497 12.712c-0.129 0-0.235 0.106-0.235 0.235v1.409c0 0.129 0.106 0.235 0.235 0.235h5.402c0.129 0 0.235-0.106 0.235-0.235v-1.409c0-0.129-0.106-0.235-0.235-0.235h-5.402zM20.536 16.117c-3.502 0-6.341 2.839-6.341 6.341s2.839 6.341 6.341 6.341c3.502 0 6.341-2.839 6.341-6.341s-2.839-6.341-6.341-6.341zM23.692 25.615c-0.843 0.843-1.964 1.306-3.156 1.306s-2.313-0.464-3.156-1.306-1.306-1.964-1.306-3.156c0-1.192 0.464-2.313 1.306-3.156s1.964-1.306 3.156-1.306c1.192 0 2.313 0.464 3.156 1.306s1.307 1.964 1.307 3.156c0 1.192-0.464 2.313-1.307 3.156zM19.596 24.807c0 0.249 0.099 0.488 0.275 0.664s0.415 0.275 0.664 0.275c0.249 0 0.488-0.099 0.664-0.275s0.275-0.415 0.275-0.664-0.099-0.488-0.275-0.664c-0.176-0.176-0.415-0.275-0.664-0.275s-0.488 0.099-0.664 0.275-0.275 0.415-0.275 0.664zM19.949 22.928h1.174c0.129 0 0.235-0.106 0.235-0.235v-3.288c0-0.129-0.106-0.235-0.235-0.235h-1.174c-0.129 0-0.235 0.106-0.235 0.235v3.288c0 0.129 0.106 0.235 0.235 0.235zM13.725 25.982h-6.811v-20.668h16.44v10.099c0 0.129 0.106 0.235 0.235 0.235h1.644c0.129 0 0.235-0.106 0.235-0.235v-11.273c0-0.52-0.42-0.939-0.939-0.939h-18.789c-0.52 0-0.939 0.42-0.939 0.939v23.017c0 0.52 0.42 0.939 0.939 0.939h7.985c0.129 0 0.235-0.106 0.235-0.235v-1.644c0-0.129-0.106-0.235-0.235-0.235z"></path>
</svg>
