<!-- Generated by IcoMoon.io -->
<svg version="1.1" xmlns="http://www.w3.org/2000/svg" width="32" height="32" viewBox="0 0 32 32">
<path d="M28.474 3.203l-6.881 0.855c-0.24 0.029-0.338 0.32-0.171 0.491l1.989 1.989-5.582 5.582c-0.054 0.055-0.084 0.129-0.084 0.205s0.030 0.151 0.084 0.206l1.64 1.64c0.113 0.113 0.298 0.113 0.411 0l5.586-5.586 1.989 1.989c0.038 0.038 0.087 0.065 0.14 0.077s0.108 0.009 0.159-0.009c0.051-0.018 0.096-0.050 0.13-0.092s0.055-0.093 0.062-0.147l0.851-6.877c0.006-0.044 0.002-0.089-0.012-0.131s-0.038-0.080-0.069-0.112-0.069-0.055-0.112-0.069c-0.042-0.014-0.087-0.018-0.131-0.012v0zM12.53 17.83c-0.055-0.054-0.129-0.084-0.206-0.084s-0.151 0.030-0.205 0.084l-5.582 5.586-1.989-1.989c-0.038-0.038-0.087-0.065-0.14-0.077s-0.108-0.009-0.159 0.009c-0.051 0.018-0.096 0.050-0.13 0.092s-0.055 0.093-0.062 0.147l-0.855 6.877c-0.022 0.189 0.135 0.346 0.324 0.324l6.881-0.855c0.24-0.029 0.338-0.32 0.171-0.491l-1.989-1.989 5.586-5.586c0.113-0.113 0.113-0.298 0-0.411l-1.644-1.636z"></path>
</svg>
