<!-- Generated by IcoMoon.io -->
<svg version="1.1" xmlns="http://www.w3.org/2000/svg" width="32" height="32" viewBox="0 0 32 32">
<path d="M16.652 14.755c0 0.339 0.135 0.663 0.374 0.903s0.564 0.374 0.903 0.374c0.339 0 0.663-0.135 0.903-0.374s0.374-0.564 0.374-0.903-0.135-0.663-0.374-0.903c-0.24-0.239-0.564-0.374-0.903-0.374s-0.663 0.135-0.903 0.374c-0.239 0.239-0.374 0.564-0.374 0.903zM28.367 26.020l-5.832-15.095v-5.554h2.289v-2.171h-16.343v2.171h2.289v5.554l-5.832 15.095c-0.089 0.236-0.137 0.485-0.137 0.737 0 1.127 0.916 2.043 2.043 2.043h19.618c0.252 0 0.501-0.048 0.737-0.137 1.053-0.405 1.577-1.59 1.168-2.643v0zM12.94 11.33v-5.896h7.425v5.896l2.901 7.511c-0.661-0.169-1.344-0.255-2.040-0.255-1.953 0-3.805 0.686-5.276 1.915-1.086 0.907-2.457 1.403-3.872 1.401-1.044 0-2.046-0.265-2.93-0.756l3.792-9.816zM7.028 26.629l1.331-3.441c1.14 0.578 2.407 0.887 3.722 0.887 1.954 0 3.805-0.686 5.276-1.915 1.082-0.9 2.436-1.401 3.872-1.401 1.117 0 2.183 0.303 3.116 0.865l1.931 5.005h-19.248z"></path>
</svg>
