<!-- Generated by IcoMoon.io -->
<svg version="1.1" xmlns="http://www.w3.org/2000/svg" width="32" height="32" viewBox="0 0 32 32">
<path d="M28.091 23.805h-1.761c-0.137 0-0.252 0.115-0.252 0.252v2.023h-20.615v-20.618h20.618v2.023c0 0.138 0.115 0.252 0.252 0.252h1.761c0.137 0 0.252-0.111 0.252-0.252v-3.28c0-0.557-0.448-1.005-1.005-1.005h-23.136c-0.557 0-1.005 0.449-1.005 1.005v23.133c0 0.556 0.449 1.005 1.005 1.005h23.133c0.557 0 1.005-0.449 1.005-1.005v-3.28c0-0.141-0.115-0.252-0.252-0.252zM28.7 15.565l-4.645-3.667c-0.174-0.137-0.426-0.013-0.426 0.206v2.488h-10.28c-0.144 0-0.262 0.118-0.262 0.262v1.833c0 0.144 0.118 0.262 0.262 0.262h10.28v2.488c0 0.219 0.255 0.344 0.426 0.206l4.645-3.667c0.031-0.024 0.057-0.056 0.074-0.092s0.026-0.075 0.026-0.115-0.009-0.079-0.026-0.115c-0.017-0.036-0.043-0.067-0.074-0.092v0z"></path>
</svg>
