<!-- Generated by IcoMoon.io -->
<svg version="1.1" xmlns="http://www.w3.org/2000/svg" width="32" height="32" viewBox="0 0 32 32">
<path d="M28.63 15.536c-1.032-2.174-2.26-3.948-3.685-5.32l-1.494 1.494c1.218 1.164 2.279 2.687 3.197 4.584-2.443 5.056-5.91 7.457-10.649 7.457-1.422 0-2.732-0.219-3.93-0.657l-1.619 1.619c1.664 0.768 3.513 1.152 5.549 1.152 5.643 0 9.853-2.939 12.63-8.817 0.112-0.236 0.17-0.495 0.17-0.756s-0.058-0.52-0.17-0.756v0zM26.764 6.122l-1.252-1.253c-0.022-0.022-0.048-0.039-0.076-0.051s-0.059-0.018-0.090-0.018-0.061 0.006-0.090 0.018c-0.028 0.012-0.054 0.029-0.076 0.051l-3.211 3.21c-1.77-0.904-3.76-1.356-5.969-1.356-5.643 0-9.853 2.939-12.63 8.817-0.112 0.236-0.17 0.495-0.17 0.756s0.058 0.52 0.17 0.756c1.11 2.337 2.445 4.21 4.008 5.62l-3.107 3.106c-0.044 0.044-0.069 0.104-0.069 0.166s0.025 0.122 0.069 0.166l1.253 1.253c0.044 0.044 0.104 0.069 0.166 0.069s0.122-0.025 0.166-0.069l20.908-20.907c0.022-0.022 0.039-0.048 0.051-0.076s0.018-0.059 0.018-0.090c0-0.031-0.006-0.061-0.018-0.090s-0.029-0.054-0.051-0.076zM5.351 16.293c2.446-5.056 5.913-7.457 10.649-7.457 1.601 0 3.057 0.275 4.378 0.834l-2.064 2.064c-0.977-0.522-2.097-0.715-3.192-0.552s-2.11 0.674-2.894 1.457c-0.783 0.783-1.294 1.798-1.457 2.894s0.031 2.215 0.552 3.193l-2.449 2.449c-1.356-1.196-2.524-2.817-3.522-4.881zM12.594 16.293c0.001-0.518 0.123-1.028 0.358-1.489s0.575-0.861 0.993-1.166c0.418-0.305 0.902-0.507 1.414-0.59s1.034-0.044 1.528 0.113l-4.137 4.136c-0.104-0.324-0.156-0.663-0.156-1.004v0z"></path>
<path d="M15.858 20.004c-0.124 0-0.245-0.006-0.366-0.017l-1.886 1.886c1.135 0.435 2.371 0.531 3.559 0.278s2.278-0.845 3.137-1.704c0.859-0.859 1.451-1.949 1.704-3.137s0.156-2.424-0.278-3.559l-1.887 1.886c0.011 0.121 0.017 0.242 0.017 0.366 0 0.525-0.103 1.046-0.304 1.531s-0.496 0.927-0.867 1.298c-0.372 0.372-0.813 0.666-1.298 0.867s-1.006 0.304-1.531 0.304z"></path>
</svg>
