<!-- Generated by IcoMoon.io -->
<svg version="1.1" xmlns="http://www.w3.org/2000/svg" width="32" height="32" viewBox="0 0 32 32">
<path d="M27.776 3.2h-23.552c-0.566 0-1.024 0.458-1.024 1.024v23.552c0 0.566 0.458 1.024 1.024 1.024h23.552c0.566 0 1.024-0.458 1.024-1.024v-23.552c0-0.566-0.458-1.024-1.024-1.024zM26.752 26.752h-5.891v-7.866h3.328l0.499-3.862h-3.827v-2.467c0-1.12 0.31-1.882 1.914-1.882h2.045v-3.456c-0.355-0.048-1.568-0.154-2.982-0.154-2.95 0-4.97 1.802-4.97 5.107v2.848h-3.334v3.862h3.338v7.869h-11.622v-21.504h21.504v21.504z"></path>
</svg>
