<!-- Generated by IcoMoon.io -->
<svg version="1.1" xmlns="http://www.w3.org/2000/svg" width="32" height="32" viewBox="0 0 32 32">
<path d="M28.798 24.735l-0.742-6.159c-0.025-0.204-0.275-0.291-0.42-0.145l-1.833 1.837-8.388-8.385c-0.195-0.192-0.507-0.192-0.699 0l-3.148 3.144-8.555-8.555c-0.046-0.046-0.109-0.072-0.175-0.072s-0.128 0.026-0.175 0.072l-1.391 1.397c-0.046 0.046-0.072 0.109-0.072 0.175s0.026 0.128 0.072 0.175l9.946 9.952c0.192 0.195 0.507 0.195 0.699 0l3.147-3.144 6.991 6.987-1.833 1.833c-0.033 0.033-0.056 0.074-0.066 0.12s-0.008 0.092 0.007 0.136c0.015 0.044 0.042 0.082 0.078 0.112s0.080 0.048 0.125 0.053l6.159 0.742c0.158 0.022 0.294-0.114 0.272-0.275v0z"></path>
</svg>
