<!-- Generated by IcoMoon.io -->
<svg version="1.1" xmlns="http://www.w3.org/2000/svg" width="32" height="32" viewBox="0 0 32 32">
<path d="M26.247 15.538l-10.451-8.211c-0.389-0.305-0.96-0.029-0.96 0.462v16.422c0 0.491 0.571 0.767 0.96 0.462l10.451-8.211c0.070-0.055 0.127-0.125 0.166-0.205s0.059-0.168 0.059-0.257c0-0.089-0.020-0.177-0.059-0.257s-0.096-0.15-0.166-0.205zM14.611 15.538l-10.451-8.211c-0.389-0.305-0.96-0.029-0.96 0.462v16.418c0 0.491 0.571 0.767 0.96 0.462l10.451-8.211c0.149-0.116 0.225-0.291 0.225-0.462 0-0.167-0.076-0.342-0.225-0.458v0zM28.567 6.4h-1.862c-0.127 0-0.233 0.098-0.233 0.218v18.764c0 0.12 0.105 0.218 0.233 0.218h1.862c0.127 0 0.233-0.098 0.233-0.218v-18.764c0-0.12-0.105-0.218-0.233-0.218z"></path>
</svg>
