<!-- Generated by IcoMoon.io -->
<svg version="1.1" xmlns="http://www.w3.org/2000/svg" width="32" height="32" viewBox="0 0 32 32">
<path d="M16.204 7.327l-10.451 8.211c-0.070 0.055-0.127 0.125-0.166 0.205s-0.059 0.168-0.059 0.257c0 0.089 0.020 0.177 0.059 0.257s0.096 0.15 0.166 0.205l10.451 8.211c0.389 0.305 0.96 0.029 0.96-0.462v-16.422c0-0.491-0.571-0.767-0.96-0.462v0zM27.84 7.327l-10.451 8.211c-0.070 0.055-0.127 0.125-0.166 0.205s-0.059 0.168-0.059 0.257c0 0.089 0.020 0.177 0.059 0.257s0.096 0.15 0.166 0.205l10.451 8.211c0.389 0.305 0.96 0.029 0.96-0.462v-16.422c0-0.491-0.571-0.767-0.96-0.462zM5.295 6.4h-1.862c-0.127 0-0.233 0.098-0.233 0.218v18.764c0 0.12 0.105 0.218 0.233 0.218h1.862c0.127 0 0.233-0.098 0.233-0.218v-18.764c0-0.12-0.105-0.218-0.233-0.218z"></path>
</svg>
