<!-- Generated by IcoMoon.io -->
<svg version="1.1" xmlns="http://www.w3.org/2000/svg" width="32" height="32" viewBox="0 0 32 32">
<path d="M19.069 11.157h3.174v8.845h2.755v-13.323c0-0.153-0.126-0.279-0.279-0.279h-1.681c-0.129 0-0.244 0.091-0.268 0.22-0.091 0.422-0.241 0.778-0.45 1.078-0.243 0.345-0.555 0.635-0.917 0.851-0.359 0.216-0.767 0.366-1.221 0.45-0.363 0.066-0.732 0.105-1.116 0.108-0.073 0.001-0.144 0.031-0.195 0.083s-0.080 0.123-0.080 0.196v1.493c0 0.153 0.125 0.279 0.279 0.279zM28.521 21.851h-10.603c-0.153 0-0.279 0.125-0.279 0.279v1.674c0 0.153 0.126 0.279 0.279 0.279h10.603c0.153 0 0.279-0.126 0.279-0.279v-1.674c0-0.154-0.126-0.279-0.279-0.279zM13.625 8.273c-0.562-0.663-1.2-1.13-1.925-1.409-0.743-0.286-1.538-0.429-2.386-0.429-0.834 0-1.618 0.143-2.361 0.429-0.725 0.279-1.36 0.746-1.911 1.406-0.555 0.666-1.001 1.559-1.336 2.686-0.335 1.133-0.506 2.546-0.506 4.238 0 1.74 0.171 3.188 0.506 4.339 0.335 1.144 0.781 2.047 1.336 2.71 0.551 0.659 1.186 1.127 1.911 1.406 0.743 0.286 1.528 0.429 2.361 0.429 0.851 0 1.646-0.143 2.386-0.429 0.725-0.279 1.367-0.746 1.925-1.409 0.562-0.663 1.011-1.566 1.346-2.71 0.335-1.151 0.506-2.598 0.506-4.339 0-1.688-0.171-3.101-0.506-4.238-0.331-1.12-0.781-2.012-1.346-2.679v0zM12.596 17.052c-0.035 0.746-0.146 1.465-0.331 2.159-0.192 0.722-0.506 1.343-0.942 1.863-0.474 0.568-1.158 0.848-2.009 0.848-0.837 0-1.507-0.283-1.978-0.851-0.425-0.516-0.736-1.137-0.928-1.859-0.185-0.694-0.296-1.416-0.331-2.159-0.035-0.725-0.052-1.343-0.052-1.855 0-0.307 0.003-0.677 0.014-1.109 0.007-0.443 0.038-0.9 0.091-1.367 0.052-0.474 0.14-0.945 0.265-1.413 0.129-0.481 0.307-0.917 0.537-1.304 0.241-0.405 0.551-0.736 0.931-0.987 0.398-0.265 0.882-0.394 1.447-0.394 0.562 0 1.050 0.129 1.454 0.391 0.389 0.252 0.715 0.588 0.956 0.984 0.241 0.391 0.422 0.83 0.544 1.315 0.115 0.46 0.202 0.928 0.262 1.399 0.063 0.471 0.098 0.928 0.105 1.374 0.007 0.432 0.014 0.802 0.014 1.109 0.004 0.516-0.014 1.134-0.049 1.859z"></path>
</svg>
