<!-- Generated by IcoMoon.io -->
<svg version="1.1" xmlns="http://www.w3.org/2000/svg" width="32" height="32" viewBox="0 0 32 32">
<title>field-number</title>
<path d="M15.869 8.392h-2.067c-0.108 0-0.196 0.088-0.196 0.196v11.109h-0.186l-7.693-11.22c-0.036-0.052-0.098-0.085-0.16-0.085h-2.171c-0.108 0-0.196 0.088-0.196 0.196v15.151c0 0.108 0.088 0.196 0.196 0.196h2.047c0.108 0 0.196-0.088 0.196-0.196v-11.262h0.186l7.778 11.373c0.036 0.052 0.098 0.085 0.163 0.085h2.103c0.108 0 0.196-0.088 0.196-0.196v-15.151c0-0.108-0.088-0.196-0.196-0.196zM28.212 21.878h-9.927c-0.144 0-0.261 0.117-0.261 0.261v1.567c0 0.144 0.118 0.261 0.261 0.261h9.927c0.144 0 0.261-0.118 0.261-0.261v-1.567c0-0.144-0.118-0.261-0.261-0.261zM23.242 19.82c1.727 0 3.109-0.562 4.121-1.688 0.96-1.074 1.437-2.475 1.437-4.206 0-1.734-0.477-3.151-1.437-4.222-1.009-1.136-2.39-1.704-4.121-1.704-1.753 0-3.131 0.571-4.124 1.724-0.953 1.081-1.417 2.478-1.417 4.202 0 1.711 0.467 3.108 1.42 4.189 0.999 1.133 2.384 1.705 4.121 1.705v0zM20.908 11.21c0.552-0.673 1.316-1.009 2.332-1.009 1.028 0 1.789 0.313 2.318 0.95 0.536 0.663 0.813 1.587 0.813 2.772s-0.274 2.093-0.81 2.74c-0.539 0.633-1.306 0.953-2.322 0.953-1.019 0-1.796-0.336-2.332-0.993-0.532-0.656-0.8-1.544-0.8-2.697 0.003-1.169 0.268-2.057 0.8-2.717v0z"></path>
</svg>
