<!-- Generated by IcoMoon.io -->
<svg version="1.1" xmlns="http://www.w3.org/2000/svg" width="32" height="32" viewBox="0 0 32 32">
<title>field-string</title>
<path d="M27.606 16.2c0.067 0.025 0.14-0.010 0.166-0.077 0.006-0.013 0.006-0.029 0.006-0.045v-1.861c0-0.057-0.035-0.105-0.089-0.121-0.192-0.057-0.549-0.096-0.868-0.096-1.050 0-1.969 0.533-2.346 1.315v-0.913c0-0.14-0.115-0.255-0.255-0.255h-1.676c-0.14 0-0.255 0.115-0.255 0.255v8.599c0 0.14 0.115 0.255 0.255 0.255h1.749c0.14 0 0.255-0.115 0.255-0.255v-4.989c0-1.156 0.833-1.922 2.078-1.922 0.332 0.003 0.849 0.057 0.98 0.108zM10.465 14.908l-1.746-0.402c-1.954-0.453-2.799-1.111-2.799-2.257 0-1.424 1.248-2.346 3.093-2.346 1.685 0 2.918 0.846 3.189 2.199h2.234c-0.227-2.423-2.407-4.102-5.414-4.102-3.297 0-5.458 1.772-5.458 4.437 0 2.19 1.232 3.495 3.901 4.102l1.966 0.456c2.030 0.476 2.924 1.184 2.924 2.397 0 1.408-1.389 2.4-3.272 2.4-1.934 0-3.336-0.868-3.601-2.25h-2.282c0.23 2.55 2.413 4.162 5.717 4.162 3.581 0 5.774-1.781 5.774-4.651 0-2.241-1.232-3.463-4.226-4.146zM26.502 23.003c0 0.305 0.121 0.597 0.336 0.812s0.508 0.337 0.813 0.337 0.597-0.121 0.812-0.337c0.216-0.216 0.337-0.508 0.337-0.812s-0.121-0.597-0.337-0.813c-0.215-0.216-0.508-0.336-0.812-0.336s-0.597 0.121-0.813 0.336c-0.215 0.216-0.336 0.508-0.336 0.813zM20.501 14.346h-1.641v-1.973c0-0.14-0.115-0.255-0.255-0.255h-1.746c-0.14 0-0.255 0.115-0.255 0.255v1.973h-1.146c-0.14 0-0.255 0.115-0.255 0.255v1.35c0 0.14 0.115 0.255 0.255 0.255h1.146v4.708c0 1.794 0.875 2.535 2.972 2.535 0.373 0 0.753-0.038 1.079-0.099 0.061-0.010 0.102-0.064 0.102-0.124v-1.574c0-0.070-0.057-0.128-0.128-0.128h-0.013c-0.156 0.016-0.198 0.019-0.265 0.025-0.131 0.010-0.249 0.016-0.402 0.016-0.769 0-1.088-0.329-1.088-1.136v-4.223h1.641c0.14 0 0.255-0.115 0.255-0.255v-1.35c0-0.14-0.115-0.255-0.255-0.255z"></path>
</svg>
