<!-- Generated by IcoMoon.io -->
<svg version="1.1" xmlns="http://www.w3.org/2000/svg" width="32" height="32" viewBox="0 0 32 32">
<path d="M26.246 9.617l-6.149-6.149c-0.171-0.171-0.403-0.269-0.646-0.269h-12.137c-0.506 0-0.914 0.409-0.914 0.914v23.771c0 0.506 0.409 0.914 0.914 0.914h18.286c0.506 0 0.914-0.409 0.914-0.914v-17.62c0-0.243-0.097-0.477-0.268-0.649zM24.406 10.686h-5.377v-5.377l5.377 5.377zM24.457 26.743h-16v-21.486h8.629v6.171c0 0.318 0.126 0.623 0.351 0.849s0.53 0.351 0.849 0.351h6.171v14.114zM14.086 15.12c-0.054-0.126-0.177-0.206-0.314-0.206h-1c-0.189 0-0.343 0.154-0.343 0.343v7.771c0 0.188 0.154 0.343 0.343 0.343h0.774c0.189 0 0.343-0.154 0.343-0.343v-5.026l1.909 4.291c0.027 0.061 0.071 0.112 0.127 0.148s0.121 0.055 0.187 0.055h0.689c0.134 0 0.257-0.080 0.314-0.203l1.909-4.303v5.037c0 0.188 0.154 0.343 0.343 0.343h0.777c0.188 0 0.343-0.154 0.343-0.343v-7.771c0-0.189-0.154-0.343-0.343-0.343h-0.992c-0.137 0-0.26 0.080-0.314 0.206l-2.374 5.457-2.377-5.457z"></path>
</svg>
