<!-- Generated by IcoMoon.io -->
<svg version="1.1" xmlns="http://www.w3.org/2000/svg" width="32" height="32" viewBox="0 0 32 32">
<title>file-search</title>
<path d="M21.005 10.128v-1.409c0-0.129-0.106-0.235-0.235-0.235h-11.273c-0.129 0-0.235 0.106-0.235 0.235v1.409c0 0.129 0.106 0.235 0.235 0.235h11.273c0.129 0 0.235-0.106 0.235-0.235zM9.497 12.712c-0.129 0-0.235 0.106-0.235 0.235v1.409c0 0.129 0.106 0.235 0.235 0.235h5.402c0.129 0 0.235-0.106 0.235-0.235v-1.409c0-0.129-0.106-0.235-0.235-0.235h-5.402zM13.725 25.982h-6.811v-20.668h16.44v10.099c0 0.129 0.106 0.235 0.235 0.235h1.644c0.129 0 0.235-0.106 0.235-0.235v-11.273c0-0.52-0.42-0.939-0.939-0.939h-18.789c-0.52 0-0.939 0.42-0.939 0.939v23.017c0 0.52 0.42 0.939 0.939 0.939h7.985c0.129 0 0.235-0.106 0.235-0.235v-1.644c0-0.129-0.106-0.235-0.235-0.235zM26.81 27.494l-2.739-2.739c0.655-0.866 1.045-1.947 1.045-3.118 0-2.854-2.313-5.167-5.167-5.167s-5.167 2.313-5.167 5.167c0 2.854 2.313 5.167 5.167 5.167 1.051 0 2.026-0.314 2.842-0.851l2.78 2.78c0.047 0.047 0.106 0.068 0.164 0.068s0.12-0.024 0.164-0.068l0.91-0.91c0.022-0.022 0.039-0.047 0.051-0.075s0.018-0.059 0.018-0.089-0.006-0.061-0.018-0.089c-0.012-0.028-0.029-0.054-0.051-0.075v0zM19.949 24.925c-1.817 0-3.288-1.471-3.288-3.288s1.471-3.288 3.288-3.288 3.288 1.471 3.288 3.288c0 1.817-1.471 3.288-3.288 3.288z"></path>
</svg>
