<!-- Generated by IcoMoon.io -->
<svg version="1.1" xmlns="http://www.w3.org/2000/svg" width="32" height="32" viewBox="0 0 32 32">
<path d="M26.246 9.617l-6.149-6.149c-0.171-0.171-0.403-0.269-0.646-0.269h-12.137c-0.506 0-0.914 0.409-0.914 0.914v23.771c0 0.506 0.409 0.914 0.914 0.914h18.286c0.506 0 0.914-0.409 0.914-0.914v-17.62c0-0.243-0.097-0.477-0.268-0.649zM24.406 10.686h-5.377v-5.377l5.377 5.377zM24.457 26.743h-16v-21.486h8.629v6.171c0 0.318 0.126 0.623 0.351 0.849s0.53 0.351 0.849 0.351h6.171v14.114zM15.314 22.629c0 0.303 0.12 0.594 0.335 0.808s0.505 0.335 0.808 0.335c0.303 0 0.594-0.12 0.808-0.335s0.335-0.505 0.335-0.808c0-0.303-0.12-0.594-0.335-0.808s-0.505-0.335-0.808-0.335c-0.303 0-0.594 0.12-0.808 0.335s-0.335 0.505-0.335 0.808zM15.771 19.657h1.371c0.126 0 0.228-0.103 0.228-0.228v-5.257c0-0.126-0.103-0.229-0.228-0.229h-1.371c-0.126 0-0.229 0.103-0.229 0.229v5.257c0 0.126 0.103 0.228 0.229 0.228z"></path>
</svg>
