<!-- Generated by IcoMoon.io -->
<svg version="1.1" xmlns="http://www.w3.org/2000/svg" width="32" height="32" viewBox="0 0 32 32">
<title>file-excel</title>
<path d="M26.246 9.617l-6.149-6.149c-0.171-0.171-0.403-0.269-0.646-0.269h-12.137c-0.506 0-0.914 0.409-0.914 0.914v23.771c0 0.506 0.409 0.914 0.914 0.914h18.286c0.506 0 0.914-0.409 0.914-0.914v-17.62c0-0.243-0.097-0.477-0.268-0.649zM24.406 10.686h-5.377v-5.377l5.377 5.377zM24.457 26.743h-16v-21.486h8.629v6.171c0 0.318 0.126 0.623 0.351 0.849s0.53 0.351 0.849 0.351h6.171v14.114zM16.517 17.946l-1.766-2.926c-0.063-0.103-0.174-0.166-0.294-0.166h-1.097c-0.066 0-0.129 0.017-0.183 0.054-0.16 0.1-0.209 0.311-0.106 0.474l2.351 3.726-2.383 3.794c-0.032 0.052-0.050 0.112-0.052 0.173s0.013 0.122 0.043 0.176 0.073 0.098 0.126 0.129c0.053 0.031 0.113 0.048 0.174 0.048h0.986c0.12 0 0.229-0.063 0.291-0.163l1.791-2.9 1.78 2.897c0.063 0.103 0.174 0.163 0.291 0.163h1.072c0.066 0 0.128-0.020 0.186-0.054 0.16-0.103 0.206-0.314 0.103-0.474l-2.4-3.726 2.437-3.786c0.033-0.052 0.051-0.112 0.053-0.173s-0.012-0.122-0.042-0.176c-0.029-0.054-0.073-0.099-0.126-0.131s-0.113-0.048-0.175-0.049h-1.020c-0.12 0-0.231 0.063-0.294 0.166l-1.749 2.923z"></path>
</svg>
