<!-- Generated by IcoMoon.io -->
<svg version="1.1" xmlns="http://www.w3.org/2000/svg" width="32" height="32" viewBox="0 0 32 32">
<path d="M25.065 10.745l-6.945-7.013c-0.112-0.112-0.235-0.208-0.368-0.288-0.035-0.020-0.070-0.040-0.108-0.058-0.022-0.013-0.048-0.022-0.070-0.033-0.225-0.1-0.472-0.155-0.725-0.155h-8.625c-0.995 0-1.825 0.805-1.825 1.8v22c0 0.995 0.83 1.8 1.825 1.8h15.575c0.995 0 1.775-0.805 1.775-1.8v-14.988c0-0.475-0.175-0.93-0.51-1.268zM17.775 5.96l5.020 5.040h-5.020v-5.040zM23.775 27h-15.575v-22h7.775v6c0 0.995 0.83 1.8 1.825 1.8h5.975v14.2zM11.95 20.612c0 0.605-0.188 0.785-0.547 0.785-0.225 0-0.46-0.145-0.62-0.462l-0.76 0.565c0.335 0.572 0.807 0.855 1.533 0.855 1.040 0 1.52-0.748 1.52-1.655v-3.075h-1.125v2.988zM15.732 17.625h-1.607v4.65h1.1v-1.55h0.54c0.978 0 1.827-0.49 1.827-1.59 0-1.145-0.837-1.51-1.86-1.51v0zM15.713 19.85h-0.488v-1.325h0.455c0.537 0 0.835 0.155 0.835 0.623 0 0.452-0.263 0.702-0.803 0.702zM20.275 19.625v0.9h0.75v0.752c-0.1 0.072-0.275 0.118-0.442 0.118-0.858 0-1.268-0.535-1.268-1.455 0-0.903 0.492-1.435 1.177-1.435 0.383 0 0.625 0.155 0.85 0.36l0.592-0.708c-0.318-0.32-0.803-0.605-1.48-0.605-1.24 0-2.278 0.883-2.278 2.425 0 1.568 1 2.378 2.288 2.378 0.648 0 1.23-0.255 1.538-0.565v-2.165h-1.728z"></path>
</svg>
