<!-- Generated by IcoMoon.io -->
<svg version="1.1" xmlns="http://www.w3.org/2000/svg" width="32" height="32" viewBox="0 0 32 32">
<title>file-sync</title>
<path d="M9.497 8.484c-0.129 0-0.235 0.106-0.235 0.235v1.409c0 0.129 0.106 0.235 0.235 0.235h11.273c0.129 0 0.235-0.106 0.235-0.235v-1.409c0-0.129-0.106-0.235-0.235-0.235h-11.273zM15.134 14.356v-1.409c0-0.129-0.106-0.235-0.235-0.235h-5.402c-0.129 0-0.235 0.106-0.235 0.235v1.409c0 0.129 0.106 0.235 0.235 0.235h5.402c0.129 0 0.235-0.106 0.235-0.235zM13.725 25.982h-6.811v-20.668h16.44v10.099c0 0.129 0.106 0.235 0.235 0.235h1.644c0.129 0 0.235-0.106 0.235-0.235v-11.273c0-0.52-0.42-0.939-0.939-0.939h-18.789c-0.52 0-0.939 0.42-0.939 0.939v23.017c0 0.52 0.42 0.939 0.939 0.939h7.985c0.129 0 0.235-0.106 0.235-0.235v-1.644c0-0.129-0.106-0.235-0.235-0.235zM16.781 22.588c0.053-1.013 0.476-1.961 1.198-2.683 0.769-0.769 1.82-1.204 2.909-1.204 1.098 0 2.132 0.429 2.909 1.204 0.094 0.094 0.185 0.194 0.27 0.296l-0.678 0.525c-0.035 0.027-0.061 0.064-0.077 0.105s-0.018 0.087-0.009 0.13c0.009 0.043 0.030 0.083 0.061 0.115s0.070 0.054 0.113 0.064l2.739 0.661c0.147 0.035 0.288-0.076 0.291-0.226l0.018-2.801c0-0.044-0.012-0.087-0.035-0.125s-0.056-0.068-0.096-0.088c-0.040-0.020-0.084-0.028-0.128-0.023s-0.086 0.021-0.12 0.048l-0.596 0.464c-1.098-1.359-2.78-2.228-4.662-2.228-3.226 0-5.86 2.551-5.989 5.745-0.006 0.132 0.103 0.244 0.235 0.244h1.412c0.126 0 0.229-0.097 0.235-0.223zM26.642 22.811h-1.412c-0.126 0-0.229 0.097-0.235 0.223-0.053 1.013-0.476 1.961-1.198 2.683-0.769 0.769-1.82 1.204-2.909 1.204-1.098 0-2.131-0.429-2.909-1.204-0.094-0.094-0.185-0.194-0.27-0.296l0.678-0.526c0.035-0.027 0.062-0.063 0.077-0.105s0.019-0.087 0.009-0.13c-0.009-0.043-0.030-0.083-0.061-0.115s-0.070-0.054-0.113-0.065l-2.739-0.66c-0.147-0.035-0.288 0.076-0.291 0.226l-0.018 2.801c0 0.044 0.012 0.088 0.035 0.125s0.056 0.068 0.096 0.088c0.040 0.020 0.084 0.028 0.128 0.023s0.086-0.021 0.121-0.048l0.596-0.464c1.098 1.359 2.78 2.228 4.662 2.228 3.227 0 5.86-2.551 5.989-5.745 0.006-0.132-0.103-0.244-0.235-0.244z"></path>
</svg>
