<!-- Generated by IcoMoon.io -->
<svg version="1.1" xmlns="http://www.w3.org/2000/svg" width="32" height="32" viewBox="0 0 32 32">
<title>file-gif</title>
<path d="M17.585 15.386h-0.871c-0.132 0-0.24 0.106-0.24 0.24v6.317c0 0.131 0.106 0.24 0.24 0.24h0.871c0.131 0 0.24-0.106 0.24-0.24v-6.317c-0.003-0.131-0.109-0.24-0.24-0.24zM15.465 18.514h-2.517c-0.131 0-0.24 0.106-0.24 0.24v0.68c0 0.132 0.106 0.24 0.24 0.24h1.36v0.020c-0.017 0.854-0.657 1.423-1.614 1.423-1.12 0-1.817-0.877-1.817-2.326 0-1.431 0.683-2.303 1.78-2.303 0.803 0 1.357 0.386 1.583 1.094l0.026 0.080h1.406l-0.020-0.132c-0.226-1.42-1.403-2.331-2.994-2.331-1.966 0-3.229 1.411-3.229 3.597 0 2.214 1.249 3.603 3.246 3.603 1.84 0 3.029-1.151 3.029-2.94v-0.709c0-0.131-0.106-0.237-0.237-0.237z"></path>
<path d="M26.246 9.617l-6.149-6.149c-0.171-0.171-0.403-0.269-0.646-0.269h-12.137c-0.506 0-0.914 0.409-0.914 0.914v23.771c0 0.506 0.409 0.914 0.914 0.914h18.286c0.506 0 0.914-0.409 0.914-0.914v-17.62c0-0.243-0.097-0.477-0.268-0.649zM19.029 5.309l5.377 5.377h-5.377v-5.377zM24.457 26.743h-16v-21.486h8.629v6.171c0 0.318 0.126 0.623 0.351 0.849s0.53 0.351 0.849 0.351h6.171v14.114z"></path>
<path d="M19.206 22.163h0.923c0.131 0 0.24-0.106 0.24-0.24v-2.423h2.509c0.131 0 0.24-0.106 0.24-0.24v-0.728c0-0.132-0.106-0.24-0.24-0.24h-2.509v-1.683h2.766c0.131 0 0.24-0.106 0.24-0.24v-0.766c0-0.131-0.106-0.24-0.24-0.24h-3.929c-0.131 0-0.24 0.106-0.24 0.24v6.317c0 0.137 0.109 0.243 0.24 0.243z"></path>
</svg>
