<!-- Generated by IcoMoon.io -->
<svg version="1.1" xmlns="http://www.w3.org/2000/svg" width="32" height="32" viewBox="0 0 32 32">
<title>file-text</title>
<path d="M26.922 9.617l-6.358-6.149c-0.177-0.171-0.417-0.269-0.668-0.269h-12.551c-0.523 0-0.945 0.409-0.945 0.914v23.771c0 0.506 0.423 0.914 0.945 0.914h18.909c0.523 0 0.945-0.409 0.945-0.914v-17.62c0-0.243-0.1-0.477-0.278-0.649zM25.020 10.686h-5.56v-5.377l5.56 5.377zM25.073 26.743h-16.546v-21.486h8.923v6.171c0 0.318 0.131 0.623 0.364 0.849s0.548 0.351 0.877 0.351h6.382v14.114zM16.564 19.029h-5.436c-0.13 0-0.236 0.103-0.236 0.228v1.372c0 0.126 0.106 0.228 0.236 0.228h5.436c0.13 0 0.236-0.103 0.236-0.228v-1.372c0-0.126-0.106-0.228-0.236-0.228zM10.891 15.371v1.371c0 0.126 0.106 0.228 0.236 0.228h11.346c0.13 0 0.236-0.103 0.236-0.228v-1.371c0-0.126-0.106-0.229-0.236-0.229h-11.346c-0.13 0-0.236 0.103-0.236 0.229z"></path>
</svg>
