<!-- Generated by IcoMoon.io -->
<svg version="1.1" xmlns="http://www.w3.org/2000/svg" width="32" height="32" viewBox="0 0 32 32">
<path d="M13.943 14.971c-0.126 0-0.229 0.103-0.229 0.229v7.886c0 0.126 0.103 0.228 0.229 0.228h0.929c0.126 0 0.229-0.103 0.229-0.228v-2.729h1.809c1.697 0 2.748-1.111 2.748-2.688 0-1.557-1.037-2.694-2.743-2.694l-2.971-0.003zM18.246 17.666c0 1.24-0.757 1.551-2.034 1.551h-1.111v-3.097h1.606c0.966 0 1.54 0.563 1.54 1.546v0zM26.246 9.617l-6.149-6.149c-0.171-0.171-0.403-0.269-0.646-0.269h-12.137c-0.506 0-0.914 0.409-0.914 0.914v23.771c0 0.506 0.409 0.914 0.914 0.914h18.286c0.506 0 0.914-0.409 0.914-0.914v-17.62c0-0.243-0.097-0.477-0.268-0.649v0zM24.406 10.686h-5.377v-5.377l5.377 5.377zM24.457 26.743h-16v-21.486h8.629v6.171c0 0.318 0.126 0.623 0.351 0.849s0.53 0.351 0.849 0.351h6.171v14.114z"></path>
</svg>
