<!-- Generated by IcoMoon.io -->
<svg version="1.1" xmlns="http://www.w3.org/2000/svg" width="32" height="32" viewBox="0 0 32 32">
<path d="M17.009 17.783l0.008-0.040c0.166-0.683 0.374-1.534 0.212-2.306-0.109-0.609-0.557-0.846-0.94-0.863-0.451-0.020-0.854 0.237-0.954 0.611-0.189 0.686-0.020 1.623 0.289 2.817-0.389 0.926-1.009 2.271-1.463 3.071-0.846 0.437-1.98 1.112-2.149 1.963-0.034 0.157 0.006 0.357 0.1 0.537 0.106 0.2 0.274 0.354 0.471 0.429 0.086 0.031 0.189 0.057 0.309 0.057 0.503 0 1.317-0.406 2.403-2.269 0.166-0.054 0.337-0.111 0.503-0.168 0.777-0.263 1.583-0.537 2.312-0.66 0.806 0.431 1.723 0.708 2.346 0.708 0.617 0 0.86-0.366 0.952-0.586 0.16-0.386 0.083-0.872-0.177-1.132-0.377-0.371-1.294-0.468-2.723-0.291-0.703-0.429-1.163-1.012-1.497-1.88zM13.874 22.123c-0.397 0.577-0.697 0.866-0.86 0.991 0.191-0.351 0.566-0.723 0.86-0.991zM16.377 15.394c0.149 0.254 0.129 1.023 0.014 1.411-0.14-0.569-0.16-1.374-0.077-1.469 0.023 0.003 0.043 0.020 0.063 0.057zM16.331 18.837c0.306 0.529 0.692 0.983 1.117 1.32-0.617 0.14-1.18 0.372-1.683 0.577-0.12 0.049-0.237 0.097-0.351 0.143 0.38-0.688 0.697-1.468 0.917-2.040v0zM20.777 20.709c0.003 0.006 0.006 0.014-0.011 0.026h-0.006l-0.006 0.009c-0.023 0.014-0.257 0.151-1.266-0.246 1.16-0.054 1.286 0.209 1.288 0.212v0zM26.246 9.617l-6.149-6.149c-0.171-0.171-0.403-0.269-0.646-0.269h-12.137c-0.506 0-0.914 0.409-0.914 0.914v23.771c0 0.506 0.409 0.914 0.914 0.914h18.286c0.506 0 0.914-0.409 0.914-0.914v-17.62c0-0.243-0.097-0.477-0.268-0.649v0zM24.406 10.686h-5.377v-5.377l5.377 5.377zM24.457 26.743h-16v-21.486h8.629v6.171c0 0.318 0.126 0.623 0.351 0.849s0.53 0.351 0.849 0.351h6.171v14.114z"></path>
</svg>
