<!-- Generated by IcoMoon.io -->
<svg version="1.1" xmlns="http://www.w3.org/2000/svg" width="32" height="32" viewBox="0 0 32 32">
<title>file-protect</title>
<path d="M19.734 20.615c-0.022-0.030-0.050-0.055-0.084-0.072s-0.070-0.025-0.107-0.025h-1.298c-0.191 0-0.302 0.217-0.191 0.373l2.167 2.997c0.094 0.129 0.285 0.129 0.379 0l3.353-4.639c0.112-0.156 0-0.373-0.191-0.373h-1.301c-0.076 0-0.147 0.035-0.191 0.097l-1.864 2.578-0.672-0.936zM21.005 9.952v-1.409c0-0.129-0.106-0.235-0.235-0.235h-11.273c-0.129 0-0.235 0.106-0.235 0.235v1.409c0 0.129 0.106 0.235 0.235 0.235h11.273c0.129 0 0.235-0.106 0.235-0.235zM9.497 12.536c-0.129 0-0.235 0.106-0.235 0.235v1.409c0 0.129 0.106 0.235 0.235 0.235h5.402c0.129 0 0.235-0.106 0.235-0.235v-1.409c0-0.129-0.106-0.235-0.235-0.235h-5.402zM14.899 25.982h-7.985v-20.668h16.44v8.69c0 0.129 0.106 0.235 0.235 0.235h1.644c0.129 0 0.235-0.106 0.235-0.235v-9.864c0-0.52-0.42-0.939-0.939-0.939h-18.789c-0.52 0-0.939 0.42-0.939 0.939v23.017c0 0.52 0.42 0.939 0.939 0.939h9.16c0.129 0 0.235-0.106 0.235-0.235v-1.644c0-0.129-0.106-0.235-0.235-0.235zM26.719 16.564l-5.637-1.958c-0.026-0.009-0.050-0.012-0.076-0.012s-0.053 0.003-0.076 0.012l-5.637 1.958c-0.046 0.016-0.086 0.045-0.114 0.085s-0.044 0.087-0.044 0.136v7.372c0 0.073 0.032 0.141 0.091 0.185l5.637 4.41c0.041 0.032 0.094 0.050 0.144 0.050s0.103-0.018 0.144-0.050l5.637-4.41c0.056-0.044 0.091-0.112 0.091-0.185v-7.372c0-0.1-0.065-0.188-0.159-0.22zM25.057 23.389l-4.052 3.168-4.051-3.168v-5.481l4.051-1.409 4.052 1.409v5.481z"></path>
</svg>
