<!-- Generated by IcoMoon.io -->
<svg version="1.1" xmlns="http://www.w3.org/2000/svg" width="32" height="32" viewBox="0 0 32 32">
<path d="M26.246 9.62l-6.149-6.151c-0.171-0.171-0.406-0.269-0.648-0.269h-12.134c-0.506 0-0.914 0.409-0.914 0.914v23.771c0 0.506 0.409 0.914 0.914 0.914h18.286c0.506 0 0.914-0.409 0.914-0.914v-17.62c0-0.243-0.097-0.474-0.268-0.646zM24.406 10.686h-5.377v-5.377l5.377 5.377zM24.457 26.743h-16v-21.486h8.629v6.171c0 0.318 0.126 0.623 0.351 0.849s0.53 0.351 0.849 0.351h6.171v14.114zM13.314 17.057c0 0.154 0.126 0.272 0.28 0.272h0.926c0.154 0 0.28-0.12 0.28-0.269 0-0.806 0.737-1.474 1.657-1.474s1.657 0.669 1.657 1.471c0 0.723-0.6 1.349-1.408 1.454-0.552 0.080-0.986 0.58-0.991 1.146v0.914c0 0.157 0.129 0.286 0.286 0.286h0.914c0.157 0 0.286-0.128 0.286-0.286v-0.348c0-0.172 0.114-0.329 0.277-0.38 1.274-0.412 2.143-1.543 2.123-2.826-0.023-1.586-1.406-2.88-3.1-2.903-1.754-0.020-3.186 1.303-3.186 2.943zM15.543 22.629c0 0.242 0.096 0.475 0.268 0.646s0.404 0.268 0.646 0.268c0.243 0 0.475-0.096 0.647-0.268s0.268-0.404 0.268-0.646c0-0.243-0.096-0.475-0.268-0.647s-0.404-0.268-0.647-0.268c-0.242 0-0.475 0.096-0.646 0.268s-0.268 0.404-0.268 0.647z"></path>
</svg>
