<!-- Generated by IcoMoon.io -->
<svg version="1.1" xmlns="http://www.w3.org/2000/svg" width="32" height="32" viewBox="0 0 32 32">
<path d="M26.080 10.4l-6.88-6.88c-0.16-0.16-0.48-0.32-0.96-0.32h-9.12c-0.96 0-1.92 0.32-2.56 1.12-0.64 0.64-1.12 1.6-1.12 2.56v18.24c0 0.96 0.32 1.92 1.12 2.56 0.64 0.64 1.6 1.12 2.56 1.12h13.6c0.96 0 1.92-0.32 2.56-1.12 0.64-0.64 1.12-1.6 1.12-2.56v-13.6c0.16-0.48 0-0.8-0.32-1.12zM19.52 7.36l2.88 2.88h-2.88v-2.88zM23.68 25.12c0 0.16-0.16 0.48-0.32 0.64s-0.32 0.32-0.64 0.32h-13.6c-0.16 0-0.48-0.16-0.64-0.32s-0.32-0.32-0.32-0.64v-18.24c0-0.16 0.16-0.48 0.32-0.64s0.32-0.32 0.64-0.32h7.68v5.44c0 0.8 0.64 1.44 1.44 1.44h5.44v12.32z"></path>
<path d="M11.2 19.36c0-0.8 0.64-1.44 1.44-1.44h6.88c0.8 0 1.44 0.64 1.44 1.44s-0.64 1.44-1.44 1.44h-6.88c-0.8 0-1.44-0.64-1.44-1.44z"></path>
</svg>
