<!-- Generated by IcoMoon.io -->
<svg version="1.1" xmlns="http://www.w3.org/2000/svg" width="32" height="32" viewBox="0 0 32 32">
<path d="M21.005 10.128v-1.409c0-0.129-0.106-0.235-0.235-0.235h-11.273c-0.129 0-0.235 0.106-0.235 0.235v1.409c0 0.129 0.106 0.235 0.235 0.235h11.273c0.129 0 0.235-0.106 0.235-0.235zM9.497 12.712c-0.129 0-0.235 0.106-0.235 0.235v1.409c0 0.129 0.106 0.235 0.235 0.235h5.402c0.129 0 0.235-0.106 0.235-0.235v-1.409c0-0.129-0.106-0.235-0.235-0.235h-5.402zM20.536 16.117c-3.502 0-6.341 2.839-6.341 6.341s2.839 6.341 6.341 6.341c3.502 0 6.341-2.839 6.341-6.341s-2.839-6.341-6.341-6.341zM23.692 25.615c-0.843 0.843-1.964 1.306-3.156 1.306s-2.313-0.464-3.156-1.306-1.306-1.964-1.306-3.156c0-1.192 0.464-2.313 1.306-3.156s1.964-1.306 3.156-1.306c1.192 0 2.313 0.464 3.156 1.306s1.307 1.964 1.307 3.156c0 1.192-0.464 2.313-1.307 3.156zM23.149 20.228h-1.301c-0.076 0-0.147 0.035-0.191 0.097l-1.864 2.578-0.678-0.937c-0.022-0.030-0.050-0.055-0.084-0.072s-0.070-0.025-0.107-0.025h-1.295c-0.191 0-0.302 0.217-0.191 0.373l2.167 2.997c0.094 0.129 0.285 0.129 0.379 0l3.353-4.639c0.115-0.156 0.003-0.373-0.188-0.373zM13.725 25.982h-6.811v-20.668h16.44v10.099c0 0.129 0.106 0.235 0.235 0.235h1.644c0.129 0 0.235-0.106 0.235-0.235v-11.273c0-0.52-0.42-0.939-0.939-0.939h-18.789c-0.52 0-0.939 0.42-0.939 0.939v23.017c0 0.52 0.42 0.939 0.939 0.939h7.985c0.129 0 0.235-0.106 0.235-0.235v-1.644c0-0.129-0.106-0.235-0.235-0.235z"></path>
</svg>
