<!-- Generated by IcoMoon.io -->
<svg version="1.1" xmlns="http://www.w3.org/2000/svg" width="32" height="32" viewBox="0 0 32 32">
<title>file-word</title>
<path d="M26.246 9.617l-6.149-6.149c-0.171-0.171-0.403-0.269-0.646-0.269h-12.137c-0.506 0-0.914 0.409-0.914 0.914v23.771c0 0.506 0.409 0.914 0.914 0.914h18.286c0.506 0 0.914-0.409 0.914-0.914v-17.62c0-0.243-0.097-0.477-0.268-0.649zM24.406 10.686h-5.377v-5.377l5.377 5.377zM24.457 26.743h-16v-21.486h8.629v6.171c0 0.318 0.126 0.623 0.351 0.849s0.53 0.351 0.849 0.351h6.171v14.114zM16.917 14.857h-0.92c-0.157 0-0.294 0.106-0.331 0.26l-1.42 5.683-1.317-5.677c-0.037-0.154-0.174-0.266-0.334-0.266h-1.011c-0.053 0-0.104 0.012-0.152 0.036s-0.088 0.057-0.12 0.099c-0.032 0.042-0.054 0.090-0.064 0.142s-0.009 0.105 0.005 0.156l2.12 7.886c0.040 0.149 0.177 0.254 0.331 0.254h0.914c0.154 0 0.291-0.103 0.331-0.254l1.509-5.628 1.509 5.628c0.040 0.149 0.177 0.254 0.331 0.254h0.909c0.154 0 0.291-0.103 0.331-0.254l2.126-7.886c0.013-0.051 0.015-0.104 0.004-0.155s-0.032-0.1-0.064-0.142c-0.032-0.042-0.073-0.075-0.12-0.099s-0.099-0.036-0.151-0.036h-1.017c-0.16 0-0.297 0.111-0.334 0.266l-1.309 5.689-1.423-5.694c-0.037-0.154-0.174-0.26-0.332-0.26v0z"></path>
</svg>
