<!-- Generated by IcoMoon.io -->
<svg version="1.1" xmlns="http://www.w3.org/2000/svg" width="32" height="32" viewBox="0 0 32 32">
<path d="M17.632 15.917l-2.223 2.834-1.174-1.497c-0.021-0.027-0.049-0.049-0.080-0.065s-0.065-0.023-0.1-0.023-0.069 0.008-0.1 0.023c-0.031 0.015-0.059 0.037-0.080 0.065l-2.851 3.634c-0.026 0.034-0.043 0.074-0.047 0.117s0.003 0.085 0.022 0.124c0.019 0.039 0.048 0.071 0.084 0.094s0.078 0.035 0.121 0.034h10.511c0.191 0 0.297-0.22 0.18-0.368l-3.9-4.971c-0.022-0.027-0.049-0.049-0.081-0.065s-0.066-0.023-0.101-0.023c-0.035 0-0.069 0.008-0.101 0.023s-0.059 0.037-0.081 0.065v0zM12.114 14c0 0.303 0.12 0.594 0.335 0.808s0.505 0.335 0.808 0.335c0.303 0 0.594-0.12 0.808-0.335s0.335-0.505 0.335-0.808c0-0.303-0.12-0.594-0.335-0.808s-0.505-0.335-0.808-0.335c-0.303 0-0.594 0.12-0.808 0.335s-0.335 0.505-0.335 0.808zM26.246 9.617l-6.149-6.149c-0.171-0.171-0.403-0.269-0.646-0.269h-12.137c-0.506 0-0.914 0.409-0.914 0.914v23.771c0 0.506 0.409 0.914 0.914 0.914h18.286c0.506 0 0.914-0.409 0.914-0.914v-17.62c0-0.243-0.097-0.477-0.269-0.649zM24.406 10.686h-5.377v-5.377l5.377 5.377zM24.457 26.743h-16v-21.486h8.629v6.171c0 0.318 0.126 0.623 0.352 0.849s0.53 0.351 0.848 0.351h6.171v14.114z"></path>
</svg>
