<!-- Generated by IcoMoon.io -->
<svg version="1.1" xmlns="http://www.w3.org/2000/svg" width="32" height="32" viewBox="0 0 32 32">
<path d="M25.688 14.785c-0.556-1.25-1.363-2.372-2.372-3.296l-0.833-0.764c-0.028-0.025-0.062-0.043-0.099-0.052s-0.075-0.009-0.112 0c-0.037 0.009-0.071 0.028-0.099 0.053s-0.049 0.057-0.062 0.093l-0.372 1.067c-0.232 0.67-0.658 1.353-1.262 2.026-0.040 0.043-0.086 0.054-0.117 0.057s-0.080-0.003-0.123-0.043c-0.040-0.034-0.060-0.086-0.057-0.137 0.106-1.723-0.409-3.665-1.536-5.78-0.933-1.757-2.229-3.127-3.848-4.083l-1.182-0.695c-0.155-0.092-0.352 0.029-0.343 0.209l0.063 1.373c0.043 0.939-0.066 1.768-0.323 2.458-0.315 0.844-0.767 1.628-1.345 2.332-0.402 0.489-0.858 0.932-1.359 1.319-1.207 0.928-2.188 2.116-2.87 3.476-0.681 1.372-1.035 2.883-1.036 4.415 0 1.351 0.266 2.658 0.793 3.891 0.508 1.187 1.242 2.265 2.16 3.173 0.927 0.916 2.003 1.637 3.202 2.137 1.242 0.521 2.558 0.784 3.917 0.784s2.675-0.263 3.917-0.781c1.196-0.498 2.283-1.224 3.202-2.137 0.927-0.916 1.654-1.986 2.16-3.173 0.526-1.23 0.795-2.554 0.792-3.891 0-1.396-0.286-2.753-0.856-4.032v0zM22.223 24.494c-1.537 1.522-3.577 2.358-5.751 2.358s-4.215-0.836-5.751-2.358c-1.531-1.519-2.375-3.534-2.375-5.677 0-1.245 0.28-2.438 0.833-3.548 0.538-1.084 1.339-2.054 2.312-2.801 0.62-0.474 1.183-1.020 1.677-1.625 0.715-0.873 1.276-1.846 1.665-2.89 0.16-0.431 0.276-0.877 0.346-1.33 0.69 0.635 1.268 1.402 1.751 2.3 0.956 1.791 1.396 3.385 1.31 4.741-0.020 0.319 0.032 0.639 0.153 0.936s0.308 0.561 0.546 0.775c0.206 0.186 0.448 0.33 0.71 0.422s0.54 0.132 0.818 0.116c0.564-0.029 1.082-0.278 1.459-0.698 0.38-0.426 0.71-0.861 0.984-1.305 0.4 0.512 0.735 1.070 1.001 1.671 0.455 1.024 0.687 2.115 0.687 3.236 0 2.143-0.844 4.16-2.375 5.677z"></path>
</svg>
