<!-- Generated by IcoMoon.io -->
<svg version="1.1" xmlns="http://www.w3.org/2000/svg" width="32" height="32" viewBox="0 0 32 32">
<path d="M12 9.333h9.333c0.378 0 0.694 0.128 0.95 0.383s0.383 0.572 0.383 0.95c0 0.378-0.128 0.694-0.383 0.95s-0.572 0.383-0.95 0.383h-9.333c-0.378 0-0.694-0.128-0.95-0.383s-0.383-0.572-0.383-0.95c0-0.378 0.128-0.694 0.383-0.95s0.572-0.383 0.95-0.383zM12 13.333h9.333c0.378 0 0.694 0.128 0.95 0.383s0.383 0.572 0.383 0.95c0 0.378-0.128 0.694-0.383 0.95s-0.572 0.383-0.95 0.383h-9.333c-0.378 0-0.694-0.128-0.95-0.383s-0.383-0.572-0.383-0.95c0-0.378 0.128-0.694 0.383-0.95s0.572-0.383 0.95-0.383zM6.667 29.333c-1.111 0-2.056-0.389-2.833-1.167s-1.167-1.722-1.167-2.833v-2.667c0-0.378 0.128-0.694 0.383-0.95s0.572-0.383 0.95-0.383h2.667v-16c0-0.733 0.261-1.361 0.783-1.883s1.15-0.783 1.883-0.783h14.667c0.733 0 1.361 0.261 1.883 0.783s0.783 1.15 0.783 1.883v8c0 0.378-0.128 0.694-0.383 0.95s-0.572 0.383-0.95 0.383c-0.378 0-0.694-0.128-0.95-0.383s-0.383-0.572-0.383-0.95v-8h-14.667v16h4c0.378 0 0.694 0.128 0.95 0.383s0.383 0.572 0.383 0.95c0 0.378-0.128 0.694-0.383 0.95s-0.572 0.383-0.95 0.383h-8v1.333c0 0.378 0.128 0.694 0.383 0.95s0.572 0.383 0.95 0.383h6.667c0.378 0 0.694 0.128 0.95 0.383s0.383 0.572 0.383 0.95c0 0.378-0.128 0.694-0.383 0.95s-0.572 0.383-0.95 0.383h-6.667zM17.333 28v-2.2c0-0.178 0.033-0.35 0.1-0.517s0.167-0.317 0.3-0.45l6.967-6.933c0.2-0.2 0.422-0.344 0.667-0.433s0.489-0.133 0.733-0.133c0.267 0 0.522 0.050 0.767 0.15s0.467 0.25 0.667 0.45l1.233 1.233c0.178 0.2 0.317 0.422 0.417 0.667s0.15 0.489 0.15 0.733c0 0.244-0.044 0.494-0.133 0.75s-0.233 0.483-0.433 0.683l-6.933 6.933c-0.133 0.133-0.283 0.233-0.45 0.3s-0.339 0.1-0.517 0.1h-2.2c-0.378 0-0.694-0.128-0.95-0.383s-0.383-0.572-0.383-0.95zM19.333 27.333h1.267l4.033-4.067-0.6-0.633-0.633-0.6-4.067 4.033v1.267zM24.033 22.633l-0.633-0.6 1.233 1.233-0.6-0.633z"></path>
</svg>
