<!-- Generated by IcoMoon.io -->
<svg version="1.1" xmlns="http://www.w3.org/2000/svg" width="32" height="32" viewBox="0 0 32 32">
<path d="M9.508 16.657c-0.085 0.182-0.13 0.381-0.13 0.582s0.044 0.4 0.13 0.582c1.414 2.986 3.6 4.522 6.509 4.522s5.094-1.539 6.509-4.522c0.173-0.368 0.173-0.794 0.003-1.162l-0.006-0.006c-1.411-2.982-3.597-4.518-6.506-4.518s-5.094 1.539-6.509 4.522zM16.017 14.184c1.987 0 3.437 0.96 4.515 3.056-1.075 2.096-2.528 3.056-4.515 3.056s-3.437-0.96-4.515-3.056c1.078-2.096 2.528-3.056 4.515-3.056z"></path>
<path d="M14.241 17.246c0 0.475 0.189 0.931 0.525 1.267s0.792 0.525 1.267 0.525c0.475 0 0.931-0.189 1.267-0.525s0.525-0.792 0.525-1.267c0-0.475-0.189-0.931-0.525-1.267s-0.792-0.525-1.267-0.525c-0.475 0-0.931 0.189-1.267 0.525s-0.525 0.792-0.525 1.267z"></path>
<path d="M27.776 8.461h-11.488l-3.754-3.59c-0.048-0.045-0.111-0.070-0.176-0.070h-8.134c-0.566 0-1.024 0.458-1.024 1.024v18.944c0 0.566 0.458 1.024 1.024 1.024h23.552c0.566 0 1.024-0.458 1.024-1.024v-15.283c0-0.566-0.458-1.024-1.024-1.024zM26.496 23.488h-20.992v-16.384h6.032l3.827 3.661h11.133v12.723z"></path>
</svg>
