<!-- Generated by IcoMoon.io -->
<svg version="1.1" xmlns="http://www.w3.org/2000/svg" width="32" height="32" viewBox="0 0 32 32">
<title>folder-open</title>
<path d="M27.886 13.829h-3.086v-3.246c0-0.506-0.409-0.914-0.914-0.914h-9l-3.351-3.206c-0.043-0.040-0.099-0.062-0.157-0.063h-7.263c-0.506 0-0.914 0.409-0.914 0.914v16.914c0 0.506 0.409 0.914 0.914 0.914h19.943c0.372 0 0.709-0.226 0.849-0.572l3.828-9.486c0.043-0.109 0.066-0.226 0.066-0.343 0-0.506-0.409-0.914-0.914-0.914zM5.257 8.457h5.386l3.417 3.269h8.683v2.103h-14.571c-0.371 0-0.709 0.226-0.849 0.571l-2.066 5.12v-11.063zM23.409 23.086h-17.494l2.951-7.314h17.497l-2.954 7.314z"></path>
</svg>
