<!-- Generated by IcoMoon.io -->
<svg version="1.1" xmlns="http://www.w3.org/2000/svg" width="32" height="32" viewBox="0 0 32 32">
<title>fork</title>
<path d="M23.192 3.2c-1.92 0-3.48 1.56-3.48 3.48 0 1.482 0.929 2.749 2.237 3.25v0.857l-6.214 7.991-6.214-7.991v-0.857c1.308-0.5 2.237-1.768 2.237-3.25 0-1.92-1.56-3.48-3.48-3.48s-3.48 1.56-3.48 3.48c0 1.572 1.050 2.905 2.485 3.334v1.069c0 0.301 0.103 0.6 0.289 0.839l7.043 9.059v1.044c-1.373 0.466-2.361 1.768-2.361 3.296 0 1.92 1.56 3.48 3.48 3.48s3.48-1.56 3.48-3.48c0-1.528-0.988-2.827-2.361-3.296v-1.044l7.043-9.059c0.186-0.239 0.289-0.537 0.289-0.839v-1.069c1.435-0.429 2.485-1.762 2.485-3.334 0-1.92-1.56-3.48-3.48-3.48v0zM6.788 6.68c0.008-0.39 0.169-0.762 0.447-1.035s0.654-0.426 1.044-0.426c0.39 0 0.765 0.153 1.044 0.426s0.439 0.645 0.447 1.035c-0.008 0.39-0.169 0.762-0.447 1.035s-0.654 0.426-1.044 0.426c-0.39 0-0.765-0.153-1.044-0.426s-0.439-0.645-0.447-1.035v0zM17.227 25.32c-0.008 0.39-0.169 0.762-0.447 1.035s-0.654 0.426-1.044 0.426-0.765-0.153-1.044-0.426c-0.279-0.273-0.439-0.645-0.447-1.035 0.008-0.39 0.169-0.762 0.447-1.035s0.654-0.426 1.044-0.426c0.39 0 0.765 0.153 1.044 0.426s0.439 0.645 0.447 1.035v0zM23.192 8.171c-0.39-0.008-0.762-0.169-1.035-0.447s-0.426-0.654-0.426-1.044c0-0.39 0.153-0.765 0.426-1.044s0.645-0.439 1.035-0.447c0.39 0.008 0.762 0.169 1.035 0.447s0.426 0.654 0.426 1.044c0 0.39-0.153 0.765-0.426 1.044s-0.645 0.439-1.035 0.447v0z"></path>
</svg>
