<!-- Generated by IcoMoon.io -->
<svg version="1.1" xmlns="http://www.w3.org/2000/svg" width="32" height="32" viewBox="0 0 32 32">
<title>friend</title>
<path d="M4.828 18.407c1.043-1.010 2.457-1.578 3.931-1.578h8.275c1.475 0 2.889 0.568 3.931 1.578s1.628 2.381 1.628 3.81v2.005c0 0.761-0.637 1.378-1.422 1.378s-1.422-0.617-1.422-1.378v-2.005c0-0.698-0.286-1.367-0.795-1.861s-1.2-0.771-1.92-0.771h-8.275c-0.72 0-1.411 0.277-1.92 0.771s-0.795 1.163-0.795 1.861v2.005c0 0.761-0.637 1.378-1.422 1.378s-1.422-0.617-1.422-1.378v-2.005c0-1.429 0.586-2.799 1.628-3.81z"></path>
<path d="M12.897 7.557c-1.5 0-2.715 1.178-2.715 2.631s1.216 2.631 2.715 2.631c1.5 0 2.715-1.178 2.715-2.631s-1.216-2.631-2.715-2.631zM7.337 10.188c0-2.976 2.489-5.388 5.56-5.388s5.56 2.412 5.56 5.388c0 2.976-2.489 5.388-5.56 5.388s-5.56-2.412-5.56-5.388z"></path>
<path d="M22.898 17.993c0.196-0.737 0.972-1.18 1.733-0.99 1.193 0.298 2.249 0.972 3.004 1.916s1.165 2.103 1.166 3.297v2.006c0 0.761-0.637 1.378-1.422 1.378s-1.422-0.617-1.422-1.378v-2.004c0-0.583-0.201-1.149-0.569-1.61s-0.885-0.79-1.467-0.936c-0.761-0.19-1.218-0.942-1.022-1.679z"></path>
<path d="M18.76 5.967c0.195-0.737 0.97-1.182 1.731-0.993 1.196 0.297 2.256 0.971 3.013 1.916s1.168 2.107 1.168 3.304c0 1.196-0.411 2.359-1.168 3.304s-1.817 1.619-3.013 1.916c-0.761 0.189-1.536-0.256-1.731-0.993s0.264-1.488 1.025-1.677c0.584-0.145 1.102-0.474 1.471-0.936s0.57-1.029 0.57-1.613-0.201-1.152-0.57-1.613c-0.37-0.462-0.887-0.791-1.471-0.936-0.761-0.189-1.22-0.94-1.025-1.677z"></path>
</svg>
