<!-- Generated by IcoMoon.io -->
<svg version="1.1" xmlns="http://www.w3.org/2000/svg" width="32" height="32" viewBox="0 0 32 32">
<path d="M9.6 13.4c0 0.364 0.145 0.713 0.402 0.97s0.606 0.402 0.97 0.402c0.364 0 0.713-0.144 0.97-0.402s0.402-0.606 0.402-0.97c0-0.364-0.145-0.713-0.402-0.97s-0.606-0.402-0.97-0.402c-0.364 0-0.713 0.144-0.97 0.402s-0.402 0.606-0.402 0.97v0zM19.657 13.4c0 0.364 0.144 0.713 0.402 0.97s0.606 0.402 0.97 0.402c0.364 0 0.712-0.144 0.97-0.402s0.402-0.606 0.402-0.97-0.144-0.713-0.402-0.97c-0.257-0.257-0.606-0.402-0.97-0.402s-0.713 0.144-0.97 0.402c-0.257 0.257-0.402 0.606-0.402 0.97v0zM16 3.2c-7.069 0-12.8 5.731-12.8 12.8s5.731 12.8 12.8 12.8c7.069 0 12.8-5.731 12.8-12.8s-5.731-12.8-12.8-12.8zM23.514 23.514c-0.977 0.977-2.114 1.743-3.38 2.28-1.306 0.554-2.697 0.834-4.134 0.834s-2.829-0.28-4.137-0.834c-1.264-0.534-2.412-1.308-3.38-2.28-0.977-0.977-1.743-2.114-2.28-3.38-0.551-1.306-0.831-2.697-0.831-4.134s0.28-2.829 0.834-4.137c0.534-1.264 1.308-2.412 2.28-3.38 0.977-0.977 2.114-1.743 3.38-2.28 1.306-0.551 2.697-0.831 4.134-0.831s2.829 0.28 4.137 0.834c1.264 0.534 2.412 1.308 3.38 2.28 0.977 0.977 1.743 2.114 2.28 3.38 0.552 1.306 0.832 2.697 0.832 4.134s-0.28 2.829-0.834 4.137c-0.533 1.263-1.308 2.41-2.28 3.377v0zM16 16.6c-2.443 0-4.446 1.923-4.571 4.331-0.002 0.031 0.003 0.062 0.014 0.091s0.027 0.056 0.049 0.078c0.021 0.022 0.047 0.040 0.076 0.052s0.059 0.019 0.090 0.018h1.374c0.12 0 0.223-0.091 0.231-0.211 0.109-1.414 1.294-2.531 2.737-2.531s2.631 1.117 2.737 2.531c0.009 0.12 0.112 0.211 0.232 0.211h1.374c0.031 0 0.062-0.006 0.090-0.018s0.054-0.030 0.076-0.052 0.038-0.049 0.049-0.078c0.011-0.029 0.016-0.060 0.014-0.091-0.126-2.408-2.128-4.331-4.571-4.331z"></path>
</svg>
