<!-- Generated by IcoMoon.io -->
<svg version="1.1" xmlns="http://www.w3.org/2000/svg" width="32" height="32" viewBox="0 0 32 32">
<path d="M11.792 6.571c-0.028-0.23-0.31-0.327-0.473-0.163l-1.52 1.52-4.65-4.647c-0.052-0.052-0.123-0.081-0.197-0.081s-0.144 0.029-0.197 0.081l-1.475 1.471c-0.052 0.052-0.081 0.123-0.081 0.197s0.029 0.144 0.081 0.197l4.65 4.65-1.527 1.527c-0.037 0.037-0.062 0.084-0.074 0.134s-0.009 0.104 0.008 0.153c0.017 0.049 0.048 0.093 0.088 0.126s0.089 0.054 0.141 0.060l5.572 0.657c0.177 0.021 0.33-0.129 0.31-0.31l-0.657-5.572zM12.143 19.551l-5.575 0.657c-0.23 0.028-0.327 0.31-0.163 0.473l1.527 1.527-4.65 4.643c-0.052 0.052-0.081 0.123-0.081 0.197s0.029 0.144 0.081 0.196l1.475 1.471c0.108 0.108 0.285 0.108 0.393 0l4.65-4.647 1.52 1.52c0.037 0.037 0.084 0.062 0.134 0.074s0.104 0.009 0.153-0.008c0.049-0.017 0.093-0.048 0.126-0.088s0.054-0.090 0.060-0.141l0.657-5.568c0.021-0.177-0.129-0.327-0.306-0.306v0zM19.857 12.449l5.575-0.657c0.23-0.028 0.327-0.31 0.164-0.473l-1.527-1.523 4.65-4.647c0.108-0.108 0.108-0.285 0-0.393l-1.475-1.471c-0.052-0.052-0.123-0.081-0.196-0.081s-0.144 0.029-0.197 0.081l-4.65 4.643-1.52-1.52c-0.037-0.037-0.084-0.062-0.134-0.074s-0.104-0.009-0.153 0.008-0.093 0.048-0.126 0.088c-0.033 0.041-0.054 0.089-0.060 0.141l-0.657 5.568c-0.021 0.181 0.129 0.33 0.306 0.31v0zM24.069 22.205l1.527-1.527c0.037-0.037 0.062-0.084 0.074-0.134s0.009-0.104-0.008-0.153c-0.017-0.049-0.048-0.093-0.088-0.126s-0.089-0.053-0.141-0.060l-5.572-0.657c-0.177-0.021-0.33 0.129-0.31 0.31l0.657 5.572c0.028 0.229 0.31 0.327 0.473 0.163l1.52-1.52 4.65 4.647c0.108 0.108 0.285 0.108 0.393 0l1.475-1.471c0.108-0.108 0.108-0.285 0-0.393l-4.65-4.65z"></path>
</svg>
