<!-- Generated by IcoMoon.io -->
<svg version="1.1" xmlns="http://www.w3.org/2000/svg" width="32" height="32" viewBox="0 0 32 32">
<title>fullscreen</title>
<path d="M7.925 5.98l1.596-1.596c0.038-0.039 0.065-0.087 0.077-0.14s0.009-0.109-0.009-0.16c-0.018-0.051-0.050-0.097-0.092-0.131s-0.094-0.056-0.148-0.063l-5.825-0.687c-0.185-0.022-0.345 0.135-0.324 0.324l0.687 5.825c0.029 0.24 0.324 0.342 0.494 0.171l1.589-1.589 4.861 4.857c0.113 0.113 0.298 0.113 0.411 0l1.542-1.538c0.113-0.113 0.113-0.298 0-0.411l-4.861-4.861zM20.748 12.79c0.113 0.113 0.298 0.113 0.411 0l4.861-4.857 1.589 1.589c0.039 0.038 0.087 0.065 0.14 0.077s0.109 0.009 0.16-0.009c0.052-0.018 0.097-0.050 0.131-0.092s0.056-0.094 0.063-0.148l0.687-5.821c0.022-0.185-0.135-0.345-0.324-0.324l-5.824 0.687c-0.24 0.029-0.342 0.324-0.171 0.494l1.596 1.596-4.861 4.854c-0.054 0.055-0.084 0.129-0.084 0.205s0.030 0.151 0.084 0.205l1.542 1.542zM28.104 22.65c-0.029-0.24-0.324-0.342-0.494-0.171l-1.589 1.589-4.861-4.857c-0.055-0.054-0.128-0.084-0.205-0.084s-0.151 0.030-0.205 0.084l-1.542 1.538c-0.054 0.055-0.084 0.128-0.084 0.205s0.030 0.151 0.084 0.205l4.861 4.861-1.596 1.596c-0.038 0.039-0.065 0.087-0.077 0.14s-0.009 0.108 0.009 0.16c0.018 0.052 0.050 0.097 0.092 0.131s0.093 0.056 0.148 0.063l5.824 0.687c0.185 0.022 0.345-0.135 0.324-0.324l-0.687-5.824zM11.244 19.21c-0.055-0.054-0.129-0.084-0.205-0.084s-0.151 0.030-0.205 0.084l-4.861 4.857-1.589-1.589c-0.039-0.039-0.087-0.065-0.14-0.077s-0.109-0.009-0.16 0.008c-0.051 0.018-0.097 0.050-0.131 0.092s-0.056 0.093-0.063 0.148l-0.687 5.821c-0.022 0.185 0.135 0.345 0.324 0.324l5.825-0.687c0.24-0.029 0.342-0.324 0.171-0.495l-1.596-1.592 4.861-4.857c0.113-0.113 0.113-0.298 0-0.411l-1.542-1.542z"></path>
</svg>
