<!-- Generated by IcoMoon.io -->
<svg version="1.1" xmlns="http://www.w3.org/2000/svg" width="32" height="32" viewBox="0 0 32 32">
<title>fund</title>
<path d="M27.886 6.4h-23.771c-0.506 0-0.914 0.409-0.914 0.914v18.286c0 0.506 0.409 0.914 0.914 0.914h23.771c0.506 0 0.914-0.408 0.914-0.914v-18.286c0-0.506-0.409-0.914-0.914-0.914zM26.743 24.457h-21.486v-16h21.486v16zM7.917 22.106c0.089 0.088 0.234 0.088 0.323 0l4.929-4.929 3.269 3.272c0.089 0.088 0.234 0.088 0.323 0l8.486-8.492c0.088-0.089 0.088-0.234 0-0.323l-1.052-1.051c-0.043-0.043-0.101-0.066-0.161-0.066s-0.118 0.024-0.161 0.066l-7.271 7.274-3.269-3.271c-0.043-0.043-0.101-0.066-0.161-0.066s-0.118 0.024-0.161 0.066l-6.14 6.143c-0.043 0.043-0.066 0.101-0.066 0.161s0.024 0.118 0.066 0.161l1.049 1.054z"></path>
</svg>
