<!-- Generated by IcoMoon.io -->
<svg version="1.1" xmlns="http://www.w3.org/2000/svg" width="32" height="32" viewBox="0 0 32 32">
<title>fund-view</title>
<path d="M28.687 21.443l-0.006-0.006c-1.26-2.666-3.212-4.037-5.809-4.037s-4.549 1.374-5.812 4.037v0.003c-0.076 0.163-0.116 0.34-0.116 0.52s0.040 0.357 0.116 0.52c1.263 2.663 3.214 4.034 5.812 4.034s4.549-1.374 5.812-4.037c0.154-0.328 0.154-0.708 0.003-1.034zM22.872 24.686c-1.774 0-3.069-0.857-4.032-2.729 0.96-1.872 2.257-2.729 4.032-2.729s3.069 0.857 4.032 2.729c-0.96 1.872-2.257 2.729-4.032 2.729z"></path>
<path d="M21.286 21.972c0 0.424 0.169 0.831 0.469 1.131s0.707 0.469 1.132 0.469c0.424 0 0.831-0.169 1.131-0.469s0.469-0.707 0.469-1.131c0-0.424-0.169-0.831-0.469-1.132s-0.707-0.469-1.131-0.469c-0.424 0-0.831 0.169-1.132 0.469s-0.469 0.707-0.469 1.132zM5.257 8.457h20.115v7.229h2.057v-8.372c0-0.506-0.409-0.914-0.914-0.914h-22.401c-0.506 0-0.914 0.409-0.914 0.914v14.858c0 0.506 0.409 0.914 0.914 0.914h10.057v-2.057h-8.915v-12.572z"></path>
<path d="M22.084 11.493l-1.051-1.051c-0.043-0.043-0.101-0.066-0.161-0.066s-0.119 0.024-0.161 0.066l-5.252 5.257-2.46-2.463c-0.043-0.043-0.101-0.066-0.161-0.066s-0.118 0.024-0.161 0.066l-4.123 4.123c-0.043 0.043-0.066 0.101-0.066 0.161s0.024 0.119 0.066 0.161l1.051 1.052c0.089 0.089 0.234 0.089 0.323 0l2.909-2.909 2.46 2.463c0.089 0.089 0.234 0.089 0.323 0l6.466-6.472c0.092-0.089 0.092-0.234 0-0.323z"></path>
</svg>
