<!-- Generated by IcoMoon.io -->
<svg version="1.1" xmlns="http://www.w3.org/2000/svg" width="32" height="32" viewBox="0 0 32 32">
<title>fund-projection-screen</title>
<path d="M9.889 18.22c0.092 0.092 0.245 0.092 0.337 0l3.037-3.037 2.569 2.572c0.092 0.092 0.245 0.092 0.337 0l6.752-6.758c0.092-0.092 0.092-0.245 0-0.337l-1.098-1.098c-0.045-0.044-0.105-0.069-0.169-0.069s-0.124 0.025-0.169 0.069l-5.484 5.49-2.569-2.572c-0.045-0.044-0.105-0.069-0.169-0.069s-0.124 0.025-0.169 0.069l-4.305 4.305c-0.044 0.045-0.069 0.105-0.069 0.169s0.025 0.124 0.069 0.169l1.098 1.098z"></path>
<path d="M27.547 5.348h-10.622v-1.91c0-0.131-0.108-0.239-0.239-0.239h-1.671c-0.131 0-0.239 0.107-0.239 0.239v1.91h-10.622c-0.528 0-0.955 0.427-0.955 0.955v15.515c0 0.528 0.427 0.955 0.955 0.955h10.634v0.955l-4.917 3.225c-0.026 0.017-0.049 0.039-0.066 0.065s-0.030 0.055-0.036 0.085c-0.006 0.030-0.007 0.062-0.001 0.092s0.018 0.060 0.035 0.086l0.904 1.408v0.003c0.072 0.11 0.221 0.14 0.331 0.069l4.813-3.157 4.813 3.157c0.11 0.072 0.26 0.042 0.331-0.069v-0.003l0.904-1.408c0.034-0.053 0.046-0.117 0.033-0.178s-0.049-0.115-0.102-0.15l-4.905-3.216v-0.964h10.622c0.528 0 0.955-0.427 0.955-0.955v-15.515c0-0.528-0.427-0.955-0.955-0.955zM26.353 20.625h-21.005v-13.128h21.005v13.128z"></path>
</svg>
