<!-- Generated by IcoMoon.io -->
<svg version="1.1" xmlns="http://www.w3.org/2000/svg" width="32" height="32" viewBox="0 0 32 32">
<path d="M28.567 9.917h-7.331c-0.128 0-0.233 0.105-0.233 0.233v11.811c0 0.128 0.105 0.233 0.233 0.233h1.722c0.128 0 0.233-0.105 0.233-0.233v-4.745h4.893c0.128 0 0.233-0.105 0.233-0.233v-1.364c0-0.128-0.105-0.233-0.233-0.233h-4.893v-3.572h5.376c0.128 0 0.233-0.105 0.233-0.233v-1.431c0-0.128-0.105-0.233-0.233-0.233zM18.211 9.946h-1.629c-0.128 0-0.233 0.105-0.233 0.233v11.811c0 0.128 0.105 0.233 0.233 0.233h1.629c0.128 0 0.233-0.105 0.233-0.233v-11.811c0-0.128-0.105-0.233-0.233-0.233zM14.255 15.791h-4.698c-0.128 0-0.233 0.105-0.233 0.233v1.271c0 0.128 0.105 0.233 0.233 0.233h2.761l-0.009 0.259c-0.035 1.711-1.327 2.865-3.226 2.865-2.217 0-3.604-1.737-3.604-4.559 0-2.787 1.361-4.515 3.535-4.515 1.594 0 2.708 0.783 3.156 2.193h2.217c-0.396-2.537-2.502-4.172-5.373-4.172-3.543-0.003-5.812 2.534-5.812 6.511 0 4.023 2.243 6.519 5.847 6.519 3.319 0 5.44-2.057 5.44-5.283v-1.324c0-0.128-0.105-0.233-0.233-0.233z"></path>
</svg>
