<!-- Generated by IcoMoon.io -->
<svg version="1.1" xmlns="http://www.w3.org/2000/svg" width="32" height="32" viewBox="0 0 32 32">
<path d="M16.001 3.2c-7.073-0.003-12.801 5.723-12.801 12.79 0 5.588 3.584 10.339 8.574 12.084 0.672 0.169 0.569-0.309 0.569-0.635v-2.216c-3.881 0.455-4.038-2.113-4.299-2.543-0.526-0.898-1.77-1.127-1.399-1.556 0.884-0.455 1.785 0.114 2.829 1.656 0.755 1.118 2.228 0.929 2.974 0.744 0.163-0.672 0.512-1.273 0.992-1.739-4.021-0.721-5.697-3.175-5.697-6.092 0-1.416 0.466-2.717 1.381-3.767-0.583-1.73 0.054-3.212 0.14-3.432 1.662-0.149 3.389 1.19 3.524 1.296 0.944-0.255 2.022-0.389 3.229-0.389 1.213 0 2.294 0.14 3.246 0.398 0.323-0.246 1.925-1.396 3.469-1.256 0.083 0.22 0.706 1.667 0.157 3.375 0.927 1.052 1.399 2.365 1.399 3.784 0 2.923-1.687 5.38-5.72 6.089 0.345 0.34 0.62 0.745 0.807 1.192s0.283 0.927 0.283 1.411v3.218c0.023 0.257 0 0.512 0.429 0.512 5.065-1.708 8.712-6.492 8.712-12.129 0-7.070-5.732-12.793-12.799-12.793v0z"></path>
</svg>
