<!-- Generated by IcoMoon.io -->
<svg version="1.1" xmlns="http://www.w3.org/2000/svg" width="32" height="32" viewBox="0 0 32 32">
<title>gitlab</title>
<path d="M28.753 17.734l-3.457-11.775c-0.241-0.727-0.816-1.159-1.533-1.159-0.743 0-1.349 0.429-1.578 1.117l-2.267 6.762h-7.835l-2.267-6.762c-0.229-0.689-0.835-1.117-1.578-1.117-0.733 0-1.349 0.47-1.537 1.162l-3.454 11.772c-0.14 0.467 0.038 0.997 0.429 1.292l11.699 8.775c0.083 0.114 0.197 0.2 0.33 0.248l0.273 0.203 0.27-0.203c0.156-0.054 0.286-0.149 0.378-0.283l11.696-8.743c0.394-0.292 0.572-0.822 0.432-1.289zM23.603 6.343c0.032-0.057 0.092-0.060 0.111-0.060 0.035 0 0.079 0.010 0.108 0.095l1.886 6.343h-4.238l2.133-6.378zM8.13 6.375c0.029-0.083 0.073-0.092 0.108-0.092 0.086 0 0.092 0.003 0.108 0.054l2.137 6.387h-4.187l1.835-6.349zM4.781 17.94l0.895-3.089 6.426 8.578-7.321-5.489zM7.127 14.245h3.876l2.883 9.026-6.759-9.026zM16.022 24.839l-3.403-10.594h6.803l-3.4 10.594zM21.035 14.245h3.794l-6.676 8.915 2.883-8.915zM19.743 23.575l6.581-8.784 0.936 3.149-7.518 5.635z"></path>
</svg>
