<!-- Generated by IcoMoon.io -->
<svg version="1.1" xmlns="http://www.w3.org/2000/svg" width="32" height="32" viewBox="0 0 32 32">
<path d="M25.783 24.254c0.006-0.008 0.014-0.017 0.020-0.026 1.871-2.226 2.997-5.094 2.997-8.229s-1.126-6.003-2.994-8.229c-0.006-0.009-0.014-0.014-0.020-0.023-0.032-0.037-0.060-0.071-0.092-0.106-0.011-0.014-0.023-0.026-0.034-0.040l-0.117-0.134-0.003-0.003c-0.043-0.049-0.089-0.097-0.131-0.146l-0.003-0.003c-0.092-0.097-0.183-0.194-0.277-0.289l-0.149-0.149c-0.043-0.043-0.086-0.083-0.129-0.123-0.014-0.014-0.028-0.029-0.046-0.043-0.029-0.029-0.057-0.054-0.086-0.080-0.009-0.009-0.020-0.017-0.029-0.029-2.28-2.114-5.334-3.406-8.691-3.406s-6.411 1.291-8.694 3.406c-0.009 0.009-0.020 0.017-0.029 0.029-0.029 0.026-0.057 0.054-0.086 0.083-0.014 0.014-0.029 0.029-0.046 0.043-0.043 0.040-0.086 0.083-0.129 0.123l-0.149 0.149c-0.094 0.094-0.186 0.191-0.277 0.289l-0.003 0.003c-0.046 0.049-0.089 0.097-0.131 0.146l-0.003 0.003c-0.040 0.043-0.080 0.089-0.117 0.134-0.011 0.014-0.023 0.026-0.034 0.040-0.031 0.034-0.060 0.071-0.091 0.106-0.006 0.009-0.014 0.014-0.020 0.023-1.866 2.223-2.991 5.091-2.991 8.226s1.126 6.003 2.994 8.229c0.006 0.008 0.014 0.017 0.020 0.026l0.089 0.106c0.011 0.014 0.023 0.026 0.034 0.040l0.117 0.134c0 0.003 0.003 0.003 0.003 0.006 0.043 0.049 0.086 0.097 0.131 0.143l0.003 0.003c0.091 0.097 0.183 0.194 0.274 0.288l0.003 0.003c0.046 0.046 0.089 0.092 0.134 0.134l0.009 0.009c0.094 0.094 0.191 0.186 0.289 0.274 2.289 2.114 5.343 3.406 8.7 3.406s6.411-1.291 8.694-3.406c0.097-0.089 0.193-0.181 0.286-0.274l0.009-0.009c0.046-0.046 0.091-0.088 0.134-0.134l0.003-0.003c0.094-0.094 0.186-0.191 0.274-0.288l0.003-0.003c0.043-0.049 0.088-0.094 0.131-0.143 0-0.003 0.003-0.003 0.003-0.006 0.040-0.043 0.080-0.088 0.117-0.134 0.012-0.014 0.023-0.026 0.034-0.040 0.032-0.034 0.064-0.070 0.094-0.106v0zM25.9 20.18c-0.394 0.931-0.914 1.794-1.549 2.577-0.714-0.617-1.495-1.153-2.328-1.597 0.331-1.34 0.537-2.811 0.591-4.36h4.1c-0.086 1.169-0.36 2.303-0.814 3.38zM26.714 15.2h-4.1c-0.054-1.549-0.26-3.020-0.591-4.36 0.837-0.446 1.617-0.983 2.328-1.597 1.379 1.697 2.204 3.776 2.363 5.957v0zM20.18 6.1c1.134 0.48 2.166 1.143 3.074 1.977-0.528 0.449-1.096 0.849-1.697 1.194-0.448-1.286-1.023-2.403-1.691-3.297 0.106 0.040 0.211 0.083 0.314 0.126zM17.591 26.117c-0.263 0.206-0.526 0.363-0.791 0.469v-5.3c1.134 0.079 2.248 0.332 3.306 0.748-0.237 0.703-0.512 1.352-0.829 1.937-0.497 0.926-1.080 1.666-1.686 2.146zM19.277 8.029c0.314 0.589 0.592 1.237 0.829 1.937-1.057 0.417-2.172 0.669-3.306 0.749v-5.297c0.263 0.106 0.529 0.26 0.791 0.469 0.606 0.477 1.189 1.217 1.686 2.143v0zM16.8 19.683v-2.883h4.214c-0.046 1.263-0.203 2.489-0.466 3.651l-0.009 0.034c-1.199-0.455-2.46-0.725-3.74-0.803v0zM16.8 15.2v-2.883c1.309-0.080 2.566-0.357 3.74-0.803l0.009 0.034c0.263 1.163 0.42 2.386 0.466 3.651h-4.214zM15.2 16.8v2.883c-1.309 0.080-2.566 0.357-3.74 0.803l-0.009-0.034c-0.263-1.163-0.42-2.386-0.466-3.651h4.214zM10.986 15.2c0.046-1.263 0.203-2.489 0.466-3.651l0.009-0.034c1.174 0.446 2.429 0.723 3.74 0.803v2.883h-4.214zM15.2 21.286v5.297c-0.263-0.106-0.529-0.26-0.791-0.469-0.606-0.477-1.191-1.22-1.689-2.146-0.314-0.589-0.591-1.237-0.829-1.937 1.063-0.417 2.169-0.666 3.309-0.746zM15.2 10.714c-1.134-0.079-2.249-0.332-3.306-0.749 0.237-0.703 0.511-1.351 0.829-1.937 0.497-0.926 1.080-1.669 1.689-2.146 0.263-0.206 0.526-0.363 0.791-0.469v5.3h-0.003zM11.82 6.1c0.106-0.043 0.209-0.086 0.314-0.126-0.669 0.894-1.243 2.011-1.691 3.297-0.6-0.343-1.169-0.743-1.697-1.194 0.909-0.834 1.94-1.497 3.074-1.977v0zM6.1 11.82c0.394-0.931 0.914-1.794 1.549-2.577 0.711 0.614 1.491 1.151 2.329 1.597-0.331 1.34-0.537 2.811-0.591 4.36h-4.1c0.086-1.169 0.36-2.303 0.814-3.38zM5.286 16.8h4.1c0.054 1.549 0.26 3.020 0.591 4.36-0.833 0.444-1.614 0.98-2.329 1.597-1.379-1.697-2.204-3.776-2.363-5.957v0zM11.82 25.9c-1.134-0.48-2.166-1.143-3.074-1.977 0.529-0.452 1.097-0.849 1.697-1.194 0.449 1.286 1.023 2.403 1.691 3.297-0.106-0.040-0.211-0.083-0.314-0.126zM20.18 25.9c-0.106 0.043-0.209 0.086-0.314 0.126 0.668-0.894 1.243-2.012 1.691-3.297 0.6 0.343 1.169 0.743 1.697 1.194-0.904 0.831-1.944 1.5-3.074 1.977v0z"></path>
</svg>
