<!-- Generated by IcoMoon.io -->
<svg version="1.1" xmlns="http://www.w3.org/2000/svg" width="32" height="32" viewBox="0 0 32 32">
<title>googleplus</title>
<path d="M26.482 14.961c-0.009-0.772-0.012-1.549-0.014-2.324h-2.31c-0.009 0.772-0.014 1.546-0.020 2.324-0.778 0.003-1.549 0.009-2.321 0.017v2.313c0.772 0.008 1.549 0.014 2.321 0.023 0.008 0.772 0.008 1.547 0.014 2.318h2.313c0.003-0.772 0.008-1.547 0.014-2.324 0.777-0.009 1.549-0.012 2.321-0.020v-2.313c-0.769-0.006-1.546-0.006-2.318-0.014zM11.331 14.973c-0.003 0.923 0 1.849 0.003 2.773 1.549 0.052 3.102 0.029 4.651 0.052-0.683 3.439-5.357 4.554-7.83 2.307-2.544-1.97-2.424-6.289 0.22-8.118 1.85-1.475 4.476-1.112 6.326 0.166 0.726-0.672 1.406-1.392 2.061-2.135-1.538-1.226-3.425-2.101-5.431-2.010-4.191-0.14-8.041 3.53-8.11 7.724-0.269 3.427 1.984 6.786 5.163 7.998 3.167 1.22 7.229 0.389 9.253-2.458 1.335-1.798 1.624-4.113 1.466-6.289-2.593-0.020-5.183-0.017-7.772-0.009v0z"></path>
</svg>
