<!-- Generated by IcoMoon.io -->
<svg version="1.1" xmlns="http://www.w3.org/2000/svg" width="32" height="32" viewBox="0 0 32 32">
<path d="M27.429 24.803v-17.606c0.8-0.283 1.371-1.046 1.371-1.94 0-1.137-0.92-2.057-2.057-2.057-0.894 0-1.657 0.571-1.94 1.371h-17.606c-0.283-0.8-1.046-1.371-1.94-1.371-1.137 0-2.057 0.92-2.057 2.057 0 0.894 0.571 1.657 1.371 1.94v17.606c-0.8 0.283-1.371 1.046-1.371 1.94 0 1.137 0.92 2.057 2.057 2.057 0.894 0 1.657-0.571 1.94-1.371h17.606c0.283 0.8 1.046 1.371 1.94 1.371 1.137 0 2.057-0.92 2.057-2.057 0-0.894-0.571-1.657-1.371-1.94zM26.743 4.571c0.38 0 0.686 0.306 0.686 0.686s-0.306 0.686-0.686 0.686c-0.38 0-0.686-0.306-0.686-0.686s0.306-0.686 0.686-0.686zM5.257 27.429c-0.38 0-0.686-0.306-0.686-0.686s0.306-0.686 0.686-0.686c0.38 0 0.686 0.306 0.686 0.686s-0.306 0.686-0.686 0.686zM5.257 5.943c-0.38 0-0.686-0.306-0.686-0.686s0.306-0.686 0.686-0.686c0.38 0 0.686 0.306 0.686 0.686s-0.306 0.686-0.686 0.686zM25.371 25.371h-18.743v-18.743h18.743v18.743zM26.743 27.429c-0.38 0-0.686-0.306-0.686-0.686s0.306-0.686 0.686-0.686c0.38 0 0.686 0.306 0.686 0.686s-0.306 0.686-0.686 0.686z"></path>
<path d="M9.599 14.918h12.8c0.251 0 0.457-0.206 0.457-0.457v-5.029c0-0.251-0.206-0.457-0.457-0.457h-12.8c-0.251 0-0.457 0.206-0.457 0.457v5.029c0 0.251 0.206 0.457 0.457 0.457zM11.199 11.032h9.6v1.829h-9.6v-1.829zM9.599 23.032h12.8c0.251 0 0.457-0.206 0.457-0.457v-5.028c0-0.252-0.206-0.457-0.457-0.457h-12.8c-0.251 0-0.457 0.206-0.457 0.457v5.028c0 0.252 0.206 0.457 0.457 0.457zM11.199 19.146h9.6v1.828h-9.6v-1.828z"></path>
</svg>
