<!-- Generated by IcoMoon.io -->
<svg version="1.1" xmlns="http://www.w3.org/2000/svg" width="32" height="32" viewBox="0 0 32 32">
<path d="M3.369 14.877h24.834c0.116 0 0.185 0.129 0.121 0.225l-1.917 2.871c-0.065 0.097-0.065 0.224 0 0.321l1.917 2.871c0.064 0.096-0.005 0.225-0.121 0.225h-24.834c-0.116 0-0.185-0.129-0.121-0.225l1.918-2.871c0.065-0.097 0.065-0.224 0-0.321l-1.918-2.871c-0.064-0.096 0.005-0.225 0.121-0.225zM11.262 16.936h-0.507v1.511c0 0.091-0.020 0.172-0.061 0.243s-0.096 0.127-0.17 0.167c-0.073 0.041-0.158 0.061-0.256 0.061s-0.183-0.020-0.256-0.061-0.13-0.096-0.171-0.167c-0.040-0.071-0.060-0.152-0.060-0.243v-1.511h-0.507v1.555c0 0.175 0.041 0.327 0.124 0.458s0.199 0.233 0.348 0.306c0.149 0.073 0.323 0.109 0.522 0.109s0.372-0.036 0.521-0.109c0.149-0.073 0.265-0.175 0.348-0.306s0.125-0.284 0.125-0.458v-1.555zM8.286 17.559c0.030 0.044 0.053 0.094 0.069 0.151h0.515c-0.016-0.118-0.053-0.227-0.111-0.325s-0.132-0.184-0.224-0.256c-0.091-0.072-0.194-0.127-0.312-0.166s-0.244-0.060-0.379-0.060c-0.159 0-0.306 0.028-0.441 0.083s-0.255 0.136-0.357 0.242c-0.102 0.106-0.182 0.235-0.239 0.388s-0.084 0.325-0.084 0.519c0 0.253 0.047 0.471 0.142 0.655s0.228 0.325 0.398 0.424c0.17 0.099 0.368 0.149 0.593 0.149 0.201 0 0.38-0.041 0.536-0.122s0.279-0.198 0.368-0.348c0.089-0.151 0.133-0.332 0.133-0.542v-0.302h-1.004v0.381h0.515c-0.002 0.096-0.024 0.179-0.065 0.25-0.043 0.075-0.105 0.133-0.187 0.174s-0.179 0.061-0.294 0.061c-0.126 0-0.236-0.030-0.329-0.091s-0.165-0.151-0.215-0.268-0.076-0.259-0.076-0.425c0-0.167 0.026-0.308 0.077-0.423s0.123-0.205 0.215-0.265c0.093-0.061 0.201-0.091 0.323-0.091 0.066 0 0.125 0.008 0.179 0.025s0.103 0.040 0.145 0.071c0.043 0.030 0.079 0.068 0.109 0.112zM8.404 18.43h0.103l-0.103-0.015-0 0.015zM13.137 18.784l0.178 0.546h0.543l-0.827-2.394h-0.653l-0.828 2.394h0.543l0.178-0.546h0.866zM13.008 18.389l-0.295-0.906h-0.019l-0.295 0.906h0.609zM15.542 18.394l0.008-0.004c0.13-0.061 0.23-0.148 0.299-0.262s0.103-0.251 0.103-0.41c0-0.158-0.034-0.296-0.102-0.413s-0.165-0.208-0.294-0.272c-0.128-0.065-0.283-0.097-0.464-0.097h-0.946v2.394h0.507v-0.849h0.37l0.454 0.849h0.56l-0.509-0.93 0.013-0.006zM14.653 18.075h0.344c0.097 0 0.177-0.013 0.241-0.040s0.112-0.066 0.143-0.119c0.032-0.053 0.048-0.119 0.048-0.198s-0.016-0.146-0.048-0.201c-0.031-0.055-0.079-0.096-0.144-0.124s-0.145-0.043-0.242-0.043h-0.342v0.725zM16.724 19.33l0.178-0.546h0.866l0.177 0.546h0.543l-0.827-2.394h-0.653l-0.828 2.394h0.543zM17.639 18.389h-0.609l0.295-0.906h0.019l0.295 0.906zM20.783 19.33v-2.394h-0.505v1.505h-0.021l-1.035-1.505h-0.445v2.394h0.507v-1.507h0.018l1.043 1.507h0.438zM21.111 17.353h0.734v1.977h0.501v-1.977h0.734v-0.417h-1.97v0.417zM23.832 16.936h-0.568l0.875 1.547v0.846h0.504v-0.846l0.875-1.547h-0.568l-0.547 1.031h-0.023l-0.547-1.031z"></path>
<path d="M16 4l9.818 4.364v6.545c0 6.055-4.189 11.716-9.818 13.091-5.629-1.375-9.818-7.036-9.818-13.091v-6.545l9.818-4.364zM8.286 17.559c0.030 0.044 0.053 0.094 0.069 0.151h0.515c-0.016-0.118-0.053-0.227-0.111-0.325s-0.132-0.184-0.224-0.256c-0.091-0.072-0.194-0.127-0.312-0.166s-0.244-0.060-0.379-0.060c-0.159 0-0.306 0.028-0.441 0.083s-0.255 0.136-0.357 0.242c-0.102 0.106-0.182 0.235-0.239 0.388s-0.084 0.325-0.084 0.519c0 0.253 0.047 0.471 0.142 0.655s0.228 0.325 0.398 0.424c0.17 0.099 0.368 0.149 0.593 0.149 0.201 0 0.38-0.041 0.536-0.122s0.279-0.198 0.368-0.348c0.089-0.151 0.133-0.332 0.133-0.542v-0.302h-1.004v0.381h0.515c-0.002 0.096-0.024 0.179-0.065 0.25-0.043 0.075-0.105 0.133-0.187 0.174s-0.179 0.061-0.294 0.061c-0.126 0-0.236-0.030-0.329-0.091s-0.165-0.151-0.215-0.268-0.076-0.259-0.076-0.425c0-0.167 0.026-0.308 0.077-0.423s0.123-0.205 0.215-0.265c0.093-0.061 0.201-0.091 0.323-0.091 0.066 0 0.125 0.008 0.179 0.025s0.103 0.040 0.145 0.071c0.043 0.030 0.079 0.068 0.109 0.112zM8.404 18.43h0.103l-0.103-0.015-0 0.015zM11.262 16.936h-0.507v1.511c0 0.091-0.020 0.172-0.061 0.243s-0.096 0.127-0.17 0.167c-0.073 0.041-0.158 0.061-0.256 0.061s-0.183-0.020-0.256-0.061-0.13-0.096-0.171-0.167c-0.040-0.071-0.060-0.152-0.060-0.243v-1.511h-0.507v1.555c0 0.175 0.041 0.327 0.124 0.458s0.199 0.233 0.348 0.306c0.149 0.073 0.323 0.109 0.522 0.109s0.372-0.036 0.521-0.109c0.149-0.073 0.265-0.175 0.348-0.306s0.125-0.284 0.125-0.458v-1.555zM11.549 19.33h0.543l0.178-0.546h0.866l0.178 0.546h0.543l-0.827-2.394h-0.653l-0.828 2.394zM12.399 18.389l0.295-0.906h0.019l0.295 0.906h-0.609zM14.653 18.481h0.37l0.454 0.849h0.56l-0.509-0.93 0.013-0.006 0.008-0.004c0.13-0.061 0.23-0.148 0.299-0.262s0.103-0.251 0.103-0.41c0-0.158-0.034-0.296-0.102-0.413s-0.165-0.208-0.294-0.272c-0.128-0.065-0.283-0.097-0.464-0.097h-0.946v2.394h0.507v-0.849zM14.653 18.075h0.344c0.097 0 0.177-0.013 0.241-0.040s0.112-0.066 0.143-0.119c0.032-0.053 0.048-0.119 0.048-0.198s-0.016-0.146-0.048-0.201c-0.031-0.055-0.079-0.096-0.144-0.124s-0.145-0.043-0.242-0.043h-0.342v0.725zM16.902 18.784h0.866l0.177 0.546h0.543l-0.827-2.394h-0.653l-0.828 2.394h0.543l0.178-0.546zM17.030 18.389l0.295-0.906h0.019l0.295 0.906h-0.609zM20.783 16.936h-0.505v1.505h-0.021l-1.035-1.505h-0.445v2.394h0.507v-1.507h0.018l1.043 1.507h0.438v-2.394zM21.111 16.936v0.417h0.734v1.977h0.501v-1.977h0.734v-0.417h-1.97zM23.264 16.936l0.875 1.547v0.846h0.504v-0.846l0.875-1.547h-0.568l-0.547 1.031h-0.023l-0.547-1.031h-0.568zM12.774 10.742c-0.052 0.052-0.052 0.137 0 0.189l2.235 2.234c0.104 0.104 0.273 0.104 0.377 0l3.839-3.838c0.052-0.052 0.052-0.136 0-0.188l-0.568-0.569c-0.052-0.052-0.137-0.052-0.189-0l-3.083 3.083c-0.104 0.104-0.273 0.104-0.377-0l-1.478-1.479c-0.052-0.052-0.137-0.052-0.189-0l-0.569 0.569z"></path>
</svg>
