<!-- Generated by IcoMoon.io -->
<svg version="1.1" xmlns="http://www.w3.org/2000/svg" width="32" height="32" viewBox="0 0 32 32">
<title>heart-fill</title>
<path d="M22.080 4.96c-2.56 0-4.8 1.44-6.080 3.68v0 0c-1.12-2.4-3.52-3.68-6.080-3.68-3.68 0-6.72 2.88-6.72 6.56 0 1.6 0.64 3.52 1.92 5.44 1.12 1.6 2.56 3.2 4.48 4.96 1.6 1.6 3.36 2.88 4.48 3.68 0.64 0.48 1.12 0.8 1.44 0.96 0.16 0.16 0.32 0.16 0.48 0.32l0.16 0.16 0.16-0.16c0.16 0 0.16-0.16 0.48-0.32s0.8-0.64 1.44-0.96 2.72-2.080 4.48-3.68c1.92-1.76 3.36-3.36 4.48-4.96 0.96-1.92 1.6-3.68 1.6-5.44 0-3.68-3.040-6.56-6.72-6.56z"></path>
</svg>
