<!-- Generated by IcoMoon.io -->
<svg version="1.1" xmlns="http://www.w3.org/2000/svg" width="32" height="32" viewBox="0 0 32 32">
<path d="M28.676 25.827l-11.885-20.57c-0.177-0.306-0.483-0.457-0.791-0.457s-0.617 0.151-0.791 0.457l-11.885 20.57c-0.351 0.611 0.089 1.371 0.791 1.371h23.77c0.703 0 1.143-0.76 0.791-1.371zM6.095 25.145l9.905-17.148 9.905 17.145-19.81 0.003zM15.209 11.6l-6.514 11.257c-0.351 0.608 0.089 1.371 0.791 1.371h13.022c0.706 0 1.146-0.763 0.791-1.371l-6.508-11.257c-0.177-0.306-0.486-0.457-0.791-0.457-0.309 0-0.617 0.151-0.791 0.457v0zM21.323 22.628h-10.645l5.323-9.199 5.323 9.199zM15.209 17.082l-1.628 2.811c-0.351 0.606 0.089 1.363 0.791 1.363h3.257c0.703 0 1.14-0.757 0.791-1.363l-1.628-2.811c-0.174-0.303-0.483-0.454-0.791-0.454s-0.614 0.152-0.791 0.454v0zM16.84 19.893h-1.677l0.84-1.448 0.837 1.448z"></path>
</svg>
