<!-- Generated by IcoMoon.io -->
<svg version="1.1" xmlns="http://www.w3.org/2000/svg" width="32" height="32" viewBox="0 0 32 32">
<path d="M28.735 16.445l-10.127-9.978c-0.021-0.021-0.046-0.038-0.073-0.049s-0.057-0.017-0.087-0.017c-0.030 0-0.059 0.006-0.087 0.017s-0.052 0.028-0.073 0.049l-6.821 6.721c-0.043 0.043-0.067 0.1-0.068 0.161s0.023 0.119 0.065 0.162l0.003 0.003 1.143 1.126-3.349 3.295c-0.043 0.043-0.067 0.1-0.068 0.161s0.023 0.119 0.065 0.162l0.003 0.003 1.129 1.112-5.404 5.344h-1.554c-0.126 0-0.231 0.103-0.231 0.228v1.577c0 0.126 0.103 0.228 0.229 0.228h9.856c0.060 0 0.117-0.023 0.16-0.066l2.175-2.16 1.154 1.137c0.021 0.021 0.046 0.038 0.073 0.049s0.057 0.017 0.087 0.017 0.059-0.006 0.087-0.017c0.027-0.012 0.052-0.028 0.073-0.049l3.346-3.303 1.146 1.129c0.021 0.021 0.046 0.038 0.073 0.049s0.057 0.017 0.087 0.017 0.059-0.006 0.087-0.017c0.027-0.012 0.052-0.028 0.073-0.049l6.821-6.721c0.097-0.086 0.097-0.229 0.008-0.32v0zM12.51 24.697h-4.578l3.84-3.8 2.289 2.255-1.552 1.546zM16.933 22.923l-4.898-4.826 1.96-1.932 4.898 4.826-1.96 1.932zM21.748 20.748l-7.509-7.398 4.209-4.146 7.509 7.401-4.209 4.143z"></path>
</svg>
