<!-- Generated by IcoMoon.io -->
<svg version="1.1" xmlns="http://www.w3.org/2000/svg" width="32" height="32" viewBox="0 0 32 32">
<path d="M16.331 8.886h-1.432c-0.131 0-0.238 0.107-0.238 0.238v8.195c0 0.077 0.036 0.149 0.098 0.193l4.92 3.593c0.107 0.077 0.256 0.056 0.333-0.051l0.851-1.161c0.080-0.11 0.057-0.259-0.051-0.333l-4.245-3.069v-7.367c0-0.131-0.107-0.238-0.238-0.238zM22.874 11.124l4.668 1.14c0.149 0.036 0.295-0.077 0.295-0.229l0.024-4.807c0-0.199-0.229-0.313-0.384-0.188l-4.691 3.664c-0.035 0.027-0.062 0.064-0.078 0.106s-0.019 0.088-0.009 0.132 0.031 0.084 0.062 0.116c0.031 0.032 0.071 0.055 0.114 0.065v0zM27.866 20.087l-1.688-0.58c-0.059-0.020-0.123-0.016-0.179 0.010s-0.1 0.074-0.121 0.133c-0.056 0.152-0.116 0.301-0.179 0.45-0.53 1.253-1.289 2.381-2.259 3.349-0.96 0.963-2.097 1.73-3.349 2.259-1.297 0.548-2.691 0.83-4.099 0.828-1.423 0-2.801-0.277-4.099-0.828-1.252-0.529-2.389-1.297-3.349-2.259-0.967-0.968-1.726-2.096-2.259-3.349-0.545-1.298-0.825-2.692-0.822-4.099 0-1.423 0.277-2.804 0.828-4.102 0.53-1.253 1.289-2.381 2.259-3.349 0.96-0.963 2.097-1.73 3.349-2.259 1.292-0.551 2.673-0.828 4.096-0.828s2.801 0.277 4.099 0.828c1.252 0.529 2.389 1.297 3.349 2.259 0.304 0.307 0.589 0.625 0.851 0.961l1.78-1.393c-2.343-2.995-5.989-4.921-10.085-4.918-7.132 0.003-12.86 5.796-12.788 12.931 0.071 7.010 5.772 12.669 12.794 12.669 5.522 0 10.225-3.501 12.017-8.403 0.045-0.125-0.021-0.265-0.146-0.31v0z"></path>
</svg>
