<!-- Generated by IcoMoon.io -->
<svg version="1.1" xmlns="http://www.w3.org/2000/svg" width="32" height="32" viewBox="0 0 32 32">
<title>home</title>
<path d="M28.32 15.84l-11.68-11.68c-0.16-0.16-0.32-0.32-0.64-0.32-0.16 0-0.48 0.16-0.64 0.32l-11.68 11.68c-0.16 0.16-0.32 0.32-0.32 0.64-0.16 0.16-0.16 0.32-0.16 0.64 0 0.96 0.8 1.76 1.76 1.76h1.28v9.12h19.52v-9.12h1.28c0.48 0 0.96-0.16 1.28-0.48 0.16-0.16 0.32-0.32 0.32-0.64 0.16-0.16 0.16-0.48 0.16-0.64 0-0.48-0.16-0.96-0.48-1.28zM17.6 26.080h-3.2v-5.76h3.2v5.76zM23.68 16.8v9.12h-4.32v-6.4c0-0.64-0.48-1.12-1.12-1.12h-4.48c-0.64 0-1.12 0.48-1.12 1.12v6.4h-4.32v-9.12h-2.72l10.4-10.4 10.4 10.4h-2.72z"></path>
</svg>
