<!-- Generated by IcoMoon.io -->
<svg version="1.1" xmlns="http://www.w3.org/2000/svg" width="32" height="32" viewBox="0 0 32 32">
<path d="M24.128 9.792v-4.288h2.752c0.141 0 0.256-0.115 0.256-0.256v-1.792c0-0.141-0.115-0.256-0.256-0.256h-20.224c-0.141 0-0.256 0.115-0.256 0.256v1.792c0 0.141 0.115 0.256 0.256 0.256h2.752v4.288c0 2.608 1.357 4.902 3.405 6.208-2.048 1.306-3.405 3.6-3.405 6.208v4.288h-2.752c-0.141 0-0.256 0.115-0.256 0.256v1.792c0 0.141 0.115 0.256 0.256 0.256h20.224c0.141 0 0.256-0.115 0.256-0.256v-1.792c0-0.141-0.115-0.256-0.256-0.256h-2.752v-4.288c0-2.608-1.357-4.902-3.405-6.208 2.048-1.306 3.405-3.6 3.405-6.208zM21.824 22.208v4.288h-10.112v-4.288c0-1.35 0.525-2.621 1.482-3.574 0.954-0.957 2.224-1.482 3.574-1.482s2.621 0.525 3.574 1.482c0.957 0.954 1.482 2.224 1.482 3.574zM21.824 9.792c0 1.35-0.525 2.621-1.482 3.574-0.954 0.957-2.224 1.482-3.574 1.482s-2.621-0.525-3.574-1.482c-0.472-0.468-0.845-1.025-1.1-1.638s-0.384-1.272-0.382-1.936v-4.288h10.112v4.288z"></path>
</svg>
