<!-- Generated by IcoMoon.io -->
<svg version="1.1" xmlns="http://www.w3.org/2000/svg" width="32" height="32" viewBox="0 0 32 32">
<path d="M4.8 3.2l2.031 22.972 9.255 2.628 9.219-2.628 2.071-22.972h-22.575zM23.597 24.757l-7.511 2.141-7.545-2.141-1.745-19.729h18.578l-1.778 19.729zM8.985 7.908l0.052 0.748 0.698 7.8 9.828-0.003-0.351 3.646-3.151 0.852v0.006h-0.025l-3.151-0.852-0.2-2.252h-2.8l0.348 4.452 5.803 1.6h0.052v-0.012l5.775-1.591 0.052-0.502 0.652-7.452 0.098-0.748-10.332 0.006-0.252-2.898h10.834l0.052-0.6 0.148-1.452 0.052-0.748h-14.185z"></path>
</svg>
