<!-- Generated by IcoMoon.io -->
<svg version="1.1" xmlns="http://www.w3.org/2000/svg" width="32" height="32" viewBox="0 0 32 32">
<path d="M27.886 6.4h-23.771c-0.506 0-0.914 0.409-0.914 0.914v18.286c0 0.506 0.409 0.914 0.914 0.914h23.771c0.506 0 0.914-0.408 0.914-0.914v-18.286c0-0.506-0.409-0.914-0.914-0.914zM26.743 24.457h-21.486v-16h21.486v16zM18.809 15.429h3.526c0.037 0 0.066-0.103 0.066-0.229v-1.371c0-0.126-0.029-0.229-0.066-0.229h-3.526c-0.037 0-0.066 0.103-0.066 0.229v1.371c0 0.126 0.028 0.229 0.066 0.229zM18.946 19.543h5.306c0.112 0 0.203-0.103 0.203-0.229v-1.371c0-0.126-0.091-0.229-0.203-0.229h-5.306c-0.112 0-0.203 0.103-0.203 0.229v1.371c0 0.126 0.091 0.229 0.203 0.229v0zM7.771 21.057h1.254c0.12 0 0.217-0.094 0.226-0.214 0.109-1.443 1.314-2.586 2.777-2.586s2.669 1.143 2.777 2.586c0.009 0.12 0.106 0.214 0.226 0.214h1.254c0.031 0 0.062-0.006 0.090-0.018s0.054-0.030 0.076-0.052c0.021-0.023 0.038-0.049 0.049-0.078s0.016-0.060 0.014-0.091c-0.080-1.523-0.914-2.848-2.131-3.603 0.537-0.59 0.833-1.359 0.831-2.157 0-1.769-1.426-3.2-3.183-3.2s-3.183 1.431-3.183 3.2c0 0.831 0.314 1.586 0.831 2.157-0.62 0.384-1.137 0.912-1.508 1.54s-0.585 1.335-0.623 2.063c-0.011 0.132 0.091 0.24 0.223 0.24v0zM12.029 13.571c0.814 0 1.477 0.666 1.477 1.486s-0.663 1.486-1.477 1.486c-0.814 0-1.477-0.666-1.477-1.486s0.663-1.486 1.477-1.486z"></path>
</svg>
