<!-- Generated by IcoMoon.io -->
<svg version="1.1" xmlns="http://www.w3.org/2000/svg" width="32" height="32" viewBox="0 0 32 32">
<path d="M27.353 11.186c0.543-1.23 1.070-3.023 1.070-4.393 0-3.637-3.983-4.92-10.483-1.93-5.38-0.36-10.56 3.683-11.853 9.323 1.543-1.743 3.913-4.113 6.1-5.057-2.717 2.413-5.030 5.47-6.787 8.657-1.037 1.897-2.2 4.96-2.2 7.25 0 4.93 4.643 4.327 9.013 2.1 1.57 0.77 3.327 0.78 5.083 0.78 4.857 0 9.213-2.713 10.84-7.3h-6.040c-2.627 4.43-9.84 2.65-9.84-2.373h16.44c0.32-2.18-0.083-4.787-1.343-7.057v0zM6.427 20.543c0.887 2.557 2.687 4.793 5.013 6.167-4.437 2.447-8.663 1.453-5.013-6.167v0zM12.227 15.1c0.1-2.757 2.513-4.743 5.2-4.743 2.67 0 5.1 1.987 5.2 4.743h-10.4zM21.453 5.72c1.070-0.513 2.427-1.1 3.627-1.1 1.57 0 2.713 1.087 2.713 2.687 0 1-0.37 2.45-0.73 3.393-1.31-2.117-3.297-4.080-5.61-4.98v0z"></path>
</svg>
