<!-- Generated by IcoMoon.io -->
<svg version="1.1" xmlns="http://www.w3.org/2000/svg" width="32" height="32" viewBox="0 0 32 32">
<path d="M28.090 23.804h-1.761c-0.137 0-0.252 0.115-0.252 0.252v2.023h-20.614v-20.617h20.617v2.023c0 0.138 0.115 0.252 0.252 0.252h1.761c0.137 0 0.252-0.111 0.252-0.252v-3.28c0-0.556-0.448-1.005-1.005-1.005h-23.135c-0.556 0-1.005 0.449-1.005 1.005v23.132c0 0.556 0.449 1.005 1.005 1.005h23.132c0.556 0 1.005-0.449 1.005-1.005v-3.28c0-0.141-0.115-0.252-0.252-0.252zM28.538 14.592h-10.279v-2.488c0-0.219-0.255-0.344-0.426-0.206l-4.645 3.667c-0.031 0.024-0.057 0.056-0.074 0.092s-0.026 0.075-0.026 0.115c0 0.040 0.009 0.079 0.026 0.115s0.043 0.067 0.074 0.092l4.645 3.666c0.173 0.138 0.426 0.013 0.426-0.206v-2.488h10.279c0.144 0 0.262-0.118 0.262-0.262v-1.833c0-0.144-0.118-0.262-0.262-0.262z"></path>
</svg>
