<!-- Generated by IcoMoon.io -->
<svg version="1.1" xmlns="http://www.w3.org/2000/svg" width="32" height="32" viewBox="0 0 32 32">
<path d="M10.2 27.2v0.9c0 0.5-0.4 0.9-0.9 0.9h-2.7c-0.5 0-0.9-0.4-0.9-0.9v-0.9h4.5zM21.8 27.2v0.9c0 0.5 0.4 0.9 0.9 0.9h2.7c0.5 0 0.9-0.4 0.9-0.9v-0.9h-4.5zM28.1 23.6h-24.2c-0.5 0-0.9 0.4-0.9 0.9v0.9c0 0.5 0.4 0.9 0.9 0.9h24.2c0.5 0 0.9-0.4 0.9-0.9v-0.9c0-0.5-0.4-0.9-0.9-0.9zM9.5 6.5c0 0.3 0.1 0.5 0.3 0.7l3.3 2.6c0.1 0.1 0.3 0.2 0.5 0.2s0.3 0 0.5 0c0.2 0 0.3-0.2 0.4-0.3 0-0.1 0.1-0.3 0.1-0.5v-0.9h6.3c0.5 0 0.9-0.4 0.9-0.9v-1.8c0-0.5-0.4-0.9-0.9-0.9h-6.3v-0.9c0-0.3-0.2-0.7-0.5-0.8-0.2 0-0.3-0.1-0.5 0-0.2 0-0.3 0-0.5 0.2l-3.3 2.6c-0.2 0.2-0.3 0.4-0.3 0.7z"></path>
<path d="M25.1 20.4c0 1.1-0.9 2-2 2s-2-0.9-2-2 0.9-2 2-2 2 0.9 2 2z"></path>
<path d="M9.1 20.4c0 1.1-0.9 2-2 2s-2-0.9-2-2 0.9-2 2-2 2 0.9 2 2z"></path>
<path d="M28.6 17.9c0 0-0.2-0.2-0.2-0.2 0-0.2 0-0.8 0-0.9 0 0 0 0 0 0 0.1-0.2 0.3-0.4 0.2-0.7 0 0 0-0.1-0.1-0.2 0 0-0.1 0-0.2 0 0 0-0.3 0-0.5 0-0.6 0-1.7-0.1-2-0.2h-0.5c-0.1-0.2-2.8-1.1-4.2-1.4-1.3-0.2-3.9-0.5-5.7-0.2-1.6 0.3-2.7 0.9-3.5 1.4h-0.2c-0.3 0.3-0.5 0.4-0.6 0.5-0.2 0.1-0.3 0.2-0.6 0.2 0 0-0.3 0-0.6 0-1.5 0-5 0.3-6.4 1.4 0 0-0.3 0.2-0.5 0.7 0 0.2 0 0.5 0 0.8v0c0 0.1 0 0.2 0 0.2 0 2.1 0.3 2.2 0.5 2.3 0.3 0 1.1 0 1.5 0-0.2-0.4-0.3-0.8-0.3-1.2 0-1.4 1.1-2.5 2.5-2.5s2.5 1.1 2.5 2.5-0.1 0.8-0.3 1.2h11.5c-0.2-0.3-0.3-0.8-0.3-1.2 0-1.4 1.1-2.5 2.5-2.5s2.5 1.1 2.5 2.5 0 0.4 0 0.6l2.3-0.3c0.5 0 1-0.4 1.1-1.1 0-0.1 0-0.2 0-0.3v0c0-0.7 0-1-0.3-1.4v0zM23.2 16.4c0 0.1-0.2 0.2-0.3 0.3-0.1 0-0.3 0.1-0.4 0.1l-10.5 0.5s0 0 0 0c1.7-1.2 3-1.7 3.8-1.8 0.6-0.1 1.3-0.2 1.9-0.2s0.8 0 1.2 0c1.1 0 1.9 0.2 2.2 0.3 0.5 0 1.4 0.4 2.1 0.7 0 0 0 0 0 0s0 0 0 0v0c0 0 0 0 0 0.1v0z"></path>
</svg>
