<!-- Generated by IcoMoon.io -->
<svg version="1.1" xmlns="http://www.w3.org/2000/svg" width="32" height="32" viewBox="0 0 32 32">
<path d="M28.464 13.78l-0.007-0.027-3.791-9.634c-0.169-0.544-0.672-0.919-1.244-0.919h-15.368c-0.574 0-1.085 0.382-1.247 0.933l-3.555 9.56-0.007 0.027c-0.044 0.166-0.057 0.335-0.034 0.5-0.003 0.054-0.007 0.108-0.007 0.162v12.364c0.001 0.545 0.218 1.067 0.603 1.452s0.907 0.602 1.452 0.603h21.194c1.132 0 2.054-0.923 2.058-2.055v-12.364c0-0.044 0-0.088-0.003-0.125 0.014-0.166 0-0.324-0.044-0.476zM18.468 12.327l-0.010 0.53c-0.027 1.517-1.075 2.538-2.605 2.538-0.747 0-1.389-0.24-1.852-0.696s-0.716-1.091-0.73-1.842l-0.010-0.53h-6.954l2.686-6.532h13.489l2.761 6.532h-6.775zM5.797 14.922h5.315c0.821 1.929 2.568 3.068 4.744 3.068 1.139 0 2.196-0.318 3.051-0.919 0.75-0.527 1.335-1.264 1.713-2.149h5.288v11.283h-20.112v-11.283z"></path>
</svg>
