<!-- Generated by IcoMoon.io -->
<svg version="1.1" xmlns="http://www.w3.org/2000/svg" width="32" height="32" viewBox="0 0 32 32">
<title>info</title>
<path d="M14.4 5.501c0 0.61 0.242 1.196 0.674 1.627s1.017 0.674 1.627 0.674c0.61 0 1.196-0.242 1.627-0.674s0.674-1.017 0.674-1.627-0.242-1.196-0.674-1.627c-0.432-0.432-1.017-0.674-1.627-0.674s-1.196 0.242-1.627 0.674c-0.432 0.432-0.674 1.017-0.674 1.627v0zM17.852 11.542h-2.301c-0.158 0-0.288 0.129-0.288 0.288v16.683c0 0.158 0.129 0.288 0.288 0.288h2.301c0.158 0 0.288-0.129 0.288-0.288v-16.683c0-0.158-0.129-0.288-0.288-0.288z"></path>
</svg>
