<!-- Generated by IcoMoon.io -->
<svg version="1.1" xmlns="http://www.w3.org/2000/svg" width="32" height="32" viewBox="0 0 32 32">
<path d="M27.072 3.2h-2.56c-0.141 0-0.256 0.115-0.256 0.256v25.088c0 0.141 0.115 0.256 0.256 0.256h2.56c0.141 0 0.256-0.115 0.256-0.256v-25.088c0-0.141-0.115-0.256-0.256-0.256zM20.672 3.2h-14.848c-0.566 0-1.024 0.477-1.024 1.066v23.466c0 0.589 0.458 1.066 1.024 1.066h14.848c0.566 0 1.024-0.477 1.024-1.066v-23.466c0-0.589-0.458-1.066-1.024-1.066v0zM12.224 26.496h-5.12v-5.632h5.12v5.632zM12.224 18.816h-5.12v-5.632h5.12v5.632zM12.224 11.136h-5.12v-5.632h5.12v5.632zM19.392 26.496h-5.12v-5.632h5.12v5.632zM19.392 18.816h-5.12v-5.632h5.12v5.632zM19.392 11.136h-5.12v-5.632h5.12v5.632z"></path>
</svg>
