<!-- Generated by IcoMoon.io -->
<svg version="1.1" xmlns="http://www.w3.org/2000/svg" width="32" height="32" viewBox="0 0 32 32">
<path d="M16.32 4.96c0.32 0 0.64-0.32 0.64-0.64v-2.56c0-0.32-0.32-0.64-0.64-0.64s-0.64 0.32-0.64 0.64v2.56c0 0.48 0.32 0.64 0.64 0.64zM9.12 7.2c0 0 0.16 0.16 0.16 0.16 0.16 0 0.16 0 0.32 0s0.32 0 0.48-0.16 0.32-0.64 0-0.96l-1.6-1.92c-0.16-0.32-0.64-0.32-0.96 0-0.32 0.16-0.32 0.64 0 0.96l1.6 1.92zM6.080 13.6c0.32 0 0.64-0.16 0.64-0.48s-0.16-0.64-0.48-0.8l-2.56-0.48c-0.32 0-0.64 0.16-0.8 0.48s0.16 0.64 0.48 0.8l2.72 0.48c0 0 0 0 0 0zM7.040 19.36l-2.24 1.28c-0.32 0.16-0.48 0.64-0.16 0.96 0 0 0.16 0.16 0.16 0.16s0.16 0.16 0.16 0.16c0.16 0 0.16 0 0.32 0s0.16 0 0.16-0.16l2.24-1.28c0.32-0.16 0.32-0.64 0.16-0.96s-0.48-0.32-0.8-0.16zM27.84 20.64l-2.24-1.28c-0.32-0.16-0.64 0-0.96 0.16-0.16 0.32 0 0.64 0.16 0.96l2.24 1.28c0 0 0.16 0 0.16 0.16 0.16 0 0.16 0 0.32 0s0.16 0 0.16-0.16c0 0 0.16-0.16 0.16-0.16 0.32-0.48 0.32-0.8 0-0.96zM29.6 12.32c0-0.32-0.32-0.64-0.8-0.48l-2.56 0.48c-0.32 0-0.64 0.32-0.48 0.8 0 0.32 0.32 0.48 0.64 0.48 0 0 0 0 0.16 0l2.56-0.48c0.32 0 0.64-0.48 0.48-0.8zM22.56 7.36c0.16 0.16 0.32 0.16 0.48 0.16s0.32 0 0.48-0.16l1.6-1.92c0.16-0.32 0.16-0.64 0-0.96-0.32-0.16-0.64-0.16-0.96 0l-1.76 1.92c-0.16 0.32-0.16 0.64 0.16 0.96zM18.88 12.8h-5.28c-0.32 0-0.64 0.32-0.64 0.64s0.32 0.64 0.64 0.64h2.080v7.040c0 0.32 0.32 0.64 0.64 0.64s0.64-0.32 0.64-0.64v-7.040h1.92c0.32 0 0.64-0.32 0.64-0.64s-0.32-0.64-0.64-0.64z"></path>
<path d="M23.84 11.040c-0.48-1.12-1.28-2.080-2.24-2.88-0.48-0.32-0.96-0.64-1.44-0.96s-1.12-0.48-1.76-0.64-2.56-0.32-3.84 0c-1.6 0.32-2.88 1.12-4 2.080-1.28 1.12-2.080 2.4-2.4 4-0.48 1.76-0.32 3.52 0.32 5.12 0.32 0.8 0.64 1.44 1.12 2.080s1.12 1.28 1.76 1.76c0.16 0.16 0.32 0.32 0.32 0.48v0.96c-0.64 0-1.28 0.64-1.28 1.28v1.92c0 0.64 0.16 1.28 0.32 1.76s0.48 0.96 0.96 1.44 0.96 0.8 1.44 0.96c0.48 0.16 1.12 0.32 1.76 0.32h2.72c0.64 0 1.28-0.16 1.76-0.32s0.96-0.48 1.44-0.96c0.48-0.48 0.8-0.96 0.96-1.44s0.32-1.12 0.32-1.76v-1.92c0-0.64-0.64-1.28-1.28-1.28v-0.96c0-0.16 0.16-0.48 0.32-0.48 1.12-0.8 1.92-1.76 2.56-2.88 0.32-0.64 0.48-1.28 0.8-1.92 0.16-0.64 0.32-1.28 0.32-2.080-0.16-1.28-0.48-2.56-0.96-3.68zM20.8 26.4c0 1.76-1.44 3.2-3.2 3.2h-2.56c-1.76 0-3.2-1.44-3.2-3.2v-1.92h8.96v1.92zM20.32 20.48c-0.32 0.16-0.48 0.48-0.64 0.64-0.16 0.32-0.32 0.64-0.32 0.96v0.96h-6.4v-0.96c0-0.32-0.16-0.64-0.32-0.96s-0.32-0.48-0.64-0.64c-2.4-1.76-3.52-4.64-2.72-7.68 0.64-2.56 2.72-4.64 5.28-5.12 2.080-0.48 4.32 0 6.080 1.44 1.6 1.28 2.56 3.36 2.56 5.44 0.16 2.4-0.96 4.64-2.88 5.92z"></path>
</svg>
