<!-- Generated by IcoMoon.io -->
<svg version="1.1" xmlns="http://www.w3.org/2000/svg" width="32" height="32" viewBox="0 0 32 32">
<path d="M27.776 3.2h-23.552c-0.566 0-1.024 0.458-1.024 1.024v23.552c0 0.566 0.458 1.024 1.024 1.024h23.552c0.566 0 1.024-0.458 1.024-1.024v-23.552c0-0.566-0.458-1.024-1.024-1.024zM26.496 26.496h-20.992v-20.992h20.992v20.992zM9.37 16.384h1.622c0.118 0 0.218-0.096 0.218-0.218v-2.525c0-0.63 0.509-1.139 1.136-1.139h6.582v1.709c0 0.182 0.208 0.282 0.349 0.17l3.491-2.742c0.112-0.086 0.112-0.256 0-0.342l-3.491-2.742c-0.141-0.112-0.349-0.010-0.349 0.17v1.709h-6.586c-1.763 0-3.19 1.434-3.19 3.203v2.525c0 0.128 0.096 0.224 0.218 0.224zM9.235 20.701l3.491 2.742c0.141 0.112 0.349 0.010 0.349-0.17v-1.709h6.582c1.763 0 3.19-1.434 3.19-3.203v-2.525c0-0.118-0.096-0.218-0.218-0.218h-1.622c-0.118 0-0.218 0.096-0.218 0.218v2.525c0 0.63-0.509 1.139-1.136 1.139h-6.579v-1.709c0-0.182-0.208-0.282-0.349-0.17l-3.491 2.742c-0.112 0.080-0.112 0.25 0 0.336v0z"></path>
</svg>
