<!-- Generated by IcoMoon.io -->
<svg version="1.1" xmlns="http://www.w3.org/2000/svg" width="32" height="32" viewBox="0 0 32 32">
<path d="M16.5 14h3.5v-2h-2v-1h-2v1.050c-0.608 0.123-1.148 0.468-1.515 0.967s-0.537 1.117-0.475 1.734c0.062 0.617 0.352 1.189 0.812 1.604s1.058 0.645 1.678 0.645h1c0.133 0 0.26 0.053 0.354 0.146s0.146 0.221 0.146 0.354c0 0.133-0.053 0.26-0.146 0.354s-0.221 0.146-0.354 0.146h-3.5v2h2v1h2v-1.050c0.608-0.124 1.148-0.468 1.515-0.967s0.537-1.117 0.475-1.734c-0.062-0.617-0.352-1.189-0.812-1.604s-1.058-0.645-1.678-0.645h-1c-0.133 0-0.26-0.053-0.354-0.146s-0.146-0.221-0.146-0.354c0-0.133 0.053-0.26 0.146-0.354s0.221-0.146 0.354-0.146z"></path>
<path d="M29 13h-2.020c-0.029-0.79-0.219-1.566-0.56-2.279s-0.824-1.349-1.42-1.869v-3.852c0-0.186-0.052-0.368-0.149-0.526s-0.237-0.286-0.404-0.369-0.352-0.118-0.537-0.102c-0.185 0.017-0.362 0.085-0.51 0.196l-3.733 2.8h-4.667c-5.51 0-9.463 3.241-9.948 8h-0.052c-0.265 0-0.52-0.105-0.707-0.293s-0.293-0.442-0.293-0.707v-2h-2v2c0.001 0.795 0.317 1.558 0.88 2.12s1.325 0.879 2.12 0.88h0.070c0.145 1.311 0.571 2.576 1.249 3.708s1.593 2.104 2.681 2.849v3.443c0 0.265 0.105 0.52 0.293 0.707s0.442 0.293 0.707 0.293h4c0.265 0 0.52-0.105 0.707-0.293s0.293-0.442 0.293-0.707v-2h3v2c0 0.265 0.105 0.52 0.293 0.707s0.442 0.293 0.707 0.293h4c0.265 0 0.52-0.105 0.707-0.293s0.293-0.442 0.293-0.707v-3.363c0.722-0.343 1.353-0.851 1.843-1.482s0.824-1.37 0.976-2.155h2.181c0.265 0 0.52-0.105 0.707-0.293s0.293-0.442 0.293-0.707v-5c0-0.265-0.105-0.52-0.293-0.707s-0.442-0.293-0.707-0.293zM28 18h-2.876c-0.305 2.753-0.823 3.485-3.124 4.315v3.685h-2v-3h-7v3h-2v-3.622c-1.204-0.572-2.22-1.477-2.929-2.606s-1.080-2.438-1.071-3.772c0-4.835 4.018-7 8-7h5.334l2.666-2v2.776c2.418 1.86 1.913 3.186 2.018 5.224h2.982v3z"></path>
</svg>
