<!-- Generated by IcoMoon.io -->
<svg version="1.1" xmlns="http://www.w3.org/2000/svg" width="32" height="32" viewBox="0 0 32 32">
<path d="M14.577 21.215c0 0.377 0.15 0.739 0.417 1.006s0.628 0.417 1.006 0.417c0.377 0 0.739-0.15 1.006-0.417s0.416-0.628 0.416-1.006c0-0.377-0.15-0.739-0.416-1.006s-0.628-0.416-1.006-0.416c-0.377 0-0.739 0.15-1.006 0.416s-0.417 0.628-0.417 1.006v0zM16.711 17.897c0.13 0 0.237-0.107 0.237-0.237v-8.059c0-0.13-0.107-0.237-0.237-0.237h-1.422c-0.13 0-0.237 0.107-0.237 0.237v8.059c0 0.13 0.107 0.237 0.237 0.237h1.422zM28.562 12.326h-1.757c-0.077 0-0.148 0.036-0.193 0.098l-3.155 4.349-1.478-2.038c-0.022-0.031-0.051-0.055-0.084-0.072s-0.071-0.026-0.108-0.025h-1.757c-0.193 0-0.305 0.219-0.193 0.376l3.236 4.465c0.044 0.061 0.102 0.11 0.169 0.144s0.141 0.052 0.216 0.052 0.149-0.018 0.216-0.052c0.067-0.034 0.125-0.083 0.169-0.144l4.912-6.776c0.113-0.157 0-0.376-0.193-0.376zM27.258 21.393h-1.902c-0.163 0-0.314 0.086-0.403 0.222-0.42 0.668-0.916 1.286-1.475 1.843-0.963 0.963-2.103 1.731-3.357 2.261-1.3 0.548-2.698 0.83-4.11 0.827-1.425 0-2.809-0.279-4.109-0.827-1.254-0.53-2.394-1.297-3.357-2.261-0.966-0.96-1.735-2.099-2.264-3.354-0.551-1.298-0.83-2.681-0.83-4.104s0.279-2.806 0.83-4.104c0.53-1.256 1.292-2.385 2.264-3.354s2.101-1.73 3.357-2.261c1.3-0.548 2.698-0.83 4.109-0.827 1.425 0 2.809 0.279 4.11 0.827 1.256 0.53 2.385 1.292 3.357 2.261 0.563 0.563 1.055 1.179 1.475 1.843 0.086 0.139 0.24 0.222 0.403 0.222h1.902c0.178 0 0.29-0.187 0.213-0.344-2.086-4.145-6.355-7.004-11.303-7.063-7.075-0.083-12.954 5.704-12.968 12.776-0.015 7.078 5.727 12.823 12.811 12.823 5.013 0 9.351-2.874 11.457-7.064 0.018-0.036 0.027-0.076 0.025-0.116s-0.014-0.080-0.035-0.114c-0.021-0.034-0.051-0.063-0.086-0.083s-0.075-0.030-0.115-0.031z"></path>
</svg>
