<!-- Generated by IcoMoon.io -->
<svg version="1.1" xmlns="http://www.w3.org/2000/svg" width="32" height="32" viewBox="0 0 32 32">
<path d="M25.782 3.2h-15.709c-0.16 0-0.291 0.131-0.291 0.291v2.327c0 0.16 0.131 0.291 0.291 0.291h6.589l-5.673 19.782h-5.898c-0.16 0-0.291 0.131-0.291 0.291v2.327c0 0.16 0.131 0.291 0.291 0.291h15.709c0.16 0 0.291-0.131 0.291-0.291v-2.327c0-0.16-0.131-0.291-0.291-0.291h-6.785l5.673-19.782h6.095c0.16 0 0.291-0.131 0.291-0.291v-2.327c0-0.16-0.131-0.291-0.291-0.291z"></path>
</svg>
