<!-- Generated by IcoMoon.io -->
<svg version="1.1" xmlns="http://www.w3.org/2000/svg" width="32" height="32" viewBox="0 0 32 32">
<title>job</title>
<path d="M5.6 28.802c-0.66 0-1.225-0.251-1.695-0.752s-0.705-1.104-0.705-1.808v-15.36c0-0.704 0.235-1.307 0.705-1.808s1.035-0.752 1.695-0.752h4v-2.568c0-0.706 0.235-1.308 0.705-1.806s1.035-0.747 1.695-0.747h8c0.66 0 1.225 0.251 1.695 0.752s0.705 1.104 0.705 1.808v2.56h4c0.66 0 1.225 0.251 1.695 0.752s0.705 1.104 0.705 1.808v15.36c0 0.704-0.235 1.307-0.705 1.808s-1.035 0.752-1.695 0.752h-20.8zM12 8.322h8v-2.56h-8v2.56zM26.4 20.695h-6.4v1.707c0 0.363-0.115 0.667-0.345 0.912s-0.515 0.368-0.855 0.368h-5.6c-0.34 0-0.625-0.123-0.855-0.368s-0.345-0.549-0.345-0.912v-1.707h-6.4v5.547h20.8v-5.547zM14.4 21.122h3.2v-3.413h-3.2v3.413zM5.6 18.135h6.4v-1.707c0-0.363 0.115-0.667 0.345-0.912s0.515-0.368 0.855-0.368h5.6c0.34 0 0.625 0.123 0.855 0.368s0.345 0.549 0.345 0.912v1.707h6.4v-7.253h-20.8v7.253z"></path>
</svg>
