<!-- Generated by IcoMoon.io -->
<svg version="1.1" xmlns="http://www.w3.org/2000/svg" width="32" height="32" viewBox="0 0 32 32">
<path d="M19.073 3.2c-5.372 0-9.726 4.354-9.726 9.726 0 2.249 0.765 4.319 2.044 5.967l-1.315 1.315-1.993-1.993c-0.049-0.048-0.114-0.074-0.182-0.074s-0.134 0.027-0.182 0.074l-1.273 1.273c-0.048 0.049-0.074 0.114-0.074 0.182s0.027 0.134 0.074 0.182l1.993 1.993-1.437 1.436-1.993-1.993c-0.049-0.048-0.114-0.074-0.182-0.074s-0.134 0.027-0.182 0.074l-1.273 1.273c-0.048 0.049-0.074 0.114-0.074 0.182s0.027 0.134 0.074 0.182l1.993 1.993-2.089 2.089c-0.048 0.048-0.074 0.113-0.074 0.181s0.027 0.133 0.074 0.181l1.353 1.353c0.099 0.099 0.262 0.099 0.362 0l8.114-8.114c1.708 1.325 3.809 2.043 5.97 2.041 5.372 0 9.727-4.355 9.727-9.726s-4.355-9.726-9.727-9.726zM24.231 18.084c-1.376 1.379-3.209 2.137-5.158 2.137s-3.782-0.758-5.158-2.137c-1.379-1.376-2.137-3.209-2.137-5.158s0.758-3.782 2.137-5.158c1.376-1.379 3.209-2.137 5.158-2.137s3.782 0.758 5.158 2.137c1.379 1.376 2.137 3.209 2.137 5.158s-0.758 3.782-2.137 5.158z"></path>
</svg>
