<!-- Generated by IcoMoon.io -->
<svg version="1.1" xmlns="http://www.w3.org/2000/svg" width="32" height="32" viewBox="0 0 32 32">
<path fill="#000" d="M16.314 4.706l-9.241 4.107v6.16c0 5.698 3.943 11.027 9.241 12.321 5.298-1.294 9.241-6.622 9.241-12.321v-6.16l-9.241-4.107z"></path>
<path fill="#fff" d="M14.035 10.56c-0.073-0.074-0.193-0.074-0.266-0l-0.446 0.446c-0.074 0.074-0.073 0.193 0 0.266l1.97 1.969c0.147 0.147 0.385 0.147 0.532-0l3.48-3.479c0.073-0.073 0.073-0.193 0-0.266l-0.446-0.446c-0.074-0.074-0.193-0.074-0.266-0l-2.768 2.768c-0.147 0.147-0.386 0.147-0.533-0l-1.258-1.258z"></path>
<path fill="#fff" d="M4.221 14.972h23.373c0.109 0 0.174 0.121 0.114 0.212l-1.805 2.702c-0.061 0.092-0.061 0.211 0 0.302l1.805 2.702c0.060 0.091-0.005 0.212-0.114 0.212h-23.373c-0.109 0-0.174-0.121-0.114-0.212l1.805-2.702c0.061-0.092 0.061-0.211 0-0.302l-1.805-2.702c-0.060-0.091 0.005-0.212 0.114-0.212zM11.65 16.91h-0.477v1.422c0 0.086-0.019 0.162-0.057 0.229s-0.091 0.119-0.16 0.157c-0.068 0.038-0.149 0.057-0.241 0.057s-0.172-0.019-0.241-0.057-0.123-0.091-0.161-0.157c-0.037-0.067-0.056-0.143-0.056-0.229v-1.422h-0.477v1.463c0 0.164 0.039 0.308 0.117 0.431s0.187 0.219 0.327 0.288c0.14 0.068 0.304 0.102 0.492 0.102s0.35-0.034 0.49-0.102c0.14-0.069 0.249-0.165 0.327-0.288s0.118-0.267 0.118-0.431v-1.463zM8.85 17.497c0.028 0.041 0.050 0.088 0.065 0.142h0.485c-0.015-0.111-0.050-0.213-0.105-0.306s-0.125-0.173-0.211-0.241c-0.085-0.067-0.183-0.12-0.293-0.156s-0.229-0.056-0.357-0.056c-0.149 0-0.288 0.026-0.415 0.078s-0.24 0.128-0.336 0.228c-0.096 0.1-0.171 0.221-0.225 0.365s-0.079 0.306-0.079 0.488c0 0.238 0.044 0.443 0.133 0.616s0.215 0.305 0.375 0.399c0.16 0.093 0.346 0.14 0.558 0.14 0.19 0 0.358-0.038 0.505-0.114s0.262-0.186 0.346-0.328c0.084-0.142 0.126-0.312 0.126-0.51v-0.284h-0.945v0.359h0.485c-0.002 0.090-0.022 0.169-0.062 0.235-0.040 0.070-0.099 0.125-0.176 0.164s-0.169 0.057-0.277 0.057c-0.119 0-0.222-0.029-0.31-0.086s-0.155-0.142-0.203-0.252-0.072-0.243-0.072-0.4c0-0.157 0.024-0.29 0.073-0.398s0.116-0.193 0.203-0.25c0.087-0.057 0.189-0.086 0.304-0.086 0.062 0 0.118 0.008 0.169 0.023s0.097 0.038 0.137 0.067c0.040 0.029 0.075 0.064 0.102 0.106zM8.961 18.316h0.097l-0.097-0.014-0 0.014zM13.415 18.65l0.167 0.514h0.511l-0.778-2.253h-0.615l-0.779 2.253h0.511l0.167-0.514h0.815zM13.294 18.278l-0.277-0.853h-0.018l-0.278 0.853h0.573zM15.679 18.282l0.008-0.004c0.123-0.057 0.216-0.139 0.281-0.246s0.097-0.237 0.097-0.386c0-0.149-0.032-0.278-0.096-0.388s-0.155-0.196-0.277-0.256c-0.12-0.061-0.266-0.091-0.436-0.091h-0.891v2.253h0.477v-0.799h0.348l0.428 0.799h0.527l-0.479-0.875 0.013-0.006zM14.842 17.982h0.324c0.091 0 0.167-0.012 0.227-0.037s0.105-0.062 0.134-0.112c0.030-0.050 0.045-0.112 0.045-0.186s-0.015-0.138-0.045-0.189c-0.029-0.051-0.075-0.090-0.136-0.117s-0.136-0.041-0.228-0.041h-0.322v0.682zM16.791 19.163l0.167-0.514h0.815l0.167 0.514h0.511l-0.778-2.253h-0.615l-0.779 2.253h0.511zM17.652 18.278h-0.573l0.278-0.853h0.018l0.277 0.853zM20.612 19.163v-2.253h-0.475v1.417h-0.020l-0.974-1.417h-0.419v2.253h0.477v-1.418h0.017l0.982 1.418h0.412zM20.92 17.303h0.691v1.86h0.472v-1.86h0.691v-0.393h-1.854v0.393zM23.481 16.91h-0.535l0.823 1.457v0.796h0.474v-0.796l0.823-1.457h-0.535l-0.515 0.97h-0.022l-0.515-0.97z"></path>
</svg>
