<!-- Generated by IcoMoon.io -->
<svg version="1.1" xmlns="http://www.w3.org/2000/svg" width="32" height="32" viewBox="0 0 32 32">
<path fill="#fff" d="M12.279 20.198l-2.56-2.582c-0.1-0.1-0.179-0.218-0.233-0.348s-0.082-0.27-0.082-0.41c0-0.141 0.028-0.28 0.082-0.41s0.133-0.248 0.233-0.348l0.075-0.075c0.419-0.419 1.108-0.419 1.527 0l1.732 1.743 5.539-5.55c0.419-0.419 1.108-0.419 1.527 0l0.075 0.075c0.419 0.419 0.419 1.097 0 1.517l-6.368 6.389c-0.441 0.42-1.119 0.42-1.549 0z"></path>
<path fill="#000" d="M26.929 15.885l-2.625 3.001 0.366 3.969-3.883 0.882-2.033 3.431-3.657-1.57-3.657 1.581-2.033-3.431-3.883-0.882 0.366-3.98-2.625-3.001 2.625-3.012-0.366-3.98 3.883-0.871 2.033-3.431 3.657 1.57 3.657-1.57 2.033 3.442 3.883 0.882-0.366 3.969 2.625 3.001zM9.719 17.617l2.56 2.581c0.43 0.42 1.108 0.42 1.549 0l6.368-6.389c0.419-0.419 0.419-1.097 0-1.517l-0.075-0.075c-0.42-0.419-1.108-0.419-1.527 0l-5.539 5.55-1.732-1.743c-0.419-0.419-1.108-0.419-1.527 0l-0.075 0.075c-0.1 0.1-0.179 0.218-0.233 0.348s-0.082 0.27-0.082 0.41c0 0.141 0.028 0.28 0.082 0.41s0.133 0.248 0.233 0.348z"></path>
</svg>
