<!-- Generated by IcoMoon.io -->
<svg version="1.1" xmlns="http://www.w3.org/2000/svg" width="32" height="32" viewBox="0 0 32 32">
<path fill="#000" d="M3.082 10.635c-0.178-0.266 0.013-0.622 0.333-0.622h25.17c0.32 0 0.51 0.356 0.333 0.622l-3.287 4.92c-0.18 0.269-0.18 0.62 0 0.889l3.287 4.92c0.177 0.266-0.013 0.622-0.333 0.622h-25.17c-0.32 0-0.51-0.356-0.333-0.622l3.287-4.92c0.18-0.269 0.18-0.62 0-0.889l-3.287-4.92z"></path>
<path fill="#fff" d="M12.42 13.6v4.8h-0.877l-2.088-3.021h-0.035v3.021h-1.015v-4.8h0.891l2.072 3.019h0.042v-3.019h1.010z"></path>
<path fill="#fff" d="M13.258 18.4v-4.8h3.234v0.837h-2.22v1.144h2.053v0.837h-2.053v1.146h2.229v0.837h-3.244z"></path>
<path fill="#fff" d="M18.38 18.4l-1.373-4.8h1.109l0.795 3.335h0.040l0.877-3.335h0.949l0.874 3.342h0.042l0.794-3.342h1.109l-1.373 4.8h-0.989l-0.914-3.138h-0.038l-0.912 3.138h-0.989z"></path>
</svg>
