<!-- Generated by IcoMoon.io -->
<svg version="1.1" xmlns="http://www.w3.org/2000/svg" width="32" height="32" viewBox="0 0 32 32">
<path fill="#000" d="M4.469 10.95c-0.167-0.25 0.012-0.586 0.313-0.586h23.689c0.301 0 0.48 0.335 0.313 0.586l-3.094 4.631c-0.169 0.253-0.169 0.583 0 0.837l3.094 4.631c0.167 0.25-0.012 0.586-0.313 0.586h-23.689c-0.301 0-0.48-0.335-0.313-0.586l3.094-4.631c0.169-0.253 0.169-0.583 0-0.837l-3.094-4.631z"></path>
<path fill="#fff" d="M11.741 13.923h0.878v2.696c0 0.303-0.072 0.568-0.217 0.795-0.143 0.227-0.344 0.404-0.602 0.531-0.258 0.126-0.559 0.189-0.902 0.189-0.345 0-0.646-0.063-0.904-0.189-0.258-0.127-0.459-0.304-0.602-0.531s-0.215-0.492-0.215-0.795v-2.696h0.878v2.621c0 0.158 0.034 0.299 0.103 0.422 0.070 0.123 0.169 0.22 0.296 0.29s0.275 0.105 0.444 0.105c0.17 0 0.318-0.035 0.444-0.105 0.127-0.070 0.225-0.167 0.294-0.29 0.070-0.123 0.105-0.264 0.105-0.422v-2.621z"></path>
<path fill="#fff" d="M15.592 15.117c-0.016-0.164-0.086-0.291-0.209-0.381s-0.29-0.136-0.501-0.136c-0.143 0-0.264 0.020-0.363 0.061-0.099 0.039-0.174 0.094-0.227 0.164-0.051 0.070-0.077 0.15-0.077 0.239-0.003 0.074 0.013 0.139 0.047 0.195 0.035 0.055 0.083 0.103 0.144 0.144 0.061 0.039 0.131 0.074 0.211 0.103 0.080 0.028 0.165 0.053 0.255 0.073l0.373 0.089c0.181 0.041 0.347 0.095 0.499 0.162s0.282 0.151 0.393 0.249c0.111 0.099 0.197 0.215 0.257 0.349 0.062 0.134 0.094 0.287 0.095 0.46-0.001 0.254-0.066 0.474-0.195 0.661-0.127 0.185-0.311 0.329-0.551 0.432-0.239 0.101-0.528 0.152-0.866 0.152-0.335 0-0.627-0.051-0.876-0.154-0.247-0.103-0.441-0.255-0.58-0.456-0.138-0.203-0.21-0.453-0.217-0.752h0.849c0.009 0.139 0.049 0.255 0.12 0.349 0.072 0.092 0.167 0.161 0.286 0.209 0.12 0.046 0.256 0.069 0.407 0.069 0.149 0 0.278-0.022 0.387-0.065 0.111-0.043 0.197-0.103 0.257-0.18s0.091-0.166 0.091-0.266c0-0.093-0.028-0.172-0.083-0.235-0.054-0.064-0.134-0.118-0.239-0.162-0.104-0.045-0.232-0.085-0.383-0.122l-0.452-0.113c-0.35-0.085-0.626-0.218-0.829-0.399s-0.303-0.425-0.302-0.732c-0.001-0.251 0.066-0.471 0.201-0.659 0.136-0.188 0.324-0.334 0.561-0.44s0.508-0.158 0.811-0.158c0.308 0 0.577 0.053 0.807 0.158 0.231 0.105 0.411 0.252 0.539 0.44s0.195 0.405 0.199 0.653h-0.841z"></path>
<path fill="#fff" d="M17.080 18.075v-4.151h2.797v0.724h-1.92v0.989h1.776v0.724h-1.776v0.991h1.928v0.724h-2.805z"></path>
<path fill="#fff" d="M22.047 18.075h-1.471v-4.151h1.484c0.418 0 0.777 0.083 1.078 0.249 0.301 0.165 0.533 0.402 0.695 0.711 0.163 0.309 0.245 0.68 0.245 1.111 0 0.432-0.082 0.804-0.245 1.115-0.162 0.311-0.395 0.549-0.699 0.715-0.303 0.166-0.665 0.249-1.087 0.249zM21.453 17.323h0.557c0.26 0 0.478-0.046 0.655-0.138 0.178-0.093 0.312-0.237 0.401-0.432 0.091-0.196 0.136-0.449 0.136-0.758 0-0.307-0.045-0.557-0.136-0.752-0.089-0.195-0.222-0.338-0.399-0.43s-0.395-0.138-0.655-0.138h-0.559v2.647z"></path>
</svg>
