<!-- Generated by IcoMoon.io -->
<svg version="1.1" xmlns="http://www.w3.org/2000/svg" width="32" height="32" viewBox="0 0 32 32">
<path d="M28.745 25.132l-1.735-6.11v-13.304c0-0.508-0.41-0.918-0.917-0.918h-20.186c-0.508 0-0.918 0.41-0.918 0.918v13.304l-1.735 6.11c-0.215 0.599 0.227 1.23 0.863 1.23h23.764c0.636 0 1.078-0.631 0.863-1.23zM7.054 6.864h17.892v11.326h-17.892v-11.326zM13.6 24.297l0.232-1.061h4.309l0.232 1.061h-4.774zM20.023 24.297l-0.548-2.486c-0.023-0.106-0.117-0.181-0.224-0.181h-6.526c-0.109 0-0.201 0.075-0.224 0.181l-0.548 2.486h-6.317l1.213-4.272h18.299l1.213 4.272h-6.34z"></path>
</svg>
