<!-- Generated by IcoMoon.io -->
<svg version="1.1" xmlns="http://www.w3.org/2000/svg" width="32" height="32" viewBox="0 0 32 32">
<path d="M13.92 20.96c1.76 3.68 5.44 6.24 8.64 6.4 0 0 0.32 0 0.32 0.32s0 0.32-0.32 0.32c-3.52 0-7.36-2.88-9.12-6.72-1.92-4-1.6-9.12 3.040-14.24-4.48 4.96-4.32 10.24-2.56 14.080z"></path>
<path d="M17.28 4.64c-0.48 0.64-0.48 2.080-0.48 2.080s1.44 0 2.080-0.48c0.8-0.64 0.96-2.4 0.96-2.4s-1.76 0-2.4 0.96z"></path>
<path d="M13.76 5.6c0 0.8 1.12 1.76 1.12 1.76s0.96-0.96 1.12-1.76c0-1.12-1.12-2.4-1.12-2.4s-1.12 1.44-1.12 2.4z"></path>
<path d="M11.2 10.4c0.32 0.8 1.44 1.44 1.44 1.44s0.64-1.12 0.48-2.080c-0.16-1.12-1.6-2.080-1.6-2.080s-0.8 1.6-0.32 2.56z"></path>
<path d="M10.24 14.88c0.64 0.48 2.080 0.48 2.080 0.48s0-1.44-0.48-2.080c-0.64-0.8-2.4-0.96-2.4-0.96s0 1.76 0.96 2.4z"></path>
<path d="M10.24 19.2c0.64 0.48 2.080 0.48 2.080 0.48s0-1.44-0.48-2.080c-0.64-0.8-2.4-0.96-2.4-0.96s0 1.76 0.96 2.4z"></path>
<path d="M12.96 25.12c0.8 0 2.080-0.48 2.080-0.48s-0.64-1.12-1.44-1.44c-0.96-0.32-2.56 0.32-2.56 0.32s0.96 1.44 2.080 1.6z"></path>
<path d="M16.16 28.8c0.8 0 1.76-1.12 1.76-1.12s-0.96-0.96-1.76-1.12c-1.12 0-2.4 1.12-2.4 1.12s1.44 1.12 2.4 1.12z"></path>
<path d="M17.6 7.040c-0.8 0.32-1.44 1.44-1.44 1.44s1.12 0.64 2.080 0.48c1.12-0.16 2.080-1.6 2.080-1.6s-1.6-0.8-2.56-0.32z"></path>
<path d="M15.36 9.76c-0.64 0.48-1.12 1.76-1.12 1.76s1.28 0.32 2.080 0c0.96-0.48 1.6-2.080 1.6-2.080s-1.76-0.32-2.56 0.32z"></path>
<path d="M13.92 13.44c-0.48 0.64-0.48 2.080-0.48 2.080s1.44 0 2.080-0.48c0.8-0.64 0.96-2.4 0.96-2.4s-1.76 0-2.4 0.96z"></path>
<path d="M13.92 17.92c-0.32 0.8 0 2.080 0 2.080s1.28-0.32 1.76-1.12c0.64-0.8 0.32-2.72 0.32-2.72s-1.76 0.64-2.080 1.6z"></path>
<path d="M15.36 21.6c0 0.8 0.48 2.080 0.48 2.080s1.12-0.64 1.44-1.44c0.32-0.96-0.32-2.56-0.32-2.56s-1.44 0.96-1.6 2.080z"></path>
<path d="M17.92 24.32c0.32 0.8 1.44 1.44 1.44 1.44s0.64-1.12 0.48-2.080c-0.16-1.12-1.6-2.080-1.6-2.080s-0.8 1.6-0.32 2.56z"></path>
</svg>
