<!-- Generated by IcoMoon.io -->
<svg version="1.1" xmlns="http://www.w3.org/2000/svg" width="32" height="32" viewBox="0 0 32 32">
<path d="M11.307 16.206l7.872 5.696c0.17 0.122 0.406 0 0.406-0.208v-1.501c0-0.326-0.157-0.637-0.422-0.829l-4.653-3.366 4.653-3.366c0.266-0.192 0.422-0.499 0.422-0.829v-1.501c0-0.208-0.237-0.33-0.406-0.208l-7.872 5.696c-0.033 0.024-0.059 0.055-0.078 0.091s-0.028 0.076-0.028 0.117c0 0.041 0.010 0.080 0.028 0.117s0.045 0.068 0.078 0.091z"></path>
<path d="M27.776 3.2h-23.552c-0.566 0-1.024 0.458-1.024 1.024v23.552c0 0.566 0.458 1.024 1.024 1.024h23.552c0.566 0 1.024-0.458 1.024-1.024v-23.552c0-0.566-0.458-1.024-1.024-1.024zM26.496 26.496h-20.992v-20.992h20.992v20.992z"></path>
</svg>
