<!-- Generated by IcoMoon.io -->
<svg version="1.1" xmlns="http://www.w3.org/2000/svg" width="32" height="32" viewBox="0 0 32 32">
<title>left-circle</title>
<path d="M18.607 10.729l-7.029 5.086c-0.029 0.021-0.053 0.049-0.069 0.081s-0.025 0.068-0.025 0.104c0 0.036 0.009 0.071 0.025 0.104s0.040 0.060 0.069 0.081l7.029 5.086c0.151 0.109 0.363 0 0.363-0.186v-1.34c0-0.292-0.14-0.569-0.377-0.74l-4.154-3.003 4.154-3.006c0.237-0.171 0.377-0.446 0.377-0.74v-1.34c0-0.186-0.211-0.294-0.363-0.186z"></path>
<path d="M16 3.2c-7.069 0-12.8 5.731-12.8 12.8s5.731 12.8 12.8 12.8c7.069 0 12.8-5.731 12.8-12.8s-5.731-12.8-12.8-12.8zM16 26.629c-5.869 0-10.629-4.76-10.629-10.629s4.76-10.629 10.629-10.629c5.869 0 10.629 4.76 10.629 10.629s-4.76 10.629-10.629 10.629z"></path>
</svg>
