<!-- Generated by IcoMoon.io -->
<svg version="1.1" xmlns="http://www.w3.org/2000/svg" width="32" height="32" viewBox="0 0 32 32">
<path d="M27.241 16.676c0.522-0.69 0.811-1.535 0.811-2.414 0-1.395-0.78-2.715-2.035-3.451-0.323-0.19-0.691-0.289-1.065-0.289h-7.449l0.186-3.818c0.044-0.923-0.283-1.799-0.916-2.466-0.311-0.329-0.686-0.591-1.102-0.77s-0.865-0.27-1.317-0.268c-1.615 0-3.044 1.087-3.473 2.644l-2.668 9.661h-4.017c-0.55 0-0.994 0.444-0.994 0.994v11.307c0 0.55 0.444 0.994 0.994 0.994h18.679c0.286 0 0.565-0.056 0.823-0.168 1.479-0.631 2.432-2.075 2.432-3.678 0-0.391-0.056-0.777-0.168-1.149 0.522-0.69 0.811-1.535 0.811-2.414 0-0.391-0.056-0.777-0.168-1.149 0.522-0.69 0.811-1.535 0.811-2.414-0.006-0.391-0.062-0.78-0.174-1.152v0zM5.437 26.563v-8.822h2.516v8.822h-2.516zM25.206 15.598l-0.68 0.59 0.432 0.789c0.142 0.26 0.216 0.552 0.214 0.848 0 0.513-0.224 1-0.609 1.336l-0.68 0.59 0.432 0.789c0.142 0.26 0.216 0.552 0.214 0.848 0 0.512-0.224 1-0.609 1.336l-0.68 0.59 0.432 0.789c0.142 0.26 0.216 0.552 0.214 0.848 0 0.696-0.41 1.323-1.044 1.609h-12.901v-8.919l3.091-11.199c0.080-0.287 0.251-0.54 0.487-0.721s0.526-0.28 0.824-0.282c0.236 0 0.469 0.068 0.655 0.208 0.308 0.23 0.472 0.578 0.454 0.947l-0.298 6.163h9.767c0.553 0.339 0.895 0.91 0.895 1.504 0 0.513-0.224 0.997-0.609 1.336z"></path>
</svg>
