<!-- Generated by IcoMoon.io -->
<svg version="1.1" xmlns="http://www.w3.org/2000/svg" width="32" height="32" viewBox="0 0 32 32">
<path d="M20.184 4.8h-16.738c-0.135 0-0.246 0.111-0.246 0.246v3.938c0 0.135 0.111 0.246 0.246 0.246h1.723c0.135 0 0.246-0.111 0.246-0.246v-1.969h5.169v17.23h-2.831c-0.135 0-0.246 0.111-0.246 0.246v1.723c0 0.135 0.111 0.246 0.246 0.246h8.123c0.135 0 0.246-0.111 0.246-0.246v-1.723c0-0.135-0.111-0.246-0.246-0.246h-2.831v-17.23h5.169v1.969c0 0.135 0.111 0.246 0.246 0.246h1.723c0.135 0 0.246-0.111 0.246-0.246v-3.938c0-0.135-0.111-0.246-0.246-0.246zM28.577 21.599h-1.994v-11.938h1.994c0.185 0 0.289-0.215 0.175-0.36l-3.101-3.926c-0.021-0.027-0.047-0.048-0.077-0.063s-0.063-0.022-0.097-0.022-0.067 0.008-0.097 0.022c-0.030 0.015-0.056 0.036-0.077 0.063l-3.101 3.926c-0.026 0.033-0.042 0.072-0.046 0.114s0.003 0.084 0.021 0.121c0.018 0.038 0.047 0.069 0.082 0.091s0.076 0.034 0.118 0.034h1.991v11.938h-1.994c-0.185 0-0.289 0.215-0.175 0.36l3.101 3.923c0.089 0.114 0.262 0.114 0.348 0l3.101-3.923c0.026-0.032 0.042-0.072 0.047-0.113s-0.002-0.083-0.020-0.121c-0.018-0.038-0.046-0.069-0.081-0.092s-0.076-0.034-0.118-0.034v0z"></path>
</svg>
