<!-- Generated by IcoMoon.io -->
<svg version="1.1" xmlns="http://www.w3.org/2000/svg" width="32" height="32" viewBox="0 0 32 32">
<title>list-alt-add</title>
<path d="M6.1 26c-0.7 0-1.3-0.2-1.7-0.7s-0.7-1.1-0.7-1.7v-18.2c0-0.7 0.2-1.3 0.7-1.7s1.1-0.7 1.7-0.7h18.1c0.7 0 1.3 0.2 1.7 0.7s0.7 1.1 0.7 1.7v10.3c0 0.3-0.1 0.5-0.3 0.7s-0.4 0.3-0.7 0.3-0.5-0.1-0.7-0.3c-0.2-0.2-0.3-0.4-0.3-0.7v-10.3c0-0.1 0-0.2-0.1-0.3-0.1 0-0.2-0.1-0.3-0.1h-18.1c-0.1 0-0.2 0.1-0.2 0.2-0.1 0-0.2 0.1-0.2 0.2v18.1c0 0.1 0 0.2 0.1 0.3s0.2 0.1 0.3 0.1h8.2c0.3 0 0.5 0.1 0.7 0.3s0.3 0.4 0.3 0.7c0 0.3-0.1 0.5-0.3 0.7s-0.4 0.3-0.7 0.3h-8.2zM9.9 20.9c0.3 0 0.6-0.1 0.9-0.3 0.2-0.2 0.3-0.5 0.3-0.9 0-0.3-0.1-0.6-0.3-0.9-0.2-0.2-0.5-0.3-0.9-0.3s-0.7 0.1-0.9 0.4c-0.2 0.2-0.3 0.5-0.3 0.9 0 0.3 0.1 0.6 0.3 0.9 0.2 0.1 0.5 0.2 0.9 0.2zM9.9 15.7c0.3 0 0.6-0.1 0.9-0.3 0.2-0.2 0.3-0.5 0.3-0.9 0-0.3-0.1-0.6-0.3-0.9-0.2-0.2-0.5-0.3-0.9-0.3s-0.7 0.1-0.9 0.3c-0.2 0.2-0.3 0.5-0.3 0.9 0 0.3 0.1 0.6 0.3 0.9 0.2 0.2 0.5 0.3 0.9 0.3zM9.9 10.4c0.3 0 0.6-0.1 0.9-0.3 0.2-0.2 0.3-0.5 0.3-0.9 0-0.3-0.1-0.6-0.3-0.9-0.3-0.1-0.6-0.3-0.9-0.3s-0.7 0.2-0.9 0.4c-0.2 0.2-0.3 0.5-0.3 0.8s0.1 0.6 0.3 0.9c0.2 0.2 0.5 0.3 0.9 0.3zM20.6 15.5c0.3 0 0.5-0.1 0.7-0.3s0.3-0.4 0.3-0.7c0-0.3-0.1-0.5-0.3-0.7s-0.4-0.3-0.7-0.3h-5.6c-0.3 0-0.5 0.1-0.7 0.3s-0.3 0.4-0.3 0.7c0 0.3 0.1 0.5 0.3 0.7s0.4 0.3 0.7 0.3h5.6zM20.6 10.2c0.3 0 0.5-0.1 0.7-0.3s0.3-0.4 0.3-0.7c0-0.3-0.1-0.5-0.3-0.7s-0.4-0.3-0.7-0.3h-5.6c-0.3 0-0.5 0.1-0.7 0.3s-0.3 0.4-0.3 0.7c0 0.3 0.1 0.5 0.3 0.7s0.4 0.3 0.7 0.3h5.6zM14 19.7c0 0.3 0.1 0.5 0.3 0.7s0.4 0.3 0.7 0.3h0.8c0.3 0 0.5-0.1 0.7-0.3s0.3-0.4 0.3-0.7c0-0.3-0.1-0.5-0.3-0.7s-0.4-0.3-0.7-0.3h-0.8c-0.3 0-0.5 0.1-0.7 0.3s-0.3 0.4-0.3 0.7zM22.2 24.9h-3c-0.3 0-0.5-0.1-0.7-0.3s-0.3-0.4-0.3-0.7 0.1-0.5 0.3-0.7c0.2-0.2 0.4-0.3 0.7-0.3h3v-3c0-0.3 0.1-0.5 0.3-0.7s0.4-0.3 0.7-0.3c0.3 0 0.5 0.1 0.7 0.3s0.3 0.4 0.3 0.7v3h3c0.3 0 0.5 0.1 0.7 0.3s0.3 0.4 0.3 0.7c0 0.3-0.1 0.5-0.3 0.7s-0.4 0.3-0.7 0.3h-3v3c0 0.3-0.1 0.5-0.3 0.7s-0.4 0.3-0.7 0.3c-0.3 0-0.5-0.1-0.7-0.3s-0.3-0.4-0.3-0.7v-3z"></path>
</svg>
