<!-- Generated by IcoMoon.io -->
<svg version="1.1" xmlns="http://www.w3.org/2000/svg" width="32" height="32" viewBox="0 0 32 32">
<title>list</title>
<path d="M26.949 5.427h-18.322c-0.138 0-0.251 0.113-0.251 0.251v1.757c0 0.138 0.113 0.251 0.251 0.251h18.322c0.138 0 0.251-0.113 0.251-0.251v-1.757c0-0.138-0.113-0.251-0.251-0.251zM26.949 14.337h-18.322c-0.138 0-0.251 0.113-0.251 0.251v1.757c0 0.138 0.113 0.251 0.251 0.251h18.322c0.138 0 0.251-0.113 0.251-0.251v-1.757c0-0.138-0.113-0.251-0.251-0.251zM26.949 23.247h-18.322c-0.138 0-0.251 0.113-0.251 0.251v1.757c0 0.138 0.113 0.251 0.251 0.251h18.322c0.138 0 0.251-0.113 0.251-0.251v-1.757c0-0.138-0.113-0.251-0.251-0.251zM1.6 6.557c0 0.231 0.045 0.459 0.134 0.672s0.218 0.407 0.381 0.57c0.163 0.163 0.357 0.293 0.57 0.381s0.442 0.134 0.672 0.134c0.231 0 0.459-0.045 0.672-0.134s0.407-0.218 0.57-0.381c0.163-0.163 0.293-0.357 0.381-0.57s0.134-0.442 0.134-0.672c0-0.231-0.045-0.459-0.134-0.672s-0.218-0.407-0.381-0.57c-0.163-0.163-0.357-0.293-0.57-0.381s-0.442-0.134-0.672-0.134c-0.231 0-0.459 0.045-0.672 0.134s-0.407 0.218-0.57 0.381c-0.163 0.163-0.293 0.357-0.381 0.57s-0.134 0.442-0.134 0.672zM1.6 15.467c0 0.231 0.045 0.459 0.134 0.672s0.218 0.407 0.381 0.57 0.357 0.292 0.57 0.381c0.213 0.088 0.442 0.134 0.672 0.134s0.459-0.045 0.672-0.134c0.213-0.088 0.407-0.218 0.57-0.381s0.293-0.357 0.381-0.57c0.088-0.213 0.134-0.442 0.134-0.672s-0.045-0.459-0.134-0.672c-0.088-0.213-0.218-0.407-0.381-0.57s-0.357-0.293-0.57-0.381c-0.213-0.088-0.442-0.134-0.672-0.134s-0.459 0.045-0.672 0.134c-0.213 0.088-0.407 0.218-0.57 0.381s-0.293 0.357-0.381 0.57c-0.088 0.213-0.134 0.442-0.134 0.672zM1.6 24.376c0 0.231 0.045 0.459 0.134 0.672s0.218 0.407 0.381 0.57c0.163 0.163 0.357 0.293 0.57 0.381s0.442 0.134 0.672 0.134 0.459-0.045 0.672-0.134c0.213-0.088 0.407-0.218 0.57-0.381s0.293-0.357 0.381-0.57 0.134-0.442 0.134-0.672c0-0.231-0.045-0.459-0.134-0.672s-0.218-0.407-0.381-0.57c-0.163-0.163-0.357-0.293-0.57-0.381s-0.442-0.134-0.672-0.134-0.459 0.045-0.672 0.134c-0.213 0.088-0.407 0.218-0.57 0.381s-0.293 0.357-0.381 0.57-0.134 0.442-0.134 0.672z"></path>
</svg>
