<!-- Generated by IcoMoon.io -->
<svg version="1.1" xmlns="http://www.w3.org/2000/svg" width="32" height="32" viewBox="0 0 32 32">
<path d="M16 28.8c-1.727 0-3.405-0.337-4.982-1.005-1.525-0.645-2.893-1.57-4.067-2.745s-2.1-2.542-2.745-4.067c-0.667-1.578-1.005-3.255-1.005-4.983 0-0.498 0.402-0.9 0.9-0.9s0.9 0.402 0.9 0.9c0 1.485 0.29 2.925 0.865 4.283 0.555 1.31 1.348 2.488 2.357 3.497s2.188 1.805 3.498 2.357c1.355 0.572 2.795 0.863 4.28 0.863s2.925-0.29 4.283-0.865c1.31-0.555 2.488-1.348 3.497-2.358s1.805-2.187 2.357-3.497c0.573-1.355 0.863-2.795 0.863-4.28s-0.29-2.925-0.865-4.282c-0.553-1.307-1.354-2.494-2.358-3.498-1.002-1.005-2.19-1.806-3.497-2.357-1.355-0.572-2.795-0.862-4.28-0.862-0.498 0-0.9-0.402-0.9-0.9s0.402-0.9 0.9-0.9c1.728 0 3.405 0.337 4.983 1.005 1.525 0.645 2.892 1.57 4.068 2.745s2.097 2.545 2.742 4.067c0.668 1.578 1.005 3.255 1.005 4.982s-0.337 3.405-1.005 4.983c-0.642 1.525-1.568 2.892-2.742 4.067s-2.545 2.098-4.068 2.743c-1.578 0.67-3.255 1.008-4.983 1.008v0z"></path>
</svg>
