<!-- Generated by IcoMoon.io -->
<svg version="1.1" xmlns="http://www.w3.org/2000/svg" width="32" height="32" viewBox="0 0 32 32">
<path d="M16 3.2c-4 0-7.2 3.2-7.2 7.2s3.2 7.2 7.2 7.2c4 0 7.2-3.2 7.2-7.2s-3.2-7.2-7.2-7.2zM16.8 14.080v0.8h-1.6v-0.8h-0.96l0.16-1.44 1.6 0.16c0 0 0.16 0 0.16 0 0.32 0 0.64-0.32 0.64-0.8s-0.32-0.8-0.8-0.8c-1.28 0-2.24-0.96-2.24-2.24 0-0.48 0.16-0.96 0.48-1.44 0.32-0.32 0.64-0.64 0.96-0.8v-0.8h1.44v0.8l1.12 0.16-0.16 1.6-1.6-0.16c-0.32 0-0.48 0-0.64 0.32 0 0-0.16 0.16-0.16 0.32 0 0.48 0.32 0.8 0.8 0.8 1.28 0 2.24 0.96 2.24 2.24 0 0.96-0.64 1.76-1.44 2.080z"></path>
<path d="M19.68 22.72c-1.12 0.48-5.6 0.16-5.6 0.16v-1.44l5.12-0.16c0.96-0.16 1.6-0.64 1.6-1.6 0-0.64-0.32-1.12-0.8-1.44-1.28 0.64-2.56 0.96-4 0.96-2.4 0-4.64-0.8-6.24-2.4-0.96 0.16-2.080 0.96-2.88 1.6l-3.68 3.52 6.88 6.88c1.12-1.28 2.72-2.080 4.48-2.080h4c1.44 0 2.72-0.32 3.68-1.44l5.44-5.6c0.64-0.64 0.8-1.76 0-2.4s-1.76-0.16-2.56 0.8c-0.96 1.44-2.56 3.52-5.44 4.64z"></path>
</svg>
