<!-- Generated by IcoMoon.io -->
<svg version="1.1" xmlns="http://www.w3.org/2000/svg" width="32" height="32" viewBox="0 0 32 32">
<title>local-activity</title>
<path d="M12.754 20.667l3.246-2.467 3.179 2.441-1.22-3.944 3.297-2.574h-3.969l-1.287-3.969-1.287 3.969h-3.969l3.231 2.574-1.22 3.969zM5.744 26c-0.665 0-1.233-0.235-1.704-0.706s-0.706-1.039-0.706-1.704v-3.654c0-0.219 0.063-0.413 0.189-0.582s0.293-0.285 0.504-0.346c0.585-0.272 1.060-0.675 1.426-1.21s0.549-1.134 0.549-1.797-0.183-1.262-0.549-1.797c-0.366-0.535-0.841-0.939-1.426-1.21-0.21-0.062-0.378-0.177-0.504-0.346s-0.189-0.363-0.189-0.582v-3.654c0-0.665 0.235-1.233 0.706-1.704s1.039-0.706 1.704-0.706h20.513c0.665 0 1.233 0.235 1.704 0.706s0.706 1.039 0.706 1.704v3.654c0 0.219-0.063 0.413-0.189 0.582s-0.294 0.285-0.504 0.346c-0.585 0.272-1.060 0.675-1.426 1.21s-0.549 1.134-0.549 1.797 0.183 1.262 0.549 1.797c0.366 0.535 0.841 0.939 1.426 1.21 0.21 0.061 0.378 0.177 0.504 0.346s0.189 0.363 0.189 0.582v3.654c0 0.665-0.235 1.233-0.706 1.704s-1.039 0.706-1.704 0.706h-20.513z"></path>
</svg>
