<!-- Generated by IcoMoon.io -->
<svg version="1.1" xmlns="http://www.w3.org/2000/svg" width="32" height="32" viewBox="0 0 32 32">
<path d="M15.23 25.205c2.476-2.054 4.359-4.038 5.649-5.951s1.936-3.709 1.936-5.389c0-1.447-0.257-2.672-0.77-3.672s-1.15-1.806-1.91-2.415c-0.76-0.609-1.583-1.050-2.469-1.323s-1.693-0.41-2.421-0.41c-0.728 0-1.531 0.138-2.41 0.415s-1.706 0.718-2.483 1.323-1.422 1.409-1.936 2.41c-0.514 1.001-0.77 2.225-0.77 3.672 0 1.68 0.652 3.477 1.956 5.389s3.18 3.896 5.63 5.951zM15.23 28.8c-3.477-2.634-6.084-5.182-7.822-7.644s-2.607-4.887-2.607-7.272c0-1.802 0.317-3.365 0.951-4.689s1.448-2.431 2.442-3.322c0.994-0.891 2.113-1.559 3.355-2.004s2.47-0.668 3.681-0.668c1.211 0 2.439 0.223 3.681 0.668s2.361 1.114 3.356 2.004c0.994 0.891 1.808 1.998 2.442 3.322s0.951 2.887 0.951 4.689c0 2.386-0.863 4.81-2.588 7.272s-4.339 5.011-7.842 7.644zM15.238 16.474c0.785 0 1.453-0.279 2.006-0.838s0.83-1.23 0.83-2.015-0.279-1.453-0.838-2.006c-0.559-0.553-1.23-0.83-2.015-0.83s-1.453 0.279-2.006 0.838c-0.553 0.559-0.83 1.23-0.83 2.015s0.279 1.453 0.838 2.006c0.559 0.553 1.23 0.83 2.015 0.83z"></path>
</svg>
