<!-- Generated by IcoMoon.io -->
<svg version="1.1" xmlns="http://www.w3.org/2000/svg" width="32" height="32" viewBox="0 0 32 32">
<title>lock</title>
<path d="M23.086 14.172c2.020 0 3.657 1.637 3.657 3.657v7.314c0 2.020-1.637 3.657-3.657 3.657h-14.629c-2.020 0-3.657-1.637-3.657-3.657v-7.314c0-2.020 1.637-3.657 3.657-3.657v-3.657c0-4.040 3.275-7.314 7.314-7.314s7.314 3.275 7.314 7.314v3.657zM15.771 5.638c-2.693 0-4.876 2.183-4.876 4.876v3.657h9.752v-3.657c0-2.693-2.183-4.876-4.876-4.876zM23.086 16.61h-14.629c-0.673 0-1.219 0.546-1.219 1.219v7.314c0 0.673 0.546 1.219 1.219 1.219h14.629c0.673 0 1.219-0.546 1.219-1.219v-7.314c0-0.673-0.546-1.219-1.219-1.219z"></path>
</svg>
