<!-- Generated by IcoMoon.io -->
<svg version="1.1" xmlns="http://www.w3.org/2000/svg" width="32" height="32" viewBox="0 0 32 32">
<path d="M15.987 26.279c-0.285 0-0.572-0.051-0.86-0.154s-0.541-0.263-0.76-0.482l-1.915-1.741c-2.364-2.156-4.475-4.273-6.332-6.353s-2.786-4.307-2.786-6.683c0-1.892 0.638-3.476 1.914-4.753s2.86-1.914 4.753-1.914c1.075 0 2.137 0.248 3.186 0.744s1.987 1.301 2.814 2.415c0.827-1.115 1.765-1.92 2.814-2.415s2.111-0.744 3.186-0.744c1.892 0 3.476 0.638 4.753 1.914s1.914 2.86 1.914 4.753c0 2.402-0.945 4.654-2.833 6.758s-3.995 4.203-6.318 6.299l-1.895 1.72c-0.219 0.219-0.474 0.379-0.767 0.482s-0.581 0.154-0.867 0.154zM15.041 9.384c-0.721-1.099-1.481-1.905-2.278-2.417s-1.718-0.768-2.763-0.768c-1.333 0-2.444 0.444-3.333 1.333s-1.333 2-1.333 3.333c0 1.070 0.345 2.189 1.035 3.356s1.556 2.328 2.597 3.482 2.171 2.281 3.386 3.382c1.215 1.101 2.342 2.124 3.379 3.069 0.077 0.068 0.167 0.103 0.269 0.103s0.192-0.034 0.269-0.103c1.038-0.945 2.164-1.968 3.38-3.069s2.344-2.228 3.386-3.382 1.908-2.315 2.597-3.482c0.69-1.168 1.035-2.286 1.035-3.356 0-1.333-0.445-2.444-1.333-3.333s-2-1.333-3.333-1.333c-1.045 0-1.965 0.256-2.763 0.768s-1.557 1.318-2.278 2.417c-0.113 0.171-0.255 0.299-0.426 0.385s-0.349 0.128-0.533 0.128c-0.185 0-0.362-0.043-0.533-0.128s-0.313-0.214-0.426-0.385z"></path>
</svg>
