<!-- Generated by IcoMoon.io -->
<svg version="1.1" xmlns="http://www.w3.org/2000/svg" width="32" height="32" viewBox="0 0 32 32">
<path d="M8.96 12h0.8c0-0.48 0.16-0.8 0.48-1.12s0.8-0.48 1.12-0.48v-0.8c-0.48 0-0.8-0.16-1.12-0.48s-0.48-0.8-0.48-1.12h-0.8c0 0.48-0.16 0.8-0.48 1.12s-0.8 0.48-1.12 0.48v0.8c0.48 0 0.8 0.16 1.12 0.48s0.48 0.8 0.48 1.12zM9.44 9.28c0.16 0.32 0.48 0.48 0.64 0.64-0.32 0.16-0.48 0.48-0.64 0.64-0.16-0.32-0.48-0.48-0.64-0.64 0.32-0.16 0.48-0.48 0.64-0.64zM22.24 12h0.8c0-0.48 0.16-0.8 0.48-1.12s0.8-0.48 1.12-0.48v-0.8c-0.48 0-0.8-0.16-1.12-0.48s-0.48-0.8-0.48-1.12h-0.8c0 0.48-0.16 0.8-0.48 1.12s-0.8 0.48-1.12 0.48v0.8c0.48 0 0.8 0.16 1.12 0.48s0.48 0.8 0.48 1.12zM22.56 9.28c0.16 0.32 0.48 0.48 0.64 0.64-0.32 0.16-0.48 0.48-0.64 0.64-0.16-0.32-0.48-0.48-0.64-0.64 0.32-0.16 0.48-0.48 0.64-0.64zM15.52 8.32h0.8c0-0.48 0.16-0.8 0.48-1.12s0.8-0.48 1.12-0.48v-0.8c-0.48 0-0.8-0.16-1.12-0.48s-0.48-0.8-0.48-1.12h-0.8c0 0.48-0.16 0.8-0.48 1.12s-0.8 0.48-1.12 0.48v0.8c0.48 0 0.8 0.16 1.12 0.48s0.48 0.8 0.48 1.12zM16 5.6c0.16 0.32 0.48 0.48 0.64 0.64-0.32 0.16-0.48 0.48-0.64 0.64-0.16-0.32-0.48-0.48-0.64-0.64 0.32-0.16 0.48-0.48 0.64-0.64zM8.8 20.8l-2.88-1.92s0 0-0.16 0c0 0 0 0-0.16 0 0 0 0 0 0 0s0 0 0 0.16v1.76c0 0 0 0 0 0.16 0 0 0 0 0 0.16l1.6 0.96s0 0 0.16 0c0 0 0 0 0.16 0l1.28-0.96s0 0 0 0c0 0 0 0 0-0.16 0 0 0 0 0-0.16 0 0 0 0 0 0v0zM7.2 21.6l-1.28-0.8v-0.96s1.92 1.12 1.92 1.12l-0.64 0.48zM23.040 21.12s0 0 0 0.16c0 0 0 0 0 0l1.28 0.96s0 0 0.16 0c0 0 0.16 0 0.16 0l1.6-0.96s0 0 0-0.16c0 0 0 0 0-0.16v-1.76c0 0 0 0-0.16-0.16 0 0 0 0 0 0s0 0-0.16 0c0 0 0 0-0.16 0l-2.88 1.92s0 0 0 0 0 0 0 0.16zM25.92 20v0.96s-1.12 0.8-1.12 0.8l-0.64-0.48 1.76-1.12z"></path>
<path d="M28 16.96s0 0 0 0c0 0 0 0 0 0l0.48-0.48s0 0 0-0.16c0 0 0-0.16 0-0.32l-0.48-0.8s0 0 0-0.16c0 0 0 0-0.16 0h-1.6c0 0-0.16 0-0.32 0l-0.48 0.48s0 0 0 0.16c0 0 0 0.16 0 0.32l0.32 0.64v0.32c0 0-0.8-1.12-0.8-1.12-0.48-0.8-1.12-1.6-1.76-2.080-0.8-0.48-1.76-0.8-2.56-0.96l-4.64-0.32-4.64 0.32c-1.12 0-2.080 0.48-3.040 1.12-0.64 0.48-1.12 1.12-1.44 1.76l-0.64 1.12v-0.32c0 0 0.16-0.64 0.16-0.64s0-0.16 0-0.32c0 0 0-0.16 0-0.16l-0.48-0.48s0 0 0 0c0 0 0 0 0 0h-1.6s0 0-0.16 0c0 0 0 0 0 0.16l-0.48 0.8s0 0.16 0 0.32c0 0 0 0.16 0 0.16l0.48 0.48s0 0 0 0c0 0 0 0 0 0h1.44v0.32c0.16 0-0.8 0.48-0.8 0.48s0 0 0 0l-0.8 1.28s0 0 0 0.16v5.28c0 0.16 0 0.32 0 0.48s0.16 0.32 0.32 0.48v0.8c0 0.32 0 0.64 0.32 0.96 0.16 0.16 0.48 0.32 0.96 0.32h1.6c0.32 0 0.48 0 0.8-0.32 0.16-0.16 0.32-0.48 0.48-0.64h1.28c0 0 0 0 0 0s0 0 0.16 0l1.28-0.64v0.32c0.16 0 0.32 0 0.32 0.16 0 0 0 0 0.16 0h9.12s0 0 0.16 0c0 0 0 0 0-0.16v-0.32c0.16 0 1.6 0.64 1.6 0.64s0 0 0.16 0c0 0 0 0 0 0h1.28c0 0 0.16 0.32 0.48 0.64s0.48 0.32 0.8 0.32h1.6c0.32 0 0.64 0 0.96-0.32 0.16-0.16 0.32-0.48 0.32-0.96v-0.8c0 0 0.16-0.32 0.32-0.48 0-0.16 0-0.32 0-0.48v-5.28c0 0 0-0.16 0-0.16l-0.8-1.28s0 0 0 0l-0.96-0.48v-0.32h1.6zM8.8 14.56c0.8-0.64 1.6-0.96 2.56-0.96l4.64-0.32 4.64 0.32c0.8 0 1.6 0.32 2.24 0.8s1.12 1.12 1.6 1.76l0.48 0.96h-17.76l0.48-0.96c0.32-0.64 0.64-1.12 1.28-1.44zM24.48 17.92l-2.56 2.56-2.72 0.8h-1.44l-0.8-0.32s0 0-0.16 0h-1.6s0 0-0.16 0l-0.8 0.32h-1.44l-2.72-0.8-2.4-2.56h16.8zM5.44 16.16h-1.28c0 0 0.16-0.48 0.16-0.48h1.28c0 0-0.16 0.48-0.16 0.48zM4.96 24.64s0 0 0 0.32v0.48h-0.16c0-0.16 0-0.32 0-0.32s0 0 0-0.16v-2.56l1.28 1.28-0.8 1.12zM6.88 26.88h-1.6c0 0-0.16 0-0.32 0 0 0 0-0.16 0-0.32v0c0-0.16 0 0 0 0s0 0 0 0 0 0 0.16 0h2.080c0 0.32 0 0.32 0 0.32s0 0-0.16 0zM19.84 24.96l-0.32 0.8 0.8 0.32c0 0-8.64 0-8.64 0v0c0 0 0.8-0.48 0.8-0.48l-0.32-0.8-2.72 1.12-3.68-0.32v-0.8l0.96-1.28 4.8 0.8s0 0 0 0h9.12s0 0 0 0l4.8-0.8 0.96 1.28v0.8l-3.68 0.32-2.72-1.12zM27.040 24.64l-0.8-1.12 1.28-1.28v2.56s0 0 0 0.16c0 0 0 0 0 0.16h-0.16c0 0 0-0.32 0-0.32s0-0.16 0-0.32zM26.72 26.88h-1.6s0 0-0.16 0c0 0 0 0 0 0h2.080c0-0.16 0-0.16 0.16-0.32 0 0 0 0 0 0v0s0 0 0 0c0 0 0 0.16 0 0.32 0 0-0.16 0-0.32 0zM27.52 19.68v1.28l-1.92 1.92-5.28 0.8h-8.96l-5.28-0.8-1.92-1.92v-1.28l0.64-1.12 1.44-0.64 3.040 3.2s0 0 0.16 0l2.88 0.8s0 0 0 0h1.6s0 0 0.16 0l0.8-0.32h1.44l0.8 0.32s0 0 0.16 0h1.6s0 0 0 0l2.88-0.8s0 0 0.16 0l3.040-3.040 1.28 0.64 0.64 1.12zM26.56 15.84h1.28v0.32c0.16 0 0 0 0 0h-1.28v-0.32c-0.16 0 0 0 0 0z"></path>
<path d="M15.52 21.92h0.8v0.8h-0.8v-0.8z"></path>
</svg>
