<!-- Generated by IcoMoon.io -->
<svg version="1.1" xmlns="http://www.w3.org/2000/svg" width="32" height="32" viewBox="0 0 32 32">
<path d="M27.886 6.4h-23.771c-0.506 0-0.914 0.409-0.914 0.914v18.286c0 0.506 0.409 0.914 0.914 0.914h23.771c0.506 0 0.914-0.408 0.914-0.914v-18.286c0-0.506-0.409-0.914-0.914-0.914zM26.743 9.566v14.891h-21.486v-14.891l-0.789-0.614 1.123-1.443 1.223 0.951h18.374l1.223-0.951 1.123 1.443-0.791 0.614zM25.189 8.457l-9.189 7.143-10.411-8.094-1.123 1.443 10.549 8.203c0.281 0.218 0.626 0.336 0.981 0.336s0.701-0.118 0.981-0.336l10.554-8.2-1.123-1.443-1.22 0.949z"></path>
</svg>
