<!-- Generated by IcoMoon.io -->
<svg version="1.1" xmlns="http://www.w3.org/2000/svg" width="32" height="32" viewBox="0 0 32 32">
<path d="M27.82 3.2h-8.229c-0.108 0-0.196 0.088-0.196 0.196v1.829c0 0.108 0.088 0.196 0.196 0.196h5.238l-6.508 6.508c-1.633-1.257-3.624-1.936-5.718-1.936-2.511 0-4.875 0.98-6.648 2.756s-2.756 4.137-2.756 6.648c0 2.511 0.98 4.875 2.756 6.648 1.773 1.776 4.137 2.756 6.648 2.756s4.875-0.98 6.648-2.756c1.776-1.773 2.756-4.137 2.756-6.648 0-2.093-0.679-4.078-1.933-5.711l6.504-6.505v5.228c0 0.108 0.088 0.196 0.196 0.196h1.829c0.108 0 0.196-0.088 0.196-0.196v-8.229c0-0.539-0.441-0.98-0.98-0.98zM12.604 26.318c-3.817 0-6.922-3.105-6.922-6.923s3.105-6.922 6.922-6.922c3.817 0 6.922 3.105 6.922 6.922s-3.105 6.923-6.922 6.923z"></path>
</svg>
