<!-- Generated by IcoMoon.io -->
<svg version="1.1" xmlns="http://www.w3.org/2000/svg" width="32" height="32" viewBox="0 0 32 32">
<title>mediumworkmark</title>
<path d="M16.13 17.289c0 0.089 0 0.109 0.060 0.164l0.336 0.331v0.014h-1.489v-0.637c-0.072 0.204-0.206 0.38-0.383 0.504s-0.389 0.189-0.605 0.187c-0.765 0-1.321-0.606-1.321-1.722 0-1.045 0.6-1.742 1.441-1.742 0.183-0.011 0.364 0.035 0.519 0.132s0.276 0.24 0.346 0.409v-1.405c0.005-0.032 0.002-0.064-0.010-0.094s-0.032-0.056-0.058-0.075l-0.32-0.311v-0.014l1.483-0.176v4.434zM15.036 17.086v-2.096c-0.053-0.067-0.12-0.12-0.197-0.157s-0.161-0.055-0.246-0.053c-0.362 0-0.712 0.331-0.712 1.315 0 0.922 0.302 1.247 0.678 1.247 0.094-0.002 0.187-0.026 0.27-0.071s0.154-0.108 0.208-0.186v0zM17.117 17.798v-2.829c0.005-0.031 0.002-0.063-0.009-0.092s-0.028-0.056-0.051-0.077l-0.33-0.344v-0.014h1.489v2.87c0 0.089 0 0.109 0.060 0.164l0.328 0.311v0.014l-1.487-0.002zM17.063 13.406c0-0.335 0.269-0.606 0.6-0.606s0.6 0.271 0.6 0.606c0 0.335-0.268 0.606-0.6 0.606s-0.6-0.271-0.6-0.606zM22.234 17.283c0 0.089 0 0.115 0.060 0.17l0.336 0.331v0.014h-1.497v-0.725c-0.065 0.222-0.2 0.418-0.384 0.559s-0.409 0.218-0.641 0.221c-0.664 0-1.020-0.489-1.020-1.415 0-0.447 0-0.936 0.014-1.485 0.005-0.030 0.003-0.061-0.008-0.090s-0.029-0.054-0.052-0.074l-0.33-0.334v-0.014h1.477v1.845c0 0.606 0.088 1.011 0.464 1.011 0.1-0.007 0.196-0.038 0.281-0.091s0.154-0.127 0.203-0.214v-2.021c0.005-0.031 0.002-0.063-0.009-0.092s-0.028-0.056-0.051-0.077l-0.332-0.345v-0.014h1.489v2.842zM27.303 17.798c0-0.109 0.020-1.499 0.020-1.819 0-0.606-0.094-1.024-0.516-1.024-0.105 0.003-0.208 0.032-0.3 0.082s-0.171 0.122-0.23 0.209c0.042 0.189 0.062 0.382 0.060 0.576 0 0.42-0.014 0.956-0.020 1.491-0.005 0.030-0.003 0.061 0.008 0.090s0.028 0.054 0.052 0.074l0.336 0.311v0.014h-1.503c0-0.101 0.020-1.5 0.020-1.819 0-0.616-0.094-1.024-0.51-1.024-0.205 0.008-0.392 0.12-0.496 0.299v2.061c0 0.089 0 0.109 0.060 0.164l0.328 0.311v0.014h-1.487v-2.829c0.005-0.031 0.002-0.063-0.009-0.092s-0.028-0.056-0.051-0.078l-0.33-0.354v-0.014h1.489v0.72c0.138-0.475 0.578-0.794 1.068-0.774 0.496 0 0.832 0.279 0.973 0.809 0.075-0.237 0.225-0.443 0.426-0.589s0.444-0.223 0.693-0.22c0.664 0 1.040 0.495 1.040 1.431 0 0.447-0.014 0.956-0.020 1.491-0.006 0.031-0.002 0.063 0.010 0.092s0.032 0.054 0.058 0.072l0.328 0.311v0.014h-1.497zM8.597 17.357l0.441 0.426v0.014h-2.24v-0.014l0.45-0.426c0.024-0.020 0.042-0.045 0.052-0.074s0.013-0.060 0.008-0.090v-2.727c0-0.115 0-0.271 0.020-0.404l-1.511 3.789h-0.018l-1.565-3.486c-0.034-0.087-0.044-0.093-0.066-0.152v2.286c-0.019 0.153 0.007 0.308 0.074 0.447l0.63 0.836v0.014h-1.671v-0.014l0.63-0.839c0.067-0.138 0.092-0.292 0.074-0.444v-2.526c0.010-0.124-0.027-0.248-0.103-0.345l-0.446-0.584v-0.014h1.599l1.339 2.952 1.179-2.952h1.565v0.014l-0.44 0.495c-0.026 0.019-0.046 0.045-0.058 0.075s-0.015 0.063-0.010 0.095v3.484c-0.006 0.031-0.002 0.063 0.010 0.092s0.032 0.054 0.058 0.072v0zM10.349 15.991v0.014c0 0.865 0.442 1.212 0.96 1.212 0.212 0.007 0.422-0.049 0.603-0.16s0.326-0.272 0.416-0.465h0.014c-0.18 0.855-0.704 1.259-1.487 1.259-0.845 0-1.643-0.515-1.643-1.71 0-1.255 0.8-1.756 1.683-1.756 0.711 0 1.469 0.339 1.469 1.431v0.174h-2.015zM10.349 15.817h0.986v-0.176c0-0.889-0.182-1.126-0.456-1.126-0.332 0-0.534 0.354-0.534 1.302h0.004z"></path>
</svg>
