<!-- Generated by IcoMoon.io -->
<svg version="1.1" xmlns="http://www.w3.org/2000/svg" width="32" height="32" viewBox="0 0 32 32">
<title>medicine-box</title>
<path d="M26.47 8.515c-0.067-0.205-0.197-0.384-0.372-0.511s-0.385-0.196-0.601-0.196h-2.33v-3.584c0-0.566-0.458-1.024-1.024-1.024h-12.288c-0.566 0-1.024 0.458-1.024 1.024v3.584h-2.33c-0.216-0-0.427 0.068-0.602 0.195s-0.305 0.306-0.371 0.512l-2.33 7.165v12.096c0 0.566 0.458 1.024 1.024 1.024h23.552c0.566 0 1.024-0.458 1.024-1.024v-12.096l-2.33-7.165zM11.136 5.504h9.728v2.304h-9.728v-2.304zM26.496 26.496h-20.992v-10.451l1.93-5.933h17.133l1.93 5.933v10.451zM20.48 17.92h-3.456v-3.456c0-0.141-0.115-0.256-0.256-0.256h-1.536c-0.141 0-0.256 0.115-0.256 0.256v3.456h-3.456c-0.141 0-0.256 0.115-0.256 0.256v1.536c0 0.141 0.115 0.256 0.256 0.256h3.456v3.456c0 0.141 0.115 0.256 0.256 0.256h1.536c0.141 0 0.256-0.115 0.256-0.256v-3.456h3.456c0.141 0 0.256-0.115 0.256-0.256v-1.536c0-0.141-0.115-0.256-0.256-0.256z"></path>
</svg>
