<!-- Generated by IcoMoon.io -->
<svg version="1.1" xmlns="http://www.w3.org/2000/svg" width="32" height="32" viewBox="0 0 32 32">
<path d="M26.757 8.793l2.043-1.963v-0.43h-7.077l-5.043 12.613-5.737-12.613h-7.42v0.43l2.387 2.887c0.233 0.213 0.353 0.527 0.323 0.84v11.343c0.073 0.41-0.057 0.827-0.343 1.123l-2.69 3.277v0.423h7.62v-0.43l-2.687-3.267c-0.144-0.146-0.252-0.324-0.316-0.518s-0.082-0.402-0.054-0.605v-9.813l6.69 14.64h0.777l5.753-14.64v11.663c0 0.307 0 0.37-0.2 0.573l-2.070 2.010v0.43h10.040v-0.43l-1.997-1.963c-0.173-0.133-0.263-0.357-0.227-0.573v-14.433c-0.017-0.107-0.005-0.217 0.035-0.318s0.106-0.189 0.192-0.256v0z"></path>
</svg>
