<!-- Generated by IcoMoon.io -->
<svg version="1.1" xmlns="http://www.w3.org/2000/svg" width="32" height="32" viewBox="0 0 32 32">
<path d="M9.6 13.4c0 0.364 0.145 0.713 0.402 0.97s0.606 0.402 0.97 0.402c0.364 0 0.713-0.144 0.97-0.402s0.402-0.606 0.402-0.97c0-0.364-0.145-0.713-0.402-0.97s-0.606-0.402-0.97-0.402c-0.364 0-0.713 0.144-0.97 0.402s-0.402 0.606-0.402 0.97v0zM19.657 13.4c0 0.364 0.144 0.713 0.402 0.97s0.606 0.402 0.97 0.402c0.364 0 0.712-0.144 0.97-0.402s0.402-0.606 0.402-0.97-0.144-0.713-0.402-0.97c-0.257-0.257-0.606-0.402-0.97-0.402s-0.713 0.144-0.97 0.402c-0.257 0.257-0.402 0.606-0.402 0.97v0zM16 3.2c-7.069 0-12.8 5.731-12.8 12.8s5.731 12.8 12.8 12.8c7.069 0 12.8-5.731 12.8-12.8s-5.731-12.8-12.8-12.8zM23.514 23.514c-0.977 0.977-2.114 1.743-3.38 2.28-1.306 0.554-2.697 0.834-4.134 0.834s-2.829-0.28-4.137-0.834c-1.264-0.534-2.412-1.308-3.38-2.28-0.977-0.977-1.743-2.114-2.28-3.38-0.551-1.306-0.831-2.697-0.831-4.134s0.28-2.829 0.834-4.137c0.534-1.264 1.308-2.412 2.28-3.38 0.977-0.977 2.114-1.743 3.38-2.28 1.306-0.551 2.697-0.831 4.134-0.831s2.829 0.28 4.137 0.834c1.264 0.534 2.412 1.308 3.38 2.28 0.977 0.977 1.743 2.114 2.28 3.38 0.552 1.306 0.832 2.697 0.832 4.134s-0.28 2.829-0.834 4.137c-0.533 1.263-1.308 2.41-2.28 3.377v0zM20.343 17.514h-8.686c-0.126 0-0.229 0.103-0.229 0.229v1.371c0 0.126 0.103 0.229 0.229 0.229h8.686c0.126 0 0.228-0.103 0.228-0.229v-1.371c0-0.126-0.103-0.229-0.228-0.229z"></path>
</svg>
