<!-- Generated by IcoMoon.io -->
<svg version="1.1" xmlns="http://www.w3.org/2000/svg" width="32" height="32" viewBox="0 0 32 32">
<title>menu</title>
<path d="M28.544 4.8h-25.088c-0.141 0-0.256 0.115-0.256 0.256v2.048c0 0.141 0.115 0.256 0.256 0.256h25.088c0.141 0 0.256-0.115 0.256-0.256v-2.048c0-0.141-0.115-0.256-0.256-0.256zM28.544 24.768h-25.088c-0.141 0-0.256 0.115-0.256 0.256v2.048c0 0.141 0.115 0.256 0.256 0.256h25.088c0.141 0 0.256-0.115 0.256-0.256v-2.048c0-0.141-0.115-0.256-0.256-0.256zM28.544 14.784h-25.088c-0.141 0-0.256 0.115-0.256 0.256v2.048c0 0.141 0.115 0.256 0.256 0.256h25.088c0.141 0 0.256-0.115 0.256-0.256v-2.048c0-0.141-0.115-0.256-0.256-0.256z"></path>
</svg>
