<!-- Generated by IcoMoon.io -->
<svg version="1.1" xmlns="http://www.w3.org/2000/svg" width="32" height="32" viewBox="0 0 32 32">
<path d="M16 28.802c-1.749 0-3.403-0.336-4.96-1.008s-2.917-1.589-4.080-2.752c-1.163-1.163-2.080-2.523-2.752-4.080s-1.008-3.211-1.008-4.96c0-1.771 0.336-3.429 1.008-4.976s1.589-2.901 2.752-4.064c1.163-1.163 2.523-2.080 4.080-2.752s3.211-1.008 4.96-1.008c1.771 0 3.429 0.336 4.976 1.008s2.901 1.589 4.064 2.752c1.163 1.163 2.080 2.517 2.752 4.064s1.008 3.205 1.008 4.976c0 1.749-0.336 3.403-1.008 4.96s-1.589 2.917-2.752 4.080c-1.163 1.163-2.517 2.080-4.064 2.752s-3.205 1.008-4.976 1.008zM9.6 14.722c0.363 0 0.667-0.123 0.912-0.368s0.368-0.549 0.368-0.912c0-0.363-0.123-0.667-0.368-0.912s-0.549-0.368-0.912-0.368c-0.363 0-0.667 0.123-0.912 0.368s-0.368 0.549-0.368 0.912c0 0.363 0.123 0.667 0.368 0.912s0.549 0.368 0.912 0.368zM13.44 10.882c0.363 0 0.667-0.123 0.912-0.368s0.368-0.549 0.368-0.912c0-0.363-0.123-0.667-0.368-0.912s-0.549-0.368-0.912-0.368c-0.363 0-0.667 0.123-0.912 0.368s-0.368 0.549-0.368 0.912c0 0.363 0.123 0.667 0.368 0.912s0.549 0.368 0.912 0.368zM22.4 14.722c0.363 0 0.667-0.123 0.912-0.368s0.368-0.549 0.368-0.912c0-0.363-0.123-0.667-0.368-0.912s-0.549-0.368-0.912-0.368c-0.363 0-0.667 0.123-0.912 0.368s-0.368 0.549-0.368 0.912c0 0.363 0.123 0.667 0.368 0.912s0.549 0.368 0.912 0.368zM16 18.562c0.704 0 1.307-0.251 1.808-0.752s0.752-1.104 0.752-1.808c0-0.277-0.043-0.549-0.128-0.816s-0.213-0.507-0.384-0.72l1.728-4.352c0.149-0.341 0.155-0.677 0.016-1.008s-0.379-0.571-0.72-0.72c-0.32-0.149-0.645-0.155-0.976-0.016s-0.56 0.379-0.688 0.72l-1.728 4.352c-0.64 0.107-1.173 0.4-1.6 0.88s-0.64 1.040-0.64 1.68c0 0.704 0.251 1.307 0.752 1.808s1.104 0.752 1.808 0.752zM11.072 24.962c0.747-0.427 1.536-0.747 2.368-0.96s1.685-0.32 2.56-0.32c0.875 0 1.728 0.107 2.56 0.32s1.621 0.533 2.368 0.96l2.24-1.664c-1.067-0.704-2.208-1.243-3.424-1.616s-2.464-0.56-3.744-0.56-2.528 0.187-3.744 0.56c-1.216 0.373-2.357 0.912-3.424 1.616l2.24 1.664z"></path>
</svg>
