<!-- Generated by IcoMoon.io -->
<svg version="1.1" xmlns="http://www.w3.org/2000/svg" width="32" height="32" viewBox="0 0 32 32">
<path d="M13.933 20.667c0.533 0.533 1.222 0.794 2.067 0.783s1.467-0.317 1.867-0.917l5.633-8.433c0.2-0.311 0.172-0.594-0.083-0.85s-0.539-0.283-0.85-0.083l-8.433 5.633c-0.6 0.4-0.917 1.011-0.95 1.833s0.217 1.5 0.75 2.033zM16 5.333c0.8 0 1.589 0.067 2.367 0.2s1.533 0.344 2.267 0.633c0.356 0.133 0.733 0.383 1.133 0.75s0.511 0.717 0.333 1.050c-0.178 0.333-0.578 0.556-1.2 0.667s-1.122 0.1-1.5-0.033c-0.556-0.2-1.117-0.35-1.683-0.45s-1.139-0.15-1.717-0.15c-2.956 0-5.472 1.039-7.55 3.117s-3.117 4.594-3.117 7.55c0 0.933 0.128 1.856 0.383 2.767s0.617 1.767 1.083 2.567h18.4c0.511-0.844 0.883-1.722 1.117-2.633s0.35-1.856 0.35-2.833c0-0.578-0.050-1.144-0.15-1.7s-0.25-1.1-0.45-1.633c-0.133-0.378-0.156-0.744-0.067-1.1s0.289-0.656 0.6-0.9c0.289-0.222 0.606-0.289 0.95-0.2s0.583 0.289 0.717 0.6c0.333 0.778 0.589 1.572 0.767 2.383s0.278 1.639 0.3 2.483c0.022 1.267-0.122 2.478-0.433 3.633s-0.767 2.256-1.367 3.3c-0.244 0.4-0.578 0.711-1 0.933s-0.867 0.333-1.333 0.333h-18.4c-0.467 0-0.911-0.111-1.333-0.333s-0.756-0.533-1-0.933c-0.578-1-1.022-2.061-1.333-3.183s-0.467-2.306-0.467-3.55c0-1.844 0.35-3.572 1.050-5.183s1.656-3.022 2.867-4.233 2.628-2.167 4.25-2.867c1.622-0.7 3.344-1.050 5.167-1.050z"></path>
</svg>
