<!-- Generated by IcoMoon.io -->
<svg version="1.1" xmlns="http://www.w3.org/2000/svg" width="32" height="32" viewBox="0 0 32 32">
<path d="M6.449 14.015c0.126 0.184 0.201 0.399 0.217 0.621s-0.028 0.444-0.127 0.644c-0.318 0.733-0.541 1.502-0.666 2.29-0.33 2.037-0.021 4.125 0.883 5.984 0.11 0.204 0.274 0.374 0.475 0.492s0.431 0.18 0.664 0.178h16.192c0.235 0 0.466-0.063 0.667-0.184s0.364-0.293 0.473-0.5c0.819-1.643 1.172-3.475 1.021-5.3s-0.801-3.576-1.879-5.066c-1.079-1.489-2.546-2.662-4.246-3.392s-3.568-0.99-5.405-0.754c-0.93 0.108-1.839 0.347-2.701 0.708-0.202 0.098-0.427 0.141-0.652 0.126s-0.441-0.089-0.628-0.214c-0.194-0.127-0.35-0.303-0.451-0.511s-0.142-0.438-0.119-0.667c0.022-0.229 0.108-0.448 0.246-0.632s0.326-0.329 0.541-0.416c2.473-1.048 5.217-1.299 7.842-0.718s4.999 1.965 6.783 3.956 2.888 4.486 3.156 7.132c0.268 2.646-0.315 5.308-1.666 7.608-0.223 0.383-0.544 0.7-0.93 0.922s-0.825 0.34-1.271 0.343h-17.729c-0.451 0.002-0.895-0.114-1.286-0.336s-0.716-0.543-0.941-0.929c-0.989-1.693-1.567-3.59-1.689-5.542s0.215-3.904 0.985-5.705c0.098-0.205 0.249-0.381 0.439-0.508s0.411-0.202 0.64-0.217c0.229-0.014 0.458 0.033 0.662 0.136s0.377 0.258 0.5 0.45z"></path>
<path d="M17.804 17.292c0.48 0.475 0.75 1.119 0.75 1.79 0 0.332-0.066 0.662-0.195 0.969s-0.317 0.586-0.555 0.821c-0.238 0.235-0.52 0.422-0.831 0.549s-0.644 0.193-0.98 0.193c-0.679 0-1.331-0.267-1.811-0.741l-7.245-10.741 10.868 7.161z"></path>
</svg>
