<!-- Generated by IcoMoon.io -->
<svg version="1.1" xmlns="http://www.w3.org/2000/svg" width="32" height="32" viewBox="0 0 32 32">
<path d="M21.257 15.084h-10.514c-0.126 0-0.229 0.103-0.229 0.229v1.371c0 0.126 0.103 0.229 0.229 0.229h10.514c0.126 0 0.228-0.103 0.228-0.229v-1.371c0-0.126-0.103-0.229-0.228-0.229z"></path>
<path d="M16 3.2c-7.069 0-12.8 5.731-12.8 12.8s5.731 12.8 12.8 12.8c7.069 0 12.8-5.731 12.8-12.8s-5.731-12.8-12.8-12.8zM16 26.629c-5.869 0-10.629-4.76-10.629-10.629s4.76-10.629 10.629-10.629c5.869 0 10.629 4.76 10.629 10.629s-4.76 10.629-10.629 10.629z"></path>
</svg>
