<!-- Generated by IcoMoon.io -->
<svg version="1.1" xmlns="http://www.w3.org/2000/svg" width="32" height="32" viewBox="0 0 32 32">
<path d="M23.086 3.2h-13.257c-1.009 0-1.829 0.82-1.829 1.829v21.943c0 1.009 0.82 1.829 1.829 1.829h13.257c1.008 0 1.828-0.82 1.828-1.829v-21.943c0-1.009-0.82-1.829-1.828-1.829zM22.857 26.743h-12.8v-21.486h12.8v21.486zM15.314 23.829c0 0.303 0.12 0.594 0.335 0.808s0.505 0.335 0.808 0.335c0.303 0 0.594-0.12 0.808-0.335s0.335-0.505 0.335-0.808c0-0.303-0.12-0.594-0.335-0.808s-0.505-0.335-0.808-0.335c-0.303 0-0.594 0.12-0.808 0.335s-0.335 0.505-0.335 0.808z"></path>
</svg>
