<!-- Generated by IcoMoon.io -->
<svg version="1.1" xmlns="http://www.w3.org/2000/svg" width="32" height="32" viewBox="0 0 32 32">
<path d="M16 6.4c-5.28 0-9.6 4.32-9.6 9.6s4.32 9.6 9.6 9.6 9.6-4.32 9.6-9.6-4.32-9.6-9.6-9.6zM16 24c-4.48 0-8-3.52-8-8s3.52-8 8-8 8 3.52 8 8-3.52 8-8 8zM19.2 17.6c0 1.28-1.12 2.4-2.4 2.4v0.8c0 0.48-0.32 0.8-0.8 0.8s-0.8-0.32-0.8-0.8v-0.8h-0.16c-0.8 0-1.6-0.48-2.080-1.12-0.16-0.32 0-0.8 0.32-1.12 0.32-0.16 0.8 0 1.12 0.32 0 0.32 0.48 0.48 0.64 0.48h1.76c0.48 0 0.8-0.32 0.8-0.8s-0.16-0.48-0.48-0.64l-2.4-0.48c-1.12-0.16-1.92-1.12-1.92-2.24s1.12-2.4 2.4-2.4v-0.8c0-0.48 0.32-0.8 0.8-0.8s0.8 0.32 0.8 0.8v0.8h0.16c0.8 0 1.6 0.48 2.080 1.28 0.16 0.32 0 0.8-0.32 1.12-0.32 0.16-0.8 0-1.12-0.32 0-0.32-0.48-0.32-0.64-0.32h-1.76c-0.48 0-0.8 0.32-0.8 0.8s0.16 0.48 0.48 0.64l2.4 0.48c1.12 0.16 1.92 1.12 1.92 2.24v0z"></path>
</svg>
