<!-- Generated by IcoMoon.io -->
<svg version="1.1" xmlns="http://www.w3.org/2000/svg" width="32" height="32" viewBox="0 0 32 32">
<path d="M21.786 12.822l0.006-0.006-1.107-1.418c-0.020-0.027-0.046-0.049-0.075-0.065s-0.061-0.027-0.095-0.031c-0.033-0.004-0.067-0.002-0.1 0.007s-0.063 0.024-0.089 0.045l-1.613 1.258-2.256-2.883c-0.020-0.027-0.046-0.049-0.075-0.065s-0.061-0.027-0.095-0.031-0.067-0.002-0.099 0.007c-0.032 0.009-0.063 0.024-0.089 0.045l-1.213 0.95c-0.027 0.021-0.049 0.046-0.065 0.075s-0.027 0.061-0.031 0.095c-0.004 0.033-0.002 0.067 0.007 0.099s0.024 0.063 0.045 0.089l2.256 2.886-0.006 0.003 1.107 1.418c0.086 0.112 0.246 0.131 0.358 0.045l1.613-1.258 2.051 2.624c0.086 0.112 0.246 0.131 0.358 0.045l1.213-0.947c0.112-0.086 0.131-0.246 0.045-0.358l-2.051-2.627zM19.072 3.2c-5.373 0-9.728 4.355-9.728 9.728 0 2.25 0.765 4.32 2.045 5.968l-8.115 8.115c-0.048 0.048-0.074 0.113-0.074 0.181s0.027 0.133 0.074 0.181l1.354 1.354c0.099 0.099 0.262 0.099 0.362 0l8.115-8.115c1.648 1.28 3.718 2.045 5.968 2.045 5.373 0 9.728-4.355 9.728-9.728s-4.355-9.728-9.728-9.728zM24.231 18.086c-1.376 1.379-3.21 2.138-5.158 2.138s-3.782-0.758-5.158-2.138c-1.379-1.376-2.138-3.21-2.138-5.158s0.758-3.782 2.138-5.158c1.376-1.379 3.21-2.138 5.158-2.138s3.782 0.758 5.158 2.138c1.379 1.376 2.137 3.21 2.137 5.158s-0.758 3.782-2.137 5.158z"></path>
</svg>
