<!-- Generated by IcoMoon.io -->
<svg version="1.1" xmlns="http://www.w3.org/2000/svg" width="32" height="32" viewBox="0 0 32 32">
<title>more-dot</title>
<path d="M14.4 5.333c0 0.566 0.225 1.108 0.625 1.508s0.943 0.625 1.508 0.625c0.566 0 1.108-0.225 1.508-0.625s0.625-0.943 0.625-1.508-0.225-1.108-0.625-1.508c-0.4-0.4-0.943-0.625-1.508-0.625s-1.108 0.225-1.508 0.625-0.625 0.943-0.625 1.508zM14.4 16c0 0.566 0.225 1.108 0.625 1.508s0.943 0.625 1.508 0.625c0.566 0 1.108-0.225 1.508-0.625s0.625-0.943 0.625-1.508c0-0.566-0.225-1.108-0.625-1.508s-0.943-0.625-1.508-0.625c-0.566 0-1.108 0.225-1.508 0.625s-0.625 0.943-0.625 1.508v0zM14.4 26.667c0 0.566 0.225 1.108 0.625 1.508s0.943 0.625 1.508 0.625c0.566 0 1.108-0.225 1.508-0.625s0.625-0.943 0.625-1.508c0-0.566-0.225-1.108-0.625-1.508s-0.943-0.625-1.508-0.625c-0.566 0-1.108 0.225-1.508 0.625s-0.625 0.943-0.625 1.508v0z"></path>
</svg>
