<!-- Generated by IcoMoon.io -->
<svg version="1.1" xmlns="http://www.w3.org/2000/svg" width="32" height="32" viewBox="0 0 32 32">
<title>more</title>
<path d="M12 4.8h-3.84c-1.92 0-3.36 1.44-3.36 3.36v4c0 1.76 1.44 3.36 3.36 3.36h4c1.76 0 3.36-1.44 3.36-3.36v-4c-0.16-1.92-1.6-3.36-3.52-3.36z"></path>
<path d="M23.84 16.64h-4c-1.76 0-3.36 1.44-3.36 3.36v4c0 1.76 1.44 3.36 3.36 3.36h4c1.76 0 3.36-1.44 3.36-3.36v-4c0-1.92-1.44-3.36-3.36-3.36z"></path>
<path d="M23.84 4.8h-4c-1.76 0-3.36 1.44-3.36 3.36v4c0 2.56-2.080 4.64-4.64 4.64h-3.68c-1.76 0-3.36 1.44-3.36 3.36v4c0 1.6 1.44 3.040 3.36 3.040h4c1.76 0 3.36-1.44 3.36-3.36v-4c0-2.56 2.080-4.64 4.64-4.64h4c1.76 0 3.36-1.44 3.36-3.36v-3.68c-0.32-1.92-1.76-3.36-3.68-3.36z"></path>
</svg>
