<!-- Generated by IcoMoon.io -->
<svg version="1.1" xmlns="http://www.w3.org/2000/svg" width="32" height="32" viewBox="0 0 32 32">
<path d="M27.776 5.506h-5.376v-2.048c0-0.141-0.115-0.256-0.256-0.256h-1.792c-0.141 0-0.256 0.115-0.256 0.256v2.048h-8.192v-2.048c0-0.141-0.115-0.256-0.256-0.256h-1.792c-0.141 0-0.256 0.115-0.256 0.256v2.048h-5.376c-0.566 0-1.024 0.458-1.024 1.024v21.248c0 0.566 0.458 1.024 1.024 1.024h23.552c0.566 0 1.024-0.458 1.024-1.024v-21.248c0-0.566-0.458-1.024-1.024-1.024zM26.496 26.498h-20.992v-18.688h4.096v1.536c0 0.141 0.115 0.256 0.256 0.256h1.792c0.141 0 0.256-0.115 0.256-0.256v-1.536h8.192v1.536c0 0.141 0.115 0.256 0.256 0.256h1.792c0.141 0 0.256-0.115 0.256-0.256v-1.536h4.096v18.688zM21.632 13.058h-1.766c-0.163 0-0.32 0.080-0.416 0.211l-4.829 6.65-2.070-2.848c-0.096-0.131-0.25-0.211-0.416-0.211h-1.766c-0.208 0-0.33 0.237-0.208 0.406l4.045 5.568c0.048 0.065 0.11 0.119 0.183 0.156s0.152 0.056 0.233 0.056 0.161-0.019 0.233-0.056c0.072-0.037 0.135-0.090 0.183-0.156l6.803-9.366c0.122-0.173 0-0.41-0.208-0.41z"></path>
</svg>
