<!-- Generated by IcoMoon.io -->
<svg version="1.1" xmlns="http://www.w3.org/2000/svg" width="32" height="32" viewBox="0 0 32 32">
<path d="M8.889 16.444h14.222c0.504 0 0.926-0.17 1.267-0.511s0.511-0.763 0.511-1.267-0.17-0.926-0.511-1.267c-0.341-0.341-0.763-0.511-1.267-0.511h-14.222c-0.504 0-0.926 0.17-1.267 0.511s-0.511 0.763-0.511 1.267 0.17 0.926 0.511 1.267c0.341 0.341 0.763 0.511 1.267 0.511zM8.889 10.222h14.222c0.504 0 0.926-0.17 1.267-0.511s0.511-0.763 0.511-1.267-0.17-0.926-0.511-1.267c-0.341-0.341-0.763-0.511-1.267-0.511h-14.222c-0.504 0-0.926 0.17-1.267 0.511s-0.511 0.763-0.511 1.267c0 0.504 0.17 0.926 0.511 1.267s0.763 0.511 1.267 0.511zM3.556 32c-0.978 0-1.815-0.348-2.511-1.044s-1.044-1.533-1.044-2.511v-24.889c0-0.978 0.348-1.815 1.044-2.511s1.533-1.044 2.511-1.044h24.889c0.978 0 1.815 0.348 2.511 1.044s1.044 1.533 1.044 2.511v24.889c0 0.978-0.348 1.815-1.044 2.511s-1.533 1.044-2.511 1.044h-24.889zM16 23.111c0.948 0 1.822-0.244 2.622-0.733s1.452-1.133 1.955-1.933c0.178-0.267 0.4-0.481 0.667-0.644s0.563-0.244 0.889-0.244h6.311v-16h-24.889v16h6.311c0.326 0 0.622 0.081 0.889 0.244s0.489 0.378 0.667 0.644c0.504 0.8 1.156 1.445 1.956 1.933s1.674 0.733 2.622 0.733z"></path>
</svg>
