<!-- Generated by IcoMoon.io -->
<svg version="1.1" xmlns="http://www.w3.org/2000/svg" width="32" height="32" viewBox="0 0 32 32">
<title>my-reward</title>
<path d="M28.757 12.699l-6.261-7.825c-0.019-0.023-0.042-0.041-0.069-0.054s-0.056-0.020-0.085-0.020h-12.683c-0.059 0-0.117 0.028-0.154 0.074l-6.261 7.825c-0.029 0.037-0.044 0.082-0.043 0.129s0.019 0.092 0.049 0.127l12.603 14.173c0.037 0.043 0.093 0.065 0.148 0.065s0.108-0.025 0.148-0.065l12.603-14.173c0.031-0.035 0.048-0.080 0.049-0.127s-0.014-0.092-0.043-0.129v0zM20.108 6.57l1.061 4.13-4.087-4.13h3.026zM20.361 12.076h-8.723l4.361-4.408 4.361 4.408zM11.892 6.57h3.026l-4.090 4.13 1.064-4.13zM10.245 6.786l-1.36 5.29h-2.872l4.232-5.29zM6.21 13.618h2.912l3.88 7.64-6.792-7.64zM16 23.75l-5.148-10.132h10.292l-5.145 10.132zM18.995 21.258l3.883-7.64h2.912l-6.795 7.64zM23.116 12.076l-1.36-5.29 4.232 5.29h-2.872z"></path>
</svg>
