<!-- Generated by IcoMoon.io -->
<svg version="1.1" xmlns="http://www.w3.org/2000/svg" width="32" height="32" viewBox="0 0 32 32">
<path d="M3.166 10.013h25.669c0.213 0 0.34 0.238 0.222 0.415l-3.525 5.276c-0.12 0.179-0.12 0.413 0 0.593l3.525 5.276c0.118 0.177-0.009 0.415-0.222 0.415h-25.669c-0.213 0-0.34-0.238-0.222-0.415l3.525-5.276c0.12-0.179 0.12-0.413 0-0.593l-3.525-5.276c-0.118-0.177 0.009-0.415 0.222-0.415zM12.42 18.4v-4.8h-1.010v3.019h-0.042l-2.072-3.019h-0.891v4.8h1.015v-3.021h0.035l2.088 3.021h0.877zM13.258 13.6v4.8h3.244v-0.837h-2.229v-1.146h2.053v-0.837h-2.053v-1.144h2.22v-0.837h-3.234zM17.007 13.6l1.373 4.8h0.989l0.912-3.138h0.037l0.914 3.138h0.989l1.373-4.8h-1.109l-0.795 3.342h-0.042l-0.874-3.342h-0.949l-0.877 3.335h-0.040l-0.795-3.335h-1.109z"></path>
</svg>
