<!-- Generated by IcoMoon.io -->
<svg version="1.1" xmlns="http://www.w3.org/2000/svg" width="32" height="32" viewBox="0 0 32 32">
<path d="M19.8 7.5l0.2 0.5 0.2-0.5c0.1-0.2 0.2-0.4 0.4-0.6s0.4-0.3 0.6-0.4l0.5-0.2-0.5-0.3c-0.2 0-0.4-0.2-0.6-0.3-0.2-0.2-0.3-0.4-0.4-0.6l-0.2-0.6-0.2 0.5c-0.1 0.2-0.2 0.4-0.4 0.6-0.1 0.2-0.3 0.4-0.6 0.4l-0.5 0.2 0.5 0.2c0.2 0.1 0.4 0.2 0.6 0.4s0.3 0.4 0.4 0.7zM23.6 9.5l0.2 0.4 0.2-0.4c0-0.2 0.1-0.4 0.3-0.5 0.1-0.1 0.3-0.2 0.5-0.3l0.4-0.2-0.4-0.2c-0.2-0.1-0.3-0.2-0.5-0.3-0.2 0-0.3-0.2-0.3-0.4l-0.2-0.4-0.2 0.4c-0.1 0.2-0.2 0.3-0.3 0.5-0.1 0.1-0.3 0.2-0.5 0.3l-0.4 0.2 0.4 0.2c0.2 0.1 0.3 0.2 0.5 0.3 0.2 0 0.3 0.2 0.3 0.4zM26 7.2l0.2 0.4 0.2-0.4c0.1-0.2 0.2-0.3 0.3-0.5 0.1-0.1 0.3-0.2 0.5-0.3l0.4-0.2-0.6-0.1c-0.2-0.1-0.3-0.2-0.5-0.3-0.1-0.1-0.2-0.3-0.3-0.5l-0.2-0.4v0.4c-0.1 0.2-0.2 0.3-0.3 0.5-0.1 0.1-0.3 0.2-0.5 0.3l-0.4 0.2 0.4 0.2c0.2 0.1 0.3 0.2 0.5 0.3 0.1 0 0.2 0.2 0.3 0.4zM23.9 26v1c0 0.1 0 0.1 0 0.2s0.1 0.1 0.1 0.2c0 0 0.1 0.1 0.2 0.1s0.1 0 0.2 0h1.9c0.1 0 0.3-0.1 0.4-0.1 0.1-0.1 0.1-0.2 0.1-0.4v-2c-0.3 0.3-0.7 0.6-1.1 0.7-0.4 0.2-0.9 0.2-1.3 0.2h-0.5zM5.1 25v2c0 0.1 0.1 0.3 0.1 0.4 0.1 0.1 0.2 0.1 0.4 0.1h1.9c0.1 0 0.3-0.1 0.4-0.1 0.1-0.1 0.2-0.3 0.2-0.4v-1h-0.5c-0.5 0-0.9-0.1-1.3-0.2-0.5-0.2-0.9-0.5-1.2-0.8zM5.1 23c0 1.4 1 2.3 2.5 2.3h16.8c1.5 0 2.5-0.8 2.5-2.3v-0.4h-21.8v0.4zM27.1 13.8l-1.2-0.2c-0.1 0-0.2 0-0.3 0s-0.2 0.1-0.2 0.2l-0.4 0.9-0.2-0.2-1.1-2.6c-0.2-0.4-0.5-0.8-0.8-1.1-0.4-0.3-0.8-0.5-1.2-0.5-1.9-0.3-3.8-0.4-5.7-0.4s-3.8 0.1-5.7 0.4c-0.4 0.1-0.9 0.3-1.2 0.5-0.4 0.3-0.6 0.6-0.8 1.1l-1.1 2.6-0.2 0.2-0.4-0.9c0-0.1-0.1-0.2-0.2-0.2s-0.2-0.1-0.3 0l-1.2 0.2c-0.1 0-0.2 0.1-0.3 0.2s-0.1 0.2-0.1 0.3v0.2c0 0.1 0 0.2 0.1 0.3s0.2 0.2 0.3 0.2l1.7 0.4-0.8 1.2c-0.4 0.6-0.6 1.4-0.6 2.1v3.1h21.7v-3.1c0-0.7-0.2-1.5-0.6-2.1l-0.8-1.2 1.7-0.4c0.1 0 0.2-0.1 0.3-0.2s0.1-0.2 0.1-0.3v-0.2c0-0.1 0-0.2-0.1-0.3-0.2-0.1-0.3-0.2-0.4-0.2zM9 12.2c0.1-0.3 0.3-0.6 0.6-0.8s0.6-0.3 0.9-0.4c1.8-0.3 3.7-0.4 5.6-0.4s3.7 0.1 5.6 0.4c0.3 0.1 0.6 0.2 0.9 0.4s0.5 0.5 0.6 0.8l0.8 2h-15.9l0.9-2zM7.4 19.4c-0.1 0-0.3-0.1-0.4-0.2s-0.2-0.2-0.2-0.4c0-0.2-0.1-0.3-0.1-0.5 0-0.4 0.2-0.7 0.5-0.7 0 0 2 0.1 2.2 0.2 0.3 0.1 1.3 2 1.3 2l-3.3-0.4zM19.9 20.1l-3.9 0.3-3.9-0.2-1-2.1c0 0 3.5 0.3 4.9 0.3s4.9-0.3 4.9-0.3l-1 2zM25.2 18.9c0 0.1-0.1 0.3-0.2 0.4s-0.2 0.2-0.4 0.2l-3.3 0.5c0 0 1-1.9 1.3-2s2.2-0.2 2.2-0.2c0.3 0 0.4 0.2 0.5 0.7 0 0 0 0.2-0.1 0.4z"></path>
</svg>
