<!-- Generated by IcoMoon.io -->
<svg version="1.1" xmlns="http://www.w3.org/2000/svg" width="32" height="32" viewBox="0 0 32 32">
<title>new-cars-store</title>
<path d="M7.68 27.2v-5.76h-0.8v-1.92l0.8-4.8h16.48l0.8 4.8v1.92h-0.8v5.76h-1.76v-5.76h-4.16v5.76h-10.56zM9.44 25.28h7.2v-3.84h-7.2v3.84zM8.64 19.52h14.72l-0.48-2.88h-13.76l-0.48 2.88z"></path>
<path d="M25.76 14.72c0 0 0.16-0.16 0 0 0-0.16 0.16-0.48 0.16-0.48 0-0.16 0-0.16 0-0.32 0 0 0-0.16 0.16-0.16 0.32 0 0.64-0.16 0.8-0.32v0c0 0 0 0 0 0s0 0 0 0-0.16 0-0.32 0c-0.16 0-0.32-0.16-0.64-0.16-0.16 0-0.16 0-0.16-0.16 0-0.32-0.16-0.48-0.32-0.8 0 0 0 0 0 0v0c0 0.32-0.16 0.48-0.32 0.8 0 0.16 0 0.16-0.16 0.16-0.32 0-0.48 0.16-0.8 0.32 0 0 0 0 0 0v0c0.32 0 0.48 0.16 0.8 0.32 0.16 0 0.16 0 0.16 0.16 0.48 0 0.48 0.32 0.64 0.64 0-0.16 0 0 0 0v0 0z"></path>
<path d="M20.96 10.56c0-0.16 0-0.16 0 0 0.16-0.48 0.32-0.8 0.48-1.12 0-0.16 0.16-0.48 0.16-0.64s0.16-0.32 0.48-0.48c0.48-0.16 1.12-0.32 1.6-0.48 0 0 0 0 0.16 0v0 0c-0.16 0-0.32-0.16-0.48-0.16-0.32-0.16-0.8-0.16-1.12-0.32-0.16 0-0.32-0.16-0.48-0.48-0.16-0.48-0.32-1.12-0.48-1.6 0 0 0 0 0-0.16 0 0 0 0 0 0.16-0.16 0.48-0.32 1.12-0.48 1.6 0 0.16-0.16 0.32-0.48 0.48-0.48 0.16-1.12 0.32-1.76 0.48 0 0 0 0-0.16 0 0 0 0 0 0.16 0 0.64 0.16 1.12 0.32 1.76 0.48 0.16 0 0.32 0.16 0.48 0.48 0.16 0.48 0.32 1.12 0.48 1.6-0.48 0-0.48 0-0.32 0.16v0 0z"></path>
<path d="M6.88 12.64v0c0.16-0.32 0.16-0.48 0.32-0.8 0-0.16 0-0.32 0.16-0.48 0-0.16 0.16-0.32 0.32-0.32 0.48-0.16 0.8-0.32 1.12-0.32v0 0c0 0 0 0 0 0-0.16 0-0.32 0-0.48-0.16-0.16-0.32-0.32-0.48-0.64-0.48-0.16 0-0.32-0.16-0.32-0.32-0.16-0.32-0.32-0.8-0.32-1.28v0 0c-0.32 0.48-0.48 0.96-0.64 1.28 0 0.16-0.16 0.32-0.32 0.32-0.32 0.16-0.8 0.32-1.28 0.48v0 0c0.48 0.16 0.8 0.32 1.28 0.48 0.16 0.16 0.32 0.16 0.32 0.32 0.16 0.32 0.32 0.8 0.48 1.28 0-0.16 0 0 0 0v0 0z"></path>
</svg>
