<!-- Generated by IcoMoon.io -->
<svg version="1.1" xmlns="http://www.w3.org/2000/svg" width="32" height="32" viewBox="0 0 32 32">
<title>new-cars</title>
<path d="M26.88 18.88c-0.16-0.16-1.6-0.8-1.6-0.8 0.32-0.16 0.48-0.16 0.48-0.64s0-0.64-0.32-0.64h-1.28c-0.8-1.6-0.96-2.080-2.080-2.72-1.6-0.8-4.64-0.8-5.92-0.8s-4.32 0-5.92 0.8c-1.28 0.64-1.12 0.8-2.080 2.72v0h-1.44c-0.32 0-0.32 0.16-0.32 0.64s0.16 0.48 0.48 0.64c0 0-1.28 0.64-1.6 0.8-0.16 0.16-0.32 1.44-0.32 3.52s0.16 4.16 0.16 4.16h0.48c0 0.64 0.16 0.64 0.32 0.64h3.68c0.32 0 0.32-0.16 0.32-0.64h12c0 0.64 0.16 0.64 0.32 0.64h3.84c0.16 0 0.32-0.16 0.32-0.64h0.48c0 0 0.16-2.080 0.16-4.16s0-3.52-0.16-3.52zM9.92 20.64c-0.8 0.16-1.76 0.16-2.56 0.16-0.96 0-0.96 0-1.12-0.48 0-0.32 0-0.48 0-0.8v-0.16h0.16c0.48 0 1.12 0 2.080 0.32 0.48 0.16 0.96 0.32 1.44 0.64 0.32 0.16 0.32 0.32 0.32 0.32h-0.32zM21.44 23.68l-0.16 0.48h-10.4c0 0 0 0-0.16-0.48-0.16-0.32 0-0.64 0.48-0.64 0.64-0.32 2.88-0.96 5.12-0.96s4.32 0.64 5.12 0.96c-0.16 0.32 0.16 0.32 0 0.64v0zM9.44 17.76c-0.16 0-0.32 0-0.48 0 0.16-0.16 0.16-0.48 0.32-0.64 0.32-0.8 0.8-1.6 1.6-1.92 1.12-0.48 3.36-0.64 5.12-0.64s4 0.16 5.12 0.8c0.8 0.32 1.12 1.12 1.6 1.92 0.16 0.16 0.16 0.48 0.32 0.64-0.16 0-0.16 0-0.48 0h-13.12zM25.76 20.16c-0.16 0.48 0 0.48-0.96 0.48-0.8 0-1.76 0-2.56-0.16-0.16 0-0.16-0.16 0-0.32 0.48-0.32 0.96-0.48 1.44-0.64 0.96-0.32 1.6-0.32 2.080-0.32 0 0 0 0 0.16 0 0 0 0 0 0 0.16-0.16 0.32-0.16 0.8-0.16 0.8v0z"></path>
<path d="M25.92 14.56v0c0-0.16 0-0.32 0.16-0.48 0-0.16 0-0.16 0.16-0.32 0-0.16 0.16-0.16 0.16-0.16 0.32-0.16 0.48-0.16 0.8-0.32v0 0 0c-0.16 0-0.16 0-0.32-0.16-0.16 0-0.32-0.16-0.64-0.16-0.16 0-0.16-0.16-0.16-0.16 0-0.32-0.16-0.64-0.16-0.96v0 0c-0.16 0.32-0.16 0.48-0.32 0.8 0 0.16-0.16 0.16-0.16 0.16-0.32 0.16-0.48 0.16-0.8 0.32v0 0c0.32 0.16 0.48 0.16 0.8 0.32 0.16-0.16 0.16 0 0.16 0 0 0.32 0.16 0.64 0.32 1.12-0.16 0-0.16 0 0 0-0.16 0-0.16 0 0 0v0z"></path>
<path d="M20.96 10.24v0c0.16-0.48 0.32-0.8 0.32-1.12 0-0.16 0.16-0.48 0.16-0.64s0.16-0.32 0.32-0.32c0.48-0.16 1.12-0.32 1.6-0.48h0.16c0 0 0 0 0-0.16s0 0 0 0c-0.16 0-0.32-0.16-0.64-0.16-0.32-0.16-0.8-0.16-1.12-0.32-0.16 0-0.32-0.16-0.48-0.48-0.16-0.48-0.32-1.12-0.48-1.6 0 0 0 0-0.16-0.16 0 0-0.16 0-0.16 0.16-0.16 0.48-0.32 1.12-0.48 1.6 0 0.16-0.16 0.32-0.48 0.48-0.48 0.16-1.12 0.32-1.6 0.48 0 0-0.16 0-0.16 0.16 0 0 0 0 0.16 0.16 0.48 0.16 1.12 0.32 1.6 0.48 0.16 0 0.32 0.16 0.48 0.48 0.48 0.16 0.64 0.8 0.96 1.44-0.16 0 0 0 0 0v0 0z"></path>
<path d="M6.88 12.48c0.16 0 0.16 0 0 0 0.16-0.32 0.16-0.64 0.32-0.8 0-0.16 0.16-0.32 0.16-0.48s0.16-0.32 0.32-0.32 0.8-0.32 1.12-0.32c0 0 0 0 0.16 0v0 0c-0.16 0-0.32-0.16-0.48-0.16-0.16-0.48-0.48-0.48-0.8-0.64-0.16 0-0.16-0.16-0.32-0.32s-0.16-0.8-0.32-1.28c0 0 0 0 0-0.16 0 0 0 0 0 0.16-0.32 0.48-0.48 1.12-0.64 1.28 0 0.16-0.16 0.32-0.32 0.32-0.32 0.16-0.8 0.32-1.12 0.48 0 0 0 0-0.16 0 0 0 0 0 0.16 0 0.48 0.16 0.8 0.32 1.28 0.32 0.16 0 0.32 0.16 0.32 0.32 0 0.48 0.16 0.96 0.32 1.6v0 0 0z"></path>
</svg>
