<!-- Generated by IcoMoon.io -->
<svg version="1.1" xmlns="http://www.w3.org/2000/svg" width="32" height="32" viewBox="0 0 32 32">
<path d="M13.12 23.2c2.24 2.4 6.080 3.68 9.44 2.88 1.28 1.6 3.36 2.4 5.28 2.4-0.8-0.64-1.44-1.44-1.92-2.4-0.16-0.32-0.32-0.8-0.32-1.12 9.28-5.44 4-20-6.72-18.24 0 0 0 0 0 0-10.88-10.4-24.96 6.88-12.48 15.2 0 0 0 0 0 0v0c-0.32 1.44-1.28 2.72-2.4 3.52 0.48 0 0.96 0 1.44 0 0 0 0 0 0 0 0.32 0 0.64-0.16 0.96-0.32 0 0 0 0 0 0 0.48-0.16 0.8-0.32 1.28-0.64 0 0 0 0 0 0 0.64-0.32 1.12-0.8 1.6-1.44 0 0 0 0 0 0l3.84 0.16zM3.36 14.4c0 1.6 0.48 3.040 1.12 4.32-6.4-8.48 4.96-18.88 12.96-11.84-0.16 0-0.32 0.16-0.48 0.16-5.44-3.84-13.76 0.48-13.6 7.36zM16.8 17.6c-1.28 0-1.28-1.92 0-1.92 1.12 0 1.12 1.92 0 1.92zM20.64 17.6c-1.28 0.32-1.6-1.92-0.16-1.92 1.12 0 1.28 1.76 0.16 1.92zM18.080 8c3.84-1.12 8 0.8 9.92 4.16-1.76-2.24-4.64-3.68-7.68-3.36-6.24 0.32-10.24 7.68-6.88 13.12-4-4.8-1.12-12.64 4.64-13.92zM24 17.6c-1.28 0-1.28-1.92 0-1.92s1.28 1.92 0 1.92z"></path>
</svg>
