<!-- Generated by IcoMoon.io -->
<svg version="1.1" xmlns="http://www.w3.org/2000/svg" width="32" height="32" viewBox="0 0 32 32">
<path d="M28.558 18.463c0.133 0 0.242-0.109 0.242-0.242v-1.693c0-0.133-0.109-0.242-0.242-0.242h-19.767c-0.216-0.536-0.588-0.995-1.068-1.318s-1.044-0.496-1.622-0.495c-1.602 0-2.902 1.3-2.902 2.902s1.3 2.901 2.902 2.901c1.218 0 2.261-0.75 2.69-1.813h4.543v4.594c0 1.668 1.354 3.022 3.022 3.022h12.202c0.133 0 0.242-0.109 0.242-0.242v-1.692c0-0.133-0.109-0.242-0.242-0.242h-12.202c-0.468 0-0.846-0.378-0.846-0.846v-4.594h13.048zM13.567 10.362h7.979v2.968c0 0.245 0.287 0.387 0.477 0.233l5.214-4.117c0.151-0.118 0.151-0.345 0-0.462l-5.214-4.12c-0.193-0.154-0.477-0.015-0.477 0.233v2.968h-7.979c-0.133 0-0.242 0.109-0.242 0.242v1.813c0 0.133 0.109 0.242 0.242 0.242z"></path>
</svg>
