<!-- Generated by IcoMoon.io -->
<svg version="1.1" xmlns="http://www.w3.org/2000/svg" width="32" height="32" viewBox="0 0 32 32">
<path d="M27.773 3.2c-0.122 0-0.246 0.022-0.371 0.074l-18.442 7.41h-5.247c-0.282 0-0.512 0.237-0.512 0.531v9.567c0 0.294 0.23 0.531 0.512 0.531h3.254c-0.118 0.371-0.182 0.765-0.182 1.165 0 2.108 1.721 3.824 3.84 3.824 1.773 0 3.267-1.203 3.708-2.828l13.074 5.254c0.125 0.048 0.25 0.074 0.371 0.074 0.541 0 1.024-0.454 1.024-1.062v-23.476c-0.003-0.608-0.483-1.062-1.027-1.062zM10.623 24.007c-0.848 0-1.536-0.685-1.536-1.529 0-0.358 0.125-0.701 0.352-0.973l2.716 1.091c-0.064 0.787-0.726 1.411-1.533 1.411v0zM26.493 25.876l-17.089-6.866h-3.9v-6.022h3.9l17.089-6.866v19.754z"></path>
</svg>
