<!-- Generated by IcoMoon.io -->
<svg version="1.1" xmlns="http://www.w3.org/2000/svg" width="32" height="32" viewBox="0 0 32 32">
<path d="M7.68 22.4h16.64c0.48 0 0.96-0.16 1.44-0.32s0.8-0.64 1.12-0.96c0.32-0.48 0.48-0.96 0.48-1.44s0-0.96-0.16-1.44l-3.040-8.48c-0.48-1.92-1.6-3.52-3.2-4.64-1.44-1.28-3.2-1.92-5.12-1.92-2.080 0-4 0.64-5.6 1.92s-2.72 3.040-3.2 4.96l-2.56 8.16c-0.16 0.48-0.16 0.96-0.16 1.44 0.16 0.48 0.32 0.96 0.64 1.44s0.64 0.8 1.12 0.96c0.64 0.16 1.12 0.32 1.6 0.32zM10.88 24.48c0.32 1.28 0.96 2.4 1.92 3.040s2.080 1.28 3.36 1.28c1.28 0 2.4-0.48 3.36-1.28s1.6-1.92 1.92-3.040h-10.56z"></path>
</svg>
