<!-- Generated by IcoMoon.io -->
<svg version="1.1" xmlns="http://www.w3.org/2000/svg" width="32" height="32" viewBox="0 0 32 32">
<path d="M28.522 11.896c0.153 0 0.278-0.125 0.278-0.278v-2.087c0-0.153-0.125-0.278-0.278-0.278h-5.704v-5.774c0-0.153-0.125-0.278-0.278-0.278h-2.226c-0.153 0-0.278 0.125-0.278 0.278v5.774h-7.93v-5.774c0-0.153-0.125-0.278-0.278-0.278h-2.226c-0.153 0-0.278 0.125-0.278 0.278v5.774h-5.843c-0.153 0-0.278 0.125-0.278 0.278v2.087c0 0.153 0.125 0.278 0.278 0.278h5.843v8.209h-5.843c-0.153 0-0.278 0.125-0.278 0.278v2.087c0 0.153 0.125 0.278 0.278 0.278h5.843v5.774c0 0.153 0.125 0.278 0.278 0.278h2.226c0.153 0 0.278-0.125 0.278-0.278v-5.774h7.93v5.774c0 0.153 0.125 0.278 0.278 0.278h2.226c0.153 0 0.278-0.125 0.278-0.278v-5.774h5.704c0.153 0 0.278-0.125 0.278-0.278v-2.087c0-0.153-0.125-0.278-0.278-0.278h-5.704v-8.209h5.704zM20.035 20.104h-7.93v-8.209h7.93v8.209z"></path>
</svg>
