<!-- Generated by IcoMoon.io -->
<svg version="1.1" xmlns="http://www.w3.org/2000/svg" width="32" height="32" viewBox="0 0 32 32">
<title>one-toone</title>
<path d="M9.728 21.112h1.92c0.141 0 0.256-0.115 0.256-0.256v-9.728c0-0.141-0.115-0.256-0.256-0.256h-1.92c-0.141 0-0.256 0.115-0.256 0.256v9.728c0 0.141 0.115 0.256 0.256 0.256zM16 19.512c0.707 0 1.28-0.573 1.28-1.248 0-0.739-0.573-1.312-1.28-1.312s-1.28 0.573-1.28 1.312c0 0.675 0.573 1.248 1.28 1.248zM16 15.032c0.707 0 1.28-0.573 1.28-1.248 0-0.739-0.573-1.312-1.28-1.312s-1.28 0.573-1.28 1.312c0 0.675 0.573 1.248 1.28 1.248z"></path>
<path d="M27.776 3.2h-23.552c-0.566 0-1.024 0.458-1.024 1.024v23.552c0 0.566 0.458 1.024 1.024 1.024h23.552c0.566 0 1.024-0.458 1.024-1.024v-23.552c0-0.566-0.458-1.024-1.024-1.024zM26.496 26.496h-20.992v-20.992h20.992v20.992z"></path>
<path d="M20.352 21.112h1.92c0.141 0 0.256-0.115 0.256-0.256v-9.728c0-0.141-0.115-0.256-0.256-0.256h-1.92c-0.141 0-0.256 0.115-0.256 0.256v9.728c0 0.141 0.115 0.256 0.256 0.256z"></path>
</svg>
