<!-- Generated by IcoMoon.io -->
<svg version="1.1" xmlns="http://www.w3.org/2000/svg" width="32" height="32" viewBox="0 0 32 32">
<title>ordered-list</title>
<path d="M28.554 23.754h-17.969c-0.135 0-0.246 0.111-0.246 0.246v1.723c0 0.135 0.111 0.246 0.246 0.246h17.969c0.135 0 0.246-0.111 0.246-0.246v-1.723c0-0.135-0.111-0.246-0.246-0.246zM28.554 6.277h-17.969c-0.135 0-0.246 0.111-0.246 0.246v1.723c0 0.135 0.111 0.246 0.246 0.246h17.969c0.135 0 0.246-0.111 0.246-0.246v-1.723c0-0.135-0.111-0.246-0.246-0.246zM28.554 15.015h-17.969c-0.135 0-0.246 0.111-0.246 0.246v1.723c0 0.135 0.111 0.246 0.246 0.246h17.969c0.135 0 0.246-0.111 0.246-0.246v-1.723c0-0.135-0.111-0.246-0.246-0.246zM6.892 22.277h-3.569c-0.068 0-0.123 0.055-0.123 0.123v1.046c0 0.068 0.055 0.123 0.123 0.123h2.228v0.631h-1.098c-0.068 0-0.123 0.055-0.123 0.123v1.046c0 0.068 0.055 0.123 0.123 0.123h1.098v0.662h-2.228c-0.068 0-0.123 0.055-0.123 0.123v1.046c0 0.068 0.055 0.123 0.123 0.123h3.569c0.068 0 0.123-0.055 0.123-0.123v-4.923c0-0.068-0.055-0.123-0.123-0.123zM3.323 6.154h1.169v3.692c0 0.068 0.055 0.123 0.123 0.123h1.231c0.068 0 0.123-0.055 0.123-0.123v-4.8c0-0.135-0.111-0.246-0.246-0.246h-2.4c-0.068 0-0.123 0.055-0.123 0.123v1.108c0 0.068 0.055 0.123 0.123 0.123zM6.892 13.538h-3.569c-0.068 0-0.123 0.055-0.123 0.123v1.108c0 0.068 0.055 0.123 0.123 0.123h2.105l-2.163 2.391c-0.041 0.046-0.064 0.105-0.065 0.166v1.135c0 0.068 0.055 0.123 0.123 0.123h3.569c0.068 0 0.123-0.055 0.123-0.123v-1.108c0-0.068-0.055-0.123-0.123-0.123h-2.105l2.163-2.391c0.041-0.046 0.064-0.105 0.065-0.166v-1.135c0-0.068-0.055-0.123-0.123-0.123v0z"></path>
</svg>
