<!-- Generated by IcoMoon.io -->
<svg version="1.1" xmlns="http://www.w3.org/2000/svg" width="32" height="32" viewBox="0 0 32 32">
<path d="M16 3.2c-7.069 0-12.8 5.731-12.8 12.8s5.731 12.8 12.8 12.8c7.069 0 12.8-5.731 12.8-12.8s-5.731-12.8-12.8-12.8zM16 26.629c-5.869 0-10.629-4.76-10.629-10.629s4.76-10.629 10.629-10.629c5.869 0 10.629 4.76 10.629 10.629s-4.76 10.629-10.629 10.629zM13.486 11.429h-1.371c-0.126 0-0.229 0.103-0.229 0.229v8.686c0 0.126 0.103 0.228 0.229 0.228h1.371c0.126 0 0.229-0.103 0.229-0.228v-8.686c0-0.126-0.103-0.229-0.229-0.229zM19.886 11.429h-1.372c-0.126 0-0.228 0.103-0.228 0.229v8.686c0 0.126 0.103 0.228 0.228 0.228h1.372c0.126 0 0.228-0.103 0.228-0.228v-8.686c0-0.126-0.103-0.229-0.228-0.229z"></path>
</svg>
