<!-- Generated by IcoMoon.io -->
<svg version="1.1" xmlns="http://www.w3.org/2000/svg" width="32" height="32" viewBox="0 0 32 32">
<path d="M16 3.2c-7.069 0-12.8 5.731-12.8 12.8s5.731 12.8 12.8 12.8c7.069 0 12.8-5.731 12.8-12.8s-5.731-12.8-12.8-12.8zM16 26.629c-5.869 0-10.629-4.76-10.629-10.629s4.76-10.629 10.629-10.629c5.869 0 10.629 4.76 10.629 10.629s-4.76 10.629-10.629 10.629zM20.56 9.914h-1.7c-0.086 0-0.166 0.049-0.203 0.126l-2.588 5.143h-0.097l-2.589-5.143c-0.019-0.038-0.048-0.069-0.084-0.091s-0.077-0.034-0.119-0.034h-1.734c-0.037 0-0.074 0.009-0.109 0.029-0.111 0.060-0.151 0.2-0.091 0.311l3.183 5.851h-1.754c-0.126 0-0.229 0.103-0.229 0.228v0.854c0 0.126 0.103 0.228 0.229 0.228h2.334v1.183h-2.334c-0.126 0-0.229 0.103-0.229 0.229v0.854c0 0.126 0.103 0.228 0.229 0.228h2.334v1.946c0 0.126 0.103 0.229 0.229 0.229h1.552c0.126 0 0.228-0.103 0.228-0.229v-1.946h2.343c0.126 0 0.229-0.103 0.229-0.228v-0.854c0-0.126-0.103-0.229-0.229-0.229h-2.343v-1.186h2.343c0.126 0 0.229-0.103 0.229-0.228v-0.854c0-0.126-0.103-0.228-0.229-0.228h-1.771l3.174-5.851c0.017-0.034 0.028-0.071 0.028-0.109-0.003-0.126-0.106-0.229-0.231-0.229z"></path>
</svg>
