<!-- Generated by IcoMoon.io -->
<svg version="1.1" xmlns="http://www.w3.org/2000/svg" width="32" height="32" viewBox="0 0 32 32">
<path d="M28.8 17.6l-1.92-10.88c0-0.8-0.64-1.44-1.28-1.92s-1.44-0.64-2.24-0.48l-16.32 2.88c-1.6 0.32-2.72 1.76-2.4 3.36v0.64c-0.8 0.48-1.44 1.6-1.44 2.56v10.72c0 1.6 1.28 2.88 2.88 2.88h16.16c1.6 0 2.88-1.28 2.88-2.88v-3.36h0.96c0.8-0.32 1.44-0.8 1.92-1.44s0.64-1.44 0.48-2.24zM22.4 11.040h-15.68v-0.64c0-0.32 0-0.48 0-0.8 0-0.16 0.32-0.32 0.64-0.48l16.32-2.88s0 0 0.16 0c0.48 0 0.96 0.32 0.96 0.8l1.92 10.88c0 0.32 0 0.48-0.16 0.8 0 0.16-0.32 0.32-0.64 0.48h-0.64c0 0 0-5.12 0-5.12 0-1.6-1.28-2.88-2.88-2.88zM5.12 19.68h18.24v4.96c0 0.48-0.48 0.96-0.96 0.96h-16.32c-0.48 0-0.96-0.48-0.96-0.96v-4.96zM23.36 16.32v1.44h-18.24v-1.44h18.24zM5.12 14.4v-0.32c0-0.48 0.48-0.96 0.96-0.96h16.16c0.48 0 0.96 0.48 0.96 0.96v0.32h-18.080z"></path>
<path d="M7.2 24.64h3.36c0.48 0 0.96-0.48 0.96-0.96s-0.48-0.96-0.96-0.96h-3.36c-0.48 0-0.96 0.48-0.96 0.96s0.48 0.96 0.96 0.96z"></path>
</svg>
