<!-- Generated by IcoMoon.io -->
<svg version="1.1" xmlns="http://www.w3.org/2000/svg" width="32" height="32" viewBox="0 0 32 32">
<title>percentage</title>
<path d="M28.498 5.047l-1.542-1.542c-0.055-0.054-0.128-0.084-0.205-0.084s-0.151 0.030-0.205 0.084l-23.044 23.036c-0.054 0.055-0.084 0.129-0.084 0.205s0.030 0.151 0.084 0.206l1.542 1.542c0.113 0.113 0.298 0.113 0.411 0l23.040-23.040c0.116-0.109 0.116-0.295 0.004-0.407zM8.436 13.673c2.887 0 5.236-2.349 5.236-5.236s-2.349-5.236-5.236-5.236c-2.887 0-5.236 2.349-5.236 5.236s2.349 5.236 5.236 5.236zM8.436 5.818c1.444 0 2.618 1.175 2.618 2.618s-1.175 2.618-2.618 2.618c-1.444 0-2.618-1.175-2.618-2.618s1.175-2.618 2.618-2.618zM23.564 18.327c-2.887 0-5.236 2.349-5.236 5.236s2.349 5.236 5.236 5.236c2.887 0 5.236-2.349 5.236-5.236s-2.349-5.236-5.236-5.236zM23.564 26.182c-1.444 0-2.618-1.175-2.618-2.618s1.175-2.618 2.618-2.618c1.444 0 2.618 1.175 2.618 2.618s-1.175 2.618-2.618 2.618z"></path>
</svg>
