<!-- Generated by IcoMoon.io -->
<svg version="1.1" xmlns="http://www.w3.org/2000/svg" width="32" height="32" viewBox="0 0 32 32">
<path d="M8.667 6.667c-1.105 0-2 0.895-2 2s0.895 2 2 2c1.105 0 2-0.895 2-2s-0.895-2-2-2zM4 8.667c0-2.577 2.089-4.667 4.667-4.667s4.667 2.089 4.667 4.667c0 2.577-2.089 4.667-4.667 4.667s-4.667-2.089-4.667-4.667zM26.276 5.724c0.521 0.521 0.521 1.365 0 1.886l-18.667 18.667c-0.521 0.521-1.365 0.521-1.886 0s-0.521-1.365 0-1.886l18.667-18.667c0.521-0.521 1.365-0.521 1.886 0zM23.333 21.333c-1.105 0-2 0.895-2 2s0.895 2 2 2c1.105 0 2-0.895 2-2s-0.895-2-2-2zM18.667 23.333c0-2.577 2.089-4.667 4.667-4.667s4.667 2.089 4.667 4.667c0 2.577-2.089 4.667-4.667 4.667s-4.667-2.089-4.667-4.667z"></path>
</svg>
