<!-- Generated by IcoMoon.io -->
<svg version="1.1" xmlns="http://www.w3.org/2000/svg" width="32" height="32" viewBox="0 0 32 32">
<path d="M25.956 16c0-2.773-0.966-5.126-2.898-7.058s-4.284-2.898-7.058-2.898v-2.844c1.778 0 3.443 0.338 4.996 1.013s2.904 1.588 4.053 2.738c1.15 1.15 2.062 2.501 2.738 4.053s1.013 3.218 1.013 4.996h-2.844zM20.267 16c0-1.185-0.415-2.193-1.244-3.022s-1.837-1.244-3.022-1.244v-2.844c1.967 0 3.644 0.693 5.031 2.080s2.080 3.064 2.080 5.031h-2.844zM27.307 28.8c-2.963 0-5.89-0.646-8.782-1.938s-5.523-3.123-7.893-5.493c-2.37-2.37-4.201-5.002-5.493-7.893s-1.938-5.819-1.938-8.782c0-0.427 0.142-0.782 0.427-1.067s0.64-0.427 1.067-0.427h5.76c0.332 0 0.628 0.113 0.889 0.338s0.415 0.492 0.462 0.8l0.924 4.978c0.047 0.379 0.036 0.699-0.036 0.96s-0.201 0.486-0.391 0.676l-3.449 3.484c0.474 0.877 1.037 1.724 1.689 2.542s1.369 1.606 2.151 2.364c0.735 0.735 1.505 1.416 2.311 2.044s1.659 1.203 2.56 1.724l3.342-3.342c0.213-0.213 0.492-0.373 0.836-0.48s0.681-0.136 1.013-0.089l4.907 0.996c0.332 0.095 0.604 0.267 0.818 0.516s0.32 0.528 0.32 0.836v5.76c0 0.427-0.142 0.782-0.427 1.067s-0.64 0.427-1.067 0.427zM7.502 11.733l2.347-2.347-0.604-3.342h-3.164c0.119 0.972 0.284 1.932 0.498 2.88s0.521 1.884 0.924 2.809zM20.231 24.462c0.924 0.403 1.867 0.723 2.827 0.96s1.926 0.391 2.898 0.462v-3.129l-3.342-0.676-2.382 2.382z"></path>
</svg>
