<!-- Generated by IcoMoon.io -->
<svg version="1.1" xmlns="http://www.w3.org/2000/svg" width="32" height="32" viewBox="0 0 32 32">
<title>phone</title>
<path d="M28.32 19.52v0c-0.64-0.8-1.44-1.28-2.4-1.28-1.12-0.16-2.080-0.32-3.040-0.8-0.64-0.32-1.28-0.32-2.080-0.16-0.64 0.16-1.28 0.48-1.76 0.96l-0.8 0.8c-2.080-1.28-4-3.2-5.28-5.28l0.8-0.8c0.48-0.48 0.8-1.12 0.96-1.76s0.16-1.44-0.16-2.080c-0.32-0.96-0.64-2.080-0.8-3.040s-0.48-1.76-1.28-2.24c-0.64-0.64-1.44-0.96-2.4-0.96h-3.52c-0.48 0-0.96 0.16-1.44 0.32s-0.96 0.48-1.28 0.8c-0.32 0.48-0.64 0.96-0.8 1.44s-0.16 0.96-0.16 1.44c0.48 3.84 1.76 7.68 3.84 10.88 1.92 3.040 4.48 5.6 7.52 7.52 3.2 2.080 7.040 3.52 10.88 3.84v0c0.16 0 0.16 0 0.32 0 0.32 0 0.8 0 1.12-0.16v0c0.48-0.16 0.96-0.48 1.28-0.8s0.64-0.8 0.8-1.28c0.16-0.48 0.32-0.96 0.32-1.44v-3.52c0.16-0.8-0.16-1.6-0.64-2.4zM26.56 25.44c0 0.16 0 0.32-0.16 0.48 0 0.16-0.16 0.16-0.32 0.32s-0.32 0.16-0.32 0.16-0.32 0-0.48 0c-3.36-0.32-6.72-1.6-9.76-3.52-2.72-1.76-4.96-4-6.72-6.72v0c-1.76-2.72-2.88-6.080-3.36-9.44 0-0.16 0-0.32 0-0.48s0.16-0.32 0.16-0.32 0.16-0.16 0.32-0.32c0.16 0 0.32-0.16 0.48-0.16h3.52c0.16 0 0.48 0.16 0.64 0.32 0.48 0.16 0.64 0.48 0.64 0.64 0.16 1.28 0.48 2.4 0.96 3.68 0 0.16 0 0.16 0 0.32 0 0 0 0.16 0 0.32v0.16c0 0.16-0.16 0.32-0.32 0.32l-1.44 1.6c-0.48 0.48-0.48 1.12-0.16 1.6 1.76 3.2 4.48 5.76 7.68 7.68 0.48 0.32 1.12 0.16 1.6-0.16l1.44-1.44c0.16-0.16 0.32-0.32 0.48-0.32s0.32 0 0.64 0c1.12 0.48 2.4 0.8 3.68 0.96 0.32 0 0.48 0.16 0.64 0.32s0.32 0.48 0.32 0.8v3.2z"></path>
</svg>
