<!-- Generated by IcoMoon.io -->
<svg version="1.1" xmlns="http://www.w3.org/2000/svg" width="32" height="32" viewBox="0 0 32 32">
<title>pic-center</title>
<path d="M28.571 24.457h-25.143c-0.126 0-0.229 0.103-0.229 0.229v1.6c0 0.126 0.103 0.228 0.229 0.228h25.143c0.126 0 0.229-0.103 0.229-0.228v-1.6c0-0.126-0.103-0.229-0.229-0.229zM28.571 6.4h-25.143c-0.126 0-0.229 0.103-0.229 0.229v1.6c0 0.126 0.103 0.229 0.229 0.229h25.143c0.126 0 0.229-0.103 0.229-0.229v-1.6c0-0.126-0.103-0.229-0.229-0.229zM25.6 20.686c0.251 0 0.457-0.206 0.457-0.457v-7.543c0-0.251-0.206-0.457-0.457-0.457h-19.2c-0.251 0-0.457 0.206-0.457 0.457v7.543c0 0.251 0.206 0.457 0.457 0.457h19.2zM8 14.286h16v4.343h-16v-4.343z"></path>
</svg>
