<!-- Generated by IcoMoon.io -->
<svg version="1.1" xmlns="http://www.w3.org/2000/svg" width="32" height="32" viewBox="0 0 32 32">
<title>picture</title>
<path d="M27.886 6.4h-23.771c-0.506 0-0.914 0.409-0.914 0.914v18.286c0 0.506 0.409 0.914 0.914 0.914h23.771c0.506 0 0.914-0.408 0.914-0.914v-18.286c0-0.506-0.409-0.914-0.914-0.914zM26.743 24.457h-21.486v-1.14l3.957-4.694 4.289 5.086 6.671-7.909 6.569 7.789v0.868zM26.743 20.749l-6.394-7.583c-0.092-0.109-0.257-0.109-0.349 0l-6.497 7.703-4.114-4.877c-0.091-0.109-0.257-0.109-0.349 0l-3.783 4.486v-12.020h21.486v12.291zM10.057 14.857c0.33 0 0.657-0.065 0.962-0.191s0.582-0.312 0.816-0.545c0.233-0.233 0.419-0.511 0.545-0.816s0.191-0.632 0.191-0.962c0-0.33-0.065-0.657-0.191-0.962s-0.312-0.582-0.545-0.816c-0.233-0.233-0.511-0.419-0.816-0.545s-0.632-0.191-0.962-0.191c-0.667 0-1.306 0.265-1.778 0.736s-0.736 1.111-0.736 1.778c0 0.667 0.265 1.306 0.736 1.778s1.111 0.736 1.778 0.736v0zM10.057 11.543c0.443 0 0.8 0.357 0.8 0.8s-0.357 0.8-0.8 0.8c-0.443 0-0.8-0.357-0.8-0.8s0.357-0.8 0.8-0.8z"></path>
</svg>
