<!-- Generated by IcoMoon.io -->
<svg version="1.1" xmlns="http://www.w3.org/2000/svg" width="32" height="32" viewBox="0 0 32 32">
<title>play-square</title>
<path d="M13.769 21.296l6.381-5.014c0.043-0.034 0.077-0.077 0.101-0.126s0.036-0.103 0.036-0.157c0-0.054-0.012-0.108-0.036-0.157s-0.058-0.092-0.101-0.126l-6.381-5.018c-0.237-0.186-0.586-0.019-0.586 0.282v10.032c0 0.301 0.349 0.47 0.586 0.285z"></path>
<path d="M27.776 3.2h-23.552c-0.566 0-1.024 0.458-1.024 1.024v23.552c0 0.566 0.458 1.024 1.024 1.024h23.552c0.566 0 1.024-0.458 1.024-1.024v-23.552c0-0.566-0.458-1.024-1.024-1.024zM26.496 26.496h-20.992v-20.992h20.992v20.992z"></path>
</svg>
