<!-- Generated by IcoMoon.io -->
<svg version="1.1" xmlns="http://www.w3.org/2000/svg" width="32" height="32" viewBox="0 0 32 32">
<title>play</title>
<path d="M16 28.8c-7.040 0-12.8-5.76-12.8-12.8s5.76-12.8 12.8-12.8 12.8 5.76 12.8 12.8-5.76 12.8-12.8 12.8zM16 5.6c-5.76 0-10.4 4.64-10.4 10.4s4.64 10.4 10.4 10.4 10.4-4.64 10.4-10.4-4.64-10.4-10.4-10.4z"></path>
<path d="M12.8 11.36c0-0.64 0.64-0.96 1.28-0.64l7.36 4.96c0.48 0.32 0.48 0.96 0 1.28l-7.36 4.96c-0.48 0.32-1.28 0-1.28-0.64v-9.92z"></path>
</svg>
