<!-- Generated by IcoMoon.io -->
<svg version="1.1" xmlns="http://www.w3.org/2000/svg" width="32" height="32" viewBox="0 0 32 32">
<title>play</title>
<path d="M16 28.8c-7.1 0-12.8-5.7-12.8-12.8s5.7-12.8 12.8-12.8c7.1 0 12.8 5.7 12.8 12.8s-5.7 12.8-12.8 12.8zM16 5.6c-5.7 0-10.4 4.7-10.4 10.4s4.7 10.4 10.4 10.4c5.7 0 10.4-4.7 10.4-10.4s-4.7-10.4-10.4-10.4z"></path>
<path d="M14.1 21.1c-0.2 0-0.4 0-0.6-0.1-0.4-0.2-0.6-0.6-0.6-1.1v-7.8c0-0.4 0.2-0.8 0.6-1.1 0.4-0.2 0.9-0.2 1.2 0.1l5.9 3.9c0.3 0.2 0.5 0.6 0.5 1s-0.2 0.8-0.5 1l-5.9 3.9c-0.1 0.1-0.3 0.2-0.6 0.2zM15.3 14.3v3.3l2.5-1.7-2.5-1.6z"></path>
</svg>
