<!-- Generated by IcoMoon.io -->
<svg version="1.1" xmlns="http://www.w3.org/2000/svg" width="32" height="32" viewBox="0 0 32 32">
<path d="M13.465 9.488l8.46 6.143c0.058 0.042 0.106 0.097 0.139 0.162s0.050 0.135 0.050 0.207c0 0.072-0.017 0.143-0.050 0.207s-0.080 0.119-0.139 0.161l-8.46 6.143c-0.3 0.217-0.723 0.006-0.723-0.368v-12.286c0-0.084 0.023-0.167 0.066-0.239s0.107-0.13 0.182-0.168c0.075-0.038 0.159-0.055 0.243-0.048s0.164 0.037 0.232 0.086zM14.565 12.539v6.92l4.763-3.46-4.763-3.46z"></path>
<path d="M3.2 16c0-7.069 5.731-12.8 12.8-12.8s12.8 5.731 12.8 12.8c0 7.069-5.731 12.8-12.8 12.8s-12.8-5.731-12.8-12.8zM5.371 16c0 5.869 4.76 10.629 10.629 10.629s10.629-4.76 10.629-10.629c0-5.869-4.76-10.629-10.629-10.629s-10.629 4.76-10.629 10.629z"></path>
</svg>
