<!-- Generated by IcoMoon.io -->
<svg version="1.1" xmlns="http://www.w3.org/2000/svg" width="32" height="32" viewBox="0 0 32 32">
<path d="M16.497 3.2h-2.133c-0.19 0-0.284 0.095-0.284 0.284v11.164h-10.595c-0.19 0-0.284 0.095-0.284 0.284v2.133c0 0.19 0.095 0.284 0.284 0.284h10.595v11.164c0 0.19 0.095 0.284 0.284 0.284h2.133c0.19 0 0.284-0.095 0.284-0.284v-11.164h10.596c0.19 0 0.284-0.095 0.284-0.284v-2.133c0-0.19-0.095-0.284-0.284-0.284h-10.596v-11.164c0-0.19-0.095-0.284-0.284-0.284z"></path>
</svg>
