<!-- Generated by IcoMoon.io -->
<svg version="1.1" xmlns="http://www.w3.org/2000/svg" width="32" height="32" viewBox="0 0 32 32">
<path d="M10.111 17.025h4.864v4.864c0 0.141 0.115 0.256 0.256 0.256h1.536c0.141 0 0.256-0.115 0.256-0.256v-4.864h4.864c0.141 0 0.256-0.115 0.256-0.256v-1.536c0-0.141-0.115-0.256-0.256-0.256h-4.864v-4.864c0-0.141-0.115-0.256-0.256-0.256h-1.536c-0.141 0-0.256 0.115-0.256 0.256v4.864h-4.864c-0.141 0-0.256 0.115-0.256 0.256v1.536c0 0.141 0.115 0.256 0.256 0.256z"></path>
<path d="M27.776 3.2h-23.552c-0.566 0-1.024 0.458-1.024 1.024v23.552c0 0.566 0.458 1.024 1.024 1.024h23.552c0.566 0 1.024-0.458 1.024-1.024v-23.552c0-0.566-0.458-1.024-1.024-1.024zM26.496 26.496h-20.992v-20.992h20.992v20.992z"></path>
</svg>
