<!-- Generated by IcoMoon.io -->
<svg version="1.1" xmlns="http://www.w3.org/2000/svg" width="32" height="32" viewBox="0 0 32 32">
<title>pound</title>
<path d="M16 3.2c-7.069 0-12.8 5.731-12.8 12.8s5.731 12.8 12.8 12.8c7.069 0 12.8-5.731 12.8-12.8s-5.731-12.8-12.8-12.8zM16 26.629c-5.869 0-10.629-4.76-10.629-10.629s4.76-10.629 10.629-10.629c5.869 0 10.629 4.76 10.629 10.629s-4.76 10.629-10.629 10.629zM19.943 20.634h-5.149v-0.134c0.783-0.491 1.254-1.44 1.254-2.603 0-0.403-0.063-0.797-0.152-1.171h2.817c0.126 0 0.229-0.103 0.229-0.229v-0.857c0-0.126-0.103-0.229-0.229-0.229h-3.2c-0.206-0.646-0.383-1.306-0.383-2.014 0-1.243 0.971-2.006 2.494-2.006 0.614 0 1.214 0.117 1.726 0.3 0.149 0.054 0.303-0.057 0.303-0.217v-1.129c0-0.094-0.060-0.18-0.148-0.214-0.537-0.206-1.252-0.363-2.009-0.363-2.654 0-4.329 1.271-4.329 3.437 0 0.751 0.197 1.486 0.417 2.203h-1.529c-0.126 0-0.229 0.103-0.229 0.229v0.857c0 0.126 0.103 0.229 0.229 0.229h1.917c0.097 0.42 0.169 0.84 0.169 1.263 0 1.291-0.823 2.38-2.080 2.691-0.103 0.026-0.174 0.117-0.174 0.223v1.1c0 0.126 0.103 0.229 0.229 0.229h7.826c0.126 0 0.228-0.103 0.228-0.229v-1.137c0-0.126-0.103-0.229-0.228-0.229z"></path>
</svg>
