<!-- Generated by IcoMoon.io -->
<svg version="1.1" xmlns="http://www.w3.org/2000/svg" width="32" height="32" viewBox="0 0 32 32">
<path d="M21.737 4.53c-0.036-0.018-0.077-0.027-0.117-0.025s-0.080 0.014-0.115 0.035c-0.034 0.021-0.063 0.051-0.083 0.087s-0.030 0.076-0.029 0.116v1.902c0 0.163 0.086 0.314 0.222 0.403 0.668 0.421 1.286 0.916 1.843 1.476 0.969 0.972 1.73 2.101 2.261 3.357 0.548 1.301 0.83 2.698 0.827 4.11 0 1.425-0.279 2.809-0.827 4.11-0.53 1.254-1.297 2.394-2.261 3.357-0.96 0.966-2.099 1.735-3.354 2.264-1.298 0.551-2.682 0.83-4.104 0.83s-2.806-0.278-4.104-0.83c-1.255-0.529-2.394-1.298-3.354-2.264-0.963-0.963-1.731-2.103-2.261-3.357-0.548-1.301-0.83-2.698-0.827-4.11 0-1.425 0.279-2.809 0.827-4.11 0.53-1.256 1.292-2.385 2.261-3.357 0.563-0.563 1.179-1.055 1.843-1.476 0.139-0.086 0.222-0.24 0.222-0.403v-1.905c0-0.178-0.187-0.29-0.344-0.213-4.145 2.086-7.004 6.356-7.064 11.304-0.083 7.076 5.704 12.954 12.776 12.969 7.081 0.015 12.824-5.727 12.824-12.812 0-5.013-2.874-9.354-7.064-11.458v0zM15.053 17.422h1.896c0.13 0 0.237-0.107 0.237-0.237v-13.748c0-0.13-0.107-0.237-0.237-0.237h-1.896c-0.13 0-0.237 0.107-0.237 0.237v13.748c0 0.13 0.107 0.237 0.237 0.237z"></path>
</svg>
