<!-- Generated by IcoMoon.io -->
<svg version="1.1" xmlns="http://www.w3.org/2000/svg" width="32" height="32" viewBox="0 0 32 32">
<path d="M21.806 20.378c0 2.501-1.87 4.697-4.541 5.335l-0.423 0.104v2.983h-2.278v-2.983l-0.423-0.104c-2.478-0.594-4.259-2.493-4.512-4.779h2.3c0.312 1.551 1.885 2.693 3.777 2.693 2.107 0 3.821-1.462 3.821-3.25 0-0.527-0.059-0.928-0.193-1.276-0.156-0.386-0.401-0.705-0.764-0.957-0.312-0.23-0.712-0.408-1.261-0.586-0.401-0.119-0.891-0.245-1.566-0.393l-0.275-0.059c-1.217-0.252-2.731-0.571-3.903-1.365-1.321-0.89-1.966-2.241-1.966-4.126 0-2.501 1.87-4.697 4.541-5.335l0.423-0.104v-2.976h2.278v2.976l0.423 0.104c2.478 0.594 4.259 2.493 4.512 4.779h-2.3c-0.312-1.551-1.885-2.686-3.77-2.686-2.115 0-3.829 1.454-3.829 3.243 0 0.527 0.059 0.928 0.193 1.276 0.156 0.386 0.401 0.705 0.764 0.957 0.312 0.223 0.712 0.408 1.261 0.579 0.453 0.141 1.002 0.282 1.84 0.453 1.217 0.26 2.723 0.579 3.903 1.373 1.321 0.89 1.966 2.241 1.966 4.126z"></path>
</svg>
