<!-- Generated by IcoMoon.io -->
<svg version="1.1" xmlns="http://www.w3.org/2000/svg" width="32" height="32" viewBox="0 0 32 32">
<path d="M26.496 13.568h-1.28c-0.141 0-0.256 0.115-0.256 0.256v1.28c0 0.141 0.115 0.256 0.256 0.256h1.28c0.141 0 0.256-0.115 0.256-0.256v-1.28c0-0.141-0.115-0.256-0.256-0.256zM27.52 10.24h-3.84v-6.784c0-0.141-0.115-0.256-0.256-0.256h-13.568c-0.141 0-0.256 0.115-0.256 0.256v6.784h-3.84c-1.414 0-2.56 1.146-2.56 2.56v10.496c0 0.566 0.458 1.024 1.024 1.024h5.376v4.224c0 0.141 0.115 0.256 0.256 0.256h13.568c0.141 0 0.256-0.115 0.256-0.256v-4.224h5.376c0.566 0 1.024-0.458 1.024-1.024v-10.496c0-1.414-1.146-2.56-2.56-2.56zM11.776 5.376h9.728v4.864h-9.728v-4.864zM21.504 26.624h-9.728v-8.832h9.728v8.832zM27.904 22.144h-4.224v-6.528h-14.080v6.528h-4.224v-9.344c0-0.211 0.173-0.384 0.384-0.384h21.76c0.211 0 0.384 0.173 0.384 0.384v9.344z"></path>
</svg>
