<!-- Generated by IcoMoon.io -->
<svg version="1.1" xmlns="http://www.w3.org/2000/svg" width="32" height="32" viewBox="0 0 32 32">
<path d="M27.776 3.2h-23.552c-0.566 0-1.024 0.458-1.024 1.024v23.552c0 0.566 0.458 1.024 1.024 1.024h23.552c0.566 0 1.024-0.458 1.024-1.024v-23.552c0-0.566-0.458-1.024-1.024-1.024zM26.496 26.496h-20.992v-20.992h20.992v20.992zM15.36 12.416h5.888c0.141 0 0.256-0.115 0.256-0.256v-1.536c0-0.141-0.115-0.256-0.256-0.256h-5.888c-0.141 0-0.256 0.115-0.256 0.256v1.536c0 0.141 0.115 0.256 0.256 0.256zM15.36 17.024h5.888c0.141 0 0.256-0.115 0.256-0.256v-1.536c0-0.141-0.115-0.256-0.256-0.256h-5.888c-0.141 0-0.256 0.115-0.256 0.256v1.536c0 0.141 0.115 0.256 0.256 0.256zM15.36 21.632h5.888c0.141 0 0.256-0.115 0.256-0.256v-1.536c0-0.141-0.115-0.256-0.256-0.256h-5.888c-0.141 0-0.256 0.115-0.256 0.256v1.536c0 0.141 0.115 0.256 0.256 0.256zM10.496 11.392c0 0.339 0.135 0.665 0.375 0.905s0.566 0.375 0.905 0.375c0.339 0 0.665-0.135 0.905-0.375s0.375-0.566 0.375-0.905c0-0.339-0.135-0.665-0.375-0.905s-0.566-0.375-0.905-0.375c-0.339 0-0.665 0.135-0.905 0.375s-0.375 0.566-0.375 0.905v0zM10.496 16c0 0.34 0.135 0.665 0.375 0.905s0.566 0.375 0.905 0.375c0.339 0 0.665-0.135 0.905-0.375s0.375-0.566 0.375-0.905c0-0.339-0.135-0.665-0.375-0.905s-0.566-0.375-0.905-0.375c-0.339 0-0.665 0.135-0.905 0.375s-0.375 0.566-0.375 0.905zM10.496 20.608c0 0.34 0.135 0.665 0.375 0.905s0.566 0.375 0.905 0.375c0.339 0 0.665-0.135 0.905-0.375s0.375-0.566 0.375-0.905c0-0.34-0.135-0.665-0.375-0.905s-0.566-0.375-0.905-0.375c-0.339 0-0.665 0.135-0.905 0.375s-0.375 0.566-0.375 0.905v0z"></path>
</svg>
