<!-- Generated by IcoMoon.io -->
<svg version="1.1" xmlns="http://www.w3.org/2000/svg" width="32" height="32" viewBox="0 0 32 32">
<path d="M14.6 16.933l-1.933-1.9c-0.244-0.244-0.55-0.367-0.917-0.367s-0.683 0.133-0.95 0.4c-0.244 0.244-0.367 0.556-0.367 0.933s0.122 0.689 0.367 0.933l2.867 2.867c0.267 0.267 0.578 0.4 0.933 0.4s0.667-0.133 0.933-0.4l5.667-5.667c0.267-0.267 0.394-0.578 0.383-0.933s-0.139-0.667-0.383-0.933c-0.267-0.267-0.583-0.406-0.95-0.417s-0.683 0.117-0.95 0.383l-4.7 4.7zM10.867 29l-1.933-3.267-3.667-0.8c-0.333-0.067-0.6-0.239-0.8-0.517s-0.278-0.583-0.233-0.917l0.367-3.767-2.5-2.867c-0.222-0.244-0.333-0.533-0.333-0.867s0.111-0.622 0.333-0.867l2.5-2.867-0.367-3.767c-0.044-0.333 0.033-0.639 0.233-0.917s0.467-0.45 0.8-0.517l3.667-0.8 1.933-3.267c0.178-0.289 0.422-0.483 0.733-0.583s0.622-0.083 0.933 0.050l3.467 1.467 3.467-1.467c0.311-0.133 0.622-0.15 0.933-0.050s0.556 0.294 0.733 0.583l1.933 3.267 3.667 0.8c0.333 0.067 0.6 0.239 0.8 0.517s0.278 0.583 0.233 0.917l-0.367 3.767 2.5 2.867c0.222 0.244 0.333 0.533 0.333 0.867s-0.111 0.622-0.333 0.867l-2.5 2.867 0.367 3.767c0.044 0.333-0.033 0.639-0.233 0.917s-0.467 0.45-0.8 0.517l-3.667 0.8-1.933 3.267c-0.178 0.289-0.422 0.483-0.733 0.583s-0.622 0.083-0.933-0.050l-3.467-1.467-3.467 1.467c-0.311 0.133-0.622 0.15-0.933 0.050s-0.556-0.294-0.733-0.583zM12.6 26.6l3.4-1.467 3.467 1.467 1.867-3.2 3.667-0.867-0.333-3.733 2.467-2.8-2.467-2.867 0.333-3.733-3.667-0.8-1.933-3.2-3.4 1.467-3.467-1.467-1.867 3.2-3.667 0.8 0.333 3.733-2.467 2.867 2.467 2.8-0.333 3.8 3.667 0.8 1.933 3.2z"></path>
</svg>
