<!-- Generated by IcoMoon.io -->
<svg version="1.1" xmlns="http://www.w3.org/2000/svg" width="32" height="32" viewBox="0 0 32 32">
<title>project</title>
<path d="M8.576 23.68h2.56c0.141 0 0.256-0.115 0.256-0.256v-14.848c0-0.141-0.115-0.256-0.256-0.256h-2.56c-0.141 0-0.256 0.115-0.256 0.256v14.848c0 0.141 0.115 0.256 0.256 0.256zM14.72 14.72h2.56c0.141 0 0.256-0.115 0.256-0.256v-5.888c0-0.141-0.115-0.256-0.256-0.256h-2.56c-0.141 0-0.256 0.115-0.256 0.256v5.888c0 0.141 0.115 0.256 0.256 0.256zM20.864 17.024h2.56c0.141 0 0.256-0.115 0.256-0.256v-8.192c0-0.141-0.115-0.256-0.256-0.256h-2.56c-0.141 0-0.256 0.115-0.256 0.256v8.192c0 0.141 0.115 0.256 0.256 0.256zM27.776 3.2h-23.552c-0.566 0-1.024 0.458-1.024 1.024v23.552c0 0.566 0.458 1.024 1.024 1.024h23.552c0.566 0 1.024-0.458 1.024-1.024v-23.552c0-0.566-0.458-1.024-1.024-1.024zM26.496 26.496h-20.992v-20.992h20.992v20.992z"></path>
</svg>
