<!-- Generated by IcoMoon.io -->
<svg version="1.1" xmlns="http://www.w3.org/2000/svg" width="32" height="32" viewBox="0 0 32 32">
<title>property-safety</title>
<path d="M26.569 6.48l-9.454-3.222c-0.114-0.039-0.267-0.058-0.42-0.058s-0.306 0.019-0.42 0.058l-9.454 3.222c-0.231 0.078-0.42 0.345-0.42 0.59v13.422c0 0.245 0.159 0.568 0.351 0.721l9.591 7.473c0.097 0.075 0.223 0.114 0.351 0.114s0.256-0.039 0.351-0.114l9.591-7.473c0.192-0.15 0.351-0.473 0.351-0.721v-13.422c0.006-0.245-0.184-0.509-0.415-0.59v0zM24.986 19.958l-8.291 6.461-8.291-6.461v-11.897l8.291-2.827 8.291 2.827v11.897zM14.427 10.601h-1.28c-0.047 0-0.092 0.011-0.134 0.033-0.065 0.036-0.112 0.096-0.133 0.166s-0.013 0.147 0.022 0.212l2.448 4.482h-1.258c-0.153 0-0.278 0.125-0.278 0.278v0.593c0 0.153 0.125 0.278 0.278 0.278h1.756v0.826h-1.756c-0.153 0-0.278 0.125-0.278 0.278v0.593c0 0.153 0.125 0.278 0.278 0.278h1.756v1.441c0 0.153 0.125 0.278 0.278 0.278h1.149c0.153 0 0.278-0.125 0.278-0.278v-1.441h1.764c0.153 0 0.278-0.125 0.278-0.278v-0.593c0-0.153-0.125-0.278-0.278-0.278h-1.764v-0.826h1.764c0.153 0 0.278-0.125 0.278-0.278v-0.593c0-0.153-0.125-0.278-0.278-0.278h-1.272l2.44-4.482c0.023-0.042 0.034-0.090 0.033-0.138s-0.015-0.095-0.039-0.137-0.060-0.076-0.101-0.1c-0.042-0.024-0.089-0.037-0.137-0.037h-1.252c-0.106 0-0.2 0.058-0.248 0.153l-2.037 4.015-2.028-4.015c-0.047-0.095-0.145-0.153-0.25-0.153v0z"></path>
</svg>
