<!-- Generated by IcoMoon.io -->
<svg version="1.1" xmlns="http://www.w3.org/2000/svg" width="32" height="32" viewBox="0 0 32 32">
<path d="M24.307 22.022v-15.963c0-0.273-0.224-0.497-0.497-0.497h-5.281v-2.137c0-0.186-0.217-0.292-0.364-0.177l-3.964 3.131c-0.027 0.021-0.049 0.047-0.063 0.078s-0.023 0.064-0.023 0.098c0 0.034 0.008 0.067 0.023 0.098s0.037 0.057 0.063 0.078l3.96 3.131c0.146 0.115 0.364 0.012 0.364-0.177v-2.134h3.541v14.472c-1.373 0.466-2.361 1.768-2.361 3.296 0 1.92 1.559 3.479 3.479 3.479s3.479-1.559 3.479-3.479c0.003-1.528-0.985-2.827-2.358-3.296v0zM23.189 26.809c-0.39-0.008-0.762-0.168-1.035-0.447s-0.426-0.653-0.426-1.044c0-0.39 0.153-0.765 0.426-1.044s0.645-0.439 1.035-0.447c0.39 0.008 0.762 0.168 1.035 0.447s0.426 0.654 0.426 1.044-0.153 0.765-0.426 1.044c-0.273 0.279-0.645 0.439-1.035 0.447v0zM11.758 6.68c0-1.92-1.559-3.479-3.479-3.479s-3.479 1.559-3.479 3.479c0 1.528 0.988 2.827 2.361 3.296v12.049c-1.373 0.466-2.361 1.767-2.361 3.296 0 1.92 1.559 3.479 3.479 3.479s3.479-1.559 3.479-3.479c0-1.528-0.988-2.827-2.361-3.296v-12.049c1.373-0.469 2.361-1.767 2.361-3.296v0zM6.788 6.68c0.008-0.39 0.169-0.762 0.447-1.035s0.653-0.426 1.044-0.426c0.39 0 0.765 0.153 1.044 0.426s0.439 0.645 0.447 1.035c-0.008 0.39-0.169 0.762-0.447 1.035s-0.653 0.426-1.044 0.426c-0.39 0-0.765-0.153-1.044-0.426s-0.439-0.645-0.447-1.035v0zM9.77 25.318c-0.008 0.39-0.169 0.762-0.447 1.035s-0.653 0.426-1.044 0.426c-0.39 0-0.765-0.153-1.044-0.426s-0.439-0.645-0.447-1.035c0.008-0.39 0.169-0.762 0.447-1.035s0.653-0.426 1.044-0.426c0.39 0 0.765 0.153 1.044 0.426s0.439 0.645 0.447 1.035z"></path>
</svg>
