<!-- Generated by IcoMoon.io -->
<svg version="1.1" xmlns="http://www.w3.org/2000/svg" width="32" height="32" viewBox="0 0 32 32">
<path d="M25.6 14.24v0s-2.88-7.36-2.88-7.36c0-0.48-0.48-0.64-0.96-0.64h-11.68c-0.48 0-0.8 0.32-0.96 0.64l-2.72 7.2s0 0 0 0c0 0 0 0.32 0 0.32s0 0 0 0v9.44c0 0.48 0.16 0.8 0.48 1.12s0.64 0.48 1.12 0.48h16c0.8 0 1.6-0.64 1.6-1.6v-9.44s0 0 0 0c0 0 0-0.32 0-0.32zM17.92 13.28v0.48c0 1.12-0.8 1.92-1.92 1.92s-1.12-0.16-1.44-0.48c-0.32-0.32-0.48-0.8-0.48-1.44v-0.48h-5.28l2.080-4.96h10.24l2.080 4.96h-5.12zM8.32 15.2h4c0.64 1.44 1.92 2.4 3.52 2.4s1.6-0.32 2.24-0.64c0.64-0.32 0.96-0.96 1.28-1.6h4v8.48h-15.040v-8.48z"></path>
</svg>
