<!-- Generated by IcoMoon.io -->
<svg version="1.1" xmlns="http://www.w3.org/2000/svg" width="32" height="32" viewBox="0 0 32 32">
<title>push-pin</title>
<path d="M28.472 11.919l-8.389-8.389c-0.221-0.221-0.511-0.33-0.8-0.33s-0.579 0.109-0.8 0.33l-5.485 5.488c-0.415-0.048-0.834-0.068-1.253-0.068-2.492 0-4.984 0.821-7.031 2.462-0.124 0.1-0.225 0.224-0.298 0.365s-0.115 0.296-0.123 0.455c-0.009 0.159 0.016 0.317 0.073 0.466s0.144 0.283 0.256 0.396l6.186 6.186-7.334 7.327c-0.090 0.089-0.145 0.208-0.157 0.334l-0.116 1.267c-0.031 0.32 0.225 0.592 0.541 0.592 0.017 0 0.034 0 0.051-0.003l1.267-0.116c0.126-0.010 0.245-0.068 0.334-0.157l7.334-7.334 6.186 6.186c0.221 0.221 0.511 0.33 0.8 0.33 0.33 0 0.657-0.143 0.882-0.422 1.917-2.394 2.714-5.39 2.39-8.287l5.485-5.485c0.439-0.436 0.439-1.151 0-1.593v0zM21.251 17.272l-0.834 0.834 0.129 1.171c0.203 1.812-0.159 3.642-1.035 5.24l-12.022-12.029c0.439-0.242 0.895-0.446 1.372-0.609 0.926-0.32 1.896-0.48 2.884-0.48 0.327 0 0.657 0.017 0.984 0.054l1.171 0.129 5.386-5.386 6.52 6.52-4.556 4.556z"></path>
</svg>
