<!-- Generated by IcoMoon.io -->
<svg version="1.1" xmlns="http://www.w3.org/2000/svg" width="32" height="32" viewBox="0 0 32 32">
<path d="M23.797 8.356c-0.463-1.012-1.121-1.922-1.961-2.699-1.707-1.584-3.972-2.457-6.373-2.457s-4.667 0.873-6.374 2.454c-0.84 0.781-1.498 1.687-1.961 2.702-0.483 1.058-0.728 2.18-0.728 3.337v0.893c0 0.205 0.165 0.37 0.37 0.37h1.786c0.205 0 0.37-0.165 0.37-0.37v-0.893c0-3.291 2.93-5.967 6.536-5.967s6.536 2.676 6.536 5.967c0 1.349-0.48 2.62-1.389 3.678-0.9 1.048-2.17 1.799-3.575 2.117-0.804 0.182-1.528 0.635-2.041 1.283-0.511 0.646-0.789 1.445-0.79 2.269v1.039c0 0.205 0.165 0.37 0.37 0.37h1.786c0.205 0 0.37-0.165 0.37-0.37v-1.039c0-0.519 0.36-0.976 0.86-1.088 1.932-0.437 3.684-1.478 4.938-2.934 0.632-0.738 1.124-1.558 1.465-2.448 0.354-0.923 0.533-1.892 0.533-2.878 0-1.158-0.245-2.282-0.728-3.337v0zM15.463 25.096c-1.022 0-1.852 0.83-1.852 1.852s0.83 1.852 1.852 1.852c1.022 0 1.852-0.83 1.852-1.852s-0.83-1.852-1.852-1.852z"></path>
</svg>
