<!-- Generated by IcoMoon.io -->
<svg version="1.1" xmlns="http://www.w3.org/2000/svg" width="32" height="32" viewBox="0 0 32 32">
<path d="M16 3.2c-7.069 0-12.8 5.731-12.8 12.8s5.731 12.8 12.8 12.8c7.069 0 12.8-5.731 12.8-12.8s-5.731-12.8-12.8-12.8zM16 26.629c-5.869 0-10.629-4.76-10.629-10.629s4.76-10.629 10.629-10.629c5.869 0 10.629 4.76 10.629 10.629s-4.76 10.629-10.629 10.629z"></path>
<path d="M19.188 10.419c-0.857-0.751-1.989-1.163-3.189-1.163s-2.331 0.414-3.189 1.163c-0.891 0.78-1.383 1.829-1.383 2.951v0.217c0 0.126 0.103 0.229 0.229 0.229h1.371c0.126 0 0.229-0.103 0.229-0.229v-0.217c0-1.26 1.231-2.286 2.743-2.286s2.743 1.026 2.743 2.286c0 0.889-0.628 1.703-1.603 2.077-0.606 0.231-1.12 0.637-1.489 1.169-0.374 0.543-0.569 1.194-0.569 1.854v0.614c0 0.126 0.103 0.229 0.229 0.229h1.371c0.126 0 0.229-0.103 0.229-0.229v-0.648c0.001-0.277 0.086-0.548 0.244-0.776s0.38-0.404 0.639-0.504c1.686-0.649 2.774-2.134 2.774-3.786 0.003-1.123-0.489-2.171-1.38-2.951zM14.857 22.285c0 0.303 0.12 0.594 0.335 0.808s0.505 0.335 0.808 0.335c0.303 0 0.594-0.12 0.808-0.335s0.335-0.505 0.335-0.808c0-0.303-0.12-0.594-0.335-0.808s-0.505-0.335-0.808-0.335c-0.303 0-0.594 0.12-0.808 0.335s-0.335 0.505-0.335 0.808z"></path>
</svg>
