<!-- Generated by IcoMoon.io -->
<svg version="1.1" xmlns="http://www.w3.org/2000/svg" width="32" height="32" viewBox="0 0 32 32">
<path d="M28.252 8.358c-0.481-2.174-2.589-4.165-4.769-4.588-1.328-0.265-5.033-0.594-7.483-0.566-2.45-0.027-6.155 0.301-7.483 0.566-2.18 0.423-4.287 2.414-4.769 4.588-0.274 1.32-0.543 3.116-0.547 5.567 0.004 2.451 0.273 4.247 0.547 5.567 0.481 2.174 2.589 4.165 4.769 4.588 0.717 0.144 2.127 0.305 3.658 0.419 0.174 0.272 0.361 0.563 0.565 0.87 0.812 1.231 1.434 2.088 1.905 2.685 0.784 0.995 1.925 0.995 2.709 0 0.471-0.597 1.092-1.455 1.905-2.685 0.204-0.308 0.391-0.597 0.565-0.87 1.532-0.114 2.941-0.276 3.659-0.419 2.18-0.423 4.287-2.414 4.769-4.588 0.274-1.32 0.544-3.115 0.548-5.567-0.004-2.451-0.273-4.247-0.548-5.567l-0.001-0.001zM17.413 21.358c-0.054 0.304-0.33 0.58-0.635 0.635-0.184 0.030-0.436 0.060-0.779 0.060s-0.594-0.029-0.779-0.060c-0.304-0.054-0.58-0.33-0.634-0.635-0.030-0.184-0.059-0.436-0.060-0.779s0.029-0.595 0.060-0.78c0.054-0.304 0.33-0.58 0.634-0.634 0.184-0.031 0.436-0.060 0.779-0.060s0.594 0.029 0.779 0.060c0.304 0.054 0.58 0.33 0.635 0.634 0.031 0.184 0.060 0.436 0.060 0.78s-0.029 0.594-0.060 0.779zM20.457 13.169c-0.386 0.546-0.964 1.044-1.82 1.568-1.083 0.668-1.257 0.942-1.257 1.48v0.212c0 0.762-0.62 1.382-1.382 1.382s-1.382-0.62-1.382-1.382v-0.492c0-0.634 0.159-1.172 0.484-1.644 0.316-0.458 0.789-0.865 1.492-1.282 1.294-0.761 1.531-1.189 1.531-1.756 0-0.713-0.607-1.174-1.547-1.174-1.030 0-1.7 0.468-1.993 1.391-0.193 0.609-0.757 1.018-1.403 1.018-0.036 0-0.072-0.002-0.108-0.004-0.456-0.033-0.864-0.27-1.12-0.649-0.254-0.376-0.32-0.837-0.182-1.266 0.315-0.982 0.919-1.799 1.746-2.363 0.838-0.571 1.896-0.872 3.060-0.872s2.33 0.386 3.158 1.085c0.852 0.72 1.321 1.713 1.321 2.797 0 0.744-0.196 1.383-0.599 1.952z"></path>
</svg>
