<!-- Generated by IcoMoon.io -->
<svg version="1.1" xmlns="http://www.w3.org/2000/svg" width="32" height="32" viewBox="0 0 32 32">
<path d="M6.24 25.12h3.040c0.16 0 0.32 0 0.48 0v-3.36c0-0.48-0.48-0.96-0.96-0.96h-2.080c-0.48 0-0.96 0.48-0.96 0.96v3.36c0 0 0.32 0 0.48 0zM9.28 28.8h-3.040c-0.32 0-0.64 0-0.96-0.32s-0.32-0.64-0.32-0.96 0-0.64 0.32-0.96 0.64-0.32 0.96-0.32h3.040c0.32 0 0.64 0 0.96 0.32s0.32 0.64 0.32 0.96 0 0.64-0.32 0.96-0.64 0.32-0.96 0.32zM26.88 4.64c0 0-0.16 0-0.32 0 0 0-0.16 0-0.32 0-2.56 1.28-5.28 0.48-8.16-0.32-3.040-0.96-6.080-1.92-8.96 0 0-0.32-0.32-0.64-0.64-0.8s-0.64-0.16-0.96-0.16c-0.32 0-0.64 0.16-0.8 0.48s-0.32 0.64-0.32 0.96v15.36c0 0 0.32 0 0.32 0h2.080c0 0 0.32 0 0.32 0v-2.080c2.72-1.6 5.6-0.8 8.64 0 1.76 0.48 3.52 0.96 5.28 0.96s2.56-0.32 3.68-0.96c0.32-0.16 0.32-0.48 0.32-0.96v-12c0 0 0-0.16 0-0.32 0 0 0-0.16-0.16-0.32zM26.56 16.96c0 0.48 0 0.48 0 0.48-1.76 0.96-3.52 1.12-5.44 0.64v-6.24c-2.080-0.48-4.16-1.28-6.080-1.6v6.4c-1.92-0.32-3.84-0.32-5.76 0.64v-6.24c1.92-1.12 3.84-1.28 5.76-0.8v-6.24c0.96 0.16 1.92 0.48 3.040 0.8s2.080 0.64 3.2 0.8v6.24c1.76 0.32 3.68 0.32 5.44-0.64v5.76z"></path>
</svg>
