<!-- Generated by IcoMoon.io -->
<svg version="1.1" xmlns="http://www.w3.org/2000/svg" width="32" height="32" viewBox="0 0 32 32">
<path d="M28.405 11.997l-11.843-8.613c-0.163-0.119-0.36-0.184-0.562-0.184s-0.399 0.064-0.562 0.184l-11.843 8.613c-0.164 0.119-0.285 0.287-0.348 0.479s-0.062 0.399 0.001 0.592l4.525 13.936c0.062 0.192 0.184 0.359 0.347 0.478s0.36 0.183 0.562 0.183h14.639c0.416 0 0.781-0.266 0.909-0.661l4.525-13.936c0.126-0.395-0.015-0.825-0.35-1.071v0zM25.767 12.592l-2.946 0.957-5.981-4.327v-3.122l8.927 6.493zM14.624 17.084l-2.665 3.658-1.651-5.060 4.316 1.403zM11.146 14.189l4.016-2.904v4.211l-4.016-1.307zM15.999 18.041l2.808 3.855h-5.617l2.808-3.855zM16.84 11.285l4.013 2.904-4.013 1.304v-4.208zM17.375 17.084l4.316-1.403-1.651 5.060-2.665-3.658zM15.162 6.099v3.122l-5.984 4.327-2.946-0.957 8.93-6.493zM5.75 14.201l2.587 0.84 2.405 7.369-1.609 2.21-3.382-10.419zM10.47 25.632l1.504-2.064h8.054l1.504 2.064h-11.063zM22.866 24.621l-1.609-2.21 2.404-7.369 2.587-0.84-3.382 10.42z"></path>
</svg>
