<!-- Generated by IcoMoon.io -->
<svg version="1.1" xmlns="http://www.w3.org/2000/svg" width="32" height="32" viewBox="0 0 32 32">
<title>radius-setting-outlined</title>
<path d="M12.664 4.535h-1.699c-0.133 0-0.243 0.109-0.243 0.243v1.699c0 0.133 0.109 0.243 0.243 0.243h1.699c0.133 0 0.243-0.109 0.243-0.243v-1.699c0-0.133-0.109-0.243-0.243-0.243zM11.329 25.281h-1.699c-0.133 0-0.243 0.109-0.243 0.243v1.699c0 0.133 0.109 0.243 0.243 0.243h1.699c0.133 0 0.243-0.109 0.243-0.243v-1.699c0-0.133-0.109-0.243-0.243-0.243zM27.223 19.094h-1.699c-0.133 0-0.243 0.109-0.243 0.243v1.699c0 0.133 0.109 0.243 0.243 0.243h1.699c0.133 0 0.243-0.109 0.243-0.243v-1.699c0-0.133-0.109-0.243-0.243-0.243zM6.476 10.722h-1.699c-0.133 0-0.243 0.109-0.243 0.243v1.699c0 0.133 0.109 0.243 0.243 0.243h1.699c0.133 0 0.243-0.109 0.243-0.243v-1.699c0-0.133-0.109-0.243-0.243-0.243zM6.476 15.575h-1.699c-0.133 0-0.243 0.109-0.243 0.243v1.699c0 0.133 0.109 0.243 0.243 0.243h1.699c0.133 0 0.243-0.109 0.243-0.243v-1.699c0-0.133-0.109-0.243-0.243-0.243zM6.476 20.428h-1.699c-0.133 0-0.243 0.109-0.243 0.243v1.699c0 0.134 0.109 0.243 0.243 0.243h1.699c0.133 0 0.243-0.109 0.243-0.243v-1.699c0-0.133-0.109-0.243-0.243-0.243zM6.476 25.281h-1.699c-0.133 0-0.243 0.109-0.243 0.243v1.699c0 0.133 0.109 0.243 0.243 0.243h1.699c0.133 0 0.243-0.109 0.243-0.243v-1.699c0-0.133-0.109-0.243-0.243-0.243zM16.182 25.281h-1.698c-0.133 0-0.243 0.109-0.243 0.243v1.699c0 0.133 0.109 0.243 0.243 0.243h1.698c0.134 0 0.243-0.109 0.243-0.243v-1.699c0-0.133-0.109-0.243-0.243-0.243zM21.035 25.281h-1.699c-0.133 0-0.243 0.109-0.243 0.243v1.699c0 0.133 0.109 0.243 0.243 0.243h1.699c0.133 0 0.243-0.109 0.243-0.243v-1.699c0-0.133-0.109-0.243-0.243-0.243zM25.281 16.667c0 0.133 0.109 0.243 0.243 0.243h1.699c0.133 0 0.243-0.109 0.243-0.243v-5.156c0-3.852-3.124-6.976-6.976-6.976h-5.156c-0.133 0-0.243 0.109-0.243 0.243v1.699c0 0.133 0.109 0.243 0.243 0.243h5.156c2.648 0 4.792 2.144 4.792 4.792v5.156zM7.81 3.2h-4.368c-0.133 0-0.243 0.109-0.243 0.243v4.368c0 0.133 0.109 0.243 0.243 0.243h4.368c0.133 0 0.243-0.109 0.243-0.243v-4.368c0-0.133-0.109-0.243-0.243-0.243zM6.354 6.282c0 0.039-0.033 0.073-0.073 0.073h-1.31c-0.039 0-0.073-0.033-0.073-0.073v-1.31c0-0.039 0.033-0.073 0.073-0.073h1.31c0.039 0 0.073 0.033 0.073 0.073v1.31zM28.557 23.947h-4.368c-0.133 0-0.243 0.109-0.243 0.243v4.368c0 0.134 0.109 0.243 0.243 0.243h4.368c0.134 0 0.243-0.109 0.243-0.243v-4.368c0-0.133-0.109-0.243-0.243-0.243zM27.101 27.029c0 0.039-0.033 0.073-0.073 0.073h-1.31c-0.039 0-0.073-0.033-0.073-0.073v-1.31c0-0.039 0.033-0.073 0.073-0.073h1.31c0.039 0 0.073 0.033 0.073 0.073v1.31z"></path>
</svg>
