<!-- Generated by IcoMoon.io -->
<svg version="1.1" xmlns="http://www.w3.org/2000/svg" width="32" height="32" viewBox="0 0 32 32">
<path d="M27.886 6.4h-6.537c-1.403 0-2.774 0.403-3.954 1.163l-1.394 0.894-1.394-0.894c-1.179-0.76-2.552-1.164-3.954-1.163h-6.537c-0.506 0-0.914 0.409-0.914 0.914v16.229c0 0.506 0.409 0.914 0.914 0.914h6.537c1.403 0 2.774 0.403 3.954 1.163l1.269 0.817c0.037 0.023 0.080 0.037 0.123 0.037s0.086-0.011 0.123-0.037l1.269-0.817c1.183-0.76 2.557-1.163 3.96-1.163h6.537c0.506 0 0.914-0.408 0.914-0.914v-16.229c0-0.506-0.409-0.914-0.914-0.914zM10.651 22.4h-5.394v-13.943h5.394c1.011 0 1.994 0.289 2.843 0.834l1.394 0.894 0.197 0.129v13.2c-1.36-0.731-2.88-1.114-4.434-1.114zM26.743 22.4h-5.394c-1.554 0-3.074 0.383-4.434 1.114v-13.2l0.197-0.129 1.394-0.894c0.848-0.546 1.831-0.834 2.843-0.834h5.394v13.943zM12.711 12.114h-5.309c-0.111 0-0.203 0.097-0.203 0.214v1.286c0 0.117 0.091 0.214 0.203 0.214h5.306c0.111 0 0.203-0.097 0.203-0.214v-1.286c0.003-0.117-0.089-0.214-0.2-0.214zM19.086 12.329v1.286c0 0.117 0.091 0.214 0.203 0.214h5.306c0.112 0 0.203-0.097 0.203-0.214v-1.286c0-0.117-0.091-0.214-0.203-0.214h-5.306c-0.112 0-0.203 0.097-0.203 0.214zM12.711 16.114h-5.309c-0.111 0-0.203 0.097-0.203 0.214v1.286c0 0.117 0.091 0.214 0.203 0.214h5.306c0.111 0 0.203-0.097 0.203-0.214v-1.286c0.003-0.117-0.089-0.214-0.2-0.214zM24.597 16.114h-5.308c-0.112 0-0.203 0.097-0.203 0.214v1.286c0 0.117 0.091 0.214 0.203 0.214h5.306c0.112 0 0.203-0.097 0.203-0.214v-1.286c0.003-0.117-0.088-0.214-0.2-0.214z"></path>
</svg>
