<!-- Generated by IcoMoon.io -->
<svg version="1.1" xmlns="http://www.w3.org/2000/svg" width="32" height="32" viewBox="0 0 32 32">
<path d="M21.248 17.696c-1.626 0-2.944 1.318-2.944 2.944s1.318 2.944 2.944 2.944c1.626 0 2.944-1.318 2.944-2.944s-1.318-2.944-2.944-2.944zM21.248 21.728c-0.602 0-1.088-0.486-1.088-1.088s0.486-1.088 1.088-1.088c0.602 0 1.088 0.486 1.088 1.088s-0.486 1.088-1.088 1.088zM27.776 4.992h-6.784c0-0.989-0.803-1.792-1.792-1.792h-2.56c-0.989 0-1.792 0.803-1.792 1.792h-6.784c-0.566 0-1.024 0.458-1.024 1.024v6.4h-2.816c-0.566 0-1.024 0.458-1.024 1.024v14.336c0 0.566 0.458 1.024 1.024 1.024h10.752c0.566 0 1.024-0.458 1.024-1.024v-0.512h11.776c0.566 0 1.024-0.458 1.024-1.024v-20.224c0-0.566-0.458-1.024-1.024-1.024zM14.592 7.040h2.304v-1.792h2.048v1.792h2.304v1.536h-6.656v-1.536zM13.952 26.752h-8.704v-7.424h8.704v7.424zM13.952 17.28h-8.704v-2.816h8.704v2.816zM26.496 24.96h-10.496v-11.52c0-0.566-0.458-1.024-1.024-1.024h-5.632v-5.12h3.2v3.328h10.752v-3.328h3.2v17.664zM22.144 12.672v3.072c0 0.141 0.115 0.256 0.256 0.256h1.536c0.141 0 0.256-0.115 0.256-0.256v-3.072c0-0.141-0.115-0.256-0.256-0.256h-1.536c-0.141 0-0.256 0.115-0.256 0.256zM18.56 16h1.536c0.141 0 0.256-0.115 0.256-0.256v-1.792c0-0.141-0.115-0.256-0.256-0.256h-1.536c-0.141 0-0.256 0.115-0.256 0.256v1.792c0 0.141 0.115 0.256 0.256 0.256z"></path>
</svg>
