<!-- Generated by IcoMoon.io -->
<svg version="1.1" xmlns="http://www.w3.org/2000/svg" width="32" height="32" viewBox="0 0 32 32">
<path d="M14.417 14.589c-0.020-0.040-0.051-0.073-0.088-0.096s-0.081-0.035-0.126-0.035h-1.394c-0.037 0-0.074 0.011-0.111 0.029-0.028 0.015-0.052 0.035-0.072 0.060s-0.035 0.053-0.044 0.083c-0.009 0.030-0.012 0.062-0.009 0.093s0.013 0.062 0.028 0.090l2.497 4.603h-1.297c-0.131 0-0.24 0.109-0.24 0.24v0.717c0 0.132 0.109 0.24 0.24 0.24h1.8v0.817h-1.8c-0.131 0-0.24 0.108-0.24 0.24v0.717c0 0.131 0.109 0.24 0.24 0.24h1.8v1.426c0 0.132 0.109 0.24 0.24 0.24h1.249c0.131 0 0.24-0.108 0.24-0.24v-1.426h1.808c0.134 0 0.24-0.109 0.234-0.243v-0.714c0-0.132-0.108-0.24-0.24-0.24h-1.808v-0.817h1.808c0.132 0 0.24-0.108 0.24-0.24v-0.717c0-0.131-0.108-0.24-0.24-0.24h-1.311l2.491-4.6c0.020-0.037 0.029-0.078 0.028-0.119s-0.013-0.082-0.034-0.117c-0.021-0.036-0.051-0.065-0.087-0.086s-0.077-0.032-0.118-0.032h-1.366c-0.088 0-0.171 0.051-0.214 0.131l-2.054 4.054-2.049-4.057zM25.6 3.2h-18.286c-0.506 0-0.914 0.409-0.914 0.914v23.771c0 0.506 0.409 0.914 0.914 0.914h18.286c0.506 0 0.914-0.409 0.914-0.914v-23.771c0-0.506-0.408-0.914-0.914-0.914zM24.457 26.743h-16v-19.854l7.437 5.831c0.331 0.26 0.797 0.26 1.129 0l7.434-5.831v19.854zM24.457 5.277h-0.906l-7.094 5.56-7.094-5.56h-0.906v-0.020h16v0.020z"></path>
</svg>
