<!-- Generated by IcoMoon.io -->
<svg version="1.1" xmlns="http://www.w3.org/2000/svg" width="32" height="32" viewBox="0 0 32 32">
<path d="M18.2 4.5h-11c-1.5 0-2.6 1.2-2.6 2.6v14.9c0 1.5 1.2 2.6 2.6 2.6h7.8c-0.8-1.3-1.3-2.8-1.3-4.5v-2.3c-0.1 0.1-0.3 0.1-0.5 0.1h-4.9c-0.5 0-1-0.4-1-1 0-0.5 0.4-1 1-1h4.8c0.2 0 0.3 0 0.5 0.1 0-0.8 0.4-1.6 1-2.1h-6.3c-0.5 0-1-0.4-1-1 0-0.5 0.4-1 1-1h8.7c0.4 0 0.7 0.2 0.9 0.6l2.7-0.9c0.1 0 0.1 0 0.2-0.1v-4.4c0-1.4-1.2-2.6-2.6-2.6zM12.2 10.3h-3.9c-0.5 0-1-0.4-1-1 0-0.5 0.4-1 1-1h3.8c0.5 0 1 0.4 1 1 0 0.5-0.4 1-0.9 1z"></path>
<path d="M26.9 15.4l-5-1.7c-0.2-0.1-0.4-0.1-0.6 0l-5 1.7c-0.2 0.1-0.4 0.2-0.5 0.3-0.1 0.2-0.2 0.4-0.2 0.6v3.9c0 4.9 5.4 7.2 5.6 7.3 0.1 0 0.2 0.1 0.4 0.1 0.1 0 0.3 0 0.4-0.1 0.2-0.1 5.6-2.4 5.6-7.3v-3.9c0-0.2-0.1-0.4-0.2-0.6-0.2-0.1-0.4-0.3-0.5-0.3zM24.9 19l-2.9 3.8c-0.1 0.1-0.2 0.2-0.3 0.3s-0.3 0.1-0.4 0.1c-0.1 0-0.3 0-0.4-0.1-0.1 0-0.2-0.1-0.3-0.2l-1.9-1.9c-0.1-0.1-0.2-0.2-0.2-0.3s-0.1-0.2-0.1-0.4 0-0.3 0.1-0.4c0-0.1 0.1-0.2 0.2-0.3s0.2-0.2 0.3-0.2c0.1 0 0.2-0.1 0.4-0.1s0.3 0 0.4 0.1c0.1 0 0.2 0.1 0.3 0.2l1.1 1.1 2.2-2.9c0.2-0.2 0.4-0.3 0.6-0.4 0.1 0 0.3 0 0.4 0s0.2 0.1 0.3 0.2 0.2 0.2 0.2 0.3c0.1 0.1 0.1 0.2 0.1 0.4 0 0.1 0 0.3 0 0.4s0 0.2-0.1 0.3z"></path>
</svg>
