<!-- Generated by IcoMoon.io -->
<svg version="1.1" xmlns="http://www.w3.org/2000/svg" width="32" height="32" viewBox="0 0 32 32">
<path d="M16 3c-2.8 0-5.4 1.1-7.4 3-1.9 1.9-3 4.6-3 7.4 0 7.9 9.7 15.2 10.1 15.5 0.1 0.1 0.2 0.1 0.3 0.1s0.2 0 0.3-0.1c0.4-0.3 10.1-7.6 10.1-15.5 0-2.8-1.1-5.4-3-7.4-2-1.9-4.6-3-7.4-3zM16 21.2c-1.5 0-3.1-0.5-4.3-1.3-1.3-0.9-2.3-2.1-2.9-3.5s-0.7-3-0.4-4.5c0.3-1.5 1-2.9 2.1-4s2.5-1.8 4-2.1c1.5-0.4 3.1-0.2 4.5 0.4s2.6 1.6 3.5 2.9c0.9 1.3 1.3 2.8 1.3 4.3 0 2.1-0.8 4.1-2.3 5.5-1.4 1.5-3.4 2.3-5.5 2.3zM16.1 15.2l-2.4 2.4c-0.3 0.3-0.7 0.5-1.2 0.5v0c-0.4 0-0.9-0.2-1.2-0.5s-0.5-0.7-0.5-1.2c0-0.2 0-0.4 0.1-0.6s0.2-0.4 0.4-0.5l2.4-2.4c0.5 1.1 1.3 1.9 2.4 2.3zM21.1 10.5c0.2 0.7 0.1 1.5-0.2 2.2s-0.8 1.2-1.5 1.6c-0.7 0.4-1.4 0.5-2.1 0.4s-1.4-0.5-1.9-1c-0.5-0.5-0.9-1.2-1-1.9s0-1.5 0.4-2.1c0.4-0.7 0.9-1.2 1.6-1.5s1.4-0.4 2.2-0.2c0.1 0 0.1 0.1 0.2 0.1 0.1 0.1 0.1 0.1 0.1 0.2s0 0.2 0 0.2-0.1 0.1-0.1 0.2l-1.2 1.2c-0.1 0.1-0.1 0.2-0.1 0.3v1.1c0 0.1 0 0.2 0.1 0.3s0.2 0.1 0.3 0.1h1.1c0.1 0 0.2 0 0.3-0.1l1.2-1.2c0.1-0.1 0.1-0.1 0.2-0.1s0.2 0 0.2 0 0.1 0.1 0.2 0.1c0 0 0 0 0 0.1v0z"></path>
</svg>
