<!-- Generated by IcoMoon.io -->
<svg version="1.1" xmlns="http://www.w3.org/2000/svg" width="32" height="32" viewBox="0 0 32 32">
<title>rest</title>
<path d="M15.936 22.146c2.544 0 4.608-2.064 4.608-4.608s-2.064-4.608-4.608-4.608c-2.544 0-4.608 2.064-4.608 4.608s2.064 4.608 4.608 4.608zM15.936 14.978c1.414 0 2.56 1.146 2.56 2.56s-1.146 2.56-2.56 2.56c-1.414 0-2.56-1.146-2.56-2.56s1.146-2.56 2.56-2.56z"></path>
<path d="M26.304 7.808h-0.899l-1.142-3.869c-0.128-0.438-0.528-0.739-0.982-0.739h-14.432c-0.458 0-0.858 0.301-0.982 0.739l-1.142 3.869h-0.899c-0.566 0-1.024 0.458-1.024 1.024v0.896c0 0.141 0.115 0.256 0.256 0.256h1.466l1.526 17.878c0.022 0.256 0.139 0.494 0.328 0.668s0.436 0.27 0.693 0.27h13.734c0.257 0 0.504-0.096 0.693-0.27s0.306-0.412 0.328-0.668l1.526-17.878h1.722c0.141 0 0.256-0.115 0.256-0.256v-0.896c0-0.566-0.458-1.024-1.024-1.024zM9.709 5.376h12.71l0.717 2.432h-14.144l0.717-2.432zM21.747 26.624h-11.622l-1.421-16.64h14.461l-1.418 16.64z"></path>
</svg>
