<!-- Generated by IcoMoon.io -->
<svg version="1.1" xmlns="http://www.w3.org/2000/svg" width="32" height="32" viewBox="0 0 32 32">
<path fill="#fff" d="M14.707 27.572c-2.607-0.323-4.768-1.46-6.481-3.41s-2.57-4.24-2.57-6.869c0-1.422 0.28-2.785 0.84-4.089s1.358-2.44 2.392-3.41l1.842 1.842c-0.819 0.733-1.438 1.584-1.859 2.553s-0.63 2.004-0.63 3.103c0 1.896 0.603 3.572 1.81 5.026s2.758 2.343 4.655 2.667v2.586zM17.293 27.572v-2.586c1.875-0.345 3.421-1.239 4.638-2.683s1.826-3.114 1.826-5.010c0-2.155-0.754-3.987-2.263-5.495s-3.34-2.263-5.495-2.263h-0.097l1.422 1.422-1.81 1.81-4.525-4.525 4.525-4.525 1.81 1.81-1.422 1.422h0.097c2.888 0 5.333 1.002 7.337 3.006s3.006 4.45 3.006 7.337c0 2.607-0.857 4.886-2.57 6.836s-3.873 3.098-6.481 3.442z"></path>
</svg>
