<!-- Generated by IcoMoon.io -->
<svg version="1.1" xmlns="http://www.w3.org/2000/svg" width="32" height="32" viewBox="0 0 32 32">
<path d="M20.42 15.814l-7.029-5.086c-0.034-0.025-0.075-0.040-0.117-0.043s-0.084 0.005-0.122 0.024c-0.038 0.019-0.069 0.049-0.091 0.085s-0.034 0.077-0.033 0.12v1.34c0 0.291 0.14 0.569 0.377 0.74l4.154 3.006-4.154 3.006c-0.237 0.171-0.377 0.446-0.377 0.74v1.34c0 0.186 0.211 0.294 0.363 0.186l7.029-5.086c0.126-0.091 0.126-0.28 0-0.371z"></path>
<path d="M16 3.2c-7.069 0-12.8 5.731-12.8 12.8s5.731 12.8 12.8 12.8c7.069 0 12.8-5.731 12.8-12.8s-5.731-12.8-12.8-12.8zM16 26.629c-5.869 0-10.629-4.76-10.629-10.629s4.76-10.629 10.629-10.629c5.869 0 10.629 4.76 10.629 10.629s-4.76 10.629-10.629 10.629z"></path>
</svg>
