<!-- Generated by IcoMoon.io -->
<svg version="1.1" xmlns="http://www.w3.org/2000/svg" width="32" height="32" viewBox="0 0 32 32">
<path d="M12.822 21.903l7.872-5.696c0.141-0.102 0.141-0.31 0-0.413l-7.872-5.696c-0.17-0.122-0.406 0-0.406 0.208v1.501c0 0.326 0.157 0.637 0.422 0.829l4.653 3.363-4.653 3.366c-0.266 0.192-0.422 0.499-0.422 0.829v1.501c0 0.208 0.237 0.33 0.406 0.208z"></path>
<path d="M27.776 3.2h-23.552c-0.566 0-1.024 0.458-1.024 1.024v23.552c0 0.566 0.458 1.024 1.024 1.024h23.552c0.566 0 1.024-0.458 1.024-1.024v-23.552c0-0.566-0.458-1.024-1.024-1.024zM26.496 26.496h-20.992v-20.992h20.992v20.992z"></path>
</svg>
