<!-- Generated by IcoMoon.io -->
<svg version="1.1" xmlns="http://www.w3.org/2000/svg" width="32" height="32" viewBox="0 0 32 32">
<title>rise</title>
<path d="M28.523 6.402l-6.159 0.742c-0.204 0.025-0.291 0.275-0.145 0.42l1.833 1.833-6.988 6.988-3.147-3.144c-0.195-0.195-0.507-0.192-0.699 0l-9.946 9.949c-0.046 0.047-0.072 0.109-0.072 0.175s0.026 0.128 0.072 0.175l1.391 1.397c0.096 0.096 0.254 0.096 0.349 0l8.555-8.552 3.144 3.144c0.195 0.192 0.507 0.192 0.699 0l8.391-8.385 1.833 1.833c0.033 0.033 0.074 0.056 0.119 0.066s0.092 0.008 0.136-0.007c0.044-0.015 0.083-0.042 0.112-0.078s0.048-0.080 0.053-0.126l0.742-6.159c0.022-0.158-0.114-0.294-0.275-0.272v0z"></path>
</svg>
