<!-- Generated by IcoMoon.io -->
<svg version="1.1" xmlns="http://www.w3.org/2000/svg" width="32" height="32" viewBox="0 0 32 32">
<title>robot</title>
<path d="M9.371 10.743c0 0.455 0.181 0.891 0.502 1.212s0.758 0.502 1.212 0.502c0.455 0 0.891-0.181 1.212-0.502s0.502-0.758 0.502-1.212c0-0.455-0.181-0.891-0.502-1.212s-0.758-0.502-1.212-0.502c-0.455 0-0.891 0.181-1.212 0.502s-0.502 0.758-0.502 1.212zM25.143 3.2h-19.429c-0.506 0-0.914 0.409-0.914 0.914v18.857c0 0.506 0.409 0.914 0.914 0.914h19.429c0.506 0 0.914-0.409 0.914-0.914v-18.857c0-0.506-0.408-0.914-0.914-0.914zM24.229 22.057h-17.6v-17.029h17.6v17.029zM18.057 10.743c0 0.455 0.181 0.891 0.502 1.212s0.758 0.502 1.212 0.502c0.455 0 0.891-0.181 1.212-0.502s0.502-0.758 0.502-1.212-0.181-0.891-0.502-1.212c-0.322-0.322-0.758-0.502-1.212-0.502s-0.891 0.181-1.212 0.502c-0.321 0.322-0.502 0.758-0.502 1.212zM25.206 26.629h-19.554c-0.471 0-0.851 0.408-0.851 0.914v1.028c0 0.126 0.094 0.229 0.211 0.229h20.831c0.117 0 0.211-0.103 0.211-0.229v-1.028c0.003-0.506-0.377-0.914-0.848-0.914v0zM19.771 15.886h-8.686c-0.126 0-0.229 0.103-0.229 0.229v1.714c0 0.126 0.103 0.228 0.229 0.228h8.686c0.126 0 0.229-0.103 0.229-0.228v-1.714c0-0.126-0.103-0.229-0.229-0.229z"></path>
</svg>
