<!-- Generated by IcoMoon.io -->
<svg version="1.1" xmlns="http://www.w3.org/2000/svg" width="32" height="32" viewBox="0 0 32 32">
<path d="M25.854 22.699c0-3.338-1.956-6.22-4.785-7.563v-4.958c0-0.452-0.158-0.888-0.452-1.232l-4.558-5.404c-0.191-0.227-0.464-0.341-0.733-0.341s-0.541 0.114-0.733 0.341l-4.558 5.404c-0.291 0.345-0.451 0.781-0.452 1.232v4.959c-2.829 1.343-4.785 4.226-4.785 7.563h4.68c-0.069 0.215-0.105 0.449-0.105 0.712 0 0.661 0.227 1.307 0.64 1.818 0.337 0.418 0.783 0.735 1.289 0.915 0.691 1.615 2.261 2.656 4.022 2.656 0.87 0 1.714-0.257 2.434-0.742 0.706-0.472 1.253-1.133 1.585-1.914 0.506-0.179 0.952-0.495 1.289-0.912 0.413-0.516 0.639-1.157 0.64-1.818 0-0.251-0.033-0.49-0.093-0.712l4.671-0.003zM22.813 19.272c0.281 0.437 0.508 0.906 0.673 1.394h-2.536v-3.269c0.746 0.487 1.381 1.126 1.863 1.875v0zM11.619 15.136v-4.914l3.708-4.396 3.708 4.396v10.443h-7.417v-5.53zM7.169 20.665c0.165-0.488 0.392-0.957 0.673-1.394 0.488-0.754 1.121-1.391 1.863-1.875v3.269h-2.536zM18.799 24.141c-0.156 0.090-0.335 0.126-0.511 0.102l-0.583-0.072-0.084 0.58c-0.162 1.133-1.148 1.989-2.294 1.989s-2.132-0.855-2.294-1.989l-0.084-0.583-0.583 0.075c-0.177 0.021-0.357-0.016-0.511-0.105-0.26-0.15-0.422-0.428-0.422-0.73 0-0.317 0.176-0.58 0.437-0.712h6.917c0.263 0.135 0.437 0.398 0.437 0.712-0.003 0.305-0.165 0.586-0.425 0.733zM13.892 12.65c0 0.381 0.151 0.746 0.42 1.015s0.634 0.42 1.015 0.42c0.381 0 0.746-0.151 1.015-0.42s0.42-0.634 0.42-1.015-0.151-0.746-0.42-1.015c-0.269-0.269-0.634-0.42-1.015-0.42s-0.746 0.151-1.015 0.42c-0.269 0.269-0.42 0.634-0.42 1.015v0z"></path>
</svg>
