<!-- Generated by IcoMoon.io -->
<svg version="1.1" xmlns="http://www.w3.org/2000/svg" width="32" height="32" viewBox="0 0 32 32">
<title>rollback</title>
<path d="M25.963 6.182h-15.527v-2.691c0-0.244-0.28-0.378-0.469-0.229l-5.164 4.073c-0.035 0.027-0.063 0.062-0.082 0.102s-0.029 0.083-0.029 0.127c0 0.044 0.010 0.088 0.029 0.127s0.047 0.074 0.082 0.102l5.164 4.073c0.189 0.149 0.469 0.015 0.469-0.229v-2.691h15.091v17.091h-22.036c-0.16 0-0.291 0.131-0.291 0.291v2.182c0 0.16 0.131 0.291 0.291 0.291h22.472c1.284 0 2.327-1.044 2.327-2.327v-17.963c0-1.284-1.044-2.327-2.327-2.327z"></path>
</svg>
