<!-- Generated by IcoMoon.io -->
<svg version="1.1" xmlns="http://www.w3.org/2000/svg" width="32" height="32" viewBox="0 0 32 32">
<title>rotate-left</title>
<path d="M21.268 13.377h-17.036c-0.571 0-1.032 0.461-1.032 1.032v13.358c0 0.571 0.461 1.032 1.032 1.032h17.036c0.571 0 1.032-0.461 1.032-1.032v-13.358c0-0.571-0.461-1.032-1.032-1.032zM19.848 26.348h-14.196v-10.518h14.196v10.518z"></path>
<path d="M26.021 10.491c-2.543-3.249-6.324-4.956-10.15-4.975l-0.006-2.065c0-0.21-0.245-0.326-0.407-0.197l-4.13 3.259c-0.129 0.1-0.126 0.294 0 0.397l4.133 3.262c0.165 0.129 0.41 0.013 0.407-0.197v-2.062c0.416 0.003 0.836 0.029 1.252 0.081 1.358 0.168 2.649 0.587 3.839 1.249 1.229 0.684 2.297 1.604 3.175 2.72 0.874 1.12 1.507 2.378 1.875 3.736 0.401 1.482 0.472 3.034 0.21 4.546h2.417c0.477-3.343-0.365-6.872-2.613-9.754z"></path>
</svg>
