<!-- Generated by IcoMoon.io -->
<svg version="1.1" xmlns="http://www.w3.org/2000/svg" width="32" height="32" viewBox="0 0 32 32">
<path d="M14.845 7.994c0.419-0.052 0.836-0.077 1.252-0.081v2.062c0 0.21 0.242 0.326 0.406 0.197l4.133-3.262c0.129-0.103 0.129-0.297 0-0.397l-4.13-3.259c-0.165-0.129-0.407-0.013-0.407 0.197l-0.007 2.065c-3.827 0.016-7.608 1.723-10.15 4.975-1.070 1.367-1.854 2.935-2.303 4.612s-0.556 3.427-0.313 5.145h2.417c-0.029-0.171-0.055-0.345-0.077-0.52-0.165-1.358-0.068-2.713 0.287-4.027 0.368-1.362 1-2.617 1.875-3.736 0.878-1.12 1.946-2.039 3.175-2.72 1.194-0.665 2.481-1.084 3.843-1.252z"></path>
<path d="M27.735 13.377h-17.036c-0.571 0-1.032 0.461-1.032 1.032v13.358c0 0.571 0.461 1.032 1.032 1.032h17.036c0.571 0 1.032-0.461 1.032-1.032v-13.358c0-0.571-0.461-1.032-1.032-1.032zM26.315 26.348h-14.196v-10.518h14.196v10.518z"></path>
</svg>
