<!-- Generated by IcoMoon.io -->
<svg version="1.1" xmlns="http://www.w3.org/2000/svg" width="32" height="32" viewBox="0 0 32 32">
<path d="M26.569 6.48l-9.454-3.222c-0.114-0.039-0.267-0.058-0.42-0.058s-0.306 0.019-0.42 0.058l-9.454 3.222c-0.231 0.078-0.42 0.345-0.42 0.59v13.422c0 0.245 0.159 0.568 0.351 0.721l9.591 7.473c0.097 0.075 0.223 0.114 0.351 0.114s0.256-0.039 0.351-0.114l9.591-7.473c0.192-0.15 0.351-0.473 0.351-0.721v-13.422c0.006-0.245-0.184-0.509-0.415-0.59v0zM24.986 19.958l-8.291 6.461-8.291-6.461v-11.897l8.291-2.827 8.291 2.827v11.897zM13.695 14.365c-0.083-0.114-0.217-0.184-0.362-0.184h-1.536c-0.181 0-0.287 0.206-0.181 0.353l3.517 4.841c0.042 0.057 0.096 0.103 0.159 0.135s0.132 0.048 0.203 0.048 0.14-0.017 0.203-0.048c0.063-0.032 0.117-0.078 0.159-0.135l5.915-8.144c0.106-0.147 0-0.353-0.181-0.353h-1.536c-0.142 0-0.278 0.070-0.362 0.184l-4.199 5.782-1.8-2.479z"></path>
</svg>
