<!-- Generated by IcoMoon.io -->
<svg version="1.1" xmlns="http://www.w3.org/2000/svg" width="32" height="32" viewBox="0 0 32 32">
<path d="M28.202 9.002l-5.203-5.203c-0.24-0.24-0.534-0.416-0.854-0.512v-0.086h-17.92c-0.566 0-1.024 0.458-1.024 1.024v23.552c0 0.566 0.458 1.024 1.024 1.024h23.552c0.566 0 1.024-0.458 1.024-1.024v-17.328c0-0.544-0.214-1.062-0.598-1.446zM11.904 5.504h8.192v3.328h-8.192v-3.328zM26.496 26.496h-20.992v-20.992h4.352v4.352c0 0.566 0.458 1.024 1.024 1.024h10.24c0.566 0 1.024-0.458 1.024-1.024v-3.654l4.352 4.352v15.942zM16 13.76c-2.544 0-4.608 2.064-4.608 4.608s2.064 4.608 4.608 4.608c2.544 0 4.608-2.064 4.608-4.608s-2.064-4.608-4.608-4.608zM16 20.928c-1.414 0-2.56-1.146-2.56-2.56s1.146-2.56 2.56-2.56c1.414 0 2.56 1.146 2.56 2.56s-1.146 2.56-2.56 2.56z"></path>
</svg>
