<!-- Generated by IcoMoon.io -->
<svg version="1.1" xmlns="http://www.w3.org/2000/svg" width="32" height="32" viewBox="0 0 32 32">
<path d="M25.333 24.148h-18.667c-1.031 0-1.867 0.781-1.867 1.745 0 1.607 1.393 2.909 3.111 2.909h16.178c1.718 0 3.111-1.302 3.111-2.909 0-0.964-0.836-1.745-1.867-1.745zM10.706 13.636c0.019-1.271 1.128-2.291 2.488-2.288h5.612c1.374 0.001 2.487 1.043 2.489 2.327l0.648 9.309h2.736l-0.59-10.473c-0.002-1.927-1.672-3.489-3.733-3.491h-0.622v-1.164h1.244c0.687-0.001 1.244-0.521 1.244-1.164v-1.164c-0.002-1.285-1.115-2.326-2.489-2.327h-7.467c-1.374 0.001-2.487 1.043-2.489 2.327v1.164c0.001 0.642 0.557 1.163 1.244 1.164h1.245v1.164h-0.622c-2.050-0.002-3.717 1.544-3.732 3.46l-0.591 10.503h2.705l0.68-9.348zM13.511 7.856h4.978v1.164h-4.978v-1.164z"></path>
<path d="M18.806 12.511h-5.612c-0.687 0.001-1.244 0.521-1.244 1.164l-0.676 9.309h9.422l-0.645-9.272c0.004-0.156-0.026-0.31-0.086-0.455s-0.152-0.277-0.268-0.389c-0.116-0.112-0.254-0.201-0.407-0.262s-0.318-0.093-0.484-0.095z"></path>
</svg>
