<!-- Generated by IcoMoon.io -->
<svg version="1.1" xmlns="http://www.w3.org/2000/svg" width="32" height="32" viewBox="0 0 32 32">
<path d="M7.955 31.989c0.692 0 1.29-0.398 1.579-0.978 0.118-0.237 0.184-0.503 0.184-0.786 0-0.974-0.79-1.764-1.764-1.764s-1.764 0.79-1.764 1.764c0 0.283 0.067 0.551 0.186 0.788 0.289 0.578 0.887 0.975 1.578 0.975z"></path>
<path d="M23.387 31.989c0.691 0 1.29-0.398 1.579-0.978 0.118-0.237 0.184-0.504 0.184-0.786 0-0.974-0.79-1.764-1.764-1.764s-1.764 0.79-1.764 1.764c0 0.283 0.067 0.551 0.185 0.788 0.289 0.579 0.887 0.976 1.578 0.976z"></path>
<path d="M8.845 25.307l-1.089 0.629c-0.828 0.436-1.691 0.521-2.59 0.257-0.559-0.164-1.035-0.434-1.427-0.81-0.293 0.283-0.5 0.694-0.603 1.21l-0.445 1.781c-0.039 0.205-0.031 0.417 0.024 0.619s0.155 0.388 0.293 0.545c0.176 0.211 0.396 0.382 0.644 0.501 0.186 0.089 0.385 0.147 0.589 0.173l0.003 0c0.067 0.008 0.135 0.013 0.202 0.014h0.864c0-0.702 0.279-1.375 0.775-1.871s1.169-0.775 1.871-0.775 1.374 0.279 1.871 0.775c0.496 0.496 0.775 1.169 0.775 1.871h10.141c0-0.702 0.279-1.375 0.775-1.871s1.169-0.775 1.871-0.775 1.375 0.279 1.871 0.775c0.496 0.496 0.775 1.169 0.775 1.871h1.922c0.195-0 0.386-0.049 0.556-0.143s0.315-0.228 0.421-0.391c0.105-0.164 0.168-0.351 0.182-0.545s-0.021-0.388-0.101-0.565l-0.348-1.133c-0.009-0.023-0.019-0.045-0.031-0.066-0.132-0.202-0.311-0.369-0.521-0.487s-0.446-0.184-0.687-0.191l-5.608-0.864c-0.028-0.003-0.055-0.012-0.079-0.027l-4.105-2.24-0.042-0.018-0.036-0.015c-0.606-0.255-1.232-0.451-1.872-0.587l-2.666-0.054-1.105 0.638 0.064 0.112c0.192-0.012 0.4-0.021 0.626-0.027l0.031-0.001c0.060-0.002 0.122-0.003 0.185-0.004v1.488l1.279 2.215c0.248 0.43 0.31 0.879 0.185 1.348s-0.402 0.827-0.831 1.074c-0.429 0.248-0.878 0.309-1.346 0.183s-0.827-0.404-1.075-0.834l-2.185-3.784zM13.7 25.596v-1.975c0.062 0 0.123 0.001 0.185 0.003 0.277 0.007 0.554 0.027 0.829 0.059l0.053 0.007c0.839 0.104 1.662 0.325 2.443 0.659l2.65 1.446c-0.127-0.002-0.258-0.004-0.394-0.007-0.545-0.010-1.157-0.023-1.815-0.041l-0.112-0.003c-1.046-0.029-2.205-0.069-3.401-0.126l-0.438-0.022z"></path>
<path d="M14.282 28.669c0.125-0.469 0.064-0.918-0.185-1.348l-1.279-2.215v0.443c-0.062-0.003-0.123-0.007-0.185-0.010-0.294-0.017-0.588-0.034-0.882-0.053-0.677-0.043-1.349-0.093-2.002-0.15-0.316-0.027-0.628-0.056-0.933-0.087l0.028 0.059 2.185 3.784c0.248 0.43 0.607 0.708 1.075 0.834s0.917 0.065 1.346-0.183c0.429-0.248 0.706-0.606 0.831-1.074z"></path>
<path d="M24.652 12.432l2.782-1.606c0.408-0.236 0.671-0.573 0.788-1.013s0.058-0.864-0.178-1.272c-0.236-0.409-0.574-0.672-1.013-0.79s-0.863-0.060-1.271 0.176l-2.782 1.606c-0.408 0.235-0.67 0.573-0.787 1.013s-0.058 0.864 0.178 1.272c0.236 0.409 0.573 0.672 1.013 0.79s0.863 0.060 1.271-0.176zM24.801 18.064c-0.358 0.277-0.563 0.651-0.614 1.122s0.061 0.887 0.335 1.248c0.274 0.361 0.647 0.567 1.118 0.619l3.187 0.395c0.477 0.049 0.894-0.065 1.252-0.341s0.561-0.653 0.609-1.13c0.051-0.471-0.062-0.887-0.339-1.246s-0.651-0.565-1.122-0.617l-3.182-0.387c-0.471-0.052-0.886 0.061-1.244 0.337zM19.090 5.679l1.256-2.949c0.191-0.434 0.199-0.861 0.027-1.28s-0.476-0.725-0.91-0.916c-0.437-0.197-0.863-0.211-1.279-0.040s-0.722 0.474-0.918 0.911l-1.26 2.962c-0.196 0.437-0.205 0.864-0.027 1.28s0.484 0.72 0.917 0.912c0.434 0.192 0.86 0.202 1.279 0.030s0.723-0.475 0.914-0.909zM7.756 25.936l1.089-0.629-0.028-0.059c-0.195-0.020-0.388-0.040-0.578-0.061l-0.091-0.010c-0.075-0.008-0.149-0.017-0.223-0.026l1.737-0.995c0.188-0.118 0.624-0.383 2.090-0.493 0.073-0.005 0.148-0.011 0.225-0.015l-0.064-0.112 1.105-0.638 2.666 0.054c-0.023-0.005-0.049-0.010-0.076-0.016-0.555-0.113-1.12-0.181-1.688-0.203-0.411-0.022-0.853-0.026-1.287 0.004-1.139 0.028-1.896 0.134-2.411 0.258-0.564 0.136-0.837 0.295-1.003 0.399l-0.030 0.019-2.451 1.402c-0.137 0.079-0.292 0.12-0.45 0.119h-1.402c-0.458 0-0.848 0.157-1.148 0.448 0.393 0.376 0.868 0.646 1.427 0.81 0.899 0.264 1.762 0.179 2.59-0.257zM3.365 24.96c-0.008-0.011-0.017-0.022-0.025-0.033-0.087-0.122-0.163-0.241-0.216-0.331l-0.009-0.016c0.077 0.134 0.161 0.261 0.25 0.38zM3.088 24.533l-1.398-2.422c-0.481-0.832-0.596-1.715-0.347-2.65s0.789-1.641 1.62-2.12l5.135-2.965 3.048-5.538c0.331-0.595 0.838-0.892 1.522-0.889s1.194 0.296 1.532 0.88l6.674 11.559c0.337 0.584 0.336 1.173-0.004 1.767s-0.85 0.884-1.531 0.873l-0.496-0.010-0.741-0.405-0.045-0.020c-0.764-0.329-1.559-0.573-2.371-0.729-0.801-0.153-1.618-0.221-2.438-0.201-1.533 0.001-2.555 0.123-3.265 0.293-0.725 0.174-1.105 0.394-1.341 0.543l-2.393 1.369h-1.36c-0.677 0-1.302 0.225-1.799 0.664zM6.377 30.226v0.788c-0.119-0.237-0.186-0.505-0.186-0.788 0-0.974 0.79-1.764 1.764-1.764s1.764 0.79 1.764 1.764c0 0.282-0.066 0.549-0.184 0.786v-0.786c0-0.419-0.166-0.82-0.462-1.116s-0.698-0.462-1.116-0.462-0.82 0.166-1.116 0.462c-0.296 0.296-0.462 0.698-0.462 1.116zM21.808 30.226v0.788c-0.119-0.237-0.185-0.505-0.185-0.788 0-0.974 0.79-1.764 1.764-1.764s1.764 0.79 1.764 1.764c0 0.282-0.066 0.549-0.184 0.786v-0.786c0-0.419-0.166-0.82-0.462-1.116s-0.698-0.462-1.116-0.462-0.82 0.166-1.116 0.462c-0.296 0.296-0.462 0.698-0.462 1.116z"></path>
</svg>
