<!-- Generated by IcoMoon.io -->
<svg version="1.1" xmlns="http://www.w3.org/2000/svg" width="32" height="32" viewBox="0 0 32 32">
<title>sell-your-car</title>
<path d="M9.12 14.72c0.32 0.48 0.48 0.96 1.12 1.28-0.32 0.32-0.64 0.8-0.8 1.28-0.16 0.16-0.16 0.32-0.16 0.32 0 0.16-0.16 0.16-0.16 0.32 0.16 0 0.32 0 0.48 0h3.040c1.12 0.48 2.24 0.8 3.52 0.8s2.4-0.16 3.52-0.8h3.040c0.16 0 0.32 0 0.32 0s-0.16-0.16-0.16-0.32c-0.16-0.16-0.16-0.32-0.16-0.32-0.16-0.48-0.48-0.96-0.8-1.28 0.32-0.48 0.64-0.96 0.96-1.44 0.32 0.32 0.48 0.8 0.96 1.6 0 0.16 0.16 0.32 0.16 0.48h1.28c0.32 0 0.32 0 0.32 0.64 0 0.48-0.16 0.64-0.32 0.64v0c0 0 1.44 0.64 1.6 0.8s0.32 1.6 0.32 3.52c0 1.92-0.16 4.16-0.16 4.16h-0.64c0 0.48-0.16 0.64-0.32 0.64h-3.84c-0.32 0-0.32 0-0.32-0.64h-12c0 0.64 0 0.64-0.32 0.64h-3.68c-0.32 0-0.32 0-0.32-0.64h-0.64c0 0-0.16-2.080-0.16-4.16s0.16-3.36 0.16-3.36c0.32-0.16 1.6-0.8 1.6-0.8v0c-0.16-0.16-0.32-0.16-0.32-0.64s0-0.64 0.32-0.64h1.28c0.32-0.32 0.32-0.64 0.48-0.8 0.32-0.64 0.48-1.12 0.8-1.28zM7.2 20.96c0.8 0 1.76 0 2.56-0.16h0.32c0 0 0-0.16-0.32-0.32-0.48-0.32-0.96-0.48-1.44-0.64-0.96-0.32-1.6-0.32-2.080-0.32v0 0.16c0 0.32 0 0.48 0 0.8 0 0.48 0 0.48 0.8 0.48 0 0 0.16 0 0.16 0zM21.28 24.48l0.16-0.48c0.16-0.48 0-0.64-0.32-0.64v0c-0.64-0.32-2.88-0.96-5.12-0.96s-4.32 0.64-5.12 0.96c-0.32 0.16-0.64 0.32-0.48 0.64 0.32 0.48 0.16 0.48 0.16 0.48h10.72zM25.44 20.96c0 0 0-0.16 0.16-0.48v0c0-0.32 0-0.48 0-0.8 0 0 0 0 0 0v0c-0.64 0-1.12 0-2.080 0.32-0.48 0.16-0.96 0.32-1.44 0.64 0 0.16 0 0.32 0 0.32 0.8 0 1.76 0.16 2.56 0.16 0.64-0.16 0.8-0.16 0.8-0.16z"></path>
<path d="M16 4.8c-3.52 0-6.4 2.88-6.4 6.4s2.88 6.4 6.24 6.4 6.24-2.88 6.24-6.4-2.56-6.4-6.080-6.4zM16.64 14.24v0.8h-1.44v-0.64l-0.8-0.16 0.16-1.28 1.44 0.16c0 0 0 0 0.16 0 0.32 0 0.64-0.32 0.64-0.64s-0.32-0.64-0.64-0.64c-1.12 0-1.92-0.96-1.92-1.92 0-0.48 0.16-0.8 0.48-1.12-0.16-0.48 0.32-0.64 0.64-0.8v-0.8h1.28v0.8l0.96 0.16-0.32 1.28-1.28-0.32c-0.16 0-0.48 0-0.64 0.16 0 0.16-0.16 0.32-0.16 0.48 0 0.32 0.32 0.64 0.64 0.64 1.12 0 1.92 0.96 1.92 1.92 0.16 0.96-0.32 1.76-1.12 1.92z"></path>
</svg>
