<!-- Generated by IcoMoon.io -->
<svg version="1.1" xmlns="http://www.w3.org/2000/svg" width="32" height="32" viewBox="0 0 32 32">
<path d="M10.628 20.4c0 0.364 0.145 0.712 0.402 0.97s0.606 0.402 0.97 0.402 0.713-0.144 0.97-0.402c0.257-0.257 0.402-0.606 0.402-0.97s-0.145-0.712-0.402-0.97c-0.257-0.257-0.606-0.402-0.97-0.402s-0.713 0.144-0.97 0.402c-0.257 0.257-0.402 0.606-0.402 0.97v0zM28.248 11.554l-7.803-7.806c-0.354-0.351-0.826-0.549-1.328-0.549s-0.974 0.194-1.329 0.549l-14.037 14.037c-0.353 0.353-0.551 0.831-0.551 1.33s0.198 0.977 0.551 1.33l7.806 7.806c0.351 0.352 0.826 0.549 1.329 0.549s0.974-0.194 1.329-0.549l14.037-14.037c0.731-0.734 0.731-1.929-0.003-2.66v0zM12.885 26.517l-7.403-7.403 13.634-13.634 7.4 7.406-13.632 13.631zM5.736 12.049c0.021 0.021 0.046 0.038 0.073 0.049s0.057 0.017 0.087 0.017c0.030 0 0.059-0.006 0.087-0.017s0.052-0.028 0.073-0.049l5.991-5.991c0.021-0.021 0.038-0.046 0.049-0.073s0.017-0.057 0.017-0.087c0-0.030-0.006-0.059-0.017-0.087s-0.028-0.052-0.049-0.073l-1.097-1.097c-0.021-0.021-0.046-0.038-0.073-0.049s-0.057-0.017-0.087-0.017c-0.030 0-0.059 0.006-0.087 0.017s-0.052 0.028-0.073 0.049l-5.994 5.986c-0.021 0.021-0.038 0.046-0.049 0.073s-0.017 0.057-0.017 0.087c0 0.030 0.006 0.059 0.017 0.087s0.028 0.052 0.049 0.073l1.1 1.103zM26.268 19.951c-0.021-0.021-0.046-0.038-0.073-0.049s-0.057-0.017-0.087-0.017-0.059 0.006-0.087 0.017c-0.027 0.011-0.052 0.028-0.073 0.049l-5.997 5.994c-0.021 0.021-0.038 0.046-0.049 0.073s-0.017 0.057-0.017 0.087 0.006 0.059 0.017 0.087c0.012 0.028 0.028 0.052 0.049 0.073l1.097 1.097c0.021 0.021 0.046 0.038 0.073 0.049s0.057 0.017 0.087 0.017 0.059-0.006 0.087-0.017c0.028-0.011 0.052-0.028 0.073-0.049l5.994-5.992c0.021-0.021 0.038-0.046 0.049-0.073s0.017-0.057 0.017-0.087c0-0.030-0.006-0.059-0.017-0.087s-0.028-0.052-0.049-0.073l-1.094-1.1z"></path>
</svg>
