<!-- Generated by IcoMoon.io -->
<svg version="1.1" xmlns="http://www.w3.org/2000/svg" width="32" height="32" viewBox="0 0 32 32">
<path d="M24.416 19.604c-1.25 0-2.375 0.526-3.173 1.366l-9.33-4.568c0.032-0.215 0.054-0.432 0.054-0.655 0-0.218-0.021-0.43-0.052-0.639l9.317-4.518c0.799 0.846 1.929 1.378 3.184 1.378 2.421 0 4.384-1.963 4.384-4.383s-1.963-4.383-4.384-4.383c-2.421 0-4.383 1.962-4.383 4.383 0 0.218 0.021 0.43 0.052 0.639l-9.317 4.518c-0.799-0.846-1.928-1.378-3.185-1.378-2.421 0-4.383 1.963-4.383 4.383s1.962 4.383 4.383 4.383c1.25 0 2.375-0.526 3.174-1.366l9.33 4.568c-0.032 0.214-0.054 0.432-0.054 0.656 0 2.421 1.963 4.384 4.383 4.384s4.384-1.962 4.384-4.384-1.963-4.384-4.384-4.384z"></path>
</svg>
