<!-- Generated by IcoMoon.io -->
<svg version="1.1" xmlns="http://www.w3.org/2000/svg" width="32" height="32" viewBox="0 0 32 32">
<title>shopping-cart-fill</title>
<path d="M9.333 29.333c-0.733 0-1.361-0.261-1.883-0.783s-0.783-1.15-0.783-1.883c0-0.733 0.261-1.361 0.783-1.883s1.15-0.783 1.883-0.783 1.361 0.261 1.883 0.783c0.522 0.522 0.783 1.15 0.783 1.883s-0.261 1.361-0.783 1.883c-0.522 0.522-1.15 0.783-1.883 0.783zM22.667 29.333c-0.733 0-1.361-0.261-1.883-0.783s-0.783-1.15-0.783-1.883 0.261-1.361 0.783-1.883c0.522-0.522 1.15-0.783 1.883-0.783s1.361 0.261 1.883 0.783c0.522 0.522 0.783 1.15 0.783 1.883s-0.261 1.361-0.783 1.883c-0.522 0.522-1.15 0.783-1.883 0.783zM6.933 5.333h19.667c0.511 0 0.9 0.228 1.167 0.683s0.278 0.917 0.033 1.383l-4.733 8.533c-0.244 0.444-0.572 0.789-0.983 1.033s-0.861 0.367-1.35 0.367h-9.933l-1.467 2.667h16v2.667h-16c-1 0-1.756-0.439-2.267-1.317s-0.533-1.75-0.067-2.617l1.8-3.267-4.8-10.133h-2.667v-2.667h4.333l1.267 2.667z"></path>
</svg>
