<!-- Generated by IcoMoon.io -->
<svg version="1.1" xmlns="http://www.w3.org/2000/svg" width="32" height="32" viewBox="0 0 32 32">
<path d="M27.84 8.323v-4.099c0-0.566-0.458-1.024-1.024-1.024h-21.632c-0.566 0-1.024 0.458-1.024 1.024v4.099c-0.534 0.032-0.96 0.477-0.96 1.021v4.214c-0.002 0.775 0.155 1.541 0.461 2.253 0.138 0.326 0.307 0.634 0.499 0.925v11.040c0 0.563 0.458 1.024 1.024 1.024h21.632c0.566 0 1.024-0.458 1.024-1.024v-11.040c0.195-0.292 0.362-0.602 0.499-0.925 0.304-0.714 0.461-1.472 0.461-2.253v-4.214c0-0.544-0.426-0.989-0.96-1.021zM6.464 5.504h19.072v2.816h-19.072v-2.816zM18.048 26.499h-4.096v-3.331h4.096v3.331zM25.536 26.499h-5.44v-4.355c0-0.566-0.458-1.024-1.024-1.024h-6.144c-0.566 0-1.024 0.458-1.024 1.024v4.355h-5.44v-7.75c0.093 0.045 0.189 0.090 0.288 0.128 0.714 0.301 1.472 0.451 2.253 0.451s1.536-0.15 2.253-0.451c0.442-0.186 0.858-0.422 1.238-0.707 0.006-0.003 0.013-0.003 0.019 0 0.382 0.286 0.798 0.524 1.238 0.707 0.714 0.301 1.472 0.451 2.253 0.451s1.536-0.15 2.253-0.451c0.442-0.186 0.858-0.422 1.238-0.707 0.006-0.003 0.013-0.003 0.019 0 0.382 0.286 0.798 0.524 1.238 0.707 0.714 0.301 1.472 0.451 2.253 0.451s1.536-0.15 2.253-0.451c0.096-0.042 0.192-0.083 0.288-0.128v7.75h-0.013zM26.496 13.558c0 1.914-1.568 3.466-3.498 3.466-1.306 0-2.445-0.707-3.046-1.757-0.093-0.16-0.259-0.259-0.445-0.259h-0.019c-0.182 0-0.352 0.099-0.445 0.259-0.307 0.535-0.75 0.98-1.285 1.289s-1.141 0.47-1.758 0.468c-1.302 0-2.438-0.704-3.040-1.75-0.096-0.163-0.269-0.266-0.458-0.266s-0.365 0.102-0.458 0.266c-0.309 0.533-0.753 0.976-1.287 1.283s-1.14 0.468-1.756 0.467c-1.93 0-3.498-1.552-3.498-3.466v-2.918c0-0.010 0.006-0.016 0.016-0.016h20.96c0.010 0 0.016 0.006 0.016 0.016v2.918z"></path>
</svg>
