<!-- Generated by IcoMoon.io -->
<svg version="1.1" xmlns="http://www.w3.org/2000/svg" width="32" height="32" viewBox="0 0 32 32">
<path d="M26.304 9.6h-4.352v-0.512c0-3.251-2.637-5.888-5.888-5.888s-5.888 2.637-5.888 5.888v0.512h-4.352c-0.566 0-1.024 0.458-1.024 1.024v17.152c0 0.566 0.458 1.024 1.024 1.024h20.48c0.566 0 1.024-0.458 1.024-1.024v-17.152c0-0.566-0.458-1.024-1.024-1.024zM12.48 9.088c0-1.981 1.603-3.584 3.584-3.584s3.584 1.603 3.584 3.584v0.512h-7.168v-0.512zM25.024 26.496h-17.92v-14.592h3.072v2.816c0 0.141 0.115 0.256 0.256 0.256h1.792c0.141 0 0.256-0.115 0.256-0.256v-2.816h7.168v2.816c0 0.141 0.115 0.256 0.256 0.256h1.792c0.141 0 0.256-0.115 0.256-0.256v-2.816h3.072v14.592z"></path>
</svg>
