<!-- Generated by IcoMoon.io -->
<svg version="1.1" xmlns="http://www.w3.org/2000/svg" width="32" height="32" viewBox="0 0 32 32">
<path d="M27.79 21.12h-16.993l0.853-1.738 14.177-0.026c0.479 0 0.89-0.343 0.976-0.816l1.963-10.989c0.051-0.288-0.026-0.585-0.214-0.81-0.093-0.111-0.209-0.2-0.34-0.262s-0.274-0.094-0.419-0.095l-18.035-0.060-0.154-0.725c-0.097-0.462-0.514-0.799-0.987-0.799h-4.409c-0.267 0-0.523 0.106-0.712 0.295s-0.295 0.445-0.295 0.712c0 0.267 0.106 0.523 0.295 0.712s0.445 0.295 0.712 0.295h3.593l0.673 3.202 1.658 8.027-2.135 3.484c-0.111 0.15-0.178 0.327-0.193 0.513s0.022 0.372 0.107 0.537c0.171 0.34 0.516 0.554 0.899 0.554h1.792c-0.382 0.507-0.588 1.125-0.588 1.761 0 1.615 1.313 2.928 2.928 2.928s2.928-1.313 2.928-2.928c0-0.636-0.211-1.256-0.588-1.761h4.597c-0.382 0.507-0.588 1.125-0.588 1.761 0 1.615 1.313 2.928 2.928 2.928s2.928-1.313 2.928-2.928c0-0.636-0.211-1.256-0.588-1.761h3.233c0.554 0 1.007-0.451 1.007-1.007-0.002-0.267-0.109-0.522-0.298-0.711s-0.445-0.294-0.712-0.294v0zM10.177 8.31l16.431 0.054-1.61 9.012-12.907 0.023-1.915-9.089zM12.942 25.794c-0.497 0-0.902-0.405-0.902-0.902s0.405-0.902 0.902-0.902c0.497 0 0.902 0.405 0.902 0.902 0 0.239-0.095 0.468-0.264 0.638s-0.398 0.264-0.638 0.264v0zM22.22 25.794c-0.496 0-0.902-0.405-0.902-0.902s0.405-0.902 0.902-0.902c0.496 0 0.902 0.405 0.902 0.902 0 0.239-0.095 0.468-0.264 0.638s-0.398 0.264-0.638 0.264v0z"></path>
</svg>
