<!-- Generated by IcoMoon.io -->
<svg version="1.1" xmlns="http://www.w3.org/2000/svg" width="32" height="32" viewBox="0 0 32 32">
<path d="M16.64 17.12c0 0-0.16 0-0.16-0.16l-3.2-3.36c-0.32-0.32-0.8-0.32-1.12 0 0 0-0.16 0.16-0.16 0.32s0 0.16 0 0.32 0 0.16 0 0.32 0.16 0.16 0.16 0.32l3.2 3.36c0.32 0.32 0.8 0.48 1.28 0.48v0c0.48 0 0.96-0.16 1.28-0.48l10.56-10.88c0 0 0.16-0.16 0.16-0.32s0-0.16 0-0.32 0-0.16 0-0.32-0.16-0.16-0.16-0.32c0 0-0.16-0.16-0.32-0.16s-0.16 0-0.32 0-0.16 0-0.32 0-0.16 0.16-0.32 0.16l-10.56 11.040c0.16-0.16 0.16-0.16 0 0 0.16 0 0 0 0 0z"></path>
<path d="M16.64 25.12l5.6 4.32c0.48 0.32 0.8 0.48 1.28 0.48s0.96-0.16 1.28-0.48c0.8-0.64 1.12-1.6 0.8-2.72l-2.080-6.72c0-0.16 0-0.32 0-0.48s0.16-0.32 0.32-0.32l5.44-4c0.8-0.64 1.12-1.6 0.8-2.56s-1.12-1.6-2.080-1.6h-1.44c-0.16 0-0.16 0-0.32 0 0 0.16-0.16 0.16-0.16 0.16s-0.16 0.16-0.16 0.32c0 0.16 0 0.16 0 0.32s0 0.16 0 0.32 0.16 0.16 0.16 0.32c0 0 0.16 0.16 0.32 0.16s0.16 0 0.32 0h1.44c0.48 0 0.64 0.32 0.64 0.48s0.16 0.48-0.32 0.64l-5.44 4c-0.32 0.32-0.64 0.64-0.8 1.12s-0.16 0.96 0 1.44l2.080 6.72c0.16 0.48-0.16 0.64-0.16 0.8-0.16 0-0.48 0.32-0.8 0l-5.76-4.16c-0.32-0.32-0.8-0.48-1.28-0.48s-0.96 0.16-1.28 0.48l-5.6 4.32c-0.32 0.32-0.64 0-0.8 0s-0.32-0.32-0.16-0.8l2.080-6.72c0.16-0.48 0.16-0.96 0-1.44s-0.48-0.96-0.8-1.12l-5.6-4c-0.32-0.32-0.32-0.64-0.32-0.8s0.16-0.48 0.64-0.48h6.88c0.96 0 1.76-0.64 2.080-1.76l2.080-7.040c0-0.16 0.16-0.32 0.32-0.32 0.16-0.16 0.32-0.16 0.48-0.16v0c0.16 0 0.48 0 0.64 0.48l1.92 7.040c0 0.16 0 0.16 0.16 0.32 0 0.16 0.16 0.16 0.32 0.16s0.16 0.16 0.32 0.16c0.16 0 0.16 0 0.32 0s0.32-0.16 0.48-0.48c0.16-0.16 0.16-0.48 0-0.64l-1.92-7.040c-0.32-0.96-1.12-1.6-2.080-1.6v0c-0.96 0-1.92 0.64-2.24 1.6l-2.24 7.040c-0.16 0.32-0.32 0.64-0.64 0.64h-6.88c-0.96 0-1.92 0.64-2.080 1.6-0.32 0.96 0 2.080 0.8 2.56l5.44 4c0.16 0.16 0.32 0.48 0.16 0.8l-2.080 6.72c-0.32 0.96 0 2.080 0.8 2.72s1.92 0.64 2.72 0l5.6-4.16c0.16-0.16 0.32-0.16 0.32-0.16 0.32-0.16 0.32-0.16 0.48 0z"></path>
</svg>
