<!-- Generated by IcoMoon.io -->
<svg version="1.1" xmlns="http://www.w3.org/2000/svg" width="32" height="32" viewBox="0 0 32 32">
<path d="M21.12 13.44c-3.85 0-7.037 2.832-7.594 6.528h-3.67c-0.496 0-0.896-0.4-0.896-0.896v-11.648h9.312c0.454 1.126 1.558 1.92 2.848 1.92 1.696 0 3.072-1.376 3.072-3.072s-1.376-3.072-3.072-3.072c-1.29 0-2.394 0.794-2.848 1.92h-15.072v2.304h3.456v11.648c0 1.766 1.434 3.2 3.2 3.2h3.67c0.557 3.696 3.744 6.528 7.594 6.528 4.24 0 7.68-3.44 7.68-7.68s-3.44-7.68-7.68-7.68zM25.216 21.952c0 0.141-0.115 0.256-0.256 0.256h-2.752v2.752c0 0.141-0.115 0.256-0.256 0.256h-1.664c-0.141 0-0.256-0.115-0.256-0.256v-2.752h-2.752c-0.141 0-0.256-0.115-0.256-0.256v-1.664c0-0.141 0.115-0.256 0.256-0.256h2.752v-2.752c0-0.141 0.115-0.256 0.256-0.256h1.664c0.141 0 0.256 0.115 0.256 0.256v2.752h2.752c0.141 0 0.256 0.115 0.256 0.256v1.664z"></path>
</svg>
