<!-- Generated by IcoMoon.io -->
<svg version="1.1" xmlns="http://www.w3.org/2000/svg" width="32" height="32" viewBox="0 0 32 32">
<title>skin</title>
<path d="M28.402 3.2h-6.838c-0.577 0-1.091 0.395-1.227 0.972-0.415 1.751-1.983 3.008-3.807 3.008s-3.392-1.257-3.807-3.008c-0.065-0.277-0.221-0.523-0.444-0.7s-0.499-0.272-0.783-0.272h-6.838c-0.387 0-0.758 0.154-1.032 0.427s-0.427 0.645-0.427 1.032v8.356c0 0.387 0.154 0.758 0.427 1.032s0.645 0.427 1.032 0.427h2.487v12.866c0 0.387 0.154 0.758 0.427 1.032s0.645 0.427 1.032 0.427h15.851c0.387 0 0.758-0.154 1.032-0.427s0.427-0.645 0.427-1.032v-12.866h2.487c0.387 0 0.758-0.154 1.032-0.427s0.427-0.645 0.427-1.032v-8.356c0-0.387-0.154-0.758-0.427-1.032s-0.645-0.427-1.032-0.427v0zM27.474 12.087h-3.946v14.325h-13.994v-14.325h-3.946v-6.499h5.084c0.935 2.361 3.233 3.979 5.859 3.979s4.924-1.618 5.86-3.979h5.084v6.499z"></path>
</svg>
