<!-- Generated by IcoMoon.io -->
<svg version="1.1" xmlns="http://www.w3.org/2000/svg" width="32" height="32" viewBox="0 0 32 32">
<title>skype</title>
<path d="M27.959 18.138c0.132-0.722 0.202-1.46 0.202-2.198 0-1.636-0.321-3.224-0.953-4.716-0.61-1.444-1.485-2.74-2.599-3.853-1.104-1.107-2.413-1.988-3.853-2.596-1.495-0.632-3.080-0.953-4.716-0.953-0.77 0-1.543 0.074-2.294 0.218-1.039-0.55-2.196-0.839-3.372-0.841-1.915 0-3.719 0.748-5.072 2.102-0.668 0.665-1.198 1.455-1.559 2.326s-0.545 1.804-0.543 2.747c0 1.219 0.314 2.419 0.902 3.478-0.119 0.687-0.183 1.389-0.183 2.089 0 1.636 0.321 3.224 0.953 4.716 0.61 1.444 1.482 2.74 2.596 3.853s2.41 1.986 3.853 2.596c1.495 0.632 3.080 0.953 4.716 0.953 0.712 0 1.424-0.064 2.124-0.189 1.075 0.606 2.288 0.93 3.529 0.93 1.916 0 3.719-0.744 5.073-2.101 1.357-1.354 2.101-3.157 2.101-5.073 0.003-1.219-0.311-2.422-0.905-3.488zM25.133 25.069c-0.921 0.924-2.137 1.424-3.439 1.424-0.837 0-1.662-0.218-2.394-0.632l-0.722-0.408-0.818 0.144c-0.571 0.103-1.149 0.154-1.72 0.154-1.328 0-2.608-0.26-3.821-0.773-1.165-0.491-2.214-1.197-3.119-2.101-0.896-0.893-1.609-1.951-2.102-3.115-0.513-1.21-0.77-2.49-0.77-3.818 0-0.558 0.051-1.129 0.148-1.694l0.141-0.805-0.398-0.716c-0.401-0.72-0.612-1.531-0.613-2.355 0-1.303 0.504-2.519 1.425-3.439 0.924-0.921 2.14-1.425 3.443-1.425 0.799 0.002 1.585 0.199 2.291 0.574l0.719 0.379 0.796-0.154c0.606-0.115 1.232-0.176 1.861-0.176 1.328 0 2.608 0.26 3.818 0.77 1.171 0.494 2.217 1.2 3.119 2.102 0.905 0.902 1.611 1.951 2.105 3.119 0.513 1.21 0.77 2.49 0.77 3.818 0 0.59-0.055 1.187-0.164 1.781l-0.151 0.818 0.404 0.725c0.404 0.722 0.616 1.54 0.616 2.364 0 1.306-0.504 2.519-1.424 3.44v0zM18.324 14.532l-2.836-0.629c-1.078-0.247-2.32-0.571-2.32-1.588s0.869-1.729 2.442-1.729c3.167 0 2.878 2.175 4.45 2.175 0.828 0 1.553-0.488 1.553-1.322 0-1.951-3.125-3.417-5.775-3.417-2.878 0-5.942 1.222-5.942 4.476 0 1.566 0.558 3.234 3.645 4.007l3.831 0.956c1.158 0.286 1.45 0.937 1.45 1.527 0 0.979-0.972 1.935-2.733 1.935-3.439 0-2.961-2.647-4.803-2.647-0.828 0-1.428 0.571-1.428 1.383 0 1.585 1.925 3.703 6.231 3.703 4.097 0 6.128-1.973 6.128-4.62 0-1.704-0.786-3.516-3.892-4.209z"></path>
</svg>
