<!-- Generated by IcoMoon.io -->
<svg version="1.1" xmlns="http://www.w3.org/2000/svg" width="32" height="32" viewBox="0 0 32 32">
<path d="M27.776 3.2h-23.552c-0.566 0-1.024 0.458-1.024 1.024v23.552c0 0.566 0.458 1.024 1.024 1.024h23.552c0.566 0 1.024-0.458 1.024-1.024v-23.552c0-0.566-0.458-1.024-1.024-1.024zM16.544 9.581c0-0.89 0.72-1.613 1.61-1.613s1.61 0.723 1.61 1.613v4.301c0 0.89-0.72 1.613-1.61 1.613s-1.61-0.723-1.61-1.613v-4.301zM11.184 18.182c0 0.89-0.72 1.613-1.61 1.613-0.212 0-0.421-0.042-0.616-0.123s-0.373-0.2-0.522-0.35c-0.149-0.15-0.268-0.327-0.349-0.523s-0.122-0.405-0.122-0.617c0-0.89 0.72-1.613 1.61-1.613h1.61v1.613zM15.472 22.483c0 0.89-0.72 1.613-1.61 1.613s-1.61-0.723-1.61-1.613v-4.301c0-0.89 0.72-1.613 1.61-1.613 0.212 0 0.421 0.042 0.616 0.123s0.373 0.2 0.522 0.35c0.149 0.15 0.268 0.327 0.349 0.523s0.122 0.405 0.122 0.617v4.301zM13.866 15.494h-4.288c-0.89 0-1.61-0.723-1.61-1.613s0.72-1.613 1.61-1.613h4.288c0.89 0 1.61 0.723 1.61 1.613-0.003 0.893-0.723 1.613-1.61 1.613zM13.866 11.194c-0.426 0-0.835-0.17-1.139-0.474s-0.47-0.71-0.47-1.139c0-0.89 0.72-1.613 1.61-1.613s1.61 0.723 1.61 1.613v1.613h-1.61zM18.154 24.096c-0.89 0-1.61-0.723-1.61-1.613v-1.613h1.61c0.89 0 1.61 0.723 1.61 1.613s-0.72 1.613-1.61 1.613zM22.442 19.795h-4.288c-0.212 0-0.421-0.042-0.616-0.123s-0.373-0.2-0.522-0.35c-0.149-0.15-0.268-0.327-0.349-0.523s-0.122-0.405-0.122-0.617c0-0.89 0.72-1.613 1.61-1.613h4.288c0.89 0 1.61 0.723 1.61 1.613s-0.72 1.613-1.61 1.613zM22.442 15.494h-1.61v-1.613c0-0.89 0.72-1.613 1.61-1.613s1.61 0.723 1.61 1.613c0 0.89-0.72 1.613-1.61 1.613z"></path>
</svg>
