<!-- Generated by IcoMoon.io -->
<svg version="1.1" xmlns="http://www.w3.org/2000/svg" width="32" height="32" viewBox="0 0 32 32">
<path d="M9.856 6.848h-2.112v-1.792c0-0.141-0.115-0.256-0.256-0.256h-1.664c-0.141 0-0.256 0.115-0.256 0.256v1.792h-2.112c-0.141 0-0.256 0.115-0.256 0.256v17.92c0 0.141 0.115 0.256 0.256 0.256h2.112v1.792c0 0.141 0.115 0.256 0.256 0.256h1.664c0.141 0 0.256-0.115 0.256-0.256v-1.792h2.112c0.141 0 0.256-0.115 0.256-0.256v-17.92c0-0.141-0.115-0.256-0.256-0.256zM7.936 23.104h-2.56v-14.080h2.56v14.080zM28.544 9.152h-2.112v-3.072c0-0.141-0.115-0.256-0.256-0.256h-1.664c-0.141 0-0.256 0.115-0.256 0.256v3.072h-2.112c-0.141 0-0.256 0.115-0.256 0.256v13.312c0 0.141 0.115 0.256 0.256 0.256h2.112v3.072c0 0.141 0.115 0.256 0.256 0.256h1.664c0.141 0 0.256-0.115 0.256-0.256v-3.072h2.112c0.141 0 0.256-0.115 0.256-0.256v-13.312c0-0.141-0.115-0.256-0.256-0.256zM26.624 20.8h-2.56v-9.472h2.56v9.472zM19.2 12.608h-2.112v-5.504c0-0.141-0.115-0.256-0.256-0.256h-1.664c-0.141 0-0.256 0.115-0.256 0.256v5.504h-2.112c-0.141 0-0.256 0.115-0.256 0.256v6.4c0 0.141 0.115 0.256 0.256 0.256h2.112v5.504c0 0.141 0.115 0.256 0.256 0.256h1.664c0.141 0 0.256-0.115 0.256-0.256v-5.504h2.112c0.141 0 0.256-0.115 0.256-0.256v-6.4c0-0.141-0.115-0.256-0.256-0.256zM17.28 17.248c0 0.025-0.010 0.050-0.028 0.068s-0.042 0.028-0.068 0.028h-2.368c-0.025 0-0.050-0.010-0.068-0.028s-0.028-0.042-0.028-0.068v-2.368c0-0.025 0.010-0.050 0.028-0.068s0.042-0.028 0.068-0.028h2.368c0.025 0 0.050 0.010 0.068 0.028s0.028 0.042 0.028 0.068v2.368z"></path>
</svg>
