<!-- Generated by IcoMoon.io -->
<svg version="1.1" xmlns="http://www.w3.org/2000/svg" width="32" height="32" viewBox="0 0 32 32">
<title>snippets</title>
<path d="M25.6 4.571h-3.086v-1.143c0-0.126-0.103-0.229-0.228-0.229h-1.6c-0.126 0-0.229 0.103-0.229 0.229v1.143h-4.343v-1.143c0-0.126-0.103-0.229-0.229-0.229h-1.6c-0.126 0-0.229 0.103-0.229 0.229v1.143h-3.086c-0.506 0-0.914 0.409-0.914 0.914v3.429h-2.743c-0.506 0-0.914 0.409-0.914 0.914v18.057c0 0.506 0.409 0.914 0.914 0.914h14.629c0.506 0 0.914-0.409 0.914-0.914v-2.743h2.743c0.506 0 0.914-0.409 0.914-0.914v-18.743c0-0.506-0.408-0.914-0.914-0.914zM20.8 26.743h-12.343v-15.771h6.229v4.971c0 0.631 0.511 1.143 1.143 1.143h4.971v9.657zM20.8 15.257h-4.286v-4.286h0.006l4.28 4.28v0.006zM24.457 23.086h-1.6v-8.686l-5.486-5.486h-5.257v-2.286h1.943v0.914c0 0.126 0.103 0.229 0.229 0.229h1.6c0.126 0 0.229-0.103 0.229-0.229v-0.914h4.343v0.914c0 0.126 0.103 0.229 0.229 0.229h1.6c0.126 0 0.228-0.103 0.228-0.229v-0.914h1.943v16.457z"></path>
</svg>
