<!-- Generated by IcoMoon.io -->
<svg version="1.1" xmlns="http://www.w3.org/2000/svg" width="32" height="32" viewBox="0 0 32 32">
<title>solution</title>
<path d="M21.005 8.719c0-0.129-0.106-0.235-0.235-0.235h-11.273c-0.129 0-0.235 0.106-0.235 0.235v1.409c0 0.129 0.106 0.235 0.235 0.235h11.273c0.129 0 0.235-0.106 0.235-0.235v-1.409zM20.771 12.712h-11.273c-0.129 0-0.235 0.106-0.235 0.235v1.409c0 0.129 0.106 0.235 0.235 0.235h11.273c0.129 0 0.235-0.106 0.235-0.235v-1.409c0-0.129-0.106-0.235-0.235-0.235zM14.899 16.94h-5.402c-0.129 0-0.235 0.106-0.235 0.235v1.409c0 0.129 0.106 0.235 0.235 0.235h5.402c0.129 0 0.235-0.106 0.235-0.235v-1.409c0-0.129-0.106-0.235-0.235-0.235zM13.49 25.982h-6.576v-20.668h16.44v10.099c0 0.129 0.106 0.235 0.235 0.235h1.644c0.129 0 0.235-0.106 0.235-0.235v-11.273c0-0.52-0.42-0.939-0.939-0.939h-18.789c-0.52 0-0.939 0.42-0.939 0.939v23.017c0 0.52 0.42 0.939 0.939 0.939h7.75c0.129 0 0.235-0.106 0.235-0.235v-1.644c0-0.129-0.106-0.235-0.235-0.235zM23.965 23.797c0.851-0.772 1.386-1.888 1.386-3.13 0-2.334-1.893-4.228-4.228-4.228s-4.228 1.894-4.228 4.228c0 1.242 0.534 2.357 1.386 3.13-1.673 0.954-2.824 2.721-2.912 4.759-0.006 0.132 0.103 0.244 0.235 0.244h1.412c0.123 0 0.226-0.097 0.235-0.223 0.114-2.032 1.808-3.652 3.872-3.652s3.758 1.62 3.872 3.652c0.006 0.123 0.109 0.223 0.235 0.223h1.412c0.135 0 0.241-0.112 0.235-0.244-0.085-2.040-1.239-3.805-2.912-4.759zM21.123 18.319c1.298 0 2.349 1.051 2.349 2.349s-1.051 2.349-2.349 2.349c-1.298 0-2.349-1.051-2.349-2.349s1.051-2.349 2.349-2.349z"></path>
</svg>
