<!-- Generated by IcoMoon.io -->
<svg version="1.1" xmlns="http://www.w3.org/2000/svg" width="32" height="32" viewBox="0 0 32 32">
<path d="M6 23.2c-0.34 0-0.625-0.114-0.855-0.343s-0.345-0.512-0.345-0.85c0-0.338 0.115-0.624 0.345-0.857s0.515-0.35 0.855-0.35h5.6c0.34 0 0.625 0.114 0.855 0.343s0.345 0.512 0.345 0.85c0 0.338-0.115 0.624-0.345 0.857s-0.515 0.35-0.855 0.35h-5.6zM6.010 17.2c-0.34 0-0.626-0.114-0.86-0.343s-0.35-0.512-0.35-0.85c0-0.338 0.115-0.624 0.345-0.857s0.515-0.35 0.854-0.35h11.991c0.34 0 0.626 0.114 0.86 0.343s0.35 0.512 0.35 0.85c0 0.338-0.115 0.624-0.345 0.857s-0.515 0.35-0.854 0.35h-11.991zM6 11.2c-0.34 0-0.625-0.114-0.855-0.343s-0.345-0.512-0.345-0.85c0-0.338 0.115-0.624 0.345-0.857s0.515-0.35 0.855-0.35h20c0.34 0 0.625 0.114 0.855 0.343s0.345 0.512 0.345 0.85-0.115 0.624-0.345 0.857c-0.23 0.233-0.515 0.35-0.855 0.35h-20z"></path>
</svg>
