<!-- Generated by IcoMoon.io -->
<svg version="1.1" xmlns="http://www.w3.org/2000/svg" width="32" height="32" viewBox="0 0 32 32">
<path d="M15.84 6.56c-0.16 0-0.32 0.16-0.32 0.16-0.16 0.16-1.76 1.12-3.68 2.4l-3.2 2.24h-2.24c-2.24 0-2.24 0-2.56 0.16v0c0 0-0.16 0.16-0.16 0.16-0.48 0.32-0.48 0.96-0.48 4.32 0 0.16 0 0.16 0 0.32 0 3.2 0 3.84 0.32 4 0 0 0.16 0.16 0.16 0.16s0 0 0 0c0.32 0.32 0.32 0.32 2.56 0.32h2.24l3.36 2.24c0.48 0.32 0.96 0.64 1.28 0.96v0 0c1.28 0.8 2.24 1.6 2.4 1.6 0.32 0.16 0.8 0.16 1.12-0.16 0 0 0 0 0.16 0 0 0 0.16 0 0.16 0 0.32-0.32 0.32-0.96 0.32-7.52 0-0.48 0-1.12 0-1.76v0c0-8.64 0-8.64-0.16-8.96-0.48-0.48-0.8-0.8-1.28-0.64zM14.88 19.040v3.040l-4.48-3.2v-5.76l4.48-3.2v3.040c0 1.76 0 4.48 0 6.080zM7.84 16v2.4h-2.24v-4.64h2.24v2.24zM20.32 9.6c-0.8 0.32-0.96 1.44-0.32 2.080 0.48 0.48 0.96 1.12 1.28 1.6 0.96 2.080 0.8 4.8-0.8 6.56-0.32 0.32-0.48 0.96-0.48 1.28 0.16 0.8 1.12 1.28 1.76 0.8 0.16-0.16 0.32-0.16 0.32-0.16s0.16-0.32 0.48-0.64c1.76-2.4 2.080-5.6 0.96-8.32-0.64-1.6-2.080-3.2-2.72-3.2-0.16 0-0.32 0-0.48 0zM22.72 7.68c-0.16-0.48 0-1.12 0.64-1.44 0.16-0.16 0.32-0.16 0.64-0.16 0.48 0 0.8 0.32 1.6 1.28 1.6 1.76 2.56 3.84 3.040 6.080 0.16 0.8 0.16 1.12 0.16 2.56s-0.16 1.76-0.32 2.56c-0.48 2.4-1.44 4.16-2.88 6.080-0.48 0.64-0.64 0.64-1.12 0.8-0.32 0.16-0.8-0.16-0.96-0.48-0.48-0.64-0.48-1.12 0.32-1.92 1.12-1.12 2.080-3.040 2.4-4.96 0.16-0.96 0.16-2.72 0-3.68-0.32-2.24-1.28-4.16-2.88-5.92-0.16-0.16-0.48-0.64-0.64-0.8z"></path>
</svg>
