<!-- Generated by IcoMoon.io -->
<svg version="1.1" xmlns="http://www.w3.org/2000/svg" width="32" height="32" viewBox="0 0 32 32">
<path d="M28.746 16.535l-4.513-3.571c-0.090-0.072-0.218-0.006-0.218 0.108v2.554h-4.306v-8.792h6.101v3.828c0 0.066 0.054 0.12 0.12 0.12h1.794c0.066 0 0.12-0.054 0.12-0.12v-5.024c0-0.464-0.374-0.837-0.837-0.837h-8.493c-0.464 0-0.837 0.374-0.837 0.837v22.011c0 0.464 0.374 0.837 0.837 0.837h8.493c0.464 0 0.837-0.374 0.837-0.837v-5.024c0-0.066-0.054-0.12-0.12-0.12h-1.794c-0.066 0-0.12 0.054-0.12 0.12v3.828h-6.101v-8.792h4.306v2.554c0 0.114 0.132 0.179 0.218 0.108l4.513-3.571c0.017-0.013 0.030-0.029 0.040-0.048s0.014-0.039 0.014-0.060c0-0.021-0.005-0.042-0.014-0.060s-0.023-0.035-0.040-0.048v0zM13.488 4.8h-8.493c-0.464 0-0.837 0.374-0.837 0.837v5.024c0 0.066 0.054 0.12 0.12 0.12h1.794c0.066 0 0.12-0.054 0.12-0.12v-3.828h6.101v8.792h-4.306v-2.554c0-0.114-0.129-0.179-0.218-0.108l-4.516 3.571c-0.016 0.013-0.029 0.029-0.038 0.047s-0.014 0.039-0.014 0.059c0 0.020 0.005 0.041 0.014 0.059s0.022 0.035 0.038 0.047l4.516 3.574c0.087 0.069 0.218 0.006 0.218-0.108v-2.554h4.306v8.792h-6.101v-3.828c0-0.066-0.054-0.12-0.12-0.12h-1.794c-0.066 0-0.12 0.054-0.12 0.12v5.024c0 0.464 0.374 0.837 0.837 0.837h8.493c0.464 0 0.837-0.374 0.837-0.837v-22.011c0-0.464-0.374-0.837-0.837-0.837z"></path>
</svg>
