<!-- Generated by IcoMoon.io -->
<svg version="1.1" xmlns="http://www.w3.org/2000/svg" width="32" height="32" viewBox="0 0 32 32">
<title>star</title>
<path d="M10.468 25.153l5.535-3.474 5.579 3.474-1.47-6.583 4.8-4.343-6.357-0.594-2.552-6.263-2.551 6.263-6.357 0.594 4.843 4.343-1.47 6.583zM16.003 24.446l-6.643 4.199c-0.251 0.124-0.48 0.174-0.689 0.149s-0.4-0.099-0.575-0.223c-0.175-0.124-0.304-0.311-0.386-0.561s-0.085-0.495-0.010-0.737l1.743-7.803-5.855-5.253c-0.193-0.173-0.313-0.379-0.359-0.617s-0.038-0.468 0.027-0.691 0.184-0.407 0.359-0.552c0.175-0.145 0.386-0.227 0.632-0.246l7.668-0.724 3.044-7.444c0.111-0.253 0.257-0.44 0.439-0.561s0.384-0.181 0.605-0.181 0.424 0.060 0.605 0.181c0.182 0.121 0.328 0.308 0.439 0.561l3.044 7.49 7.668 0.679c0.246 0.019 0.457 0.108 0.632 0.269s0.295 0.352 0.359 0.575c0.064 0.223 0.066 0.445 0.005 0.668s-0.188 0.421-0.381 0.594l-5.811 5.254 1.743 7.803c0.075 0.241 0.072 0.487-0.010 0.737s-0.211 0.437-0.386 0.561c-0.175 0.124-0.367 0.199-0.576 0.223s-0.438-0.025-0.688-0.149l-6.643-4.199z"></path>
</svg>
