<!-- Generated by IcoMoon.io -->
<svg version="1.1" xmlns="http://www.w3.org/2000/svg" width="32" height="32" viewBox="0 0 32 32">
<path d="M21.615 16.616l-13.935 10.946c-0.518 0.407-1.28 0.040-1.28-0.616v-21.893c0-0.656 0.762-1.023 1.28-0.616l13.935 10.946c0.093 0.073 0.169 0.167 0.221 0.274s0.079 0.224 0.079 0.343c0 0.119-0.027 0.236-0.079 0.343s-0.128 0.2-0.221 0.274v0zM22.255 28.8h2.327c0.077 0 0.151-0.031 0.206-0.085s0.085-0.128 0.085-0.206v-25.018c0-0.077-0.031-0.151-0.085-0.206s-0.128-0.085-0.206-0.085h-2.327c-0.077 0-0.151 0.031-0.206 0.085s-0.085 0.129-0.085 0.206v25.018c0 0.077 0.031 0.151 0.085 0.206s0.129 0.085 0.206 0.085z"></path>
</svg>
