<!-- Generated by IcoMoon.io -->
<svg version="1.1" xmlns="http://www.w3.org/2000/svg" width="32" height="32" viewBox="0 0 32 32">
<path d="M16 28.8c-7.1 0-12.8-5.7-12.8-12.8s5.7-12.8 12.8-12.8c7.1 0 12.8 5.7 12.8 12.8s-5.7 12.8-12.8 12.8zM16 5.4c-5.9 0-10.6 4.7-10.6 10.6s4.7 10.6 10.6 10.6 10.6-4.7 10.6-10.6-4.7-10.6-10.6-10.6z"></path>
<path d="M19.1 12.4h1.4c0.2 0 0.3 0.2 0.2 0.3l-5.4 7.5c0 0.1-0.1 0.1-0.1 0.1s-0.1 0-0.2 0-0.1 0-0.2 0c-0.1 0-0.1-0.1-0.1-0.1l-3.2-4.5c-0.1-0.1 0-0.3 0.2-0.3h1.4c0.1 0 0.3 0.1 0.3 0.2l1.7 2.3 3.9-5.3c-0.2-0.2 0-0.2 0.1-0.2v0z"></path>
</svg>
