<!-- Generated by IcoMoon.io -->
<svg version="1.1" xmlns="http://www.w3.org/2000/svg" width="32" height="32" viewBox="0 0 32 32">
<path d="M16 3.2c-7.069 0-12.8 5.731-12.8 12.8s5.731 12.8 12.8 12.8c7.069 0 12.8-5.731 12.8-12.8s-5.731-12.8-12.8-12.8zM16 26.629c-5.869 0-10.629-4.76-10.629-10.629 0-2.543 0.894-4.88 2.386-6.709l14.951 14.951c-1.829 1.491-4.166 2.386-6.709 2.386zM24.243 22.709l-14.951-14.951c1.829-1.491 4.166-2.386 6.709-2.386 5.869 0 10.629 4.76 10.629 10.629 0 2.543-0.894 4.88-2.386 6.709z"></path>
</svg>
