<!-- Generated by IcoMoon.io -->
<svg version="1.1" xmlns="http://www.w3.org/2000/svg" width="32" height="32" viewBox="0 0 32 32">
<path d="M21.029 8c-3.943 0-7.2 2.937-7.703 6.743h-4.84c-0.205-0.507-0.556-0.941-1.009-1.246s-0.987-0.469-1.534-0.468c-1.514 0-2.743 1.229-2.743 2.743s1.229 2.743 2.743 2.743c1.151 0 2.137-0.708 2.543-1.714h4.837c0.506 3.806 3.763 6.743 7.706 6.743 4.291 0 7.771-3.48 7.771-7.771s-3.48-7.771-7.771-7.771zM24.686 16.514c0 0.126-0.103 0.229-0.229 0.229h-2.457v2.457c0 0.126-0.103 0.229-0.229 0.229h-1.486c-0.126 0-0.229-0.103-0.229-0.229v-2.457h-2.457c-0.126 0-0.229-0.103-0.229-0.229v-1.486c0-0.126 0.103-0.229 0.229-0.229h2.457v-2.457c0-0.126 0.103-0.229 0.229-0.229h1.486c0.126 0 0.229 0.103 0.229 0.229v2.457h2.457c0.126 0 0.229 0.103 0.229 0.229v1.486z"></path>
</svg>
