<!-- Generated by IcoMoon.io -->
<svg version="1.1" xmlns="http://www.w3.org/2000/svg" width="32" height="32" viewBox="0 0 32 32">
<path d="M20.48 13.12c0.48 0.48 0.48 1.28 0 1.76l-3.68 3.52c-0.48 0.48-1.28 0.8-1.92 0.8s-1.44-0.32-1.92-0.8l-1.28-1.12c-0.48-0.48-0.48-1.28 0-1.76s1.28-0.48 1.76 0l1.28 1.12c0.16 0.16 0.48 0.16 0.64 0l3.68-3.52c0.48-0.48 1.28-0.48 1.76 0zM25.6 16c0 5.28-4.32 9.6-9.6 9.6s-9.6-4.32-9.6-9.6 4.32-9.6 9.6-9.6 9.6 4.32 9.6 9.6zM23.2 16c0-4-3.2-7.2-7.2-7.2s-7.2 3.2-7.2 7.2 3.2 7.2 7.2 7.2 7.2-3.2 7.2-7.2z"></path>
</svg>
