<!-- Generated by IcoMoon.io -->
<svg version="1.1" xmlns="http://www.w3.org/2000/svg" width="32" height="32" viewBox="0 0 32 32">
<path d="M16 3.2c-7.058 0-12.8 5.742-12.8 12.8v5.303c0 1.311 1.148 2.377 2.56 2.377h1.28c0.708 0 1.28-0.573 1.28-1.28v-6.583c0-0.707-0.572-1.28-1.28-1.28h-1.162c0.712-4.954 4.974-8.777 10.122-8.777s9.411 3.823 10.122 8.777h-1.162c-0.708 0-1.28 0.573-1.28 1.28v7.863c0 1.412-1.148 2.56-2.56 2.56h-2.56v-1.28h-5.12v3.84h7.68c2.824 0 5.12-2.296 5.12-5.12 1.412 0 2.56-1.066 2.56-2.377v-5.303c0-7.058-5.742-12.8-12.8-12.8z"></path>
</svg>
