<!-- Generated by IcoMoon.io -->
<svg version="1.1" xmlns="http://www.w3.org/2000/svg" width="32" height="32" viewBox="0 0 32 32">
<title>swap</title>
<path d="M27.683 18.226h-24.205c-0.153 0-0.278 0.125-0.278 0.278v2.087c0 0.153 0.125 0.278 0.278 0.278h21.050l-5.019 6.365c-0.143 0.181-0.014 0.452 0.219 0.452h2.522c0.171 0 0.331-0.076 0.438-0.212l5.871-7.447c0.574-0.73 0.056-1.802-0.876-1.802v0zM28.521 10.017h-21.050l5.019-6.365c0.143-0.181 0.014-0.452-0.219-0.452h-2.522c-0.17 0-0.33 0.076-0.438 0.212l-5.871 7.447c-0.574 0.73-0.056 1.802 0.873 1.802h24.208c0.153 0 0.278-0.125 0.278-0.278v-2.087c0-0.153-0.125-0.278-0.278-0.278z"></path>
</svg>
