<!-- Generated by IcoMoon.io -->
<svg version="1.1" xmlns="http://www.w3.org/2000/svg" width="32" height="32" viewBox="0 0 32 32">
<path d="M23.68 7.296h-19.456c-0.566 0-1.024 0.458-1.024 1.024v19.456c0 0.566 0.458 1.024 1.024 1.024h19.456c0.566 0 1.024-0.458 1.024-1.024v-19.456c0-0.566-0.458-1.024-1.024-1.024zM22.4 26.496h-16.896v-16.896h16.896v16.896zM27.776 3.2h-19.712c-0.141 0-0.256 0.115-0.256 0.256v1.792c0 0.141 0.115 0.256 0.256 0.256h18.432v18.432c0 0.141 0.115 0.256 0.256 0.256h1.792c0.141 0 0.256-0.115 0.256-0.256v-19.712c0-0.566-0.458-1.024-1.024-1.024zM9.216 17.216h9.472v2.048h-9.472v-2.048z"></path>
</svg>
