<!-- Generated by IcoMoon.io -->
<svg version="1.1" xmlns="http://www.w3.org/2000/svg" width="32" height="32" viewBox="0 0 32 32">
<path d="M27.886 6.4h-23.771c-0.506 0-0.914 0.409-0.914 0.914v18.286c0 0.506 0.409 0.914 0.914 0.914h23.771c0.506 0 0.914-0.408 0.914-0.914v-18.286c0-0.506-0.409-0.914-0.914-0.914zM26.743 12.343h-6.057v-3.886h6.057v3.886zM26.743 18.743h-6.057v-4.571h6.057v4.571zM13.143 14.171h5.714v4.571h-5.714v-4.571zM18.857 12.343h-5.714v-3.886h5.714v3.886zM5.257 14.171h6.057v4.571h-6.057v-4.571zM5.257 8.457h6.057v3.886h-6.057v-3.886zM5.257 20.571h6.057v3.886h-6.057v-3.886zM13.143 20.571h5.714v3.886h-5.714v-3.886zM26.743 24.457h-6.057v-3.886h6.057v3.886z"></path>
</svg>
