<!-- Generated by IcoMoon.io -->
<svg version="1.1" xmlns="http://www.w3.org/2000/svg" width="32" height="32" viewBox="0 0 32 32">
<title>tag</title>
<path d="M28.801 14.402l-0.889-9.393c-0.045-0.487-0.433-0.871-0.92-0.919l-9.405-0.889c-0.096 0-0.171 0.030-0.228 0.087l-14.071 14.071c-0.028 0.028-0.050 0.061-0.065 0.097s-0.023 0.075-0.023 0.115 0.008 0.078 0.023 0.115c0.015 0.036 0.037 0.069 0.065 0.097l10.931 10.931c0.057 0.057 0.132 0.087 0.213 0.087s0.156-0.030 0.213-0.087l14.071-14.071c0.060-0.063 0.090-0.15 0.084-0.24v0zM14.429 25.696l-8.125-8.125 12.010-12.010 7.422 0.703 0.703 7.422-12.010 12.010zM21.049 8.308c-1.457 0-2.644 1.187-2.644 2.644s1.187 2.644 2.644 2.644c1.457 0 2.644-1.187 2.644-2.644s-1.187-2.644-2.644-2.644zM21.049 11.914c-0.532 0-0.962-0.43-0.962-0.962s0.43-0.962 0.962-0.962c0.532 0 0.961 0.43 0.961 0.962s-0.43 0.962-0.961 0.962z"></path>
</svg>
