<!-- Generated by IcoMoon.io -->
<svg version="1.1" xmlns="http://www.w3.org/2000/svg" width="32" height="32" viewBox="0 0 32 32">
<path d="M14.741 23.949l10.809-10.812c0.048-0.049 0.071-0.114 0.066-0.18l-0.729-8.614c-0.020-0.223-0.194-0.397-0.417-0.417l-8.614-0.726c-0.066-0.006-0.134 0.017-0.18 0.066l-10.809 10.809c-0.043 0.043-0.066 0.101-0.066 0.161s0.024 0.118 0.066 0.161l9.551 9.551c0.089 0.091 0.234 0.091 0.323 0zM16.53 5.324l6.419 0.543 0.543 6.419-8.914 8.911-6.962-6.959 8.914-8.914zM18.249 10.647c0.127 0.127 0.279 0.228 0.445 0.297s0.345 0.104 0.525 0.104 0.359-0.036 0.525-0.104c0.166-0.069 0.318-0.17 0.445-0.297s0.228-0.279 0.297-0.445 0.104-0.345 0.104-0.525c0-0.18-0.036-0.359-0.104-0.525s-0.17-0.318-0.297-0.445c-0.128-0.127-0.279-0.228-0.445-0.297s-0.345-0.104-0.525-0.104c-0.18 0-0.359 0.036-0.525 0.104s-0.318 0.17-0.445 0.297-0.228 0.279-0.297 0.445c-0.069 0.166-0.104 0.345-0.104 0.525s0.036 0.359 0.104 0.525c0.069 0.166 0.17 0.318 0.297 0.445zM26.358 16.79l-1.132-1.129c-0.043-0.043-0.101-0.066-0.161-0.066s-0.119 0.024-0.161 0.066l-10.346 10.326-6.79-6.773c-0.043-0.043-0.101-0.066-0.161-0.066s-0.119 0.024-0.161 0.066l-1.132 1.129c-0.043 0.043-0.066 0.101-0.066 0.161s0.024 0.119 0.066 0.161l8.082 8.068c0.089 0.088 0.234 0.088 0.323 0l11.64-11.62c0.088-0.089 0.088-0.234 0-0.323v0z"></path>
</svg>
