<!-- Generated by IcoMoon.io -->
<svg version="1.1" xmlns="http://www.w3.org/2000/svg" width="32" height="32" viewBox="0 0 32 32">
<path d="M17.742 14.174c-0.66 0-1.171 0.511-1.171 1.143s0.511 1.143 1.171 1.143c0.603 0 1.114-0.511 1.114-1.143s-0.511-1.143-1.114-1.143zM9.743 14.174c-0.66 0-1.171 0.511-1.171 1.143s0.511 1.143 1.171 1.143c0.603 0 1.114-0.511 1.114-1.143s-0.511-1.143-1.114-1.143z"></path>
<path d="M26.912 12.001c-1.322-1.819-3.228-3.13-5.4-3.714v0.003c-0.488-0.543-1.040-1.043-1.657-1.488-4.677-3.4-11.242-2.363-14.656 2.314-2.751 3.8-2.634 8.911 0.171 12.542l0.023 3.788c0 0.091 0.014 0.183 0.043 0.268 0.036 0.115 0.094 0.221 0.171 0.313s0.171 0.168 0.278 0.223c0.106 0.055 0.223 0.089 0.342 0.1s0.24-0.003 0.354-0.039l3.617-1.14c0.957 0.34 1.946 0.534 2.928 0.588l-0.014 0.011c2.546 1.854 5.883 2.411 8.942 1.4l3.631 1.183c0.091 0.029 0.186 0.046 0.283 0.046 0.506 0 0.914-0.408 0.914-0.914v-3.828c2.517-3.417 2.583-8.14 0.029-11.656zM10.599 23.143l-0.343-0.143-2.828 0.886-0.029-2.971-0.229-0.257c-2.417-2.948-2.577-7.197-0.314-10.314 2.754-3.777 8.034-4.611 11.799-1.886 3.777 2.746 4.614 8.017 1.886 11.771-2.288 3.14-6.385 4.3-9.942 2.914zM25.027 22.657l-0.229 0.286 0.029 2.971-2.8-0.943-0.343 0.143c-1.6 0.594-3.305 0.643-4.885 0.2l-0.006-0.003c2.171-0.666 4.068-2.018 5.405-3.854 2.183-3.008 2.537-6.788 1.268-10.011l0.017 0.011c0.657 0.471 1.26 1.060 1.771 1.771 2.074 2.846 1.957 6.72-0.228 9.428z"></path>
<path d="M13.743 14.174c-0.66 0-1.171 0.511-1.171 1.143s0.511 1.143 1.171 1.143c0.603 0 1.114-0.511 1.114-1.143s-0.511-1.143-1.114-1.143z"></path>
</svg>
