<!-- Generated by IcoMoon.io -->
<svg version="1.1" xmlns="http://www.w3.org/2000/svg" width="32" height="32" viewBox="0 0 32 32">
<path d="M16.271 7.78c0-0.434-0.353-0.788-0.788-0.788s-0.788 0.353-0.788 0.788v0.788h1.576v-0.788z"></path>
<path d="M20.279 23.097h6.129l0.001-20.537h-21.742v26.667h15.612v-6.13zM23.062 20.009h-15.048v-1.563h15.048v1.563zM23.062 16.675h-15.048v-1.563h15.048v1.563zM18.634 5.452h1.726l0.783 1.668 0.783-1.668h1.726l-1.646 3.506 1.665 3.547h-1.726l-0.802-1.709-0.802 1.709h-1.726l1.665-3.547-1.646-3.506zM13.132 7.78c0-1.296 1.054-2.35 2.35-2.35s2.35 1.054 2.35 2.35v4.707h-1.563v-2.357h-1.576v2.357h-1.562v-4.707zM7.403 5.451h4.722v1.563h-1.58v5.495h-1.563v-5.495h-1.58v-1.563zM18.304 26.675h-10.29v-1.563h10.29v1.563zM8.013 23.342v-1.563h10.29v1.563h-10.29z"></path>
<path d="M21.841 24.66v4.567l4.566-4.567h-4.566z"></path>
</svg>
