<!-- Generated by IcoMoon.io -->
<svg version="1.1" xmlns="http://www.w3.org/2000/svg" width="32" height="32" viewBox="0 0 32 32">
<title>team</title>
<path d="M25.99 22.013c-0.801-0.802-1.737-1.456-2.765-1.933 1.45-1.174 2.374-2.966 2.374-4.976 0-3.546-2.957-6.454-6.502-6.4-3.491 0.054-6.304 2.899-6.304 6.4 0 2.010 0.928 3.802 2.374 4.976-1.028 0.476-1.964 1.131-2.765 1.933-1.747 1.75-2.739 4.061-2.803 6.525-0.001 0.034 0.005 0.068 0.018 0.1s0.031 0.061 0.055 0.085c0.024 0.024 0.052 0.044 0.084 0.057s0.065 0.020 0.099 0.020h1.792c0.138 0 0.253-0.109 0.256-0.246 0.061-1.856 0.813-3.593 2.134-4.912 0.676-0.68 1.481-1.219 2.367-1.586s1.836-0.554 2.795-0.552c1.949 0 3.782 0.758 5.161 2.138 1.318 1.318 2.070 3.056 2.134 4.912 0.003 0.138 0.118 0.246 0.256 0.246h1.792c0.034 0 0.068-0.007 0.1-0.020s0.060-0.033 0.084-0.057c0.024-0.024 0.043-0.053 0.055-0.085s0.018-0.066 0.018-0.1c-0.064-2.464-1.056-4.774-2.81-6.525zM19.2 19.2c-1.094 0-2.125-0.426-2.896-1.2-0.387-0.384-0.693-0.842-0.899-1.347s-0.309-1.046-0.301-1.591c0.010-1.050 0.429-2.064 1.162-2.816 0.768-0.787 1.795-1.226 2.893-1.238 1.085-0.010 2.137 0.413 2.912 1.171 0.794 0.778 1.229 1.818 1.229 2.925 0 1.094-0.426 2.122-1.2 2.896-0.38 0.382-0.832 0.684-1.329 0.89s-1.031 0.311-1.57 0.31zM11.184 15.949c-0.029-0.278-0.045-0.56-0.045-0.845 0-0.509 0.048-1.005 0.138-1.488 0.022-0.115-0.038-0.234-0.144-0.282-0.435-0.195-0.835-0.464-1.181-0.803-0.407-0.395-0.728-0.87-0.941-1.396s-0.315-1.090-0.297-1.657c0.029-1.027 0.442-2.003 1.162-2.739 0.79-0.81 1.853-1.251 2.982-1.238 1.021 0.010 2.006 0.403 2.752 1.101 0.253 0.237 0.47 0.499 0.653 0.781 0.064 0.099 0.189 0.141 0.298 0.102 0.563-0.195 1.158-0.333 1.77-0.397 0.179-0.019 0.282-0.211 0.202-0.371-1.040-2.058-3.165-3.478-5.622-3.517-3.549-0.054-6.505 2.854-6.505 6.397 0 2.010 0.925 3.802 2.374 4.976-1.018 0.47-1.955 1.12-2.768 1.933-1.754 1.75-2.746 4.061-2.81 6.528-0.001 0.034 0.005 0.068 0.018 0.1s0.031 0.061 0.055 0.085c0.024 0.024 0.052 0.044 0.084 0.057s0.065 0.020 0.099 0.020h1.795c0.138 0 0.253-0.109 0.256-0.246 0.061-1.856 0.813-3.593 2.134-4.912 0.941-0.941 2.093-1.594 3.35-1.91 0.125-0.032 0.208-0.15 0.192-0.278v0z"></path>
</svg>
