<!-- Generated by IcoMoon.io -->
<svg version="1.1" xmlns="http://www.w3.org/2000/svg" width="32" height="32" viewBox="0 0 32 32">
<path fill="#002851" d="M25.667 4.153c-0.308 0.023-0.611 0.095-0.896 0.214h-0.004c-0.274 0.108-1.574 0.656-3.552 1.485l-7.087 2.985c-5.085 2.141-10.084 4.249-10.084 4.249l0.060-0.023c0 0-0.345 0.113-0.705 0.36-0.223 0.141-0.414 0.326-0.563 0.544-0.177 0.259-0.319 0.656-0.266 1.066 0.086 0.693 0.536 1.109 0.858 1.338 0.326 0.232 0.637 0.341 0.637 0.341h0.008l4.688 1.579c0.21 0.675 1.428 4.68 1.721 5.603 0.173 0.551 0.341 0.896 0.551 1.159 0.1 0.134 0.222 0.247 0.364 0.337 0.074 0.044 0.153 0.079 0.236 0.102l-0.048-0.012c0.014 0.004 0.026 0.015 0.036 0.019 0.038 0.011 0.064 0.014 0.113 0.022 0.742 0.225 1.338-0.236 1.338-0.236l0.034-0.027 2.768-2.52 4.639 3.559 0.106 0.045c0.967 0.424 1.946 0.188 2.463-0.228 0.521-0.42 0.724-0.956 0.724-0.956l0.034-0.086 3.585-18.364c0.102-0.453 0.128-0.877 0.015-1.289-0.115-0.417-0.383-0.776-0.75-1.005-0.308-0.187-0.665-0.278-1.024-0.259zM25.571 6.121c-0.004 0.060 0.008 0.054-0.019 0.17v0.011l-3.551 18.173c-0.015 0.026-0.041 0.083-0.112 0.139-0.075 0.060-0.134 0.097-0.446-0.027l-5.674-4.35-3.427 3.124 0.72-4.598 9.27-8.64c0.382-0.355 0.254-0.43 0.254-0.43 0.027-0.436-0.577-0.128-0.577-0.128l-11.689 7.241-0.004-0.019-5.617-1.893 0.029-0.012 0.031-0.015 0.030-0.011c0 0 5.003-2.108 10.088-4.249 2.546-1.072 5.111-2.152 7.084-2.986 1.17-0.492 2.341-0.982 3.514-1.469 0.079-0.031 0.041-0.032 0.098-0.032z"></path>
</svg>
