<!-- Generated by IcoMoon.io -->
<svg version="1.1" xmlns="http://www.w3.org/2000/svg" width="32" height="32" viewBox="0 0 32 32">
<path d="M27.668 7.236c-0.016-0.029-0.038-0.058-0.064-0.080-0.16-0.16-0.42-0.16-0.58 0l-5.523 5.523-2.176-2.177 5.526-5.526c0.026-0.026 0.045-0.051 0.064-0.080 0.115-0.196 0.051-0.446-0.144-0.561-3.148-1.859-7.27-1.433-9.979 1.273-2.148 2.148-2.859 5.193-2.132 7.93l-9.392 9.392c-0.096 0.096-0.090 0.253 0.010 0.353l5.44 5.44c0.099 0.099 0.26 0.106 0.353 0.010l9.389-9.389c2.741 0.731 5.786 0.023 7.937-2.128 2.705-2.709 3.132-6.831 1.272-9.979v0zM24.764 15.579c-1.862 1.862-4.657 2.221-6.879 1.077l-0.282 0.282-0.003-0.003-8.783 8.786-2.539-2.539 7.376-7.376c0 0 0 0.003 0.003 0.003l1.692-1.692c-1.144-2.221-0.785-5.017 1.077-6.879 0.601-0.601 1.324-1.066 2.121-1.362s1.648-0.416 2.495-0.353l-4.26 4.257c-0.192 0.193-0.301 0.454-0.301 0.726s0.108 0.533 0.301 0.726l3.991 3.991c0.193 0.192 0.454 0.3 0.726 0.3s0.533-0.108 0.726-0.3l4.257-4.257c0.119 1.66-0.462 3.359-1.718 4.613v0z"></path>
</svg>
