<!-- Generated by IcoMoon.io -->
<svg version="1.1" xmlns="http://www.w3.org/2000/svg" width="32" height="32" viewBox="0 0 32 32">
<title>totop</title>
<path d="M28.522 26.089h-25.044c-0.153 0-0.278 0.125-0.278 0.278v2.087c0 0.153 0.125 0.278 0.278 0.278h25.044c0.153 0 0.278-0.125 0.278-0.278v-2.087c0-0.153-0.125-0.278-0.278-0.278zM11.652 10.288h2.57v11.767c0 0.153 0.125 0.278 0.278 0.278h2.087c0.153 0 0.278-0.125 0.278-0.278v-11.767h2.577c0.233 0 0.362-0.268 0.219-0.449l-3.896-4.932c-0.026-0.033-0.059-0.060-0.097-0.079s-0.080-0.028-0.122-0.028c-0.042 0-0.084 0.010-0.122 0.028s-0.071 0.045-0.097 0.079l-3.896 4.929c-0.143 0.184-0.014 0.452 0.219 0.452v0z"></path>
</svg>
