<!-- Generated by IcoMoon.io -->
<svg version="1.1" xmlns="http://www.w3.org/2000/svg" width="32" height="32" viewBox="0 0 32 32">
<path d="M16 3.2c-7.069 0-12.8 5.731-12.8 12.8s5.731 12.8 12.8 12.8c7.069 0 12.8-5.731 12.8-12.8s-5.731-12.8-12.8-12.8zM16 26.629c-5.869 0-10.629-4.76-10.629-10.629s4.76-10.629 10.629-10.629c5.869 0 10.629 4.76 10.629 10.629s-4.76 10.629-10.629 10.629zM18.5 17.066c0.994-0.366 2.24-1.4 2.24-3.406 0-2.034-1.3-3.746-4.12-3.746h-4.449c-0.126 0-0.229 0.103-0.229 0.229v11.714c0 0.126 0.103 0.229 0.229 0.229h1.557c0.126 0 0.229-0.103 0.229-0.229v-4.451h2.534l2.132 4.548c0.037 0.080 0.117 0.132 0.206 0.132h1.771c0.039 0 0.077-0.009 0.111-0.028s0.063-0.046 0.083-0.079c0.020-0.033 0.032-0.071 0.033-0.11s-0.007-0.077-0.025-0.112l-2.303-4.691zM16.286 15.8h-2.329v-4.229h2.383c1.371 0 2.311 0.723 2.311 2.157 0 1.34-0.851 2.071-2.366 2.071z"></path>
</svg>
