<!-- Generated by IcoMoon.io -->
<svg version="1.1" xmlns="http://www.w3.org/2000/svg" width="32" height="32" viewBox="0 0 32 32">
<path d="M5.371 6.971h16.686v4.686h2.171v-5.943c0-0.506-0.408-0.914-0.914-0.914h-19.2c-0.506 0-0.914 0.409-0.914 0.914v21.029c0 0.506 0.409 0.914 0.914 0.914h15.543v-2.172h-14.286v-18.514z"></path>
<path d="M13.209 8.9h-1.731c-0.097 0-0.183 0.063-0.217 0.154l-3.631 10.514c-0.009 0.023-0.011 0.048-0.011 0.074 0 0.126 0.103 0.229 0.229 0.229h1.574c0.097 0 0.183-0.063 0.217-0.154l0.934-2.703h5.606l-2.749-7.96c-0.017-0.045-0.047-0.083-0.086-0.111s-0.086-0.043-0.134-0.044zM13.563 15.415h-2.443l1.223-3.537 1.22 3.537zM28.114 16.672h-3.886v-2.657c0-0.126-0.103-0.229-0.229-0.229h-1.6c-0.126 0-0.229 0.103-0.229 0.229v2.657h-3.886c-0.38 0-0.686 0.306-0.686 0.686v5.029c0 0.38 0.306 0.686 0.686 0.686h3.886v4.343c0 0.126 0.103 0.228 0.229 0.228h1.6c0.126 0 0.229-0.103 0.229-0.228v-4.343h3.886c0.38 0 0.686-0.306 0.686-0.686v-5.029c0-0.38-0.306-0.686-0.686-0.686zM22.171 21.015h-2.514v-2.286h2.514v2.286zM26.743 21.015h-2.514v-2.286h2.514v2.286z"></path>
</svg>
