<!-- Generated by IcoMoon.io -->
<svg version="1.1" xmlns="http://www.w3.org/2000/svg" width="32" height="32" viewBox="0 0 32 32">
<path d="M20.662 10.285c0-0.131-0.107-0.238-0.238-0.238h-1.622c-0.089 0-0.173 0.051-0.211 0.131l-2.521 5.025h-0.098l-2.521-5.025c-0.020-0.039-0.050-0.072-0.087-0.095s-0.080-0.035-0.124-0.036h-1.658c-0.039 0-0.077 0.009-0.113 0.030-0.116 0.063-0.158 0.208-0.095 0.322l3.093 5.704h-1.697c-0.131 0-0.238 0.107-0.238 0.238v0.807c0 0.131 0.107 0.238 0.238 0.238h2.262v1.161h-2.262c-0.131 0-0.238 0.107-0.238 0.238v0.807c0 0.131 0.107 0.238 0.238 0.238h2.262v1.887c0 0.131 0.107 0.238 0.238 0.238h1.485c0.131 0 0.238-0.107 0.238-0.238v-1.89h2.271c0.131 0 0.238-0.107 0.238-0.238v-0.807c0-0.131-0.107-0.238-0.238-0.238h-2.271v-1.161h2.271c0.131 0 0.238-0.107 0.238-0.238v-0.807c0-0.131-0.107-0.238-0.238-0.238h-1.715l3.087-5.703c0.015-0.033 0.027-0.071 0.027-0.11v0zM5.459 15.768c0.056-2.713 1.16-5.299 3.081-7.216 0.967-0.967 2.093-1.729 3.346-2.259 1.298-0.548 2.676-0.828 4.096-0.828 1.423 0 2.801 0.277 4.096 0.828 1.253 0.53 2.378 1.292 3.346 2.259 0.298 0.298 0.575 0.61 0.831 0.935l-1.488 1.164c-0.036 0.027-0.062 0.064-0.078 0.106s-0.019 0.088-0.009 0.132c0.009 0.044 0.031 0.084 0.062 0.116s0.071 0.055 0.114 0.065l4.668 1.14c0.149 0.036 0.295-0.077 0.295-0.229l0.024-4.807c0-0.199-0.229-0.313-0.384-0.188l-1.423 1.113c-2.334-2.986-5.968-4.9-10.050-4.9-6.98 0-12.657 5.599-12.785 12.556-0.001 0.032 0.005 0.063 0.016 0.093s0.029 0.057 0.051 0.079c0.022 0.023 0.049 0.041 0.078 0.053s0.061 0.019 0.093 0.019h1.786c0.128 0 0.232-0.104 0.235-0.232zM28.562 16h-1.786c-0.128 0-0.235 0.104-0.238 0.232-0.056 2.713-1.16 5.299-3.081 7.216-0.959 0.963-2.095 1.73-3.346 2.259-1.298 0.548-2.676 0.828-4.096 0.828s-2.801-0.277-4.096-0.828c-1.251-0.53-2.387-1.297-3.346-2.259-0.298-0.298-0.575-0.61-0.83-0.935l1.485-1.164c0.035-0.028 0.062-0.064 0.078-0.106s0.019-0.088 0.009-0.132c-0.009-0.044-0.031-0.084-0.062-0.116s-0.071-0.055-0.114-0.066l-4.668-1.14c-0.149-0.036-0.295 0.077-0.295 0.229l-0.024 4.813c0 0.2 0.229 0.312 0.384 0.188l1.423-1.113c2.34 2.98 5.974 4.894 10.055 4.894 6.98 0 12.657-5.599 12.785-12.556 0.001-0.032-0.005-0.064-0.016-0.093s-0.029-0.057-0.051-0.079-0.049-0.041-0.078-0.053c-0.029-0.012-0.061-0.019-0.092-0.019v0z"></path>
</svg>
