<!-- Generated by IcoMoon.io -->
<svg version="1.1" xmlns="http://www.w3.org/2000/svg" width="32" height="32" viewBox="0 0 32 32">
<path d="M28.8 8.87c-0.941 0.406-1.966 0.698-3.021 0.812 1.096-0.651 1.916-1.679 2.307-2.892-1.028 0.612-2.154 1.040-3.329 1.268-0.491-0.525-1.085-0.943-1.744-1.228s-1.371-0.432-2.089-0.43c-2.907 0-5.245 2.357-5.245 5.249 0 0.406 0.049 0.812 0.129 1.203-4.353-0.228-8.236-2.307-10.817-5.492-0.47 0.803-0.717 1.718-0.714 2.649 0 1.821 0.926 3.427 2.338 4.372-0.832-0.033-1.645-0.262-2.372-0.668v0.065c0 2.55 1.803 4.664 4.206 5.15-0.451 0.117-0.915 0.177-1.381 0.179-0.341 0-0.665-0.034-0.991-0.080 0.665 2.080 2.6 3.59 4.904 3.64-1.803 1.412-4.061 2.243-6.513 2.243-0.44 0-0.846-0.015-1.268-0.064 2.326 1.492 5.086 2.353 8.058 2.353 9.648 0 14.927-7.993 14.927-14.93 0-0.228 0-0.455-0.015-0.683 1.021-0.748 1.917-1.674 2.63-2.714z"></path>
</svg>
