<!-- Generated by IcoMoon.io -->
<svg version="1.1" xmlns="http://www.w3.org/2000/svg" width="32" height="32" viewBox="0 0 32 32">
<path d="M22.4 17.086h-12.8c-0.251 0-0.457 0.206-0.457 0.457v5.028c0 0.252 0.206 0.457 0.457 0.457h12.8c0.251 0 0.457-0.206 0.457-0.457v-5.028c0-0.252-0.206-0.457-0.457-0.457zM20.8 20.971h-9.6v-1.828h9.6v1.828zM26.743 24.686c-1.137 0-2.057 0.92-2.057 2.057s0.92 2.057 2.057 2.057c1.137 0 2.057-0.92 2.057-2.057s-0.92-2.057-2.057-2.057zM26.743 27.429c-0.38 0-0.686-0.306-0.686-0.686s0.306-0.686 0.686-0.686c0.38 0 0.686 0.306 0.686 0.686s-0.306 0.686-0.686 0.686zM22.4 8.971h-12.8c-0.251 0-0.457 0.206-0.457 0.457v5.029c0 0.251 0.206 0.457 0.457 0.457h12.8c0.251 0 0.457-0.206 0.457-0.457v-5.029c0-0.251-0.206-0.457-0.457-0.457zM20.8 12.857h-9.6v-1.829h9.6v1.829zM26.743 7.314c1.137 0 2.057-0.92 2.057-2.057s-0.92-2.057-2.057-2.057c-1.137 0-2.057 0.92-2.057 2.057s0.92 2.057 2.057 2.057zM26.743 4.571c0.38 0 0.686 0.306 0.686 0.686s-0.306 0.686-0.686 0.686c-0.38 0-0.686-0.306-0.686-0.686s0.306-0.686 0.686-0.686zM5.257 3.2c-1.137 0-2.057 0.92-2.057 2.057s0.92 2.057 2.057 2.057c1.137 0 2.057-0.92 2.057-2.057s-0.92-2.057-2.057-2.057zM5.257 5.943c-0.38 0-0.686-0.306-0.686-0.686s0.306-0.686 0.686-0.686c0.38 0 0.686 0.306 0.686 0.686s-0.306 0.686-0.686 0.686zM5.257 24.686c-1.137 0-2.057 0.92-2.057 2.057s0.92 2.057 2.057 2.057c1.137 0 2.057-0.92 2.057-2.057s-0.92-2.057-2.057-2.057zM5.257 27.429c-0.38 0-0.686-0.306-0.686-0.686s0.306-0.686 0.686-0.686c0.38 0 0.686 0.306 0.686 0.686s-0.306 0.686-0.686 0.686z"></path>
</svg>
