<!-- Generated by IcoMoon.io -->
<svg version="1.1" xmlns="http://www.w3.org/2000/svg" width="32" height="32" viewBox="0 0 32 32">
<path d="M26.304 14.464h-16v-7.168c0-0.989 0.803-1.792 1.792-1.792h7.936c0.989 0 1.792 0.803 1.792 1.792v2.176c0 0.141 0.115 0.256 0.256 0.256h1.792c0.141 0 0.256-0.115 0.256-0.256v-2.176c0-2.262-1.834-4.096-4.096-4.096h-7.936c-2.262 0-4.096 1.834-4.096 4.096v7.168h-2.176c-0.566 0-1.024 0.458-1.024 1.024v12.288c0 0.566 0.458 1.024 1.024 1.024h20.48c0.566 0 1.024-0.458 1.024-1.024v-12.288c0-0.566-0.458-1.024-1.024-1.024zM25.024 26.496h-17.92v-9.728h17.92v9.728zM15.168 22.048v1.696c0 0.141 0.115 0.256 0.256 0.256h1.28c0.141 0 0.256-0.115 0.256-0.256v-1.696c0.264-0.19 0.461-0.458 0.563-0.767s0.103-0.642 0.003-0.952c-0.1-0.31-0.295-0.58-0.558-0.771s-0.58-0.295-0.905-0.295c-0.325 0-0.642 0.103-0.905 0.295s-0.458 0.461-0.558 0.771c-0.1 0.309-0.098 0.643 0.003 0.952s0.299 0.577 0.563 0.767v0z"></path>
</svg>
