<!-- Generated by IcoMoon.io -->
<svg version="1.1" xmlns="http://www.w3.org/2000/svg" width="32" height="32" viewBox="0 0 32 32">
<path d="M20.16 20.48c-0.48 0-0.8-0.16-1.12-0.48-0.64-0.64-0.64-1.76 0-2.4l5.76-5.76-5.76-5.76c-0.64-0.64-0.64-1.76 0-2.4s1.76-0.64 2.4 0l6.88 6.88c0.32 0.32 0.48 0.8 0.48 1.28s-0.16 0.8-0.48 1.12l-6.88 6.88c-0.48 0.48-0.8 0.64-1.28 0.64z"></path>
<path d="M4.8 28.8c-0.96 0-1.6-0.8-1.6-1.6v-9.76c0-1.92 0.8-3.68 2.080-5.12 1.44-1.44 3.2-2.080 5.12-2.080h16.8c0.96 0 1.6 0.8 1.6 1.6s-0.8 1.6-1.6 1.6h-16.8c-0.96 0-2.080 0.48-2.72 1.12-0.8 0.8-1.12 1.76-1.12 2.72v9.92c0 0.8-0.8 1.6-1.76 1.6z"></path>
</svg>
