<!-- Generated by IcoMoon.io -->
<svg version="1.1" xmlns="http://www.w3.org/2000/svg" width="32" height="32" viewBox="0 0 32 32">
<title>up-square</title>
<path d="M10.303 19.585h1.501c0.326 0 0.637-0.157 0.829-0.422l3.366-4.653 3.366 4.653c0.192 0.266 0.499 0.422 0.829 0.422h1.501c0.208 0 0.33-0.237 0.208-0.406l-5.696-7.872c-0.024-0.033-0.055-0.059-0.091-0.078s-0.076-0.028-0.116-0.028c-0.040 0-0.080 0.010-0.116 0.028s-0.067 0.045-0.090 0.078l-5.696 7.872c-0.028 0.038-0.045 0.083-0.049 0.13s0.005 0.094 0.026 0.136 0.054 0.078 0.094 0.102c0.040 0.025 0.086 0.038 0.134 0.038z"></path>
<path d="M27.776 3.2h-23.552c-0.566 0-1.024 0.458-1.024 1.024v23.552c0 0.566 0.458 1.024 1.024 1.024h23.552c0.566 0 1.024-0.458 1.024-1.024v-23.552c0-0.566-0.458-1.024-1.024-1.024zM26.496 26.496h-20.992v-20.992h20.992v20.992z"></path>
</svg>
