<!-- Generated by IcoMoon.io -->
<svg version="1.1" xmlns="http://www.w3.org/2000/svg" width="32" height="32" viewBox="0 0 32 32">
<path d="M12.167 8.6h2.529v11.578c0 0.151 0.123 0.274 0.274 0.274h2.054c0.151 0 0.274-0.123 0.274-0.274v-11.578h2.536c0.229 0 0.356-0.264 0.216-0.441l-3.833-4.853c-0.026-0.033-0.058-0.059-0.096-0.077s-0.078-0.028-0.12-0.028c-0.042 0-0.083 0.009-0.12 0.028s-0.070 0.045-0.096 0.077l-3.833 4.85c-0.14 0.181-0.014 0.445 0.216 0.445v0zM28.526 19.151h-2.053c-0.151 0-0.274 0.123-0.274 0.274v5.271h-20.398v-5.271c0-0.151-0.123-0.274-0.274-0.274h-2.054c-0.151 0-0.274 0.123-0.274 0.274v6.776c0 0.606 0.489 1.095 1.095 1.095h23.41c0.606 0 1.095-0.489 1.095-1.095v-6.776c0-0.151-0.123-0.274-0.274-0.274z"></path>
</svg>
