<!-- Generated by IcoMoon.io -->
<svg version="1.1" xmlns="http://www.w3.org/2000/svg" width="32" height="32" viewBox="0 0 32 32">
<path fill="none" stroke-linejoin="round" stroke-linecap="round" stroke-miterlimit="4" stroke-width="2" stroke="#000" d="M28 19.733c0 3.314-2.686 6-6 6-1.074 0-2.083-0.282-2.956-0.777-0.924-0.524-1.692-1.283-2.227-2.201s-0.817-1.961-0.817-3.023c0-1.541 0.581-2.946 1.535-4.008 0.562-0.627 1.251-1.129 2.020-1.473s1.603-0.52 2.445-0.519c3.314 0 6 2.686 6 6z"></path>
<path fill="none" stroke-linejoin="round" stroke-linecap="round" stroke-miterlimit="4" stroke-width="2" stroke="#000" d="M22 8.333v5.4c-0.843-0.001-1.676 0.176-2.445 0.519s-1.458 0.845-2.020 1.473c-0.99 1.1-1.537 2.528-1.535 4.008 0.001 0.348 0.030 0.688 0.086 1.019 0.151 0.876 0.495 1.707 1.007 2.435s1.178 1.331 1.951 1.77c-1.597 0.483-3.718 0.777-6.044 0.777-4.97 0-9-1.343-9-3v-14.4"></path>
<path fill="none" stroke-linejoin="round" stroke-linecap="round" stroke-miterlimit="4" stroke-width="2" stroke="#000" d="M4 17.933c0 1.657 4.030 3 9 3 1.084 0 2.124-0.064 3.086-0.181M4 13.133c0 1.657 4.030 3 9 3 1.654 0 3.203-0.149 4.535-0.408M24.4 19.733h-2.4v-2.4M22 8.333c0 1.657-4.030 3-9 3s-9-1.343-9-3c0-1.657 4.030-3 9-3s9 1.343 9 3z"></path>
</svg>
