<!-- Generated by IcoMoon.io -->
<svg version="1.1" xmlns="http://www.w3.org/2000/svg" width="32" height="32" viewBox="0 0 32 32">
<path d="M3.166 10.013h25.669c0.213 0 0.34 0.238 0.222 0.415l-3.525 5.276c-0.12 0.179-0.12 0.413 0 0.593l3.525 5.276c0.118 0.177-0.009 0.415-0.222 0.415h-25.669c-0.213 0-0.34-0.238-0.222-0.415l3.525-5.276c0.12-0.179 0.12-0.413 0-0.593l-3.525-5.276c-0.118-0.177 0.009-0.415 0.222-0.415zM11.74 13.794h-0.932v2.785c0 0.168-0.037 0.317-0.112 0.448-0.073 0.131-0.177 0.233-0.312 0.308-0.134 0.075-0.291 0.112-0.472 0.112-0.179 0-0.337-0.037-0.472-0.112s-0.24-0.177-0.314-0.308c-0.073-0.131-0.11-0.28-0.11-0.448v-2.785h-0.932v2.864c0 0.322 0.076 0.603 0.228 0.844s0.365 0.429 0.64 0.564c0.274 0.133 0.594 0.2 0.96 0.2 0.365 0 0.684-0.067 0.958-0.2 0.274-0.135 0.487-0.323 0.64-0.564 0.154-0.241 0.23-0.523 0.23-0.844v-2.864zM14.679 14.657c0.131 0.096 0.205 0.231 0.222 0.405h0.894c-0.004-0.263-0.075-0.494-0.211-0.693s-0.327-0.355-0.573-0.467c-0.244-0.112-0.53-0.168-0.857-0.168-0.322 0-0.609 0.056-0.861 0.168s-0.452 0.268-0.597 0.467c-0.144 0.2-0.215 0.433-0.213 0.7-0.001 0.326 0.106 0.585 0.321 0.777s0.509 0.334 0.881 0.424l0.48 0.121c0.161 0.039 0.297 0.082 0.407 0.129 0.112 0.047 0.197 0.105 0.254 0.172 0.059 0.067 0.088 0.151 0.088 0.25 0 0.106-0.032 0.2-0.097 0.282s-0.156 0.146-0.274 0.192c-0.116 0.046-0.253 0.069-0.411 0.069-0.161 0-0.305-0.024-0.433-0.073-0.126-0.050-0.228-0.124-0.304-0.222-0.075-0.099-0.117-0.223-0.127-0.37h-0.902c0.007 0.317 0.084 0.584 0.23 0.799 0.148 0.214 0.353 0.375 0.616 0.485 0.264 0.109 0.574 0.164 0.93 0.164 0.359 0 0.665-0.054 0.92-0.161 0.256-0.109 0.451-0.262 0.586-0.459 0.136-0.198 0.205-0.432 0.207-0.702-0.001-0.184-0.035-0.347-0.101-0.489-0.065-0.142-0.156-0.266-0.274-0.37s-0.257-0.193-0.418-0.265c-0.161-0.072-0.337-0.129-0.53-0.172l-0.396-0.095c-0.096-0.021-0.187-0.047-0.271-0.077-0.085-0.032-0.159-0.068-0.224-0.11-0.065-0.043-0.116-0.094-0.153-0.153-0.036-0.059-0.052-0.128-0.050-0.207 0-0.095 0.027-0.179 0.082-0.254 0.056-0.075 0.136-0.133 0.241-0.174 0.105-0.043 0.233-0.065 0.385-0.065 0.224 0 0.401 0.048 0.532 0.144zM16.482 13.794v4.411h2.981v-0.769h-2.048v-1.053h1.887v-0.769h-1.887v-1.051h2.039v-0.769h-2.972zM20.195 18.204h1.564c0.448 0 0.833-0.088 1.154-0.265 0.323-0.177 0.571-0.43 0.743-0.76 0.174-0.33 0.261-0.725 0.261-1.184 0-0.458-0.087-0.851-0.261-1.18-0.172-0.329-0.419-0.581-0.739-0.756-0.32-0.177-0.702-0.265-1.146-0.265h-1.577v4.411z"></path>
<path d="M21.127 17.405h0.592c0.276 0 0.507-0.049 0.696-0.146 0.189-0.099 0.332-0.252 0.426-0.459 0.096-0.208 0.144-0.477 0.144-0.805 0-0.326-0.048-0.592-0.144-0.799-0.095-0.207-0.236-0.359-0.424-0.457s-0.42-0.146-0.696-0.146h-0.594v2.813z"></path>
</svg>
