<!-- Generated by IcoMoon.io -->
<svg version="1.1" xmlns="http://www.w3.org/2000/svg" width="32" height="32" viewBox="0 0 32 32">
<path d="M26.88 18.88c-0.16-0.16-1.6-0.8-1.6-0.8 0.32-0.16 0.48-0.16 0.48-0.64s0-0.64-0.32-0.64h-1.44c0 0 0 0 0 0-0.8-1.6-0.96-2.080-2.080-2.72-1.6-0.8-4.64-0.8-5.92-0.8s-4.32 0-5.92 0.8c-1.28 0.48-1.12 0.8-2.080 2.56 0 0 0 0 0 0h-1.28c-0.32 0-0.32 0.16-0.32 0.64s0.16 0.48 0.48 0.64c0 0-1.28 0.64-1.6 0.8-0.32 0.32-0.48 1.44-0.48 3.52s0.16 4.16 0.16 4.16h0.48c0 0.64 0.16 0.64 0.32 0.64h3.84c0.32 0 0.32-0.16 0.32-0.64h12c0 0.64 0.16 0.64 0.32 0.64h3.84c0.16 0 0.32-0.16 0.32-0.64h0.48c0 0 0.16-2.080 0.16-4.16s0-3.2-0.16-3.36zM9.92 20.8c-0.8 0.16-1.76 0.16-2.56 0.16-0.96 0-0.96 0-1.12-0.48 0-0.32 0-0.48 0-0.8v-0.16h0.16c0.64 0 1.12 0 2.080 0.32 0.48 0.16 0.96 0.32 1.44 0.64 0.32 0.16 0.32 0.32 0.32 0.32h-0.32zM21.44 23.84l-0.16 0.48h-10.56c0 0 0 0-0.16-0.48-0.16-0.32 0-0.64 0.48-0.64 0.64-0.32 2.88-0.96 5.12-0.96s4.32 0.64 5.12 0.96c0 0.16 0.32 0.16 0.16 0.64v0zM9.44 17.92c-0.16 0-0.32 0-0.48 0 0.16-0.16 0.16-0.48 0.32-0.64 0.32-0.8 0.8-1.6 1.6-1.92 1.12-0.48 3.36-0.8 5.12-0.8s4 0.16 5.12 0.8c0.8 0.32 1.12 1.12 1.6 1.92 0.16 0.16 0.16 0.48 0.32 0.64-0.16 0-0.16 0-0.48 0h-13.12zM25.6 20.32c-0.16 0.48 0 0.48-0.96 0.48-0.8 0-1.76 0-2.56-0.16-0.16 0-0.16-0.16 0-0.32 0.48-0.32 0.96-0.48 1.44-0.64 0.96-0.32 1.6-0.32 2.080-0.32 0 0 0 0 0.16 0 0 0 0 0 0 0.16 0 0.32 0 0.64-0.16 0.8v0z"></path>
<path d="M7.52 8.8c0.16 0.16 0.16 0.32 0 0.48-1.92 1.6-2.24 4.32-0.8 5.76 0.16 0.16 0.16 0.32 0 0.48s-0.32 0.16-0.48 0c-1.92-1.76-1.44-4.96 0.8-6.72 0.16-0.16 0.32-0.16 0.48 0z"></path>
<path d="M23.040 7.52c-0.16-0.16-0.32-0.16-0.64-0.16h-0.48v2.56h0.48c0.32 0 0.48 0 0.64-0.16s0.32-0.16 0.32-0.48c0.16-0.16 0.16-0.48 0.16-0.8s0-0.48-0.16-0.8c0 0.16-0.16 0-0.32-0.16z"></path>
<path d="M15.52 13.28h0.8c-0.16 0-0.32 0-0.48 0s-0.16 0-0.32 0z"></path>
<path d="M24.96 4.8c0 0-0.16 0-0.16 0h-16c-0.48 0-0.96 0.16-1.12 0.64l-1.92 2.72c-0.32 0.48-0.32 1.12 0 1.6l1.92 2.88c0.32 0.32 0.64 0.64 1.12 0.64 0.16-0.32 0.32-0.48 0.64-0.48v0c1.12-0.48 2.4-0.64 3.52-0.8 1.28-0.16 2.4-0.16 3.040-0.16s1.76 0 2.88 0.16c1.12 0.16 2.56 0.32 3.52 0.8v0c0.32 0.16 0.64 0.32 0.8 0.48h1.44c0.8 0 1.44-0.64 1.44-1.44v-6.4c0.16-0.64-0.32-0.64-1.12-0.64zM7.36 9.76c-0.32 0-0.64-0.32-0.64-0.64s0.32-0.64 0.64-0.64 0.64 0.16 0.64 0.48-0.32 0.8-0.64 0.8zM13.28 9.28c0 0.32 0 0.48-0.16 0.8-0.32 0.32-0.48 0.48-0.64 0.48-0.32 0.16-0.64 0.32-0.96 0.32s-0.64 0-0.96-0.16c-0.16-0.16-0.32-0.32-0.48-0.64-0.16-0.16-0.32-0.48-0.32-0.8v-2.56h0.8v2.56c0 0.16 0 0.32 0.16 0.48 0 0.16 0.16 0.16 0.32 0.32s0.32 0.16 0.48 0.16c0.16 0 0.32 0 0.48-0.16 0.16 0 0.16-0.16 0.32-0.32 0-0.16 0.16-0.32 0.16-0.48v-2.56h0.8v2.56zM16.8 10.24c-0.16 0.16-0.32 0.32-0.48 0.48-0.32 0-0.64 0.16-0.96 0.16s-0.64 0-0.8-0.16c-0.16-0.16-0.48-0.32-0.64-0.48 0-0.16-0.16-0.48-0.16-0.8h0.8c0 0.16 0 0.32 0.16 0.32 0 0.16 0.16 0.16 0.32 0.16s0.32 0 0.32 0 0.32 0 0.32 0 0.16-0.16 0.32-0.16c0 0 0.16-0.16 0.16-0.32s0-0.16-0.16-0.16c0 0-0.16-0.16-0.16-0.16-0.16 0-0.16-0.16-0.32-0.16h-0.48c-0.32 0-0.64-0.16-0.8-0.32-0.32-0.32-0.32-0.48-0.32-0.8s0-0.48 0.16-0.64c0.16-0.16 0.32-0.32 0.48-0.48s0.48-0.16 0.8-0.16c0.32 0 0.64 0 0.8 0.16s0.48 0.32 0.48 0.48 0.16 0.32 0.16 0.64h-0.8c0-0.16-0.16-0.32-0.16-0.32 0-0.16-0.16-0.16-0.48-0.16-0.16 0-0.32 0-0.32 0-0.16 0-0.16 0.16-0.16 0.16s0 0.16 0 0.16c0 0 0 0.16 0 0.16s0.16 0.16 0.16 0.16c0 0 0.16 0 0.16 0.16 0 0 0.16 0 0.32 0l0.32 0.16c0.16 0 0.32 0.16 0.48 0.16s0.32 0.16 0.32 0.32 0.16 0.16 0.32 0.32c0 0.16 0.16 0.32 0.16 0.48-0.16 0.16-0.16 0.48-0.32 0.64zM20.32 10.72h-2.72v-4h2.72v0.64h-1.92v0.96h1.76v0.64h-1.76v0.96h1.92v0.8zM24.16 9.76c-0.16 0.32-0.32 0.48-0.64 0.64s-0.64 0.32-1.12 0.32h-1.44v-4h1.44c0.48 0 0.8 0.16 1.12 0.32s0.48 0.32 0.64 0.64c0.16 0.32 0.32 0.64 0.32 1.12 0 0.32-0.16 0.64-0.32 0.96z"></path>
</svg>
