<!-- Generated by IcoMoon.io -->
<svg version="1.1" xmlns="http://www.w3.org/2000/svg" width="32" height="32" viewBox="0 0 32 32">
<path d="M28.535 25.485h-7.428c-0.146 0-0.265 0.119-0.265 0.265v1.592c0 0.146 0.119 0.265 0.265 0.265h7.428c0.146 0 0.265-0.119 0.265-0.265v-1.592c0-0.146-0.119-0.265-0.265-0.265zM11.474 16.412c-0.030-0.289-0.046-0.58-0.046-0.876 0-0.527 0.050-1.041 0.143-1.542 0.023-0.119-0.040-0.242-0.149-0.292-0.451-0.202-0.866-0.481-1.224-0.832-0.422-0.409-0.754-0.902-0.975-1.447s-0.326-1.129-0.308-1.717c0.030-1.064 0.458-2.076 1.204-2.839 0.819-0.839 1.92-1.297 3.091-1.283 1.058 0.010 2.079 0.418 2.852 1.141 0.262 0.245 0.488 0.517 0.676 0.809 0.066 0.103 0.196 0.146 0.308 0.106 0.584-0.202 1.2-0.345 1.834-0.411 0.186-0.020 0.292-0.219 0.209-0.385-1.078-2.132-3.28-3.605-5.826-3.644-3.678-0.056-6.742 2.958-6.742 6.629 0 2.082 0.958 3.939 2.461 5.156-1.054 0.487-2.026 1.161-2.868 2.003-1.817 1.814-2.845 4.208-2.912 6.765-0.001 0.036 0.005 0.071 0.018 0.104s0.032 0.063 0.057 0.088c0.025 0.025 0.054 0.045 0.087 0.059s0.068 0.021 0.103 0.021h1.86c0.143 0 0.262-0.113 0.265-0.255 0.063-1.923 0.842-3.724 2.212-5.090 0.975-0.975 2.169-1.652 3.472-1.98 0.129-0.033 0.216-0.156 0.199-0.288v0zM26.412 15.537c0-3.628-2.915-6.576-6.529-6.632-3.674-0.056-6.735 2.958-6.735 6.632 0 2.083 0.962 3.939 2.46 5.156-1.065 0.494-2.035 1.172-2.865 2.003-1.817 1.814-2.845 4.208-2.912 6.761-0.001 0.035 0.005 0.071 0.018 0.104s0.032 0.063 0.057 0.088c0.025 0.025 0.054 0.045 0.087 0.059s0.068 0.021 0.103 0.021h1.857c0.143 0 0.262-0.113 0.265-0.255 0.063-1.923 0.842-3.724 2.212-5.090 1.429-1.429 3.326-2.215 5.349-2.215 3.661 0 6.632-2.968 6.632-6.632zM22.781 18.537c-0.803 0.803-1.867 1.244-3.001 1.244s-2.199-0.441-3.001-1.244c-0.4-0.398-0.717-0.873-0.931-1.396s-0.32-1.083-0.313-1.648c0.010-1.088 0.444-2.139 1.204-2.918 0.796-0.816 1.86-1.27 2.998-1.283 1.124-0.010 2.215 0.428 3.018 1.214 0.822 0.806 1.273 1.884 1.273 3.031-0.003 1.134-0.444 2.199-1.247 3.001v0z"></path>
</svg>
