<!-- Generated by IcoMoon.io -->
<svg version="1.1" xmlns="http://www.w3.org/2000/svg" width="32" height="32" viewBox="0 0 32 32">
<title>user</title>
<path d="M26.436 24.092c-0.607-1.437-1.487-2.742-2.592-3.843-1.102-1.104-2.407-1.984-3.843-2.592-0.013-0.006-0.026-0.010-0.039-0.016 2.004-1.447 3.306-3.805 3.306-6.464 0-4.406-3.57-7.976-7.976-7.976s-7.976 3.57-7.976 7.976c0 2.66 1.303 5.017 3.306 6.468-0.013 0.007-0.026 0.010-0.039 0.016-1.441 0.608-2.734 1.479-3.843 2.592-1.104 1.102-1.984 2.407-2.592 3.843-0.597 1.406-0.919 2.914-0.949 4.441-0.001 0.034 0.005 0.068 0.018 0.1s0.031 0.061 0.055 0.086c0.024 0.024 0.053 0.044 0.084 0.057s0.066 0.020 0.1 0.020h1.93c0.142 0 0.254-0.113 0.257-0.251 0.064-2.483 1.061-4.808 2.824-6.57 1.824-1.824 4.245-2.827 6.825-2.827s5.001 1.004 6.825 2.827c1.762 1.762 2.759 4.088 2.824 6.57 0.003 0.142 0.116 0.251 0.257 0.251h1.93c0.034 0 0.068-0.007 0.1-0.020s0.060-0.033 0.084-0.057c0.024-0.025 0.043-0.054 0.055-0.086s0.019-0.066 0.018-0.1c-0.032-1.537-0.351-3.033-0.949-4.445v0zM15.293 16.708c-1.476 0-2.866-0.576-3.911-1.621s-1.621-2.435-1.621-3.911 0.576-2.866 1.621-3.911c1.045-1.045 2.435-1.621 3.911-1.621s2.866 0.576 3.911 1.621c1.045 1.045 1.621 2.435 1.621 3.911s-0.576 2.866-1.621 3.911c-1.045 1.045-2.435 1.621-3.911 1.621z"></path>
</svg>
