<!-- Generated by IcoMoon.io -->
<svg version="1.1" xmlns="http://www.w3.org/2000/svg" width="32" height="32" viewBox="0 0 32 32">
<title>user-delete</title>
<path d="M20.609 20.612c0.778-0.418 1.669-0.656 2.618-0.656h0.003c0.096 0 0.142-0.116 0.071-0.18-0.987-0.885-2.114-1.601-3.335-2.116-0.013-0.006-0.026-0.010-0.039-0.016 1.997-1.45 3.296-3.808 3.296-6.468 0-4.406-3.563-7.976-7.96-7.976s-7.957 3.57-7.957 7.976c0 2.66 1.299 5.017 3.3 6.468-0.013 0.007-0.026 0.010-0.039 0.016-1.438 0.608-2.727 1.479-3.837 2.592-1.103 1.101-1.981 2.406-2.586 3.843-0.595 1.407-0.915 2.914-0.946 4.441-0.001 0.034 0.005 0.068 0.018 0.1s0.031 0.061 0.055 0.086c0.024 0.024 0.053 0.044 0.084 0.057s0.066 0.020 0.1 0.020h1.926c0.138 0 0.254-0.113 0.257-0.251 0.064-2.483 1.058-4.808 2.817-6.57 1.817-1.824 4.236-2.827 6.808-2.827 1.824 0 3.573 0.505 5.081 1.451 0.039 0.024 0.083 0.038 0.129 0.040s0.091-0.009 0.132-0.030v0zM15.267 16.708c-1.473 0-2.859-0.576-3.904-1.621-0.514-0.513-0.922-1.123-1.2-1.794s-0.42-1.391-0.418-2.117c0-1.476 0.576-2.866 1.618-3.911s2.428-1.621 3.904-1.621c1.476 0 2.859 0.576 3.904 1.621 0.514 0.513 0.922 1.123 1.2 1.794s0.42 1.391 0.418 2.117c0 1.476-0.576 2.866-1.618 3.911-1.045 1.045-2.431 1.621-3.904 1.621zM27.096 24.362h-7.719c-0.141 0-0.257 0.116-0.257 0.257v1.801c0 0.141 0.116 0.257 0.257 0.257h7.719c0.142 0 0.257-0.116 0.257-0.257v-1.801c0-0.141-0.116-0.257-0.257-0.257z"></path>
</svg>
