<!-- Generated by IcoMoon.io -->
<svg version="1.1" xmlns="http://www.w3.org/2000/svg" width="32" height="32" viewBox="0 0 32 32">
<title>user-group-add</title>
<path d="M27.056 24.078h-2.485v-2.485c0-0.137-0.112-0.249-0.249-0.249h-1.491c-0.137 0-0.248 0.112-0.248 0.249v2.485h-2.485c-0.137 0-0.248 0.112-0.248 0.249v1.491c0 0.137 0.112 0.248 0.248 0.248h2.485v2.485c0 0.137 0.112 0.248 0.248 0.248h1.491c0.137 0 0.249-0.112 0.249-0.248v-2.485h2.485c0.137 0 0.248-0.112 0.248-0.248v-1.491c0-0.137-0.112-0.249-0.248-0.249zM10.948 15.578c-0.028-0.27-0.043-0.544-0.043-0.82 0-0.494 0.047-0.976 0.134-1.445 0.022-0.112-0.037-0.227-0.14-0.273-0.422-0.19-0.811-0.45-1.146-0.78-0.395-0.383-0.706-0.845-0.913-1.355s-0.305-1.058-0.289-1.609c0.028-0.997 0.429-1.945 1.128-2.659 0.767-0.786 1.799-1.215 2.895-1.202 0.991 0.009 1.948 0.391 2.672 1.069 0.245 0.23 0.457 0.485 0.634 0.758 0.062 0.096 0.183 0.137 0.289 0.099 0.547-0.189 1.125-0.323 1.718-0.385 0.174-0.019 0.273-0.205 0.196-0.36-1.010-1.998-3.073-3.377-5.459-3.414-3.442-0.053-6.313 2.771-6.313 6.213 0 1.951 0.898 3.691 2.305 4.831-0.988 0.457-1.898 1.087-2.687 1.877-1.702 1.699-2.666 3.942-2.728 6.338-0.001 0.033 0.005 0.066 0.017 0.097s0.030 0.059 0.053 0.083c0.023 0.024 0.051 0.043 0.081 0.055s0.063 0.020 0.097 0.020h1.743c0.134 0 0.245-0.106 0.249-0.239 0.059-1.802 0.789-3.489 2.072-4.769 0.913-0.913 2.032-1.547 3.253-1.855 0.118-0.034 0.199-0.149 0.183-0.273v0zM24.944 14.758c0-3.399-2.731-6.161-6.117-6.213-3.442-0.053-6.31 2.771-6.31 6.213 0 1.951 0.901 3.691 2.305 4.831-0.998 0.463-1.907 1.098-2.684 1.876-1.702 1.699-2.666 3.942-2.728 6.335-0.001 0.033 0.005 0.066 0.017 0.097s0.030 0.059 0.053 0.083c0.023 0.024 0.051 0.043 0.081 0.056s0.063 0.020 0.097 0.020h1.74c0.134 0 0.245-0.106 0.249-0.239 0.059-1.802 0.789-3.489 2.072-4.769 1.339-1.339 3.116-2.075 5.011-2.075 3.43 0 6.213-2.78 6.213-6.213zM21.542 17.569c-0.752 0.752-1.749 1.165-2.812 1.165s-2.060-0.413-2.812-1.165c-0.375-0.373-0.672-0.818-0.872-1.308s-0.3-1.015-0.293-1.544c0.009-1.019 0.416-2.004 1.128-2.734 0.746-0.764 1.743-1.19 2.808-1.202 1.053-0.009 2.075 0.401 2.827 1.137 0.77 0.755 1.193 1.765 1.193 2.84-0.003 1.063-0.416 2.060-1.168 2.812v0z"></path>
</svg>
