<!-- Generated by IcoMoon.io -->
<svg version="1.1" xmlns="http://www.w3.org/2000/svg" width="32" height="32" viewBox="0 0 32 32">
<title>verified</title>
<path d="M26.7 10.9c-0.1 0-0.2 0-0.3 0l-1 0.3-1-2.5c-0.3-0.7-1.2-1.3-1.9-1.3h-9.8c-0.8 0-1.7 0.6-1.9 1.3l-1 2.5-1-0.3c-0.1 0-0.2 0-0.3 0-0.5 0-0.8 0.4-0.8 0.9v0.6c0 0 0 0 0 0.1-0.4 0.3-0.8 0.6-1.2 0.9-1.2 1.2-1.9 2.9-1.9 4.7s0.7 3.4 1.9 4.7c1.2 1.2 2.9 1.9 4.7 1.9s3.4-0.7 4.7-1.9c0.7-0.7 1.3-1.6 1.6-2.5h6.1v1.3c0 0.6 0.5 1.1 1.1 1.1h1.4c0.6 0 1.1-0.5 1.1-1.1v-5.1c0-0.7-0.2-1.9-0.5-2.5l-0.2-0.4h0.1c0.6 0 1.1-0.5 1.1-1.1v-0.6c-0.2-0.6-0.5-1-1-1zM12 9.5c0.2-0.4 0.7-0.7 1.1-0.7h8.7c0.5 0 1.1 0.3 1.3 0.7l1.5 3.3c0.2 0.4-0.1 0.8-0.5 0.8h-8.1c-0.1-0.1-0.2-0.2-0.3-0.3-1.2-1.2-2.9-1.9-4.7-1.9 0 0 0 0 0 0l1-1.9zM11.1 22.6c-1.2 0-2.4-0.5-3.3-1.4s-1.4-2-1.4-3.3 0.5-2.4 1.4-3.3c0.9-0.9 2-1.4 3.3-1.4 1.2 0 2.4 0.5 3.3 1.4s1.4 2 1.4 3.3-0.5 2.4-1.4 3.3c-0.9 1-2.1 1.4-3.3 1.4zM24.9 17.7c0 0.1 0 0.2-0.1 0.3s-0.2 0.1-0.3 0.1h-3c-0.1 0-0.2 0-0.3-0.1s-0.1-0.2-0.1-0.3v-1.4c0-0.1 0-0.2 0.1-0.3s0.2-0.1 0.3-0.1h3c0.1 0 0.2 0 0.3 0.1s0.1 0.2 0.1 0.3v1.4z"></path>
<path d="M14.1 15.3c-0.4-0.3-0.9-0.2-1.2 0.2l-2.4 3.3-1.5-1.1c-0.4-0.3-0.9-0.2-1.2 0.2-0.1 0.1-0.1 0.2-0.1 0.3s0 0.2 0 0.3c0 0.1 0.1 0.2 0.1 0.3 0.1 0.2 0.2 0.2 0.3 0.3l2 1.4c0.2 0.1 0.4 0.2 0.6 0.2 0.3 0 0.7-0.2 0.9-0.4l2.8-3.8c0.2-0.4 0.1-0.9-0.3-1.2z"></path>
</svg>
