<!-- Generated by IcoMoon.io -->
<svg version="1.1" xmlns="http://www.w3.org/2000/svg" width="32" height="32" viewBox="0 0 32 32">
<title>vertical-right</title>
<path d="M8.989 3.488h-2.301c-0.158 0-0.288 0.129-0.288 0.288v24.736c0 0.158 0.129 0.288 0.288 0.288h2.301c0.158 0 0.288-0.129 0.288-0.288v-24.736c0-0.158-0.129-0.288-0.288-0.288zM24.952 6.091v-2.603c0-0.244-0.284-0.378-0.471-0.219l-15.169 12.731 15.169 12.731c0.187 0.158 0.471 0.025 0.471-0.219v-2.603c0-0.338-0.151-0.662-0.41-0.881l-10.758-9.028 10.758-9.028c0.259-0.219 0.41-0.543 0.41-0.881v0z"></path>
</svg>
