<!-- Generated by IcoMoon.io -->
<svg version="1.1" xmlns="http://www.w3.org/2000/svg" width="32" height="32" viewBox="0 0 32 32">
<title>vertical-align-top</title>
<path d="M29.392 3.2h-25.89c-0.167 0-0.301 0.134-0.301 0.298v2.233c0 0.164 0.134 0.298 0.301 0.298h25.89c0.167 0 0.301-0.134 0.301-0.298v-2.233c0-0.164-0.134-0.298-0.301-0.298zM16.681 10.158c-0.028-0.036-0.064-0.064-0.104-0.084s-0.085-0.030-0.13-0.030c-0.045 0-0.090 0.010-0.13 0.030s-0.076 0.049-0.104 0.084l-4.168 5.273c-0.034 0.044-0.056 0.097-0.062 0.152s0.004 0.111 0.028 0.161c0.024 0.050 0.063 0.092 0.11 0.122s0.102 0.045 0.158 0.045h2.75v12.592c0 0.164 0.134 0.298 0.298 0.298h2.233c0.164 0 0.298-0.134 0.298-0.298v-12.588h2.757c0.249 0 0.387-0.287 0.234-0.48l-4.167-5.276z"></path>
</svg>
