<!-- Generated by IcoMoon.io -->
<svg version="1.1" xmlns="http://www.w3.org/2000/svg" width="32" height="32" viewBox="0 0 32 32">
<path d="M26.458 14.831h-21.409c-0.138 0-0.249 0.111-0.249 0.246v1.846c0 0.135 0.111 0.246 0.249 0.246h21.409c0.139 0 0.249-0.111 0.249-0.246v-1.846c0-0.135-0.111-0.246-0.249-0.246zM15.578 12.532c0.089 0.114 0.262 0.114 0.348 0l3.102-3.923c0.114-0.145 0.012-0.36-0.175-0.36h-1.929v-4.803c0-0.135-0.111-0.246-0.246-0.246h-1.846c-0.135 0-0.246 0.111-0.246 0.246v4.8h-1.932c-0.185 0-0.289 0.215-0.175 0.36l3.102 3.926zM15.929 19.468c-0.021-0.027-0.047-0.048-0.077-0.063s-0.063-0.022-0.097-0.022-0.067 0.008-0.097 0.022c-0.030 0.015-0.056 0.036-0.077 0.063l-3.102 3.926c-0.026 0.033-0.042 0.072-0.046 0.114s0.003 0.084 0.021 0.121 0.047 0.069 0.082 0.091c0.035 0.022 0.076 0.034 0.118 0.034h1.929v4.8c0 0.135 0.111 0.246 0.246 0.246h1.846c0.135 0 0.246-0.111 0.246-0.246v-4.8h1.932c0.185 0 0.289-0.216 0.175-0.36l-3.101-3.926z"></path>
</svg>
