<!-- Generated by IcoMoon.io -->
<svg version="1.1" xmlns="http://www.w3.org/2000/svg" width="32" height="32" viewBox="0 0 32 32">
<path d="M24.665 3.487h-2.301c-0.158 0-0.288 0.129-0.288 0.288v24.737c0 0.158 0.129 0.288 0.288 0.288h2.301c0.158 0 0.288-0.129 0.288-0.288v-24.737c0-0.158-0.129-0.288-0.288-0.288zM6.4 3.487v2.603c0 0.342 0.151 0.662 0.41 0.881l10.758 9.028-10.758 9.028c-0.259 0.219-0.41 0.539-0.41 0.881v2.603c0 0.245 0.284 0.378 0.471 0.219l15.169-12.732-15.169-12.732c-0.042-0.035-0.093-0.058-0.147-0.066s-0.109 0.001-0.159 0.024c-0.050 0.023-0.092 0.060-0.121 0.106s-0.045 0.1-0.044 0.155v0z"></path>
</svg>
