<!-- Generated by IcoMoon.io -->
<svg version="1.1" xmlns="http://www.w3.org/2000/svg" width="32" height="32" viewBox="0 0 32 32">
<path d="M11.886 20.918h-3.314v-3.314c0-0.126-0.103-0.229-0.229-0.229h-1.371c-0.126 0-0.229 0.103-0.229 0.229v3.314h-3.314c-0.126 0-0.229 0.103-0.229 0.229v1.371c0 0.126 0.103 0.229 0.229 0.229h3.314v3.314c0 0.126 0.103 0.228 0.229 0.228h1.371c0.126 0 0.229-0.103 0.229-0.228v-3.314h3.314c0.126 0 0.229-0.103 0.229-0.229v-1.371c0-0.126-0.103-0.229-0.229-0.229z"></path>
<path d="M27.429 8.866l-3.657 2.106v-4.343c0-1.009-0.82-1.829-1.828-1.829h-16.914c-1.009 0-1.829 0.82-1.829 1.829v10.057h2.057v-9.829h16.457v16h-7.543v2.057h7.771c1.008 0 1.828-0.82 1.828-1.828v-4.343l3.657 2.106c0.608 0.351 1.371-0.089 1.371-0.789v-10.403c0-0.703-0.763-1.143-1.371-0.791zM26.743 18.086l-2.972-1.709v-3.037l2.972-1.711v6.457z"></path>
<path d="M10.513 10.504c0.126 0 0.229-0.103 0.229-0.229v-1.371c0-0.126-0.103-0.229-0.229-0.229h-3.2c-0.126 0-0.229 0.103-0.229 0.229v1.371c0 0.126 0.103 0.229 0.229 0.229h3.2z"></path>
</svg>
