<!-- Generated by IcoMoon.io -->
<svg version="1.1" xmlns="http://www.w3.org/2000/svg" width="32" height="32" viewBox="0 0 32 32">
<path d="M27.776 3.2h-23.552c-0.566 0-1.024 0.458-1.024 1.024v23.552c0 0.566 0.458 1.024 1.024 1.024h23.552c0.566 0 1.024-0.458 1.024-1.024v-23.552c0-0.566-0.458-1.024-1.024-1.024zM26.496 18.048h-9.984v-4.096h9.984v4.096zM26.496 26.496h-20.992v-20.992h20.992v6.4h-11.008c-0.566 0-1.024 0.458-1.024 1.024v6.144c0 0.566 0.458 1.024 1.024 1.024h11.008v6.4zM18.176 16c0 0.34 0.135 0.665 0.375 0.905s0.566 0.375 0.905 0.375c0.34 0 0.665-0.135 0.905-0.375s0.375-0.566 0.375-0.905c0-0.339-0.135-0.665-0.375-0.905s-0.566-0.375-0.905-0.375c-0.34 0-0.665 0.135-0.905 0.375s-0.375 0.566-0.375 0.905z"></path>
</svg>
