<!-- Generated by IcoMoon.io -->
<svg version="1.1" xmlns="http://www.w3.org/2000/svg" width="32" height="32" viewBox="0 0 32 32">
<path d="M14.629 21.942c0 0.364 0.144 0.712 0.402 0.97s0.606 0.402 0.97 0.402c0.364 0 0.712-0.144 0.97-0.402s0.402-0.606 0.402-0.97-0.144-0.712-0.402-0.97c-0.257-0.257-0.606-0.402-0.97-0.402s-0.713 0.144-0.97 0.402c-0.257 0.257-0.402 0.606-0.402 0.97v0zM15.086 13.257v5.257c0 0.126 0.103 0.229 0.229 0.229h1.371c0.126 0 0.229-0.103 0.229-0.229v-5.257c0-0.126-0.103-0.229-0.229-0.229h-1.371c-0.126 0-0.229 0.103-0.229 0.229zM28.676 25.827l-11.885-20.57c-0.177-0.306-0.483-0.457-0.791-0.457s-0.617 0.151-0.791 0.457l-11.885 20.57c-0.351 0.611 0.089 1.371 0.791 1.371h23.77c0.703 0 1.143-0.76 0.791-1.371zM6.292 25.030l9.708-16.805 9.708 16.805h-19.416z"></path>
</svg>
