<!-- Generated by IcoMoon.io -->
<svg version="1.1" xmlns="http://www.w3.org/2000/svg" width="32" height="32" viewBox="0 0 32 32">
<path d="M21.757 18.504c-0.311-0.16-1.863-0.92-2.151-1.023-0.288-0.109-0.5-0.16-0.708 0.16-0.212 0.317-0.812 1.023-1 1.237-0.183 0.211-0.369 0.237-0.68 0.080-1.851-0.926-3.066-1.651-4.286-3.746-0.323-0.557 0.323-0.517 0.926-1.72 0.103-0.211 0.051-0.391-0.029-0.551s-0.709-1.709-0.971-2.34c-0.254-0.614-0.517-0.529-0.709-0.54-0.183-0.011-0.391-0.011-0.603-0.011s-0.551 0.080-0.84 0.391c-0.289 0.317-1.103 1.080-1.103 2.629s1.129 3.048 1.283 3.26c0.16 0.211 2.22 3.388 5.383 4.757 2 0.863 2.783 0.937 3.783 0.789 0.608-0.091 1.863-0.76 2.123-1.5 0.26-0.737 0.26-1.368 0.183-1.5-0.077-0.14-0.288-0.22-0.6-0.371z"></path>
<path d="M27.806 11.040c-0.646-1.534-1.572-2.911-2.751-4.094-1.172-1.176-2.563-2.111-4.094-2.751-1.572-0.66-3.24-0.994-4.96-0.994h-0.057c-1.731 0.009-3.409 0.351-4.986 1.026-1.518 0.647-2.896 1.584-4.057 2.757-1.169 1.18-2.086 2.551-2.72 4.080-0.657 1.583-0.989 3.266-0.98 4.997 0.010 1.984 0.479 3.939 1.371 5.711v4.343c0 0.349 0.138 0.683 0.385 0.929s0.581 0.385 0.929 0.385h4.346c1.772 0.892 3.727 1.362 5.711 1.371h0.060c1.711 0 3.371-0.331 4.934-0.98 1.524-0.633 2.91-1.557 4.080-2.72 1.18-1.168 2.109-2.534 2.757-4.057 0.674-1.577 1.017-3.254 1.026-4.986 0.009-1.74-0.329-3.428-0.994-5.017zM23.488 23.554c-2.003 1.983-4.66 3.074-7.488 3.074h-0.049c-1.723-0.009-3.434-0.437-4.946-1.243l-0.24-0.129h-4.023v-4.023l-0.129-0.24c-0.806-1.511-1.234-3.223-1.243-4.946-0.011-2.849 1.077-5.523 3.074-7.537 1.994-2.014 4.66-3.129 7.508-3.14h0.049c1.428 0 2.814 0.277 4.12 0.826 1.274 0.534 2.417 1.303 3.4 2.286 0.98 0.98 1.752 2.126 2.286 3.4 0.554 1.32 0.831 2.72 0.826 4.166-0.017 2.846-1.134 5.511-3.146 7.506z"></path>
</svg>
