<!-- Generated by IcoMoon.io -->
<svg version="1.1" xmlns="http://www.w3.org/2000/svg" width="32" height="32" viewBox="0 0 32 32">
<path d="M22.024 19.156c-1.606-1.423-3.704-2.284-6.001-2.284s-4.395 0.861-6.004 2.286c-0.044 0.041-0.072 0.098-0.076 0.158s0.015 0.121 0.053 0.168l1.029 1.248c0.083 0.099 0.229 0.111 0.326 0.026 1.246-1.117 2.881-1.792 4.673-1.792s3.427 0.675 4.673 1.789c0.097 0.084 0.243 0.073 0.326-0.026l1.029-1.248c0.080-0.096 0.069-0.241-0.026-0.326zM25.38 15.081c-2.535-2.15-5.796-3.444-9.357-3.444s-6.822 1.295-9.359 3.444c-0.046 0.040-0.075 0.097-0.081 0.158s0.013 0.123 0.052 0.17l1.029 1.248c0.080 0.099 0.226 0.111 0.32 0.029 2.181-1.844 4.984-2.956 8.039-2.956s5.859 1.111 8.036 2.956c0.097 0.081 0.24 0.070 0.32-0.029l1.029-1.248c0.080-0.099 0.068-0.247-0.029-0.329v0zM28.715 11.037c-3.469-2.897-7.91-4.637-12.749-4.637-4.807 0-9.219 1.716-12.68 4.579-0.024 0.019-0.043 0.044-0.058 0.071s-0.023 0.057-0.026 0.088c-0.003 0.031 0 0.062 0.009 0.092s0.024 0.057 0.044 0.081l1.029 1.248c0.080 0.096 0.223 0.111 0.317 0.032 3.106-2.563 7.059-4.096 11.366-4.096 4.338 0 8.316 1.556 11.431 4.151 0.097 0.081 0.24 0.067 0.32-0.032l1.029-1.248c0.083-0.099 0.069-0.247-0.032-0.329zM14.165 23.738c0 0.494 0.193 0.967 0.536 1.316s0.808 0.545 1.293 0.545c0.485 0 0.95-0.196 1.293-0.545s0.536-0.823 0.536-1.316c0-0.494-0.193-0.967-0.536-1.317s-0.808-0.545-1.293-0.545c-0.485 0-0.95 0.196-1.293 0.545s-0.536 0.823-0.536 1.317z"></path>
</svg>
