<!-- Generated by IcoMoon.io -->
<svg version="1.1" xmlns="http://www.w3.org/2000/svg" width="32" height="32" viewBox="0 0 32 32">
<path d="M28.8 15.603c0-0.063 0-0.134-0.003-0.217-0.003-0.231-0.008-0.491-0.014-0.769-0.023-0.797-0.063-1.591-0.126-2.34-0.086-1.031-0.211-1.891-0.383-2.537-0.181-0.674-0.536-1.288-1.028-1.782s-1.107-0.85-1.78-1.032c-0.809-0.217-2.392-0.351-4.62-0.434-1.060-0.040-2.194-0.066-3.329-0.080-0.397-0.006-0.766-0.009-1.097-0.011h-0.84c-0.331 0.003-0.7 0.006-1.097 0.011-1.134 0.014-2.269 0.040-3.329 0.080-2.229 0.086-3.814 0.22-4.62 0.434-0.674 0.182-1.288 0.538-1.781 1.031s-0.847 1.109-1.028 1.783c-0.174 0.646-0.297 1.506-0.383 2.537-0.063 0.749-0.103 1.543-0.126 2.34-0.009 0.277-0.011 0.537-0.014 0.769 0 0.083-0.003 0.154-0.003 0.217v0.16c0 0.063 0 0.134 0.003 0.217 0.003 0.231 0.009 0.491 0.014 0.769 0.023 0.797 0.063 1.591 0.126 2.34 0.086 1.031 0.211 1.891 0.383 2.537 0.366 1.368 1.44 2.448 2.809 2.814 0.806 0.217 2.391 0.351 4.62 0.434 1.060 0.040 2.194 0.066 3.329 0.080 0.397 0.006 0.766 0.009 1.097 0.012h0.84c0.331-0.003 0.7-0.006 1.097-0.012 1.134-0.014 2.269-0.040 3.329-0.080 2.228-0.086 3.814-0.22 4.62-0.434 1.368-0.366 2.443-1.443 2.808-2.814 0.174-0.646 0.297-1.506 0.383-2.537 0.063-0.749 0.103-1.543 0.126-2.34 0.008-0.277 0.011-0.537 0.014-0.769 0-0.083 0.003-0.154 0.003-0.217v-0.16zM26.743 15.751c0 0.060 0 0.126-0.003 0.203-0.003 0.223-0.009 0.469-0.014 0.734-0.020 0.76-0.060 1.52-0.12 2.226-0.077 0.92-0.186 1.674-0.32 2.18-0.177 0.66-0.697 1.183-1.354 1.357-0.6 0.16-2.111 0.289-4.166 0.366-1.040 0.040-2.16 0.066-3.277 0.080-0.392 0.006-0.754 0.009-1.080 0.009h-0.817l-1.080-0.009c-1.117-0.014-2.234-0.040-3.277-0.080-2.054-0.080-3.569-0.206-4.166-0.366-0.657-0.177-1.177-0.697-1.354-1.357-0.134-0.506-0.243-1.26-0.32-2.18-0.060-0.706-0.097-1.466-0.12-2.226-0.009-0.266-0.011-0.514-0.014-0.734 0-0.077-0.003-0.146-0.003-0.203v-0.137c0-0.060 0-0.126 0.003-0.203 0.003-0.223 0.009-0.469 0.014-0.734 0.020-0.76 0.060-1.52 0.12-2.226 0.077-0.92 0.186-1.674 0.32-2.18 0.177-0.66 0.697-1.183 1.354-1.357 0.6-0.16 2.111-0.289 4.166-0.366 1.040-0.040 2.16-0.066 3.277-0.080 0.391-0.006 0.754-0.009 1.080-0.009h0.817l1.080 0.009c1.117 0.014 2.234 0.040 3.277 0.080 2.054 0.080 3.568 0.206 4.166 0.366 0.657 0.177 1.177 0.697 1.354 1.357 0.134 0.506 0.243 1.26 0.32 2.18 0.060 0.706 0.097 1.466 0.12 2.226 0.008 0.266 0.011 0.514 0.014 0.734 0 0.077 0.003 0.146 0.003 0.203v0.137zM13.457 19.511l6.629-3.857-6.629-3.8v7.657z"></path>
</svg>
