<svg width="20" height="20" viewBox="0 0 20 20" fill="none" xmlns="http://www.w3.org/2000/svg">
<path fill-rule="evenodd" clip-rule="evenodd" d="M15.6567 4.34302C18.7809 7.46722 18.7809 12.5325 15.6567 15.6567C12.5325 18.7809 7.46722 18.7809 4.34302 15.6567C1.21883 12.5325 1.21883 7.46722 4.34302 4.34302C7.46722 1.21883 12.5325 1.21883 15.6567 4.34302ZM4.47446 9.99988C4.47446 9.44759 4.92218 8.99988 5.47446 8.99988L8.99995 8.99988V5.47439C8.99995 4.92211 9.44766 4.47439 9.99995 4.47439C10.5522 4.47439 10.9999 4.92211 10.9999 5.47439L10.9999 8.99988H14.5254C15.0777 8.99988 15.5254 9.44759 15.5254 9.99988C15.5254 10.5522 15.0777 10.9999 14.5254 10.9999H10.9999L10.9999 14.5254C10.9999 15.0776 10.5522 15.5254 9.99995 15.5254C9.44766 15.5254 8.99995 15.0776 8.99995 14.5254V10.9999L5.47446 10.9999C4.92218 10.9999 4.47446 10.5522 4.47446 9.99988Z" fill="black"/>
</svg>
