<?xml version="1.0" encoding="utf-8"?>
<!-- Generator: Adobe Illustrator 28.1.0, SVG Export Plug-In . SVG Version: 6.00 Build 0)  -->
<svg version="1.1" id="Layer_1" xmlns="http://www.w3.org/2000/svg" xmlns:xlink="http://www.w3.org/1999/xlink" x="0px" y="0px"
	 viewBox="0 0 24 24" style="enable-background:new 0 0 24 24;" xml:space="preserve">
<g>
	<path d="M17,23c-3.3,0-6-2.7-6-6s2.7-6,6-6s6,2.7,6,6S20.3,23,17,23z M17,12.5c-2.5,0-4.6,2.1-4.6,4.6s2.1,4.6,4.6,4.6
		s4.6-2.1,4.6-4.6S19.6,12.5,17,12.5z"/>
	<path d="M17,20.2c-0.2,0-0.4-0.1-0.5-0.2c-0.1-0.1-0.2-0.3-0.2-0.5v-5c0-0.2,0.1-0.4,0.2-0.5c0.1-0.1,0.3-0.2,0.5-0.2
		s0.4,0.1,0.5,0.2c0.1,0.1,0.2,0.3,0.2,0.5v5c0,0.2-0.1,0.4-0.2,0.5C17.4,20.2,17.2,20.2,17,20.2z"/>
	<path d="M19.6,17.7h-5c-0.2,0-0.4-0.1-0.5-0.2c-0.1-0.1-0.2-0.3-0.2-0.5s0.1-0.4,0.2-0.5c0.1-0.1,0.3-0.2,0.5-0.2h5
		c0.2,0,0.4,0.1,0.5,0.2c0.1,0.1,0.2,0.3,0.2,0.5s-0.1,0.4-0.2,0.5C19.9,17.7,19.7,17.7,19.6,17.7z M9.4,20.2H3.5
		c-0.7,0-1.3-0.3-1.8-0.7C1.3,19,1,18.4,1,17.7V3.5c0-0.7,0.3-1.3,0.7-1.8C2.2,1.3,2.9,1,3.5,1h10.5c0.7,0,1.3,0.3,1.8,0.7
		c0.5,0.5,0.7,1.1,0.7,1.8v5.6c0,0.2-0.1,0.4-0.2,0.5c-0.1,0.1-0.3,0.2-0.5,0.2c-0.2,0-0.4-0.1-0.5-0.2c-0.1-0.1-0.2-0.3-0.2-0.5
		V3.5c0-0.6-0.5-1.1-1.1-1.1H3.5c-0.6,0-1.1,0.5-1.1,1.1v14.2c0,0.6,0.5,1.1,1.1,1.1h5.9c0.2,0,0.4,0.1,0.5,0.2
		c0.1,0.1,0.2,0.3,0.2,0.5S10,19.9,9.9,20C9.8,20.2,9.6,20.2,9.4,20.2z"/>
	<path d="M13.1,9.7H4.4C4.3,9.7,4.1,9.6,4,9.5C3.8,9.4,3.8,9.2,3.8,9S3.8,8.7,4,8.5c0.1-0.1,0.3-0.2,0.5-0.2h8.7
		c0.2,0,0.4,0.1,0.5,0.2c0.1,0.1,0.2,0.3,0.2,0.5s-0.1,0.4-0.2,0.5C13.5,9.6,13.3,9.7,13.1,9.7z M9.5,13.4h-5
		c-0.2,0-0.4-0.1-0.5-0.2c-0.1-0.1-0.2-0.3-0.2-0.5s0.1-0.4,0.2-0.5C4.1,12.1,4.3,12,4.4,12h5c0.2,0,0.4,0.1,0.5,0.2
		c0.1,0.1,0.2,0.3,0.2,0.5S10.1,13,10,13.2C9.8,13.3,9.7,13.4,9.5,13.4z M8.6,6H4.4C4.3,6,4.1,6,4,5.8S3.8,5.5,3.8,5.4S3.8,5,4,4.9
		c0.1-0.1,0.3-0.2,0.5-0.2h4.1c0.2,0,0.4,0.1,0.5,0.2C9.2,5,9.2,5.2,9.2,5.4S9.2,5.7,9,5.8C8.9,6,8.7,6,8.6,6z"/>
</g>
</svg>
