<svg width="20" height="20" viewBox="0 0 20 20" fill="none" xmlns="http://www.w3.org/2000/svg">
<path d="M18.1818 6.90906H1.81818C1.60119 6.90906 1.39308 6.99526 1.23964 7.1487C1.0862 7.30214 1 7.51024 1 7.72724V16.7272C1.00043 17.1611 1.17297 17.5771 1.47976 17.8838C1.78654 18.1906 2.20251 18.3632 2.63636 18.3636H17.3636C17.7974 18.363 18.2133 18.1903 18.52 17.8836C18.8267 17.5769 18.9994 17.161 19 16.7272V7.72724C19 7.51024 18.9138 7.30214 18.7604 7.1487C18.6069 6.99526 18.3988 6.90906 18.1818 6.90906ZM13.8512 11.0327L9.48782 15.3969C9.41183 15.4729 9.3216 15.5333 9.22227 15.5745C9.12294 15.6156 9.01648 15.6368 8.90895 15.6368C8.80143 15.6368 8.69497 15.6156 8.59564 15.5745C8.49631 15.5333 8.40608 15.4729 8.33009 15.3969L6.14882 13.2148C5.99978 13.0605 5.91731 12.8538 5.91918 12.6393C5.92104 12.4248 6.00709 12.2195 6.15878 12.0678C6.31048 11.9161 6.51569 11.8301 6.73022 11.8282C6.94474 11.8264 7.15142 11.9088 7.30573 12.0579L8.90936 13.6615L12.6943 9.87579C12.8486 9.72675 13.0553 9.64428 13.2698 9.64614C13.4843 9.64801 13.6895 9.73405 13.8412 9.88575C13.9929 10.0374 14.079 10.2427 14.0808 10.4572C14.0827 10.6717 14.0002 10.8784 13.8512 11.0327Z" fill="black"/>
<path d="M18.1818 8.54527H1.81818C1.60119 8.54527 1.39308 8.45906 1.23964 8.30563C1.0862 8.15219 1 7.94408 1 7.72708V4.45436C1.00043 4.0205 1.17297 3.60454 1.47976 3.29775C1.78654 2.99097 2.20251 2.81843 2.63636 2.81799H17.3636C17.7974 2.81864 18.2133 2.99125 18.52 3.29799C18.8267 3.60473 18.9994 4.02057 19 4.45436V7.72708C19 7.94408 18.9138 8.15219 18.7604 8.30563C18.6069 8.45906 18.3988 8.54527 18.1818 8.54527ZM2.63636 6.9089H17.3636V4.45436H2.63636V6.9089Z" fill="black"/>
<path d="M11.7726 6.09091C11.5556 6.09091 11.3475 6.00471 11.1941 5.85127C11.0407 5.69783 10.9545 5.48972 10.9545 5.27273V2.81818C10.9545 2.60119 11.0407 2.39308 11.1941 2.23964C11.3475 2.0862 11.5556 2 11.7726 2C11.9896 2 12.1977 2.0862 12.3512 2.23964C12.5046 2.39308 12.5908 2.60119 12.5908 2.81818V5.27273C12.5908 5.48972 12.5046 5.69783 12.3512 5.85127C12.1977 6.00471 11.9896 6.09091 11.7726 6.09091ZM8.22746 6.09091C8.01047 6.09091 7.80236 6.00471 7.64892 5.85127C7.49548 5.69783 7.40928 5.48972 7.40928 5.27273V2.81818C7.40928 2.60119 7.49548 2.39308 7.64892 2.23964C7.80236 2.0862 8.01047 2 8.22746 2C8.44446 2 8.65257 2.0862 8.80601 2.23964C8.95944 2.39308 9.04564 2.60119 9.04564 2.81818V5.27273C9.04564 5.48972 8.95944 5.69783 8.80601 5.85127C8.65257 6.00471 8.44446 6.09091 8.22746 6.09091ZM4.68146 6.09091C4.46447 6.09091 4.25636 6.00471 4.10292 5.85127C3.94948 5.69783 3.86328 5.48972 3.86328 5.27273V2.81818C3.86328 2.60119 3.94948 2.39308 4.10292 2.23964C4.25636 2.0862 4.46447 2 4.68146 2C4.89846 2 5.10657 2.0862 5.26 2.23964C5.41344 2.39308 5.49964 2.60119 5.49964 2.81818V5.27273C5.49964 5.48972 5.41344 5.69783 5.26 5.85127C5.10657 6.00471 4.89846 6.09091 4.68146 6.09091ZM15.3178 6.09091C15.1008 6.09091 14.8927 6.00471 14.7393 5.85127C14.5858 5.69783 14.4996 5.48972 14.4996 5.27273V2.81818C14.4996 2.60119 14.5858 2.39308 14.7393 2.23964C14.8927 2.0862 15.1008 2 15.3178 2C15.5348 2 15.7429 2.0862 15.8964 2.23964C16.0498 2.39308 16.136 2.60119 16.136 2.81818V5.27273C16.136 5.48972 16.0498 5.69783 15.8964 5.85127C15.7429 6.00471 15.5348 6.09091 15.3178 6.09091Z" fill="black"/>
</svg>
