<svg width="20" height="20" viewBox="0 0 20 20" fill="none" xmlns="http://www.w3.org/2000/svg">
<path d="M12.0742 17.9449H11.4935C11.2485 16.7425 10.1834 15.8348 8.91016 15.8348H4.69142C3.41821 15.8348 2.35308 16.7425 2.10808 17.9449H1.52737C1.23589 17.9449 1.00003 18.1809 1.00003 18.4724C1.00003 18.764 1.23589 19 1.52737 19H12.0742C12.3657 19 12.6016 18.764 12.6016 18.4724C12.6016 18.1809 12.3657 17.9449 12.0742 17.9449ZM14.7329 5.78524L10.2583 1.30905C9.84633 0.896982 9.17854 0.896982 8.76669 1.30905C8.35483 1.72105 8.35483 2.38908 8.76669 2.80111L13.2414 7.27734C13.6532 7.68934 14.321 7.68934 14.7329 7.27734C15.1448 6.86527 15.1448 6.19731 14.7329 5.78524ZM7.27515 13.2457L2.80048 8.7694C2.38862 8.3574 1.72083 8.3574 1.30894 8.7694C0.897019 9.1814 0.897019 9.84943 1.30894 10.2615L5.78358 14.7377C6.19551 15.1497 6.86323 15.1497 7.27515 14.7377C7.68701 14.3257 7.68701 13.6577 7.27515 13.2457ZM3.546 8.0234L8.02064 3.54725L12.4952 8.0234L8.02064 12.4996L3.546 8.0234ZM18.5367 16.2984L17.7863 15.4837L15.549 17.7219L16.2993 18.5365C16.9171 19.1545 17.9188 19.1545 18.5367 18.5365C19.1545 17.9184 19.1545 16.9164 18.5367 16.2984ZM13.4999 11.2662C13.5888 10.9172 13.5144 10.5346 13.2414 10.2615C12.8294 9.84943 12.1616 9.84943 11.7498 10.2615L10.2583 11.7536C9.84633 12.1656 9.84633 12.8336 10.2583 13.2457C10.5313 13.5188 10.9138 13.5933 11.2626 13.5043L14.8032 16.9758L17.0405 14.7377L13.4999 11.2662Z" fill="black"/>
</svg>
