<svg width="24" height="24" viewBox="0 0 24 24" fill="none" xmlns="http://www.w3.org/2000/svg">
<path d="M15.1732 4.06706C15.1732 4.41611 14.8876 4.7017 14.5385 4.7017H9.46142C9.11237 4.7017 8.82678 4.41611 8.82678 4.06706V3.11511C8.82678 2.76606 9.11237 2.48047 9.46142 2.48047H14.5385C14.8876 2.48047 15.1732 2.76606 15.1732 3.11511V4.06706Z" fill="#1C1B1F"/>
<path d="M17.0771 3.74969H6.9229C6.2248 3.74969 5.65363 4.32087 5.65363 5.01897V20.2503C5.65363 20.9484 6.2248 21.5195 6.9229 21.5195H17.0771C17.7752 21.5195 18.3464 20.9484 18.3464 20.2503V5.01897C18.3464 4.32087 17.7752 3.74969 17.0771 3.74969ZM17.0771 18.6637C17.0771 18.8223 16.9184 18.981 16.7598 18.981H7.24022C7.08156 18.981 6.9229 18.8223 6.9229 18.6637V6.60556C6.9229 6.4469 7.08156 6.28824 7.24022 6.28824H16.7598C16.9184 6.28824 17.0771 6.4469 17.0771 6.60556V18.6637Z" fill="#1C1B1F"/>
<path d="M16.4425 9.46153C16.4425 9.81058 16.1569 10.0962 15.8078 10.0962H8.19219C7.84314 10.0962 7.55756 9.81058 7.55756 9.46153V8.19225C7.55756 7.8432 7.84314 7.55762 8.19219 7.55762H15.8078C16.1569 7.55762 16.4425 7.8432 16.4425 8.19225V9.46153ZM16.4425 13.2694C16.4425 13.6184 16.1569 13.904 15.8078 13.904H8.19219C7.84314 13.904 7.55756 13.6184 7.55756 13.2694V12.0001C7.55756 11.651 7.84314 11.3654 8.19219 11.3654H15.8078C16.1569 11.3654 16.4425 11.651 16.4425 12.0001V13.2694ZM16.4425 17.0772C16.4425 17.4262 16.1569 17.7118 15.8078 17.7118H8.19219C7.84314 17.7118 7.55756 17.4262 7.55756 17.0772V15.8079C7.55756 15.4589 7.84314 15.1733 8.19219 15.1733H15.8078C16.1569 15.1733 16.4425 15.4589 16.4425 15.8079V17.0772Z" fill="#1C1B1F"/>
</svg>
