<svg width="20" height="20" viewBox="0 0 20 20" fill="none" xmlns="http://www.w3.org/2000/svg">
<path d="M5.83066 14.5052C5.83066 14.6066 5.79036 14.7039 5.71862 14.7757C5.64688 14.8474 5.54959 14.8877 5.44814 14.8877H4.57713C4.36585 14.8877 4.19461 14.7164 4.19461 14.5052C4.19461 14.2939 4.36585 14.1226 4.57713 14.1226H5.44814C5.54959 14.1226 5.64688 14.1629 5.71862 14.2347C5.79036 14.3064 5.83066 14.4037 5.83066 14.5052ZM4.66685 10.7629L1.11203 7.20791C1.0403 7.13616 1 7.03886 1 6.9374C1 6.83594 1.0403 6.73864 1.11203 6.66689L4.6669 3.11202C4.73864 3.04029 4.83593 3 4.93738 3C5.03883 3 5.13613 3.04029 5.20787 3.11202L8.76278 6.66689C8.83451 6.73863 8.87482 6.83593 8.87482 6.93738V10.4923C8.87482 10.5938 8.83452 10.6911 8.76278 10.7628C8.69104 10.8346 8.59375 10.8749 8.4923 10.8749H4.93738C4.83592 10.8749 4.73862 10.8346 4.66685 10.7629ZM1.92348 6.93742L5.09579 10.1099H8.10973V7.09587L4.93734 3.92352L1.92348 6.93742ZM9.16154 12.6141H9.59175C9.80303 12.6141 9.97427 12.4429 9.97427 12.2316C9.97427 12.0203 9.80303 11.8491 9.59175 11.8491H9.16154C8.95026 11.8491 8.77902 12.0203 8.77902 12.2316C8.77902 12.4429 8.95026 12.6141 9.16154 12.6141ZM6.84626 9.25385C7.05754 9.25385 7.22878 9.08261 7.22878 8.87133C7.22878 8.66005 7.05754 8.48881 6.84626 8.48881H6.84485C6.63357 8.48881 6.46301 8.66005 6.46301 8.87133C6.46301 9.08261 6.63502 9.25385 6.84626 9.25385ZM13.7835 15.3906C13.7835 15.492 13.7432 15.5893 13.6714 15.6611C13.5997 15.7328 13.5024 15.7731 13.401 15.7731H11.1924C11.0165 16.5851 10.2925 17.1951 9.42863 17.1951C8.54275 17.1951 7.80392 16.5535 7.65249 15.7105C7.34592 15.6134 7.09303 15.4088 6.95727 15.1358C6.88987 15.0019 6.85479 14.8541 6.85484 14.7043V12.1535C6.85484 11.9423 7.02609 11.771 7.23737 11.771C7.44865 11.771 7.61989 11.9423 7.61989 12.1535V14.7043C7.61989 14.7348 7.62733 14.7652 7.64203 14.7947C7.65512 14.8209 7.67455 14.8475 7.69984 14.8727C7.92297 14.1294 8.61356 13.5862 9.42858 13.5862C10.2924 13.5862 11.0164 14.1963 11.1923 15.0081H13.4009C13.4512 15.0081 13.5009 15.0179 13.5473 15.0372C13.5937 15.0564 13.6359 15.0846 13.6714 15.1201C13.707 15.1556 13.7351 15.1978 13.7544 15.2442C13.7736 15.2906 13.7835 15.3403 13.7835 15.3906ZM10.4681 15.3906C10.4681 14.8175 10.0018 14.3512 9.42863 14.3512C8.85829 14.3512 8.39377 14.8129 8.38918 15.3821C8.38927 15.3868 8.38923 15.3916 8.38918 15.3964C8.39229 15.9669 8.85739 16.4301 9.42863 16.4301C10.0018 16.4301 10.4681 15.9638 10.4681 15.3906ZM18.9984 13.8814L18.9973 14.1341C18.9965 14.2949 18.9957 14.4783 18.9957 14.7042C18.9957 15.1617 18.6666 15.5577 18.2028 15.7084C18.0522 16.5523 17.3129 17.1951 16.4263 17.1951C15.4313 17.1951 14.6218 16.3856 14.6218 15.3906C14.6218 14.3956 15.4313 13.5861 16.4263 13.5861C17.2402 13.5861 17.9299 14.1277 18.1541 14.8694C18.202 14.8208 18.2306 14.7635 18.2306 14.7042C18.2306 14.4768 18.2315 14.2922 18.2323 14.1304L18.2334 13.878C18.2348 13.5586 18.2366 13.1612 18.2322 12.9677C18.229 12.828 18.2253 12.7134 18.2154 12.6142H12.3307C12.1935 12.6142 11.8719 12.6142 10.8881 11.6419C10.5884 11.3457 9.99251 10.7153 9.88285 10.4498C9.84464 10.3569 9.84456 10.2526 9.88262 10.1596C9.92068 10.0666 9.99382 9.99224 10.0862 9.95272C10.1786 9.91319 10.2829 9.91162 10.3764 9.94835C10.47 9.98508 10.5453 10.0572 10.5862 10.149C10.6382 10.2422 10.9493 10.6238 11.4002 11.0723C11.968 11.6372 12.2698 11.8202 12.352 11.8492H17.7856C17.6625 11.7312 17.5047 11.5914 17.302 11.4118C17.1857 11.3089 17.0697 11.2057 16.954 11.1021C16.8615 11.0191 16.7692 10.931 16.6801 10.8457C16.55 10.7214 16.4154 10.5929 16.2754 10.4756C16.158 10.3772 16.0408 10.2786 15.9237 10.1799C14.504 8.9846 14.1225 8.66328 12.9252 8.66328H10.2845C10.0732 8.66328 9.90194 8.49204 9.90194 8.28076C9.90194 8.06948 10.0732 7.89823 10.2845 7.89823H12.9252C14.4016 7.89823 14.9914 8.39488 16.4164 9.59472C16.5271 9.68797 16.6436 9.78603 16.7666 9.88905C16.9259 10.0224 17.0696 10.1598 17.2086 10.2926C17.2974 10.3774 17.3813 10.4576 17.465 10.5326C17.5907 10.6454 17.7051 10.7468 17.8094 10.8392C18.7262 11.6515 18.9726 11.8698 18.9971 12.9504C19.0016 13.1542 18.9999 13.5574 18.9984 13.8814ZM17.4657 15.3867C17.4635 14.8154 16.9981 14.3512 16.4263 14.3512C15.8531 14.3512 15.3868 14.8175 15.3868 15.3906C15.3868 15.9638 15.8531 16.4301 16.4263 16.4301C16.9991 16.4301 17.4652 15.9642 17.4657 15.3914V15.3867ZM16.4267 15.0081H16.4258C16.2145 15.0081 16.0438 15.1793 16.0438 15.3906C16.0438 15.6019 16.2155 15.7731 16.4268 15.7731C16.638 15.7731 16.8093 15.6019 16.8093 15.3906C16.8093 15.1793 16.638 15.0081 16.4267 15.0081ZM5.44814 12.7488H3.50029C3.28901 12.7488 3.11776 12.92 3.11776 13.1313C3.11776 13.3426 3.28901 13.5138 3.50029 13.5138H5.44814C5.65942 13.5138 5.83066 13.3426 5.83066 13.1313C5.83066 12.92 5.65942 12.7488 5.44814 12.7488ZM9.42914 15.0081H9.42816C9.21688 15.0081 9.04615 15.1793 9.04615 15.3906C9.04615 15.6019 9.2179 15.7731 9.42918 15.7731C9.64046 15.7731 9.8117 15.6019 9.8117 15.3906C9.8117 15.1793 9.64042 15.0081 9.42914 15.0081Z" fill="black"/>
</svg>
