<svg width="20" height="20" viewBox="0 0 20 20" fill="none" xmlns="http://www.w3.org/2000/svg">
<path d="M14.125 5.75C14.125 3.68375 12.4413 2 10.375 2C8.30875 2 6.625 3.68375 6.625 5.75C6.625 7.81625 8.30875 9.5 10.375 9.5C12.4413 9.5 14.125 7.81625 14.125 5.75ZM10 7.7825V7.55C9.7525 7.46 9.535 7.295 9.4 7.0625C9.295 6.8825 9.35875 6.65375 9.535 6.54875C9.715 6.44375 9.94375 6.5075 10.0487 6.68375C10.1162 6.80375 10.24 6.875 10.375 6.875C10.5813 6.875 10.75 6.70625 10.75 6.5C10.75 6.29375 10.5813 6.125 10.375 6.125C9.75625 6.125 9.25 5.61875 9.25 5C9.25 4.5125 9.565 4.1 10 3.9425V3.7175C10 3.51125 10.1688 3.3425 10.375 3.3425C10.5813 3.3425 10.75 3.51125 10.75 3.7175V3.94625C10.9975 4.03625 11.215 4.20125 11.35 4.43375C11.455 4.61375 11.3913 4.8425 11.215 4.9475C11.035 5.0525 10.8063 4.98875 10.7013 4.8125C10.6596 4.74142 10.5957 4.68598 10.5195 4.65468C10.4432 4.62339 10.3588 4.61797 10.2792 4.63926C10.1996 4.66054 10.1292 4.70736 10.0788 4.77252C10.0283 4.83768 10.0007 4.9176 10 5C10 5.20625 10.1688 5.375 10.375 5.375C10.9938 5.375 11.5 5.88125 11.5 6.5C11.5 6.9875 11.185 7.4 10.75 7.5575V7.7825C10.75 7.98875 10.5813 8.1575 10.375 8.1575C10.1688 8.1575 10 7.98875 10 7.7825Z" fill="black"/>
<path d="M14.3438 7.33313L13.8125 8.25328C13.7262 8.40275 13.7774 8.59387 13.9269 8.68017L16.3085 10.0552C16.4579 10.1415 16.649 10.0903 16.7353 9.94078L17.2666 9.02063C17.3529 8.87117 17.3017 8.68004 17.1522 8.59375L14.7706 7.21875C14.6212 7.13246 14.43 7.18367 14.3438 7.33313Z" fill="black"/>
<path d="M15.652 18.5C16.4804 18.5 17.152 17.8284 17.152 17C17.152 16.1716 16.4804 15.5 15.652 15.5C14.8236 15.5 14.152 16.1716 14.152 17C14.152 17.8284 14.8236 18.5 15.652 18.5Z" fill="black"/>
<path d="M17.8187 13.9099C17.0705 13.622 16.2989 13.3987 15.5125 13.2424C15.1263 13.1637 14.7888 13.0212 14.5075 12.8187C13.9338 12.3912 13.1875 11.9712 12.2425 11.5437C11.785 11.3262 11.3312 11.1874 10.8962 11.1312C10.315 11.0487 9.75625 11.0074 9.19375 11.0037C8.72875 10.9962 8.2525 11.0149 7.76875 11.0562C7 11.1349 6.235 11.3937 5.55625 11.8062L4.0075 12.7287C3.7675 12.8712 3.53875 12.9724 3.29875 13.0399L2.08 13.3999C1.6975 13.5087 1.435 13.8499 1.40875 14.2662C1.38625 14.5924 1.285 14.8362 1.21 14.9787C1.07125 15.2112 1 15.4812 1 15.7549V16.0137C1 16.7637 1.6075 17.3749 2.3575 17.3749H2.90875C2.89 17.2512 2.875 17.1274 2.875 16.9999C2.875 15.7587 3.88375 14.7499 5.125 14.7499C6.36625 14.7499 7.375 15.7587 7.375 16.9999C7.375 17.1274 7.36 17.2512 7.34125 17.3749H13.435C13.4162 17.2512 13.4012 17.1274 13.4012 16.9999C13.4012 15.7587 14.41 14.7499 15.6512 14.7499C16.8925 14.7499 17.9012 15.7587 17.9012 16.9999C17.9012 17.1274 17.89 17.2512 17.8675 17.3749H18.1337C18.3638 17.374 18.5842 17.2819 18.7465 17.1188C18.9089 16.9558 19 16.735 19 16.5049V15.6424C19 14.8774 18.5237 14.1799 17.8187 13.9099ZM5.21875 12.8787L5.9425 12.4474C6.5275 12.0912 7.18375 11.8699 7.84 11.8062C8.1925 11.7724 8.545 11.7612 8.89 11.7574L9.1525 12.8787H5.21875ZM11.14 12.8787C11.1363 12.8787 11.1325 12.8749 11.1287 12.8749C11.125 12.8749 11.1212 12.8787 11.1175 12.8787H9.92125L9.66625 11.7724C10.0375 11.7912 10.4087 11.8212 10.795 11.8737C11.155 11.9224 11.5337 12.0387 11.9275 12.2224C12.415 12.4437 12.8387 12.6612 13.2137 12.8749L11.14 12.8787Z" fill="black"/>
<path d="M5.12439 18.5C5.95282 18.5 6.62439 17.8284 6.62439 17C6.62439 16.1716 5.95282 15.5 5.12439 15.5C4.29596 15.5 3.62439 16.1716 3.62439 17C3.62439 17.8284 4.29596 18.5 5.12439 18.5Z" fill="black"/>
</svg>
