<svg width="24" height="24" viewBox="0 0 24 24" fill="none" xmlns="http://www.w3.org/2000/svg">
<path d="M12.9495 11.6201V8.20174C12.9495 7.9327 12.8585 7.70718 12.6765 7.52518C12.4945 7.34318 12.269 7.25218 12 7.25218C11.7309 7.25218 11.5054 7.34318 11.3234 7.52518C11.1414 7.70718 11.0504 7.9327 11.0504 8.20174V11.9762C11.0504 12.1028 11.0742 12.2255 11.1216 12.3442C11.1691 12.4629 11.2403 12.5697 11.3353 12.6647L14.4688 15.7982C14.6429 15.9723 14.8645 16.0593 15.1335 16.0593C15.4026 16.0593 15.6241 15.9723 15.7982 15.7982C15.9723 15.6241 16.0593 15.4026 16.0593 15.1335C16.0593 14.8645 15.9723 14.6429 15.7982 14.4688L12.9495 11.6201ZM12 21.4955C10.6864 21.4955 9.45199 21.2463 8.2967 20.7478C7.1414 20.2492 6.13645 19.5727 5.28185 18.7181C4.42725 17.8635 3.75069 16.8585 3.25217 15.7032C2.75365 14.5479 2.50439 13.3135 2.50439 12C2.50439 10.6864 2.75365 9.45199 3.25217 8.2967C3.75069 7.1414 4.42725 6.13645 5.28185 5.28185C6.13645 4.42725 7.1414 3.75069 8.2967 3.25217C9.45199 2.75365 10.6864 2.50439 12 2.50439C13.3135 2.50439 14.5479 2.75365 15.7032 3.25217C16.8585 3.75069 17.8635 4.42725 18.7181 5.28185C19.5727 6.13645 20.2492 7.1414 20.7478 8.2967C21.2463 9.45199 21.4955 10.6864 21.4955 12C21.4955 13.3135 21.2463 14.5479 20.7478 15.7032C20.2492 16.8585 19.5727 17.8635 18.7181 18.7181C17.8635 19.5727 16.8585 20.2492 15.7032 20.7478C14.5479 21.2463 13.3135 21.4955 12 21.4955ZM12 19.5964C14.1048 19.5964 15.8971 18.8566 17.3768 17.3768C18.8566 15.8971 19.5964 14.1048 19.5964 12C19.5964 9.89512 18.8566 8.10283 17.3768 6.6231C15.8971 5.14337 14.1048 4.40351 12 4.40351C9.89512 4.40351 8.10283 5.14337 6.6231 6.6231C5.14337 8.10283 4.40351 9.89512 4.40351 12C4.40351 14.1048 5.14337 15.8971 6.6231 17.3768C8.10283 18.8566 9.89512 19.5964 12 19.5964Z" fill="#1C1B1F"/>
</svg>
