<svg width="20" height="20" viewBox="0 0 20 20" fill="none" xmlns="http://www.w3.org/2000/svg">
<path fill-rule="evenodd" clip-rule="evenodd" d="M18 10C18 14.4183 14.4183 18 10 18C5.58172 18 2 14.4183 2 10C2 5.58172 5.58172 2 10 2C14.4183 2 18 5.58172 18 10ZM6.09294 6.09294C6.48347 5.70242 7.11663 5.70242 7.50716 6.09294L10 8.58584L12.4929 6.09294C12.8835 5.70242 13.5166 5.70242 13.9072 6.09294C14.2977 6.48347 14.2977 7.11663 13.9072 7.50716L11.4143 10L13.9072 12.4929C14.2977 12.8835 14.2977 13.5166 13.9072 13.9072C13.5166 14.2977 12.8835 14.2977 12.4929 13.9072L10 11.4143L7.50716 13.9072C7.11663 14.2977 6.48347 14.2977 6.09294 13.9072C5.70242 13.5166 5.70242 12.8835 6.09294 12.4929L8.58584 10L6.09294 7.50716C5.70242 7.11663 5.70242 6.48347 6.09294 6.09294Z" fill="black"/>
</svg>
