<svg width="20" height="20" viewBox="0 0 20 20" fill="none" xmlns="http://www.w3.org/2000/svg">
<path d="M6.49841 13.0603C5.98696 13.4603 5.57334 13.9715 5.28894 14.5551C5.00454 15.1388 4.85683 15.7796 4.85703 16.4288V17.7145H2.28568C1.57427 17.7145 1 17.1402 1 16.4288V15.5717C1 13.9132 2.34139 12.5718 3.99991 12.5718H4.85703C5.46558 12.5718 6.027 12.7518 6.49841 13.0603Z" fill="black"/>
<path d="M14.7143 12.5718C15.7794 12.5718 16.6428 11.7083 16.6428 10.6432C16.6428 9.57815 15.7794 8.71472 14.7143 8.71472C13.6492 8.71472 12.7858 9.57815 12.7858 10.6432C12.7858 11.7083 13.6492 12.5718 14.7143 12.5718Z" fill="black"/>
<path d="M4.42888 12.5718C5.49397 12.5718 6.3574 11.7083 6.3574 10.6432C6.3574 9.57815 5.49397 8.71472 4.42888 8.71472C3.36379 8.71472 2.50037 9.57815 2.50037 10.6432C2.50037 11.7083 3.36379 12.5718 4.42888 12.5718Z" fill="black"/>
<path d="M18.1423 15.5717V16.4288C18.1423 17.1402 17.5681 17.7145 16.8567 17.7145H14.2853V16.4288C14.2853 15.0617 13.6425 13.8446 12.6439 13.0603C13.1153 12.7518 13.6767 12.5718 14.2853 12.5718H15.1424C16.8009 12.5718 18.1423 13.9132 18.1423 15.5717Z" fill="black"/>
<path d="M9.57082 13C10.8726 13 11.9279 11.9447 11.9279 10.643C11.9279 9.34119 10.8726 8.28589 9.57082 8.28589C8.26904 8.28589 7.21375 9.34119 7.21375 10.643C7.21375 11.9447 8.26904 13 9.57082 13Z" fill="black"/>
<path d="M9.99942 13.0002H9.1423C7.25193 13.0002 5.71383 14.5383 5.71383 16.4286V17.7143C5.71383 18.4232 6.29067 19 6.99951 19H12.1422C12.851 19 13.4279 18.4232 13.4279 17.7143V16.4286C13.4279 14.5383 11.8898 13.0002 9.99942 13.0002ZM15.785 6.86492L14.7509 7.23263C14.683 7.25675 14.6103 7.26398 14.5391 7.25368C14.4678 7.24339 14.4001 7.21589 14.3419 7.17356C14.2836 7.13123 14.2366 7.07534 14.2048 7.01074C14.173 6.94613 14.1574 6.87476 14.1594 6.80278L14.1894 5.70567L13.52 4.8357C13.4762 4.77861 13.4469 4.7117 13.4346 4.64075C13.4224 4.56981 13.4277 4.49695 13.4499 4.42848C13.4721 4.36001 13.5107 4.29797 13.5623 4.24774C13.6138 4.19751 13.6768 4.16058 13.7459 4.14015L14.7989 3.82987L15.4194 2.92432C15.4601 2.86493 15.5147 2.81634 15.5784 2.78277C15.642 2.7492 15.713 2.73165 15.785 2.73165C15.857 2.73165 15.9279 2.7492 15.9916 2.78277C16.0553 2.81634 16.1098 2.86493 16.1505 2.92432L16.7711 3.82987L17.824 4.14015C18.1228 4.228 18.2397 4.58885 18.0499 4.8357L17.3805 5.70567L17.4105 6.80278C17.4124 6.87472 17.3968 6.94604 17.3649 7.01059C17.3331 7.07514 17.2861 7.13098 17.2279 7.17329C17.1697 7.2156 17.102 7.24311 17.0308 7.25345C16.9596 7.26379 16.8869 7.25664 16.8191 7.23263L15.785 6.86492ZM3.35676 6.86492L2.32264 7.23263C2.2548 7.25675 2.18211 7.26398 2.11085 7.25368C2.03958 7.24339 1.9719 7.21589 1.91366 7.17356C1.85542 7.13123 1.80837 7.07534 1.77658 7.01074C1.7448 6.94613 1.72923 6.87476 1.73123 6.80278L1.76123 5.70567L1.09182 4.8357C1.04796 4.77861 1.01866 4.7117 1.00644 4.64075C0.994217 4.56981 0.999449 4.49695 1.02168 4.42848C1.04392 4.36001 1.08248 4.29797 1.13405 4.24774C1.18562 4.19751 1.24864 4.16058 1.31767 4.14015L2.37064 3.82987L2.99119 2.92432C3.03189 2.86493 3.08645 2.81634 3.15014 2.78277C3.21384 2.7492 3.28475 2.73165 3.35676 2.73165C3.42876 2.73165 3.49967 2.7492 3.56337 2.78277C3.62706 2.81634 3.68162 2.86493 3.72232 2.92432L4.34287 3.82987L5.39584 4.14015C5.69454 4.228 5.81154 4.58885 5.62169 4.8357L4.95228 5.70567L4.98228 6.80278C4.98418 6.87472 4.96855 6.94604 4.93673 7.01059C4.90491 7.07514 4.85787 7.13098 4.79966 7.17329C4.74144 7.2156 4.67381 7.24311 4.60259 7.25345C4.53137 7.26379 4.45871 7.25664 4.39087 7.23263L3.35676 6.86492ZM9.57086 5.90067L8.34475 6.33651C8.26433 6.36509 8.17816 6.37364 8.09369 6.36143C8.00922 6.34922 7.92899 6.31662 7.85995 6.26644C7.79091 6.21626 7.73513 6.15002 7.69744 6.07345C7.65975 5.99687 7.64128 5.91227 7.64363 5.82695L7.6792 4.52628L6.88551 3.49474C6.83352 3.42705 6.79879 3.34773 6.78431 3.26362C6.76984 3.17951 6.77605 3.09314 6.80242 3.01197C6.82879 2.9308 6.87452 2.85726 6.93566 2.79772C6.9968 2.73817 7.07152 2.6944 7.15336 2.67019L8.40175 2.30206L9.13759 1.22852C9.18584 1.15807 9.25053 1.10044 9.32606 1.06063C9.40159 1.02081 9.48569 1 9.57107 1C9.65646 1 9.74056 1.02081 9.81609 1.06063C9.89162 1.10044 9.95631 1.15807 10.0046 1.22852L10.7404 2.30206L11.9888 2.67019C12.0706 2.6944 12.1453 2.73817 12.2065 2.79772C12.2676 2.85726 12.3134 2.9308 12.3397 3.01197C12.3661 3.09314 12.3723 3.17951 12.3578 3.26362C12.3434 3.34773 12.3086 3.42705 12.2566 3.49474L11.4629 4.52628L11.4985 5.82695C11.5009 5.91227 11.4824 5.99687 11.4447 6.07345C11.407 6.15002 11.3512 6.21626 11.2822 6.26644C11.2132 6.31662 11.1329 6.34922 11.0485 6.36143C10.964 6.37364 10.8778 6.36509 10.7974 6.33651L9.57086 5.90067Z" fill="black"/>
</svg>
