<svg width="20" height="20" viewBox="0 0 20 20" fill="none" xmlns="http://www.w3.org/2000/svg">
<path d="M10 1.99878C5.58214 1.99878 2 5.58092 2 9.99878C2 14.4166 5.58214 17.9988 10 17.9988C14.4179 17.9988 18 14.4166 18 9.99878C18 5.58092 14.4179 1.99878 10 1.99878ZM10 16.6416C6.33214 16.6416 3.35714 13.6666 3.35714 9.99878C3.35714 6.33092 6.33214 3.35592 10 3.35592C13.6679 3.35592 16.6429 6.33092 16.6429 9.99878C16.6429 13.6666 13.6679 16.6416 10 16.6416ZM10.8518 9.58449L10.3982 9.47914V7.08092C11.0768 7.17378 11.4964 7.59878 11.5679 8.12021C11.5768 8.19164 11.6375 8.24342 11.7089 8.24342H12.5107C12.5946 8.24342 12.6607 8.17021 12.6536 8.08628C12.5446 6.97378 11.6286 6.25949 10.4054 6.13628V5.55235C10.4054 5.47378 10.3411 5.40949 10.2625 5.40949H9.76071C9.68214 5.40949 9.61786 5.47378 9.61786 5.55235V6.14164C8.35357 6.26485 7.36429 6.96307 7.36429 8.26664C7.36429 9.47378 8.25357 10.0559 9.1875 10.2791L9.62857 10.3916V12.9399C8.83929 12.8345 8.39643 12.4131 8.30536 11.8452C8.29464 11.7774 8.23393 11.7274 8.16429 11.7274H7.33929C7.25536 11.7274 7.18929 11.7988 7.19643 11.8827C7.27679 12.8649 8.02143 13.7684 9.61071 13.8845V14.4452C9.61071 14.5238 9.675 14.5881 9.75357 14.5881H10.2607C10.3393 14.5881 10.4036 14.5238 10.4036 14.4434L10.4 13.8774C11.7982 13.7541 12.7982 13.0059 12.7982 11.6631C12.7964 10.4238 12.0089 9.87021 10.8518 9.58449V9.58449ZM9.62679 9.29521C9.52679 9.26664 9.44286 9.23985 9.35893 9.20592C8.75536 8.98807 8.475 8.63628 8.475 8.18271C8.475 7.53449 8.96607 7.16485 9.62679 7.08092V9.29521ZM10.3982 12.9452V10.5577C10.4536 10.5738 10.5036 10.5863 10.5554 10.597C11.4 10.8541 11.6839 11.2113 11.6839 11.7595C11.6839 12.4577 11.1589 12.8774 10.3982 12.9452Z" fill="black"/>
</svg>
