<svg width="24" height="24" viewBox="0 0 24 24" fill="none" xmlns="http://www.w3.org/2000/svg">
<path d="M11.7085 20.9961C11.1279 20.9961 10.5429 20.9301 9.95355 20.7982C9.36417 20.6662 8.7616 20.4771 8.14583 20.2308C8.35695 18.102 8.97272 16.1139 9.99313 14.2666C11.0136 12.4193 12.3243 10.7919 13.9253 9.38445C11.99 10.3697 10.3142 11.6716 8.89794 13.2902C7.48168 14.9088 6.49205 16.7561 5.92906 18.8321C5.85868 18.7793 5.79271 18.7221 5.73113 18.6606L5.53321 18.4626C4.70632 17.6358 4.07735 16.7121 3.64631 15.6917C3.21528 14.6713 2.99976 13.6069 2.99976 12.4985C2.99976 11.3021 3.23727 10.1586 3.71229 9.06777C4.18731 7.97697 4.84706 7.00934 5.69155 6.16485C6.92308 4.93332 8.44931 4.07124 10.2702 3.57862C12.0911 3.08601 14.5498 2.91007 17.6463 3.05082C18.1037 3.06842 18.5259 3.16958 18.913 3.35431C19.3 3.53904 19.6431 3.78095 19.9422 4.08004C20.2413 4.37912 20.4788 4.72659 20.6547 5.12245C20.8307 5.5183 20.9362 5.94494 20.9714 6.40237C21.077 9.56918 20.8922 12.0411 20.4172 13.818C19.9422 15.5949 19.0977 17.0904 17.8838 18.3043C17.0217 19.1664 16.0585 19.8305 14.9941 20.2968C13.9297 20.763 12.8345 20.9961 11.7085 20.9961Z" fill="#1C1B1F"/>
</svg>
