<svg width="20" height="20" viewBox="0 0 20 20" fill="none" xmlns="http://www.w3.org/2000/svg">
<path d="M16.4865 1H3.51351C3.11225 1.00044 2.72754 1.15554 2.4438 1.43125C2.16006 1.70697 2.00046 2.08079 2 2.47072V17.9763C1.99998 18.1376 2.04775 18.2955 2.13759 18.4312C2.22743 18.5668 2.35555 18.6745 2.50666 18.7413C2.65777 18.8081 2.82547 18.8313 2.98974 18.808C3.15402 18.7847 3.30792 18.7159 3.43308 18.6099L4.48476 17.7191L5.75005 18.7931C5.90786 18.9258 6.10958 18.9989 6.31827 18.9989C6.52697 18.9989 6.72868 18.9258 6.88649 18.7931L8.15438 17.7199L9.424 18.794C9.58175 18.9265 9.78329 18.9994 9.99178 18.9994C10.2003 18.9994 10.4018 18.9265 10.5596 18.794L11.8301 17.7199L13.0997 18.7931C13.2572 18.9262 13.4588 18.9997 13.6676 19C13.8763 19.0003 14.0782 18.9275 14.2361 18.7948L15.5101 17.7191L16.5678 18.6125C16.6931 18.7183 16.8471 18.7868 17.0113 18.8099C17.1756 18.833 17.3433 18.8096 17.4943 18.7427C17.6453 18.6757 17.7733 18.5679 17.863 18.4321C17.9526 18.2964 18.0002 18.1384 18 17.9771V2.47072C17.9995 2.08079 17.8399 1.70697 17.5562 1.43125C17.2725 1.15554 16.8878 1.00044 16.4865 1ZM5.67568 14.8668C5.54739 14.8668 5.42198 14.8298 5.31531 14.7605C5.20864 14.6913 5.1255 14.5928 5.0764 14.4777C5.02731 14.3625 5.01446 14.2357 5.03949 14.1135C5.06452 13.9912 5.1263 13.8789 5.21701 13.7908C5.30773 13.7026 5.4233 13.6426 5.54913 13.6183C5.67496 13.5939 5.80538 13.6064 5.9239 13.6541C6.04243 13.7018 6.14373 13.7826 6.21501 13.8863C6.28628 13.9899 6.32432 14.1118 6.32432 14.2364C6.32432 14.4036 6.25598 14.5639 6.13434 14.6821C6.01269 14.8003 5.84771 14.8668 5.67568 14.8668ZM6.54054 12.3455C6.36851 12.3455 6.20352 12.2791 6.08188 12.1609C5.96023 12.0427 5.89189 11.8824 5.89189 11.7152V11.3891C5.51358 11.2596 5.1858 11.0194 4.95353 10.7016C4.72126 10.3838 4.59588 10.004 4.59459 9.61419C4.59459 9.44703 4.66293 9.28671 4.78458 9.1685C4.90622 9.0503 5.07121 8.98389 5.24324 8.98389C5.41528 8.98389 5.58026 9.0503 5.70191 9.1685C5.82355 9.28671 5.89189 9.44703 5.89189 9.61419C5.89189 9.73886 5.92993 9.86072 6.00121 9.96437C6.07248 10.068 6.17379 10.1488 6.29231 10.1965C6.41084 10.2442 6.54126 10.2567 6.66709 10.2324C6.79291 10.2081 6.90849 10.148 6.9992 10.0599C7.08992 9.97174 7.1517 9.85943 7.17673 9.73716C7.20175 9.61489 7.18891 9.48816 7.13981 9.37299C7.09072 9.25781 7.00758 9.15937 6.90091 9.09011C6.79424 9.02085 6.66883 8.98389 6.54054 8.98389C6.08155 8.98561 5.63679 8.82921 5.28524 8.54246C4.93369 8.2557 4.69811 7.85715 4.62033 7.41759C4.54256 6.97803 4.62762 6.52591 4.86042 6.14152C5.09321 5.75714 5.45867 5.46536 5.89189 5.31802V4.99194C5.89189 4.82478 5.96023 4.66445 6.08188 4.54625C6.20352 4.42804 6.36851 4.36164 6.54054 4.36164C6.71257 4.36164 6.87756 4.42804 6.9992 4.54625C7.12085 4.66445 7.18919 4.82478 7.18919 4.99194V5.31802C7.5675 5.4476 7.89528 5.68776 8.12755 6.00555C8.35982 6.32334 8.4852 6.70319 8.48649 7.09297C8.48649 7.26013 8.41815 7.42046 8.2965 7.53866C8.17486 7.65687 8.00987 7.72327 7.83784 7.72327C7.66581 7.72327 7.50082 7.65687 7.37917 7.53866C7.25753 7.42046 7.18919 7.26013 7.18919 7.09297C7.18919 6.9683 7.15115 6.84644 7.07987 6.74279C7.0086 6.63913 6.90729 6.55835 6.78877 6.51064C6.67024 6.46293 6.53982 6.45045 6.414 6.47477C6.28817 6.49909 6.17259 6.55912 6.08188 6.64727C5.99116 6.73542 5.92938 6.84773 5.90436 6.97C5.87933 7.09227 5.89217 7.219 5.94127 7.33417C5.99036 7.44935 6.0735 7.54779 6.18017 7.61705C6.28684 7.68631 6.41225 7.72327 6.54054 7.72327C6.99953 7.72155 7.44429 7.87795 7.79584 8.16471C8.14739 8.45146 8.38297 8.85001 8.46075 9.28957C8.53852 9.72913 8.45346 10.1813 8.22067 10.5656C7.98787 10.95 7.62241 11.2418 7.18919 11.3891V11.7152C7.18919 11.8824 7.12085 12.0427 6.9992 12.1609C6.87756 12.2791 6.71257 12.3455 6.54054 12.3455ZM14.7568 14.8668H7.83784C7.66581 14.8668 7.50082 14.8003 7.37917 14.6821C7.25753 14.5639 7.18919 14.4036 7.18919 14.2364C7.18919 14.0693 7.25753 13.909 7.37917 13.7908C7.50082 13.6725 7.66581 13.6061 7.83784 13.6061H14.7568C14.9288 13.6061 15.0938 13.6725 15.2154 13.7908C15.3371 13.909 15.4054 14.0693 15.4054 14.2364C15.4054 14.4036 15.3371 14.5639 15.2154 14.6821C15.0938 14.8003 14.9288 14.8668 14.7568 14.8668ZM14.7568 12.0657H10.4324C10.2604 12.0657 10.0954 11.9993 9.97377 11.8811C9.85212 11.7629 9.78378 11.6025 9.78378 11.4354C9.78378 11.2682 9.85212 11.1079 9.97377 10.9897C10.0954 10.8715 10.2604 10.8051 10.4324 10.8051H14.7568C14.9288 10.8051 15.0938 10.8715 15.2154 10.9897C15.3371 11.1079 15.4054 11.2682 15.4054 11.4354C15.4054 11.6025 15.3371 11.7629 15.2154 11.8811C15.0938 11.9993 14.9288 12.0657 14.7568 12.0657ZM14.7568 9.26374H10.4324C10.2604 9.26374 10.0954 9.19734 9.97377 9.07913C9.85212 8.96093 9.78378 8.8006 9.78378 8.63344C9.78378 8.46627 9.85212 8.30595 9.97377 8.18774C10.0954 8.06954 10.2604 8.00313 10.4324 8.00313H14.7568C14.9288 8.00313 15.0938 8.06954 15.2154 8.18774C15.3371 8.30595 15.4054 8.46627 15.4054 8.63344C15.4054 8.8006 15.3371 8.96093 15.2154 9.07913C15.0938 9.19734 14.9288 9.26374 14.7568 9.26374ZM14.7568 6.46266H10.4324C10.2604 6.46266 10.0954 6.39625 9.97377 6.27805C9.85212 6.15984 9.78378 5.99952 9.78378 5.83235C9.78378 5.66519 9.85212 5.50486 9.97377 5.38666C10.0954 5.26845 10.2604 5.20205 10.4324 5.20205H14.7568C14.9288 5.20205 15.0938 5.26845 15.2154 5.38666C15.3371 5.50486 15.4054 5.66519 15.4054 5.83235C15.4054 5.99952 15.3371 6.15984 15.2154 6.27805C15.0938 6.39625 14.9288 6.46266 14.7568 6.46266Z" fill="black"/>
</svg>
