<svg width="24" height="24" viewBox="0 0 24 24" fill="none" xmlns="http://www.w3.org/2000/svg">
<path d="M8.20114 21.4972C7.15646 21.4972 6.26214 21.1252 5.5182 20.3812C4.77425 19.6373 4.40228 18.743 4.40228 17.6983V8.20116C4.40228 7.15647 4.77425 6.26216 5.5182 5.51821C6.26214 4.77427 7.15646 4.4023 8.20114 4.4023H9.15086V3.45258C9.15086 3.1835 9.24187 2.95794 9.4239 2.77591C9.60593 2.59388 9.83148 2.50287 10.1006 2.50287C10.3697 2.50287 10.5952 2.59388 10.7772 2.77591C10.9593 2.95794 11.0503 3.1835 11.0503 3.45258V4.4023H12.9497V3.45258C12.9497 3.1835 13.0407 2.95794 13.2228 2.77591C13.4048 2.59388 13.6303 2.50287 13.8994 2.50287C14.1685 2.50287 14.3941 2.59388 14.5761 2.77591C14.7581 2.95794 14.8491 3.1835 14.8491 3.45258V4.4023H15.7989C16.8435 4.4023 17.7379 4.77427 18.4818 5.51821C19.2257 6.26216 19.5977 7.15647 19.5977 8.20116V17.6983C19.5977 18.743 19.2257 19.6373 18.4818 20.3812C17.7379 21.1252 16.8435 21.4972 15.7989 21.4972H8.20114ZM9.15086 10.1006H14.8491C15.1182 10.1006 15.3438 10.0096 15.5258 9.82754C15.7078 9.64551 15.7989 9.41996 15.7989 9.15087C15.7989 8.88179 15.7078 8.65623 15.5258 8.4742C15.3438 8.29217 15.1182 8.20116 14.8491 8.20116H9.15086C8.88177 8.20116 8.65621 8.29217 8.47418 8.4742C8.29216 8.65623 8.20114 8.88179 8.20114 9.15087C8.20114 9.41996 8.29216 9.64551 8.47418 9.82754C8.65621 10.0096 8.88177 10.1006 9.15086 10.1006ZM12 17.6983C12.6648 17.6983 13.2267 17.4727 13.6857 17.0216C14.1448 16.5705 14.3743 16.0205 14.3743 15.3715C14.3743 15.1024 14.3426 14.8729 14.2793 14.683C14.216 14.493 14.0973 14.2714 13.9232 14.0182L12.5461 12.4036C12.4036 12.2295 12.2216 12.1425 12 12.1425C11.7784 12.1425 11.5964 12.2295 11.4539 12.4036L10.0768 14.0419C9.90271 14.2952 9.784 14.5128 9.72068 14.6948C9.65737 14.8769 9.62571 15.1024 9.62571 15.3715C9.62571 16.0205 9.85523 16.5705 10.3143 17.0216C10.7733 17.4727 11.3352 17.6983 12 17.6983Z" fill="#1C1B1F"/>
</svg>
