<!-- Generated by IcoMoon.io -->
<svg version="1.1" xmlns="http://www.w3.org/2000/svg" width="32" height="32" viewBox="0 0 32 32">
<title>joystick</title>
<path d="M16.8 12.733c1.187-0.201 2.255-0.84 2.992-1.791s1.091-2.144 0.991-3.344c-0.101-1.199-0.648-2.317-1.534-3.132s-2.046-1.267-3.249-1.267c-1.204 0-2.363 0.452-3.249 1.267s-1.433 1.932-1.534 3.132c-0.101 1.199 0.253 2.393 0.991 3.344s1.806 1.59 2.992 1.791v4.866h-3.2c-0.636 0-1.247 0.253-1.697 0.703s-0.703 1.060-0.703 1.697v0.8h12.8v-0.8c0-0.636-0.253-1.247-0.703-1.697s-1.061-0.703-1.697-0.703h-3.2v-4.866zM4.8 25.598c0-0.849 0.337-1.663 0.937-2.263s1.414-0.937 2.263-0.937h16c0.849 0 1.663 0.337 2.263 0.937s0.937 1.414 0.937 2.263v2.4c0 0.212-0.084 0.416-0.234 0.566s-0.354 0.234-0.566 0.234h-20.8c-0.212 0-0.416-0.084-0.566-0.234s-0.234-0.354-0.234-0.566v-2.4z"></path>
</svg>
