<?xml version="1.0" encoding="UTF-8"?>
<svg xmlns="http://www.w3.org/2000/svg" version="1.1" viewBox="0 0 20 20">
  <!-- Generator: Adobe Illustrator 28.6.0, SVG Export Plug-In . SVG Version: 1.2.0 Build 709)  -->
  <g>
    <g id="Layer_1">
      <path d="M18,9l-.6-5.9c0-.3-.3-.5-.6-.6l-5.9-.6h0c0,0-.1,0-.1,0L2.1,10.8s0,0,0,0c0,0,0,0,0,0s0,0,0,0c0,0,0,0,0,0l6.8,6.8s0,0,.1,0,0,0,.1,0l8.8-8.8s0,0,0-.2ZM9,16.1l-5.1-5.1,7.5-7.5,4.6.4.4,4.6-7.5,7.5ZM13.2,5.2c-.9,0-1.7.7-1.7,1.7s.7,1.7,1.7,1.7,1.7-.7,1.7-1.7-.7-1.7-1.7-1.7ZM13.2,7.4c-.3,0-.6-.3-.6-.6s.3-.6.6-.6.6.3.6.6-.3.6-.6.6Z"/>
    </g>
  </g>
</svg>