<svg width="24" height="24" viewBox="0 0 24 24" fill="none" xmlns="http://www.w3.org/2000/svg">
<path d="M5.33333 18C4.41667 18 3.63194 17.6643 2.97917 16.9929C2.32639 16.3214 2 15.5143 2 14.5714C2 13.7571 2.25347 13.0357 2.76042 12.4071C3.26736 11.7786 3.91667 11.3857 4.70833 11.2286L4.125 10.7143H2.625C2.44444 10.7143 2.29514 10.6536 2.17708 10.5321C2.05903 10.4107 2 10.2571 2 10.0714C2 9.88571 2.05903 9.73214 2.17708 9.61071C2.29514 9.48929 2.44444 9.42857 2.625 9.42857H5.75L7.83333 10.7143L10.875 9.53571C10.9722 9.50714 11.0694 9.48214 11.1667 9.46071C11.2639 9.43929 11.3681 9.42857 11.4792 9.42857H13.7917L12.5 7.71429H11.1667C10.9306 7.71429 10.7326 7.63214 10.5729 7.46786C10.4132 7.30357 10.3333 7.1 10.3333 6.85714C10.3333 6.61429 10.4132 6.41071 10.5729 6.24643C10.7326 6.08214 10.9306 6 11.1667 6H12.4792C12.7431 6 12.9896 6.06071 13.2188 6.18214C13.4479 6.30357 13.6389 6.46429 13.7917 6.66429L15.0417 8.31429L17.2292 7.17857C17.3681 7.10714 17.5035 7.11429 17.6354 7.2C17.7674 7.28571 17.8333 7.40714 17.8333 7.56429V9C17.8333 9.11429 17.7917 9.21429 17.7083 9.3C17.625 9.38571 17.5278 9.42857 17.4167 9.42857H15.9167L17.375 11.4C17.5833 11.3143 17.7951 11.25 18.0104 11.2071C18.2257 11.1643 18.4444 11.1429 18.6667 11.1429C19.5833 11.1429 20.3681 11.4786 21.0208 12.15C21.6736 12.8214 22 13.6286 22 14.5714C22 15.5143 21.6736 16.3214 21.0208 16.9929C20.3681 17.6643 19.5833 18 18.6667 18C17.75 18 16.9653 17.6643 16.3125 16.9929C15.6597 16.3214 15.3333 15.5143 15.3333 14.5714C15.3333 14.1857 15.3993 13.8107 15.5313 13.4464C15.6632 13.0821 15.8472 12.7429 16.0833 12.4286L15.6667 11.9143L13.0833 15.9C13.0139 16.0143 12.9167 16.1071 12.7917 16.1786C12.6667 16.25 12.5347 16.2857 12.3958 16.2857H10.6458C10.5347 16.2857 10.434 16.2679 10.3437 16.2321C10.2535 16.1964 10.1736 16.1429 10.1042 16.0714L8.66667 14.7857C8.59722 15.6857 8.24306 16.4464 7.60417 17.0679C6.96528 17.6893 6.20833 18 5.33333 18ZM5.33333 16.2857C5.79167 16.2857 6.18403 16.1179 6.51042 15.7821C6.83681 15.4464 7 15.0429 7 14.5714C7 14.1 6.83681 13.6964 6.51042 13.3607C6.18403 13.025 5.79167 12.8571 5.33333 12.8571C4.875 12.8571 4.48264 13.025 4.15625 13.3607C3.82986 13.6964 3.66667 14.1 3.66667 14.5714C3.66667 15.0429 3.82986 15.4464 4.15625 15.7821C4.48264 16.1179 4.875 16.2857 5.33333 16.2857ZM18.6667 16.2857C19.125 16.2857 19.5174 16.1179 19.8437 15.7821C20.1701 15.4464 20.3333 15.0429 20.3333 14.5714C20.3333 14.1 20.1701 13.6964 19.8437 13.3607C19.5174 13.025 19.125 12.8571 18.6667 12.8571C18.2083 12.8571 17.816 13.025 17.4896 13.3607C17.1632 13.6964 17 14.1 17 14.5714C17 15.0429 17.1632 15.4464 17.4896 15.7821C17.816 16.1179 18.2083 16.2857 18.6667 16.2857Z" fill="black"/>
</svg>
