<svg width="20" height="20" viewBox="0 0 20 20" fill="none" xmlns="http://www.w3.org/2000/svg">
<path d="M12.5625 2.125H11.3407C11.109 1.47025 10.4835 1 9.75 1C9.0165 1 8.391 1.47025 8.15813 2.125H6.9375C6.627 2.125 6.375 2.377 6.375 2.6875V4.9375C6.375 5.248 6.627 5.5 6.9375 5.5H12.5625C12.873 5.5 13.125 5.248 13.125 4.9375V2.6875C13.125 2.377 12.873 2.125 12.5625 2.125Z" fill="black"/>
<path d="M15.375 3.25H14.25V4.9375C14.25 5.86788 13.4929 6.625 12.5625 6.625H6.9375C6.00712 6.625 5.25 5.86788 5.25 4.9375V3.25H4.125C3.50513 3.25 3 3.75513 3 4.375V17.875C3 18.5061 3.49388 19 4.125 19H15.375C16.0061 19 16.5 18.5061 16.5 17.875V4.375C16.5 3.74388 16.0061 3.25 15.375 3.25ZM9.58575 13.2108L7.33575 15.4608C7.2299 15.5659 7.08673 15.625 6.9375 15.625C6.78827 15.625 6.6451 15.5659 6.53925 15.4608L5.41425 14.3358C5.19487 14.1164 5.19487 13.7598 5.41425 13.5404C5.63362 13.321 5.99025 13.321 6.20963 13.5404L6.9375 14.2671L8.78925 12.4154C9.00862 12.196 9.36525 12.196 9.58463 12.4154C9.804 12.6348 9.80513 12.9903 9.58575 13.2108ZM9.58575 8.71075L7.33575 10.9608C7.2299 11.0659 7.08673 11.125 6.9375 11.125C6.78827 11.125 6.6451 11.0659 6.53925 10.9608L5.41425 9.83575C5.19487 9.61638 5.19487 9.25975 5.41425 9.04037C5.63362 8.821 5.99025 8.821 6.20963 9.04037L6.9375 9.76713L8.78925 7.91537C9.00862 7.696 9.36525 7.696 9.58463 7.91537C9.804 8.13475 9.80513 8.49025 9.58575 8.71075ZM13.6875 14.5H11.4375C11.127 14.5 10.875 14.248 10.875 13.9375C10.875 13.627 11.127 13.375 11.4375 13.375H13.6875C13.998 13.375 14.25 13.627 14.25 13.9375C14.25 14.248 13.998 14.5 13.6875 14.5ZM13.6875 10H11.4375C11.127 10 10.875 9.748 10.875 9.4375C10.875 9.127 11.127 8.875 11.4375 8.875H13.6875C13.998 8.875 14.25 9.127 14.25 9.4375C14.25 9.748 13.998 10 13.6875 10Z" fill="black"/>
</svg>
