<?xml version="1.0" encoding="utf-8"?>
<!-- Generator: Adobe Illustrator 28.1.0, SVG Export Plug-In . SVG Version: 6.00 Build 0)  -->
<svg version="1.1" id="Layer_1" xmlns="http://www.w3.org/2000/svg" xmlns:xlink="http://www.w3.org/1999/xlink" x="0px" y="0px"
	 viewBox="0 0 24 25" style="enable-background:new 0 0 24 25;" xml:space="preserve">
<path d="M14,9c-0.1,0-0.3,0.1-0.4,0.1c-0.1,0.1-0.1,0.2-0.1,0.4V11L15,9H14z M4,9C3.9,9,3.7,9.1,3.6,9.1C3.6,9.2,3.5,9.4,3.5,9.5V11
	L5,9H4z M5,12c0.1,0,0.3-0.1,0.4-0.1c0.1-0.1,0.1-0.2,0.1-0.4V10L4,12H5z M15.5,11.5V10L14,12h1c0.1,0,0.3-0.1,0.4-0.1
	C15.4,11.8,15.5,11.6,15.5,11.5z"/>
<path d="M22.5,4.5h-21C1.2,4.5,1,4.6,0.8,4.8C0.6,5,0.5,5.2,0.5,5.5v13c0,0.3,0.1,0.5,0.3,0.7c0.2,0.2,0.4,0.3,0.7,0.3h21
	c0.3,0,0.5-0.1,0.7-0.3s0.3-0.4,0.3-0.7v-13c0-0.3-0.1-0.5-0.3-0.7C23,4.6,22.8,4.5,22.5,4.5z M7.5,8.5c0-0.1,0.1-0.3,0.1-0.4
	C7.7,8.1,7.9,8,8,8c0.1,0,0.3,0.1,0.4,0.1c0.1,0.1,0.1,0.2,0.1,0.4v1c0,0.1,0.1,0.3,0.1,0.4C8.7,9.9,8.9,10,9,10h1.5V8.5
	c0-0.1,0.1-0.3,0.1-0.4C10.7,8.1,10.9,8,11,8s0.3,0.1,0.4,0.1c0.1,0.1,0.1,0.2,0.1,0.4v4c0,0.1-0.1,0.3-0.1,0.4
	C11.3,12.9,11.1,13,11,13s-0.3-0.1-0.4-0.1c-0.1-0.1-0.1-0.2-0.1-0.4V11H9c-0.4,0-0.8-0.2-1.1-0.4c-0.3-0.3-0.4-0.7-0.4-1.1V8.5z
	 M6.5,11.5c0,0.4-0.2,0.8-0.4,1.1C5.8,12.8,5.4,13,5,13H4c-0.4,0-0.8-0.2-1.1-0.4c-0.3-0.3-0.4-0.7-0.4-1.1v-2
	c0-0.4,0.2-0.8,0.4-1.1C3.2,8.2,3.6,8,4,8h1c0.4,0,0.8,0.2,1.1,0.4c0.3,0.3,0.4,0.7,0.4,1.1V11.5z M9.4,15.6
	c0.1,0.1,0.1,0.2,0.1,0.4s-0.1,0.3-0.1,0.4c-0.1,0.1-0.2,0.1-0.4,0.1s-0.3-0.1-0.4-0.1l-0.1-0.1c-0.2,0.2-0.3,0.3-0.5,0.3
	c-0.1,0-0.2,0-0.3-0.1c-0.1-0.1-0.1-0.1-0.2-0.2c0-0.1,0-0.2,0-0.3c0-0.1,0.1-0.2,0.1-0.3l0.2-0.1l-0.2-0.1
	c-0.1-0.1-0.1-0.2-0.1-0.4s0.1-0.3,0.1-0.4c0.1-0.1,0.2-0.1,0.4-0.1s0.3,0.1,0.4,0.1l0.1,0.1l0.1-0.1c0.1-0.1,0.2-0.1,0.4-0.1
	s0.3,0.1,0.4,0.1c0.1,0.1,0.1,0.2,0.1,0.4s-0.1,0.3-0.1,0.4l-0.1,0.1L9.4,15.6z M13,16h-2c-0.1,0-0.3-0.1-0.4-0.1
	c-0.1-0.1-0.1-0.2-0.1-0.4s0.1-0.3,0.1-0.4c0.1-0.1,0.2-0.1,0.4-0.1h2c0.1,0,0.3,0.1,0.4,0.1c0.1,0.1,0.1,0.2,0.1,0.4
	s-0.1,0.3-0.1,0.4C13.3,15.9,13.1,16,13,16z M12.5,11.5v-2c0-0.4,0.2-0.8,0.4-1.1C13.2,8.2,13.6,8,14,8h1c0.4,0,0.8,0.2,1.1,0.4
	c0.3,0.3,0.4,0.7,0.4,1.1v2c0,0.4-0.2,0.8-0.4,1.1C15.8,12.8,15.4,13,15,13h-1c-0.4,0-0.8-0.2-1.1-0.4
	C12.7,12.3,12.5,11.9,12.5,11.5z M16.4,15.6c0.1,0.1,0.1,0.2,0.1,0.4s-0.1,0.3-0.1,0.4s-0.2,0.1-0.4,0.1s-0.3-0.1-0.4-0.1l-0.1-0.1
	c-0.2,0.2-0.3,0.3-0.5,0.3c-0.1,0-0.2,0-0.3-0.1c-0.1-0.1-0.1-0.1-0.2-0.2c0-0.1,0-0.2,0-0.3c0-0.1,0.1-0.2,0.1-0.3l0.1-0.1
	l-0.1-0.1c0,0-0.1-0.1-0.1-0.2c0-0.1,0-0.1,0-0.2s0-0.1,0-0.2c0-0.1,0.1-0.1,0.1-0.2c0,0,0.1-0.1,0.2-0.1c0.1,0,0.1,0,0.2,0
	s0.1,0,0.2,0c0.1,0,0.1,0.1,0.2,0.1l0.1,0.1l0.1-0.1c0.1-0.1,0.2-0.1,0.4-0.1s0.3,0.1,0.4,0.1c0.1,0.1,0.1,0.2,0.1,0.4
	s-0.1,0.3-0.1,0.4l-0.1,0.1L16.4,15.6z M20.5,10c0.3,0,0.5,0.1,0.7,0.3s0.3,0.4,0.3,0.7v1c0,0.3-0.1,0.5-0.3,0.7S20.8,13,20.5,13H18
	c-0.1,0-0.3-0.1-0.4-0.1c-0.1-0.1-0.1-0.2-0.1-0.4s0.1-0.3,0.1-0.4c0.1-0.1,0.2-0.1,0.4-0.1h2.5v-1h-2c-0.3,0-0.5-0.1-0.7-0.3
	s-0.3-0.4-0.3-0.7V9c0-0.3,0.1-0.5,0.3-0.7C18,8.1,18.2,8,18.5,8H21c0.1,0,0.3,0.1,0.4,0.1c0.1,0.1,0.1,0.2,0.1,0.4
	s-0.1,0.3-0.1,0.4C21.3,8.9,21.1,9,21,9h-2.5v1H20.5z"/>
</svg>
