<svg width="20" height="20" viewBox="0 0 20 20" fill="none" xmlns="http://www.w3.org/2000/svg">
<path d="M18.8089 5.0528L18.8089 5.05281C18.8814 5.08907 18.9423 5.14479 18.9849 5.21373C19.0275 5.28267 19.05 5.36211 19.05 5.44313V13.5568C19.05 13.6378 19.0275 13.7172 18.9849 13.7862C18.9423 13.8551 18.8814 13.9108 18.8089 13.9471L18.8089 13.9471L10.6953 18.0039L18.8089 5.0528ZM18.8089 5.0528L10.6953 0.995984L10.6952 0.995963M18.8089 5.0528L10.6952 0.995963M10.6952 0.995963C10.6346 0.965735 10.5678 0.95 10.5001 0.95C10.4324 0.95 10.3656 0.965735 10.305 0.995963L10.3049 0.995984M10.6952 0.995963L10.3049 0.995984M10.3049 0.995984L2.19131 5.0528C2.19131 5.0528 2.1913 5.0528 2.1913 5.0528C2.1188 5.08903 2.05782 5.14474 2.0152 5.21368C1.97258 5.28262 1.95 5.36207 1.95 5.44312L1.95 13.5568C1.95 13.5568 1.95 13.5568 1.95 13.5568C1.94998 13.6378 1.97253 13.7172 2.01511 13.7862C2.05769 13.8551 2.11863 13.9108 2.19109 13.9471L2.19111 13.9471M10.3049 0.995984L2.19111 13.9471M2.19111 13.9471L10.3047 18.0039L2.19111 13.9471ZM10.5 18.0501C10.4322 18.0501 10.3654 18.0343 10.3047 18.0039L10.5 18.0501ZM10.5 18.0501C10.5678 18.0501 10.6346 18.0343 10.6953 18.0039L10.5 18.0501ZM10.9364 16.9075L18.1773 13.2869V6.14916L16.5386 6.96848V10.9487V10.9488H16.4886C16.4888 11.0198 16.4694 11.0896 16.4325 11.1502C16.3956 11.2109 16.3426 11.2603 16.2795 11.2928C16.2163 11.3253 16.1454 11.3398 16.0746 11.3346L10.9364 16.9075ZM10.9364 16.9075V9.76962M10.9364 16.9075V9.76962M12.575 12.4942C12.5749 12.5873 12.6046 12.6779 12.6597 12.7529C12.7148 12.8279 12.7924 12.8833 12.8812 12.911C12.97 12.9388 13.0654 12.9374 13.1534 12.9072C13.2413 12.8769 13.3173 12.8193 13.3703 12.7428C13.3703 12.7427 13.3703 12.7427 13.3703 12.7427L14.8569 10.5955L15.8488 11.3039L13.3291 12.7143C13.2823 12.7821 13.215 12.8331 13.1371 12.8599C13.0592 12.8867 12.9748 12.8879 12.8961 12.8633C12.8175 12.8388 12.7488 12.7897 12.7 12.7233C12.6512 12.6569 12.6249 12.5766 12.625 12.4943V8.9253L12.575 8.9503M12.575 12.4942L12.6244 12.4943H12.575V12.4942ZM12.575 12.4942V8.9503M12.575 8.9503L10.9364 9.76962M12.575 8.9503V8.8944L10.8864 9.73872M10.9364 9.76962L10.8864 16.9325V9.73872M10.9364 9.76962L10.9087 9.78344L10.8864 9.73872M10.9364 9.76962V9.73872H10.8864M14.3911 9.73441L13.4477 11.0974V8.51394L15.6659 7.40485V10.1008L15.0035 9.62771L15.0035 9.62768C14.9564 9.59412 14.9031 9.57023 14.8467 9.55739C14.7904 9.54455 14.732 9.54301 14.675 9.55287L14.6749 9.55289C14.618 9.5629 14.5636 9.58409 14.5149 9.61524C14.4662 9.64638 14.4241 9.68686 14.3911 9.73435L14.3911 9.73441ZM16.1989 6.16265L9.06113 2.59369L10.5 1.87416L17.6379 5.44313L16.1989 6.16265ZM8.08523 3.08155L15.2232 6.65051L13.108 7.70811L5.97003 4.13915L8.08523 3.08155ZM10.5 9.01209L3.36208 5.44313L4.99432 4.627L12.1321 8.19597L10.5 9.01209ZM2.82273 13.2869V6.14916L10.0636 9.76962V16.9073L2.82273 13.2869Z" fill="black" stroke="black" stroke-width="0.1"/>
</svg>
