<svg width="20" height="20" viewBox="0 0 20 20" fill="none" xmlns="http://www.w3.org/2000/svg">
<path d="M18.2967 2.44932L18.8457 1.90014C19.0516 1.69416 19.0515 1.36029 18.8455 1.15434C18.6395 0.948505 18.3057 0.94854 18.0997 1.15452L17.5509 1.70352C17.6839 1.81868 17.8127 1.93855 17.9371 2.06292C18.0616 2.18738 18.1815 2.31627 18.2967 2.44932ZM9.94253 7.71502C10.1774 7.48018 10.1774 7.09804 9.94253 6.86316C9.70768 6.62832 9.32554 6.62832 9.0907 6.86316C8.85585 7.098 8.85582 7.48015 9.0907 7.71499C9.32554 7.94987 9.70765 7.94987 9.94253 7.71502ZM9.0907 13.2536C8.85585 13.4885 8.85582 13.8706 9.0907 14.1054C9.32554 14.3403 9.70768 14.3403 9.94253 14.1054C10.1774 13.8706 10.1774 13.4885 9.94253 13.2536C9.70765 13.0188 9.32554 13.0188 9.0907 13.2536Z" fill="black"/>
<path d="M15.9058 4.84094C16.2138 5.46092 16.11 6.23347 15.5934 6.75002C14.9462 7.39724 13.8968 7.39724 13.2496 6.75002C12.6024 6.10279 12.6024 5.05339 13.2496 4.40616C13.7667 3.88909 14.5402 3.78559 15.1605 4.09465L16.8026 2.45184C14.3764 0.403822 10.7442 0.522439 8.45816 2.80846L1.15446 10.1119C0.948514 10.3179 0.948514 10.6517 1.15446 10.8577L9.14195 18.8452C9.34789 19.0511 9.68163 19.0513 9.88754 18.8454L17.1912 11.5415C19.4771 9.2557 19.5958 5.6239 17.5484 3.19767L15.9058 4.84094ZM8.34475 6.11724C8.99081 5.47118 10.042 5.47115 10.6881 6.11724C11.3342 6.76334 11.3342 7.81458 10.6881 8.46064C10.042 9.1067 8.99078 9.1067 8.34471 8.46064C7.69865 7.81458 7.69865 6.76331 8.34475 6.11724ZM10.6881 14.851C10.042 15.4971 8.99078 15.4971 8.34471 14.851C7.69865 14.205 7.69865 13.1537 8.34471 12.5077C8.99078 11.8616 10.042 11.8616 10.6881 12.5077C11.3341 13.1538 11.3342 14.205 10.6881 14.851ZM13.1693 10.6088L5.98001 11.4076C5.70583 11.4381 5.43147 11.2461 5.39769 10.9417C5.36552 10.6523 5.5741 10.3916 5.86358 10.3594L13.0528 9.56057C13.3422 9.5284 13.603 9.73695 13.6351 10.0265C13.6673 10.3159 13.4587 10.5766 13.1693 10.6088Z" fill="black"/>
</svg>
