<svg width="20" height="20" viewBox="0 0 20 20" fill="none" xmlns="http://www.w3.org/2000/svg">
<path d="M5.9616 8.11532H8.84624V19.0001H5.9616V8.11532ZM10.9232 10.423H13.8078V19.0001H10.9232V10.423ZM15.8848 6.34607H18.7694V19.0001H15.8848V6.34607ZM1 12.2308H3.88465V19.0001H1V12.2308Z" fill="black"/>
<path d="M17.229 1C16.4224 1 15.7685 1.65343 15.7685 2.45948C15.7685 2.64813 15.8047 2.82825 15.87 2.99375L13.0552 5.39159C12.8419 5.27617 12.6032 5.21591 12.3607 5.21628C11.9433 5.21628 11.567 5.39155 11.3009 5.67213L8.87099 4.67697C8.87118 4.66754 8.87172 4.6582 8.87172 4.6487C8.87172 3.84265 8.21783 3.18922 7.4112 3.18922C6.60458 3.18922 5.95072 3.84265 5.95072 4.6487C5.95072 4.73027 5.95772 4.81016 5.97061 4.88808L3.44616 6.38068C3.18895 6.17754 2.87067 6.06723 2.54291 6.06764C1.73629 6.06764 1.0824 6.72107 1.0824 7.52711C1.0824 8.33316 1.73629 8.98659 2.54291 8.98659C3.34954 8.98659 4.00339 8.33316 4.00339 7.52711C4.00333 7.44691 3.99667 7.36684 3.98351 7.28773L6.50796 5.79513C6.76518 5.99828 7.08348 6.10859 7.41124 6.10818C7.82867 6.10818 8.2049 5.9329 8.47106 5.65232L10.9009 6.64749C10.9007 6.65691 10.9002 6.66626 10.9002 6.67572C10.9002 7.48177 11.5541 8.1352 12.3607 8.1352C13.1673 8.1352 13.8212 7.48177 13.8212 6.67572C13.8212 6.50683 13.7922 6.34479 13.7394 6.19391L16.5852 3.76957C16.7855 3.86809 17.0058 3.91921 17.229 3.91896C18.0357 3.91896 18.6896 3.26553 18.6896 2.45948C18.6896 1.65343 18.0356 1 17.229 1Z" fill="black"/>
</svg>
