<svg width="20" height="20" viewBox="0 0 20 20" fill="none" xmlns="http://www.w3.org/2000/svg">
<path d="M17.36 1.99866H2.64C2.286 1.99866 2 2.28466 2 2.63866V17.3587C2 17.7127 2.286 17.9987 2.64 17.9987H9.84C9.928 17.9987 10 17.9267 10 17.8387V16.7187C10 16.6307 9.928 16.5587 9.84 16.5587H3.44V3.43866H16.56V9.83866C16.56 9.92666 16.632 9.99866 16.72 9.99866H17.84C17.928 9.99866 18 9.92666 18 9.83866V2.63866C18 2.28466 17.714 1.99866 17.36 1.99866ZM12.826 11.7467L13.87 10.7027C13.8911 10.6814 13.9059 10.6546 13.9126 10.6254C13.9193 10.5962 13.9176 10.5657 13.9079 10.5373C13.8981 10.509 13.8805 10.484 13.8572 10.4651C13.8339 10.4463 13.8058 10.4343 13.776 10.4307L10.188 10.0107C10.086 9.99866 9.998 10.0847 10.01 10.1887L10.43 13.7767C10.446 13.9087 10.608 13.9647 10.702 13.8707L11.75 12.8227L16.874 17.9467C16.936 18.0087 17.038 18.0087 17.1 17.9467L17.948 17.0987C18.01 17.0367 18.01 16.9347 17.948 16.8727L12.826 11.7467Z" fill="black"/>
</svg>
