<!-- Generated by IcoMoon.io -->
<svg version="1.1" xmlns="http://www.w3.org/2000/svg" width="34" height="32" viewBox="0 0 34 32">
<title>sortby</title>
<path d="M20.4 6.8c1.6 0.8 3 1.6 4.4 2.4 0.2 0 0.2 0.2 0.4 0.2 0.6 0.4 1.4 0.2 1.8-0.2s0.4-0.8-0.2-1.2c-1-0.6-2-1.2-3-1.8-1.2-0.6-2.4-1.4-3.6-2-0.4 0-0.6 0-0.8-0.2-0.6-0.2-1.4 0-1.4 0.6 0 0.2 0 0.4 0 0.6 0 7.2 0 14.6 0 21.8 0 0.2 0 0.4 0 0.6 0.2 0.2 0.6 0.4 1 0.4 0.6 0 1-0.2 1.2-0.6 0.2-0.2 0-0.4 0-0.6 0-6.6 0-13 0-19.6 0.2 0 0.2-0.2 0.2-0.4v0z"></path>
<path d="M12 25.2c-1.4-0.8-2.6-1.6-3.8-2.2-0.2-0.2-0.4-0.2-0.8-0.4-0.6-0.4-1.4-0.4-1.8 0s-0.4 0.8 0.2 1.2c1.6 1 3.4 2 5 3 0.6 0.4 1 0.6 1.6 1 0.4 0.2 0.8 0.2 1.4 0.2 0.6-0.2 0.6-0.4 0.6-0.8 0-0.2 0-0.2 0-0.4 0-7.2 0-14.4 0-21.6 0-0.2 0-0.2 0-0.4 0-0.4-0.6-0.8-1.2-0.8s-1.2 0.4-1.2 0.8c0 0.2 0 0.4 0 0.4 0 6.4 0 13 0 19.4v0.6z"></path>
</svg>
