<svg width="20" height="20" viewBox="0 0 20 20" fill="none" xmlns="http://www.w3.org/2000/svg">
<path d="M14.2518 11.0361L12.5161 10.0702L10.429 19H15.1433V12.5771C15.1433 12.2619 15.0606 11.9525 14.9038 11.6814C14.7469 11.4103 14.5217 11.1874 14.2518 11.0361ZM7.42901 3.19512C7.42901 2.76097 7.30334 2.33656 7.06788 1.97558C6.83242 1.61459 6.49775 1.33324 6.1062 1.16709C5.71464 1.00095 5.28379 0.95748 4.86811 1.04218C4.45244 1.12688 4.07062 1.33594 3.77094 1.64294C3.47126 1.94993 3.26717 2.34106 3.18449 2.76688C3.1018 3.19269 3.14424 3.63405 3.30643 4.03516C3.46861 4.43627 3.74327 4.7791 4.09566 5.0203C4.44805 5.2615 4.86235 5.39024 5.28616 5.39024C5.73984 5.38551 6.18004 5.23161 6.54187 4.95122C6.73682 4.54234 6.99925 4.17103 7.31758 3.85366C7.38942 3.64181 7.42705 3.41938 7.42901 3.19512Z" fill="black"/>
<path d="M10.0004 9.7805C11.6572 9.7805 13.0003 8.40459 13.0003 6.70733C13.0003 5.01006 11.6572 3.63416 10.0004 3.63416C8.34351 3.63416 7.00037 5.01006 7.00037 6.70733C7.00037 8.40459 8.34351 9.7805 10.0004 9.7805Z" fill="black"/>
<path d="M16.8571 3.19512C16.8571 2.61294 16.6314 2.0546 16.2295 1.64294C15.8276 1.23127 15.2826 1 14.7143 1C14.146 1 13.6009 1.23127 13.199 1.64294C12.7972 2.0546 12.5714 2.61294 12.5714 3.19512C12.5715 3.42528 12.6092 3.6538 12.6828 3.87122C12.9996 4.18332 13.2619 4.54858 13.4586 4.95122C13.8204 5.23161 14.2606 5.38551 14.7143 5.39024C14.9957 5.39024 15.2743 5.33346 15.5343 5.22315C15.7943 5.11283 16.0305 4.95114 16.2295 4.74731C16.4285 4.54347 16.5863 4.30148 16.694 4.03516C16.8017 3.76883 16.8571 3.48339 16.8571 3.19512ZM6.14287 6.70732C6.14331 6.5117 6.15908 6.31644 6.19001 6.12341C5.89744 6.21814 5.59256 6.26698 5.28573 6.26829C4.673 6.26899 4.07476 6.07748 3.57145 5.71951L2.11431 6.26829C1.78551 6.39413 1.50234 6.62033 1.30306 6.91633C1.10379 7.21233 0.998012 7.56386 1.00003 7.92341V14.1707H4.00002V12.5771C4.00072 12.1043 4.12563 11.6404 4.36166 11.234C4.59768 10.8277 4.93611 10.494 5.34144 10.2678L7.08572 9.28878C6.47915 8.57211 6.14449 7.65584 6.14287 6.70732ZM17.8857 6.26829L16.4286 5.71951C15.9252 6.07748 15.327 6.26899 14.7143 6.26829C14.4074 6.26698 14.1026 6.21814 13.81 6.12341C13.8409 6.31644 13.8567 6.5117 13.8571 6.70732C13.8555 7.65584 13.5208 8.57211 12.9143 9.28878L14.6586 10.2678C15.0639 10.494 15.4023 10.8277 15.6383 11.234C15.8744 11.6404 15.9993 12.1043 16 12.5771V14.1707H19V7.92341C19.002 7.56386 18.8962 7.21233 18.6969 6.91633C18.4977 6.62033 18.2145 6.39413 17.8857 6.26829ZM10.4286 11.5366V15.2595L10 17.1034L9.57143 15.2595V11.5366C9.57143 11.4201 9.61658 11.3085 9.69695 11.2261C9.77733 11.1438 9.88634 11.0976 10 11.0976C10.1137 11.0976 10.2227 11.1438 10.303 11.2261C10.3834 11.3085 10.4286 11.4201 10.4286 11.5366Z" fill="black"/>
<path d="M10.4286 11.5367V15.2596L10 17.1035L9.57145 15.2596V11.5367C9.57145 11.4202 9.6166 11.3085 9.69697 11.2262C9.77735 11.1439 9.88635 11.0976 10 11.0976C10.1137 11.0976 10.2227 11.1439 10.3031 11.2262C10.3834 11.3085 10.4286 11.4202 10.4286 11.5367ZM5.7486 11.0362C5.4787 11.1874 5.25352 11.4103 5.09668 11.6815C4.93983 11.9526 4.85711 12.262 4.85718 12.5771V19.0001H9.57145L7.48431 10.0703L5.7486 11.0362Z" fill="black"/>
</svg>
