<?xml version="1.0" encoding="utf-8"?>
<!-- Generator: Adobe Illustrator 28.1.0, SVG Export Plug-In . SVG Version: 6.00 Build 0)  -->
<svg version="1.1" id="Layer_1" xmlns="http://www.w3.org/2000/svg" xmlns:xlink="http://www.w3.org/1999/xlink" x="0px" y="0px"
	 viewBox="0 0 24 25" style="enable-background:new 0 0 24 25;" xml:space="preserve">
<g>
	<path d="M12.6,5.8c0-0.4-0.3-0.6-0.6-0.6s-0.6,0.3-0.6,0.6v0.6h1.3V5.8z"/>
	<path d="M15.9,18.4H21l0-16.9H3v22h12.9V18.4z M18.2,15.9H5.8v-1.3h12.4V15.9z M18.2,13.1H5.8v-1.3h12.4V13.1z M14.6,3.9H16
		l0.6,1.4l0.6-1.4h1.4l-1.4,2.9l1.4,2.9h-1.4l-0.7-1.4L16,9.7h-1.4l1.4-2.9L14.6,3.9z M10,5.8c0-1.1,0.9-1.9,1.9-1.9
		c1.1,0,1.9,0.9,1.9,1.9v3.9h-1.3V7.7h-1.3v1.9H10V5.8z M5.3,3.9h3.9v1.3H7.9v4.5H6.6V5.2H5.3V3.9z M14.3,21.4H5.8v-1.3h8.5
		L14.3,21.4L14.3,21.4z M5.8,18.6v-1.3h8.5v1.3H5.8z"/>
	<path d="M17.2,19.7v3.8l3.8-3.8H17.2z"/>
</g>
</svg>
