<!-- Generated by IcoMoon.io -->
<svg version="1.1" xmlns="http://www.w3.org/2000/svg" width="32" height="32" viewBox="0 0 32 32">
<title>brand</title>
<path d="M15.6 24c-6.267 0-11.333-5.067-11.333-11.2 0-6.267 5.067-11.333 11.333-11.333s11.333 5.067 11.333 11.333c0 6.133-5.067 11.2-11.333 11.2zM15.6 3.333c-5.2 0-9.467 4.267-9.467 9.467s4.267 9.467 9.467 9.467c5.2 0 9.467-4.267 9.467-9.467s-4.267-9.467-9.467-9.467z"></path>
<path d="M20.133 30.8c0 0-0.133 0 0 0-0.533 0-0.8-0.267-0.933-0.667l-2.8-6.667c-0.267-0.533 0-1.067 0.533-1.333s1.067 0 1.333 0.533l2.133 4.933 0.933-1.2c0.267-0.267 0.667-0.533 1.067-0.4l1.467 0.4-2.133-4.533c-0.267-0.533 0-1.067 0.533-1.333s1.067 0 1.333 0.533l3.067 6.533c0.133 0.4 0.133 0.8-0.133 1.067s-0.667 0.4-1.067 0.267l-2.933-0.8-1.467 2.133c-0.4 0.4-0.667 0.533-0.933 0.533v0z"></path>
<path d="M11.067 30.8c-0.267 0-0.667-0.133-0.8-0.4l-1.467-2.133-2.933 0.8c-0.4 0.133-0.8 0-1.067-0.267s-0.267-0.667-0.133-1.067l3.067-6.533c0.267-0.533 0.8-0.667 1.333-0.533 0.533 0.267 0.667 0.8 0.533 1.333l-2.133 4.533 1.467-0.4c0.4-0.133 0.8 0 1.067 0.4l0.933 1.2 2-5.067c0.267-0.533 0.8-0.8 1.333-0.533s0.8 0.8 0.533 1.333l-2.8 6.667c-0.133 0.4-0.4 0.533-0.933 0.667 0.133 0 0 0 0 0v0z"></path>
<path d="M19.6 19.467c-0.133 0-0.267 0-0.4-0.133l-3.467-1.867-3.467 1.867c-0.267 0.133-0.667 0.133-0.933-0.133s-0.4-0.533-0.4-0.933l0.667-3.867-2.933-2.533c-0.267-0.267-0.4-0.667-0.267-1.067 0.133-0.267 0.4-0.533 0.8-0.667l3.867-0.533 1.733-3.6c0.267-0.667 1.333-0.667 1.6 0l1.733 3.6 3.867 0.533c0.4 0 0.667 0.267 0.8 0.667 0.133 0.267 0 0.667-0.267 0.933l-2.8 2.8 0.667 3.867c0 0.4-0.133 0.667-0.4 0.933 0 0.133-0.267 0.133-0.4 0.133v0zM15.6 15.6c0.133 0 0.267 0 0.4 0.133l2.267 1.2-0.4-2.533c0-0.267 0-0.667 0.267-0.8l1.867-1.867-2.533-0.4c-0.267 0-0.533-0.267-0.667-0.533l-1.067-2.267-1.067 2.267c-0.133 0.267-0.4 0.4-0.667 0.533l-2.667 0.4 1.867 1.733c0.267 0.267 0.267 0.533 0.267 0.8l-0.4 2.533 2.267-1.2c0 0 0.133 0 0.267 0z"></path>
</svg>
