<!-- Generated by IcoMoon.io -->
<svg version="1.1" xmlns="http://www.w3.org/2000/svg" width="32" height="32" viewBox="0 0 32 32">
<title>cancel-popup</title>
<path d="M16 1.467c-8.107 0-14.667 6.56-14.667 14.667s6.56 14.667 14.667 14.667 14.667-6.56 14.667-14.667c0-8.093-6.56-14.667-14.667-14.667zM23.333 22.587c0.293 0.293 0.293 0.76 0 1.053-0.147 0.147-0.333 0.213-0.52 0.213s-0.387-0.067-0.52-0.213l-6.093-6.12-6.093 6.12c-0.147 0.147-0.333 0.213-0.52 0.213s-0.373-0.067-0.52-0.213c-0.293-0.293-0.293-0.76 0-1.053l6.093-6.12-6.107-6.12c-0.293-0.293-0.293-0.76 0-1.053s0.76-0.293 1.053 0l6.093 6.12 6.093-6.12c0.293-0.293 0.76-0.293 1.053 0s0.293 0.76 0 1.053l-6.093 6.12 6.080 6.12z"></path>
</svg>
