<!-- Generated by IcoMoon.io -->
<svg version="1.1" xmlns="http://www.w3.org/2000/svg" width="32" height="32" viewBox="0 0 32 32">
<title>community</title>
<path d="M16 1.333c-2.933 0-5.733 0.8-8.133 2.533-2.4 1.6-4.267 3.867-5.467 6.533s-1.333 5.6-0.8 8.4c0.533 2.8 2 5.467 4 7.467s4.667 3.467 7.467 4c2.8 0.533 5.733 0.267 8.533-0.8 2.667-1.067 4.933-2.933 6.533-5.467 1.6-2.4 2.533-5.2 2.533-8.133 0-3.867-1.6-7.6-4.267-10.4s-6.533-4.133-10.4-4.133zM26.533 9.867h-4c-0.933-2-2-4-3.467-5.733 3.2 0.933 5.867 2.933 7.467 5.733zM21.467 16c0 1.2-0.267 2.533-0.533 3.733h-9.867c-0.4-1.2-0.533-2.533-0.533-3.733s0.267-2.533 0.533-3.733h9.867c0.4 1.2 0.533 2.533 0.533 3.733zM12 22.133h8c-1.067 2-2.4 4-4 5.6-1.6-1.733-2.933-3.6-4-5.6zM12 9.867c1.067-2 2.4-4 4-5.6 1.6 1.733 2.933 3.6 4 5.6h-8zM12.8 4.133c-1.333 1.733-2.533 3.733-3.467 5.733h-4c1.733-2.8 4.4-4.8 7.467-5.733zM4.4 12.267h4.133c-0.667 2.4-0.667 4.933 0 7.333h-4.133c-0.8-2.267-0.8-4.933 0-7.333zM5.467 22.133h4c0.933 2 2 4 3.467 5.733-3.2-0.933-5.867-2.933-7.467-5.733zM19.2 27.867c1.467-1.733 2.533-3.6 3.467-5.733h4c-1.733 2.8-4.4 4.8-7.467 5.733zM27.6 19.733h-4.133c0.667-2.4 0.667-4.933 0-7.333h4.133c0.8 2.267 0.8 4.933 0 7.333z"></path>
</svg>
