<!-- Generated by IcoMoon.io -->
<svg version="1.1" xmlns="http://www.w3.org/2000/svg" width="32" height="32" viewBox="0 0 32 32">
<title>comment</title>
<path d="M17.76 14.24c-0.64 0-1.12 0.48-1.12 1.12s0.48 1.12 1.12 1.12c0.64 0 1.12-0.48 1.12-1.12s-0.48-1.12-1.12-1.12zM9.76 14.24c-0.64 0-1.12 0.48-1.12 1.12s0.48 1.12 1.12 1.12c0.64 0 1.12-0.48 1.12-1.12s-0.48-1.12-1.12-1.12z"></path>
<path d="M26.88 12c-1.28-1.76-3.2-3.2-5.44-3.68v0c-0.48-0.48-1.12-1.12-1.6-1.44-4.64-3.36-11.2-2.4-14.72 2.24-2.72 3.84-2.56 8.96 0.16 12.48v3.84c0 0.16 0 0.16 0 0.32s0.16 0.16 0.16 0.32c0 0.16 0.16 0.16 0.32 0.16s0.16 0.16 0.32 0.16c0.16 0 0.16 0 0.32 0l3.68-1.12c0.96 0.32 1.92 0.48 2.88 0.64v0c2.56 1.92 5.92 2.4 8.96 1.44l3.68 1.12c0.16 0 0.16 0 0.32 0 0.48 0 0.96-0.48 0.96-0.96v-3.84c2.56-3.52 2.56-8.16 0-11.68zM10.56 23.2l-0.32-0.16-2.88 0.96v-3.040l-0.16-0.32c-2.4-2.88-2.56-7.2-0.32-10.24 2.72-3.84 8-4.64 11.84-1.92s4.64 8 1.92 11.84c-2.4 3.040-6.56 4.16-10.080 2.88zM24.96 22.72l-0.16 0.32v3.040l-2.72-0.96-0.32 0.16c-1.6 0.64-3.36 0.64-4.96 0.16v0c2.24-0.64 4-2.080 5.44-3.84 2.24-3.040 2.56-6.72 1.28-10.080v0c0.64 0.48 1.28 1.12 1.76 1.76 2.080 2.72 1.92 6.72-0.32 9.44z"></path>
<path d="M13.76 14.24c-0.64 0-1.12 0.48-1.12 1.12s0.48 1.12 1.12 1.12c0.64 0 1.12-0.48 1.12-1.12s-0.48-1.12-1.12-1.12z"></path>
</svg>
