<!-- Generated by IcoMoon.io -->
<svg version="1.1" xmlns="http://www.w3.org/2000/svg" width="32" height="32" viewBox="0 0 32 32">
<title>infor-outline</title>
<path d="M16 4c-6.667 0-12 5.333-12 12s5.333 12 12 12c6.667 0 12-5.333 12-12s-5.333-12-12-12zM1.333 16c0-8.133 6.533-14.667 14.667-14.667s14.667 6.533 14.667 14.667c0 8.133-6.533 14.667-14.667 14.667s-14.667-6.533-14.667-14.667z"></path>
<path d="M16 14.4c0.933 0 1.6 0.667 1.6 1.333v5.467c0 0.8-0.667 1.333-1.6 1.333s-1.6-0.667-1.6-1.333v-5.467c0-0.8 0.667-1.333 1.6-1.333z"></path>
<path d="M14.4 11.067c0-0.933 0.667-1.6 1.6-1.6v0c0.933 0 1.6 0.667 1.6 1.6s-0.667 1.733-1.6 1.733v0c-0.933 0-1.6-0.8-1.6-1.733z"></path>
</svg>
