<!-- Generated by IcoMoon.io -->
<svg version="1.1" xmlns="http://www.w3.org/2000/svg" width="32" height="32" viewBox="0 0 32 32">
<title>radio-button-true</title>
<path d="M1.6 16c0-7.949 6.451-14.4 14.4-14.4s14.4 6.451 14.4 14.4c0 7.949-6.451 14.4-14.4 14.4s-14.4-6.451-14.4-14.4zM4.48 16c0 6.365 5.155 11.52 11.52 11.52s11.52-5.155 11.52-11.52c0-6.365-5.155-11.52-11.52-11.52s-11.52 5.155-11.52 11.52z"></path>
<path d="M23.2 16c0 3.976-3.224 7.2-7.2 7.2s-7.2-3.224-7.2-7.2c0-3.976 3.224-7.2 7.2-7.2s7.2 3.224 7.2 7.2z"></path>
</svg>
