<svg width="24" height="24" viewBox="0 0 24 24" fill="none" xmlns="http://www.w3.org/2000/svg">
<path d="M11.502 11.4807C10.5366 11.4807 9.71195 11.1387 9.02795 10.4547C8.34395 9.77088 8.00195 8.94621 8.00195 7.98071C8.00195 7.01538 8.34395 6.19071 9.02795 5.50671C9.71195 4.82271 10.5366 4.48071 11.502 4.48071C12.4673 4.48071 13.292 4.82271 13.976 5.50671C14.66 6.19071 15.002 7.01538 15.002 7.98071C15.002 8.94621 14.66 9.77088 13.976 10.4547C13.292 11.1387 12.4673 11.4807 11.502 11.4807ZM4.00195 17.577V16.873C4.00195 16.3833 4.13495 15.9298 4.40095 15.5125C4.66695 15.0951 5.02245 14.7743 5.46745 14.55C6.45579 14.0655 7.45287 13.702 8.4587 13.4597C9.46454 13.2174 10.479 13.0962 11.502 13.0962C12.525 13.0962 13.5394 13.2174 14.5452 13.4597C15.551 13.702 16.5481 14.0655 17.5365 14.55C17.9815 14.7743 18.337 15.0951 18.603 15.5125C18.869 15.9298 19.002 16.3833 19.002 16.873V17.577C19.002 17.9986 18.8542 18.3573 18.5587 18.653C18.2632 18.9485 17.9045 19.0962 17.4827 19.0962H5.5212C5.09937 19.0962 4.7407 18.9485 4.4452 18.653C4.1497 18.3573 4.00195 17.9986 4.00195 17.577Z" fill="#1C1B1F"/>
</svg>
