<svg width="24" height="24" viewBox="0 0 24 24" fill="none" xmlns="http://www.w3.org/2000/svg">
<path d="M16.1703 12.4201H4.80884C4.596 12.4201 4.41784 12.3483 4.27434 12.2046C4.13067 12.0611 4.05884 11.883 4.05884 11.6701C4.05884 11.4573 4.13067 11.2791 4.27434 11.1356C4.41784 10.992 4.596 10.9201 4.80884 10.9201H16.1703L12.8781 7.62787C12.7294 7.47904 12.656 7.30496 12.6578 7.10562C12.6598 6.90629 12.7333 6.72904 12.8781 6.57387C13.0333 6.41887 13.2114 6.33879 13.4126 6.33362C13.6139 6.32846 13.7922 6.40346 13.9473 6.55862L18.4261 11.0374C18.5198 11.131 18.5858 11.2298 18.6241 11.3336C18.6626 11.4375 18.6818 11.5496 18.6818 11.6701C18.6818 11.7906 18.6626 11.9028 18.6241 12.0066C18.5858 12.1105 18.5198 12.2092 18.4261 12.3029L13.9473 16.7816C13.7985 16.9303 13.6219 17.0037 13.4176 17.0019C13.2131 16.9999 13.0333 16.9214 12.8781 16.7664C12.7333 16.6112 12.6583 16.4355 12.6531 16.2394C12.6479 16.0432 12.7229 15.8675 12.8781 15.7124L16.1703 12.4201Z" fill="#1C1B1F"/>
</svg>
