<svg width="25" height="24" viewBox="0 0 25 24" fill="none" xmlns="http://www.w3.org/2000/svg">
<path d="M12.0042 17.1055C13.1517 17.1055 14.1244 16.7065 14.9224 15.9085C15.7204 15.1105 16.1194 14.1377 16.1194 12.9902C16.1194 11.8427 15.7204 10.87 14.9224 10.072C14.1244 9.27398 13.1517 8.87498 12.0042 8.87498C10.8567 8.87498 9.8839 9.27398 9.0859 10.072C8.2879 10.87 7.8889 11.8427 7.8889 12.9902C7.8889 14.1377 8.2879 15.1105 9.0859 15.9085C9.8839 16.7065 10.8567 17.1055 12.0042 17.1055ZM12.0042 15.6057C11.2657 15.6057 10.6452 15.3544 10.1427 14.8517C9.63998 14.3492 9.38865 13.7287 9.38865 12.9902C9.38865 12.2517 9.63998 11.6312 10.1427 11.1287C10.6452 10.6261 11.2657 10.3747 12.0042 10.3747C12.7427 10.3747 13.3632 10.6261 13.8657 11.1287C14.3683 11.6312 14.6197 12.2517 14.6197 12.9902C14.6197 13.7287 14.3683 14.3492 13.8657 14.8517C13.3632 15.3544 12.7427 15.6057 12.0042 15.6057ZM4.3119 20.4902C3.80673 20.4902 3.37915 20.3152 3.02915 19.9652C2.67915 19.6152 2.50415 19.1877 2.50415 18.6825V7.29798C2.50415 6.79282 2.67915 6.36523 3.02915 6.01523C3.37915 5.66523 3.80673 5.49023 4.3119 5.49023H7.36565L8.6734 4.07298C8.83757 3.89215 9.03598 3.74982 9.26865 3.64598C9.50132 3.54215 9.74648 3.49023 10.0042 3.49023H14.0042C14.2618 3.49023 14.507 3.54215 14.7396 3.64598C14.9723 3.74982 15.1707 3.89215 15.3349 4.07298L16.6426 5.49023H19.6964C20.2016 5.49023 20.6292 5.66523 20.9792 6.01523C21.3292 6.36523 21.5042 6.79282 21.5042 7.29798V18.6825C21.5042 19.1877 21.3292 19.6152 20.9792 19.9652C20.6292 20.3152 20.2016 20.4902 19.6964 20.4902H4.3119Z" fill="#1C1B1F"/>
</svg>
