<svg width="24" height="24" viewBox="0 0 24 24" fill="none" xmlns="http://www.w3.org/2000/svg">
<path d="M10.95 13.0655L9.35775 11.473C9.20892 11.3243 9.03483 11.2484 8.8355 11.2453C8.63617 11.2421 8.45892 11.318 8.30375 11.473C8.14875 11.6282 8.07125 11.8064 8.07125 12.0078C8.07125 12.2089 8.14875 12.3871 8.30375 12.5423L10.3173 14.5713C10.4981 14.7519 10.709 14.8423 10.95 14.8423C11.191 14.8423 11.4019 14.7519 11.5827 14.5713L15.727 10.427C15.8757 10.2782 15.9516 10.1015 15.9548 9.897C15.9579 9.69267 15.882 9.51292 15.727 9.35775C15.5718 9.20258 15.3936 9.125 15.1923 9.125C14.9911 9.125 14.8129 9.20258 14.6578 9.35775L10.95 13.0655ZM12 21.371C11.8962 21.371 11.7942 21.3627 11.6942 21.346C11.5942 21.3293 11.4974 21.3043 11.4037 21.271C9.29492 20.521 7.61708 19.1913 6.37025 17.2818C5.12342 15.3721 4.5 13.3115 4.5 11.1V6.59625C4.5 6.21792 4.60967 5.87658 4.829 5.57225C5.04817 5.26775 5.33017 5.04692 5.675 4.90975L11.3672 2.78475C11.5814 2.70775 11.7923 2.66925 12 2.66925C12.2077 2.66925 12.4186 2.70775 12.6328 2.78475L18.325 4.90975C18.6698 5.04692 18.9518 5.26775 19.171 5.57225C19.3903 5.87658 19.5 6.21792 19.5 6.59625V11.1C19.5 13.3115 18.8766 15.3721 17.6298 17.2818C16.3829 19.1913 14.7051 20.521 12.5963 21.271C12.5026 21.3043 12.4058 21.3293 12.3058 21.346C12.2058 21.3627 12.1038 21.371 12 21.371Z" fill="#1C1B1F"/>
</svg>
