<svg width="24" height="24" viewBox="0 0 24 24" fill="none" xmlns="http://www.w3.org/2000/svg">
<path d="M10.5438 14.1463L8.22076 11.823C8.08226 11.6847 7.90818 11.6138 7.69851 11.6105C7.48901 11.6073 7.31176 11.6782 7.16676 11.823C7.02193 11.968 6.94951 12.1437 6.94951 12.35C6.94951 12.5563 7.02193 12.732 7.16676 12.877L9.91101 15.6212C10.0918 15.8019 10.3028 15.8923 10.5438 15.8923C10.7848 15.8923 10.9957 15.8019 11.1765 15.6212L16.74 10.0578C16.8783 9.91925 16.9492 9.74517 16.9525 9.5355C16.9557 9.326 16.8848 9.14875 16.74 9.00375C16.595 8.85892 16.4193 8.7865 16.213 8.7865C16.0067 8.7865 15.831 8.85892 15.686 9.00375L10.5438 14.1463ZM11.9648 21.5C10.6508 21.5 9.41568 21.2507 8.25951 20.752C7.10335 20.2533 6.09768 19.5766 5.24251 18.7218C4.38735 17.8669 3.71026 16.8617 3.21126 15.706C2.71243 14.5503 2.46301 13.3156 2.46301 12.0017C2.46301 10.6877 2.71235 9.45267 3.21101 8.2965C3.70968 7.14033 4.38643 6.13467 5.24126 5.2795C6.0961 4.42433 7.10135 3.74725 8.25701 3.24825C9.41268 2.74942 10.6474 2.5 11.9613 2.5C13.2753 2.5 14.5103 2.74933 15.6665 3.248C16.8227 3.74667 17.8283 4.42342 18.6835 5.27825C19.5387 6.13308 20.2158 7.13833 20.7148 8.294C21.2136 9.44967 21.463 10.6844 21.463 11.9983C21.463 13.3123 21.2137 14.5473 20.715 15.7035C20.2163 16.8597 19.5396 17.8653 18.6848 18.7205C17.8299 19.5757 16.8247 20.2528 15.669 20.7518C14.5133 21.2506 13.2786 21.5 11.9648 21.5ZM11.963 20C14.1963 20 16.088 19.225 17.638 17.675C19.188 16.125 19.963 14.2333 19.963 12C19.963 9.76667 19.188 7.875 17.638 6.325C16.088 4.775 14.1963 4 11.963 4C9.72968 4 7.83801 4.775 6.28801 6.325C4.73801 7.875 3.96301 9.76667 3.96301 12C3.96301 14.2333 4.73801 16.125 6.28801 17.675C7.83801 19.225 9.72968 20 11.963 20Z" fill="#1C1B1F"/>
</svg>
