<svg width="24" height="24" viewBox="0 0 24 24" fill="none" xmlns="http://www.w3.org/2000/svg">
<path d="M10.5808 14.043L8.25775 11.7197C8.11925 11.5814 7.94517 11.5106 7.7355 11.5072C7.526 11.5041 7.34875 11.5749 7.20375 11.7197C7.05892 11.8647 6.9865 12.0404 6.9865 12.2467C6.9865 12.4531 7.05892 12.6287 7.20375 12.7737L9.948 15.518C10.1288 15.6986 10.3398 15.789 10.5808 15.789C10.8218 15.789 11.0327 15.6986 11.2135 15.518L16.777 9.95448C16.9153 9.81598 16.9862 9.64189 16.9895 9.43223C16.9927 9.22273 16.9218 9.04548 16.777 8.90048C16.632 8.75565 16.4563 8.68323 16.25 8.68323C16.0437 8.68323 15.868 8.75565 15.723 8.90048L10.5808 14.043ZM12.0017 21.3967C10.6877 21.3967 9.45267 21.1474 8.2965 20.6487C7.14033 20.1501 6.13467 19.4733 5.2795 18.6185C4.42433 17.7636 3.74725 16.7584 3.24825 15.6027C2.74942 14.4471 2.5 13.2123 2.5 11.8985C2.5 10.5845 2.74933 9.34939 3.248 8.19323C3.74667 7.03706 4.42342 6.03139 5.27825 5.17623C6.13308 4.32106 7.13833 3.64398 8.294 3.14498C9.44967 2.64615 10.6844 2.39673 11.9983 2.39673C13.3123 2.39673 14.5473 2.64606 15.7035 3.14473C16.8597 3.64339 17.8653 4.32015 18.7205 5.17498C19.5757 6.02981 20.2528 7.03506 20.7518 8.19073C21.2506 9.3464 21.5 10.5811 21.5 11.895C21.5 13.209 21.2507 14.4441 20.752 15.6002C20.2533 16.7564 19.5766 17.7621 18.7218 18.6172C17.8669 19.4724 16.8617 20.1495 15.706 20.6485C14.5503 21.1473 13.3156 21.3967 12.0017 21.3967Z" fill="#1C1B1F"/>
</svg>
