<svg width="24" height="25" viewBox="0 0 24 25" fill="none" xmlns="http://www.w3.org/2000/svg">
<path d="M10.8922 21.5814C10.5512 21.5814 10.2567 21.4682 10.0087 21.2419C9.76058 21.0157 9.60958 20.7372 9.55574 20.4064L9.31149 18.5351C9.04366 18.4455 8.76899 18.3199 8.48749 18.1584C8.20616 17.9967 7.95458 17.8236 7.73274 17.6391L5.99999 18.3756C5.68583 18.5141 5.37016 18.5276 5.05299 18.4159C4.73566 18.3044 4.48916 18.1019 4.31349 17.8084L3.18649 15.8544C3.01083 15.5609 2.96024 15.2503 3.03474 14.9226C3.10908 14.5951 3.27958 14.325 3.54624 14.1121L5.04424 12.9871C5.02124 12.8385 5.00491 12.6891 4.99524 12.5391C4.98558 12.3891 4.98074 12.2397 4.98074 12.0909C4.98074 11.9487 4.98558 11.8042 4.99524 11.6574C5.00491 11.5106 5.02124 11.35 5.04424 11.1756L3.54624 10.0506C3.27958 9.83781 3.11066 9.56597 3.03949 9.23514C2.96833 8.90447 3.02058 8.59231 3.19624 8.29864L4.31349 6.37364C4.48916 6.08647 4.73566 5.88556 5.05299 5.77089C5.37016 5.65606 5.68583 5.66789 5.99999 5.80639L7.72299 6.53339C7.96416 6.34239 8.22158 6.16772 8.49524 6.00939C8.76891 5.85106 9.03783 5.72381 9.30199 5.62764L9.55574 3.75639C9.60958 3.42556 9.76058 3.14706 10.0087 2.92089C10.2567 2.69456 10.5512 2.58139 10.8922 2.58139H13.1077C13.4487 2.58139 13.7432 2.69456 13.9912 2.92089C14.2394 3.14706 14.3904 3.42556 14.4442 3.75639L14.6885 5.63714C14.9885 5.74614 15.2599 5.87339 15.5027 6.01889C15.7457 6.16439 15.991 6.33589 16.2385 6.53339L18.0097 5.80639C18.3237 5.66789 18.6394 5.65606 18.9567 5.77089C19.2741 5.88556 19.5205 6.08647 19.696 6.37364L20.8135 8.30839C20.9892 8.60189 21.0397 8.91247 20.9652 9.24014C20.8909 9.56764 20.7204 9.83781 20.4537 10.0506L18.9172 11.2044C18.9531 11.3659 18.9727 11.5169 18.976 11.6574C18.9792 11.7977 18.9807 11.9391 18.9807 12.0814C18.9807 12.2172 18.9775 12.3554 18.971 12.4959C18.9647 12.6362 18.9417 12.7968 18.902 12.9776L20.4095 14.1121C20.6762 14.325 20.8483 14.5951 20.926 14.9226C21.0035 15.2503 20.9544 15.5609 20.7787 15.8544L19.646 17.7986C19.4705 18.0923 19.2225 18.2949 18.902 18.4064C18.5815 18.5179 18.2642 18.5044 17.95 18.3659L16.2385 17.6294C15.991 17.8269 15.7384 18.0016 15.4807 18.1534C15.2231 18.3054 14.959 18.4295 14.6885 18.5256L14.4442 20.4064C14.3904 20.7372 14.2394 21.0157 13.9912 21.2419C13.7432 21.4682 13.4487 21.5814 13.1077 21.5814H10.8922ZM11 20.0814H12.9655L13.325 17.4026C13.8353 17.2693 14.3017 17.0799 14.724 16.8344C15.1465 16.5887 15.5539 16.273 15.9462 15.8871L18.4307 16.9314L19.4155 15.2314L17.2462 13.5969C17.3296 13.3379 17.3862 13.084 17.4162 12.8351C17.4464 12.5865 17.4615 12.3352 17.4615 12.0814C17.4615 11.8211 17.4464 11.5698 17.4162 11.3276C17.3862 11.0853 17.3296 10.8378 17.2462 10.5851L19.4345 8.93139L18.45 7.23139L15.9365 8.29089C15.6018 7.93322 15.2009 7.61722 14.7337 7.34289C14.2664 7.06856 13.7937 6.87431 13.3155 6.76014L13 4.08139H11.0155L10.6845 6.75064C10.1743 6.87114 9.70324 7.05572 9.27124 7.30439C8.83908 7.55322 8.42683 7.87372 8.03449 8.26589L5.54999 7.23139L4.56549 8.93139L6.72499 10.5409C6.64166 10.7782 6.58333 11.0251 6.54999 11.2814C6.51666 11.5377 6.49999 11.8076 6.49999 12.0909C6.49999 12.3512 6.51666 12.6064 6.54999 12.8564C6.58333 13.1064 6.63849 13.3532 6.71549 13.5969L4.56549 15.2314L5.54999 16.9314L8.02499 15.8814C8.40449 16.2711 8.81024 16.5903 9.24224 16.8391C9.67441 17.0878 10.152 17.2788 10.675 17.4121L11 20.0814Z" fill="#1C1B1F"/>
<path d="M14.1355 14.2054C13.5515 14.7894 12.8435 15.0814 12.0115 15.0814C11.1691 15.0814 10.4586 14.7894 9.87972 14.2054C9.30089 13.6214 9.01147 12.9134 9.01147 12.0814C9.01147 11.2494 9.30089 10.5414 9.87972 9.95739C10.4586 9.37339 11.1691 9.08139 12.0115 9.08139C12.8435 9.08139 13.5515 9.37339 14.1355 9.95739C14.7195 10.5414 15.0115 11.2494 15.0115 12.0814C15.0115 12.9134 14.7195 13.6214 14.1355 14.2054Z" fill="#1C1B1F"/>
</svg>
