<svg width="24" height="24" viewBox="0 0 24 24" fill="none" xmlns="http://www.w3.org/2000/svg">
<path d="M12.4266 15.9656C13.4593 15.9656 14.339 15.6063 15.0659 14.8876C15.7929 14.1691 16.1564 13.2957 16.1564 12.2674C16.1564 11.7689 16.0629 11.2976 15.8759 10.8536C15.689 10.4095 15.4165 10.0161 15.0584 9.6734L13.0391 7.6944C12.8583 7.5304 12.6474 7.4484 12.4064 7.4484C12.1654 7.4484 11.9545 7.5304 11.7736 7.6944L9.75437 9.6734C9.39621 10.0161 9.12371 10.4095 8.93687 10.8536C8.74987 11.2976 8.65637 11.7689 8.65637 12.2674C8.65637 13.2957 9.02654 14.1691 9.76687 14.8876C10.5074 15.6063 11.394 15.9656 12.4266 15.9656ZM10.1564 12.2156C10.1564 11.9336 10.2144 11.6666 10.3304 11.4146C10.4464 11.1628 10.607 10.9346 10.8121 10.7301L12.4064 9.1694L14.0006 10.7301C14.2058 10.9346 14.3664 11.1628 14.4824 11.4146C14.5984 11.6666 14.6564 11.9336 14.6564 12.2156H10.1564ZM6.71412 19.2156C6.21696 19.2156 5.79137 19.0386 5.43737 18.6846C5.08337 18.3306 4.90637 17.9051 4.90637 17.4079V8.8694C4.90637 8.58323 4.97037 8.31215 5.09837 8.05615C5.22654 7.79998 5.40354 7.58906 5.62937 7.4234L11.3219 3.14465C11.6377 2.90348 11.9987 2.7829 12.4049 2.7829C12.811 2.7829 13.173 2.90348 13.4909 3.14465L19.1834 7.4234C19.4092 7.58906 19.5862 7.79998 19.7144 8.05615C19.8424 8.31215 19.9064 8.58323 19.9064 8.8694V17.4079C19.9064 17.9051 19.7294 18.3306 19.3754 18.6846C19.0214 19.0386 18.5958 19.2156 18.0986 19.2156H6.71412Z" fill="#1C1B1F"/>
</svg>
