<svg width="24" height="25" viewBox="0 0 24 25" fill="none" xmlns="http://www.w3.org/2000/svg">
<path fill-rule="evenodd" clip-rule="evenodd" d="M3.79054 20.3064C4.14054 20.6564 4.56804 20.8314 5.07304 20.8314H18.9578C19.4628 20.8314 19.8903 20.6564 20.2403 20.3064C20.5903 19.9564 20.7653 19.5288 20.7653 19.0236V11.0544C20.5775 11.4328 19.6872 11.6711 19.2655 11.7429V19.0236C19.2655 19.1135 19.2366 19.1872 19.1788 19.2449C19.1211 19.3026 19.0475 19.3314 18.9578 19.3314H5.07304C4.98338 19.3314 4.90971 19.3026 4.85204 19.2449C4.79421 19.1872 4.76529 19.1135 4.76529 19.0236V11.7429C4.35387 11.6582 3.47793 11.3981 3.26554 11.0351V19.0236C3.26554 19.5288 3.44054 19.9564 3.79054 20.3064Z" fill="#1C1B1F"/>
<path fill-rule="evenodd" clip-rule="evenodd" d="M20.7653 11.0544C21.168 10.7032 21.4702 10.2657 21.672 9.74189C21.874 9.21822 21.8782 8.65064 21.6845 8.03914L20.6538 4.71614C20.5103 4.28531 20.2815 3.94681 19.9673 3.70064C19.6533 3.45447 19.2745 3.33139 18.8308 3.33139H5.18079C4.73729 3.33139 4.35588 3.46022 4.03654 3.71789C3.71738 3.97556 3.49113 4.31464 3.35779 4.73514L2.34629 8.03914C2.15263 8.65064 2.15679 9.22014 2.35879 9.74764C2.56063 10.2753 2.86288 10.7045 3.26554 11.0351C3.47793 11.3981 4.35387 11.6582 4.76529 11.7429C4.85379 11.7827 4.93971 11.8074 5.02304 11.8169C5.10638 11.8266 5.18721 11.8314 5.26554 11.8314C5.60271 11.8314 5.94846 11.7654 6.30279 11.6334C6.65729 11.5012 7.04488 11.2249 7.46554 10.8044C7.76554 11.1621 8.11296 11.4226 8.50779 11.5861C8.90263 11.7496 9.32571 11.8314 9.77704 11.8314C10.1782 11.8314 10.5744 11.7432 10.9655 11.5669C11.3565 11.3907 11.7065 11.1366 12.0155 10.8044C12.3475 11.1366 12.7014 11.3907 13.077 11.5669C13.4527 11.7432 13.8527 11.8314 14.277 11.8314C14.768 11.8314 15.2052 11.7385 15.5885 11.5526C15.9719 11.3666 16.3039 11.1172 16.5845 10.8044C16.9052 11.1634 17.2364 11.4243 17.578 11.5871C17.9197 11.75 18.3155 11.8314 18.7655 11.8314C18.8437 11.8314 18.9193 11.8266 18.9923 11.8169C19.0655 11.8074 19.1565 11.7827 19.2655 11.7429C19.6872 11.6711 20.5775 11.4328 20.7653 11.0544ZM15.4473 9.83039C15.1723 10.1644 14.7617 10.3314 14.2155 10.3314C13.818 10.3314 13.477 10.1782 13.1923 9.87189C12.9076 9.56539 12.7653 9.20189 12.7653 8.78139V4.83139H15.177L15.7848 8.75439C15.8348 9.13772 15.7223 9.49639 15.4473 9.83039ZM10.8355 9.87189C10.549 10.1782 10.1757 10.3314 9.71554 10.3314C9.23604 10.3314 8.85779 10.1638 8.58079 9.82864C8.30379 9.49331 8.19229 9.14806 8.24629 8.79289L8.85379 4.83139H11.2655V8.78139C11.2655 9.20189 11.1222 9.56539 10.8355 9.87189ZM6.22129 9.94389C5.95463 10.2022 5.63604 10.3314 5.26554 10.3314C4.67954 10.3314 4.25838 10.1125 4.00204 9.67464C3.74554 9.23681 3.68329 8.80314 3.81529 8.37364L4.77704 5.11989C4.80904 5.02372 4.85713 4.95156 4.92129 4.90339C4.98529 4.85539 5.07179 4.83139 5.18079 4.83139H7.30379L6.71554 8.96989C6.65271 9.36089 6.48796 9.68556 6.22129 9.94389ZM20.0078 9.69389C19.7206 10.1189 19.3065 10.3314 18.7655 10.3314C18.3949 10.3314 18.0762 10.2022 17.8095 9.94389C17.5429 9.68556 17.3781 9.36089 17.3153 8.96989L16.727 4.83139H18.8C18.909 4.83139 18.9956 4.85222 19.0598 4.89389C19.1238 4.93556 19.1718 5.00447 19.2038 5.10064L20.2155 8.37364C20.3642 8.82881 20.295 9.26889 20.0078 9.69389Z" fill="#1C1B1F"/>
</svg>
