<svg width="24" height="24" viewBox="0 0 24 24" fill="none" xmlns="http://www.w3.org/2000/svg">
<path d="M12.0136 4.5C14.107 4.5 15.8806 5.22642 17.3344 6.67925C18.7882 8.13208 19.5151 9.90517 19.5151 11.9985C19.5151 14.0918 18.7887 15.8654 17.3359 17.3193C15.8831 18.7731 14.11 19.5 12.0166 19.5C9.9233 19.5 8.14972 18.7736 6.69589 17.3207C5.24205 15.8679 4.51514 14.0948 4.51514 12.0015C4.51514 9.90817 5.24155 8.13458 6.69439 6.68075C8.14722 5.22692 9.9203 4.5 12.0136 4.5ZM12.0151 18C13.6818 18 15.0985 17.4167 16.2651 16.25C17.4318 15.0833 18.0151 13.6667 18.0151 12C18.0151 10.3333 17.4318 8.91667 16.2651 7.75C15.0985 6.58333 13.6818 6 12.0151 6C10.3485 6 8.9318 6.58333 7.76514 7.75C6.59847 8.91667 6.01514 10.3333 6.01514 12C6.01514 13.6667 6.59847 15.0833 7.76514 16.25C8.9318 17.4167 10.3485 18 12.0151 18ZM8.64989 10.0017C8.64989 10.2582 8.73664 10.4728 8.91014 10.6453C9.08364 10.8176 9.29872 10.9038 9.55539 10.9038C9.81189 10.9038 10.0264 10.817 10.1989 10.6435C10.3712 10.47 10.4574 10.2549 10.4574 9.99825C10.4574 9.74175 10.3706 9.52725 10.1971 9.35475C10.0236 9.18242 9.80855 9.09625 9.55189 9.09625C9.29539 9.09625 9.08089 9.183 8.90839 9.3565C8.73605 9.53 8.64989 9.74508 8.64989 10.0017ZM13.5729 10.0017C13.5729 10.2582 13.6596 10.4728 13.8331 10.6453C14.0066 10.8176 14.2217 10.9038 14.4784 10.9038C14.7349 10.9038 14.9494 10.817 15.1219 10.6435C15.2942 10.47 15.3804 10.2549 15.3804 9.99825C15.3804 9.74175 15.2936 9.52725 15.1201 9.35475C14.9466 9.18242 14.7316 9.09625 14.4749 9.09625C14.2184 9.09625 14.0039 9.183 13.8314 9.3565C13.6591 9.53 13.5729 9.74508 13.5729 10.0017ZM1.51514 5.25V3.30775C1.51514 2.81058 1.69214 2.385 2.04614 2.031C2.40014 1.677 2.82572 1.5 3.32289 1.5H5.26514C5.47764 1.5 5.6558 1.57192 5.79964 1.71575C5.9433 1.85958 6.01514 2.03775 6.01514 2.25025C6.01514 2.46292 5.9433 2.641 5.79964 2.7845C5.6558 2.92817 5.47764 3 5.26514 3H3.32289C3.23305 3 3.1593 3.02883 3.10164 3.0865C3.04397 3.14417 3.01514 3.21792 3.01514 3.30775V5.25C3.01514 5.4625 2.94322 5.64067 2.79939 5.7845C2.65555 5.92817 2.47739 6 2.26489 6C2.05222 6 1.87414 5.92817 1.73064 5.7845C1.58697 5.64067 1.51514 5.4625 1.51514 5.25ZM5.26514 22.5H3.32289C2.82572 22.5 2.40014 22.323 2.04614 21.969C1.69214 21.615 1.51514 21.1894 1.51514 20.6923V18.75C1.51514 18.5375 1.58705 18.3593 1.73089 18.2155C1.87472 18.0718 2.05289 18 2.26539 18C2.47805 18 2.65614 18.0718 2.79964 18.2155C2.9433 18.3593 3.01514 18.5375 3.01514 18.75V20.6923C3.01514 20.7821 3.04397 20.8558 3.10164 20.9135C3.1593 20.9712 3.23305 21 3.32289 21H5.26514C5.47764 21 5.6558 21.0719 5.79964 21.2157C5.9433 21.3596 6.01514 21.5377 6.01514 21.7502C6.01514 21.9629 5.9433 22.141 5.79964 22.2845C5.6558 22.4282 5.47764 22.5 5.26514 22.5ZM20.7074 22.4038H18.7651C18.5526 22.4038 18.3745 22.3318 18.2306 22.188C18.087 22.0442 18.0151 21.866 18.0151 21.6535C18.0151 21.4408 18.087 21.2628 18.2306 21.1193C18.3745 20.9756 18.5526 20.9038 18.7651 20.9038H20.7074C20.7972 20.9038 20.871 20.8749 20.9286 20.8173C20.9863 20.7596 21.0151 20.6858 21.0151 20.596V18.6538C21.0151 18.4413 21.0871 18.2632 21.2309 18.1195C21.3747 17.9757 21.5529 17.9038 21.7654 17.9038C21.9781 17.9038 22.1561 17.9757 22.2996 18.1195C22.4433 18.2632 22.5151 18.4413 22.5151 18.6538V20.596C22.5151 21.0932 22.3381 21.5188 21.9841 21.8728C21.6301 22.2268 21.2046 22.4038 20.7074 22.4038ZM21.0151 5.25V3.30775C21.0151 3.21792 20.9863 3.14417 20.9286 3.0865C20.871 3.02883 20.7972 3 20.7074 3H18.7651C18.5526 3 18.3745 2.92808 18.2306 2.78425C18.087 2.64042 18.0151 2.46225 18.0151 2.24975C18.0151 2.03708 18.087 1.859 18.2306 1.7155C18.3745 1.57183 18.5526 1.5 18.7651 1.5H20.7074C21.2046 1.5 21.6301 1.677 21.9841 2.031C22.3381 2.385 22.5151 2.81058 22.5151 3.30775V5.25C22.5151 5.4625 22.4432 5.64067 22.2994 5.7845C22.1556 5.92817 21.9774 6 21.7649 6C21.5522 6 21.3741 5.92817 21.2306 5.7845C21.087 5.64067 21.0151 5.4625 21.0151 5.25ZM12.0151 15.3077C12.61 15.3077 13.1654 15.1706 13.6814 14.8962C14.1974 14.6217 14.6221 14.2454 14.9554 13.7673C15.0491 13.5968 15.0481 13.4263 14.9526 13.2558C14.8571 13.0853 14.7075 13 14.5036 13H9.52664C9.3228 13 9.17314 13.0853 9.07764 13.2558C8.98214 13.4263 8.98122 13.5968 9.07489 13.7673C9.40822 14.2454 9.83289 14.6217 10.3489 14.8962C10.8649 15.1706 11.4203 15.3077 12.0151 15.3077Z" fill="#1C1B1F"/>
</svg>
