<svg width="24" height="24" viewBox="0 0 24 24" fill="none" xmlns="http://www.w3.org/2000/svg">
<path d="M12.2588 19.1771C11.3533 19.1771 10.5003 19.0281 9.69981 18.7301C8.89948 18.432 8.17365 18.0162 7.52231 17.4829L5.78581 19.1944C5.64948 19.3329 5.47598 19.4021 5.26531 19.4021C5.05465 19.4021 4.88006 19.3329 4.74156 19.1944C4.60306 19.056 4.53381 18.8815 4.53381 18.6706C4.53381 18.46 4.60306 18.2865 4.74156 18.1504L6.45306 16.4386C5.91973 15.7875 5.50406 15.0575 5.20606 14.2489C4.9079 13.44 4.75881 12.5828 4.75881 11.6771C4.75881 9.58346 5.4854 7.81004 6.93856 6.35687C8.39173 4.90371 10.1651 4.17712 12.2588 4.17712H18.2396C18.6614 4.17712 19.0201 4.32487 19.3156 4.62037C19.6111 4.91587 19.7588 5.27454 19.7588 5.69637V11.6771C19.7588 13.771 19.0322 15.5444 17.5791 16.9974C16.1259 18.4505 14.3525 19.1771 12.2588 19.1771ZM12.2588 17.6771C13.9255 17.6771 15.3421 17.0938 16.5088 15.9271C17.6755 14.7605 18.2588 13.3438 18.2588 11.6771V5.67712H12.2588C10.5921 5.67712 9.17548 6.26046 8.00881 7.42712C6.84215 8.59379 6.25881 10.0105 6.25881 11.6771C6.25881 12.372 6.37165 13.0329 6.59731 13.6599C6.82298 14.2869 7.1364 14.8516 7.53756 15.3541L12.7416 10.1504C12.8779 10.0119 13.0514 9.94262 13.2621 9.94262C13.4727 9.94262 13.6482 10.0128 13.7886 10.1531C13.9417 10.3063 14.0183 10.4835 14.0183 10.6849C14.0183 10.8862 13.9408 11.0644 13.7858 11.2194L8.58181 16.4136C9.08448 16.815 9.64923 17.1259 10.2761 17.3464C10.9031 17.5669 11.564 17.6771 12.2588 17.6771Z" fill="#1C1B1F"/>
</svg>
