<svg width="24" height="24" viewBox="0 0 24 24" fill="none" xmlns="http://www.w3.org/2000/svg">
<path d="M5.55078 19.473H8.89703V14.4345C8.89703 14.1785 8.98361 13.9638 9.15678 13.7905C9.33011 13.6173 9.54478 13.5308 9.80078 13.5308H13.3008C13.5568 13.5308 13.7714 13.6173 13.9448 13.7905C14.1179 13.9638 14.2045 14.1785 14.2045 14.4345V19.473H17.5508V10.6268C17.5508 10.5756 17.5395 10.5292 17.517 10.4875C17.4947 10.4458 17.4643 10.4089 17.4258 10.3768L11.7335 6.09801C11.6822 6.05318 11.6213 6.03076 11.5508 6.03076C11.4803 6.03076 11.4194 6.05318 11.368 6.09801L5.67578 10.3768C5.63728 10.4089 5.60686 10.4458 5.58453 10.4875C5.56203 10.5292 5.55078 10.5756 5.55078 10.6268V19.473ZM4.05078 19.473V10.6268C4.05078 10.3406 4.11478 10.0695 4.24278 9.81351C4.37095 9.55735 4.54795 9.34643 4.77378 9.18076L10.4663 4.89226C10.7821 4.65126 11.1431 4.53076 11.5493 4.53076C11.9554 4.53076 12.3174 4.65126 12.6353 4.89226L18.3278 9.18076C18.5536 9.34643 18.7306 9.55735 18.8588 9.81351C18.9868 10.0695 19.0508 10.3406 19.0508 10.6268V19.473C19.0508 19.882 18.903 20.2343 18.6075 20.5298C18.312 20.8253 17.9598 20.973 17.5508 20.973H13.6085C13.3524 20.973 13.1377 20.8863 12.9645 20.713C12.7912 20.5398 12.7045 20.3252 12.7045 20.069V15.0308H10.397V20.069C10.397 20.3252 10.3104 20.5398 10.137 20.713C9.96386 20.8863 9.7492 20.973 9.49303 20.973H5.55078C5.14178 20.973 4.78953 20.8253 4.49403 20.5298C4.19853 20.2343 4.05078 19.882 4.05078 19.473Z" fill="#1C1B1F"/>
</svg>
