<svg width="24" height="24" viewBox="0 0 24 24" fill="none" xmlns="http://www.w3.org/2000/svg">
<path d="M12 18.1595C11.8128 18.1595 11.6283 18.1278 11.4465 18.0645C11.2645 18.001 11.0978 17.9058 10.9463 17.7788C9.13342 16.2571 7.7725 14.768 6.8635 13.3115C5.9545 11.8552 5.5 10.4456 5.5 9.08275C5.5 7.15958 6.10517 5.58167 7.3155 4.349C8.52567 3.11633 10.0872 2.5 12 2.5C13.9128 2.5 15.4743 3.11633 16.6845 4.349C17.8948 5.58167 18.5 7.15958 18.5 9.08275C18.5 10.4456 18.0455 11.8536 17.1365 13.3068C16.2275 14.7599 14.8665 16.2492 13.0535 17.7745C12.8998 17.9043 12.7327 18.001 12.552 18.0645C12.3712 18.1278 12.1872 18.1595 12 18.1595ZM12.0018 10.8077C12.4993 10.8077 12.9246 10.6306 13.2777 10.2762C13.6311 9.92192 13.8077 9.49592 13.8077 8.99825C13.8077 8.50075 13.6306 8.07542 13.2762 7.72225C12.9219 7.36892 12.4959 7.19225 11.9983 7.19225C11.5008 7.19225 11.0754 7.36942 10.7223 7.72375C10.3689 8.07808 10.1923 8.50408 10.1923 9.00175C10.1923 9.49925 10.3694 9.92458 10.7238 10.2777C11.0781 10.6311 11.5041 10.8077 12.0018 10.8077ZM6.25 21.5C6.0375 21.5 5.85942 21.4281 5.71575 21.2843C5.57192 21.1404 5.5 20.9623 5.5 20.7498C5.5 20.5371 5.57192 20.359 5.71575 20.2155C5.85942 20.0718 6.0375 20 6.25 20H17.75C17.9625 20 18.1406 20.0719 18.2843 20.2157C18.4281 20.3596 18.5 20.5377 18.5 20.7502C18.5 20.9629 18.4281 21.141 18.2843 21.2845C18.1406 21.4282 17.9625 21.5 17.75 21.5H6.25Z" fill="#1C1B1F"/>
</svg>
