<svg width="24" height="24" viewBox="0 0 24 24" fill="none" xmlns="http://www.w3.org/2000/svg">
<path d="M1.92024 12.9124C1.77157 12.7636 1.69824 12.5895 1.70024 12.3901C1.70207 12.1908 1.78057 12.0136 1.93574 11.8584C2.0909 11.7136 2.26657 11.6386 2.46274 11.6334C2.65874 11.6284 2.83432 11.7034 2.98949 11.8584L6.71274 15.5816L6.96274 15.3316C7.06007 15.3778 7.16232 15.4351 7.26949 15.5036C7.37649 15.5723 7.4819 15.6586 7.58574 15.7624C7.7409 15.9174 7.8159 16.093 7.81074 16.2891C7.80557 16.4853 7.7254 16.661 7.57024 16.8161L7.32999 17.0566C7.14915 17.2271 6.93824 17.3149 6.69724 17.3199C6.45624 17.3251 6.24532 17.2373 6.06449 17.0566L1.92024 12.9124ZM12.3472 15.5661L21.0202 6.89314C21.1691 6.74447 21.3432 6.67105 21.5425 6.67289C21.7418 6.67489 21.9191 6.75338 22.0742 6.90838C22.2191 7.06355 22.2941 7.23922 22.2992 7.43539C22.3042 7.63155 22.2292 7.80722 22.0742 7.96239L12.98 17.0566C12.7992 17.2373 12.5882 17.3276 12.3472 17.3276C12.1062 17.3276 11.8953 17.2373 11.7145 17.0566L7.57024 12.9124C7.4319 12.7739 7.36107 12.6024 7.35774 12.3979C7.35457 12.1934 7.4254 12.0136 7.57024 11.8584C7.7254 11.7034 7.90365 11.6259 8.10499 11.6259C8.30615 11.6259 8.48432 11.7034 8.63949 11.8584L12.3472 15.5661ZM16.4087 7.97764L12.528 11.8584C12.3895 11.9969 12.218 12.0677 12.0135 12.0709C11.809 12.0742 11.6292 12.0034 11.4742 11.8584C11.3191 11.7034 11.2415 11.5252 11.2415 11.3239C11.2415 11.1226 11.3191 10.9444 11.4742 10.7894L15.355 6.90838C15.4935 6.77005 15.6649 6.69922 15.8692 6.69588C16.0737 6.69272 16.2536 6.76355 16.4087 6.90838C16.5639 7.06355 16.6415 7.2418 16.6415 7.44314C16.6415 7.6443 16.5639 7.82247 16.4087 7.97764Z" fill="#1C1B1F"/>
</svg>
