<svg width="24" height="24" viewBox="0 0 24 24" fill="none" xmlns="http://www.w3.org/2000/svg">
<path d="M19.2952 20.7752L10.9799 12.4097C10.2838 12.4815 9.6116 12.6462 8.96343 12.9039C8.31543 13.1616 7.73177 13.4962 7.21243 13.9079C6.95227 14.0899 6.66577 14.1851 6.35293 14.1934C6.0401 14.2017 5.77727 14.0943 5.56443 13.8712C5.34143 13.6482 5.24077 13.3771 5.26243 13.0579C5.28427 12.7386 5.42018 12.4828 5.67018 12.2907C6.16252 11.8918 6.70452 11.5421 7.29618 11.2414C7.88785 10.9407 8.50168 10.7161 9.13768 10.5674L6.17593 7.60591C5.6401 7.84557 5.09427 8.13949 4.53843 8.48766C3.9826 8.83566 3.4586 9.21741 2.96643 9.63291C2.71643 9.83541 2.43335 9.93982 2.11718 9.94616C1.80118 9.95266 1.53677 9.84432 1.32393 9.62116C1.10093 9.39816 0.997767 9.13124 1.01443 8.82041C1.0311 8.50941 1.16127 8.25266 1.40493 8.05016C1.88693 7.62199 2.39168 7.22707 2.91918 6.86541C3.44685 6.50391 3.9786 6.19691 4.51443 5.94441L2.84518 4.27516C2.70668 4.13666 2.63585 3.96257 2.63268 3.75291C2.62952 3.54341 2.70035 3.36624 2.84518 3.22141C2.99002 3.07641 3.16568 3.00391 3.37218 3.00391C3.57852 3.00391 3.75418 3.07641 3.89918 3.22141L20.3739 19.6962C20.5291 19.8513 20.6067 20.0312 20.6067 20.2357C20.6067 20.4402 20.5291 20.62 20.3739 20.7752C20.2189 20.9135 20.0392 20.9868 19.8347 20.9952C19.6302 21.0035 19.4504 20.9302 19.2952 20.7752ZM11.9952 20.0289C11.4299 20.0289 10.9519 19.8312 10.5614 19.4357C10.1711 19.0402 9.97593 18.5648 9.97593 18.0097C9.97593 17.4443 10.1711 16.9665 10.5614 16.5762C10.9519 16.1858 11.4299 15.9907 11.9952 15.9907C12.5605 15.9907 13.0384 16.1858 13.4289 16.5762C13.8193 16.9665 14.0144 17.4443 14.0144 18.0097C14.0144 18.5648 13.8193 19.0402 13.4289 19.4357C13.0384 19.8312 12.5605 20.0289 11.9952 20.0289ZM18.5509 13.7117C18.3613 13.9013 18.1401 13.9937 17.8874 13.9887C17.6349 13.9835 17.4138 13.886 17.2239 13.6962L15.1127 11.5849C14.9344 11.4066 14.9039 11.2232 15.0212 11.0349C15.1385 10.8464 15.3254 10.7938 15.5817 10.8772C16.1074 11.0348 16.6084 11.2402 17.0847 11.4934C17.5609 11.7466 18.0105 12.0405 18.4337 12.3752C18.6504 12.5443 18.7715 12.7619 18.7972 13.0279C18.8227 13.2941 18.7406 13.522 18.5509 13.7117ZM22.6759 9.62116C22.4568 9.85066 22.1901 9.96157 21.8759 9.95391C21.5619 9.94624 21.2767 9.83791 21.0202 9.62891C19.801 8.58157 18.4231 7.76782 16.8864 7.18766C15.3499 6.60749 13.7195 6.31741 11.9952 6.31741C11.6452 6.31741 11.3029 6.32991 10.9682 6.35491C10.6337 6.37991 10.3094 6.41741 9.99518 6.46741C9.68752 6.52124 9.40868 6.45616 9.15868 6.27216C8.90868 6.08816 8.75677 5.84232 8.70293 5.53466C8.6491 5.22699 8.71668 4.94816 8.90568 4.69816C9.09485 4.44816 9.34327 4.29624 9.65093 4.24241C10.0061 4.18857 10.3782 4.14916 10.7672 4.12416C11.1564 4.09916 11.5657 4.08666 11.9952 4.08666C14.04 4.08666 15.9609 4.43574 17.7577 5.13391C19.5545 5.83191 21.1638 6.79566 22.5854 8.02516C22.8354 8.23799 22.9688 8.50141 22.9854 8.81541C23.0021 9.12957 22.8989 9.39816 22.6759 9.62116Z" fill="#1C1B1F"/>
</svg>
