<svg width="24" height="24" viewBox="0 0 24 24" fill="none" xmlns="http://www.w3.org/2000/svg">
<path d="M5.61572 19.2392C5.40322 19.2392 5.22514 19.1674 5.08147 19.0237C4.93764 18.8799 4.86572 18.7017 4.86572 18.489C4.86572 18.2765 4.93764 18.0984 5.08147 17.9547C5.22514 17.8112 5.40322 17.7395 5.61572 17.7395H6.67347V10.2777C6.67347 8.9329 7.08856 7.74382 7.91872 6.71049C8.74872 5.67715 9.81439 5.01624 11.1157 4.72774V4.10474C11.1157 3.75757 11.2371 3.4624 11.48 3.21924C11.7228 2.97624 12.0176 2.85474 12.3645 2.85474C12.7115 2.85474 13.0067 2.97624 13.2502 3.21924C13.4939 3.4624 13.6157 3.75757 13.6157 4.10474V4.72774C14.9171 5.01624 15.9827 5.67715 16.8127 6.71049C17.6429 7.74382 18.058 8.9329 18.058 10.2777V17.7395H19.1157C19.3282 17.7395 19.5063 17.8113 19.65 17.955C19.7938 18.0988 19.8657 18.2771 19.8657 18.4897C19.8657 18.7022 19.7938 18.8803 19.65 19.024C19.5063 19.1675 19.3282 19.2392 19.1157 19.2392H5.61572ZM12.364 22.047C11.8665 22.047 11.4411 21.87 11.088 21.516C10.7346 21.162 10.558 20.7364 10.558 20.2392H14.1735C14.1735 20.7381 13.9963 21.1641 13.642 21.5172C13.2876 21.8704 12.8616 22.047 12.364 22.047ZM8.17347 17.7395H16.558V10.2777C16.558 9.12007 16.1487 8.13199 15.3302 7.31349C14.5116 6.49482 13.5234 6.08549 12.3657 6.08549C11.2081 6.08549 10.2199 6.49482 9.40122 7.31349C8.58272 8.13199 8.17347 9.12007 8.17347 10.2777V17.7395Z" fill="#1C1B1F"/>
</svg>
