<svg width="24" height="25" viewBox="0 0 24 25" fill="none" xmlns="http://www.w3.org/2000/svg">
<path d="M3.80774 9.98513V4.79288C3.80774 4.53688 3.89432 4.32221 4.06749 4.14888C4.24082 3.97571 4.45549 3.88913 4.71149 3.88913H9.90374C10.1599 3.88913 10.3746 3.97571 10.5477 4.14888C10.7211 4.32221 10.8077 4.53688 10.8077 4.79288V9.98513C10.8077 10.2413 10.7211 10.456 10.5477 10.6291C10.3746 10.8025 10.1599 10.8891 9.90374 10.8891H4.71149C4.45549 10.8891 4.24082 10.8025 4.06749 10.6291C3.89432 10.456 3.80774 10.2413 3.80774 9.98513ZM13.1922 19.3699V14.1776C13.1922 13.9215 13.2789 13.7068 13.4522 13.5336C13.6254 13.3603 13.8401 13.2736 14.0962 13.2736H19.2885C19.5445 13.2736 19.7592 13.3603 19.9325 13.5336C20.1057 13.7068 20.1922 13.9215 20.1922 14.1776V19.3699C20.1922 19.6259 20.1057 19.8405 19.9325 20.0139C19.7592 20.187 19.5445 20.2736 19.2885 20.2736H14.0962C13.8401 20.2736 13.6254 20.187 13.4522 20.0139C13.2789 19.8405 13.1922 19.6259 13.1922 19.3699ZM3.80774 19.3699V14.1776C3.80774 13.9215 3.89432 13.7068 4.06749 13.5336C4.24082 13.3603 4.45549 13.2736 4.71149 13.2736H9.90374C10.1599 13.2736 10.3746 13.3603 10.5477 13.5336C10.7211 13.7068 10.8077 13.9215 10.8077 14.1776V19.3699C10.8077 19.6259 10.7211 19.8405 10.5477 20.0139C10.3746 20.187 10.1599 20.2736 9.90374 20.2736H4.71149C4.45549 20.2736 4.24082 20.187 4.06749 20.0139C3.89432 19.8405 3.80774 19.6259 3.80774 19.3699ZM5.30774 9.38913H9.30774V5.38913H5.30774V9.38913ZM14.6922 18.7736H18.6922V14.7736H14.6922V18.7736ZM5.30774 18.7736H9.30774V14.7736H5.30774V18.7736Z" fill="#1C1B1F"/>
<path d="M15.8443 11.9294L12.1713 8.25638C12.0776 8.16288 12.0115 8.06372 11.973 7.95888C11.9347 7.85422 11.9155 7.74205 11.9155 7.62238C11.9155 7.50272 11.9347 7.39097 11.973 7.28713C12.0115 7.1833 12.0776 7.08463 12.1713 6.99113L15.8443 3.31788C15.9378 3.22438 16.0369 3.15838 16.1418 3.11988C16.2464 3.08138 16.3586 3.06213 16.4783 3.06213C16.5979 3.06213 16.7097 3.08138 16.8135 3.11988C16.9174 3.15838 17.016 3.22438 17.1095 3.31788L20.7828 6.99113C20.8763 7.08463 20.9423 7.18372 20.9808 7.28838C21.0193 7.39305 21.0385 7.50522 21.0385 7.62488C21.0385 7.74455 21.0193 7.8563 20.9808 7.96013C20.9423 8.06413 20.8763 8.16288 20.7828 8.25638L17.1095 11.9294C17.016 12.0231 16.9169 12.0891 16.8123 12.1274C16.7074 12.1659 16.5953 12.1851 16.4758 12.1851C16.3561 12.1851 16.2443 12.1659 16.1403 12.1274C16.0364 12.0891 15.9378 12.0231 15.8443 11.9294ZM16.502 10.4736L19.327 7.64863L16.502 4.82363L13.677 7.64863L16.502 10.4736Z" fill="#1C1B1F"/>
</svg>
