<svg width="24" height="25" viewBox="0 0 24 25" fill="none" xmlns="http://www.w3.org/2000/svg">
<path d="M12.0017 21.5814C10.6877 21.5814 9.45267 21.3321 8.2965 20.8334C7.14033 20.3347 6.13467 19.658 5.2795 18.8031C4.42433 17.9483 3.74725 16.9431 3.24825 15.7874C2.74942 14.6317 2.5 13.397 2.5 12.0831C2.5 10.7691 2.74933 9.53406 3.248 8.37789C3.74667 7.22172 4.42342 6.21606 5.27825 5.36089C6.13308 4.50572 7.13833 3.82864 8.294 3.32964C9.44967 2.83081 10.6844 2.58139 11.9983 2.58139C13.3123 2.58139 14.5473 2.83072 15.7035 3.32939C16.8597 3.82806 17.8653 4.50481 18.7205 5.35964C19.5757 6.21447 20.2528 7.21972 20.7518 8.37539C21.2506 9.53106 21.5 10.7658 21.5 12.0796C21.5 13.3936 21.2507 14.6287 20.752 15.7849C20.2533 16.9411 19.5766 17.9467 18.7218 18.8019C17.8669 19.6571 16.8617 20.3341 15.706 20.8331C14.5503 21.332 13.3156 21.5814 12.0017 21.5814ZM12 20.0814C14.2333 20.0814 16.125 19.3064 17.675 17.7564C19.225 16.2064 20 14.3147 20 12.0814C20 9.84806 19.225 7.95639 17.675 6.40639C16.125 4.85639 14.2333 4.08139 12 4.08139C9.76667 4.08139 7.875 4.85639 6.325 6.40639C4.775 7.95639 4 9.84806 4 12.0814C4 14.3147 4.775 16.2064 6.325 17.7564C7.875 19.3064 9.76667 20.0814 12 20.0814Z" fill="#1C1B1F"/>
<path d="M10.5808 14.2276L8.25782 11.9044C8.11932 11.7661 7.94524 11.6952 7.73557 11.6919C7.52607 11.6887 7.34882 11.7596 7.20382 11.9044C7.05899 12.0494 6.98657 12.2251 6.98657 12.4314C6.98657 12.6377 7.05899 12.8134 7.20382 12.9584L9.94807 15.7026C10.1289 15.8833 10.3398 15.9736 10.5808 15.9736C10.8218 15.9736 11.0327 15.8833 11.2136 15.7026L16.7771 10.1391C16.9154 10.0006 16.9862 9.82656 16.9896 9.61689C16.9927 9.40739 16.9219 9.23014 16.7771 9.08514C16.6321 8.94031 16.4564 8.86789 16.2501 8.86789C16.0437 8.86789 15.8681 8.94031 15.7231 9.08514L10.5808 14.2276Z" fill="#1C1B1F"/>
</svg>
