<svg width="24" height="24" viewBox="0 0 24 24" fill="none" xmlns="http://www.w3.org/2000/svg">
<path d="M4 9.59625V3.904C4 3.64783 4.08667 3.43317 4.26 3.26C4.43317 3.08667 4.64783 3 4.904 3H10.5963C10.8523 3 11.0669 3.08667 11.2402 3.26C11.4134 3.43317 11.5 3.64783 11.5 3.904V9.59625C11.5 9.85225 11.4134 10.0669 11.2402 10.2402C11.0669 10.4134 10.8523 10.5 10.5963 10.5H4.904C4.64783 10.5 4.43317 10.4134 4.26 10.2402C4.08667 10.0669 4 9.85225 4 9.59625ZM5.5 9H10V4.5H5.5V9ZM4 19.096V13.4038C4 13.1478 4.08667 12.9331 4.26 12.7598C4.43317 12.5866 4.64783 12.5 4.904 12.5H10.5963C10.8523 12.5 11.0669 12.5866 11.2402 12.7598C11.4134 12.9331 11.5 13.1478 11.5 13.4038V19.096C11.5 19.3522 11.4134 19.5668 11.2402 19.74C11.0669 19.9133 10.8523 20 10.5963 20H4.904C4.64783 20 4.43317 19.9133 4.26 19.74C4.08667 19.5668 4 19.3522 4 19.096ZM5.5 18.5H10V14H5.5V18.5ZM13.5 9.59625V3.904C13.5 3.64783 13.5866 3.43317 13.7598 3.26C13.9331 3.08667 14.1478 3 14.4038 3H20.096C20.3522 3 20.5668 3.08667 20.74 3.26C20.9133 3.43317 21 3.64783 21 3.904V9.59625C21 9.85225 20.9133 10.0669 20.74 10.2402C20.5668 10.4134 20.3522 10.5 20.096 10.5H14.4038C14.1478 10.5 13.9331 10.4134 13.7598 10.2402C13.5866 10.0669 13.5 9.85225 13.5 9.59625ZM15 9H19.5V4.5H15V9ZM19.125 20V18.125H21V20H19.125ZM13.5 14.375V12.5H15.375V14.375H13.5ZM15.375 16.25V14.375H17.25V16.25H15.375ZM13.5 18.125V16.25H15.375V18.125H13.5ZM15.375 20V18.125H17.25V20H15.375ZM17.25 18.125V16.25H19.125V18.125H17.25ZM17.25 14.375V12.5H19.125V14.375H17.25ZM19.125 16.25V14.375H21V16.25H19.125Z" fill="#1C1B1F"/>
</svg>
