<svg width="24" height="24" viewBox="0 0 24 24" fill="none" xmlns="http://www.w3.org/2000/svg">
<path d="M18.0498 14.5C19.5686 14.5 20.7998 15.7312 20.7998 17.25C20.7998 18.7688 19.5686 20 18.0498 20C16.531 20 15.2998 18.7688 15.2998 17.25C15.2998 15.7312 16.531 14.5 18.0498 14.5ZM18.0498 15.6992C17.8289 15.6992 17.6494 15.8787 17.6494 16.0996V16.9492H16.7998C16.5789 16.9492 16.3994 17.1287 16.3994 17.3496C16.3994 17.5705 16.5789 17.75 16.7998 17.75H17.6494V18.5996C17.6494 18.8205 17.8289 19 18.0498 19C18.2707 19 18.4502 18.8205 18.4502 18.5996V17.75H19.2998L19.3809 17.7412C19.5629 17.7037 19.7002 17.5427 19.7002 17.3496C19.7002 17.1565 19.5629 16.9955 19.3809 16.958L19.2998 16.9492H18.4502V16.0996C18.4502 15.8787 18.2707 15.6992 18.0498 15.6992ZM18.9717 5.25C19.2822 5.25 19.5802 5.36227 19.7998 5.56152C20.0193 5.76077 20.1426 6.03075 20.1426 6.3125V14.7285C19.8117 14.4163 19.4142 14.174 18.9717 14.0293V6.3125H4.9209V16.9375H14.877C14.8765 16.9583 14.875 16.9791 14.875 17C14.875 17.3498 14.933 17.686 15.0391 18H4.9209C4.61036 18 4.31236 17.8877 4.09277 17.6885C3.87335 17.4892 3.75 17.2192 3.75 16.9375V6.3125C3.75 6.03082 3.87335 5.76076 4.09277 5.56152C4.31236 5.36227 4.61036 5.25 4.9209 5.25H18.9717ZM15.7715 12.666C16.2062 12.666 16.6233 12.8303 16.9307 13.123C17.1649 13.3461 17.3198 13.63 17.3809 13.9355C16.9955 14.013 16.6373 14.1641 16.3174 14.3691V14.2266C16.3172 14.0889 16.2603 13.9568 16.1582 13.8594C16.0557 13.7618 15.9164 13.707 15.7715 13.707H12.4932C12.3482 13.707 12.2089 13.7618 12.1064 13.8594C12.0042 13.9568 11.9464 14.0888 11.9463 14.2266V15.2676H10.8535V14.2266C10.8536 13.8127 11.0267 13.4157 11.334 13.123C11.6414 12.8304 12.0585 12.666 12.4932 12.666H15.7715ZM13.2959 8.14062C13.6952 7.98312 14.1347 7.94215 14.5586 8.02246C14.9825 8.10279 15.3721 8.3007 15.6777 8.5918C15.9833 8.88279 16.191 9.25363 16.2754 9.65723C16.3597 10.061 16.3168 10.48 16.1514 10.8604C15.9859 11.2407 15.7061 11.5662 15.3467 11.7949C14.9872 12.0237 14.5641 12.1455 14.1318 12.1455C13.5524 12.1454 12.9967 11.9262 12.5869 11.5361C12.177 11.1458 11.9463 10.6156 11.9463 10.0635C11.9464 9.65192 12.0744 9.24944 12.3145 8.90723C12.5546 8.5649 12.8965 8.29818 13.2959 8.14062ZM8.66797 11.625H6.48242V10.584H8.66797V11.625ZM14.1318 9.02344C13.8421 9.02352 13.5643 9.133 13.3594 9.32812C13.1546 9.52323 13.0391 9.78761 13.0391 10.0635C13.0391 10.2692 13.1036 10.4705 13.2236 10.6416C13.3437 10.8128 13.5142 10.9466 13.7139 11.0254C13.9136 11.1042 14.1337 11.1251 14.3457 11.085C14.5576 11.0448 14.7525 10.9453 14.9053 10.7998C15.058 10.6543 15.1619 10.4684 15.2041 10.2666C15.2462 10.0648 15.2243 9.85515 15.1416 9.66504C15.0589 9.47504 14.9188 9.31252 14.7393 9.19824C14.5596 9.08391 14.3479 9.02344 14.1318 9.02344ZM10.3076 9.54297H6.48242V8.50293H10.3076V9.54297Z" fill="black"/>
</svg>
