<svg width="24" height="24" viewBox="0 0 24 24" fill="none" xmlns="http://www.w3.org/2000/svg">
<path d="M12.45 11.7963L10.827 10.1885C10.6885 10.05 10.517 9.97917 10.3125 9.976C10.108 9.97283 9.92817 10.0488 9.773 10.2038C9.62817 10.3488 9.55575 10.5244 9.55575 10.7307C9.55575 10.9371 9.62817 11.1128 9.773 11.2578L11.8173 13.302C11.9981 13.4827 12.209 13.573 12.45 13.573C12.691 13.573 12.9019 13.4827 13.0828 13.302L17.227 9.15775C17.3757 9.00892 17.449 8.83483 17.447 8.6355C17.4452 8.43617 17.3718 8.25892 17.227 8.10375C17.0718 7.94875 16.8936 7.86867 16.6923 7.8635C16.4909 7.85833 16.3128 7.93333 16.1578 8.0885L12.45 11.7963ZM8.05775 17.75C7.55258 17.75 7.125 17.575 6.775 17.225C6.425 16.875 6.25 16.4474 6.25 15.9423V4.55775C6.25 4.05258 6.425 3.625 6.775 3.275C7.125 2.925 7.55258 2.75 8.05775 2.75H19.4423C19.9474 2.75 20.375 2.925 20.725 3.275C21.075 3.625 21.25 4.05258 21.25 4.55775V15.9423C21.25 16.4474 21.075 16.875 20.725 17.225C20.375 17.575 19.9474 17.75 19.4423 17.75H8.05775ZM8.05775 16.25H19.4423C19.5193 16.25 19.5898 16.2179 19.6538 16.1538C19.7179 16.0898 19.75 16.0193 19.75 15.9423V4.55775C19.75 4.48075 19.7179 4.41025 19.6538 4.34625C19.5898 4.28208 19.5193 4.25 19.4423 4.25H8.05775C7.98075 4.25 7.91025 4.28208 7.84625 4.34625C7.78208 4.41025 7.75 4.48075 7.75 4.55775V15.9423C7.75 16.0193 7.78208 16.0898 7.84625 16.1538C7.91025 16.2179 7.98075 16.25 8.05775 16.25ZM4.55775 21.25C4.05258 21.25 3.625 21.075 3.275 20.725C2.925 20.375 2.75 19.9474 2.75 19.4423V7.30775C2.75 7.09492 2.82183 6.91667 2.9655 6.773C3.109 6.6295 3.28717 6.55775 3.5 6.55775C3.71283 6.55775 3.89108 6.6295 4.03475 6.773C4.17825 6.91667 4.25 7.09492 4.25 7.30775V19.4423C4.25 19.5193 4.28208 19.5898 4.34625 19.6538C4.41025 19.7179 4.48075 19.75 4.55775 19.75H16.6923C16.9051 19.75 17.0833 19.8218 17.227 19.9653C17.3705 20.1089 17.4423 20.2872 17.4423 20.5C17.4423 20.7128 17.3705 20.891 17.227 21.0345C17.0833 21.1782 16.9051 21.25 16.6923 21.25H4.55775Z" fill="#1C1B1F"/>
</svg>
