<svg width="24" height="25" viewBox="0 0 24 25" fill="none" xmlns="http://www.w3.org/2000/svg">
<path d="M3.5 20.9621V3.20063C3.5 3.0968 3.54358 3.02722 3.63075 2.99188C3.71792 2.95672 3.8 2.97122 3.877 3.03538L4.59225 3.66413C4.67942 3.73847 4.77692 3.77563 4.88475 3.77563C4.99242 3.77563 5.08983 3.73847 5.177 3.66413L6.0155 2.96038C6.10267 2.88588 6.20008 2.84863 6.30775 2.84863C6.41542 2.84863 6.51283 2.88588 6.6 2.96038L7.4385 3.66413C7.52567 3.73847 7.62308 3.77563 7.73075 3.77563C7.83842 3.77563 7.93583 3.73847 8.023 3.66413L8.8615 2.96038C8.94867 2.88588 9.04608 2.84863 9.15375 2.84863C9.26158 2.84863 9.35908 2.88588 9.44625 2.96038L10.2848 3.66413C10.3719 3.73847 10.4693 3.77563 10.577 3.77563C10.6847 3.77563 10.7821 3.73847 10.8692 3.66413L11.7078 2.96038C11.7949 2.88588 11.8923 2.84863 12 2.84863C12.1077 2.84863 12.2051 2.88588 12.2923 2.96038L13.1307 3.66413C13.2179 3.73847 13.3153 3.77563 13.423 3.77563C13.5307 3.77563 13.6281 3.73847 13.7153 3.66413L14.5538 2.96038C14.6409 2.88588 14.7384 2.84863 14.8462 2.84863C14.9539 2.84863 15.0513 2.88588 15.1385 2.96038L15.977 3.66413C16.0642 3.73847 16.1616 3.77563 16.2693 3.77563C16.3769 3.77563 16.4743 3.73847 16.5615 3.66413L17.4 2.96038C17.4872 2.88588 17.5846 2.84863 17.6923 2.84863C17.7999 2.84863 17.8973 2.88588 17.9845 2.96038L18.823 3.66413C18.9102 3.73847 19.0076 3.77563 19.1152 3.77563C19.2231 3.77563 19.3206 3.73847 19.4078 3.66413L20.123 3.03538C20.2 2.97122 20.2821 2.95672 20.3693 2.99188C20.4564 3.02722 20.5 3.0968 20.5 3.20063V20.9621C20.5 21.066 20.4564 21.1355 20.3693 21.1709C20.2821 21.206 20.2 21.1916 20.123 21.1274L19.4078 20.4986C19.3206 20.4243 19.2231 20.3871 19.1152 20.3871C19.0076 20.3871 18.9102 20.4243 18.823 20.4986L17.9845 21.2024C17.8973 21.2769 17.7999 21.3141 17.6923 21.3141C17.5846 21.3141 17.4872 21.2769 17.4 21.2024L16.5615 20.4986C16.4743 20.4243 16.3769 20.3871 16.2693 20.3871C16.1616 20.3871 16.0642 20.4243 15.977 20.4986L15.1385 21.2024C15.0513 21.2769 14.9539 21.3141 14.8462 21.3141C14.7384 21.3141 14.6409 21.2769 14.5538 21.2024L13.7153 20.4986C13.6281 20.4243 13.5307 20.3871 13.423 20.3871C13.3153 20.3871 13.2179 20.4243 13.1307 20.4986L12.2923 21.2024C12.2051 21.2769 12.1077 21.3141 12 21.3141C11.8923 21.3141 11.7949 21.2769 11.7078 21.2024L10.8692 20.4986C10.7821 20.4243 10.6847 20.3871 10.577 20.3871C10.4693 20.3871 10.3719 20.4243 10.2848 20.4986L9.44625 21.2024C9.35908 21.2769 9.26158 21.3141 9.15375 21.3141C9.04608 21.3141 8.94867 21.2769 8.8615 21.2024L8.023 20.4986C7.93583 20.4243 7.83842 20.3871 7.73075 20.3871C7.62308 20.3871 7.52567 20.4243 7.4385 20.4986L6.6 21.2024C6.51283 21.2769 6.41542 21.3141 6.30775 21.3141C6.20008 21.3141 6.10267 21.2769 6.0155 21.2024L5.177 20.4986C5.08983 20.4243 4.99242 20.3871 4.88475 20.3871C4.77692 20.3871 4.67942 20.4243 4.59225 20.4986L3.877 21.1274C3.8 21.1916 3.71792 21.206 3.63075 21.1709C3.54358 21.1355 3.5 21.066 3.5 20.9621ZM5 19.1814H19V4.98138H5V19.1814Z" fill="#1C1B1F"/>
<path d="M7 16.5236H17C17.2128 16.5236 17.391 16.4519 17.5345 16.3084C17.6782 16.1647 17.75 15.9865 17.75 15.7736C17.75 15.5608 17.6782 15.3826 17.5345 15.2391C17.391 15.0955 17.2128 15.0236 17 15.0236H7C6.78717 15.0236 6.609 15.0955 6.4655 15.2391C6.32183 15.3826 6.25 15.5608 6.25 15.7736C6.25 15.9865 6.32183 16.1647 6.4655 16.3084C6.609 16.4519 6.78717 16.5236 7 16.5236ZM7 12.8314H17C17.2128 12.8314 17.391 12.7595 17.5345 12.6159C17.6782 12.4724 17.75 12.2942 17.75 12.0814C17.75 11.8685 17.6782 11.6904 17.5345 11.5469C17.391 11.4032 17.2128 11.3314 17 11.3314H7C6.78717 11.3314 6.609 11.4032 6.4655 11.5469C6.32183 11.6904 6.25 11.8685 6.25 12.0814C6.25 12.2942 6.32183 12.4724 6.4655 12.6159C6.609 12.7595 6.78717 12.8314 7 12.8314ZM7 9.13913H17C17.2128 9.13913 17.391 9.0673 17.5345 8.92363C17.6782 8.78013 17.75 8.60196 17.75 8.38913C17.75 8.1763 17.6782 7.99805 17.5345 7.85438C17.391 7.71088 17.2128 7.63913 17 7.63913H7C6.78717 7.63913 6.609 7.71088 6.4655 7.85438C6.32183 7.99805 6.25 8.1763 6.25 8.38913C6.25 8.60196 6.32183 8.78013 6.4655 8.92363C6.609 9.0673 6.78717 9.13913 7 9.13913Z" fill="#1C1B1F"/>
</svg>
