<svg width="24" height="24" viewBox="0 0 24 24" fill="none" xmlns="http://www.w3.org/2000/svg">
<path d="M3.25 12C3.25 9.5448 4.13142 7.47272 5.89425 5.78372C7.65708 4.09455 9.77567 3.24997 12.25 3.24997V2.40397C12.25 2.22313 12.3321 2.08913 12.4963 2.00197C12.6603 1.9148 12.8192 1.92822 12.973 2.04222L15.6173 4.02697C15.8583 4.20763 15.9788 4.44863 15.9788 4.74997C15.9788 5.0513 15.8583 5.2923 15.6173 5.47297L12.973 7.45772C12.8192 7.57172 12.6603 7.58513 12.4963 7.49797C12.3321 7.4108 12.25 7.2768 12.25 7.09597V6.24997C10.6115 6.24997 9.20192 6.80505 8.02125 7.91522C6.84042 9.02555 6.25 10.3871 6.25 12C6.25 12.5691 6.33075 13.1191 6.49225 13.65C6.65375 14.1808 6.88583 14.6757 7.1885 15.1347C7.3525 15.3757 7.41783 15.6343 7.3845 15.9105C7.35117 16.1868 7.22233 16.4071 6.998 16.5712L6.36925 17.0327C6.09492 17.2467 5.792 17.3304 5.4605 17.2837C5.12917 17.2369 4.86475 17.0711 4.66725 16.7865C4.20325 16.089 3.851 15.3348 3.6105 14.524C3.37017 13.7131 3.25 12.8718 3.25 12ZM11.75 20.75V21.596C11.75 21.7768 11.6679 21.9108 11.5037 21.998C11.3397 22.0851 11.1808 22.0717 11.027 21.9577L8.38275 19.973C8.14175 19.7923 8.02125 19.5513 8.02125 19.25C8.02125 18.9486 8.14175 18.7076 8.38275 18.527L11.027 16.5422C11.1808 16.4282 11.3397 16.4148 11.5037 16.502C11.6679 16.5891 11.75 16.7231 11.75 16.904V17.75C13.3885 17.75 14.7981 17.1949 15.9788 16.0847C17.1596 14.9744 17.75 13.6128 17.75 12C17.75 11.4308 17.6693 10.8792 17.5078 10.3452C17.3463 9.81122 17.1142 9.31472 16.8115 8.85572C16.6475 8.61472 16.5822 8.35605 16.6155 8.07972C16.6488 7.80355 16.7777 7.58338 17.002 7.41922L17.6307 6.95772C17.9051 6.74355 18.208 6.66247 18.5395 6.71447C18.8708 6.7663 19.1353 6.92938 19.3328 7.20372C19.7866 7.90772 20.1363 8.66355 20.3818 9.47122C20.6273 10.2789 20.75 11.1218 20.75 12C20.75 14.4551 19.8686 16.5272 18.1058 18.2162C16.3429 19.9054 14.2243 20.75 11.75 20.75Z" fill="#1C1B1F"/>
</svg>
