<svg width="24" height="24" viewBox="0 0 24 24" fill="none" xmlns="http://www.w3.org/2000/svg">
<path d="M5.75 12.0495C5.75 12.3419 5.76983 12.6332 5.8095 12.9235C5.84933 13.214 5.91733 13.5003 6.0135 13.7823C6.0775 13.9951 6.07075 14.1986 5.99325 14.3928C5.91575 14.5869 5.784 14.7264 5.598 14.811C5.40183 14.9059 5.20667 14.9135 5.0125 14.834C4.81833 14.7545 4.68917 14.6084 4.625 14.3958C4.49167 14.0188 4.39583 13.6319 4.3375 13.235C4.27917 12.8384 4.25 12.4432 4.25 12.0495C4.25 9.88669 5.00258 8.04602 6.50775 6.52752C8.01292 5.00886 9.84367 4.24952 12 4.24952H12.7808L11.4577 2.92652C11.3192 2.78802 11.2484 2.61394 11.2453 2.40427C11.2421 2.19477 11.3129 2.01752 11.4577 1.87252C11.6026 1.72769 11.7782 1.65527 11.9845 1.65527C12.191 1.65527 12.3667 1.72769 12.5115 1.87252L15.0057 4.36677C15.1866 4.54761 15.277 4.75852 15.277 4.99952C15.277 5.24052 15.1866 5.45144 15.0057 5.63227L12.5115 8.12652C12.373 8.26486 12.199 8.33569 11.9895 8.33902C11.7798 8.34219 11.6026 8.27136 11.4577 8.12652C11.3129 7.98152 11.2405 7.80586 11.2405 7.59952C11.2405 7.39319 11.3129 7.21752 11.4577 7.07252L12.7808 5.74952H12C10.2628 5.74952 8.78683 6.36102 7.572 7.58402C6.35733 8.80719 5.75 10.2957 5.75 12.0495ZM18.25 11.9495C18.25 11.6572 18.2302 11.3659 18.1905 11.0755C18.1507 10.785 18.0827 10.4988 17.9865 10.2168C17.9225 10.0039 17.9293 9.80044 18.0068 9.60627C18.0843 9.41211 18.216 9.27269 18.402 9.18802C18.5982 9.09319 18.7917 9.08552 18.9827 9.16502C19.1737 9.24452 19.3012 9.39061 19.3652 9.60327C19.4986 9.98027 19.5961 10.3672 19.6578 10.764C19.7193 11.1607 19.75 11.5559 19.75 11.9495C19.75 14.1124 18.9974 15.953 17.4923 17.4715C15.9871 18.9902 14.1563 19.7495 12 19.7495H11.2192L12.5423 21.0725C12.6808 21.211 12.7516 21.3851 12.7548 21.5948C12.7579 21.8043 12.6871 21.9815 12.5423 22.1265C12.3974 22.2714 12.2218 22.3438 12.0155 22.3438C11.809 22.3438 11.6333 22.2714 11.4885 22.1265L8.99425 19.6323C8.81342 19.4514 8.723 19.2405 8.723 18.9995C8.723 18.7585 8.81342 18.5476 8.99425 18.3668L11.4885 15.8725C11.627 15.7342 11.801 15.6634 12.0105 15.66C12.2202 15.6569 12.3974 15.7277 12.5423 15.8725C12.6871 16.0175 12.7595 16.1932 12.7595 16.3995C12.7595 16.6059 12.6871 16.7815 12.5423 16.9265L11.2192 18.2495H12C13.7372 18.2495 15.2132 17.638 16.428 16.415C17.6427 15.1919 18.25 13.7034 18.25 11.9495Z" fill="#1C1B1F"/>
</svg>
