<!-- Generated by IcoMoon.io -->
<svg version="1.1" xmlns="http://www.w3.org/2000/svg" width="32" height="32" viewBox="0 0 32 32">
<title>account11111</title>
<path d="M16.667 14.133c-1.2 0-2.533-0.4-3.467-1.067-1.067-0.8-1.867-1.733-2.4-2.933s-0.533-2.4-0.4-3.733c0.267-1.2 0.933-2.267 1.733-3.2 0.933-0.933 2-1.467 3.2-1.733s2.533-0.133 3.6 0.4c1.2 0.533 2.133 1.333 2.8 2.4s1.067 2.267 1.067 3.6c0 1.733-0.667 3.333-1.867 4.533-0.933 1.067-2.533 1.733-4.267 1.733zM16.667 3.867c-0.8 0-1.467 0.267-2.133 0.667s-1.067 1.067-1.333 1.733c-0.4 0.667-0.4 1.467-0.267 2.133 0.133 0.8 0.533 1.467 1.067 2s1.2 0.933 2 1.067c0.8 0.133 1.467 0.133 2.133-0.267 0.667-0.267 1.333-0.8 1.733-1.467s0.667-1.333 0.667-2.133c0-1.067-0.4-2-1.067-2.667-0.8-0.667-1.733-1.067-2.8-1.067z"></path>
<path d="M28 30.667h-22.667c-0.4 0-0.667-0.133-0.933-0.4s-0.4-0.533-0.4-0.933v-3.867c0-2.667 1.067-5.333 2.933-7.2s4.533-2.933 7.2-2.933h5.067c2.667 0 5.2 1.067 7.2 2.933 1.867 1.867 2.933 4.533 2.933 7.2v3.867c0 0.4-0.133 0.667-0.4 0.933s-0.533 0.4-0.933 0.4zM6.533 28.133h20.267v-2.533c0-2-0.8-4-2.267-5.467s-3.333-2.267-5.333-2.267h-5.067c-2 0-4 0.8-5.333 2.267s-2.267 3.333-2.267 5.467v2.533z"></path>
</svg>
