<!-- Generated by IcoMoon.io -->
<svg version="1.1" xmlns="http://www.w3.org/2000/svg" width="32" height="32" viewBox="0 0 32 32">
<path d="M22.667 30.667c-4.4 0-8-3.6-8-8s3.6-8 8-8 8 3.6 8 8-3.6 8-8 8zM22.667 16.667c-3.333 0-6.133 2.8-6.133 6.133s2.8 6.133 6.133 6.133 6.133-2.8 6.133-6.133-2.667-6.133-6.133-6.133z"></path>
<path d="M22.667 26.933c-0.267 0-0.533-0.133-0.667-0.267s-0.267-0.4-0.267-0.667v-6.667c0-0.267 0.133-0.533 0.267-0.667s0.4-0.267 0.667-0.267 0.533 0.133 0.667 0.267c0.133 0.133 0.267 0.4 0.267 0.667v6.667c0 0.267-0.133 0.533-0.267 0.667-0.133 0.267-0.4 0.267-0.667 0.267z"></path>
<path d="M26.133 23.6h-6.667c-0.267 0-0.533-0.133-0.667-0.267s-0.267-0.4-0.267-0.667 0.133-0.533 0.267-0.667c0.133-0.133 0.4-0.267 0.667-0.267h6.667c0.267 0 0.533 0.133 0.667 0.267s0.267 0.4 0.267 0.667-0.133 0.533-0.267 0.667c-0.267 0.267-0.533 0.267-0.667 0.267zM12.533 26.933h-7.867c-0.933 0-1.733-0.4-2.4-0.933-0.533-0.667-0.933-1.467-0.933-2.4v-18.933c0-0.933 0.4-1.733 0.933-2.4 0.667-0.533 1.6-0.933 2.4-0.933h14c0.933 0 1.733 0.4 2.4 0.933 0.667 0.667 0.933 1.467 0.933 2.4v7.467c0 0.267-0.133 0.533-0.267 0.667s-0.4 0.267-0.667 0.267c-0.267 0-0.533-0.133-0.667-0.267s-0.267-0.4-0.267-0.667v-7.467c0-0.8-0.667-1.467-1.467-1.467h-14c-0.8 0-1.467 0.667-1.467 1.467v18.933c0 0.8 0.667 1.467 1.467 1.467h7.867c0.267 0 0.533 0.133 0.667 0.267s0.267 0.4 0.267 0.667-0.133 0.533-0.267 0.667c-0.133 0.267-0.4 0.267-0.667 0.267z"></path>
<path d="M17.467 12.933h-11.6c-0.133 0-0.4-0.133-0.533-0.267-0.267-0.133-0.267-0.4-0.267-0.667s0-0.4 0.267-0.667c0.133-0.133 0.4-0.267 0.667-0.267h11.6c0.267 0 0.533 0.133 0.667 0.267s0.267 0.4 0.267 0.667-0.133 0.533-0.267 0.667c-0.267 0.133-0.533 0.267-0.8 0.267zM12.667 17.867h-6.667c-0.267 0-0.533-0.133-0.667-0.267s-0.267-0.4-0.267-0.667 0.133-0.533 0.267-0.667c0.133-0.133 0.4-0.267 0.533-0.267h6.667c0.267 0 0.533 0.133 0.667 0.267s0.267 0.4 0.267 0.667 0 0.4-0.133 0.667-0.4 0.267-0.667 0.267zM11.467 8h-5.6c-0.133 0-0.4 0-0.533-0.267s-0.267-0.4-0.267-0.533 0-0.533 0.267-0.667c0.133-0.133 0.4-0.267 0.667-0.267h5.467c0.267 0 0.533 0.133 0.667 0.267s0.133 0.4 0.133 0.667 0 0.4-0.267 0.533c-0.133 0.267-0.4 0.267-0.533 0.267z"></path>
</svg>
