<!-- Generated by IcoMoon.io -->
<svg version="1.1" xmlns="http://www.w3.org/2000/svg" width="32" height="32" viewBox="0 0 32 32">
<path d="M29.091 11.055h-26.182c-0.347 0-0.68 0.138-0.926 0.383s-0.383 0.578-0.383 0.926v14.4c0.001 0.694 0.277 1.36 0.768 1.851s1.156 0.767 1.851 0.768h23.564c0.694-0.001 1.36-0.277 1.85-0.768s0.767-1.156 0.768-1.85v-14.4c0-0.347-0.138-0.68-0.383-0.926s-0.579-0.383-0.926-0.383zM22.162 17.652l-6.981 6.983c-0.122 0.122-0.266 0.218-0.425 0.284s-0.329 0.1-0.501 0.1-0.342-0.034-0.501-0.1c-0.159-0.066-0.303-0.163-0.425-0.284l-3.49-3.491c-0.238-0.247-0.37-0.578-0.367-0.921s0.141-0.672 0.383-0.914c0.243-0.243 0.571-0.38 0.914-0.383s0.674 0.129 0.921 0.368l2.566 2.566 6.056-6.057c0.247-0.238 0.578-0.37 0.921-0.367s0.672 0.141 0.914 0.383c0.243 0.243 0.38 0.571 0.383 0.914s-0.129 0.674-0.367 0.921z"></path>
<path d="M29.091 13.672h-26.182c-0.347 0-0.68-0.138-0.926-0.383s-0.383-0.578-0.383-0.926v-5.236c0.001-0.694 0.277-1.36 0.768-1.851s1.156-0.767 1.851-0.768h23.564c0.694 0.001 1.36 0.277 1.85 0.768s0.767 1.156 0.768 1.85v5.236c0 0.347-0.138 0.68-0.383 0.926s-0.579 0.383-0.926 0.383zM4.218 11.054h23.564v-3.927h-23.564v3.927z"></path>
<path d="M18.836 9.745c-0.347 0-0.68-0.138-0.926-0.383s-0.383-0.578-0.383-0.926v-3.927c0-0.347 0.138-0.68 0.383-0.926s0.578-0.383 0.926-0.383c0.347 0 0.68 0.138 0.926 0.383s0.383 0.578 0.383 0.926v3.927c0 0.347-0.138 0.68-0.383 0.926s-0.579 0.383-0.926 0.383zM13.164 9.745c-0.347 0-0.68-0.138-0.926-0.383s-0.383-0.578-0.383-0.926v-3.927c0-0.347 0.138-0.68 0.383-0.926s0.578-0.383 0.926-0.383c0.347 0 0.68 0.138 0.926 0.383s0.383 0.578 0.383 0.926v3.927c0 0.347-0.138 0.68-0.383 0.926s-0.578 0.383-0.926 0.383zM7.49 9.745c-0.347 0-0.68-0.138-0.926-0.383s-0.383-0.578-0.383-0.926v-3.927c0-0.347 0.138-0.68 0.383-0.926s0.578-0.383 0.926-0.383c0.347 0 0.68 0.138 0.926 0.383s0.383 0.578 0.383 0.926v3.927c0 0.347-0.138 0.68-0.383 0.926s-0.578 0.383-0.926 0.383zM24.508 9.745c-0.347 0-0.68-0.138-0.926-0.383s-0.384-0.578-0.384-0.926v-3.927c0-0.347 0.138-0.68 0.384-0.926s0.578-0.383 0.926-0.383 0.68 0.138 0.926 0.383c0.245 0.245 0.383 0.578 0.383 0.926v3.927c0 0.347-0.138 0.68-0.383 0.926s-0.579 0.383-0.926 0.383z"></path>
</svg>
