<!-- Generated by IcoMoon.io -->
<svg version="1.1" xmlns="http://www.w3.org/2000/svg" width="32" height="32" viewBox="0 0 32 32">
<title>auction</title>
<path d="M19.319 28.712h-0.929c-0.392-1.924-2.096-3.376-4.133-3.376h-6.75c-2.037 0-3.741 1.452-4.133 3.376h-0.929c-0.466 0-0.844 0.378-0.844 0.844s0.377 0.844 0.844 0.844h16.875c0.466 0 0.844-0.378 0.844-0.844s-0.377-0.844-0.844-0.844zM23.573 9.256l-7.159-7.162c-0.659-0.659-1.728-0.659-2.387 0s-0.659 1.728 0 2.387l7.16 7.162c0.659 0.659 1.727 0.659 2.386 0s0.659-1.728 0-2.387zM11.64 21.193l-7.159-7.162c-0.659-0.659-1.727-0.659-2.386 0s-0.659 1.728 0 2.387l7.159 7.162c0.659 0.659 1.727 0.659 2.386 0s0.659-1.728 0-2.387zM5.674 12.837l7.159-7.162 7.159 7.162-7.159 7.162-7.159-7.162zM29.659 26.077l-1.201-1.304-3.58 3.581 1.2 1.303c0.988 0.989 2.591 0.989 3.58 0s0.988-2.592 0-3.581zM21.6 18.026c0.142-0.558 0.023-1.171-0.414-1.608-0.659-0.659-1.728-0.659-2.387 0l-2.386 2.387c-0.659 0.659-0.659 1.728 0 2.387 0.437 0.437 1.049 0.556 1.607 0.414l5.665 5.554 3.58-3.581-5.665-5.554z"></path>
</svg>
