<!-- Generated by IcoMoon.io -->
<svg version="1.1" xmlns="http://www.w3.org/2000/svg" width="32" height="32" viewBox="0 0 32 32">
<path d="M1.333 27.733h29.333v2.933h-29.333v-2.933zM4.267 16h2.933v10.267h-2.933v-10.267zM11.6 16h2.933v10.267h-2.933v-10.267zM17.467 16h2.933v10.267h-2.933v-10.267zM24.8 16h2.933v10.267h-2.933v-10.267zM1.333 8.667l14.667-7.333 14.667 7.333v5.867h-29.333v-5.867zM4.267 10.533v1.067h23.467v-1.067l-11.733-5.867-11.733 5.867zM16 10.133c-0.4 0-0.8-0.133-1.067-0.4s-0.4-0.667-0.4-1.067 0.133-0.8 0.4-1.067c0.267-0.267 0.667-0.4 1.067-0.4s0.8 0.133 1.067 0.4c0.267 0.267 0.4 0.667 0.4 1.067s-0.133 0.8-0.4 1.067c-0.267 0.267-0.667 0.4-1.067 0.4z"></path>
</svg>
