<!-- Generated by IcoMoon.io -->
<svg version="1.1" xmlns="http://www.w3.org/2000/svg" width="32" height="32" viewBox="0 0 32 32">
<path d="M22.6 9.2c0-3.306-2.694-6-6-6s-6 2.694-6 6 2.694 6 6 6c3.306 0 6-2.694 6-6zM16 12.452v-0.372c-0.396-0.144-0.744-0.408-0.96-0.78-0.168-0.288-0.066-0.654 0.216-0.822 0.288-0.168 0.654-0.066 0.822 0.216 0.108 0.192 0.306 0.306 0.522 0.306 0.33 0 0.6-0.27 0.6-0.6s-0.27-0.6-0.6-0.6c-0.99 0-1.8-0.81-1.8-1.8 0-0.78 0.504-1.44 1.2-1.692v-0.36c0-0.33 0.27-0.6 0.6-0.6s0.6 0.27 0.6 0.6v0.366c0.396 0.144 0.744 0.408 0.96 0.78 0.168 0.288 0.066 0.654-0.216 0.822-0.288 0.168-0.654 0.066-0.822-0.216-0.067-0.114-0.169-0.202-0.291-0.253s-0.257-0.059-0.384-0.025-0.24 0.109-0.321 0.213c-0.081 0.104-0.125 0.232-0.126 0.364 0 0.33 0.27 0.6 0.6 0.6 0.99 0 1.8 0.81 1.8 1.8 0 0.78-0.504 1.44-1.2 1.692v0.36c0 0.33-0.27 0.6-0.6 0.6s-0.6-0.27-0.6-0.6z"></path>
<path d="M22.95 11.733l-0.85 1.472c-0.138 0.239-0.056 0.545 0.183 0.683l3.811 2.2c0.239 0.138 0.545 0.056 0.683-0.183l0.85-1.472c0.138-0.239 0.056-0.545-0.183-0.683l-3.811-2.2c-0.239-0.138-0.545-0.056-0.683 0.183z"></path>
<path d="M25.043 29.6c1.325 0 2.4-1.075 2.4-2.4s-1.075-2.4-2.4-2.4c-1.325 0-2.4 1.075-2.4 2.4s1.075 2.4 2.4 2.4z"></path>
<path d="M28.51 22.256c-1.197-0.461-2.432-0.818-3.69-1.068-0.618-0.126-1.158-0.354-1.608-0.678-0.918-0.684-2.112-1.356-3.624-2.040-0.732-0.348-1.458-0.57-2.154-0.66-0.93-0.132-1.824-0.198-2.724-0.204-0.744-0.012-1.506 0.018-2.28 0.084-1.23 0.126-2.454 0.54-3.54 1.2l-2.478 1.476c-0.384 0.228-0.75 0.39-1.134 0.498l-1.95 0.576c-0.612 0.174-1.032 0.72-1.074 1.386-0.036 0.522-0.198 0.912-0.318 1.14-0.222 0.372-0.336 0.804-0.336 1.242v0.414c0 1.2 0.972 2.178 2.172 2.178h0.882c-0.030-0.198-0.054-0.396-0.054-0.6 0-1.986 1.614-3.6 3.6-3.6s3.6 1.614 3.6 3.6c0 0.204-0.024 0.402-0.054 0.6h9.75c-0.030-0.198-0.054-0.396-0.054-0.6 0-1.986 1.614-3.6 3.6-3.6s3.6 1.614 3.6 3.6c0 0.204-0.018 0.402-0.054 0.6h0.426c0.368-0.001 0.721-0.149 0.98-0.41s0.406-0.614 0.406-0.982v-1.38c0-1.224-0.762-2.34-1.89-2.772zM8.35 20.606l1.158-0.69c0.936-0.57 1.986-0.924 3.036-1.026 0.564-0.054 1.128-0.072 1.68-0.078l0.42 1.794h-6.294zM17.824 20.606c-0.006 0-0.012-0.006-0.018-0.006s-0.012 0.006-0.018 0.006h-1.914l-0.408-1.77c0.594 0.030 1.188 0.078 1.806 0.162 0.576 0.078 1.182 0.264 1.812 0.558 0.78 0.354 1.458 0.702 2.058 1.044l-3.318 0.006z"></path>
<path d="M8.199 29.6c1.325 0 2.4-1.075 2.4-2.4s-1.075-2.4-2.4-2.4c-1.325 0-2.4 1.075-2.4 2.4s1.075 2.4 2.4 2.4z"></path>
</svg>
