<!-- Generated by IcoMoon.io -->
<svg version="1.1" xmlns="http://www.w3.org/2000/svg" width="32" height="32" viewBox="0 0 32 32">
<title>car-wash</title>
<path d="M27.6 17.3c0.5 0 0.9-0.4 0.9-0.9s-0.4-0.9-0.9-0.9-0.9 0.4-0.9 0.9c0 0.5 0.4 0.9 0.9 0.9z"></path>
<path d="M28.5 22.9c0.6 0 1-0.5 1-1 0-0.6-0.5-1-1-1-0.6 0-1 0.5-1 1-0.1 0.5 0.4 1 1 1z"></path>
<path d="M8 24.7c-0.9-0.9-1.6-1.9-2.1-3-0.4 0.2-0.7 0.6-0.9 1s-0.1 0.9 0.1 1.3c0 0-0.1 0-0.1 0-0.2 0-0.4 0-0.6 0.1s-0.3 0.2-0.5 0.3c-0.1 0.1-0.2 0.3-0.3 0.5s-0.1 0.4-0.1 0.6c0 0.2 0 0.4 0.1 0.6s0.2 0.3 0.3 0.5c0.1 0.1 0.3 0.2 0.5 0.3s0.4 0.1 0.6 0.1h6.3c-1.3-0.7-2.4-1.4-3.3-2.3zM27.3 23.4c0 0 0 0 0 0-0.3-0.2-0.5-0.5-0.6-0.8s-0.2-0.7-0.1-1c0-0.3 0.2-0.7 0.4-0.9 0.2-0.3 0.5-0.5 0.8-0.6-0.2-0.2-0.5-0.4-0.8-0.5s-0.6-0.1-0.9 0c-0.1-0.2-0.2-0.4-0.4-0.6-0.3 1.7-1 3.3-2.1 4.7s-2.5 2.5-4.1 3.1h7.8c0.1 0 0.2 0 0.2-0.1 0.1 0 0.1-0.1 0.2-0.2s0.1-0.2 0.2-0.3c0.2-0.5 0.3-1 0.1-1.6 0-0.4-0.3-0.9-0.7-1.2z"></path>
<path d="M22.2 10.5c-1.1-1.1-2.4-1.9-3.9-2.4s-3-0.6-4.5-0.3c0 0.1 0 0.2 0 0.3 0 0.5-0.1 1-0.3 1.4s-0.5 0.8-0.9 1.1c1.7-0.7 3.6-0.7 5.3-0.1 1.7 0.7 3.1 2 3.9 3.6 0.8 1.7 0.9 3.6 0.3 5.3s-1.8 3.2-3.4 4.1c-1.6 0.9-3.5 1.1-5.3 0.6s-3.3-1.7-4.2-3.3c-0.9-1.6-1.2-3.5-0.8-5.3s1.5-3.4 3.1-4.4c-0.3 0.1-0.6 0.1-0.9 0.1-0.1 0.4-0.3 0.7-0.5 1-0.3 0.3-0.6 0.5-0.9 0.7-0.4 0.2-0.8 0.2-1.2 0.2s-0.8-0.1-1.1-0.3c-0.8 1.6-1.1 3.3-0.9 5.1 0 2 0.6 3.7 1.7 5.1s2.5 2.5 4.1 3.2c1.6 0.7 3.4 0.9 5.2 0.6 1.7-0.3 3.4-1 4.7-2.2s2.3-2.7 2.9-4.3c0.5-1.7 0.6-3.5 0.2-5.2-0.5-1.8-1.4-3.4-2.6-4.6z"></path>
<path d="M10.9 21.8c0.9 0.9 2 1.5 3.3 1.7 1.2 0.2 2.5 0.1 3.7-0.4s2.2-1.3 2.9-2.3c0.7-1 1.1-2.3 1.1-3.5 0-1.3-0.4-2.5-1.1-3.5s-1.7-1.9-2.9-2.3c-1.2-0.5-2.4-0.6-3.7-0.4-1.2 0.2-2.4 0.8-3.3 1.7-1.2 1.2-1.9 2.8-1.9 4.5s0.7 3.3 1.9 4.5zM12.4 21.6l3-2.5 3 2.5c-0.9 0.6-1.9 0.9-3 0.9-1.1 0.1-2.1-0.3-3-0.9zM14.5 16.4c0.2-0.2 0.4-0.3 0.6-0.3s0.5 0 0.7 0.1c0.2 0.1 0.4 0.2 0.5 0.4s0.2 0.4 0.2 0.7-0.1 0.5-0.2 0.7c-0.1 0.2-0.3 0.3-0.5 0.4s-0.5 0.1-0.7 0.1c-0.2 0-0.4-0.2-0.6-0.3-0.1-0.1-0.2-0.2-0.3-0.4-0.1-0.1-0.1-0.3-0.1-0.5s0-0.3 0.1-0.5c0.1-0.2 0.2-0.3 0.3-0.4zM19.7 14.3c0.6 0.9 0.9 1.9 0.9 3s-0.3 2.1-0.9 3l-0.1-0.1-2.4-2.9 2.2-2.6 0.3-0.4zM18.4 12.9l-3 2.5-2.9-2.4-0.1-0.1c0.9-0.6 1.9-0.9 3-0.9s2.1 0.3 3 0.9zM11 14.3l2.5 3-2.5 3c-0.6-0.9-0.9-1.9-0.9-3s0.3-2.1 0.9-3zM5.8 11.6c0.2 0 0.4 0 0.6-0.1 0.2 0.4 0.5 0.7 0.9 0.9s0.8 0.2 1.3 0.1c0.4-0.1 0.8-0.4 1-0.8s0.3-0.8 0.2-1.2c0.4 0.1 0.8 0.2 1.2 0.1s0.8-0.3 1.1-0.5c0.3-0.3 0.6-0.6 0.7-1 0.2-0.6 0.2-1 0.1-1.4s-0.3-0.8-0.5-1.1c-0.3-0.3-0.6-0.6-1-0.7s-0.8-0.2-1.2-0.1c-0.4 0-0.8 0.1-1.2 0.4-0.2-0.1-0.4-0.2-0.6-0.3s-0.5-0.1-0.7 0c-0.3 0-0.5 0.1-0.7 0.3-0.2 0.1-0.4 0.3-0.5 0.5s-0.2 0.4-0.3 0.6c0 0.2 0 0.5 0 0.7s0.1 0.5 0.3 0.7c0.1 0.2 0.3 0.4 0.5 0.5-0.1 0.1-0.2 0.1-0.3 0.2-0.1-0.1-0.3-0.3-0.5-0.3-0.2-0.1-0.4-0.1-0.6-0.1-0.2 0.1-0.4 0.2-0.6 0.3s-0.3 0.3-0.4 0.5c-0.1 0.2-0.1 0.4-0.1 0.6s0.1 0.4 0.2 0.6 0.3 0.3 0.5 0.4c0.2 0.1 0.4 0.2 0.6 0.2v0z"></path>
</svg>
