<!-- Generated by IcoMoon.io -->
<svg version="1.1" xmlns="http://www.w3.org/2000/svg" width="32" height="32" viewBox="0 0 32 32">
<title>car-fill</title>
<path d="M20.794 5.302l0.258 0.685 0.258-0.685c0.108-0.286 0.276-0.546 0.493-0.762s0.478-0.383 0.766-0.49l0.685-0.256-0.685-0.256c-0.287-0.107-0.548-0.275-0.765-0.491s-0.385-0.476-0.492-0.762l-0.258-0.685-0.259 0.685c-0.108 0.286-0.275 0.546-0.492 0.762s-0.478 0.383-0.765 0.491l-0.689 0.256 0.689 0.256c0.287 0.107 0.548 0.274 0.765 0.49s0.385 0.476 0.492 0.762zM25.574 7.821l0.195 0.519 0.193-0.519c0.081-0.217 0.209-0.414 0.374-0.578s0.363-0.291 0.581-0.372l0.522-0.194-0.522-0.194c-0.218-0.081-0.416-0.208-0.581-0.372s-0.292-0.361-0.374-0.578l-0.196-0.519-0.195 0.519c-0.082 0.217-0.209 0.414-0.374 0.578s-0.363 0.291-0.581 0.372l-0.522 0.194 0.522 0.194c0.219 0.081 0.417 0.208 0.582 0.371s0.293 0.361 0.375 0.578zM28.491 4.937l0.195 0.52 0.196-0.52c0.082-0.217 0.209-0.414 0.374-0.578s0.363-0.291 0.581-0.372l0.522-0.194-0.522-0.194c-0.218-0.081-0.416-0.208-0.581-0.372s-0.292-0.361-0.374-0.578l-0.196-0.519-0.195 0.519c-0.082 0.217-0.209 0.414-0.374 0.578s-0.363 0.291-0.581 0.372l-0.522 0.194 0.522 0.194c0.218 0.081 0.416 0.208 0.58 0.372s0.292 0.361 0.374 0.577zM25.888 28.482v1.29c0 0.083 0.016 0.165 0.048 0.241s0.079 0.146 0.138 0.204c0.059 0.058 0.129 0.105 0.206 0.136s0.159 0.047 0.243 0.047h2.428c0.167 0 0.328-0.066 0.446-0.184s0.185-0.277 0.185-0.444v-2.487c-0.401 0.401-0.881 0.714-1.41 0.92s-1.096 0.3-1.663 0.277h-0.621zM2.384 27.249v2.523c0 0.167 0.067 0.326 0.185 0.444s0.279 0.184 0.446 0.184h2.428c0.167 0 0.328-0.066 0.446-0.184s0.185-0.277 0.185-0.444v-1.29h-0.582c-0.576 0.025-1.151-0.072-1.687-0.285s-1.020-0.536-1.421-0.948zM2.402 24.733c0 1.78 1.245 2.817 3.091 2.817h21.015c1.843 0 3.091-1.037 3.091-2.817v-0.514h-27.196v0.514zM29.884 13.275l-1.557-0.269c-0.124-0.022-0.252-0.001-0.363 0.059s-0.198 0.155-0.248 0.271l-0.484 1.089-0.197-0.299-1.365-3.205c-0.22-0.52-0.57-0.976-1.016-1.324s-0.974-0.578-1.534-0.668c-2.357-0.356-4.738-0.529-7.121-0.517-2.383-0.011-4.764 0.162-7.12 0.519-0.561 0.089-1.089 0.319-1.536 0.667s-0.797 0.804-1.017 1.325l-1.362 3.2-0.194 0.294-0.488-1.085c-0.050-0.115-0.137-0.211-0.248-0.271s-0.239-0.081-0.363-0.059l-1.557 0.272c-0.144 0.023-0.275 0.097-0.369 0.207s-0.146 0.251-0.146 0.396v0.304c0 0.14 0.048 0.275 0.136 0.384s0.211 0.184 0.348 0.214l2.132 0.485-1.021 1.548c-0.517 0.784-0.792 1.701-0.792 2.638v3.84h27.195v-3.84c-0-0.937-0.276-1.855-0.793-2.638l-1.025-1.556 2.136-0.479c0.137-0.030 0.26-0.105 0.348-0.214s0.136-0.244 0.136-0.384v-0.304c-0-0.145-0.052-0.285-0.147-0.395s-0.225-0.183-0.369-0.206zM7.189 11.286c0.157-0.376 0.409-0.705 0.73-0.957s0.703-0.417 1.107-0.481c2.308-0.348 4.639-0.518 6.974-0.507 2.334-0.011 4.666 0.159 6.974 0.507 0.404 0.064 0.785 0.229 1.106 0.481s0.573 0.581 0.73 0.956l1.049 2.461h-19.719l1.049-2.461zM5.208 20.267c-0.183-0.027-0.354-0.107-0.49-0.231s-0.232-0.286-0.275-0.465c-0.056-0.209-0.078-0.425-0.065-0.641 0.050-0.557 0.227-0.832 0.583-0.832 0 0 2.442 0.151 2.772 0.252s1.596 2.496 1.596 2.496l-4.121-0.579zM20.851 21.196l-4.881 0.277-4.822-0.271-1.23-2.594c0 0 4.332 0.375 6.081 0.375s6.082-0.375 6.082-0.375l-1.23 2.588zM27.556 19.572c-0.043 0.179-0.139 0.341-0.275 0.465s-0.307 0.205-0.49 0.232l-4.121 0.578c0 0 1.267-2.395 1.597-2.496s2.771-0.252 2.771-0.252c0.357 0 0.532 0.277 0.583 0.832 0.013 0.216-0.009 0.432-0.065 0.641z"></path>
</svg>
