<!-- Generated by IcoMoon.io -->
<svg version="1.1" xmlns="http://www.w3.org/2000/svg" width="32" height="32" viewBox="0 0 32 32">
<title>car-outline</title>
<path d="M9.329 23.208c0 0.162-0.064 0.318-0.179 0.433s-0.27 0.179-0.433 0.179h-1.394c-0.338 0-0.612-0.274-0.612-0.612s0.274-0.612 0.612-0.612h1.394c0.162 0 0.318 0.064 0.433 0.179s0.179 0.27 0.179 0.433zM7.467 17.221l-5.688-5.688c-0.115-0.115-0.179-0.27-0.179-0.433s0.064-0.318 0.179-0.433l5.688-5.688c0.115-0.115 0.27-0.179 0.433-0.179s0.318 0.064 0.433 0.179l5.688 5.688c0.115 0.115 0.179 0.27 0.179 0.433v5.688c0 0.162-0.064 0.318-0.179 0.433s-0.27 0.179-0.433 0.179h-5.688c-0.162 0-0.318-0.064-0.433-0.179zM3.078 11.1l5.076 5.076h4.822v-4.822l-5.076-5.076-4.822 4.822zM14.658 20.183h0.688c0.338 0 0.612-0.274 0.612-0.612s-0.274-0.612-0.612-0.612h-0.688c-0.338 0-0.612 0.274-0.612 0.612s0.274 0.612 0.612 0.612zM10.954 14.806c0.338 0 0.612-0.274 0.612-0.612s-0.274-0.612-0.612-0.612h-0.002c-0.338 0-0.611 0.274-0.611 0.612s0.275 0.612 0.613 0.612zM22.054 24.625c0 0.162-0.064 0.318-0.179 0.433s-0.27 0.179-0.433 0.179h-3.534c-0.281 1.299-1.44 2.275-2.822 2.275-1.417 0-2.6-1.027-2.842-2.375-0.491-0.155-0.895-0.483-1.112-0.92-0.108-0.214-0.164-0.451-0.164-0.69v-4.081c0-0.338 0.274-0.612 0.612-0.612s0.612 0.274 0.612 0.612v4.081c0 0.049 0.012 0.097 0.035 0.145 0.021 0.042 0.052 0.084 0.092 0.125 0.357-1.189 1.462-2.058 2.766-2.058 1.382 0 2.541 0.976 2.822 2.275h3.534c0.080 0 0.16 0.016 0.234 0.047s0.142 0.076 0.199 0.133c0.057 0.057 0.102 0.124 0.133 0.199s0.047 0.154 0.047 0.234zM16.749 24.625c0-0.917-0.746-1.663-1.663-1.663-0.913 0-1.656 0.739-1.663 1.649 0 0.008 0 0.015 0 0.023 0.005 0.913 0.749 1.654 1.663 1.654 0.917 0 1.663-0.746 1.663-1.663zM30.397 22.21l-0.002 0.404c-0.001 0.257-0.003 0.551-0.003 0.912 0 0.732-0.527 1.366-1.269 1.607-0.241 1.35-1.424 2.379-2.842 2.379-1.592 0-2.887-1.295-2.887-2.887s1.295-2.887 2.887-2.887c1.302 0 2.406 0.867 2.764 2.053 0.077-0.078 0.122-0.169 0.122-0.264 0-0.364 0.001-0.659 0.003-0.918l0.002-0.404c0.002-0.511 0.005-1.147-0.002-1.456-0.005-0.224-0.011-0.407-0.027-0.566h-9.416c-0.22 0-0.734 0-2.308-1.556-0.48-0.474-1.433-1.483-1.608-1.907-0.061-0.149-0.061-0.316-0-0.464s0.178-0.268 0.326-0.331c0.148-0.063 0.315-0.066 0.464-0.007s0.27 0.174 0.336 0.321c0.083 0.149 0.581 0.76 1.302 1.477 0.908 0.904 1.391 1.197 1.523 1.243h8.694c-0.197-0.189-0.449-0.412-0.774-0.7-0.186-0.165-0.372-0.33-0.557-0.496-0.148-0.133-0.296-0.274-0.438-0.41-0.208-0.199-0.424-0.404-0.648-0.592-0.188-0.157-0.375-0.315-0.563-0.473-2.272-1.912-2.882-2.427-4.798-2.427h-4.225c-0.338 0-0.612-0.274-0.612-0.612s0.274-0.612 0.612-0.612h4.225c2.362 0 3.306 0.795 5.586 2.714 0.177 0.149 0.364 0.306 0.56 0.471 0.255 0.213 0.485 0.433 0.707 0.646 0.142 0.136 0.276 0.264 0.41 0.384 0.201 0.18 0.384 0.343 0.551 0.491 1.467 1.3 1.861 1.649 1.9 3.378 0.007 0.326 0.004 0.971 0.002 1.49zM27.945 24.619c-0.004-0.914-0.748-1.657-1.663-1.657-0.917 0-1.663 0.746-1.663 1.663s0.746 1.663 1.663 1.663c0.916 0 1.662-0.745 1.663-1.662v-0.008zM26.283 24.013h-0.001c-0.338 0-0.611 0.274-0.611 0.612s0.275 0.612 0.613 0.612c0.338 0 0.612-0.274 0.612-0.612s-0.274-0.612-0.612-0.612zM8.717 20.398h-3.117c-0.338 0-0.612 0.274-0.612 0.612s0.274 0.612 0.612 0.612h3.117c0.338 0 0.612-0.274 0.612-0.612s-0.274-0.612-0.612-0.612zM15.087 24.013h-0.002c-0.338 0-0.611 0.274-0.611 0.612s0.275 0.612 0.613 0.612c0.338 0 0.612-0.274 0.612-0.612s-0.274-0.612-0.612-0.612z"></path>
</svg>
