<!-- Generated by IcoMoon.io -->
<svg version="1.1" xmlns="http://www.w3.org/2000/svg" width="32" height="32" viewBox="0 0 32 32">
<path d="M27.696 13.539l-1.824-5.473c-0.264-0.797-0.773-1.49-1.454-1.981s-1.499-0.755-2.339-0.754h-12.157c-0.839-0.001-1.658 0.263-2.339 0.754s-1.19 1.184-1.454 1.981l-1.824 5.473c-0.485 0.203-0.898 0.545-1.19 0.982s-0.447 0.951-0.448 1.476v6.667c0 1.004 0.564 1.869 1.385 2.324-0.017 0.088-0.052 0.168-0.052 0.26v2.749c0 0.354 0.14 0.693 0.39 0.943s0.589 0.39 0.943 0.39h1.333c0.354 0 0.693-0.14 0.943-0.39s0.391-0.589 0.391-0.943v-2.667h16v2.667c0 0.354 0.14 0.693 0.391 0.943s0.589 0.39 0.943 0.39h1.333c0.354 0 0.693-0.14 0.943-0.39s0.39-0.589 0.39-0.943v-2.749c0-0.092-0.035-0.173-0.052-0.26 0.418-0.228 0.767-0.564 1.011-0.972s0.373-0.876 0.375-1.352v-6.667c0-1.105-0.677-2.055-1.637-2.459zM5.333 22.665v-6.667h21.333l0.003 6.667h-21.336zM9.921 7.998h12.156c0.575 0 1.084 0.365 1.265 0.912l1.475 4.421h-17.635l1.473-4.421c0.088-0.266 0.258-0.497 0.485-0.66s0.5-0.252 0.78-0.252z"></path>
<path d="M8.666 21.331c1.105 0 2-0.895 2-2s-0.895-2-2-2-2 0.896-2 2c0 1.105 0.895 2 2 2z"></path>
<path d="M23.334 21.331c1.105 0 2-0.895 2-2s-0.895-2-2-2-2 0.896-2 2c0 1.105 0.895 2 2 2z"></path>
</svg>
