<!-- Generated by IcoMoon.io -->
<svg version="1.1" xmlns="http://www.w3.org/2000/svg" width="32" height="32" viewBox="0 0 32 32">
<path d="M23.855 1.6h-15.709c-1.735 0.002-3.399 0.692-4.626 1.919s-1.917 2.891-1.919 4.626v10.473c0.002 1.508 0.524 2.97 1.478 4.138s2.281 1.972 3.759 2.276v4.058c-0 0.237 0.064 0.47 0.186 0.673s0.296 0.37 0.505 0.482c0.209 0.112 0.444 0.165 0.681 0.153s0.466-0.087 0.663-0.219l7.521-5.016h7.462c1.735-0.002 3.399-0.692 4.626-1.92s1.917-2.891 1.919-4.626v-10.473c-0.002-1.735-0.692-3.399-1.919-4.626s-2.891-1.917-4.626-1.919zM21.236 17.309h-10.473c-0.347 0-0.68-0.138-0.926-0.384s-0.383-0.578-0.383-0.926 0.138-0.68 0.383-0.926c0.245-0.245 0.578-0.383 0.926-0.383h10.473c0.347 0 0.68 0.138 0.926 0.383s0.383 0.578 0.383 0.926-0.138 0.68-0.383 0.926c-0.246 0.246-0.579 0.384-0.926 0.384zM23.855 12.073h-15.709c-0.347 0-0.68-0.138-0.926-0.383s-0.383-0.578-0.383-0.926c0-0.347 0.138-0.68 0.383-0.926s0.578-0.383 0.926-0.383h15.709c0.347 0 0.68 0.138 0.926 0.383s0.384 0.578 0.384 0.926-0.138 0.68-0.384 0.926c-0.245 0.245-0.578 0.383-0.926 0.383z"></path>
</svg>
