<!-- Generated by IcoMoon.io -->
<svg version="1.1" xmlns="http://www.w3.org/2000/svg" width="32" height="32" viewBox="0 0 32 32">
<path d="M16 1.333c-8.107 0-14.667 6.56-14.667 14.667s6.56 14.667 14.667 14.667c8.107 0 14.667-6.56 14.667-14.667s-6.56-14.667-14.667-14.667zM23.347 11.533l-10.187 9.413c-0.333 0.307-0.84 0.307-1.173 0.013l-4.347-3.88c-0.307-0.267-0.333-0.747-0.053-1.053s0.747-0.333 1.053-0.053l3.933 3.52 9.787-9.040c0.307-0.28 0.773-0.253 1.053 0.040 0.24 0.293 0.227 0.76-0.067 1.040z"></path>
</svg>
