<!-- Generated by IcoMoon.io -->
<svg version="1.1" xmlns="http://www.w3.org/2000/svg" width="32" height="32" viewBox="0 0 32 32">
<title>circle-minus</title>
<path d="M16 30.56c-8 0-14.56-6.56-14.56-14.56s6.56-14.56 14.56-14.56 14.56 6.56 14.56 14.56c0 8-6.56 14.56-14.56 14.56zM16 3.84c-6.72 0-12.16 5.44-12.16 12.16s5.44 12.16 12.16 12.16 12.16-5.44 12.16-12.16c0-6.72-5.44-12.16-12.16-12.16z"></path>
<path d="M21.28 17.28h-10.56c-0.64 0-1.28-0.48-1.28-1.28s0.48-1.28 1.28-1.28h10.72c0.64 0 1.28 0.48 1.28 1.28s-0.8 1.28-1.44 1.28z"></path>
</svg>
