<!-- Generated by IcoMoon.io -->
<svg version="1.1" xmlns="http://www.w3.org/2000/svg" width="32" height="32" viewBox="0 0 32 32">
<path d="M17.266 15.493v-4.558c0-0.359-0.121-0.659-0.364-0.902s-0.543-0.364-0.902-0.364c-0.359 0-0.659 0.121-0.902 0.364s-0.364 0.543-0.364 0.902v5.033c0 0.169 0.032 0.332 0.095 0.491s0.158 0.301 0.285 0.427l4.178 4.178c0.232 0.232 0.528 0.348 0.886 0.348s0.654-0.116 0.886-0.348 0.348-0.527 0.348-0.886c0-0.359-0.116-0.654-0.348-0.886l-3.798-3.798zM16 28.661c-1.751 0-3.397-0.332-4.938-0.997s-2.88-1.567-4.020-2.706-2.042-2.479-2.706-4.020c-0.665-1.54-0.997-3.186-0.997-4.938s0.332-3.397 0.997-4.938 1.567-2.88 2.706-4.020c1.139-1.139 2.479-2.042 4.020-2.706s3.186-0.997 4.938-0.997c1.751 0 3.397 0.332 4.938 0.997s2.88 1.567 4.020 2.706c1.139 1.139 2.041 2.479 2.706 4.020s0.997 3.186 0.997 4.938c0 1.751-0.332 3.397-0.997 4.938s-1.567 2.88-2.706 4.020-2.479 2.041-4.020 2.706c-1.54 0.665-3.186 0.997-4.938 0.997zM16 26.129c2.806 0 5.196-0.986 7.169-2.959s2.959-4.363 2.959-7.169c0-2.806-0.986-5.196-2.959-7.169s-4.363-2.959-7.169-2.959c-2.806 0-5.196 0.986-7.169 2.959s-2.959 4.363-2.959 7.169c0 2.806 0.986 5.196 2.959 7.169s4.363 2.959 7.169 2.959z"></path>
</svg>
