<!-- Generated by IcoMoon.io -->
<svg version="1.1" xmlns="http://www.w3.org/2000/svg" width="32" height="32" viewBox="0 0 32 32">
<path d="M28.8 12.8c-1.067 0-1.733-0.667-2-1.333-0.133-0.667-0.133-1.6 0.533-2.267 0.667-0.8 0.667-1.867 0-2.533l-2-2c-0.667-0.667-1.867-0.667-2.533 0s-1.6 0.667-2.267 0.4c-0.667-0.267-1.333-0.933-1.333-2 0-0.933-0.8-1.733-1.867-1.733h-2.667c-1.067 0-1.867 0.8-1.867 1.867s-0.667 1.733-1.333 2c-0.667 0.133-1.6 0.133-2.267-0.533-0.8-0.667-1.867-0.667-2.533 0l-2 2c-0.667 0.667-0.667 1.733 0 2.533 0.667 0.667 0.667 1.6 0.4 2.267s-0.933 1.333-2 1.333c-0.933 0-1.733 0.8-1.733 1.867v2.667c0 1.067 0.8 1.867 1.867 1.867s1.733 0.667 2 1.333c0.133 0.667 0.133 1.6-0.533 2.267-0.667 0.8-0.667 1.867 0 2.533l2 2c0.667 0.667 1.867 0.667 2.533 0s1.6-0.667 2.267-0.4c0.667 0.267 1.333 0.933 1.333 2s0.8 1.867 1.867 1.867h2.667c1.067 0 1.867-0.8 1.867-1.867s0.667-1.733 1.333-2c0.667-0.267 1.6-0.267 2.267 0.4s1.867 0.667 2.533 0l2-2c0.667-0.667 0.667-1.867 0-2.533-0.8-0.8-0.667-1.733-0.4-2.267 0.267-0.667 0.933-1.333 2-1.333s1.867-0.8 1.867-1.867v-2.667c-0.133-1.067-0.933-1.867-2-1.867zM28.8 17.333c-1.6 0-3.067 0.933-3.6 2.4-0.667 1.467-0.267 3.2 0.8 4.267l-1.867 1.867c-1.2-1.2-2.8-1.467-4.267-0.8s-2.4 2-2.4 3.6h-2.667c0-1.6-0.933-3.067-2.4-3.6-1.467-0.667-3.2-0.267-4.267 0.8l-1.867-1.867c1.2-1.2 1.467-2.8 0.8-4.267-0.933-1.467-2.267-2.4-3.867-2.4v-2.667c1.6 0 3.067-0.933 3.6-2.4 0.667-1.6 0.267-3.2-0.8-4.4l1.867-1.867c1.2 1.067 2.8 1.467 4.267 0.8 1.6-0.667 2.533-2 2.533-3.6h2.667c0 1.6 0.933 3.067 2.4 3.6 1.467 0.667 3.2 0.267 4.267-0.8l1.867 1.867c-1.2 1.2-1.467 2.8-0.8 4.267s2 2.4 3.6 2.4l0.133 2.8zM16 8.267c-4.267 0-7.733 3.467-7.733 7.733s3.467 7.733 7.733 7.733c4.267 0 7.733-3.467 7.733-7.733s-3.467-7.733-7.733-7.733zM16 21.867c-3.2 0-5.867-2.667-5.867-5.867s2.667-5.867 5.867-5.867c3.2 0 5.867 2.667 5.867 5.867s-2.667 5.867-5.867 5.867zM19.867 13.333c0.267 0.4 0.267 0.933-0.133 1.333l-4.667 4c-0.133 0.133-0.4 0.267-0.533 0.267-0.267 0-0.4-0.133-0.667-0.267l-1.467-1.467c-0.4-0.4-0.4-0.933 0-1.333s0.933-0.4 1.333 0l0.933 0.933 4.133-3.467c0.133-0.4 0.667-0.267 1.067 0z"></path>
</svg>
