<!-- Generated by IcoMoon.io -->
<svg version="1.1" xmlns="http://www.w3.org/2000/svg" width="32" height="32" viewBox="0 0 32 32">
<title>coolicon</title>
<path d="M16 30.667l-1.067-1.067c-0.667-0.667-1.467-1.333-2.133-2l-1.2-1.2c-1.467-1.333-3.2-3.067-4.8-4.8-3.6-4.133-5.333-7.733-5.333-11.6 0-2.4 0.8-4.667 2.4-6.267s3.467-2.4 5.467-2.4c2.533 0 4.933 1.2 6.667 3.2 1.6-2 4-3.2 6.533-3.2 0 0 0.133 0 0.133 0 2 0 4.133 0.933 5.6 2.533 1.6 1.6 2.4 3.867 2.4 6.267 0 3.733-1.733 7.467-5.333 11.6-1.6 1.733-3.333 3.333-4.8 4.8l-1.333 1.2c-0.8 0.667-1.467 1.333-2 1.867l-1.2 1.067zM9.333 4.533c-1.2 0-2.4 0.533-3.2 1.467-0.933 1.067-1.6 2.533-1.6 4.133v0c0 2.933 1.467 5.867 4.533 9.467 1.467 1.6 3.067 3.2 4.533 4.533l1.2 1.067c0.4 0.4 0.8 0.667 1.067 0.933 0.267-0.267 0.533-0.533 0.8-0.8l1.467-1.333c1.467-1.333 3.067-2.933 4.533-4.533 3.067-3.467 4.533-6.533 4.533-9.467 0-1.6-0.533-3.067-1.467-4.133-0.933-0.933-2-1.467-3.2-1.467 0 0 0 0 0 0-1.6 0-3.067 0.8-4.133 2l-2.4 3.333-2.533-3.067c-1.067-1.333-2.533-2-4.133-2.133 0 0 0 0 0 0z"></path>
</svg>
