<!-- Generated by IcoMoon.io -->
<svg version="1.1" xmlns="http://www.w3.org/2000/svg" width="32" height="32" viewBox="0 0 32 32">
<title>copy</title>
<path d="M26.533 30.667h-11.867c-2.267 0-4.133-1.867-4.133-4.133v-11.867c0-2.267 1.867-4.133 4.133-4.133h11.733c2.267 0 4.133 1.867 4.133 4.133v11.733c0.133 2.4-1.733 4.267-4 4.267zM14.667 13.6c-0.533 0-1.067 0.533-1.067 1.067v11.733c0 0.533 0.533 1.067 1.067 1.067h11.733c0.533 0 1.067-0.533 1.067-1.067v-11.733c0-0.533-0.533-1.067-1.067-1.067h-11.733z"></path>
<path d="M6.8 21.467h-1.333c-1.067 0-2.133-0.4-2.933-1.2s-1.2-1.867-1.2-2.933v-11.867c0-1.067 0.4-2.133 1.2-2.933s1.867-1.2 2.933-1.2h11.867c1.067 0 2.133 0.4 2.933 1.2s1.2 1.867 1.2 2.933v1.333c0 0.933-0.667 1.6-1.6 1.6s-1.6-0.667-1.6-1.6v-1.333c0-0.267-0.133-0.533-0.267-0.8-0.133-0.133-0.4-0.267-0.8-0.267h-11.733c-0.267 0-0.533 0.133-0.8 0.267-0.133 0.267-0.133 0.533-0.133 0.8v11.867c0 0.267 0.133 0.533 0.267 0.8s0.4 0.267 0.8 0.267h1.333c0.933 0 1.6 0.667 1.6 1.6s-0.8 1.467-1.733 1.467z"></path>
</svg>
