<!-- Generated by IcoMoon.io -->
<svg version="1.1" xmlns="http://www.w3.org/2000/svg" width="32" height="32" viewBox="0 0 32 32">
<title>cross-fill</title>
<path d="M28.8 16c0-7.069-5.731-12.8-12.8-12.8s-12.8 5.731-12.8 12.8c0 7.069 5.731 12.8 12.8 12.8s12.8-5.731 12.8-12.8zM9.749 9.749c0.625-0.625 1.638-0.625 2.263 0l3.989 3.989 3.989-3.989c0.625-0.625 1.638-0.625 2.263 0s0.625 1.638 0 2.263l-3.989 3.989 3.989 3.989c0.625 0.625 0.625 1.638 0 2.263s-1.638 0.625-2.263 0l-3.989-3.989-3.989 3.989c-0.625 0.625-1.638 0.625-2.263 0s-0.625-1.638 0-2.263l3.989-3.989-3.989-3.989c-0.625-0.625-0.625-1.638 0-2.263z"></path>
</svg>
