<!-- Generated by IcoMoon.io -->
<svg version="1.1" xmlns="http://www.w3.org/2000/svg" width="32" height="32" viewBox="0 0 32 32">
<title>customer-fill</title>
<path d="M10.397 20.896c-0.818 0.64-1.48 1.458-1.935 2.392s-0.691 1.959-0.691 2.998v2.057h-4.114c-1.138 0-2.057-0.919-2.057-2.057v-1.371c0-2.654 2.146-4.8 4.8-4.8h1.371c0.974 0 1.872 0.288 2.626 0.782z"></path>
<path d="M23.543 20.115c1.704 0 3.086-1.382 3.086-3.086s-1.381-3.086-3.086-3.086-3.086 1.382-3.086 3.086c0 1.704 1.381 3.086 3.086 3.086z"></path>
<path d="M7.086 20.115c1.704 0 3.086-1.382 3.086-3.086s-1.382-3.086-3.086-3.086-3.086 1.382-3.086 3.086c0 1.704 1.381 3.086 3.086 3.086z"></path>
<path d="M29.028 24.915v1.371c0 1.138-0.919 2.057-2.057 2.057h-4.114v-2.057c0-2.187-1.028-4.135-2.626-5.39 0.754-0.494 1.652-0.782 2.626-0.782h1.371c2.654 0 4.8 2.146 4.8 4.8z"></path>
<path d="M15.313 20.8c2.083 0 3.771-1.688 3.771-3.771s-1.688-3.771-3.771-3.771-3.771 1.688-3.771 3.771c0 2.083 1.688 3.771 3.771 3.771z"></path>
<path d="M15.999 20.8h-1.371c-3.025 0-5.486 2.461-5.486 5.485v2.057c0 1.134 0.923 2.057 2.057 2.057h8.228c1.134 0 2.057-0.923 2.057-2.057v-2.057c0-3.024-2.461-5.485-5.486-5.485zM25.256 10.984l-1.655 0.588c-0.109 0.039-0.225 0.050-0.339 0.034s-0.222-0.060-0.316-0.128c-0.093-0.068-0.168-0.157-0.219-0.261s-0.076-0.218-0.073-0.333l0.048-1.755-1.071-1.392c-0.070-0.091-0.117-0.198-0.137-0.312s-0.011-0.23 0.024-0.34 0.097-0.209 0.18-0.289c0.082-0.080 0.183-0.139 0.294-0.172l1.685-0.496 0.993-1.449c0.065-0.095 0.152-0.173 0.254-0.226s0.215-0.082 0.331-0.082 0.229 0.028 0.331 0.082c0.102 0.054 0.189 0.131 0.254 0.226l0.993 1.449 1.685 0.496c0.478 0.141 0.665 0.718 0.361 1.113l-1.071 1.392 0.048 1.755c0.003 0.115-0.022 0.229-0.073 0.332s-0.126 0.193-0.219 0.26-0.201 0.112-0.315 0.128c-0.114 0.017-0.23 0.005-0.339-0.033l-1.655-0.588zM5.371 10.984l-1.655 0.588c-0.109 0.039-0.225 0.050-0.339 0.034s-0.222-0.060-0.316-0.128c-0.093-0.068-0.168-0.157-0.219-0.261s-0.076-0.218-0.073-0.333l0.048-1.755-1.071-1.392c-0.070-0.091-0.117-0.198-0.137-0.312s-0.011-0.23 0.024-0.34c0.036-0.11 0.097-0.209 0.18-0.289s0.183-0.139 0.294-0.172l1.685-0.496 0.993-1.449c0.065-0.095 0.152-0.173 0.254-0.226s0.215-0.082 0.331-0.082c0.115 0 0.229 0.028 0.331 0.082s0.189 0.131 0.254 0.226l0.993 1.449 1.685 0.496c0.478 0.141 0.665 0.718 0.361 1.113l-1.071 1.392 0.048 1.755c0.003 0.115-0.022 0.229-0.073 0.332s-0.126 0.193-0.219 0.26c-0.093 0.068-0.201 0.112-0.315 0.128s-0.23 0.005-0.339-0.033l-1.655-0.588zM15.313 9.441l-1.962 0.697c-0.129 0.046-0.267 0.059-0.402 0.040s-0.264-0.072-0.374-0.152c-0.11-0.080-0.2-0.186-0.26-0.309s-0.090-0.258-0.086-0.394l0.057-2.081-1.27-1.65c-0.083-0.108-0.139-0.235-0.162-0.37s-0.013-0.273 0.029-0.403c0.042-0.13 0.115-0.248 0.213-0.343s0.217-0.165 0.348-0.204l1.997-0.589 1.177-1.718c0.077-0.113 0.181-0.205 0.302-0.269s0.255-0.097 0.392-0.097c0.137 0 0.271 0.033 0.392 0.097s0.224 0.156 0.302 0.269l1.177 1.718 1.997 0.589c0.131 0.039 0.25 0.109 0.348 0.204s0.171 0.213 0.213 0.343c0.042 0.13 0.052 0.268 0.029 0.403s-0.079 0.261-0.162 0.37l-1.27 1.65 0.057 2.081c0.004 0.136-0.026 0.272-0.086 0.394s-0.15 0.229-0.26 0.309c-0.11 0.080-0.239 0.132-0.374 0.152s-0.273 0.006-0.402-0.040l-1.962-0.697z"></path>
</svg>
