<!-- Generated by IcoMoon.io -->
<svg version="1.1" xmlns="http://www.w3.org/2000/svg" width="32" height="32" viewBox="0 0 32 32">
<title>edit</title>
<path d="M14.934 26.667c0-0.589 0.478-1.067 1.067-1.067h12c0.589 0 1.067 0.478 1.067 1.067s-0.477 1.067-1.067 1.067h-12c-0.589 0-1.067-0.477-1.067-1.067z"></path>
<path d="M24 4.902c-0.467 0-0.915 0.186-1.246 0.516l-16.458 16.458-0.83 3.322 3.322-0.831 16.458-16.458c0.164-0.164 0.293-0.358 0.382-0.572s0.134-0.443 0.134-0.674-0.046-0.46-0.134-0.674c-0.089-0.214-0.218-0.408-0.382-0.572s-0.358-0.293-0.572-0.382c-0.214-0.089-0.443-0.134-0.674-0.134zM21.246 3.91c0.73-0.73 1.721-1.141 2.754-1.141 0.512 0 1.018 0.101 1.491 0.296s0.902 0.483 1.264 0.844c0.362 0.362 0.649 0.791 0.844 1.264s0.296 0.979 0.296 1.491c0 0.512-0.101 1.018-0.296 1.491s-0.483 0.902-0.844 1.264l-16.667 16.667c-0.137 0.137-0.308 0.234-0.496 0.28l-5.333 1.333c-0.364 0.091-0.748-0.016-1.013-0.281s-0.371-0.649-0.281-1.013l1.333-5.333c0.047-0.188 0.144-0.359 0.281-0.496l16.667-16.667z"></path>
</svg>
