<!-- Generated by IcoMoon.io -->
<svg version="1.1" xmlns="http://www.w3.org/2000/svg" width="32" height="32" viewBox="0 0 32 32">
<path d="M15.611 27.995c-0.774 0-1.554-0.088-2.34-0.264s-1.589-0.428-2.41-0.757c0.281-2.838 1.103-5.489 2.463-7.952s3.108-4.633 5.243-6.51c-2.58 1.314-4.815 3.050-6.703 5.208s-3.208 4.621-3.958 7.389c-0.094-0.070-0.182-0.147-0.264-0.229l-0.264-0.264c-1.103-1.102-1.941-2.334-2.516-3.695s-0.862-2.78-0.862-4.258c0-1.595 0.317-3.12 0.95-4.574s1.513-2.745 2.639-3.871c1.642-1.642 3.677-2.791 6.105-3.448s5.706-0.891 9.835-0.704c0.61 0.023 1.173 0.158 1.689 0.405s0.973 0.569 1.372 0.968 0.715 0.862 0.95 1.39c0.235 0.528 0.375 1.097 0.422 1.707 0.141 4.222-0.106 7.518-0.739 9.887s-1.759 4.363-3.378 5.982c-1.149 1.149-2.434 2.035-3.853 2.657s-2.879 0.932-4.381 0.932z"></path>
</svg>
