<!-- Generated by IcoMoon.io -->
<svg version="1.1" xmlns="http://www.w3.org/2000/svg" width="32" height="32" viewBox="0 0 32 32">
<path d="M26.378 1.6h-20.757c-0.642 0.001-1.258 0.249-1.712 0.69s-0.709 1.039-0.71 1.663v24.809c-0 0.258 0.076 0.511 0.22 0.728s0.349 0.389 0.591 0.496 0.51 0.144 0.773 0.107c0.263-0.037 0.509-0.147 0.709-0.317l1.683-1.425 2.024 1.718c0.252 0.212 0.575 0.329 0.909 0.329s0.657-0.117 0.909-0.329l2.029-1.717 2.031 1.719c0.252 0.212 0.575 0.329 0.908 0.329s0.656-0.117 0.908-0.329l2.033-1.719 2.031 1.717c0.252 0.213 0.575 0.331 0.909 0.331s0.657-0.116 0.91-0.328l2.038-1.721 1.692 1.429c0.2 0.169 0.447 0.279 0.71 0.316s0.531-0 0.773-0.108c0.242-0.107 0.446-0.28 0.59-0.497s0.22-0.47 0.219-0.728v-24.81c-0.001-0.624-0.256-1.222-0.71-1.663s-1.069-0.689-1.712-0.69zM9.081 23.787c-0.205 0-0.406-0.059-0.577-0.17s-0.304-0.268-0.382-0.452c-0.079-0.184-0.099-0.387-0.059-0.583s0.139-0.375 0.284-0.516c0.145-0.141 0.33-0.237 0.531-0.276s0.41-0.019 0.6 0.057 0.352 0.206 0.466 0.372c0.114 0.166 0.175 0.361 0.175 0.56 0 0.268-0.109 0.524-0.304 0.713s-0.459 0.296-0.734 0.296zM10.465 19.753c-0.275 0-0.539-0.106-0.734-0.295s-0.304-0.446-0.304-0.713v-0.522c-0.605-0.207-1.13-0.592-1.501-1.1s-0.572-1.116-0.574-1.74c0-0.267 0.109-0.524 0.304-0.713s0.459-0.295 0.734-0.295c0.275 0 0.539 0.106 0.734 0.295s0.304 0.446 0.304 0.713c0 0.199 0.061 0.394 0.175 0.56s0.276 0.295 0.466 0.371 0.398 0.096 0.6 0.057c0.201-0.039 0.386-0.135 0.531-0.276s0.244-0.321 0.284-0.516 0.020-0.398-0.059-0.583c-0.079-0.184-0.212-0.342-0.382-0.453s-0.371-0.17-0.577-0.17c-0.734 0.003-1.446-0.248-2.008-0.706s-0.939-1.097-1.064-1.8c-0.124-0.703 0.012-1.427 0.384-2.042s0.957-1.082 1.65-1.318v-0.522c0-0.267 0.109-0.524 0.304-0.713s0.459-0.295 0.734-0.295c0.275 0 0.539 0.106 0.734 0.295s0.304 0.446 0.304 0.713v0.522c0.605 0.207 1.13 0.592 1.501 1.1s0.572 1.116 0.574 1.74c0 0.267-0.109 0.524-0.304 0.713s-0.459 0.295-0.734 0.295c-0.275 0-0.539-0.106-0.734-0.295s-0.304-0.446-0.304-0.713c0-0.199-0.061-0.394-0.175-0.56s-0.276-0.295-0.466-0.371c-0.19-0.076-0.398-0.096-0.6-0.057s-0.386 0.135-0.531 0.276c-0.145 0.141-0.244 0.321-0.284 0.516s-0.020 0.398 0.059 0.583c0.079 0.184 0.212 0.342 0.382 0.453s0.371 0.17 0.577 0.17c0.734-0.003 1.446 0.248 2.008 0.706s0.939 1.096 1.064 1.8c0.124 0.703-0.012 1.427-0.384 2.042s-0.957 1.082-1.65 1.318v0.522c0 0.268-0.109 0.524-0.304 0.713s-0.459 0.295-0.734 0.295zM23.611 23.787h-11.070c-0.275 0-0.539-0.106-0.734-0.296s-0.304-0.446-0.304-0.713c0-0.267 0.109-0.524 0.304-0.713s0.459-0.296 0.734-0.296h11.070c0.275 0 0.539 0.106 0.734 0.296s0.304 0.446 0.304 0.713c0 0.268-0.109 0.524-0.304 0.713s-0.459 0.296-0.734 0.296zM23.611 19.305h-6.919c-0.275 0-0.539-0.106-0.734-0.295s-0.304-0.446-0.304-0.713c0-0.268 0.109-0.524 0.304-0.713s0.459-0.295 0.734-0.295h6.919c0.275 0 0.539 0.106 0.734 0.295s0.304 0.446 0.304 0.713c0 0.267-0.109 0.524-0.304 0.713s-0.459 0.295-0.734 0.295zM23.611 14.822h-6.919c-0.275 0-0.539-0.106-0.734-0.295s-0.304-0.446-0.304-0.713 0.109-0.524 0.304-0.713c0.195-0.189 0.459-0.295 0.734-0.295h6.919c0.275 0 0.539 0.106 0.734 0.295s0.304 0.446 0.304 0.713-0.109 0.524-0.304 0.713c-0.195 0.189-0.459 0.295-0.734 0.295zM23.611 10.34h-6.919c-0.275 0-0.539-0.106-0.734-0.295s-0.304-0.446-0.304-0.713 0.109-0.524 0.304-0.713c0.195-0.189 0.459-0.295 0.734-0.295h6.919c0.275 0 0.539 0.106 0.734 0.295s0.304 0.446 0.304 0.713-0.109 0.524-0.304 0.713c-0.195 0.189-0.459 0.295-0.734 0.295z"></path>
</svg>
