<!-- Generated by IcoMoon.io -->
<svg version="1.1" xmlns="http://www.w3.org/2000/svg" width="32" height="32" viewBox="0 0 32 32">
<title>file-minus</title>
<path d="M23.867 30.667h-15.733c-1.067 0-2.133-0.4-2.933-1.2s-1.2-1.867-1.2-2.933v-21.067c0-1.067 0.4-2.133 1.2-2.933s1.867-1.2 2.933-1.2h10.533c0.4 0 0.8 0.133 1.067 0.4l7.867 7.867c0.267 0.4 0.4 0.8 0.4 1.2v15.733c0 1.067-0.4 2.133-1.2 2.933s-1.867 1.2-2.933 1.2zM8.133 4.533c-0.267 0-0.533 0.133-0.8 0.267-0.133 0.133-0.267 0.4-0.267 0.667v20.933c0 0.267 0.133 0.533 0.267 0.8 0.133 0.133 0.4 0.267 0.8 0.267h15.733c0.267 0 0.533-0.133 0.8-0.267 0.133-0.133 0.267-0.4 0.267-0.8v-14.933l-6.933-6.933h-9.867z"></path>
<path d="M26.533 12.4h-7.867c-0.933 0-1.6-0.667-1.6-1.6v-7.867c0-0.933 0.667-1.6 1.6-1.6s1.6 0.667 1.6 1.6v6.267h6.267c0.933 0 1.6 0.667 1.6 1.6s-0.8 1.6-1.6 1.6z"></path>
<path d="M19.867 21.467h-7.733c-0.933 0-1.6-0.667-1.6-1.6s0.667-1.6 1.6-1.6h7.867c0.933 0 1.6 0.667 1.6 1.6s-0.8 1.6-1.733 1.6z"></path>
</svg>
