<!-- Generated by IcoMoon.io -->
<svg version="1.1" xmlns="http://www.w3.org/2000/svg" width="32" height="32" viewBox="0 0 32 32">
<title>free-plan</title>
<path d="M32 20.8c0 0.7 0 1.4 0 2 0 0.1-0.1 0.2-0.2 0.2s-0.1 0-0.2 0c-10.3 0-20.7 0-31 0-0.3 0-0.5-0.2-0.5-0.5 0-0.6 0-1.1 0-1.7h31.9z"></path>
<path d="M23 12.9c1 0.9 0.8 4.4 0.8 6.5 0 0.1 0 0.4-0.2 0.4-0.6 0-1.1 0-1.8 0-0.5 0-0.5-0.3-0.5-0.6 0-0.2 0-0.3 0-0.6h-10.5c0 0-0.1 0.1-0.1 0.1-0.1 0.4-0.1 1-0.3 1-0.6 0.1-1.2 0.1-1.9 0-0.2 0-0.3-0.3-0.3-0.5 0-1.6 0-2.6 0-4.1 0-1.1 0.4-2.1 0.7-2.3-0.2-0.1-0.4-0.1-0.6-0.2-0.1 0-0.3-0.3-0.3-0.4 0.1-0.2 0.4-0.4 0.6-0.5 0 0 0.1 0 0.1 0 1.1 0.2 1.7-0.4 2.1-1.2 0.5-1 1.5-1.4 2.7-1.4 1.7 0 3.4 0 5.2 0 1.1 0 1.8 0.4 2.4 1.2 0.1 0.2 0.3 0.4 0.4 0.5 0.3 0.7 0.8 1 1.6 0.9 0.4-0.1 0.9 0 1 0.5s-0.3 0.6-0.8 0.7c-0.2 0-0.2 0-0.3 0v0zM16 13c1.7 0 3.5 0 5.2 0 0.5 0 0.7-0.2 0.4-0.6-0.4-0.7-0.9-1.3-1.3-2-0.3-0.5-0.8-0.7-1.5-0.7-1.9 0-3.8 0-5.7 0-0.7 0-1.2 0.3-1.6 0.8-0.4 0.6-0.8 1.2-1.2 1.7-0.3 0.6-0.2 0.8 0.6 0.8 1.7 0 3.4 0 5.1 0v0zM10.7 16c0 0 0 0 0 0 0.3 0 0.5 0.1 0.8 0 0.2-0.1 0.6-0.3 0.6-0.5s-0.2-0.5-0.4-0.6c-0.5-0.2-1-0.4-1.5-0.5s-0.9 0.2-1 0.6c-0.1 0.5 0.2 0.8 0.7 0.9 0.3 0.1 0.5 0.1 0.8 0.1v0zM16 17.8v0c0.6 0 1.1 0 1.7 0 0.4 0 0.6-0.1 0.5-0.5 0-0.2-0.3-0.4-0.5-0.4-1.1 0-2.2 0-3.3 0-0.4 0-0.6 0.1-0.6 0.5s0.2 0.4 0.6 0.4c0.5 0 1 0 1.6 0v0zM21.2 16c0.3 0 0.6 0 0.8 0 0.6-0.1 0.9-0.5 0.8-0.9-0.1-0.5-0.6-0.8-1.1-0.7-0.3 0.1-0.5 0.1-0.8 0.3-0.4 0.2-1.2 0.2-1 0.9 0.1 0.2 0.8 0.4 1.3 0.4v0z"></path>
</svg>
