<!-- Generated by IcoMoon.io -->
<svg version="1.1" xmlns="http://www.w3.org/2000/svg" width="32" height="32" viewBox="0 0 32 32">
<path d="M10.935 28.663c-1.393 0-2.585-0.496-3.577-1.488s-1.488-2.184-1.488-3.577v-12.663c0-1.393 0.496-2.585 1.488-3.577s2.184-1.488 3.577-1.488h1.266v-1.266c0-0.359 0.121-0.66 0.364-0.902s0.543-0.364 0.902-0.364c0.359 0 0.659 0.121 0.902 0.364s0.364 0.543 0.364 0.902v1.266h2.533v-1.266c0-0.359 0.121-0.66 0.364-0.902s0.543-0.364 0.902-0.364 0.66 0.121 0.902 0.364c0.243 0.243 0.364 0.543 0.364 0.902v1.266h1.266c1.393 0 2.585 0.496 3.577 1.488s1.488 2.184 1.488 3.577v12.663c0 1.393-0.496 2.585-1.488 3.577s-2.184 1.488-3.577 1.488h-10.13zM12.201 13.467h7.598c0.359 0 0.66-0.121 0.902-0.364s0.364-0.543 0.364-0.902-0.121-0.66-0.364-0.902c-0.243-0.243-0.543-0.364-0.902-0.364h-7.598c-0.359 0-0.66 0.121-0.902 0.364s-0.364 0.543-0.364 0.902c0 0.359 0.121 0.66 0.364 0.902s0.543 0.364 0.902 0.364zM16 23.598c0.886 0 1.636-0.301 2.248-0.902s0.918-1.335 0.918-2.2c0-0.359-0.042-0.665-0.127-0.918s-0.243-0.549-0.475-0.886l-1.836-2.153c-0.19-0.232-0.433-0.348-0.728-0.348s-0.538 0.116-0.728 0.348l-1.836 2.184c-0.232 0.338-0.39 0.628-0.475 0.871s-0.127 0.543-0.127 0.902c0 0.865 0.306 1.599 0.918 2.2s1.361 0.902 2.248 0.902z"></path>
</svg>
