<!-- Generated by IcoMoon.io -->
<svg version="1.1" xmlns="http://www.w3.org/2000/svg" width="32" height="32" viewBox="0 0 32 32">
<path d="M15.733 26.667c-0.8 0-1.333-0.267-1.867-0.8s-0.8-1.2-0.8-1.867 0.267-1.333 0.8-1.867c0.533-0.533 1.2-0.8 1.867-0.8l0.8-0.8c0.133-0.133 0.4-0.267 0.667-0.4s0.533-0.133 0.667-0.133c0.533 0 0.933 0.133 1.333 0.533s0.533 0.8 0.533 1.333v0.533c0 0.4 0.133 0.8 0.4 1.067s0.667 0.4 1.067 0.4 0.667 0 0.933-0.267 0.4-0.4 0.533-0.8l0.4-1.067c0.133-0.533 0.533-0.933 0.933-1.333s0.933-0.533 1.467-0.533c0.267-0.667 0.4-1.2 0.533-1.867s0.267-1.333 0.267-2.133c0-2-0.533-3.733-1.467-5.333s-2.267-2.933-3.867-3.867v1.2c0 0.8-0.267 1.333-0.8 1.867s-1.2 0.8-1.867 0.8h-1.333v2.667c0 0.4 0 0.667-0.4 0.933s-0.533 0.4-0.933 0.4h-1.333v2.267c0 0.533-0.133 0.933-0.533 1.2s-0.8 0.533-1.2 0.533-0.533 0-0.8-0.133c-0.267-0.133-0.4-0.267-0.667-0.533l-2.133-3.2h-1.333v1.333c0 0.667-0.267 1.333-0.667 1.733-0.4 0.533-0.933 0.8-1.6 0.933 0.533 2.267 1.867 4.267 3.733 5.733s4.133 2.267 6.533 2.267zM18.4 18.667c-0.4 0-0.667 0-0.933-0.4s-0.4-0.533-0.4-0.933 0-0.667 0.4-0.933 0.533-0.4 0.933-0.4h1.333c0.4 0 0.667 0 0.933 0.4 0.267 0.267 0.4 0.533 0.4 0.933s0 0.667-0.4 0.933c-0.267 0.267-0.533 0.4-0.933 0.4h-1.333zM21.467 14.667c-0.4 0-0.8-0.133-1.067-0.533s-0.267-0.667-0.133-1.2l0.533-1.467c0-0.267 0.267-0.533 0.4-0.667 0.267-0.133 0.533-0.267 0.8-0.267 0.4 0 0.8 0.133 1.067 0.533s0.267 0.667 0.133 1.2l-0.533 1.467c0 0.267-0.267 0.533-0.533 0.667s-0.4 0.267-0.667 0.267zM15.733 28c-1.6 0-3.2-0.267-4.667-0.933s-2.667-1.467-3.867-2.533-2-2.4-2.533-3.867c-0.667-1.467-0.933-3.067-0.933-4.667s0.267-3.2 0.933-4.667c0.667-1.467 1.467-2.667 2.533-3.867 1.067-1.067 2.4-2 3.867-2.533 1.467-0.667 3.067-0.933 4.667-0.933s3.2 0.267 4.667 0.933c1.467 0.667 2.667 1.467 3.867 2.533 1.067 1.067 2 2.4 2.533 3.867 0.667 1.467 0.933 3.067 0.933 4.667s-0.267 3.2-0.933 4.667c-0.667 1.467-1.467 2.667-2.533 3.867-1.067 1.067-2.4 2-3.867 2.533-1.467 0.667-3.067 0.933-4.667 0.933z"></path>
</svg>
