<!-- Generated by IcoMoon.io -->
<svg version="1.1" xmlns="http://www.w3.org/2000/svg" width="32" height="32" viewBox="0 0 32 32">
<path d="M25.76 24.32s0 0 0 0c1.92-2.24 3.040-5.12 3.040-8.16s-1.12-6.080-3.040-8.16c0 0 0 0 0 0s0 0 0 0 0 0 0 0v0c0 0 0 0 0 0s0 0 0 0v0c0 0-0.16-0.16-0.32-0.32v0s0 0 0 0v0s0 0 0 0c0 0 0 0 0 0s0 0 0 0 0 0 0 0c-2.24-2.080-5.28-3.36-8.64-3.36s-6.4 1.28-8.64 3.36c0 0 0 0 0 0s0 0 0 0 0 0 0 0 0 0 0 0v0s0 0 0 0v0c0 0-0.16 0.16-0.32 0.32v0s0 0 0 0v0s0 0 0 0c0 0 0 0 0 0s0 0 0 0 0 0 0 0c-1.92 2.24-3.040 5.12-3.040 8.16s1.12 6.080 3.040 8.16c0 0 0 0 0 0v0c0 0 0 0 0 0v0c0 0 0 0 0 0s0 0 0 0v0c0 0 0.16 0.16 0.32 0.32v0s0 0 0 0v0c0 0 0.16 0.16 0.32 0.32 2.24 2.080 5.28 3.36 8.64 3.36s6.4-1.28 8.64-3.36c0 0 0.16-0.16 0.32-0.32v0s0 0 0 0v0c0 0 0.16-0.16 0.32-0.32v0s0 0 0 0c0 0 0 0 0 0s0 0 0 0 0 0 0 0 0 0 0 0zM25.92 20.16c-0.32 0.96-0.96 1.76-1.6 2.56-0.64-0.64-1.44-1.12-2.4-1.6 0.32-1.28 0.48-2.88 0.64-4.32h4.16c0 1.12-0.32 2.24-0.8 3.36zM26.72 15.2h-4.16c0-1.6-0.32-3.040-0.64-4.32 0.8-0.48 1.6-0.96 2.4-1.6 1.44 1.76 2.24 3.84 2.4 5.92zM20.16 6.080c1.12 0.48 2.24 1.12 3.040 1.92-0.48 0.48-1.12 0.8-1.76 1.12-0.48-1.28-0.96-2.4-1.76-3.36 0 0 0.16 0 0.32 0zM17.6 26.080c-0.32 0.16-0.48 0.32-0.8 0.48v-5.28c1.12 0 2.24 0.32 3.36 0.8-0.16 0.64-0.48 1.28-0.8 1.92-0.48 0.96-1.12 1.6-1.76 2.080zM19.2 8c0.32 0.64 0.64 1.28 0.8 1.92-1.12 0.48-2.24 0.64-3.36 0.8v-5.28c0.32 0 0.48 0.32 0.8 0.48 0.64 0.48 1.12 1.28 1.76 2.080zM16.8 19.68v-2.88h4.16c0 1.28-0.16 2.56-0.48 3.68v0c-1.12-0.48-2.4-0.64-3.68-0.8zM16.8 15.2v-2.88c1.28 0 2.56-0.32 3.68-0.8v0c0.32 1.12 0.48 2.4 0.48 3.68h-4.16zM15.2 16.8v2.88c-1.28 0-2.56 0.32-3.68 0.8v0c-0.32-1.12-0.48-2.4-0.48-3.68h4.16zM11.040 15.2c0-1.28 0.16-2.56 0.48-3.68v0c1.12 0.48 2.4 0.64 3.68 0.8v2.88h-4.16zM15.2 21.28v5.28c-0.32 0-0.48-0.32-0.8-0.48-0.64-0.48-1.12-1.28-1.76-2.080-0.32-0.64-0.64-1.28-0.8-1.92 1.12-0.48 2.24-0.64 3.36-0.8zM15.2 10.72c-1.12 0-2.24-0.32-3.36-0.8 0.16-0.64 0.48-1.28 0.8-1.92 0.48-0.96 1.12-1.6 1.76-2.080 0.32-0.16 0.48-0.32 0.8-0.48v5.28zM11.84 6.080c0 0 0.16 0 0.32 0-0.64 0.96-1.28 2.080-1.76 3.36-0.64-0.32-1.12-0.8-1.76-1.12 0.96-0.8 1.92-1.44 3.040-1.92zM6.080 11.84c0.32-0.96 0.96-1.76 1.6-2.56 0.64 0.64 1.44 1.12 2.4 1.6-0.32 1.28-0.48 2.88-0.64 4.32h-4.16c0-1.12 0.32-2.24 0.8-3.36zM5.28 16.8h4.16c0 1.6 0.32 3.040 0.64 4.32-0.8 0.48-1.6 0.96-2.4 1.6-1.44-1.76-2.24-3.84-2.4-5.92zM11.84 25.92c-1.12-0.48-2.24-1.12-3.040-1.92 0.48-0.48 1.12-0.8 1.76-1.12 0.48 1.28 0.96 2.4 1.76 3.36 0 0-0.16 0-0.32 0zM20.16 25.92c0 0-0.16 0-0.32 0 0.64-0.96 1.28-2.080 1.76-3.36 0.64 0.32 1.12 0.8 1.76 1.12-0.96 0.8-1.92 1.44-3.040 1.92z"></path>
</svg>
