<!-- Generated by IcoMoon.io -->
<svg version="1.1" xmlns="http://www.w3.org/2000/svg" width="35" height="32" viewBox="0 0 35 32">
<path d="M2.036 1.455c0.291 0 0.582 0.291 0.582 0.582v27.345h30.109c0.291 0 0.582 0.291 0.582 0.582s-0.291 0.582-0.582 0.582h-30.691c-0.291 0-0.582-0.291-0.582-0.582v-27.927c0-0.291 0.291-0.582 0.582-0.582z"></path>
<path d="M32.873 31.273h-30.836c-0.727 0-1.309-0.582-1.309-1.309v-27.927c0-0.727 0.582-1.309 1.309-1.309s1.309 0.582 1.309 1.309v26.618h29.382c0.727 0 1.309 0.582 1.309 1.309 0.145 0.727-0.436 1.309-1.164 1.309z"></path>
<path d="M5.818 13.673c0-0.291 0.291-0.582 0.582-0.582h4.509c0.436 0 0.727 0.291 0.727 0.582v11.927c0 0.291-0.291 0.582-0.582 0.582h-4.655c-0.291 0-0.582-0.291-0.582-0.582v-11.927zM6.836 14.255v10.909h3.927v-10.909h-3.927z"></path>
<path d="M11.055 26.764h-4.655c-0.727 0-1.164-0.436-1.164-1.164v-11.927c0-0.582 0.582-1.164 1.164-1.164h4.509c0.727 0 1.309 0.582 1.309 1.164v11.927c0 0.582-0.582 1.164-1.164 1.164zM6.4 25.455v0.145h4.655v-0.145c-0.145 0-0.145 0.145-0.291 0.145h-3.927c-0.291 0-0.436 0-0.436-0.145zM7.273 24.582h2.909v-9.891h-2.909v9.891zM6.4 13.673v0.145c0.145-0.145 0.291-0.145 0.436-0.145h-0.436zM10.618 13.673c0.145 0 0.291 0.145 0.436 0.145v-0.145h-0.436z"></path>
<path d="M14.545 17.891c0-0.291 0.145-0.436 0.436-0.436h3.345c0.291 0 0.436 0.145 0.436 0.436v7.709c0 0.291-0.145 0.436-0.436 0.436h-3.345c-0.291 0-0.436-0.145-0.436-0.436v-7.709zM15.564 18.473v6.836h2.473v-6.836h-2.473z"></path>
<path d="M18.473 26.764h-3.345c-0.582 0-1.018-0.436-1.018-1.018v-7.709c0-0.582 0.436-1.018 1.018-1.018h3.345c0.582 0 1.018 0.436 1.018 1.018v7.709c0 0.582-0.436 1.018-1.018 1.018zM15.127 25.6v0l0.145 0.145c-0.145-0.145-0.145-0.145-0.145-0.145zM18.473 25.455c0 0-0.145 0.145-0.145 0.145h0.145v-0.145zM16 24.727h1.455v-5.818h-1.455v5.818zM18.182 17.891c0 0 0.145 0.145 0.145 0.145v-0.145h-0.145zM15.127 18.036v0c0 0 0 0 0 0v0z"></path>
<path d="M21.818 10.764c0-0.291 0.145-0.582 0.436-0.582h3.345c0.436 0 0.582 0.291 0.582 0.582v14.982c0 0.291-0.145 0.582-0.436 0.582h-3.345c-0.291 0-0.436-0.291-0.436-0.582v-14.982zM22.836 11.2v13.818h2.473v-13.818h-2.473z"></path>
<path d="M25.745 26.764h-3.345c-0.582 0-1.018-0.436-1.018-1.018v-14.982c0-0.582 0.436-1.018 1.018-1.018h3.345c0.582 0 1.018 0.436 1.018 1.018v14.982c0 0.436-0.436 1.018-1.018 1.018zM22.4 25.455v0.145h0.291c-0.145 0-0.291 0-0.291-0.145zM25.745 25.309c0 0.145-0.145 0.291-0.291 0.291h0.291v-0.291zM23.273 24.582h1.455v-12.8h-1.455v12.8zM25.309 10.764c0.145 0 0.291 0.145 0.291 0.145v-0.145h-0.291zM22.4 10.764v0.145c0-0.145 0.145-0.145 0.291-0.145h-0.291z"></path>
<path d="M29.091 13.673c0-0.291 0.145-0.582 0.436-0.582h3.345c0.436 0 0.582 0.291 0.582 0.582v11.927c0 0.291-0.145 0.582-0.436 0.582h-3.345c-0.291 0-0.436-0.291-0.436-0.582v-11.927zM30.109 14.255v10.764h2.473v-10.764h-2.473z"></path>
<path d="M33.018 26.764h-3.345c-0.582 0-1.018-0.436-1.018-1.164v-11.927c0-0.582 0.436-1.164 1.018-1.164h3.345c0.582 0 1.018 0.436 1.018 1.164v11.927c0 0.582-0.436 1.164-1.018 1.164zM29.673 25.455v0.291h3.345v-0.291c-0.145 0.145-0.291 0.291-0.436 0.291h-2.473c-0.291-0.145-0.436-0.291-0.436-0.291zM30.545 24.436h1.455v-9.745h-1.455v9.745zM30.109 13.673h2.473c0.145 0 0.291 0.145 0.436 0.145v-0.291h-3.345v0.291c0 0 0.145-0.145 0.436-0.145z"></path>
</svg>
