<!-- Generated by IcoMoon.io -->
<svg version="1.1" xmlns="http://www.w3.org/2000/svg" width="32" height="32" viewBox="0 0 32 32">
<title>infor-warning</title>
<path d="M16 30.4c-7.953 0-14.4-6.447-14.4-14.4s6.447-14.4 14.4-14.4c7.953 0 14.4 6.447 14.4 14.4s-6.447 14.4-14.4 14.4zM18.923 23.187l0.211-0.914c-0.109 0.054-0.285 0.116-0.526 0.187s-0.46 0.107-0.651 0.107c-0.408 0-0.695-0.071-0.861-0.213-0.165-0.142-0.248-0.41-0.248-0.803 0-0.156 0.025-0.387 0.077-0.691 0.051-0.305 0.108-0.576 0.173-0.814l0.787-2.955c0.077-0.271 0.13-0.569 0.158-0.895s0.043-0.552 0.043-0.681c0-0.623-0.206-1.129-0.618-1.519s-0.999-0.585-1.759-0.585c-0.423 0-0.87 0.080-1.344 0.239s-0.968 0.35-1.486 0.574l-0.211 0.915c0.154-0.061 0.338-0.126 0.553-0.193s0.424-0.102 0.628-0.102c0.417 0 0.698 0.075 0.845 0.224s0.221 0.414 0.221 0.793c0 0.209-0.023 0.442-0.072 0.695-0.048 0.254-0.108 0.524-0.178 0.808l-0.79 2.967c-0.070 0.312-0.122 0.591-0.154 0.838s-0.047 0.49-0.047 0.726c0 0.61 0.212 1.112 0.637 1.509 0.425 0.395 1.020 0.594 1.786 0.594 0.499 0 0.936-0.069 1.313-0.208s0.881-0.34 1.514-0.605zM18.783 11.184c0.368-0.361 0.551-0.801 0.551-1.316 0-0.514-0.183-0.954-0.551-1.32s-0.809-0.548-1.326-0.548c-0.519 0-0.962 0.183-1.333 0.548s-0.556 0.806-0.556 1.32c0 0.515 0.186 0.954 0.556 1.316s0.814 0.544 1.333 0.544c0.517 0 0.959-0.182 1.326-0.544z"></path>
</svg>
