<!-- Generated by IcoMoon.io -->
<svg version="1.1" xmlns="http://www.w3.org/2000/svg" width="32" height="32" viewBox="0 0 32 32">
<path d="M18.327 6.255c0 1.285-1.042 2.327-2.327 2.327s-2.327-1.042-2.327-2.327c0-1.285 1.042-2.327 2.327-2.327s2.327 1.042 2.327 2.327z"></path>
<path d="M18.327 15.709c0 1.285-1.042 2.327-2.327 2.327s-2.327-1.042-2.327-2.327c0-1.285 1.042-2.327 2.327-2.327s2.327 1.042 2.327 2.327z"></path>
<path d="M18.327 25.018c0 1.285-1.042 2.327-2.327 2.327s-2.327-1.042-2.327-2.327c0-1.285 1.042-2.327 2.327-2.327s2.327 1.042 2.327 2.327z"></path>
</svg>
