<!-- Generated by IcoMoon.io -->
<svg version="1.1" xmlns="http://www.w3.org/2000/svg" width="32" height="32" viewBox="0 0 32 32">
<title>Instagram</title>
<path d="M16 1.333c-4 0-4.533 0-6 0.133-1.6 0.133-2.667 0.267-3.6 0.667s-1.733 0.8-2.667 1.6c-0.8 0.8-1.333 1.6-1.733 2.533-0.267 1.067-0.533 2.133-0.533 3.733-0.133 1.467-0.133 2-0.133 6s0 4.533 0.133 6c0.133 1.6 0.267 2.667 0.667 3.6s0.933 1.733 1.733 2.533c0.8 0.8 1.6 1.333 2.533 1.733s2 0.667 3.6 0.667c1.467 0.133 2 0.133 6 0.133s4.533 0 6-0.133c1.6-0.133 2.667-0.267 3.6-0.667s1.733-0.933 2.533-1.733c0.8-0.8 1.333-1.6 1.733-2.533s0.667-2 0.667-3.6c0.133-1.467 0.133-2 0.133-6s0-4.533-0.133-6c-0.133-1.6-0.267-2.667-0.667-3.6s-0.933-1.733-1.733-2.533c-0.8-0.8-1.6-1.333-2.533-1.733s-2-0.667-3.6-0.667c-1.467-0.133-2-0.133-6-0.133zM16 4c3.867 0 4.4 0 5.867 0.133s2.267 0.267 2.667 0.533c0.667 0.267 1.2 0.533 1.733 1.067s0.8 1.067 1.067 1.733c0.267 0.533 0.4 1.333 0.533 2.667 0.133 1.467 0.133 2 0.133 5.867s0 4.4-0.133 5.867c-0.133 1.467-0.267 2.267-0.533 2.667-0.267 0.667-0.533 1.2-1.067 1.733s-1.067 0.8-1.733 1.067c-0.533 0.267-1.333 0.4-2.667 0.533-1.467 0.133-2 0.133-5.867 0.133-4 0-4.4 0-6 0-1.467-0.133-2.267-0.267-2.667-0.533-0.667-0.267-1.2-0.533-1.733-1.067s-0.8-1.067-1.067-1.733c-0.267-0.533-0.4-1.333-0.533-2.667 0-1.6-0.133-2-0.133-5.867s0-4.4 0.133-6c0.133-1.467 0.267-2.267 0.533-2.667 0.267-0.8 0.533-1.333 1.067-1.867s0.933-0.8 1.733-1.067c0.533-0.267 1.333-0.4 2.667-0.533 1.6 0 2 0 6 0v0zM16 8.533c-4.133 0-7.467 3.333-7.467 7.467s3.333 7.467 7.467 7.467c4.133 0 7.467-3.333 7.467-7.467s-3.333-7.467-7.467-7.467zM16 20.933c-2.667 0-4.933-2.133-4.933-4.933 0-2.667 2.133-4.933 4.933-4.933 2.667 0 4.933 2.133 4.933 4.933 0 2.667-2.267 4.933-4.933 4.933zM25.6 8.133c0 0.933-0.8 1.733-1.733 1.733s-1.733-0.8-1.733-1.733c0-0.933 0.8-1.733 1.733-1.733s1.733 0.8 1.733 1.733z"></path>
</svg>
