<!-- Generated by IcoMoon.io -->
<svg version="1.1" xmlns="http://www.w3.org/2000/svg" width="32" height="32" viewBox="0 0 32 32">
<path d="M28.8 14.4l-0.96-9.44c0-0.48-0.48-0.8-0.96-0.96l-9.44-0.96c0 0-0.16 0-0.16 0l-13.92 14.24s0 0 0 0c0 0 0 0 0 0s0 0 0 0 0 0 0 0l10.88 10.88s0 0 0.16 0 0 0 0.16 0l14.080-14.080s0 0 0-0.32zM14.4 25.76l-8.16-8.16 12-12 7.36 0.64 0.64 7.36-12 12zM21.12 8.32c-1.44 0-2.72 1.12-2.72 2.72s1.12 2.72 2.72 2.72 2.72-1.12 2.72-2.72-1.12-2.72-2.72-2.72zM21.12 11.84c-0.48 0-0.96-0.48-0.96-0.96s0.48-0.96 0.96-0.96 0.96 0.48 0.96 0.96-0.48 0.96-0.96 0.96z"></path>
</svg>
