<!-- Generated by IcoMoon.io -->
<svg version="1.1" xmlns="http://www.w3.org/2000/svg" width="32" height="32" viewBox="0 0 32 32">
<path d="M12.8 5.6c0-0.884 0.716-1.6 1.6-1.6h14.667c0.884 0 1.6 0.716 1.6 1.6s-0.716 1.6-1.6 1.6h-14.667c-0.884 0-1.6-0.716-1.6-1.6z"></path>
<path d="M10.128 5.064c-0.008 0.926-0.373 1.813-1.018 2.478s-1.521 1.055-2.446 1.090c-0.925-0.036-1.801-0.426-2.446-1.090s-1.009-1.552-1.018-2.478c0-0.919 0.365-1.8 1.015-2.449s1.531-1.015 2.449-1.015c0.919 0 1.8 0.365 2.449 1.015s1.015 1.531 1.015 2.449z"></path>
<path d="M12.8 14.931c0-0.884 0.716-1.6 1.6-1.6h14.667c0.884 0 1.6 0.716 1.6 1.6s-0.716 1.6-1.6 1.6h-14.667c-0.884 0-1.6-0.716-1.6-1.6z"></path>
<path d="M6.4 12.988c-0.495 0-0.97 0.197-1.32 0.547s-0.546 0.823-0.547 1.316c0.005 0.506 0.205 0.99 0.557 1.354 0.346 0.356 0.814 0.569 1.309 0.596 0.495-0.027 0.963-0.239 1.309-0.596 0.352-0.363 0.552-0.848 0.557-1.354-0.001-0.494-0.197-0.967-0.547-1.316s-0.825-0.547-1.32-0.547zM3.949 12.403c0.65-0.65 1.532-1.015 2.451-1.015s1.801 0.365 2.451 1.015c0.65 0.65 1.015 1.532 1.015 2.451v0.007c-0.008 0.918-0.37 1.798-1.009 2.457s-1.509 1.046-2.426 1.082c-0.020 0.001-0.041 0.001-0.061 0-0.918-0.035-1.787-0.423-2.426-1.082s-1.001-1.539-1.009-2.457v-0.007c0-0.919 0.365-1.801 1.015-2.451z"></path>
<path d="M12.8 24.269c0-0.884 0.716-1.6 1.6-1.6h14.667c0.884 0 1.6 0.716 1.6 1.6s-0.716 1.6-1.6 1.6h-14.667c-0.884 0-1.6-0.716-1.6-1.6z"></path>
<path d="M6.4 22.319c-0.495 0-0.97 0.197-1.32 0.547s-0.546 0.823-0.547 1.316c0.005 0.506 0.205 0.99 0.557 1.353 0.346 0.357 0.814 0.569 1.309 0.596 0.495-0.027 0.963-0.239 1.309-0.596 0.352-0.363 0.552-0.848 0.557-1.353-0.001-0.494-0.197-0.967-0.547-1.316s-0.825-0.547-1.32-0.547zM3.949 21.734c0.65-0.65 1.532-1.015 2.451-1.015s1.801 0.365 2.451 1.015c0.65 0.65 1.015 1.532 1.015 2.451v0.007c-0.008 0.918-0.37 1.798-1.009 2.457s-1.509 1.046-2.426 1.082c-0.020 0.001-0.041 0.001-0.061 0-0.918-0.035-1.787-0.423-2.426-1.082s-1.001-1.539-1.009-2.457v-0.007c0-0.92 0.365-1.801 1.015-2.451z"></path>
</svg>
