<!-- Generated by IcoMoon.io -->
<svg version="1.1" xmlns="http://www.w3.org/2000/svg" width="32" height="32" viewBox="0 0 32 32">
<title>mail</title>
<path d="M5.333 6.402c-0.878 0-1.6 0.722-1.6 1.6v16c0 0.878 0.722 1.6 1.6 1.6h21.333c0.877 0 1.6-0.722 1.6-1.6v-16c0-0.878-0.723-1.6-1.6-1.6h-21.333zM1.6 8.002c0-2.056 1.678-3.733 3.733-3.733h21.333c2.056 0 3.733 1.678 3.733 3.733v16c0 2.056-1.678 3.733-3.733 3.733h-21.333c-2.056 0-3.733-1.677-3.733-3.733v-16z"></path>
<path d="M1.793 7.386c0.338-0.483 1.003-0.6 1.486-0.262l12.722 8.905 12.722-8.905c0.483-0.338 1.148-0.22 1.485 0.262s0.22 1.148-0.262 1.486l-13.333 9.333c-0.367 0.257-0.856 0.257-1.223 0l-13.333-9.333c-0.483-0.338-0.6-1.003-0.262-1.486z"></path>
</svg>
