<!-- Generated by IcoMoon.io -->
<svg version="1.1" xmlns="http://www.w3.org/2000/svg" width="32" height="32" viewBox="0 0 32 32">
<path d="M27.84 6.4h-23.68c-0.48 0-0.96 0.48-0.96 0.96v18.24c0 0.48 0.48 0.96 0.96 0.96h23.84c0.48 0 0.96-0.48 0.96-0.96v-18.24c0-0.48-0.48-0.96-0.96-0.96zM26.72 9.6v14.88h-21.44v-14.88l-0.8-0.64 1.12-1.44 1.28 0.96h18.4l1.28-0.96 1.12 1.44-0.8 0.64zM25.12 8.48l-9.12 7.2-9.12-7.2-1.28-0.96-1.12 1.44 0.8 0.64 9.76 7.52c0.32 0.16 0.64 0.32 0.96 0.32s0.64 0 0.96-0.32l9.76-7.52 0.8-0.64-1.12-1.44-1.28 0.96z"></path>
</svg>
