<!-- Generated by IcoMoon.io -->
<svg version="1.1" xmlns="http://www.w3.org/2000/svg" width="32" height="32" viewBox="0 0 32 32">
<path d="M29.333 26.669v1.333c0 0.354-0.14 0.693-0.391 0.943s-0.589 0.39-0.943 0.39h-24c-0.354 0-0.693-0.14-0.943-0.39s-0.391-0.589-0.391-0.943v-1.333c0-1.061 0.421-2.078 1.172-2.828s1.768-1.172 2.828-1.172h18.667c1.061 0 2.078 0.421 2.828 1.172s1.172 1.768 1.172 2.828z"></path>
<path d="M17.333 8c-0.001 1.182-0.394 2.33-1.118 3.264s-1.738 1.601-2.882 1.896v6.84h-2.667v-6.84c-0.966-0.249-1.843-0.765-2.53-1.488s-1.159-1.624-1.36-2.601c-0.201-0.977-0.124-1.991 0.222-2.927s0.948-1.755 1.737-2.366c0.789-0.611 1.733-0.988 2.726-1.088s1.994 0.079 2.889 0.519c0.896 0.44 1.65 1.122 2.177 1.969s0.806 1.825 0.806 2.823z"></path>
<path d="M22.666 19.998h-2.667c-0.354 0-0.693-0.14-0.943-0.391s-0.391-0.589-0.391-0.943c0-0.354 0.14-0.693 0.391-0.943s0.589-0.391 0.943-0.391h2.667c0.354 0 0.693 0.14 0.943 0.391s0.39 0.589 0.39 0.943-0.14 0.693-0.39 0.943c-0.25 0.25-0.589 0.391-0.943 0.391z"></path>
</svg>
