<!-- Generated by IcoMoon.io -->
<svg version="1.1" xmlns="http://www.w3.org/2000/svg" width="32" height="32" viewBox="0 0 32 32">
<title>map</title>
<path d="M20.8 29.28c-0.16 0-0.48 0-0.64-0.16l-8.8-4.32-7.68 4.32c-0.48 0.32-0.96 0.32-1.44 0-0.32-0.32-0.64-0.8-0.64-1.28v-18.88c0-0.48 0.32-0.96 0.64-1.28l8.32-4.8c0.48-0.16 0.96-0.32 1.28 0l8.8 4.32 7.68-4.32c0.48-0.32 0.96-0.32 1.44 0s0.64 0.8 0.64 1.28v18.88c0 0.48-0.32 0.96-0.64 1.28l-8.32 4.8c-0.16 0-0.48 0.16-0.64 0.16zM11.2 21.6c0.16 0 0.48 0 0.64 0.16l8.8 4.32 6.88-4v-15.52l-6.080 3.52c-0.48 0.16-0.96 0.32-1.28 0l-8.8-4.32-6.88 4v15.68l6.080-3.52c0.16-0.16 0.48-0.32 0.64-0.32z"></path>
<path d="M11.2 24.48c-0.8 0-1.44-0.64-1.44-1.44v-18.88c0-0.8 0.64-1.44 1.44-1.44s1.44 0.64 1.44 1.44v18.88c0 0.8-0.64 1.44-1.44 1.44z"></path>
<path d="M20.8 29.28c-0.8 0-1.44-0.64-1.44-1.44v-18.88c0-0.8 0.64-1.44 1.44-1.44s1.44 0.64 1.44 1.44v18.88c-0.16 0.8-0.8 1.44-1.44 1.44z"></path>
</svg>
