<!-- Generated by IcoMoon.io -->
<svg version="1.1" xmlns="http://www.w3.org/2000/svg" width="32" height="32" viewBox="0 0 32 32">
<path d="M6.667 5.6c-0.283 0-0.554 0.112-0.754 0.312s-0.312 0.471-0.312 0.754v17.471l2.602-2.602c0.3-0.3 0.707-0.469 1.131-0.469h16c0.283 0 0.554-0.112 0.754-0.312s0.312-0.471 0.312-0.754v-13.333c0-0.283-0.112-0.554-0.312-0.754s-0.471-0.312-0.754-0.312h-18.667zM3.65 3.65c0.8-0.8 1.885-1.25 3.017-1.25h18.667c1.132 0 2.217 0.45 3.017 1.25s1.25 1.885 1.25 3.017v13.333c0 1.132-0.45 2.217-1.25 3.017s-1.885 1.25-3.017 1.25h-15.337l-4.865 4.865c-0.458 0.458-1.146 0.595-1.744 0.347s-0.988-0.831-0.988-1.478v-21.333c0-1.132 0.45-2.217 1.25-3.017z"></path>
</svg>
