<!-- Generated by IcoMoon.io -->
<svg version="1.1" xmlns="http://www.w3.org/2000/svg" width="32" height="32" viewBox="0 0 32 32">
<path d="M27.46 1.6h-7.856c-1.265 0-2.291 1.026-2.291 2.291v7.856c0 1.265 1.026 2.291 2.291 2.291h7.856c1.265 0 2.291-1.026 2.291-2.291v-7.856c0-1.266-1.026-2.291-2.291-2.291z"></path>
<path d="M29.73 21.912l-4.577-4.578c-0.43-0.428-1.013-0.669-1.62-0.669s-1.19 0.24-1.62 0.669l-4.578 4.578c-0.429 0.43-0.669 1.012-0.669 1.62s0.241 1.19 0.669 1.62l4.578 4.578c0.43 0.429 1.012 0.669 1.62 0.669s1.19-0.241 1.62-0.669l4.577-4.578c0.429-0.43 0.67-1.012 0.67-1.62s-0.241-1.19-0.67-1.62z"></path>
<path d="M11.748 1.6h-7.856c-1.266 0-2.291 1.026-2.291 2.291v7.856c0 1.265 1.026 2.291 2.291 2.291h7.856c1.265 0 2.291-1.026 2.291-2.291v-7.856c0-1.266-1.026-2.291-2.291-2.291z"></path>
<path d="M11.748 17.312h-7.856c-1.266 0-2.291 1.026-2.291 2.291v7.856c0 1.265 1.026 2.291 2.291 2.291h7.856c1.265 0 2.291-1.026 2.291-2.291v-7.856c0-1.265-1.026-2.291-2.291-2.291z"></path>
</svg>
