<!-- Generated by IcoMoon.io -->
<svg version="1.1" xmlns="http://www.w3.org/2000/svg" width="32" height="32" viewBox="0 0 32 32">
<title>orders-fill</title>
<path d="M20.1 3.4h-1.955c-0.371-1.048-1.372-1.8-2.545-1.8s-2.174 0.752-2.547 1.8h-1.953c-0.497 0-0.9 0.403-0.9 0.9v3.6c0 0.497 0.403 0.9 0.9 0.9h9c0.497 0 0.9-0.403 0.9-0.9v-3.6c0-0.497-0.403-0.9-0.9-0.9z"></path>
<path d="M24.6 5.2h-1.8v2.7c0 1.489-1.211 2.7-2.7 2.7h-9c-1.489 0-2.7-1.211-2.7-2.7v-2.7h-1.8c-0.992 0-1.8 0.808-1.8 1.8v21.6c0 1.010 0.79 1.8 1.8 1.8h18c1.010 0 1.8-0.79 1.8-1.8v-21.6c0-1.010-0.79-1.8-1.8-1.8zM15.337 21.137l-3.6 3.6c-0.169 0.168-0.398 0.263-0.637 0.263s-0.468-0.095-0.637-0.263l-1.8-1.8c-0.351-0.351-0.351-0.922 0-1.273s0.922-0.351 1.273 0l1.165 1.163 2.963-2.963c0.351-0.351 0.922-0.351 1.273 0s0.353 0.92 0.002 1.273zM15.337 13.937l-3.6 3.6c-0.169 0.168-0.398 0.263-0.637 0.263s-0.468-0.095-0.637-0.263l-1.8-1.8c-0.351-0.351-0.351-0.922 0-1.273s0.922-0.351 1.273 0l1.165 1.163 2.963-2.963c0.351-0.351 0.922-0.351 1.273 0s0.353 0.92 0.002 1.273zM21.9 23.2h-3.6c-0.497 0-0.9-0.403-0.9-0.9s0.403-0.9 0.9-0.9h3.6c0.497 0 0.9 0.403 0.9 0.9s-0.403 0.9-0.9 0.9zM21.9 16h-3.6c-0.497 0-0.9-0.403-0.9-0.9s0.403-0.9 0.9-0.9h3.6c0.497 0 0.9 0.403 0.9 0.9s-0.403 0.9-0.9 0.9z"></path>
</svg>
