<!-- Generated by IcoMoon.io -->
<svg version="1.1" xmlns="http://www.w3.org/2000/svg" width="32" height="32" viewBox="0 0 32 32">
<path d="M6.24 27.52c-0.48 0-0.8-0.16-1.12-0.48-0.64-0.64-0.64-1.6 0-2.24l19.52-19.84c0.64-0.64 1.6-0.64 2.24 0s0.64 1.6 0 2.24l-19.52 19.84c-0.32 0.32-0.8 0.48-1.12 0.48z"></path>
<path d="M8.32 13.44c-2.88 0-5.12-2.4-5.12-5.12s2.24-5.12 5.12-5.12c2.88 0 5.12 2.24 5.12 5.12s-2.4 5.12-5.12 5.12zM8.32 6.4c-1.12 0-1.92 0.8-1.92 1.92s0.8 1.92 1.92 1.92c1.12 0 1.92-0.8 1.92-1.92s-0.96-1.92-1.92-1.92z"></path>
<path d="M23.68 28.8c-2.88 0-5.12-2.24-5.12-5.12s2.24-5.12 5.12-5.12 5.12 2.24 5.12 5.12c0 2.88-2.24 5.12-5.12 5.12zM23.68 21.76c-1.12 0-1.92 0.8-1.92 1.92s0.8 1.92 1.92 1.92 1.92-0.8 1.92-1.92-0.8-1.92-1.92-1.92z"></path>
</svg>
