<!-- Generated by IcoMoon.io -->
<svg version="1.1" xmlns="http://www.w3.org/2000/svg" width="32" height="32" viewBox="0 0 32 32">
<title>plate-number</title>
<path d="M18.56 11.52c-0.128 0-0.384 0.128-0.512 0.128-0.128 0.128-0.128 0.256-0.128 0.512v1.92l1.92-2.56h-1.28zM5.76 11.52c-0.128 0-0.384 0.128-0.512 0.128 0 0.128-0.128 0.384-0.128 0.512v1.92l1.92-2.56h-1.28zM7.040 15.36c0.128 0 0.384-0.128 0.512-0.128 0.128-0.128 0.128-0.256 0.128-0.512v-1.92l-1.92 2.56h1.28zM20.48 14.72v-1.92l-1.92 2.56h1.28c0.128 0 0.384-0.128 0.512-0.128 0-0.128 0.128-0.384 0.128-0.512z"></path>
<path d="M29.44 5.76h-26.88c-0.384 0-0.64 0.128-0.896 0.384s-0.384 0.512-0.384 0.896v16.64c0 0.384 0.128 0.64 0.384 0.896s0.512 0.384 0.896 0.384h26.88c0.384 0 0.64-0.128 0.896-0.384s0.384-0.512 0.384-0.896v-16.64c0-0.384-0.128-0.64-0.384-0.896s-0.512-0.384-0.896-0.384zM10.24 10.88c0-0.128 0.128-0.384 0.128-0.512 0.128 0 0.384-0.128 0.512-0.128s0.384 0.128 0.512 0.128c0.128 0.128 0.128 0.256 0.128 0.512v1.28c0 0.128 0.128 0.384 0.128 0.512 0.128 0 0.384 0.128 0.512 0.128h1.92v-1.92c0-0.128 0.128-0.384 0.128-0.512 0.128 0 0.384-0.128 0.512-0.128s0.384 0.128 0.512 0.128c0.128 0.128 0.128 0.256 0.128 0.512v5.12c0 0.128-0.128 0.384-0.128 0.512-0.128 0-0.384 0.128-0.512 0.128s-0.384-0.128-0.512-0.128c-0.128-0.128-0.128-0.256-0.128-0.512v-1.92h-1.92c-0.512 0-1.024-0.256-1.408-0.512-0.384-0.384-0.512-0.896-0.512-1.408v-1.28zM8.96 14.72c0 0.512-0.256 1.024-0.512 1.408-0.384 0.256-0.896 0.512-1.408 0.512h-1.28c-0.512 0-1.024-0.256-1.408-0.512-0.384-0.384-0.512-0.896-0.512-1.408v-2.56c0-0.512 0.256-1.024 0.512-1.408 0.384-0.256 0.896-0.512 1.408-0.512h1.28c0.512 0 1.024 0.256 1.408 0.512 0.384 0.384 0.512 0.896 0.512 1.408v2.56zM12.672 19.968c0.128 0.128 0.128 0.256 0.128 0.512s-0.128 0.384-0.128 0.512c-0.128 0.128-0.256 0.128-0.512 0.128s-0.384-0.128-0.512-0.128l-0.128-0.128c-0.256 0.256-0.384 0.384-0.64 0.384-0.128 0-0.256 0-0.384-0.128s-0.128-0.128-0.256-0.256c0-0.128 0-0.256 0-0.384s0.128-0.256 0.128-0.384l0.256-0.128-0.256-0.128c-0.128-0.128-0.128-0.256-0.128-0.512s0.128-0.384 0.128-0.512c0.128-0.128 0.256-0.128 0.512-0.128s0.384 0.128 0.512 0.128l0.128 0.128 0.128-0.128c0.128-0.128 0.256-0.128 0.512-0.128s0.384 0.128 0.512 0.128c0.128 0.128 0.128 0.256 0.128 0.512s-0.128 0.384-0.128 0.512l-0.128 0.128h0.128zM17.28 20.48h-2.56c-0.128 0-0.384-0.128-0.512-0.128-0.128-0.128-0.128-0.256-0.128-0.512s0.128-0.384 0.128-0.512c0.128-0.128 0.256-0.128 0.512-0.128h2.56c0.128 0 0.384 0.128 0.512 0.128 0.128 0.128 0.128 0.256 0.128 0.512s-0.128 0.384-0.128 0.512c-0.128 0-0.384 0.128-0.512 0.128zM16.64 14.72v-2.56c0-0.512 0.256-1.024 0.512-1.408 0.384-0.256 0.896-0.512 1.408-0.512h1.28c0.512 0 1.024 0.256 1.408 0.512 0.384 0.384 0.512 0.896 0.512 1.408v2.56c0 0.512-0.256 1.024-0.512 1.408-0.384 0.256-0.896 0.512-1.408 0.512h-1.28c-0.512 0-1.024-0.256-1.408-0.512-0.256-0.384-0.512-0.896-0.512-1.408zM21.632 19.968c0.128 0.128 0.128 0.256 0.128 0.512s-0.128 0.384-0.128 0.512-0.256 0.128-0.512 0.128-0.384-0.128-0.512-0.128l-0.128-0.128c-0.256 0.256-0.384 0.384-0.64 0.384-0.128 0-0.256 0-0.384-0.128s-0.128-0.128-0.256-0.256c0-0.128 0-0.256 0-0.384s0.128-0.256 0.128-0.384l0.128-0.128-0.128-0.128c0 0-0.128-0.128-0.128-0.256s0-0.128 0-0.256 0-0.128 0-0.256 0.128-0.128 0.128-0.256c0 0 0.128-0.128 0.256-0.128s0.128 0 0.256 0 0.128 0 0.256 0 0.128 0.128 0.256 0.128l0.128 0.128 0.128-0.128c0.128-0.128 0.256-0.128 0.512-0.128s0.384 0.128 0.512 0.128c0.128 0.128 0.128 0.256 0.128 0.512s-0.128 0.384-0.128 0.512l-0.128 0.128h0.128zM26.88 12.8c0.384 0 0.64 0.128 0.896 0.384s0.384 0.512 0.384 0.896v1.28c0 0.384-0.128 0.64-0.384 0.896s-0.512 0.384-0.896 0.384h-3.2c-0.128 0-0.384-0.128-0.512-0.128-0.128-0.128-0.128-0.256-0.128-0.512s0.128-0.384 0.128-0.512c0.128-0.128 0.256-0.128 0.512-0.128h3.2v-1.28h-2.56c-0.384 0-0.64-0.128-0.896-0.384s-0.384-0.512-0.384-0.896v-1.28c0-0.384 0.128-0.64 0.384-0.896s0.512-0.384 0.896-0.384h3.2c0.128 0 0.384 0.128 0.512 0.128 0.128 0.128 0.128 0.256 0.128 0.512s-0.128 0.384-0.128 0.512c-0.128 0-0.384 0.128-0.512 0.128h-3.2v1.28h2.56z"></path>
</svg>
