<!-- Generated by IcoMoon.io -->
<svg version="1.1" xmlns="http://www.w3.org/2000/svg" width="32" height="32" viewBox="0 0 32 32">
<title>player</title>
<path d="M16 4.267c-3.067 0-6.133 1.2-8.267 3.467-2.267 2.133-3.467 5.2-3.467 8.267v8.8c0 0.8-0.667 1.467-1.467 1.467s-1.467-0.667-1.467-1.467v-8.8c0-3.867 1.6-7.6 4.267-10.4 2.8-2.667 6.533-4.267 10.4-4.267s7.6 1.6 10.4 4.267c2.667 2.8 4.267 6.533 4.267 10.4v8.8c0 0.8-0.667 1.467-1.467 1.467s-1.467-0.667-1.467-1.467v-8.8c0-3.067-1.2-6.133-3.467-8.267-2.133-2.267-5.2-3.467-8.267-3.467z"></path>
<path d="M1.333 18.933c0-0.8 0.667-1.467 1.467-1.467h4.4c1.2 0 2.267 0.4 3.067 1.333 0.8 0.8 1.333 2 1.333 3.067v4.4c0 1.2-0.4 2.267-1.333 3.067-0.8 0.8-2 1.333-3.067 1.333h-1.467c-1.2 0-2.267-0.4-3.067-1.333s-1.333-2-1.333-3.067v-7.333zM4.267 20.4v5.867c0 0.4 0.133 0.8 0.4 1.067s0.667 0.4 1.067 0.4h1.467c0.4 0 0.8-0.133 1.067-0.4s0.4-0.667 0.4-1.067v-4.4c0-0.4-0.133-0.8-0.4-1.067s-0.667-0.4-1.067-0.4h-2.933zM24.8 20.4c-0.4 0-0.8 0.133-1.067 0.4s-0.4 0.667-0.4 1.067v4.4c0 0.4 0.133 0.8 0.4 1.067s0.667 0.4 1.067 0.4h1.467c0.4 0 0.8-0.133 1.067-0.4s0.4-0.667 0.4-1.067v-5.867h-2.933zM21.733 18.8c0.8-0.8 2-1.333 3.067-1.333h4.4c0.8 0 1.467 0.667 1.467 1.467v7.333c0 1.2-0.4 2.267-1.333 3.067-0.8 0.8-2 1.333-3.067 1.333h-1.467c-1.2 0-2.267-0.4-3.067-1.333-0.8-0.8-1.333-2-1.333-3.067v-4.4c0-1.2 0.4-2.267 1.333-3.067z"></path>
</svg>
