<!-- Generated by IcoMoon.io -->
<svg version="1.1" xmlns="http://www.w3.org/2000/svg" width="32" height="32" viewBox="0 0 32 32">
<path d="M16 29.333c-0.667 0-1.333-0.533-1.333-1.333v-24c0-0.667 0.533-1.333 1.333-1.333s1.333 0.533 1.333 1.333v24c0 0.8-0.667 1.333-1.333 1.333z"></path>
<path d="M18.667 24.933h-9.333c-0.667 0-1.333-0.533-1.333-1.333 0-0.667 0.533-1.333 1.333-1.333h9.333c0.667 0 1.333-0.267 1.733-0.8 0.533-0.533 0.8-1.067 0.8-1.733s-0.267-1.333-0.8-1.733c-0.4-0.4-1.067-0.667-1.733-0.667h-5.333c-1.333 0-2.667-0.533-3.6-1.467s-1.467-2.267-1.467-3.6c0-1.333 0.533-2.667 1.467-3.6 0.933-1.067 2.133-1.6 3.6-1.6h8.133c0.667 0 1.333 0.533 1.333 1.333s-0.533 1.333-1.333 1.333h-8.133c-0.667 0-1.333 0.267-1.733 0.8-0.533 0.4-0.8 0.933-0.8 1.6s0.267 1.333 0.8 1.733c0.4 0.533 0.933 0.8 1.733 0.8h5.333c1.333 0 2.667 0.533 3.6 1.467s1.467 2.267 1.467 3.6-0.533 2.667-1.467 3.6-2.133 1.6-3.6 1.6z"></path>
</svg>
