<!-- Generated by IcoMoon.io -->
<svg version="1.1" xmlns="http://www.w3.org/2000/svg" width="32" height="32" viewBox="0 0 32 32">
<path d="M30.094 8.084v0c0.116 0.058 0.213 0.147 0.282 0.257s0.104 0.237 0.104 0.367v12.982c0 0.13-0.036 0.257-0.104 0.367s-0.166 0.199-0.282 0.257v0l-12.982 6.491 12.982-20.722zM30.094 8.084l-12.982-6.491M30.094 8.084l-12.982-6.491M17.112 1.594c-0.097-0.048-0.204-0.074-0.312-0.074s-0.215 0.025-0.312 0.074l-0 0M17.112 1.594l-0.624 0M16.488 1.594l-12.982 6.491c0 0-0 0-0 0-0.116 0.058-0.214 0.147-0.282 0.257s-0.104 0.237-0.104 0.367v12.982c0 0 0 0 0 0-0 0.13 0.036 0.257 0.104 0.367s0.166 0.199 0.282 0.257h0M16.488 1.594l-12.982 20.722M3.506 22.315v0zM16.8 28.88c-0.108 0-0.215-0.025-0.312-0.074l0.312 0.074zM16.8 28.88c0.108 0 0.215-0.025 0.312-0.074l-0.312 0.074zM17.498 27.052l11.585-5.793v-11.42l-2.622 1.311v6.368h-0.080c0 0.114-0.031 0.225-0.090 0.322s-0.144 0.176-0.245 0.228c-0.101 0.052-0.215 0.075-0.328 0.067l-8.221 8.917zM17.498 27.052v-11.421M17.498 27.052v-11.421M20.12 19.991c-0 0.149 0.047 0.294 0.136 0.414s0.212 0.209 0.354 0.253c0.142 0.044 0.295 0.042 0.436-0.006s0.262-0.141 0.347-0.263c0-0 0-0 0-0l2.379-3.436 1.587 1.133-4.032 2.257c-0.075 0.108-0.183 0.19-0.307 0.233s-0.26 0.045-0.386 0.005c-0.126-0.039-0.236-0.118-0.314-0.224s-0.12-0.235-0.12-0.366v-5.71l-0.080 0.040M20.12 19.991v0zM20.12 19.991v-5.67M20.12 14.32l-2.622 1.311M20.12 14.32v-0.089l-2.702 1.351M17.498 15.631l-0.080 11.461v-11.51M17.498 15.631l-0.044 0.022-0.036-0.072M17.498 15.631v-0.049h-0.080M23.026 15.575l-1.509 2.181v-4.134l3.549-1.775v4.314l-1.060-0.757c-0.075-0.054-0.161-0.092-0.251-0.112s-0.184-0.023-0.275-0.007l-0 0c-0.091 0.016-0.178 0.050-0.256 0.1s-0.145 0.115-0.198 0.191v0zM25.918 9.86l-11.42-5.71 2.302-1.151 11.421 5.71-2.302 1.151zM12.936 4.93l11.421 5.71-3.384 1.692-11.421-5.71 3.384-1.692zM16.8 14.419l-11.421-5.71 2.612-1.306 11.42 5.71-2.611 1.306zM4.516 21.259v-11.42l11.585 5.793v11.42l-11.585-5.793z"></path>
</svg>
