<!-- Generated by IcoMoon.io -->
<svg version="1.1" xmlns="http://www.w3.org/2000/svg" width="32" height="32" viewBox="0 0 32 32">
<title>products-fill</title>
<path d="M18.115 14.076c-0.777 0-1.409 0.632-1.409 1.409s0.632 1.409 1.409 1.409c0.777 0 1.409-0.632 1.409-1.409s-0.632-1.409-1.409-1.409zM19.048 9.806v2.54c0.724 0.215 1.343 0.674 1.763 1.282l2.416-0.785c-0.822-1.584-2.358-2.739-4.179-3.037zM23.805 14.617l-2.417 0.785c0.001 0.027 0.002 0.055 0.002 0.082 0 0.748-0.252 1.438-0.676 1.99l1.492 2.054c1.028-1.040 1.664-2.469 1.664-4.043 0-0.295-0.022-0.585-0.065-0.868z"></path>
<path d="M18.115 3.2h-11.352c-0.515 0-0.933 0.418-0.933 0.933s0.418 0.933 0.933 0.933h4.85c-1.021 0.64-1.944 1.426-2.738 2.332h-6.342c-0.515 0-0.933 0.418-0.933 0.933s0.418 0.933 0.933 0.933h4.992c-1.077 1.826-1.695 3.952-1.695 6.22 0 2.64 0.837 5.087 2.259 7.092h-2.647c-0.515 0-0.933 0.418-0.933 0.933s0.418 0.933 0.933 0.933h4.276c0.583 0.547 1.218 1.036 1.896 1.461h-8.984c-0.515 0-0.933 0.418-0.933 0.933s0.418 0.933 0.933 0.933h15.486c6.774 0 12.285-5.511 12.285-12.285s-5.511-12.285-12.285-12.285zM22.648 21.608c-0.017 0.015-0.034 0.029-0.053 0.043-0.021 0.015-0.042 0.029-0.064 0.042-1.247 0.889-2.771 1.413-4.416 1.413s-3.169-0.524-4.416-1.413c-0.022-0.013-0.043-0.028-0.064-0.042-0.018-0.013-0.036-0.028-0.053-0.043-1.873-1.39-3.089-3.617-3.089-6.123 0-4.203 3.419-7.622 7.622-7.622s7.621 3.419 7.621 7.622c0 2.506-1.216 4.733-3.089 6.123z"></path>
<path d="M13.003 12.843l2.416 0.785c0.42-0.607 1.039-1.066 1.763-1.282v-2.54c-1.821 0.298-3.357 1.454-4.179 3.037zM19.205 18.573c-0.35 0.124-0.719 0.187-1.090 0.187s-0.74-0.063-1.090-0.187l-1.493 2.054c0.777 0.392 1.655 0.613 2.583 0.613s1.806-0.221 2.583-0.613l-1.493-2.054zM14.84 15.485c0-0.028 0.001-0.055 0.002-0.082l-2.417-0.785c-0.044 0.287-0.065 0.577-0.065 0.868 0 1.575 0.636 3.003 1.664 4.044l1.492-2.054c-0.424-0.552-0.676-1.242-0.676-1.99z"></path>
</svg>
