<!-- Generated by IcoMoon.io -->
<svg version="1.1" xmlns="http://www.w3.org/2000/svg" width="32" height="32" viewBox="0 0 32 32">
<path d="M27.84 3.2h-23.68c-0.64 0-0.96 0.48-0.96 0.96v23.52c0 0.64 0.48 0.96 0.96 0.96h23.52c0.64 0 0.96-0.48 0.96-0.96v-23.52c0-0.64-0.48-0.96-0.96-0.96zM26.56 26.56h-21.12v-21.12h20.96v20.96zM15.36 12.48h5.92c0 0 0.32 0 0.32-0.32v-1.6c0 0 0-0.32-0.32-0.32h-5.92c0 0-0.32 0-0.32 0.32v1.6c0 0 0 0.32 0.32 0.32zM15.36 16.96h5.92c0 0 0.32 0 0.32-0.32v-1.6c0 0 0-0.32-0.32-0.32h-5.92c0 0-0.32 0-0.32 0.32v1.6c0 0 0 0.32 0.32 0.32zM15.36 21.6h5.92c0 0 0.32 0 0.32-0.32v-1.6c0 0 0-0.32-0.32-0.32h-5.92c0 0-0.32 0-0.32 0.32v1.6c0 0 0 0.32 0.32 0.32zM10.56 11.36c0 0.32 0 0.64 0.32 0.96s0.64 0.32 0.96 0.32 0.64 0 0.96-0.32 0.32-0.64 0.32-0.96 0-0.64-0.32-0.96-0.64-0.32-0.96-0.32-0.64 0-0.96 0.32-0.32 0.64-0.32 0.96zM10.56 16c0 0.32 0 0.64 0.32 0.96s0.64 0.32 0.96 0.32 0.64 0 0.96-0.32c0.32-0.16 0.32-0.64 0.32-0.96s0-0.64-0.32-0.96c-0.32-0.32-0.64-0.32-0.96-0.32s-0.64 0-0.96 0.32c-0.32 0.32-0.32 0.64-0.32 0.96zM10.56 20.64c0 0.32 0 0.64 0.32 0.96s0.64 0.32 0.96 0.32 0.64 0 0.96-0.32c0.32-0.16 0.32-0.64 0.32-0.96s0-0.64-0.32-0.96c-0.32-0.32-0.64-0.32-0.96-0.32s-0.64 0-0.96 0.32c-0.32 0.32-0.32 0.64-0.32 0.96z"></path>
</svg>
