<!-- Generated by IcoMoon.io -->
<svg version="1.1" xmlns="http://www.w3.org/2000/svg" width="32" height="32" viewBox="0 0 32 32">
<title>qualified</title>
<path d="M23.467 7.2c-1.067-0.667-2.533-0.4-3.2 0.667l-7.467 11.067-2.8-3.2c-0.8-0.933-2.4-1.067-3.333-0.267v0c-0.933 0.8-1.067 2.4-0.267 3.333l4.667 5.467c0.133 0.267 0.4 0.4 0.533 0.533 0 0 0.133 0.133 0.133 0.133 0.8 0.533 1.867 0.4 2.667-0.267 0.267-0.267 0.4-0.533 0.667-0.8l8.933-13.333c0.8-1.2 0.533-2.667-0.533-3.333z"></path>
<path d="M16.267 0c-0.133 0-0.133 0-0.267 0-8.8 0-16 7.2-16 16.133v15.867h32v-32h-15.733zM20 28.933l-17.6 0.533v-13.467c0-7.467 6.133-13.6 13.6-13.6s13.6 6.133 13.6 13.467c0 6-3.867 11.2-9.6 13.067z"></path>
</svg>
