<!-- Generated by IcoMoon.io -->
<svg version="1.1" xmlns="http://www.w3.org/2000/svg" width="32" height="32" viewBox="0 0 32 32">
<title>report-fill</title>
<path d="M9.539 12.985h4.615v17.416h-4.615v-17.416zM17.477 16.677h4.615v13.723h-4.615v-13.723zM25.416 10.154h4.615v20.246h-4.615v-20.246zM1.6 19.569h4.615v10.831h-4.615v-10.831z"></path>
<path d="M27.566 1.6c-1.291 0-2.337 1.046-2.337 2.335 0 0.302 0.058 0.59 0.162 0.855l-4.504 3.837c-0.341-0.185-0.723-0.281-1.111-0.28-0.668 0-1.27 0.28-1.696 0.729l-3.888-1.592c0-0.015 0.001-0.030 0.001-0.045 0-1.29-1.046-2.335-2.337-2.335s-2.337 1.045-2.337 2.335c0 0.13 0.011 0.258 0.032 0.383l-4.039 2.388c-0.412-0.325-0.921-0.502-1.445-0.501-1.291 0-2.337 1.046-2.337 2.335s1.046 2.335 2.337 2.335c1.291 0 2.337-1.046 2.337-2.335-0-0.128-0.011-0.256-0.032-0.383l4.039-2.388c0.412 0.325 0.921 0.502 1.445 0.501 0.668 0 1.27-0.28 1.696-0.729l3.888 1.592c-0 0.015-0.001 0.030-0.001 0.045 0 1.29 1.046 2.335 2.337 2.335s2.337-1.046 2.337-2.335c0-0.27-0.046-0.53-0.131-0.771l4.553-3.879c0.32 0.158 0.673 0.239 1.030 0.239 1.291 0 2.337-1.045 2.337-2.335s-1.046-2.335-2.337-2.335z"></path>
</svg>
