<!-- Generated by IcoMoon.io -->
<svg version="1.1" xmlns="http://www.w3.org/2000/svg" width="32" height="32" viewBox="0 0 32 32">
<path d="M20.48 15.84l-7.040-5.12c0 0 0 0-0.16 0 0 0-0.16 0-0.16 0s0 0-0.16 0.16c0 0 0 0 0 0.16v1.28c0 0.32 0.16 0.64 0.32 0.8l4.32 2.88-4.16 3.040c-0.16 0.16-0.32 0.48-0.32 0.8v1.28c0 0.16 0.16 0.32 0.32 0.16l7.040-5.12c0 0 0-0.32 0-0.32z"></path>
<path d="M16 3.2c-7.040 0-12.8 5.76-12.8 12.8s5.76 12.8 12.8 12.8c7.040 0 12.8-5.76 12.8-12.8s-5.76-12.8-12.8-12.8zM16 26.56c-5.92 0-10.56-4.8-10.56-10.56 0-5.92 4.8-10.56 10.56-10.56 5.92 0 10.56 4.8 10.56 10.56 0 5.92-4.64 10.56-10.56 10.56z"></path>
</svg>
