<!-- Generated by IcoMoon.io -->
<svg version="1.1" xmlns="http://www.w3.org/2000/svg" width="32" height="32" viewBox="0 0 32 32">
<path d="M16 8c-7.949 0-14.4 2.916-14.4 6.509 0 2.916 4.234 5.376 10.080 6.209v2.629c0 0.586 0.778 0.872 1.224 0.456l4.018-3.632c0.288-0.26 0.288-0.664 0-0.924l-4.018-3.632c-0.446-0.404-1.224-0.117-1.224 0.469v1.979c-4.536-0.729-7.2-2.473-7.2-3.554 0-1.38 4.378-3.905 11.52-3.905s11.52 2.525 11.52 3.905c0 0.859-1.728 2.187-4.781 3.046-0.59 0.169-0.979 0.664-0.979 1.224 0 0.872 0.936 1.51 1.843 1.25 4.075-1.146 6.797-3.189 6.797-5.519 0-3.593-6.451-6.509-14.4-6.509z"></path>
</svg>
