<!-- Generated by IcoMoon.io -->
<svg version="1.1" xmlns="http://www.w3.org/2000/svg" width="32" height="32" viewBox="0 0 32 32">
<path d="M25.947 13.332c-0.132 0.194-0.209 0.42-0.226 0.654s0.029 0.468 0.132 0.679c0.331 0.772 0.564 1.583 0.693 2.413 0.343 2.147 0.022 4.347-0.92 6.307-0.114 0.215-0.286 0.394-0.495 0.519s-0.448 0.189-0.692 0.188h-16.867c-0.245 0-0.485-0.066-0.694-0.193s-0.38-0.309-0.492-0.527c-0.854-1.732-1.221-3.662-1.064-5.586s0.834-3.769 1.957-5.339 2.652-2.805 4.422-3.574c1.77-0.769 3.716-1.044 5.63-0.794 0.969 0.114 1.916 0.365 2.813 0.747 0.211 0.103 0.445 0.149 0.679 0.132s0.46-0.094 0.654-0.226c0.203-0.133 0.365-0.32 0.469-0.538s0.148-0.462 0.124-0.703c-0.023-0.241-0.112-0.472-0.256-0.667s-0.34-0.346-0.564-0.439c-2.576-1.104-5.434-1.369-8.169-0.757s-5.207 2.071-7.066 4.169c-1.859 2.098-3.009 4.728-3.287 7.516s0.328 5.594 1.735 8.018c0.233 0.403 0.567 0.738 0.969 0.972s0.859 0.359 1.324 0.361h18.467c0.47 0.002 0.932-0.12 1.339-0.355s0.746-0.572 0.981-0.979c1.030-1.785 1.632-3.784 1.759-5.84s-0.224-4.115-1.026-6.013c-0.102-0.216-0.259-0.401-0.457-0.536s-0.428-0.213-0.666-0.228c-0.239-0.015-0.477 0.034-0.69 0.143s-0.393 0.272-0.52 0.474z"></path>
<path d="M14.12 16.784c-0.5 0.5-0.781 1.179-0.781 1.887 0 0.35 0.069 0.697 0.203 1.021s0.331 0.618 0.578 0.866c0.248 0.248 0.542 0.444 0.866 0.578s0.671 0.203 1.021 0.203c0.708 0 1.386-0.281 1.887-0.782l7.547-11.32-11.32 7.547z"></path>
</svg>
