<!-- Generated by IcoMoon.io -->
<svg version="1.1" xmlns="http://www.w3.org/2000/svg" width="34" height="32" viewBox="0 0 34 32">
<title>send</title>
<path d="M29.28 15.68l-24.64-12.48c0 0-0.16 0-0.32 0s-0.16 0.16-0.32 0.16c0 0.16-0.16 0.16 0 0.32l2.56 10.4c0 0.16 0.16 0.32 0.32 0.32l4.32 1.6-4.32 1.44c-0.16 0-0.32 0.16-0.32 0.32l-2.56 10.4c0 0.16 0 0.16 0 0.32 0.16 0.32 0.48 0.32 0.64 0.32l24.64-12.32c0.16 0 0.16-0.16 0.16-0.16 0.16-0.32 0.16-0.64-0.16-0.64zM6.88 25.28l1.6-6.080 8.64-3.040c0 0 0.16 0 0.16-0.16s0-0.32-0.16-0.32l-8.64-2.88-1.6-6.080 18.56 9.28-18.56 9.28z"></path>
</svg>
