<!-- Generated by IcoMoon.io -->
<svg version="1.1" xmlns="http://www.w3.org/2000/svg" width="32" height="32" viewBox="0 0 32 32">
<path d="M28.679 20.324c-1.481-1.483-3.537-2.111-6.177-1.403l-9.414-9.423 0.124-0.47c0.542-2.034-0.044-4.221-1.528-5.706-1.512-1.513-3.661-2.068-5.694-1.51-0.142 0.039-0.272 0.115-0.376 0.22s-0.178 0.235-0.216 0.378c-0.038 0.143-0.037 0.293 0.002 0.435s0.114 0.272 0.218 0.377l2.267 2.267c0.663 0.664 0.656 1.728 0.002 2.385-0.649 0.651-1.741 0.65-2.388 0.002l-2.267-2.267c-0.104-0.104-0.235-0.18-0.377-0.218s-0.293-0.039-0.436-0.001c-0.143 0.038-0.273 0.113-0.378 0.217s-0.18 0.234-0.219 0.377c-0.55 2.010-0.009 4.173 1.51 5.692 1.481 1.482 3.534 2.112 6.175 1.403l9.415 9.423c-0.703 2.639-0.096 4.675 1.405 6.176 1.514 1.515 3.664 2.066 5.692 1.509 0.142-0.039 0.272-0.115 0.376-0.22s0.179-0.235 0.216-0.378c0.038-0.143 0.037-0.293-0.001-0.436s-0.114-0.272-0.218-0.377l-2.266-2.266c-0.663-0.664-0.656-1.728-0.002-2.385 0.657-0.654 1.747-0.644 2.388-0.001l2.267 2.267c0.104 0.104 0.235 0.18 0.377 0.218s0.293 0.039 0.436 0.001c0.143-0.038 0.273-0.113 0.378-0.217s0.18-0.234 0.219-0.376c0.55-2.010 0.009-4.173-1.509-5.692z"></path>
<path d="M10.631 16.594l-8.043 8.044c-1.316 1.316-1.316 3.457 0 4.773s3.457 1.316 4.773 0l8.043-8.044-4.773-4.773zM6.568 26.793c-0.33 0.33-0.863 0.33-1.193 0s-0.33-0.864 0-1.193l5.118-5.119c0.33-0.33 0.864-0.33 1.193 0s0.33 0.864 0 1.193l-5.118 5.119zM30.152 3.301l-1.455-1.455c-0.133-0.133-0.307-0.218-0.493-0.241s-0.376 0.017-0.537 0.114l-4.474 2.684c-0.471 0.282-0.551 0.932-0.163 1.32l0.356 0.356-5.68 5.657 2.387 2.387 5.68-5.657 0.502 0.502c0.388 0.388 1.038 0.308 1.32-0.163l2.684-4.474c0.097-0.161 0.137-0.35 0.114-0.537s-0.108-0.36-0.241-0.494z"></path>
</svg>
