<!-- Generated by IcoMoon.io -->
<svg version="1.1" xmlns="http://www.w3.org/2000/svg" width="32" height="32" viewBox="0 0 32 32">
<path d="M16.4 17.333c0 0-0.133 0-0.133-0.133l-3.333-3.333c-0.267-0.267-0.8-0.4-1.2 0-0.133 0.133-0.133 0.133-0.133 0.267s0 0.267 0 0.267 0 0.267 0 0.267 0.133 0.133 0.133 0.267l3.333 3.333c0.4 0.4 0.8 0.533 1.333 0.533v0c0.533 0 1.067-0.133 1.333-0.533l10.933-10.8c0.133-0.133 0.133-0.133 0.133-0.267s0-0.267 0-0.267 0-0.267 0-0.267-0.133-0.133-0.133-0.267-0.133-0.133-0.267-0.133-0.267 0-0.267 0-0.267 0-0.267 0-0.133 0.133-0.267 0.133l-11.067 10.933c0 0 0 0-0.133 0 0.133 0 0 0 0 0z"></path>
<path d="M16.4 25.333l5.867 4.267c0.4 0.267 0.933 0.4 1.333 0.4 0.533 0 0.933-0.133 1.333-0.4 0.8-0.667 1.2-1.6 0.8-2.667l-2.267-6.667c0-0.133 0-0.267 0-0.4s0.133-0.267 0.267-0.4l5.733-4c0.8-0.667 1.2-1.6 0.933-2.533-0.133-0.933-1.067-1.6-2.133-1.6h-1.467c-0.133 0-0.267 0-0.267 0-0.133 0-0.133 0.133-0.267 0.133-0.133 0.133-0.133 0.133-0.133 0.267s0 0.267 0 0.267 0 0.267 0 0.267 0.133 0.133 0.133 0.267 0.133 0.133 0.267 0.133 0.267 0 0.267 0h1.467c0.533 0 0.667 0.4 0.667 0.4 0 0.133 0.133 0.4-0.267 0.667l-5.733 4c-0.4 0.267-0.667 0.667-0.933 1.2-0.133 0.533-0.133 0.933 0 1.467l2.267 6.667c0.133 0.4-0.133 0.667-0.267 0.8s-0.4 0.267-0.8 0l-5.867-3.867c-0.4-0.267-0.933-0.4-1.333-0.4-0.533 0-0.933 0.133-1.333 0.4l-5.867 4.267c-0.4 0.267-0.667 0-0.8 0-0.133-0.133-0.4-0.267-0.267-0.8l2.267-6.667c0.133-0.533 0.133-1.067 0-1.467-0.133-0.533-0.533-0.933-0.933-1.2l-5.733-4c-0.4-0.267-0.267-0.533-0.267-0.667s0.133-0.4 0.667-0.4h7.2c0.933 0 1.867-0.667 2.267-1.733l2.267-6.933c0-0.133 0.133-0.267 0.267-0.4s0.267-0.133 0.4-0.133v0c0.133 0 0.533 0.133 0.667 0.4l2.133 6.933c0 0.133 0.133 0.267 0.133 0.267 0.133 0.133 0.133 0.133 0.267 0.267 0.133 0 0.267 0.133 0.267 0.133 0.133 0 0.267 0 0.267 0 0.267 0 0.4-0.267 0.533-0.4s0.133-0.4 0-0.667l-2.133-6.933c-0.267-0.933-1.2-1.6-2.267-1.6v0c-1.067 0-2 0.667-2.267 1.6l-2.267 6.933c0 0.267-0.4 0.533-0.667 0.533h-7.067c-1.067 0-2 0.667-2.267 1.6s0 2 0.933 2.533l5.733 4c0.267 0.133 0.4 0.533 0.267 0.8l-2.267 6.667c-0.267 0.933 0 2 0.8 2.667s2 0.667 2.8 0l5.867-4.267c0.133-0.133 0.267-0.133 0.4-0.133s0.267 0.133 0.4 0.133z"></path>
</svg>
