<!-- Generated by IcoMoon.io -->
<svg version="1.1" xmlns="http://www.w3.org/2000/svg" width="32" height="32" viewBox="0 0 32 32">
<path d="M28 11.84l-7.68-1.12-3.36-6.88c0-0.16-0.32-0.32-0.48-0.48-0.48-0.16-1.12 0-1.28 0.48l-3.36 6.88-7.68 1.12c-0.16 0-0.48 0-0.48 0.32-0.16 0.16-0.32 0.48-0.32 0.64 0 0.32 0 0.48 0.32 0.64l5.6 5.44-1.28 7.68c0 0.16 0 0.32 0 0.48s0.16 0.32 0.32 0.48c0 0 0.32 0.16 0.48 0.16s0.32 0 0.48 0l6.88-3.68 6.88 3.68c0.16 0 0.48 0 0.64 0 0.48 0 0.8-0.64 0.8-1.12l-1.28-7.68 5.6-5.44c0 0 0.32-0.32 0.32-0.48 0-0.48-0.32-0.96-0.8-1.12zM20.64 18.080l1.12 6.4-5.76-3.040-5.76 3.040 1.12-6.4-4.64-4.48 6.4-0.96 2.88-5.76 2.88 5.76 6.4 0.96-4.64 4.48z"></path>
</svg>
