<!-- Generated by IcoMoon.io -->
<svg version="1.1" xmlns="http://www.w3.org/2000/svg" width="32" height="32" viewBox="0 0 32 32">
<title>stores-fill</title>
<path d="M30.373 11.082l-1.629-6.52c-0.2-0.801-0.92-1.363-1.746-1.363h-21.994c-0.826 0-1.546 0.562-1.748 1.363l-1.629 6.52c-0.018 0.070-0.027 0.144-0.027 0.218 0 2.48 1.917 4.5 4.275 4.5 1.37 0 2.592-0.682 3.375-1.741 0.783 1.058 2.005 1.741 3.375 1.741s2.592-0.682 3.375-1.741c0.783 1.058 2.003 1.741 3.375 1.741s2.592-0.682 3.375-1.741c0.783 1.058 2.003 1.741 3.375 1.741 2.358 0 4.275-2.020 4.275-4.5 0-0.074-0.009-0.148-0.027-0.218zM26.125 17.6c-1.226 0-2.39-0.374-3.375-1.058-1.969 1.37-4.781 1.37-6.75 0-1.969 1.37-4.781 1.37-6.75 0-0.985 0.684-2.149 1.058-3.375 1.058-0.884 0-1.717-0.207-2.475-0.56v9.56c0 0.994 0.806 1.8 1.8 1.8h7.2v-7.2h7.2v7.2h7.2c0.994 0 1.8-0.806 1.8-1.8v-9.56c-0.758 0.353-1.591 0.56-2.475 0.56z"></path>
</svg>
