<!-- Generated by IcoMoon.io -->
<svg version="1.1" xmlns="http://www.w3.org/2000/svg" width="32" height="32" viewBox="0 0 32 32">
<title>support</title>
<path d="M9.733 25.333h-1.867c-0.933 0-2-0.267-2.8-0.667s-1.6-1.067-2.267-1.733c-0.667-0.8-1.067-1.6-1.333-2.533s-0.267-2 0-2.933c0.4-1.467 1.2-2.8 2.4-3.733s2.667-1.467 4.267-1.467h1.6c0.8 0 1.333 0.533 1.333 1.333v10.4c0 0.8-0.667 1.333-1.333 1.333zM8 14.933c-0.933 0-1.867 0.267-2.533 0.8s-1.2 1.333-1.467 2.267c-0.133 0.533-0.133 1.067 0 1.733 0.133 0.533 0.4 1.067 0.8 1.467s0.8 0.8 1.333 1.067c0.667 0.267 1.2 0.4 1.733 0.4h0.533v-7.733h-0.4c0 0 0 0 0 0z"></path>
<path d="M24.133 25.333h-1.867c-0.8 0-1.333-0.533-1.333-1.333v-10.4c0-0.8 0.533-1.333 1.333-1.333h1.6c0 0 0.133 0 0.133 0 1.467 0 2.933 0.533 4.133 1.467s2 2.267 2.4 3.733c0.133 0.933 0.133 2 0 2.933-0.267 0.933-0.667 1.867-1.333 2.533-0.667 0.8-1.333 1.333-2.267 1.733s-1.867 0.667-2.8 0.667zM23.6 22.667h0.533c0.533 0 1.2-0.133 1.733-0.4s0.933-0.667 1.333-1.067c0.4-0.4 0.667-0.933 0.8-1.467s0.133-1.2 0-1.733c-0.133-0.933-0.667-1.733-1.467-2.267-0.667-0.533-1.733-0.933-2.533-0.8h-0.267v7.733z"></path>
<path d="M25.467 14.933c-0.8 0-1.333-0.533-1.333-1.333v-1.467c0-1.2-0.267-2.4-0.8-3.6-0.533-1.067-1.333-2.133-2.267-2.8-0.933-0.8-2.133-1.333-3.333-1.6s-2.4-0.267-3.6 0c-1.733 0.533-3.333 1.6-4.533 3.067-1.067 1.467-1.733 3.2-1.733 5.067v1.2c0 0.8-0.533 1.333-1.333 1.333s-1.333-0.533-1.333-1.333v-1.067c0-2.4 0.8-4.8 2.267-6.8s3.6-3.333 6-3.867c1.6-0.4 3.2-0.4 4.8 0 1.6 0.267 3.2 0.933 4.4 1.867 1.333 1.067 2.267 2.267 3.067 3.733 0.667 1.467 1.067 3.067 1.067 4.667v1.467c0 0.8-0.667 1.467-1.333 1.467z"></path>
<path d="M14.667 30.667c-1.733 0-3.467-0.667-4.667-2-1.333-1.2-2-2.933-2-4.667 0-0.8 0.533-1.333 1.333-1.333s1.333 0.533 1.333 1.333c0 1.067 0.4 2.133 1.2 2.8 0.667 0.8 1.733 1.2 2.8 1.2 0.8 0 1.333 0.533 1.333 1.333s-0.533 1.333-1.333 1.333z"></path>
</svg>
