<!-- Generated by IcoMoon.io -->
<svg version="1.1" xmlns="http://www.w3.org/2000/svg" width="32" height="32" viewBox="0 0 32 32">
<path d="M16.768 7.424c0-0.512-0.384-0.768-0.768-0.768s-0.768 0.384-0.768 0.768v0.768h1.664v-0.768z"></path>
<path d="M20.992 23.552h6.528v-21.632h-23.040v28.16h16.512v-6.528zM23.936 20.352h-15.872v-1.664h15.872v1.664zM23.936 16.768h-15.872v-1.664h15.872v1.664zM19.328 4.992h1.792l0.768 1.792 0.768-1.792h1.792l-1.792 3.712 1.792 3.712h-1.792l-0.896-1.792-0.64 1.792h-1.792l1.792-3.712-1.792-3.712zM13.44 7.424c0-1.408 1.152-2.432 2.432-2.432 1.408 0 2.432 1.152 2.432 2.432v4.992h-1.664v-2.56h-1.664v2.432h-1.536v-4.864zM7.424 4.992h4.992v1.664h-1.664v5.76h-1.664v-5.76h-1.664v-1.664zM18.944 27.392h-10.88v-1.664h10.88v1.664zM8.064 23.808v-1.664h10.88v1.664h-10.88z"></path>
<path d="M22.656 25.216v4.864l4.864-4.864h-4.864z"></path>
</svg>
