<!-- Generated by IcoMoon.io -->
<svg version="1.1" xmlns="http://www.w3.org/2000/svg" width="32" height="32" viewBox="0 0 32 32">
<path d="M28.568 13.261h-7.439c-0.128 0-0.232 0.105-0.232 0.232v1.395c0 0.128 0.105 0.232 0.232 0.232h7.439c0.128 0 0.232-0.105 0.232-0.232v-1.395c0-0.128-0.105-0.232-0.232-0.232zM24.674 17.213h-3.545c-0.128 0-0.232 0.105-0.232 0.232v1.395c0 0.128 0.105 0.232 0.232 0.232h3.545c0.128 0 0.232-0.105 0.232-0.232v-1.395c0-0.128-0.105-0.232-0.232-0.232zM14.977 10.661h-1.258c-0.18 0-0.325 0.145-0.325 0.325v7.207c0 0.105 0.049 0.201 0.134 0.262l4.327 3.156c0.145 0.105 0.349 0.076 0.453-0.070l0.747-1.020v-0.003c0.105-0.145 0.073-0.349-0.073-0.453l-3.682-2.662v-6.416c0.003-0.18-0.145-0.325-0.323-0.325z"></path>
<path d="M24.494 20.865h-1.68c-0.163 0-0.317 0.084-0.404 0.224-0.37 0.586-0.803 1.129-1.293 1.619-0.843 0.846-1.843 1.52-2.944 1.985-1.142 0.482-2.354 0.726-3.603 0.726-1.252 0-2.464-0.244-3.603-0.726-1.101-0.465-2.092-1.133-2.944-1.985s-1.52-1.842-1.985-2.944c-0.482-1.139-0.726-2.351-0.726-3.603s0.244-2.461 0.726-3.603c0.465-1.101 1.133-2.092 1.985-2.944s1.842-1.52 2.944-1.985c1.139-0.482 2.354-0.726 3.603-0.726 1.252 0 2.464 0.244 3.603 0.726 1.101 0.465 2.092 1.133 2.944 1.985 0.49 0.49 0.924 1.033 1.293 1.619 0.087 0.139 0.241 0.224 0.404 0.224h1.68c0.2 0 0.328-0.209 0.238-0.386-1.895-3.769-5.736-6.219-10.025-6.268-6.28-0.078-11.496 5.062-11.507 11.336-0.012 6.285 5.082 11.385 11.368 11.385 4.344 0 8.25-2.458 10.165-6.271 0.020-0.041 0.030-0.086 0.028-0.131s-0.016-0.090-0.039-0.128-0.057-0.071-0.097-0.093c-0.040-0.022-0.084-0.034-0.13-0.034z"></path>
</svg>
