<!-- Generated by IcoMoon.io -->
<svg version="1.1" xmlns="http://www.w3.org/2000/svg" width="32" height="32" viewBox="0 0 32 32">
<title>transaction</title>
<path d="M25.846 3.2h-19.692c-0.783 0-1.535 0.311-2.089 0.865s-0.865 1.305-0.865 2.089v18.708c0 0.783 0.311 1.535 0.865 2.089s1.305 0.865 2.089 0.865h19.692c0.784 0 1.535-0.311 2.089-0.865s0.865-1.305 0.865-2.089v-18.708c0-0.783-0.311-1.535-0.865-2.089s-1.305-0.865-2.089-0.865zM26.831 24.862c0 0.261-0.104 0.512-0.288 0.696s-0.435 0.288-0.696 0.288h-19.692c-0.261 0-0.512-0.104-0.696-0.288s-0.288-0.435-0.288-0.696v-18.708c0-0.261 0.104-0.512 0.288-0.696s0.435-0.288 0.696-0.288h19.692c0.261 0 0.512 0.104 0.696 0.288s0.288 0.435 0.288 0.696v18.708z"></path>
<path d="M22.401 14.031c0.261 0 0.512-0.104 0.696-0.288s0.288-0.435 0.288-0.696c0-0.261-0.104-0.512-0.288-0.696s-0.435-0.288-0.696-0.288h-10.915l1.275-1.275c0.185-0.185 0.289-0.435 0.289-0.697s-0.104-0.512-0.289-0.697c-0.185-0.185-0.435-0.289-0.697-0.289s-0.512 0.104-0.697 0.289l-2.954 2.954c-0.139 0.137-0.233 0.313-0.272 0.504s-0.020 0.39 0.055 0.57c0.074 0.18 0.201 0.335 0.363 0.443s0.353 0.166 0.548 0.166h13.292zM23.385 17.477h-13.292c-0.261 0-0.512 0.104-0.696 0.288s-0.288 0.435-0.288 0.696 0.104 0.512 0.288 0.696c0.185 0.185 0.435 0.288 0.696 0.288h10.914l-1.275 1.275c-0.185 0.185-0.289 0.435-0.289 0.697s0.104 0.512 0.289 0.697c0.185 0.185 0.435 0.288 0.697 0.288s0.512-0.104 0.697-0.288l2.954-2.954c0.139-0.137 0.233-0.313 0.272-0.504s0.020-0.39-0.055-0.57c-0.074-0.18-0.201-0.335-0.363-0.443s-0.353-0.166-0.548-0.166z"></path>
</svg>
