<!-- Generated by IcoMoon.io -->
<svg version="1.1" xmlns="http://www.w3.org/2000/svg" width="32" height="32" viewBox="0 0 32 32">
<path d="M11.067 28.267c-3.2 0-6.4-0.933-9.2-2.667-0.533-0.267-0.667-0.933-0.533-1.467 0.267-0.533 0.8-0.933 1.333-0.8 1.6 0.133 3.2 0 4.667-0.533-1.467-0.8-2.533-2.133-3.067-3.867-0.133-0.4-0.133-0.667 0.133-0.933-1.333-1.333-2.133-3.067-2.133-4.933 0-0.4 0.267-0.933 0.667-1.067-0.267-1.2-0.533-2.133-0.533-3.2 0-1.2 0.267-2.4 0.933-3.467 0.267-0.267 0.667-0.533 1.067-0.533s0.8 0.133 1.067 0.533c2.267 2.667 5.467 4.533 8.933 5.067 0.133-3.733 3.2-6.667 6.8-6.667 1.6 0 3.2 0.533 4.4 1.6 0.667-0.133 1.333-0.267 2.133-0.4 1.333-0.267 2.533 0.533 2.8 1.867 0.133 0.667 0 1.467-0.4 2.133-0.667 0.8-1.333 1.6-2.267 2.267 0.133 8.4-6.133 17.067-16.8 17.067zM7.733 25.2c1.067 0.267 2.267 0.4 3.333 0.4 8.933 0 14.4-7.333 14.4-14.4 0-0.933 0.267-1.6 0.933-2.133 0.533-0.4 1.067-0.933 1.6-1.6-0.667 0.133-1.333 0.267-2.133 0.4h-0.267c-0.4 0.133-0.933 0-1.2-0.4-0.8-0.8-1.867-1.333-3.067-1.333-2.267 0-4.267 1.867-4.267 4.267 0 0.8-0.267 1.467-0.8 1.867s-1.2 0.667-1.867 0.533c-3.467-0.533-6.8-2-9.333-4.4 0 0.133 0 0.133 0 0.267 0 1.467 0.667 2.8 1.867 3.467 0.533 0.267 0.667 0.933 0.533 1.467s-0.667 0.933-1.333 0.933c-0.267 0-0.533 0-0.667 0 0.533 1.2 1.6 2 2.933 2.267 0.533 0.133 1.067 0.667 1.067 1.2 0 0.667-0.4 1.2-0.933 1.333-0.133 0-0.4 0.133-0.533 0.133 0.8 0.8 1.733 1.2 2.933 1.2 0.533 0 1.067 0.4 1.2 0.933s0 1.067-0.4 1.467c-1.333 1.067-2.667 1.733-4 2.133zM14.4 10.667c0 0 0 0 0 0s0 0 0 0z"></path>
</svg>
