<!-- Generated by IcoMoon.io -->
<svg version="1.1" xmlns="http://www.w3.org/2000/svg" width="32" height="32" viewBox="0 0 32 32">
<path d="M3.398 19.923c1.151-1.151 2.712-1.798 4.34-1.798h9.443c1.628 0 3.189 0.647 4.34 1.798s1.798 2.712 1.798 4.34v2.361c0 0.782-0.634 1.416-1.416 1.416s-1.416-0.634-1.416-1.416v-2.361c0-0.877-0.348-1.717-0.968-2.337s-1.46-0.968-2.337-0.968h-9.443c-0.877 0-1.717 0.348-2.337 0.968s-0.968 1.46-0.968 2.337v2.361c0 0.782-0.634 1.416-1.416 1.416s-1.416-0.634-1.416-1.416v-2.361c0-1.628 0.647-3.189 1.798-4.34z"></path>
<path d="M12.459 6.795c-1.825 0-3.305 1.48-3.305 3.305s1.48 3.305 3.305 3.305c1.825 0 3.305-1.48 3.305-3.305s-1.48-3.305-3.305-3.305zM6.321 10.1c0-3.39 2.748-6.138 6.138-6.138s6.138 2.748 6.138 6.138c0 3.39-2.748 6.138-6.138 6.138s-6.138-2.748-6.138-6.138z"></path>
<path d="M24.071 19.344c0.196-0.757 0.968-1.213 1.726-1.017 1.317 0.34 2.483 1.108 3.316 2.183s1.286 2.396 1.287 3.756v2.362c0 0.782-0.634 1.416-1.416 1.416s-1.416-0.634-1.416-1.416v-2.36c-0.001-0.732-0.244-1.443-0.693-2.022s-1.077-0.992-1.786-1.175c-0.757-0.196-1.213-0.968-1.017-1.726z"></path>
<path d="M19.349 5.178c0.194-0.758 0.966-1.215 1.724-1.021 1.32 0.338 2.49 1.106 3.326 2.182s1.289 2.401 1.289 3.764c0 1.363-0.454 2.687-1.289 3.764s-2.006 1.844-3.326 2.183c-0.758 0.194-1.529-0.263-1.724-1.021s0.263-1.529 1.021-1.723c0.711-0.182 1.341-0.595 1.791-1.175s0.694-1.293 0.694-2.027c0-0.734-0.244-1.447-0.694-2.027s-1.080-0.993-1.791-1.175c-0.758-0.194-1.215-0.966-1.021-1.723z"></path>
</svg>
