<!-- Generated by IcoMoon.io -->
<svg version="1.1" xmlns="http://www.w3.org/2000/svg" width="32" height="32" viewBox="0 0 32 32">
<path d="M27.429 10.466l-3.657 2.106v-4.343c0-1.009-0.82-1.829-1.828-1.829h-16.914c-1.009 0-1.829 0.82-1.829 1.829v16.457c0 1.008 0.82 1.828 1.829 1.828h16.914c1.008 0 1.828-0.82 1.828-1.828v-4.343l3.657 2.106c0.608 0.351 1.371-0.089 1.371-0.789v-10.403c0-0.703-0.763-1.143-1.371-0.791zM21.714 24.457h-16.457v-16h16.457v16zM26.743 19.686l-2.972-1.709v-3.037l2.972-1.711v6.457zM7.314 12.114h3.2c0.126 0 0.229-0.103 0.229-0.229v-1.371c0-0.126-0.103-0.229-0.229-0.229h-3.2c-0.126 0-0.229 0.103-0.229 0.229v1.371c0 0.126 0.103 0.229 0.229 0.229z"></path>
</svg>
