<svg aria-hidden="true" style="position: absolute; width: 0; height: 0; overflow: hidden;" version="1.1" xmlns="http://www.w3.org/2000/svg" xmlns:xlink="http://www.w3.org/1999/xlink">
<defs>
<symbol id="icon-add-circle" viewBox="0 0 32 32">
<path d="M16 3.998c-6.627 0-12 5.373-12 12s5.373 12 12 12c6.627 0 12-5.373 12-12s-5.373-12-12-12zM1.334 15.998c0-8.1 6.566-14.667 14.667-14.667s14.667 6.566 14.667 14.667-6.566 14.667-14.667 14.667c-8.1 0-14.667-6.567-14.667-14.667z"></path>
<path d="M16 9.331c0.736 0 1.333 0.597 1.333 1.333v10.667c0 0.736-0.597 1.333-1.333 1.333s-1.333-0.597-1.333-1.333v-10.667c0-0.736 0.597-1.333 1.333-1.333z"></path>
<path d="M9.334 16.002c0-0.736 0.597-1.333 1.333-1.333h10.667c0.736 0 1.333 0.597 1.333 1.333s-0.597 1.333-1.333 1.333h-10.667c-0.736 0-1.333-0.597-1.333-1.333z"></path>
</symbol>
</defs>
</svg>
