<svg width="24" height="24" viewBox="0 0 24 24" fill="none" xmlns="http://www.w3.org/2000/svg">
<g clip-path="url(#clip0_7359_1429)">
<path fill-rule="evenodd" clip-rule="evenodd" d="M11.9777 2.57224C11.2611 2.5593 10.5489 2.6878 9.88202 2.95039C9.21511 3.21298 8.60653 3.6045 8.09111 4.10254C7.57569 4.60059 7.16355 5.19539 6.87827 5.85289C6.59299 6.51039 6.44018 7.2177 6.42857 7.93432V15.4289C6.42857 15.8835 6.24796 16.3196 5.92647 16.641C5.60498 16.9625 5.16894 17.1431 4.71429 17.1431H2.57143C1.88944 17.1431 1.23539 16.8722 0.753154 16.39C0.270918 15.9078 0 15.2537 0 14.5718L0 11.1433C0 10.4614 0.270918 9.80736 0.753154 9.32514C1.23539 8.84292 1.88944 8.57201 2.57143 8.57201H3.85714V7.90347C3.87278 6.8499 4.09583 5.80973 4.51353 4.84236C4.93124 3.875 5.53542 2.99939 6.29158 2.26555C7.04774 1.5317 7.94105 0.953999 8.92052 0.565429C9.89998 0.176859 10.9464 -0.0149656 12 0.000910789C13.0536 -0.0149656 14.1 0.176859 15.0795 0.565429C16.0589 0.953999 16.9523 1.5317 17.7084 2.26555C18.4646 2.99939 19.0688 3.875 19.4865 4.84236C19.9042 5.80973 20.1272 6.8499 20.1429 7.90347V8.57201H21.4286C22.1106 8.57201 22.7646 8.84292 23.2468 9.32514C23.7291 9.80736 24 10.4614 24 11.1433V14.5718C24 15.2537 23.7291 15.9078 23.2468 16.39C22.7646 16.8722 22.1106 17.1431 21.4286 17.1431H20.1429V18.0002C20.1431 19.1586 19.7168 20.2766 18.9453 21.1407C18.1737 22.0048 17.1111 22.5546 15.96 22.6852C15.7365 23.0843 15.4105 23.4165 15.0158 23.6476C14.621 23.8788 14.1717 24.0004 13.7143 24H11.1429C10.4609 24 9.80682 23.7291 9.32458 23.2469C8.84235 22.7647 8.57143 22.1106 8.57143 21.4287C8.57143 20.7467 8.84235 20.0927 9.32458 19.6105C9.80682 19.1282 10.4609 18.8573 11.1429 18.8573H13.7143C14.6434 18.8573 15.4577 19.3493 15.9086 20.0881C16.3811 19.9796 16.8028 19.7139 17.1048 19.3347C17.4068 18.9555 17.5713 18.485 17.5714 18.0002V7.93261C17.5597 7.21229 17.4052 6.50145 17.1171 5.84118C16.8289 5.18091 16.4127 4.5843 15.8926 4.08584C15.3724 3.58739 14.7586 3.19698 14.0867 2.93718C13.4147 2.67738 12.6979 2.55334 11.9777 2.57224Z" fill="black"/>
</g>
<defs>
<clipPath id="clip0_7359_1429">
<rect width="24" height="24" fill="white"/>
</clipPath>
</defs>
</svg>
