<svg width="20" height="20" viewBox="0 0 20 20" fill="none" xmlns="http://www.w3.org/2000/svg">
<path fill-rule="evenodd" clip-rule="evenodd" d="M18 10C18 7.87827 17.1571 5.84344 15.6569 4.34315C14.1566 2.84285 12.1217 2 10 2C7.87827 2 5.84344 2.84285 4.34315 4.34315C2.84285 5.84344 2 7.87827 2 10C2 12.1217 2.84285 14.1566 4.34315 15.6569C5.84344 17.1571 7.87827 18 10 18C12.1217 18 14.1566 17.1571 15.6569 15.6569C17.1571 14.1566 18 12.1217 18 10ZM9.293 6.293L6.293 9.293C6.11084 9.4816 6.01005 9.7342 6.01233 9.9964C6.0146 10.2586 6.11977 10.5094 6.30518 10.6948C6.49059 10.8802 6.7414 10.9854 7.0036 10.9877C7.2658 10.99 7.5184 10.8892 7.707 10.707L9 9.414V13C9 13.2652 9.10536 13.5196 9.29289 13.7071C9.48043 13.8946 9.73478 14 10 14C10.2652 14 10.5196 13.8946 10.7071 13.7071C10.8946 13.5196 11 13.2652 11 13V9.414L12.293 10.707C12.3852 10.8025 12.4956 10.8787 12.6176 10.9311C12.7396 10.9835 12.8708 11.0111 13.0036 11.0123C13.1364 11.0134 13.2681 10.9881 13.391 10.9378C13.5139 10.8875 13.6255 10.8133 13.7194 10.7194C13.8133 10.6255 13.8875 10.5139 13.9378 10.391C13.9881 10.2681 14.0134 10.1364 14.0123 10.0036C14.0111 9.87082 13.9835 9.7396 13.9311 9.6176C13.8787 9.49559 13.8025 9.38525 13.707 9.293L10.707 6.293C10.5195 6.10553 10.2652 6.00021 10 6.00021C9.73484 6.00021 9.48053 6.10553 9.293 6.293Z" fill="black"/>
</svg>
