<?xml version="1.0" encoding="utf-8"?>
<!-- Generator: Adobe Illustrator 28.1.0, SVG Export Plug-In . SVG Version: 6.00 Build 0)  -->
<svg version="1.1" id="Layer_1" xmlns="http://www.w3.org/2000/svg" xmlns:xlink="http://www.w3.org/1999/xlink" x="0px" y="0px"
	 viewBox="0 0 20 20" style="enable-background:new 0 0 20 20;" xml:space="preserve">
<g>
	<path d="M8.4,16.4c-0.2,0-0.4-0.1-0.6-0.2l-5.6-5.6l0,0l0,0l0,0l0,0l0,0c-0.1-0.1-0.1-0.2-0.2-0.3c0-0.1-0.1-0.2-0.1-0.3l0,0l0,0
		l0,0l0,0l0,0l0,0l0,0l0,0l0,0l0,0l0,0l0,0l0,0l0,0l0,0l0,0l0,0l0,0l0,0l0,0l0,0c0-0.1,0-0.2,0.1-0.3l0,0l0,0c0-0.1,0.1-0.2,0.2-0.3
		l0,0l0,0l0,0l0,0l0,0l0,0l0,0l0,0l0,0l0,0l0,0l0,0l0,0l0,0l0,0l0,0L7.8,4c0.3-0.3,0.9-0.3,1.1,0c0.3,0.3,0.3,0.9,0,1.1L4.7,9.2
		h12.5c0.5,0,0.8,0.4,0.8,0.8s-0.4,0.8-0.8,0.8H4.7L8.9,15c0.3,0.3,0.3,0.9,0,1.1C8.8,16.3,8.6,16.4,8.4,16.4z"/>
</g>
</svg>
