<?xml version="1.0" encoding="utf-8"?>
<!-- Generator: Adobe Illustrator 28.1.0, SVG Export Plug-In . SVG Version: 6.00 Build 0)  -->
<svg version="1.1" id="Layer_1" xmlns="http://www.w3.org/2000/svg" xmlns:xlink="http://www.w3.org/1999/xlink" x="0px" y="0px"
	 viewBox="0 0 20 20" style="enable-background:new 0 0 20 20;" xml:space="preserve">
<g>
	<path d="M11,16c-0.3-0.3-0.3-0.9,0-1.1l4.2-4.2H2.8C2.4,10.7,2,10.3,2,9.9s0.3-0.8,0.8-0.8h12.5L11,5c-0.3-0.3-0.3-0.9,0-1.1
		s0.9-0.3,1.1,0l5.6,5.6l0,0l0,0l0,0l0,0l0,0l0,0l0,0l0,0l0,0l0,0l0,0l0,0l0,0l0,0l0,0l0,0c0.1,0.1,0.2,0.2,0.2,0.3l0,0l0,0
		C18,9.8,18,9.9,18,10l0,0l0,0l0,0l0,0l0,0l0,0l0,0l0,0l0,0l0,0l0,0l0,0l0,0l0,0l0,0l0,0l0,0l0,0l0,0l0,0l0,0c0,0.1-0.1,0.2-0.1,0.3
		c-0.1,0.1-0.1,0.2-0.2,0.3l0,0l0,0l0,0l0,0l0,0l-5.6,5.6c-0.2,0.1-0.4,0.2-0.6,0.2C11.4,16.3,11.1,16.2,11,16z"/>
</g>
</svg>
