<!-- Generated by IcoMoon.io -->
<svg version="1.1" xmlns="http://www.w3.org/2000/svg" width="32" height="32" viewBox="0 0 32 32">
<title>box-plot</title>
<path d="M28.571 8h-1.486c-0.126 0-0.229 0.103-0.229 0.229v7.086h-2.628v-5.029c0-0.126-0.103-0.229-0.229-0.229h-16c-0.126 0-0.229 0.103-0.229 0.229v5.029h-2.629v-7.086c0-0.126-0.103-0.229-0.229-0.229h-1.486c-0.126 0-0.229 0.103-0.229 0.229v16c0 0.126 0.103 0.228 0.229 0.228h1.486c0.126 0 0.229-0.103 0.229-0.228v-6.972h2.629v4.914c0 0.126 0.103 0.229 0.229 0.229h16c0.126 0 0.229-0.103 0.229-0.229v-4.914h2.628v6.972c0 0.126 0.103 0.228 0.229 0.228h1.486c0.126 0 0.229-0.103 0.229-0.228v-16c0-0.126-0.103-0.229-0.229-0.229zM9.829 12.114h2.514v8.229h-2.514v-8.229zM22.171 20.343h-8v-8.229h8v8.229z"></path>
</svg>
