<svg width="20" height="20" viewBox="0 0 20 20" fill="none" xmlns="http://www.w3.org/2000/svg">
<path d="M15.8061 11.8303C15.7333 11.7091 15.0155 11.3991 15.0155 11.3991C15.1404 11.3346 15.2257 11.3212 15.2257 11.0546C15.2257 10.7637 15.2243 10.6667 15.0303 10.6667H14.3724C14.3697 10.6609 14.3668 10.6548 14.3641 10.6488C13.9394 9.72123 13.8824 9.48681 13.249 9.17117C12.3993 8.74863 10.8063 8.72729 10.1818 8.72729C9.55734 8.72729 7.96437 8.74863 7.1154 9.17117C6.48122 9.48633 6.49697 9.64851 6.00026 10.6488C6.00026 10.6514 5.99516 10.6584 5.99056 10.6667H5.33189C5.13941 10.6667 5.13795 10.7637 5.13795 11.0546C5.13795 11.3212 5.22328 11.3346 5.34813 11.3991C5.34813 11.3991 4.65456 11.7334 4.55759 11.8303C4.46062 11.9273 4.36365 12.6061 4.36365 13.7697C4.36365 14.9334 4.46062 16.097 4.46062 16.097H4.75007C4.75007 16.4364 4.80001 16.4849 4.94547 16.4849H6.88485C7.03031 16.4849 7.07879 16.4364 7.07879 16.097H13.2849C13.2849 16.4364 13.3333 16.4849 13.4788 16.4849H15.4667C15.5636 16.4849 15.6121 16.4121 15.6121 16.097H15.903C15.903 16.097 16 14.9091 16 13.7697C16 12.6303 15.8788 11.9515 15.8061 11.8303ZM7.01237 12.9198C6.57086 12.968 6.12707 12.9928 5.68292 12.994C5.18789 12.994 5.17092 13.0257 5.13601 12.7166C5.12288 12.5752 5.12703 12.4326 5.14838 12.2921L5.16365 12.2182H5.23638C5.52728 12.2182 5.8005 12.2306 6.31638 12.3826C6.57877 12.4613 6.82556 12.5848 7.04582 12.7477C7.15152 12.8243 7.17576 12.897 7.17576 12.897L7.01237 12.9198ZM13.0041 14.6652L12.897 14.9334H7.46667C7.46667 14.9334 7.47613 14.9186 7.34546 14.6623C7.24849 14.4728 7.3697 14.3515 7.56146 14.2827C7.93285 14.1489 9.01819 13.7697 10.1818 13.7697C11.3455 13.7697 12.4524 14.0965 12.8121 14.2827C12.9455 14.3515 13.111 14.4 13.0041 14.6667V14.6652ZM6.77382 11.3554C6.69552 11.3599 6.61705 11.3605 6.53867 11.3571C6.60194 11.2446 6.63709 11.1193 6.69891 10.9884C6.89285 10.5763 7.11467 10.1098 7.50958 9.91324C8.08025 9.62911 9.26304 9.50111 10.1818 9.50111C11.1006 9.50111 12.2834 9.62814 12.8541 9.91324C13.249 10.1098 13.4698 10.5765 13.6647 10.9884C13.727 11.1205 13.7617 11.2468 13.8267 11.36C13.7782 11.3627 13.7224 11.36 13.5893 11.3554H6.77382ZM15.2034 12.7157C15.1515 13.0182 15.2 12.994 14.6807 12.994C14.2366 12.9928 13.7928 12.968 13.3513 12.9198C13.2822 12.9074 13.2626 12.7908 13.3178 12.7477C13.537 12.583 13.7841 12.4593 14.0473 12.3826C14.5632 12.2306 14.8536 12.2102 15.1404 12.2204C15.1596 12.2211 15.178 12.229 15.1918 12.2424C15.2056 12.2558 15.214 12.2739 15.2153 12.2931C15.229 12.4342 15.225 12.5765 15.2034 12.7166V12.7157Z" fill="black"/>
<path d="M15.2781 9.45361C15.2842 9.44421 15.2927 9.43575 15.2955 9.42542C15.3246 9.33521 15.3528 9.24454 15.3815 9.15386C15.3989 9.09796 15.4172 9.04252 15.4346 8.98661C15.451 8.93352 15.4853 8.89969 15.538 8.88325C15.6757 8.8405 15.8134 8.79774 15.9511 8.75452C15.9609 8.75123 15.9722 8.74982 15.9812 8.74466C15.9891 8.73996 16 8.73103 16 8.72398C16 8.71694 15.9887 8.70707 15.9807 8.70425C15.9313 8.68734 15.882 8.6723 15.8326 8.6568C15.7354 8.62626 15.6386 8.59479 15.5408 8.56566C15.4853 8.54921 15.451 8.51445 15.4341 8.45948C15.3895 8.31572 15.3439 8.17242 15.2974 8.02913C15.2936 8.01832 15.2828 8.0094 15.2753 8C15.2668 8.00987 15.2541 8.01879 15.2504 8.03054C15.2043 8.17289 15.1587 8.31572 15.115 8.45854C15.0981 8.51398 15.0643 8.54874 15.0088 8.56566C14.8645 8.61029 14.7207 8.65586 14.5769 8.7019C14.5651 8.70566 14.5557 8.71788 14.5454 8.72586C14.5562 8.73385 14.5661 8.74513 14.5778 8.74935C14.7207 8.7954 14.8636 8.8405 15.0069 8.88466C15.0638 8.90204 15.0976 8.93728 15.115 8.99366C15.1592 9.13742 15.2052 9.28118 15.2508 9.42448C15.2541 9.43481 15.2616 9.44421 15.2673 9.45408C15.271 9.45408 15.2748 9.45408 15.2781 9.45455V9.45361Z" fill="black"/>
<path d="M12.7387 7.27192C12.751 7.25312 12.7673 7.23596 12.7739 7.21634C12.8319 7.0357 12.8883 6.85423 12.9456 6.67359C12.9807 6.56161 13.0175 6.45044 13.0518 6.33928C13.0845 6.23302 13.1532 6.16599 13.2587 6.1333C13.5342 6.04747 13.8098 5.96164 14.0845 5.87582C14.1049 5.86928 14.127 5.86601 14.1442 5.85538C14.1605 5.84558 14.1818 5.82759 14.1818 5.8137C14.1818 5.7998 14.1589 5.77937 14.1425 5.77364C14.0444 5.74013 13.9447 5.70989 13.8458 5.67883C13.6512 5.61752 13.4574 5.55458 13.262 5.49573C13.1508 5.46222 13.0829 5.39356 13.0486 5.28321C12.9595 4.99549 12.8679 4.70859 12.7747 4.4225C12.7673 4.40043 12.7452 4.38326 12.7305 4.36365C12.7134 4.38408 12.6888 4.40125 12.6815 4.42413C12.5891 4.7094 12.4983 4.99467 12.4108 5.28076C12.3773 5.39111 12.3094 5.4614 12.1991 5.49573C11.9104 5.58483 11.6226 5.67556 11.3357 5.76792C11.3119 5.77528 11.294 5.7998 11.2727 5.81615C11.294 5.8325 11.3136 5.85538 11.3381 5.86274C11.6235 5.95429 11.9096 6.04584 12.1966 6.1333C12.3103 6.16763 12.3781 6.23874 12.4125 6.35154C12.5008 6.63926 12.5932 6.92616 12.6847 7.21307C12.6913 7.23432 12.7068 7.2523 12.7174 7.27192C12.7248 7.27192 12.7322 7.27192 12.7395 7.27274L12.7387 7.27192Z" fill="black"/>
<path d="M5.46299 8.36162C5.47175 8.34746 5.48457 8.33465 5.48929 8.31982C5.53313 8.1843 5.57562 8.0481 5.61811 7.91258C5.64441 7.82898 5.67206 7.74537 5.69769 7.66177C5.72197 7.58221 5.7739 7.53164 5.85281 7.50737C6.05919 7.44331 6.26557 7.37859 6.47195 7.31454C6.48679 7.30982 6.50365 7.30712 6.51714 7.2997C6.52928 7.29229 6.54547 7.2788 6.54547 7.26869C6.54547 7.25857 6.5286 7.24307 6.51646 7.23902C6.44295 7.21407 6.36809 7.19115 6.2939 7.16823C6.14822 7.12238 6.00254 7.07518 5.85619 7.03136C5.77256 7.00641 5.72197 6.95449 5.69567 6.87156C5.6289 6.65581 5.56011 6.44073 5.49064 6.22565C5.48524 6.20947 5.46906 6.19666 5.45759 6.18182C5.44478 6.19666 5.42589 6.21014 5.4205 6.22767C5.3517 6.4414 5.28291 6.65514 5.21749 6.86954C5.19186 6.95247 5.14128 7.00506 5.05832 7.03068C4.84183 7.09743 4.62601 7.16553 4.41086 7.23498C4.39332 7.24037 4.37916 7.25857 4.36365 7.27138C4.37983 7.28352 4.39467 7.30038 4.41221 7.30644C4.62668 7.37522 4.84048 7.44331 5.05562 7.50939C5.1406 7.53568 5.19186 7.58827 5.21749 7.67255C5.28359 7.88831 5.35305 8.10339 5.42117 8.31847C5.42589 8.33398 5.43736 8.34813 5.44613 8.36297C5.45152 8.36297 5.45692 8.36297 5.46231 8.36364L5.46299 8.36162Z" fill="black"/>
</svg>
