<?xml version="1.0" encoding="utf-8"?>
<!-- Generator: Adobe Illustrator 28.1.0, SVG Export Plug-In . SVG Version: 6.00 Build 0)  -->
<svg version="1.1" id="Layer_1" xmlns="http://www.w3.org/2000/svg" xmlns:xlink="http://www.w3.org/1999/xlink" x="0px" y="0px"
	 viewBox="0 0 20 20" style="enable-background:new 0 0 20 20;" xml:space="preserve">
<g>
	<path d="M10,3C7.8,3,6,4.8,6,7s1.8,4,4,4s4-1.8,4-4S12.2,3,10,3z M10.4,8.9v0.5H9.6V9L9,8.9l0.1-0.8L10,8.2c0,0,0,0,0.1,0
		c0.2,0,0.3-0.2,0.3-0.4c0-0.2-0.2-0.4-0.4-0.4c-0.7,0-1.2-0.6-1.2-1.2c0-0.3,0.1-0.5,0.3-0.7c0.1-0.2,0.3-0.3,0.6-0.4V4.6h0.8v0.5
		l0.6,0.1L11,6l-0.8-0.1c-0.1,0-0.3,0-0.4,0.1c0,0.1-0.1,0.2-0.1,0.3c0,0.2,0.2,0.4,0.4,0.4c0.7,0,1.2,0.6,1.2,1.2
		C11.2,8.3,10.9,8.8,10.4,8.9z"/>
	<path d="M16.7,10.5c-0.3-0.4-1-0.4-1.4,0l-1.9,1.9c-0.1,0.1-0.1,0.2-0.2,0.3c-0.3,0.7-0.9,1.1-1.6,1.1H8.9V13h2.8
		c0.5,0,0.9-0.4,0.9-0.9c0-0.4-0.2-0.6-0.4-0.8c-0.7,0.4-1.4,0.5-2.1,0.5c-1.3,0-2.5-0.5-3.3-1.4c-0.6,0-1.1,0.3-1.5,0.7L3,13.2
		L6.8,17c0.7-0.7,1.6-1.1,2.5-1.1h2.2c0.7,0,1.5-0.3,2-0.8l3.3-3.3C17.1,11.4,17.1,10.9,16.7,10.5z"/>
</g>
</svg>
