<svg width="24" height="24" viewBox="0 0 24 24" fill="none" xmlns="http://www.w3.org/2000/svg">
<path fill-rule="evenodd" clip-rule="evenodd" d="M20.959 11.9087L18.8675 9.51726L19.1589 6.35441L16.0647 5.65155L14.4447 2.90869L11.5304 4.16012L8.61609 2.90869L6.99609 5.64298L3.90181 6.33726L4.19324 9.50869L2.10181 11.9087L4.19324 14.3001L3.90181 17.4715L6.99609 18.1744L8.61609 20.9087L11.5304 19.6487L14.4447 20.9001L16.0647 18.1658L19.1589 17.463L18.8675 14.3001L20.959 11.9087ZM7.24466 13.2887L9.28466 15.3458C9.62752 15.6801 10.1675 15.6801 10.5189 15.3458L15.5932 10.2544C15.9275 9.92012 15.9275 9.38012 15.5932 9.04583L15.5332 8.98583C15.1989 8.65155 14.6504 8.65155 14.3161 8.98583L9.90181 13.4087L8.52181 12.0201C8.18752 11.6858 7.63895 11.6858 7.30466 12.0201L7.24466 12.0801C7.1652 12.1594 7.10216 12.2536 7.05915 12.3573C7.01614 12.461 6.994 12.5721 6.994 12.6844C6.994 12.7967 7.01614 12.9078 7.05915 13.0115C7.10216 13.1152 7.1652 13.2094 7.24466 13.2887Z" fill="black"/>
</svg>
