<svg width="24" height="24" viewBox="0 0 24 24" fill="none" xmlns="http://www.w3.org/2000/svg">
<path fill-rule="evenodd" clip-rule="evenodd" d="M7.9518 4.25063C7.82404 4.25063 7.72048 4.35419 7.72048 4.48195V19.5181C7.72048 19.6459 7.82404 19.7494 7.9518 19.7494H16.0482C16.1759 19.7494 16.2795 19.6459 16.2795 19.5181V4.48195C16.2795 4.35419 16.1759 4.25063 16.0482 4.25063H7.9518ZM5.86987 4.48195C5.86987 3.33214 6.80198 2.40002 7.9518 2.40002H16.0482C17.198 2.40002 18.1301 3.33214 18.1301 4.48195V19.5181C18.1301 20.6679 17.198 21.6 16.0482 21.6H7.9518C6.80198 21.6 5.86987 20.6679 5.86987 19.5181V4.48195Z" fill="black"/>
<path fill-rule="evenodd" clip-rule="evenodd" d="M10.4963 18.3613C10.4963 17.8503 10.9105 17.436 11.4216 17.436H12.5782C13.0892 17.436 13.5035 17.8503 13.5035 18.3613C13.5035 18.8724 13.0892 19.2866 12.5782 19.2866H11.4216C10.9105 19.2866 10.4963 18.8724 10.4963 18.3613Z" fill="black"/>
<path fill-rule="evenodd" clip-rule="evenodd" d="M9.68665 2.40002C10.1977 2.40002 10.612 2.8143 10.612 3.32533V4.48195C10.612 4.5433 10.6363 4.60214 10.6797 4.64552C10.7231 4.68891 10.7819 4.71328 10.8433 4.71328H13.1565C13.2179 4.71328 13.2767 4.68891 13.3201 4.64552C13.3635 4.60214 13.3879 4.5433 13.3879 4.48195V3.32533C13.3879 2.8143 13.8021 2.40002 14.3132 2.40002C14.8242 2.40002 15.2385 2.8143 15.2385 3.32533V4.48195C15.2385 5.03411 15.0191 5.56366 14.6287 5.9541C14.2382 6.34453 13.7087 6.56388 13.1565 6.56388H10.8433C10.2911 6.56388 9.76157 6.34453 9.37114 5.9541C8.9807 5.56366 8.76135 5.03411 8.76135 4.48195V3.32533C8.76135 2.8143 9.17562 2.40002 9.68665 2.40002Z" fill="black"/>
</svg>
