<svg width="24" height="24" viewBox="0 0 24 24" fill="none" xmlns="http://www.w3.org/2000/svg">
<path d="M11.9583 19.7778H13.0417V17.7222L16.8333 13.8333V8.66667H8.16667V13.8333L11.9583 17.7222V19.7778ZM9.79167 20.8889V18.6667L6.62292 15.4167C6.42431 15.213 6.27083 14.9769 6.1625 14.7083C6.05417 14.4398 6 14.1574 6 13.8611V8.66667C6 8.05556 6.21215 7.53241 6.63646 7.09722C7.06076 6.66204 7.57083 6.44444 8.16667 6.44444H9.25L8.16667 7.55556V3.11111C8.16667 2.7963 8.27049 2.53241 8.47813 2.31944C8.68576 2.10648 8.94306 2 9.25 2C9.55694 2 9.81424 2.10648 10.0219 2.31944C10.2295 2.53241 10.3333 2.7963 10.3333 3.11111V6.44444H14.6667V3.11111C14.6667 2.7963 14.7705 2.53241 14.9781 2.31944C15.1858 2.10648 15.4431 2 15.75 2C16.0569 2 16.3142 2.10648 16.5219 2.31944C16.7295 2.53241 16.8333 2.7963 16.8333 3.11111V7.55556L15.75 6.44444H16.8333C17.4292 6.44444 17.9392 6.66204 18.3635 7.09722C18.7878 7.53241 19 8.05556 19 8.66667V13.8611C19 14.1574 18.9458 14.4398 18.8375 14.7083C18.7292 14.9769 18.5757 15.213 18.3771 15.4167L15.2083 18.6667V20.8889C15.2083 21.2037 15.1045 21.4676 14.8969 21.6806C14.6892 21.8935 14.4319 22 14.125 22H10.875C10.5681 22 10.3108 21.8935 10.1031 21.6806C9.89549 21.4676 9.79167 21.2037 9.79167 20.8889Z" fill="black"/>
</svg>
