<svg width="20" height="20" viewBox="0 0 20 20" fill="none" xmlns="http://www.w3.org/2000/svg">
<g clip-path="url(#clip0_182_4316)">
<path d="M17.9986 10.0312V9.98787C17.9956 9.15441 17.8642 8.31348 17.6192 7.5562C17.3608 6.76606 17.0038 6.0506 16.5602 5.42775C16.2929 5.05135 16.0285 4.72872 15.7522 4.44044C15.4908 4.1686 15.1831 3.89974 14.7843 3.59653C14.1868 3.13798 13.4833 2.75859 12.6976 2.46882C11.9523 2.19549 11.1383 2.03865 10.2809 2.00579C10.1823 2.00131 10.0837 1.99982 9.98516 1.99982C9.25476 1.99982 8.52736 2.10139 7.82385 2.30004C7.04864 2.51961 6.29584 2.86165 5.64461 3.29033C4.95603 3.74291 4.36455 4.26867 3.88359 4.8512C3.57739 5.22461 3.33094 5.56666 3.13229 5.89825C2.9396 6.22088 2.75887 6.58832 2.56619 7.05732C2.27344 7.76979 2.09121 8.5689 2.0225 9.43223C1.95977 10.2343 2.03146 11.0947 2.23311 11.9192C2.41832 12.6839 2.73647 13.4516 3.1517 14.1357C3.57291 14.8273 4.07926 15.4382 4.65581 15.9505C5.28314 16.5062 5.94931 16.9453 6.63639 17.256C7.09196 17.4606 7.47732 17.604 7.85372 17.7071C8.23311 17.8131 8.64834 17.8908 9.15768 17.949C9.42952 17.9819 9.71182 17.9983 9.99562 17.9983C10.5348 17.9983 11.092 17.9401 11.6566 17.8251C12.4198 17.6712 13.1756 17.3889 13.9015 16.9841C14.5901 16.6003 15.2368 16.0999 15.7746 15.5353C16.3287 14.9543 16.8007 14.2881 17.1398 13.61C17.5206 12.8452 17.7731 12.0715 17.8881 11.3098C17.9613 10.8273 17.9971 10.4225 18.0001 10.0372V10.0312H17.9986ZM11.1188 12.3419C11.0247 12.436 10.8754 12.4972 10.7424 12.4972H6.67672L7.66253 13.5323C7.7641 13.6384 7.81638 13.7683 7.82235 13.9266C7.82982 14.0864 7.72228 14.2283 7.65805 14.3C7.58187 14.3822 7.42355 14.4449 7.29061 14.4449C7.15768 14.4449 7.00234 14.3822 6.91869 14.2956L5.06358 12.3463L5.02773 12.3135C4.92766 12.2044 4.90674 12.0431 4.90226 11.952C4.89629 11.8445 4.95753 11.6966 5.04565 11.6025L5.06656 11.5816L6.92019 9.63387C7.02773 9.52035 7.19054 9.48749 7.30854 9.48003H7.31899C7.47284 9.48003 7.60876 9.58309 7.67597 9.64433C7.75813 9.7205 7.82086 9.87883 7.82086 10.0118C7.82086 10.1447 7.76261 10.2866 7.66104 10.3926L6.67075 11.4337H10.7424C10.8799 11.4337 11.0098 11.489 11.1278 11.598C11.2443 11.7056 11.2697 11.8833 11.2742 11.9789C11.2802 12.0924 11.2129 12.2478 11.1188 12.3419ZM14.959 8.37771C14.9411 8.39862 14.9277 8.41953 14.9172 8.43895L13.08 10.3687C12.971 10.4823 12.8111 10.5136 12.6946 10.5181H12.6797C12.5259 10.5181 12.3899 10.4151 12.3227 10.3538C12.2406 10.2776 12.1778 10.1193 12.1778 9.98637C12.1778 9.85344 12.2361 9.71154 12.3377 9.60549L13.3265 8.56591H9.25476C9.11735 8.56591 8.9874 8.51065 8.8694 8.40161C8.7529 8.29407 8.72751 8.11632 8.72302 8.02073C8.71705 7.90721 8.78426 7.75187 8.87836 7.65777C8.97246 7.56367 9.12183 7.50243 9.25476 7.50243H13.325L12.3377 6.46584C12.2376 6.35979 12.1838 6.23133 12.1778 6.0745C12.1704 5.91468 12.2779 5.77278 12.3421 5.70258C12.4183 5.62043 12.5766 5.5577 12.7096 5.5577C12.8425 5.5577 12.9979 5.62043 13.0815 5.70706L14.9366 7.65777L14.9665 7.68466C15.0696 7.79519 15.092 7.95949 15.0964 8.0506C15.1009 8.1447 15.0457 8.27614 14.959 8.37771Z" fill="black"/>
</g>
<defs>
<clipPath id="clip0_182_4316">
<rect width="16" height="15.9985" fill="white" transform="translate(2 1.99982)"/>
</clipPath>
</defs>
</svg>
