<?xml version="1.0" encoding="UTF-8"?>
<svg id="Layer_1" data-name="Layer 1" xmlns="http://www.w3.org/2000/svg" xmlns:xlink="http://www.w3.org/1999/xlink" version="1.1" viewBox="0 0 20 20">
  <defs>
    <style>
      .cls-1 {
        clip-path: url(#clippath);
      }

      .cls-2 {
        fill: none;
      }

      .cls-2, .cls-3 {
        stroke-width: 0px;
      }

      .cls-3 {
        fill: #000;
      }
    </style>
    <clipPath id="clippath">
      <rect class="cls-2" x="1" y="1" width="18" height="18"/>
    </clipPath>
  </defs>
  <path class="cls-3" d="M10,3c3.9,0,7,3.1,7,7s-3.1,7-7,7-7-3.1-7-7,3.1-7,7-7M10,1.5C5.3,1.5,1.5,5.3,1.5,10s3.8,8.5,8.5,8.5,8.5-3.8,8.5-8.5S14.7,1.5,10,1.5h0Z"/>
  <g class="cls-1">
    <g>
      <path class="cls-3" d="M15.2,7.7h0s-2-2.1-2-2.1h0c-.1-.1-.3-.2-.5-.2s-.2,0-.3,0c0,0-.2,0-.2.2,0,0-.2.3-.2.5,0,.2,0,.4.2.5l.7.7h-3.6c-.2,0-.4,0-.5.2,0,0-.1.1-.2.2,0,0,0,.2,0,.3,0,.1,0,.4.2.5.2.1.3.2.5.2h3.6l-.7.7c-.1.1-.2.3-.2.5s0,.2,0,.3c0,0,0,.2.2.2,0,0,.3.2.5.2.2,0,.4,0,.5-.2l1.8-1.9h0s0,0,0,0c0-.1.2-.3.2-.5,0-.1,0-.3-.1-.4Z"/>
      <path class="cls-3" d="M4.8,11.4h0s2-2.1,2-2.1h0c.1-.1.3-.2.5-.2s.2,0,.3,0c0,0,.2,0,.2.2,0,0,.2.3.2.5,0,.2,0,.4-.2.5l-.7.7h3.6c.2,0,.4,0,.5.2,0,0,.1.1.2.2,0,0,0,.2,0,.3,0,.1,0,.4-.2.5-.2.1-.3.2-.5.2h-3.6s.7.7.7.7c.1.1.2.3.2.5s0,.2,0,.3c0,0,0,.2-.2.2,0,0-.3.2-.5.2-.2,0-.4,0-.5-.2l-1.8-1.9h0s0,0,0,0c0-.1-.2-.3-.2-.5,0-.1,0-.3.1-.4Z"/>
    </g>
  </g>
</svg>