<?xml version="1.0" encoding="UTF-8"?>
<svg id="Layer_1" data-name="Layer 1" xmlns="http://www.w3.org/2000/svg" version="1.1" viewBox="0 0 20 20">
  <defs>
    <style>
      .cls-1 {
        fill: #000;
        stroke-width: 0px;
      }
    </style>
  </defs>
  <path class="cls-1" d="M8.7,13.3h-2.9c-.4,0-.7-.3-.7-.7v-1.9h-1.8c-.4,0-.7-.3-.7-.7s.3-.7.7-.7h1.8c-.4-.2-.7-.5-.9-.8-.3-.5-.3-1.2,0-1.7l2.2-3.9c.3-.6.9-.9,1.5-.9s1.2.3,1.5.9l2.2,3.9c0,.1.1.3.2.5,0,.4-.1.7-.5.8-.4,0-.7-.1-.8-.5,0,0,0,0,0,0l-2.2-3.9c-.1-.2-.3-.2-.4-.2s-.3,0-.4.2l-2.2,3.9c0,.1,0,.3,0,.3,0,0,.1.2.4.2.4,0,.7.3.7.7v3.2h2.2c.4,0,.7.3.7.7s-.3.7-.7.7ZM16.7,10.7h-2.4c-.4,0-.7-.3-.7-.7s.3-.7.7-.7h2.4c.4,0,.7.3.7.7s-.3.7-.7.7Z"/>
  <path class="cls-1" d="M12,18h0c-.7,0-1.2-.3-1.5-.9l-2.2-3.9c-.3-.5-.3-1.2,0-1.7.2-.3.5-.6.9-.7v-3.3c0-.4.3-.7.7-.7h4.3c.4,0,.7.3.7.7v3.3c.4.1.7.4.9.7.3.5.3,1.2,0,1.7l-.4.8c-.2.3-.6.4-.9.3-.3-.2-.4-.6-.3-.9l.4-.8c0-.1,0-.3,0-.3,0,0-.1-.2-.4-.2-.4,0-.7-.3-.7-.7v-3.2h-3v3.2c0,.4-.3.7-.7.7s-.3.1-.4.2c0,0,0,.2,0,.3l2.2,3.9c.1.2.3.2.4.2h0c0,0,.3,0,.4-.2l.2-.4c.2-.3.6-.4.9-.3.3.2.4.6.3.9l-.2.4c-.3.6-.9.9-1.5.9Z"/>
</svg>