<svg width="24" height="24" viewBox="0 0 24 24" fill="none" xmlns="http://www.w3.org/2000/svg">
<mask id="mask0_6997_752" style="mask-type:alpha" maskUnits="userSpaceOnUse" x="0" y="0" width="24" height="24">
<rect width="24" height="24" fill="#D9D9D9"/>
</mask>
<g mask="url(#mask0_6997_752)">
<path d="M4.66675 21C4.20842 21 3.816 20.8368 3.4895 20.5105C3.16317 20.184 3 19.7916 3 19.3333V4.66675C3 4.20842 3.16317 3.816 3.4895 3.4895C3.816 3.16317 4.20842 3 4.66675 3H9.48325C9.61108 2.41117 9.90975 1.93058 10.3793 1.55825C10.8486 1.18608 11.3888 1 12 1C12.6112 1 13.1514 1.18608 13.6208 1.55825C14.0903 1.93058 14.3889 2.41117 14.5168 3H19.3333C19.7916 3 20.184 3.16317 20.5105 3.4895C20.8368 3.816 21 4.20842 21 4.66675V19.3333C21 19.7916 20.8368 20.184 20.5105 20.5105C20.184 20.8368 19.7916 21 19.3333 21H4.66675ZM4.66675 19.3333H19.3333V4.66675H4.66675V19.3333ZM7.83325 17H13.05C13.2862 17 13.4841 16.9198 13.6438 16.7595C13.8034 16.5993 13.8833 16.4008 13.8833 16.1638C13.8833 15.9268 13.8034 15.7291 13.6438 15.5708C13.4841 15.4124 13.2862 15.3333 13.05 15.3333H7.83325C7.59725 15.3333 7.39933 15.4134 7.2395 15.5738C7.07983 15.7341 7 15.9327 7 16.1695C7 16.4065 7.07983 16.6042 7.2395 16.7625C7.39933 16.9208 7.59725 17 7.83325 17ZM7.83325 12.8333H16.1668C16.4028 12.8333 16.6007 12.7532 16.7605 12.593C16.9202 12.4327 17 12.234 17 11.997C17 11.7602 16.9202 11.5626 16.7605 11.4043C16.6007 11.2459 16.4028 11.1668 16.1668 11.1668H7.83325C7.59725 11.1668 7.39933 11.2468 7.2395 11.407C7.07983 11.5673 7 11.766 7 12.003C7 12.2398 7.07983 12.4374 7.2395 12.5958C7.39933 12.7541 7.59725 12.8333 7.83325 12.8333ZM7.83325 8.66675H16.1668C16.4028 8.66675 16.6007 8.58658 16.7605 8.42625C16.9202 8.26592 17 8.06733 17 7.8305C17 7.5935 16.9202 7.39583 16.7605 7.2375C16.6007 7.07917 16.4028 7 16.1668 7H7.83325C7.59725 7 7.39933 7.08017 7.2395 7.2405C7.07983 7.40067 7 7.59925 7 7.83625C7 8.07325 7.07983 8.27092 7.2395 8.42925C7.39933 8.58758 7.59725 8.66675 7.83325 8.66675ZM12 4.13325C12.2278 4.13325 12.4237 4.05133 12.5875 3.8875C12.7513 3.72367 12.8333 3.52783 12.8333 3.3C12.8333 3.07217 12.7513 2.87633 12.5875 2.7125C12.4237 2.54867 12.2278 2.46675 12 2.46675C11.7722 2.46675 11.5763 2.54867 11.4125 2.7125C11.2487 2.87633 11.1668 3.07217 11.1668 3.3C11.1668 3.52783 11.2487 3.72367 11.4125 3.8875C11.5763 4.05133 11.7722 4.13325 12 4.13325Z" fill="#002851"/>
</g>
</svg>
