<!-- Generated by IcoMoon.io -->
<svg version="1.1" xmlns="http://www.w3.org/2000/svg" width="32" height="32" viewBox="0 0 32 32">
<title>flag</title>
<path d="M27.776 9.376h-8.192v-3.616c0-0.566-0.458-1.024-1.024-1.024h-13.056v-1.28c0-0.141-0.115-0.256-0.256-0.256h-1.792c-0.141 0-0.256 0.115-0.256 0.256v25.088c0 0.141 0.115 0.256 0.256 0.256h1.792c0.141 0 0.256-0.115 0.256-0.256v-8.448h7.936v3.616c0 0.566 0.458 1.024 1.024 1.024h13.312c0.566 0 1.024-0.458 1.024-1.024v-13.312c0-0.566-0.458-1.024-1.024-1.024zM5.504 17.792v-10.752h11.776v10.752h-11.776zM26.496 22.432h-10.752v-2.336h3.584c0.141 0 0.256-0.115 0.256-0.256v-8.16h6.912v10.752z"></path>
</svg>
