<!-- Generated by IcoMoon.io -->
<svg version="1.1" xmlns="http://www.w3.org/2000/svg" width="32" height="32" viewBox="0 0 32 32">
<title>format-painter</title>
<path d="M25.422 6.044h-1.659v-2.133c0-0.394-0.317-0.711-0.711-0.711h-17.541c-0.394 0-0.711 0.317-0.711 0.711v8.059c0 0.394 0.317 0.711 0.711 0.711h17.541c0.394 0 0.711-0.317 0.711-0.711v-4.030h0.948v5.926h-10.4c-0.655 0-1.185 0.53-1.185 1.185v4.030h-1.304c-0.13 0-0.237 0.107-0.237 0.237v6.756c0 0.018 0.003 0.039 0.006 0.056-0.025 0.341 0.021 0.684 0.134 1.007s0.292 0.619 0.525 0.869 0.515 0.45 0.829 0.587c0.314 0.137 0.652 0.207 0.994 0.207 1.375 0 2.489-1.114 2.489-2.489 0-0.062-0.003-0.121-0.006-0.181 0.003-0.018 0.006-0.036 0.006-0.056v-6.756c0-0.13-0.107-0.237-0.237-0.237h-1.304v-3.318h10.4c0.655 0 1.185-0.53 1.185-1.185v-7.348c0-0.655-0.53-1.185-1.185-1.185zM21.867 10.785h-15.17v-5.689h15.17v5.689zM14.667 26.311c0 0.326-0.267 0.593-0.593 0.593s-0.593-0.267-0.593-0.593v-5.333h1.185v5.333z"></path>
</svg>
