<!-- Generated by IcoMoon.io -->
<svg version="1.1" xmlns="http://www.w3.org/2000/svg" width="32" height="32" viewBox="0 0 32 32">
<title>funnel-plot-outlined</title>
<path d="M27.78 4.8h-23.561c-0.784 0-1.274 0.854-0.88 1.536l7.444 12.974v7.38c0 0.566 0.454 1.024 1.018 1.024h8.398c0.563 0 1.018-0.458 1.018-1.024v-7.38l7.447-12.974c0.39-0.682-0.099-1.536-0.883-1.536zM18.924 25.41h-5.85v-4.736h5.853v4.736h-0.003zM19.232 18.158l-0.269 0.467h-5.93l-0.269-0.467-2.448-4.269h11.367l-2.452 4.269zM22.858 11.841h-13.717l-2.72-4.736h19.157l-2.72 4.736z"></path>
</svg>
