<!-- Generated by IcoMoon.io -->
<svg version="1.1" xmlns="http://www.w3.org/2000/svg" width="32" height="32" viewBox="0 0 32 32">
<title>google</title>
<path d="M28.043 13.67h-12.051v4.953h6.884c-0.297 1.601-1.197 2.955-2.555 3.863-1.147 0.767-2.612 1.221-4.333 1.221-3.332 0-6.151-2.252-7.158-5.277-0.254-0.767-0.4-1.588-0.4-2.432s0.147-1.664 0.4-2.432c1.011-3.022 3.829-5.273 7.161-5.273 1.878 0 3.562 0.647 4.89 1.915l3.669-3.672c-2.218-2.068-5.11-3.336-8.559-3.336-5 0-9.326 2.869-11.431 7.051-0.867 1.728-1.361 3.682-1.361 5.75s0.494 4.019 1.361 5.747c2.105 4.183 6.431 7.051 11.431 7.051 3.456 0 6.351-1.147 8.465-3.102 2.418-2.228 3.816-5.51 3.816-9.409 0-0.907-0.080-1.778-0.23-2.618z"></path>
</svg>
