<?xml version="1.0" encoding="UTF-8"?>
<svg id="Layer_1" data-name="Layer 1" xmlns="http://www.w3.org/2000/svg" version="1.1" viewBox="0 0 32 32">
  <defs>
    <style>
      .cls-1 {
        fill: #000;
        stroke-width: 0px;
      }
    </style>
  </defs>
  <path class="cls-1" d="M10.2,27.2v.9c0,.5-.4.9-.9.9h-2.7c-.5,0-.9-.4-.9-.9v-.9h4.5ZM21.8,27.2v.9c0,.5.4.9.9.9h2.7c.5,0,.9-.4.9-.9v-.9h-4.5ZM28.1,23.6H3.9c-.5,0-.9.4-.9.9v.9c0,.5.4.9.9.9h24.2c.5,0,.9-.4.9-.9v-.9c0-.5-.4-.9-.9-.9ZM9.5,6.5c0,.3.1.5.3.7l3.3,2.6c.1.1.3.2.5.2.2,0,.3,0,.5,0,.2,0,.3-.2.4-.3,0-.1.1-.3.1-.5v-.9h6.3c.5,0,.9-.4.9-.9v-1.8c0-.5-.4-.9-.9-.9h-6.3v-.9c0-.3-.2-.7-.5-.8-.2,0-.3-.1-.5,0-.2,0-.3,0-.5.2l-3.3,2.6c-.2.2-.3.4-.3.7Z"/>
  <g>
    <path class="cls-1" d="M25.1,20.4c0,1.1-.9,2-2,2s-2-.9-2-2,.9-2,2-2,2,.9,2,2Z"/>
    <path class="cls-1" d="M9.1,20.4c0,1.1-.9,2-2,2s-2-.9-2-2,.9-2,2-2,2,.9,2,2Z"/>
    <path class="cls-1" d="M28.6,17.9c0,0-.2-.2-.2-.2,0-.2,0-.8,0-.9,0,0,0,0,0,0,.1-.2.3-.4.2-.7,0,0,0-.1-.1-.2,0,0-.1,0-.2,0,0,0-.3,0-.5,0-.6,0-1.7-.1-2-.2h-.5c-.1-.2-2.8-1.1-4.2-1.4-1.3-.2-3.9-.5-5.7-.2-1.6.3-2.7.9-3.5,1.4h-.2c-.3.3-.5.4-.6.5-.2.1-.3.2-.6.2,0,0-.3,0-.6,0-1.5,0-5,.3-6.4,1.4,0,0-.3.2-.5.7,0,.2,0,.5,0,.8h0c0,.1,0,.2,0,.2,0,2.1.3,2.2.5,2.3.3,0,1.1,0,1.5,0-.2-.4-.3-.8-.3-1.2,0-1.4,1.1-2.5,2.5-2.5s2.5,1.1,2.5,2.5-.1.8-.3,1.2h11.5c-.2-.3-.3-.8-.3-1.2,0-1.4,1.1-2.5,2.5-2.5s2.5,1.1,2.5,2.5,0,.4,0,.6l2.3-.3h0c.5,0,1-.4,1.1-1.1,0-.1,0-.2,0-.3h0c0-.7,0-1-.3-1.4h0ZM23.2,16.4c0,.1-.2.2-.3.3-.1,0-.3.1-.4.1l-4.2.2h0l-6.3.3s0,0,0,0c1.7-1.2,3-1.7,3.8-1.8.6-.1,1.3-.2,1.9-.2s.8,0,1.2,0c1.1,0,1.9.2,2.2.3.5,0,1.4.4,2.1.7,0,0,0,0,0,0,0,0,0,0,0,0h0c0,0,0,0,0,.1h0Z"/>
  </g>
</svg>