<svg width="20" height="20" viewBox="0 0 20 20" fill="none" xmlns="http://www.w3.org/2000/svg">
<path d="M10.3125 8.75H12.5V7.5H11.25V6.875H10V7.53125C9.62026 7.60836 9.28273 7.82381 9.05291 8.13579C8.82309 8.44777 8.7174 8.83401 8.75634 9.21953C8.79528 9.60505 8.97608 9.96236 9.26365 10.2221C9.55121 10.4818 9.92501 10.6254 10.3125 10.625H10.9375C11.0204 10.625 11.0999 10.6579 11.1585 10.7165C11.2171 10.7751 11.25 10.8546 11.25 10.9375C11.25 11.0204 11.2171 11.0999 11.1585 11.1585C11.0999 11.2171 11.0204 11.25 10.9375 11.25H8.75V12.5H10V13.125H11.25V12.4688C11.6297 12.3916 11.9673 12.1762 12.1971 11.8642C12.4269 11.5522 12.5326 11.166 12.4937 10.7805C12.4547 10.3949 12.2739 10.0376 11.9864 9.77793C11.6988 9.51821 11.325 9.37461 10.9375 9.375H10.3125C10.2296 9.375 10.1501 9.34208 10.0915 9.28347C10.0329 9.22487 10 9.14538 10 9.0625C10 8.97962 10.0329 8.90013 10.0915 8.84153C10.1501 8.78292 10.2296 8.75 10.3125 8.75Z" fill="black"/>
<path d="M18.125 8.125H16.8625C16.8445 7.63121 16.7254 7.14637 16.5125 6.70045C16.2997 6.25453 15.9976 5.85702 15.625 5.5325V3.125C15.625 3.00893 15.5927 2.89515 15.5317 2.79642C15.4706 2.69768 15.3833 2.61789 15.2795 2.56598C15.1757 2.51408 15.0595 2.4921 14.9439 2.50253C14.8283 2.51295 14.7179 2.55536 14.625 2.625L12.2919 4.375H9.375C5.93125 4.375 3.46063 6.40063 3.1575 9.375H3.125C2.95924 9.375 2.80027 9.30915 2.68306 9.19194C2.56585 9.07473 2.5 8.91576 2.5 8.75V7.5H1.25V8.75C1.2505 9.24713 1.4482 9.72375 1.79972 10.0753C2.15125 10.4268 2.62787 10.6245 3.125 10.625H3.16875C3.25927 11.4446 3.52557 12.235 3.94947 12.9422C4.37336 13.6495 4.94488 14.2569 5.625 14.7231V16.875C5.625 17.0408 5.69085 17.1997 5.80806 17.3169C5.92527 17.4342 6.08424 17.5 6.25 17.5H8.75C8.91576 17.5 9.07473 17.4342 9.19194 17.3169C9.30915 17.1997 9.375 17.0408 9.375 16.875V15.625H11.25V16.875C11.25 17.0408 11.3158 17.1997 11.4331 17.3169C11.5503 17.4342 11.7092 17.5 11.875 17.5H14.375C14.5408 17.5 14.6997 17.4342 14.8169 17.3169C14.9342 17.1997 15 17.0408 15 16.875V14.7731C15.4513 14.5588 15.8458 14.2414 16.1519 13.8466C16.4579 13.4517 16.6669 12.9905 16.7619 12.5H18.125C18.2908 12.5 18.4497 12.4342 18.5669 12.3169C18.6842 12.1997 18.75 12.0408 18.75 11.875V8.75C18.75 8.58424 18.6842 8.42527 18.5669 8.30806C18.4497 8.19085 18.2908 8.125 18.125 8.125ZM17.5 11.25H15.7025C15.5119 12.9706 15.1881 13.4281 13.75 13.9469V16.25H12.5V14.375H8.125V16.25H6.875V13.9862C6.1223 13.6284 5.48728 13.0633 5.04446 12.3572C4.60164 11.6511 4.36941 10.8334 4.375 10C4.375 6.97813 6.88625 5.625 9.375 5.625H12.7087L14.375 4.375V6.11C15.8863 7.2725 15.5706 8.10125 15.6362 9.375H17.5V11.25Z" fill="black"/>
</svg>
