<?xml version="1.0" encoding="UTF-8"?>
<svg id="Layer_1" data-name="Layer 1" xmlns="http://www.w3.org/2000/svg" version="1.1" viewBox="0 0 20 20">
  <defs>
    <style>
      .cls-1, .cls-2 {
        fill: #000;
        stroke-width: 0px;
      }

      .cls-2 {
        fill-rule: evenodd;
      }
    </style>
  </defs>
  <path class="cls-2" d="M8.7,13.1c1.1,2.3,3.4,3.9,5.4,4,0,0,.2,0,.2.2s0,.2-.2.2c-2.2,0-4.6-1.8-5.7-4.2-1.2-2.5-1-5.7,1.9-8.9-2.8,3.1-2.7,6.4-1.6,8.8Z"/>
  <path class="cls-1" d="M10.8,2.9c-.3.4-.3,1.3-.3,1.3,0,0,.9,0,1.3-.3.5-.4.6-1.5.6-1.5,0,0-1.1,0-1.5.6Z"/>
  <path class="cls-1" d="M8.6,3.5c0,.5.7,1.1.7,1.1,0,0,.6-.6.7-1.1,0-.7-.7-1.5-.7-1.5,0,0-.7.9-.7,1.5Z"/>
  <path class="cls-1" d="M7,6.5c.2.5.9.9.9.9,0,0,.4-.7.3-1.3-.1-.7-1-1.3-1-1.3,0,0-.5,1-.2,1.6Z"/>
  <path class="cls-1" d="M6.4,9.3c.4.3,1.3.3,1.3.3,0,0,0-.9-.3-1.3-.4-.5-1.5-.6-1.5-.6,0,0,0,1.1.6,1.5Z"/>
  <path class="cls-1" d="M6.4,12c.4.3,1.3.3,1.3.3,0,0,0-.9-.3-1.3-.4-.5-1.5-.6-1.5-.6,0,0,0,1.1.6,1.5Z"/>
  <path class="cls-1" d="M8.1,15.7c.5,0,1.3-.3,1.3-.3,0,0-.4-.7-.9-.9-.6-.2-1.6.2-1.6.2,0,0,.6.9,1.3,1Z"/>
  <path class="cls-1" d="M10.1,18c.5,0,1.1-.7,1.1-.7,0,0-.6-.6-1.1-.7-.7,0-1.5.7-1.5.7,0,0,.9.7,1.5.7Z"/>
  <path class="cls-1" d="M11,4.4c-.5.2-.9.9-.9.9,0,0,.7.4,1.3.3.7-.1,1.3-1,1.3-1,0,0-1-.5-1.6-.2Z"/>
  <path class="cls-1" d="M9.6,6.1c-.4.3-.7,1.1-.7,1.1,0,0,.8.2,1.3,0,.6-.3,1-1.3,1-1.3,0,0-1.1-.2-1.6.2Z"/>
  <path class="cls-1" d="M8.7,8.4c-.3.4-.3,1.3-.3,1.3,0,0,.9,0,1.3-.3.5-.4.6-1.5.6-1.5,0,0-1.1,0-1.5.6Z"/>
  <path class="cls-1" d="M8.7,11.2c-.2.5,0,1.3,0,1.3,0,0,.8-.2,1.1-.7.4-.5.2-1.7.2-1.7,0,0-1.1.4-1.3,1Z"/>
  <path class="cls-1" d="M9.6,13.5c0,.5.3,1.3.3,1.3,0,0,.7-.4.9-.9.2-.6-.2-1.6-.2-1.6,0,0-.9.6-1,1.3Z"/>
  <path class="cls-1" d="M11.2,15.2c.2.5.9.9.9.9,0,0,.4-.7.3-1.3-.1-.7-1-1.3-1-1.3,0,0-.5,1-.2,1.6Z"/>
</svg>