<?xml version="1.0" encoding="utf-8"?>
<!-- Generator: Adobe Illustrator 28.1.0, SVG Export Plug-In . SVG Version: 6.00 Build 0)  -->
<svg version="1.1" id="Layer_1" xmlns="http://www.w3.org/2000/svg" xmlns:xlink="http://www.w3.org/1999/xlink" x="0px" y="0px"
	 viewBox="0 0 32 32" style="enable-background:new 0 0 32 32;" xml:space="preserve">
<style type="text/css">
	.st0{fill:#D9D9D9;filter:url(#Adobe_OpacityMaskFilter);}
	.st1{mask:url(#mask0_14130_58226_00000145018926874354259150000001837278730167873426_);}
</style>
<defs>
	<filter id="Adobe_OpacityMaskFilter" filterUnits="userSpaceOnUse" x="3.7" y="3" width="24.6" height="26">
		<feColorMatrix  type="matrix" values="1 0 0 0 0  0 1 0 0 0  0 0 1 0 0  0 0 0 1 0"/>
	</filter>
</defs>
<mask maskUnits="userSpaceOnUse" x="3.7" y="3" width="24.6" height="26" id="mask0_14130_58226_00000145018926874354259150000001837278730167873426_">
	<rect x="-1" y="-1.7" class="st0" width="32.4" height="32.4"/>
</mask>
<g class="st1">
	<path d="M6.1,26c-0.7,0-1.3-0.2-1.7-0.7s-0.7-1.1-0.7-1.7V5.4c0-0.7,0.2-1.3,0.7-1.7S5.5,3,6.1,3h18.1c0.7,0,1.3,0.2,1.7,0.7
		s0.7,1.1,0.7,1.7v10.3c0,0.3-0.1,0.5-0.3,0.7c-0.2,0.2-0.4,0.3-0.7,0.3s-0.5-0.1-0.7-0.3c-0.2-0.2-0.3-0.4-0.3-0.7V5.4
		c0-0.1,0-0.2-0.1-0.3C24.4,5.1,24.3,5,24.2,5H6.1C6,5,5.9,5.1,5.9,5.2C5.8,5.2,5.7,5.3,5.7,5.4v18.1c0,0.1,0,0.2,0.1,0.3
		c0.1,0.1,0.2,0.1,0.3,0.1h8.2c0.3,0,0.5,0.1,0.7,0.3c0.2,0.2,0.3,0.4,0.3,0.7c0,0.3-0.1,0.5-0.3,0.7c-0.2,0.2-0.4,0.3-0.7,0.3H6.1z
		 M9.9,20.9c0.3,0,0.6-0.1,0.9-0.3c0.2-0.2,0.3-0.5,0.3-0.9c0-0.3-0.1-0.6-0.3-0.9c-0.2-0.2-0.5-0.3-0.9-0.3S9.2,18.6,9,18.9
		c-0.2,0.2-0.3,0.5-0.3,0.9c0,0.3,0.1,0.6,0.3,0.9C9.2,20.8,9.5,20.9,9.9,20.9z M9.9,15.7c0.3,0,0.6-0.1,0.9-0.3
		c0.2-0.2,0.3-0.5,0.3-0.9c0-0.3-0.1-0.6-0.3-0.9c-0.2-0.2-0.5-0.3-0.9-0.3S9.2,13.4,9,13.6c-0.2,0.2-0.3,0.5-0.3,0.9
		c0,0.3,0.1,0.6,0.3,0.9C9.2,15.6,9.5,15.7,9.9,15.7z M9.9,10.4c0.3,0,0.6-0.1,0.9-0.3c0.2-0.2,0.3-0.5,0.3-0.9
		c0-0.3-0.1-0.6-0.3-0.9C10.5,8.2,10.2,8,9.9,8S9.2,8.2,9,8.4C8.8,8.6,8.7,8.9,8.7,9.2c0,0.3,0.1,0.6,0.3,0.9
		C9.2,10.3,9.5,10.4,9.9,10.4z M20.6,15.5c0.3,0,0.5-0.1,0.7-0.3s0.3-0.4,0.3-0.7c0-0.3-0.1-0.5-0.3-0.7c-0.2-0.2-0.4-0.3-0.7-0.3
		H15c-0.3,0-0.5,0.1-0.7,0.3C14.1,14,14,14.2,14,14.5c0,0.3,0.1,0.5,0.3,0.7c0.2,0.2,0.4,0.3,0.7,0.3H20.6z M20.6,10.2
		c0.3,0,0.5-0.1,0.7-0.3c0.2-0.2,0.3-0.4,0.3-0.7c0-0.3-0.1-0.5-0.3-0.7c-0.2-0.2-0.4-0.3-0.7-0.3H15c-0.3,0-0.5,0.1-0.7,0.3
		C14.1,8.7,14,8.9,14,9.2c0,0.3,0.1,0.5,0.3,0.7c0.2,0.2,0.4,0.3,0.7,0.3H20.6z M14,19.7c0,0.3,0.1,0.5,0.3,0.7
		c0.2,0.2,0.4,0.3,0.7,0.3h0.8c0.3,0,0.5-0.1,0.7-0.3c0.2-0.2,0.3-0.4,0.3-0.7c0-0.3-0.1-0.5-0.3-0.7c-0.2-0.2-0.4-0.3-0.7-0.3H15
		c-0.3,0-0.5,0.1-0.7,0.3C14.1,19.2,14,19.4,14,19.7z M22.2,24.9h-3c-0.3,0-0.5-0.1-0.7-0.3c-0.2-0.2-0.3-0.4-0.3-0.7
		s0.1-0.5,0.3-0.7c0.2-0.2,0.4-0.3,0.7-0.3h3v-3c0-0.3,0.1-0.5,0.3-0.7c0.2-0.2,0.4-0.3,0.7-0.3c0.3,0,0.5,0.1,0.7,0.3
		c0.2,0.2,0.3,0.4,0.3,0.7v3h3c0.3,0,0.5,0.1,0.7,0.3c0.2,0.2,0.3,0.4,0.3,0.7c0,0.3-0.1,0.5-0.3,0.7c-0.2,0.2-0.4,0.3-0.7,0.3h-3v3
		c0,0.3-0.1,0.5-0.3,0.7c-0.2,0.2-0.4,0.3-0.7,0.3c-0.3,0-0.5-0.1-0.7-0.3c-0.2-0.2-0.3-0.4-0.3-0.7V24.9z"/>
</g>
</svg>
