<!-- Generated by IcoMoon.io -->
<svg version="1.1" xmlns="http://www.w3.org/2000/svg" width="32" height="32" viewBox="0 0 32 32">
<title>message</title>
<path d="M14.629 16c0 0.364 0.144 0.712 0.402 0.97s0.606 0.402 0.97 0.402c0.364 0 0.712-0.144 0.97-0.402s0.402-0.606 0.402-0.97c0-0.364-0.144-0.713-0.402-0.97s-0.606-0.402-0.97-0.402c-0.364 0-0.713 0.144-0.97 0.402s-0.402 0.606-0.402 0.97v0zM20.343 16c0 0.364 0.144 0.712 0.402 0.97s0.606 0.402 0.97 0.402 0.712-0.144 0.97-0.402c0.257-0.257 0.402-0.606 0.402-0.97s-0.144-0.713-0.402-0.97c-0.257-0.257-0.606-0.402-0.97-0.402s-0.713 0.144-0.97 0.402c-0.257 0.257-0.402 0.606-0.402 0.97zM8.914 16c0 0.364 0.144 0.712 0.402 0.97s0.606 0.402 0.97 0.402 0.713-0.144 0.97-0.402c0.257-0.257 0.402-0.606 0.402-0.97s-0.145-0.713-0.402-0.97-0.606-0.402-0.97-0.402c-0.364 0-0.713 0.144-0.97 0.402s-0.402 0.606-0.402 0.97v0zM27.806 11.040c-0.646-1.534-1.572-2.911-2.751-4.094-1.172-1.176-2.563-2.111-4.094-2.751-1.572-0.66-3.24-0.994-4.96-0.994h-0.057c-1.731 0.009-3.409 0.351-4.986 1.026-1.518 0.647-2.896 1.584-4.057 2.757-1.169 1.18-2.086 2.551-2.72 4.080-0.657 1.583-0.989 3.266-0.98 4.997 0.010 1.984 0.479 3.939 1.371 5.711v4.343c0 0.349 0.138 0.683 0.385 0.929s0.581 0.385 0.929 0.385h4.346c1.772 0.892 3.727 1.362 5.711 1.371h0.060c1.711 0 3.371-0.331 4.934-0.98 1.524-0.633 2.91-1.557 4.080-2.72 1.18-1.168 2.109-2.534 2.757-4.057 0.674-1.577 1.017-3.254 1.026-4.986 0.009-1.74-0.329-3.428-0.994-5.017v0zM23.488 23.554c-2.003 1.983-4.66 3.074-7.488 3.074h-0.049c-1.723-0.009-3.434-0.437-4.946-1.243l-0.24-0.129h-4.023v-4.023l-0.129-0.24c-0.806-1.511-1.234-3.223-1.243-4.946-0.011-2.849 1.077-5.523 3.074-7.537 1.994-2.014 4.66-3.129 7.508-3.14h0.049c1.428 0 2.814 0.277 4.12 0.826 1.274 0.534 2.417 1.303 3.4 2.286 0.98 0.98 1.752 2.126 2.286 3.4 0.554 1.32 0.831 2.72 0.826 4.166-0.017 2.846-1.134 5.511-3.146 7.506v0z"></path>
</svg>
