<?xml version="1.0" encoding="utf-8"?>
<!-- Generator: Adobe Illustrator 28.1.0, SVG Export Plug-In . SVG Version: 6.00 Build 0)  -->
<svg version="1.1" id="Layer_1" xmlns="http://www.w3.org/2000/svg" xmlns:xlink="http://www.w3.org/1999/xlink" x="0px" y="0px"
	 viewBox="0 0 20 20" style="enable-background:new 0 0 20 20;" xml:space="preserve">
<g>
	<path d="M4.8,17v-3.6H4.3v-1.2l0.5-3h10.3l0.5,3v1.2h-0.5V17h-1.1v-3.6h-2.6V17H4.8z M5.9,15.8h4.5v-2.4H5.9V15.8z M5.4,12.2h9.2
		l-0.3-1.8H5.7L5.4,12.2z"/>
	<path d="M16.1,9.2C16.1,9.2,16.2,9.1,16.1,9.2c0-0.1,0.1-0.3,0.1-0.3c0-0.1,0-0.1,0-0.2c0,0,0-0.1,0.1-0.1c0.2,0,0.4-0.1,0.5-0.2h0
		c0,0,0,0,0,0c0,0,0,0,0,0c0,0-0.1,0-0.2,0c-0.1,0-0.2-0.1-0.4-0.1c-0.1,0-0.1,0-0.1-0.1c0-0.2-0.1-0.3-0.2-0.5c0,0,0,0,0,0l0,0
		c0,0.2-0.1,0.3-0.2,0.5c0,0.1,0,0.1-0.1,0.1c-0.2,0-0.3,0.1-0.5,0.2c0,0,0,0,0,0l0,0c0.2,0,0.3,0.1,0.5,0.2c0.1,0,0.1,0,0.1,0.1
		C16,8.8,16,9,16.1,9.2C16.1,9.1,16.1,9.2,16.1,9.2L16.1,9.2L16.1,9.2z"/>
	<path d="M13.1,6.6C13.1,6.5,13.1,6.5,13.1,6.6c0.1-0.3,0.2-0.5,0.3-0.7c0-0.1,0.1-0.3,0.1-0.4c0-0.1,0.1-0.2,0.3-0.3
		c0.3-0.1,0.7-0.2,1-0.3c0,0,0,0,0.1,0l0,0l0,0c-0.1,0-0.2-0.1-0.3-0.1c-0.2-0.1-0.5-0.1-0.7-0.2c-0.1,0-0.2-0.1-0.3-0.3
		c-0.1-0.3-0.2-0.7-0.3-1c0,0,0,0,0-0.1c0,0,0,0,0,0.1c-0.1,0.3-0.2,0.7-0.3,1c0,0.1-0.1,0.2-0.3,0.3c-0.3,0.1-0.7,0.2-1.1,0.3
		c0,0,0,0-0.1,0c0,0,0,0,0.1,0c0.4,0.1,0.7,0.2,1.1,0.3c0.1,0,0.2,0.1,0.3,0.3c0.1,0.3,0.2,0.7,0.3,1C13,6.5,13,6.5,13.1,6.6
		L13.1,6.6L13.1,6.6z"/>
	<path d="M4.3,7.9L4.3,7.9c0.1-0.2,0.1-0.3,0.2-0.5c0-0.1,0-0.2,0.1-0.3c0-0.1,0.1-0.2,0.2-0.2c0.3-0.1,0.5-0.2,0.7-0.2h0l0,0
		c0,0,0,0,0,0c-0.1,0-0.2,0-0.3-0.1C5.1,6.4,5,6.3,4.8,6.3c-0.1,0-0.2-0.1-0.2-0.2C4.5,5.9,4.4,5.6,4.4,5.3l0,0l0,0
		C4.2,5.6,4.1,5.9,4,6.1c0,0.1-0.1,0.2-0.2,0.2C3.6,6.4,3.3,6.5,3,6.6l0,0l0,0c0.3,0.1,0.5,0.2,0.8,0.3C3.9,7,4,7,4,7.1
		C4.1,7.3,4.2,7.6,4.3,7.9C4.3,7.8,4.3,7.9,4.3,7.9L4.3,7.9L4.3,7.9z"/>
</g>
</svg>
