<svg width="24" height="24" viewBox="0 0 24 24" fill="none" xmlns="http://www.w3.org/2000/svg">
<path fill-rule="evenodd" clip-rule="evenodd" d="M2.37416 7.50977H21.6259C21.7857 7.50977 21.8809 7.68797 21.7922 7.82087L19.1485 11.7778C19.0586 11.9123 19.0586 12.0877 19.1485 12.2222L21.7922 16.1791C21.8809 16.312 21.7857 16.4902 21.6259 16.4902H2.37417C2.21434 16.4902 2.11908 16.312 2.20787 16.1791L4.85155 12.2222C4.94142 12.0877 4.94142 11.9123 4.85155 11.7778L2.20787 7.82087C2.11908 7.68797 2.21434 7.50977 2.37416 7.50977ZM9.31495 13.8V10.2H8.55733V12.4641H8.52569L6.97179 10.2H6.30382V13.8H7.06495V11.5342H7.09132L8.65753 13.8H9.31495ZM9.94381 10.2V13.8H12.3766V13.1725H10.7049V12.3129H12.2448V11.6854H10.7049V10.8275H12.3696V10.2H9.94381ZM12.755 10.2L13.7851 13.8H14.5269L15.2107 11.4463H15.2388L15.9243 13.8H16.6661L17.6962 10.2H16.8648L16.2689 12.7066H16.2372L15.5816 10.2H14.8696L14.2122 12.7014H14.1823L13.5864 10.2H12.755Z" fill="black"/>
<path d="M9.31495 10.2V13.8H8.65753L7.09132 11.5342H7.06495V13.8H6.30382V10.2H6.97179L8.52569 12.4641H8.55733V10.2H9.31495Z" fill="white"/>
<path d="M9.94381 13.8V10.2H12.3696V10.8275H10.7049V11.6854H12.2448V12.3129H10.7049V13.1725H12.3766V13.8H9.94381Z" fill="white"/>
<path d="M13.7851 13.8L12.755 10.2H13.5864L14.1823 12.7014H14.2122L14.8696 10.2H15.5816L16.2372 12.7066H16.2689L16.8648 10.2H17.6962L16.6661 13.8H15.9243L15.2388 11.4463H15.2107L14.5269 13.8H13.7851Z" fill="white"/>
</svg>
