<?xml version="1.0" encoding="utf-8"?>
<!-- Generator: Adobe Illustrator 28.1.0, SVG Export Plug-In . SVG Version: 6.00 Build 0)  -->
<svg version="1.1" id="Layer_1" xmlns="http://www.w3.org/2000/svg" xmlns:xlink="http://www.w3.org/1999/xlink" x="0px" y="0px"
	 viewBox="0 0 20 20" style="enable-background:new 0 0 20 20;" xml:space="preserve">
<g>
	<path d="M8.2,14.5c1.4,1.5,3.8,2.3,5.9,1.8c0.8,1,2.1,1.5,3.3,1.5c-0.5-0.4-0.9-0.9-1.2-1.5c-0.1-0.2-0.2-0.5-0.2-0.7
		c5.8-3.4,2.5-12.5-4.2-11.4c0,0,0,0,0,0C5-2.3-3.8,8.5,4,13.7c0,0,0,0,0,0v0c-0.2,0.9-0.8,1.7-1.5,2.2c0.3,0,0.6,0,0.9,0
		c0,0,0,0,0,0c0.2,0,0.4-0.1,0.6-0.2c0,0,0,0,0,0c0.3-0.1,0.5-0.2,0.8-0.4c0,0,0,0,0,0c0.4-0.2,0.7-0.5,1-0.9c0,0,0,0,0,0L8.2,14.5z
		 M2.1,9c0,1,0.3,1.9,0.7,2.7c-4-5.3,3.1-11.8,8.1-7.4c-0.1,0-0.2,0.1-0.3,0.1C7.2,2,2,4.7,2.1,9z M10.5,11c-0.8,0-0.8-1.2,0-1.2
		C11.2,9.8,11.2,11,10.5,11z M12.9,11c-0.8,0.2-1-1.2-0.1-1.2C13.5,9.8,13.6,10.9,12.9,11z M11.3,5c2.4-0.7,5,0.5,6.2,2.6
		c-1.1-1.4-2.9-2.3-4.8-2.1c-3.9,0.2-6.4,4.8-4.3,8.2C5.9,10.7,7.7,5.8,11.3,5z M15,11c-0.8,0-0.8-1.2,0-1.2C15.8,9.8,15.8,11,15,11
		z"/>
</g>
</svg>
