<svg width="20" height="20" viewBox="0 0 20 20" fill="none" xmlns="http://www.w3.org/2000/svg">
<path d="M13.629 12.7362C13.629 14.2991 12.4603 15.6719 10.7907 16.0707L10.5264 16.1357V18H9.10261V16.1357L8.83826 16.0707C7.28928 15.6997 6.17623 14.5125 6.01855 13.0841H7.45623C7.65101 14.0533 8.6342 14.7675 9.81681 14.7675C11.1339 14.7675 12.2052 13.8539 12.2052 12.7362C12.2052 12.407 12.1681 12.1565 12.0846 11.9386C11.9872 11.6974 11.8342 11.498 11.607 11.3403C11.4122 11.1965 11.1617 11.0852 10.8186 10.9739C10.5681 10.8997 10.262 10.8209 9.84 10.7281L9.66841 10.691C8.90783 10.5333 7.96174 10.3339 7.22899 9.83768C6.40348 9.28116 6 8.4371 6 7.25913C6 5.69623 7.1687 4.32348 8.83826 3.92464L9.10261 3.85971V2H10.5264V3.85971L10.7907 3.92464C12.3397 4.29565 13.4528 5.4829 13.6104 6.9113H12.1728C11.978 5.94203 10.9948 5.23246 9.81681 5.23246C8.49507 5.23246 7.42377 6.14145 7.42377 7.25913C7.42377 7.58841 7.46087 7.83884 7.54435 8.05681C7.64174 8.29797 7.79478 8.49739 8.02203 8.65507C8.21681 8.7942 8.46725 8.91015 8.81043 9.01681C9.09333 9.10493 9.43652 9.19304 9.96058 9.29971C10.7212 9.46203 11.6626 9.66145 12.4 10.1577C13.2255 10.7142 13.629 11.5583 13.629 12.7362Z" fill="black"/>
</svg>
