<?xml version="1.0" encoding="UTF-8"?>
<svg id="Layer_1" data-name="Layer 1" xmlns="http://www.w3.org/2000/svg" version="1.1" viewBox="0 0 20 20">
  <defs>
    <style>
      .cls-1 {
        fill: #000;
        stroke-width: 0px;
      }
    </style>
  </defs>
  <path class="cls-1" d="M16,8.9h0s-1.8-4.6-1.8-4.6c0-.3-.3-.4-.6-.4h-7.3c-.3,0-.5.2-.6.4l-1.7,4.5h0s0,0,0,0c0,0,0,.2,0,.2,0,0,0,0,0,0v5.9c0,.3.1.5.3.7.2.2.4.3.7.3h10c.5,0,1-.4,1-1v-5.9s0,0,0,0c0,0,0-.2,0-.2ZM11.2,8.3v.3c0,.7-.5,1.2-1.2,1.2s-.7-.1-.9-.3c-.2-.2-.3-.5-.3-.9v-.3h-3.3l1.3-3.1h6.4l1.3,3.1h-3.2ZM5.2,9.5h2.5c.4.9,1.2,1.5,2.2,1.5s1-.2,1.4-.4c.4-.2.6-.6.8-1h2.5v5.3H5.2v-5.3h0Z"/>
</svg>