<!-- Generated by IcoMoon.io -->
<svg version="1.1" xmlns="http://www.w3.org/2000/svg" width="32" height="32" viewBox="0 0 32 32">
<title>reddit</title>
<path d="M9.6 17.6c0 0.424 0.169 0.831 0.469 1.131s0.707 0.469 1.131 0.469c0.424 0 0.831-0.169 1.131-0.469s0.469-0.707 0.469-1.131c0-0.424-0.169-0.831-0.469-1.131s-0.707-0.469-1.131-0.469c-0.424 0-0.831 0.169-1.131 0.469s-0.469 0.707-0.469 1.131zM19.277 21.020c-0.66 0.52-1.968 1.080-3.277 1.080s-2.617-0.56-3.277-1.080c-0.411-0.323-1.009-0.254-1.334 0.157s-0.254 1.009 0.157 1.334c1.149 0.906 2.897 1.489 4.454 1.489s3.306-0.583 4.454-1.489c0.198-0.156 0.325-0.384 0.355-0.635s-0.042-0.502-0.198-0.7c-0.156-0.198-0.384-0.325-0.635-0.355s-0.502 0.042-0.7 0.198v0zM28.8 14.4c0-1.769-1.431-3.2-3.2-3.2-1.203 0-2.249 0.663-2.797 1.646-1.646-0.9-3.649-1.48-5.832-1.614l1.912-4.289 3.654 1.054c0.329 0.931 1.217 1.603 2.263 1.603 1.326 0 2.4-1.074 2.4-2.4s-1.074-2.4-2.4-2.4c-0.914 0-1.709 0.511-2.114 1.263l-4.072-1.177c-0.22-0.064-0.456-0.046-0.664 0.051s-0.374 0.265-0.467 0.475l-2.594 5.826c-2.129 0.149-4.083 0.726-5.691 1.606-0.277-0.498-0.683-0.914-1.175-1.202s-1.052-0.441-1.622-0.441c-1.769 0-3.2 1.431-3.2 3.2 0 1.309 0.786 2.431 1.909 2.929-0.203 0.6-0.309 1.228-0.309 1.871 0 4.417 5.014 8 11.2 8s11.2-3.583 11.2-8c0-0.646-0.109-1.271-0.309-1.871 1.123-0.497 1.909-1.62 1.909-2.929zM24.8 6.3c0.118 0 0.235 0.023 0.344 0.069s0.208 0.112 0.292 0.195c0.084 0.084 0.15 0.183 0.195 0.292s0.068 0.226 0.068 0.344c0 0.118-0.023 0.235-0.068 0.344s-0.112 0.208-0.195 0.292c-0.084 0.084-0.183 0.15-0.292 0.195s-0.226 0.069-0.344 0.069c-0.239 0-0.468-0.095-0.636-0.264s-0.264-0.398-0.264-0.636 0.095-0.468 0.264-0.636c0.169-0.169 0.398-0.264 0.636-0.264v0zM4.8 14.4c0-0.883 0.717-1.6 1.6-1.6 0.303 0 0.6 0.087 0.856 0.249s0.46 0.394 0.59 0.668c-0.837 0.634-1.529 1.366-2.043 2.169-0.296-0.12-0.549-0.325-0.728-0.59s-0.274-0.576-0.275-0.896v0zM16 25.3c-5.137 0-9.3-2.731-9.3-6.1s4.163-6.1 9.3-6.1 9.3 2.731 9.3 6.1c0 3.369-4.163 6.1-9.3 6.1zM26.194 15.886c-0.511-0.803-1.206-1.534-2.043-2.169 0.257-0.54 0.809-0.917 1.446-0.917 0.883 0 1.6 0.717 1.6 1.6 0.003 0.671-0.414 1.249-1.003 1.486zM19.2 17.6c0 0.424 0.169 0.831 0.469 1.131s0.707 0.469 1.131 0.469c0.424 0 0.831-0.169 1.131-0.469s0.469-0.707 0.469-1.131c0-0.424-0.169-0.831-0.469-1.131s-0.707-0.469-1.131-0.469c-0.424 0-0.831 0.169-1.131 0.469s-0.469 0.707-0.469 1.131z"></path>
</svg>
