<!-- Generated by IcoMoon.io -->
<svg version="1.1" xmlns="http://www.w3.org/2000/svg" width="32" height="32" viewBox="0 0 32 32">
<title>shrink</title>
<path d="M28.72 4.832l-1.552-1.552c-0.052-0.051-0.122-0.080-0.194-0.080s-0.143 0.029-0.194 0.080l-5.419 5.422-1.882-1.882c-0.036-0.036-0.082-0.062-0.132-0.073s-0.102-0.009-0.151 0.008-0.091 0.047-0.123 0.087c-0.032 0.040-0.052 0.088-0.058 0.139l-0.808 6.506c-0.021 0.179 0.127 0.327 0.306 0.306l6.51-0.809c0.227-0.028 0.32-0.303 0.162-0.464l-1.882-1.882 5.423-5.422c0.103-0.103 0.103-0.279-0.004-0.385zM13.488 18.205l-6.51 0.808c-0.227 0.028-0.32 0.306-0.162 0.464l1.882 1.882-5.419 5.419c-0.051 0.052-0.080 0.122-0.080 0.194s0.029 0.143 0.080 0.194l1.552 1.552c0.107 0.107 0.282 0.107 0.389 0l5.422-5.422 1.882 1.882c0.036 0.036 0.082 0.062 0.132 0.073s0.102 0.009 0.151-0.008c0.048-0.017 0.091-0.047 0.123-0.087s0.052-0.088 0.058-0.139l0.805-6.506c0.006-0.042 0.002-0.084-0.012-0.124s-0.036-0.076-0.065-0.105c-0.030-0.030-0.066-0.052-0.106-0.065s-0.082-0.017-0.124-0.012v0z"></path>
</svg>
