<svg width="24" height="24" viewBox="0 0 24 24" fill="none" xmlns="http://www.w3.org/2000/svg">
<path d="M12.2029 5.83481C12.2029 5.50903 11.9378 5.24399 11.612 5.24399C11.2862 5.24399 11.0212 5.50903 11.0212 5.83481V6.42563H12.2029V5.83481Z" fill="black"/>
<path d="M15.2092 17.323H19.8058L19.8062 1.92041H3.5V21.9204H15.2092V17.323ZM17.2963 15.0064H6.00996V13.8345H17.2963V15.0064ZM17.2963 12.5064H6.00996V11.3345H17.2963V12.5064ZM13.9755 4.08904H15.2702L15.8575 5.33986L16.4448 4.08904H17.7394L16.5048 6.71853L17.7539 9.37876H16.4592L15.8575 8.0972L15.2558 9.37876H13.9612L15.2102 6.71853L13.9755 4.08904ZM9.84917 5.83474C9.84917 4.86279 10.6399 4.07205 11.6119 4.07205C12.5839 4.07205 13.3746 4.86279 13.3746 5.83474V9.36501H12.2027V7.59743H11.021V9.36501H9.84917V5.83474ZM5.55234 4.08841H9.09401V5.26029H7.90909V9.38137H6.73722V5.26029H5.55234V4.08841ZM13.7278 20.0064H6.00996V18.8345H13.7278V20.0064H13.7278ZM6.00996 17.5064V16.3345H13.7278V17.5064H6.00996Z" fill="black"/>
<path d="M16.3809 18.4951V21.9205L19.8055 18.4951H16.3809Z" fill="black"/>
</svg>
