<!-- Generated by IcoMoon.io -->
<svg version="1.1" xmlns="http://www.w3.org/2000/svg" width="32" height="32" viewBox="0 0 32 32">
<title>underline</title>
<path d="M26.783 26.156h-21.704c-0.153 0-0.278 0.118-0.278 0.264v2.115c0 0.146 0.125 0.264 0.278 0.264h21.704c0.153 0 0.278-0.118 0.278-0.264v-2.115c0-0.146-0.125-0.264-0.278-0.264zM15.93 23.513c2.414 0 4.682-0.943 6.393-2.651s2.65-3.979 2.65-6.393v-10.852c0-0.23-0.188-0.417-0.417-0.417h-2.087c-0.23 0-0.417 0.188-0.417 0.417v10.852c0 3.374-2.748 6.122-6.122 6.122s-6.122-2.748-6.122-6.122v-10.852c0-0.23-0.188-0.417-0.417-0.417h-2.087c-0.23 0-0.417 0.188-0.417 0.417v10.852c0 2.414 0.943 4.682 2.65 6.393s3.979 2.651 6.393 2.651z"></path>
</svg>
