<svg width="24" height="24" viewBox="0 0 24 24" fill="none" xmlns="http://www.w3.org/2000/svg">
<path d="M21 14.7998C21 17.2852 18.9853 19.2998 16.5 19.2998C15.6945 19.2998 14.9376 19.0883 14.2833 18.7171C13.5904 18.3243 13.014 17.7548 12.6128 17.0667C12.2117 16.3785 12.0003 15.5963 12 14.7998C12 13.6442 12.4356 12.5903 13.1511 11.7938C13.5728 11.3232 14.089 10.9469 14.6661 10.6894C15.2432 10.432 15.8681 10.2992 16.5 10.2998C18.9853 10.2998 21 12.3145 21 14.7998Z" stroke="black" stroke-width="1.5" stroke-linecap="round" stroke-linejoin="round"/>
<path d="M16.5 6.25V10.3C15.8681 10.2994 15.2432 10.4322 14.6661 10.6896C14.089 10.9471 13.5728 11.3234 13.1511 11.794C12.4084 12.6189 11.9982 13.69 12 14.8C12.0006 15.061 12.0222 15.3157 12.0648 15.5641C12.1782 16.2211 12.436 16.8447 12.8197 17.39C13.2033 17.9353 13.7032 18.3886 14.2833 18.7173C13.0854 19.0795 11.4951 19.3 9.75 19.3C6.0222 19.3 3 18.2925 3 17.05V6.25" stroke="black" stroke-width="1.5" stroke-linecap="round" stroke-linejoin="round"/>
<path d="M3 13.45C3 14.6924 6.0222 15.7 9.75 15.7C10.5632 15.7 11.343 15.6523 12.0648 15.5641M3 9.85C3 11.0924 6.0222 12.1 9.75 12.1C10.9902 12.1 12.1526 11.9884 13.1511 11.794M18.3 14.8H16.5V13M16.5 6.25C16.5 7.49245 13.4778 8.5 9.75 8.5C6.0222 8.5 3 7.49245 3 6.25C3 5.00755 6.0222 4 9.75 4C13.4778 4 16.5 5.00755 16.5 6.25Z" stroke="black" stroke-width="1.5" stroke-linecap="round" stroke-linejoin="round"/>
</svg>
