<?xml version="1.0" encoding="utf-8"?>
<!-- Generator: Adobe Illustrator 28.1.0, SVG Export Plug-In . SVG Version: 6.00 Build 0)  -->
<svg version="1.1" id="Layer_1" xmlns="http://www.w3.org/2000/svg" xmlns:xlink="http://www.w3.org/1999/xlink" x="0px" y="0px"
	 viewBox="0 0 20 20" style="enable-background:new 0 0 20 20;" xml:space="preserve">
<style type="text/css">
	.st0{fill-rule:evenodd;clip-rule:evenodd;}
</style>
<g>
	<path d="M16.8,11.8c-0.1-0.1-1-0.5-1-0.5c0.2-0.1,0.3-0.1,0.3-0.4c0-0.3,0-0.4-0.2-0.4H15c0,0,0,0,0,0c-0.5-1-0.6-1.3-1.3-1.7
		c-1-0.5-2.9-0.5-3.7-0.5s-2.7,0-3.7,0.5C5.5,9.1,5.6,9.3,5,10.4c0,0,0,0,0,0H4.2c-0.2,0-0.2,0.1-0.2,0.4c0,0.3,0.1,0.3,0.3,0.4
		c0,0-0.8,0.4-1,0.5C3.1,11.9,3,12.6,3,13.9s0.1,2.6,0.1,2.6h0.3c0,0.4,0.1,0.4,0.2,0.4H6c0.2,0,0.2-0.1,0.2-0.4h7.5
		c0,0.4,0.1,0.4,0.2,0.4h2.4c0.1,0,0.2-0.1,0.2-0.4h0.3c0,0,0.1-1.3,0.1-2.6S16.9,11.9,16.8,11.8z M6.2,13c-0.5,0.1-1.1,0.1-1.6,0.1
		c-0.6,0-0.6,0-0.7-0.3c0-0.2,0-0.3,0-0.5l0-0.1H4c0.4,0,0.7,0,1.3,0.2c0.3,0.1,0.6,0.2,0.9,0.4C6.4,12.9,6.4,13,6.4,13L6.2,13z
		 M13.4,14.9l-0.1,0.3H6.7c0,0,0,0-0.1-0.3c-0.1-0.2,0-0.4,0.3-0.4c0.4-0.2,1.8-0.6,3.2-0.6s2.7,0.4,3.2,0.6
		C13.3,14.6,13.5,14.6,13.4,14.9L13.4,14.9z M5.9,11.2c-0.1,0-0.2,0-0.3,0c0.1-0.1,0.1-0.3,0.2-0.4c0.2-0.5,0.5-1,1-1.2
		C7.5,9.3,8.9,9.1,10,9.1s2.5,0.1,3.2,0.5c0.5,0.2,0.7,0.7,1,1.2c0.1,0.1,0.1,0.3,0.2,0.4c-0.1,0-0.1,0-0.3,0H5.9z M16,12.7
		c-0.1,0.3,0,0.3-0.6,0.3c-0.5,0-1.1,0-1.6-0.1c-0.1,0-0.1-0.1,0-0.2c0.3-0.2,0.6-0.3,0.9-0.4c0.6-0.2,1-0.2,1.3-0.2c0,0,0,0,0.1,0
		c0,0,0,0,0,0.1C16.1,12.4,16.1,12.6,16,12.7L16,12.7z"/>
	<path class="st0" d="M4.7,5.5c0.1,0.1,0.1,0.2,0,0.3c-1.2,1-1.4,2.7-0.5,3.6c0.1,0.1,0.1,0.2,0,0.3C4.1,9.8,4,9.8,3.9,9.7
		C2.7,8.6,3,6.6,4.4,5.5C4.5,5.4,4.6,5.4,4.7,5.5z"/>
	<g>
		<path d="M14.4,4.7c-0.1-0.1-0.2-0.1-0.4-0.1h-0.3v1.6H14c0.2,0,0.3,0,0.4-0.1c0.1-0.1,0.2-0.1,0.2-0.3c0.1-0.1,0.1-0.3,0.1-0.5
			c0-0.2,0-0.3-0.1-0.5C14.6,4.9,14.5,4.8,14.4,4.7z"/>
		<path d="M9.7,8.3h0.5c-0.1,0-0.2,0-0.3,0S9.8,8.3,9.7,8.3z"/>
		<path d="M15.6,3c0,0-0.1,0-0.1,0h-10C5.2,3,4.9,3.1,4.8,3.4L3.6,5.1c-0.2,0.3-0.2,0.7,0,1l1.2,1.8c0.2,0.2,0.4,0.4,0.7,0.4
			C5.6,8.1,5.7,8,5.9,8l0,0c0.7-0.3,1.5-0.4,2.2-0.5C8.9,7.4,9.6,7.4,10,7.4s1.1,0,1.8,0.1c0.7,0.1,1.6,0.2,2.2,0.5l0,0
			c0.2,0.1,0.4,0.2,0.5,0.3h0.9c0.5,0,0.9-0.4,0.9-0.9V3.4C16.4,3,16.1,3,15.6,3z M4.6,6.1c-0.2,0-0.4-0.2-0.4-0.4s0.2-0.4,0.4-0.4
			S5,5.4,5,5.6S4.8,6.1,4.6,6.1z M8.3,5.8c0,0.2,0,0.3-0.1,0.5C8,6.5,7.9,6.6,7.8,6.6C7.6,6.7,7.4,6.8,7.2,6.8c-0.2,0-0.4,0-0.6-0.1
			C6.5,6.6,6.4,6.5,6.3,6.3C6.2,6.2,6.1,6,6.1,5.8V4.2h0.5v1.6c0,0.1,0,0.2,0.1,0.3c0,0.1,0.1,0.1,0.2,0.2s0.2,0.1,0.3,0.1
			c0.1,0,0.2,0,0.3-0.1c0.1,0,0.1-0.1,0.2-0.2c0-0.1,0.1-0.2,0.1-0.3V4.2h0.5V5.8z M10.5,6.4c-0.1,0.1-0.2,0.2-0.3,0.3
			C10,6.7,9.8,6.8,9.6,6.8c-0.2,0-0.4,0-0.5-0.1C9,6.6,8.8,6.5,8.7,6.4C8.7,6.3,8.6,6.1,8.6,5.9h0.5c0,0.1,0,0.2,0.1,0.2
			c0,0.1,0.1,0.1,0.2,0.1c0.1,0,0.2,0,0.2,0c0.1,0,0.2,0,0.2,0c0.1,0,0.1-0.1,0.2-0.1c0,0,0.1-0.1,0.1-0.2c0-0.1,0-0.1-0.1-0.1
			c0,0-0.1-0.1-0.1-0.1c-0.1,0-0.1-0.1-0.2-0.1L9.4,5.6C9.2,5.6,9,5.5,8.9,5.4C8.7,5.2,8.7,5.1,8.7,4.9c0-0.2,0-0.3,0.1-0.4
			C8.9,4.4,9,4.3,9.1,4.2c0.1-0.1,0.3-0.1,0.5-0.1c0.2,0,0.4,0,0.5,0.1c0.1,0.1,0.3,0.2,0.3,0.3s0.1,0.2,0.1,0.4h-0.5
			c0-0.1-0.1-0.2-0.1-0.2C9.9,4.6,9.8,4.6,9.6,4.6c-0.1,0-0.2,0-0.2,0c-0.1,0-0.1,0.1-0.1,0.1c0,0,0,0.1,0,0.1c0,0,0,0.1,0,0.1
			c0,0,0.1,0.1,0.1,0.1c0,0,0.1,0,0.1,0.1c0,0,0.1,0,0.2,0l0.2,0.1c0.1,0,0.2,0.1,0.3,0.1c0.1,0,0.2,0.1,0.2,0.2s0.1,0.1,0.2,0.2
			c0,0.1,0.1,0.2,0.1,0.3C10.6,6.1,10.6,6.3,10.5,6.4z M12.7,6.7H11V4.2h1.7v0.4h-1.2v0.6h1.1v0.4h-1.1v0.6h1.2V6.7z M15.1,6.1
			c-0.1,0.2-0.2,0.3-0.4,0.4c-0.2,0.1-0.4,0.2-0.7,0.2h-0.9V4.2H14c0.3,0,0.5,0.1,0.7,0.2c0.2,0.1,0.3,0.2,0.4,0.4
			c0.1,0.2,0.2,0.4,0.2,0.7C15.3,5.7,15.2,5.9,15.1,6.1z"/>
	</g>
</g>
</svg>
