<svg width="24" height="24" viewBox="0 0 24 24" fill="none" xmlns="http://www.w3.org/2000/svg">
<mask id="mask0_6997_751" style="mask-type:alpha" maskUnits="userSpaceOnUse" x="0" y="0" width="24" height="24">
<rect width="24" height="24" fill="#D9D9D9"/>
</mask>
<g mask="url(#mask0_6997_751)">
<path d="M4.66675 19.3333V4.66675V9.89175V9.18325V19.3333ZM7.78325 12.8333H12.1917C12.4277 12.8333 12.6257 12.7532 12.7855 12.593C12.9452 12.4327 13.025 12.234 13.025 11.997C13.025 11.7602 12.9452 11.5626 12.7855 11.4043C12.6257 11.2459 12.4277 11.1668 12.1917 11.1668H7.78325C7.54725 11.1668 7.34933 11.2468 7.1895 11.407C7.02983 11.5673 6.95 11.766 6.95 12.003C6.95 12.2398 7.02983 12.4374 7.1895 12.5958C7.34933 12.7541 7.54725 12.8333 7.78325 12.8333ZM7.78325 17.0168H12.1917C12.4277 17.0168 12.6257 16.9366 12.7855 16.7763C12.9452 16.6159 13.025 16.4173 13.025 16.1805C13.025 15.9435 12.9452 15.7458 12.7855 15.5875C12.6257 15.4292 12.4277 15.35 12.1917 15.35H7.78325C7.54725 15.35 7.34933 15.4302 7.1895 15.5905C7.02983 15.7507 6.95 15.9493 6.95 16.1863C6.95 16.4233 7.02983 16.6209 7.1895 16.7793C7.34933 16.9376 7.54725 17.0168 7.78325 17.0168ZM7.78325 8.65H16.2167C16.4527 8.65 16.6507 8.56983 16.8105 8.4095C16.9702 8.24933 17.05 8.05075 17.05 7.81375C17.05 7.57675 16.9702 7.37908 16.8105 7.22075C16.6507 7.06242 16.4527 6.98325 16.2167 6.98325H7.78325C7.54725 6.98325 7.34933 7.06342 7.1895 7.22375C7.02983 7.38408 6.95 7.58267 6.95 7.8195C6.95 8.0565 7.02983 8.25417 7.1895 8.4125C7.34933 8.57083 7.54725 8.65 7.78325 8.65ZM4.66675 21C4.21675 21 3.82642 20.8348 3.49575 20.5043C3.16525 20.1736 3 19.7833 3 19.3333V4.66675C3 4.21675 3.16525 3.82642 3.49575 3.49575C3.82642 3.16525 4.21675 3 4.66675 3H19.3332C19.7832 3 20.1736 3.16525 20.5042 3.49575C20.8347 3.82642 21 4.21675 21 4.66675V10.4C21 10.6388 20.9198 10.8347 20.7595 10.9875C20.5993 11.1403 20.4007 11.2168 20.1637 11.2168C19.9267 11.2168 19.7291 11.1368 19.5707 10.977C19.4124 10.8173 19.3332 10.6194 19.3332 10.3833V4.66675H4.66675V19.3333H9.63325C9.86942 19.3333 10.0673 19.4134 10.227 19.5738C10.3868 19.7341 10.4667 19.9327 10.4667 20.1695C10.4667 20.4065 10.3868 20.6042 10.227 20.7625C10.0673 20.9208 9.86942 21 9.63325 21H4.66675ZM17.0667 15.65C16.3947 15.65 15.8267 15.418 15.3627 14.954C14.8987 14.49 14.6667 13.922 14.6667 13.25C14.6667 12.578 14.8987 12.01 15.3627 11.546C15.8267 11.082 16.3947 10.85 17.0667 10.85C17.7387 10.85 18.3067 11.082 18.7707 11.546C19.2347 12.01 19.4667 12.578 19.4667 13.25C19.4667 13.922 19.2347 14.49 18.7707 14.954C18.3067 15.418 17.7387 15.65 17.0667 15.65ZM17.0667 16.9833C17.7389 16.9833 18.3931 17.0513 19.0292 17.1875C19.6652 17.3237 20.2888 17.5445 20.9 17.85C21.25 18 21.5208 18.2375 21.7125 18.5625C21.9042 18.8875 22 19.2611 22 19.6833V20.1668C22 20.4028 21.9202 20.6007 21.7605 20.7605C21.6007 20.9202 21.4027 21 21.1667 21H12.9667C12.7306 21 12.5327 20.9202 12.373 20.7605C12.2132 20.6007 12.1332 20.4028 12.1332 20.1668V19.6833C12.1332 19.2611 12.2291 18.8903 12.4207 18.5708C12.6124 18.2514 12.8833 18.0112 13.2333 17.85C13.8444 17.5555 14.4681 17.3374 15.1042 17.1957C15.7402 17.0541 16.3944 16.9833 17.0667 16.9833Z" fill="black"/>
</g>
</svg>
