<svg width="24" height="24" viewBox="0 0 24 24" fill="none" xmlns="http://www.w3.org/2000/svg">
<path d="M14 8.79883C13.8674 8.79883 13.7402 8.85151 13.6464 8.94527C13.5527 9.03904 13.5 9.16622 13.5 9.29883V10.7988L15 8.79883H14ZM4 8.79883C3.86739 8.79883 3.74021 8.85151 3.64645 8.94527C3.55268 9.03904 3.5 9.16622 3.5 9.29883V10.7988L5 8.79883H4ZM5 11.7988C5.13261 11.7988 5.25979 11.7462 5.35355 11.6524C5.44732 11.5586 5.5 11.4314 5.5 11.2988V9.79883L4 11.7988H5ZM15.5 11.2988V9.79883L14 11.7988H15C15.1326 11.7988 15.2598 11.7462 15.3536 11.6524C15.4473 11.5586 15.5 11.4314 15.5 11.2988Z" fill="black"/>
<path d="M22.5 4.29883H1.5C1.23478 4.29883 0.98043 4.40419 0.792893 4.59172C0.605357 4.77926 0.5 5.03361 0.5 5.29883V18.2988C0.5 18.564 0.605357 18.8184 0.792893 19.0059C0.98043 19.1935 1.23478 19.2988 1.5 19.2988H22.5C22.7652 19.2988 23.0196 19.1935 23.2071 19.0059C23.3946 18.8184 23.5 18.564 23.5 18.2988V5.29883C23.5 5.03361 23.3946 4.77926 23.2071 4.59172C23.0196 4.40419 22.7652 4.29883 22.5 4.29883ZM7.5 8.29883C7.5 8.16622 7.55268 8.03904 7.64645 7.94527C7.74021 7.85151 7.86739 7.79883 8 7.79883C8.13261 7.79883 8.25979 7.85151 8.35355 7.94527C8.44732 8.03904 8.5 8.16622 8.5 8.29883V9.29883C8.5 9.43144 8.55268 9.55861 8.64645 9.65238C8.74021 9.74615 8.86739 9.79883 9 9.79883H10.5V8.29883C10.5 8.16622 10.5527 8.03904 10.6464 7.94527C10.7402 7.85151 10.8674 7.79883 11 7.79883C11.1326 7.79883 11.2598 7.85151 11.3536 7.94527C11.4473 8.03904 11.5 8.16622 11.5 8.29883V12.2988C11.5 12.4314 11.4473 12.5586 11.3536 12.6524C11.2598 12.7462 11.1326 12.7988 11 12.7988C10.8674 12.7988 10.7402 12.7462 10.6464 12.6524C10.5527 12.5586 10.5 12.4314 10.5 12.2988V10.7988H9C8.60218 10.7988 8.22064 10.6408 7.93934 10.3595C7.65804 10.0782 7.5 9.69665 7.5 9.29883V8.29883ZM6.5 11.2988C6.5 11.6967 6.34196 12.0782 6.06066 12.3595C5.77936 12.6408 5.39782 12.7988 5 12.7988H4C3.60218 12.7988 3.22064 12.6408 2.93934 12.3595C2.65804 12.0782 2.5 11.6967 2.5 11.2988V9.29883C2.5 8.901 2.65804 8.51947 2.93934 8.23817C3.22064 7.95686 3.60218 7.79883 4 7.79883H5C5.39782 7.79883 5.77936 7.95686 6.06066 8.23817C6.34196 8.51947 6.5 8.901 6.5 9.29883V11.2988ZM9.355 15.4438C9.44915 15.538 9.50205 15.6657 9.50205 15.7988C9.50205 15.932 9.44915 16.0597 9.355 16.1538C9.26085 16.248 9.13315 16.3009 9 16.3009C8.86685 16.3009 8.73915 16.248 8.645 16.1538L8.5 16.0038C8.34 16.1688 8.24 16.2988 8 16.2988C7.90069 16.2994 7.80345 16.2704 7.72069 16.2155C7.63793 16.1606 7.5734 16.0823 7.53531 15.9906C7.49723 15.8988 7.48733 15.7979 7.50686 15.7005C7.5264 15.6031 7.57449 15.5138 7.645 15.4438L7.795 15.2988L7.645 15.1538C7.55085 15.0597 7.49795 14.932 7.49795 14.7988C7.49795 14.6657 7.55085 14.538 7.645 14.4438C7.73915 14.3497 7.86685 14.2968 8 14.2968C8.13315 14.2968 8.26085 14.3497 8.355 14.4438L8.5 14.5938L8.645 14.4438C8.73915 14.3497 8.86685 14.2968 9 14.2968C9.13315 14.2968 9.26085 14.3497 9.355 14.4438C9.44915 14.538 9.50205 14.6657 9.50205 14.7988C9.50205 14.932 9.44915 15.0597 9.355 15.1538L9.205 15.2988L9.355 15.4438ZM13 15.7988H11C10.8674 15.7988 10.7402 15.7462 10.6464 15.6524C10.5527 15.5586 10.5 15.4314 10.5 15.2988C10.5 15.1662 10.5527 15.039 10.6464 14.9453C10.7402 14.8515 10.8674 14.7988 11 14.7988H13C13.1326 14.7988 13.2598 14.8515 13.3536 14.9453C13.4473 15.039 13.5 15.1662 13.5 15.2988C13.5 15.4314 13.4473 15.5586 13.3536 15.6524C13.2598 15.7462 13.1326 15.7988 13 15.7988ZM12.5 11.2988V9.29883C12.5 8.901 12.658 8.51947 12.9393 8.23817C13.2206 7.95686 13.6022 7.79883 14 7.79883H15C15.3978 7.79883 15.7794 7.95686 16.0607 8.23817C16.342 8.51947 16.5 8.901 16.5 9.29883V11.2988C16.5 11.6967 16.342 12.0782 16.0607 12.3595C15.7794 12.6408 15.3978 12.7988 15 12.7988H14C13.6022 12.7988 13.2206 12.6408 12.9393 12.3595C12.658 12.0782 12.5 11.6967 12.5 11.2988ZM16.355 15.4438C16.4492 15.538 16.502 15.6657 16.502 15.7988C16.502 15.932 16.4492 16.0597 16.355 16.1538C16.2608 16.248 16.1332 16.3009 16 16.3009C15.8668 16.3009 15.7392 16.248 15.645 16.1538L15.5 16.0038C15.34 16.1688 15.24 16.2988 15 16.2988C14.9007 16.2994 14.8035 16.2704 14.7207 16.2155C14.6379 16.1606 14.5734 16.0823 14.5353 15.9906C14.4972 15.8988 14.4873 15.7979 14.5069 15.7005C14.5264 15.6031 14.5745 15.5138 14.645 15.4438L14.795 15.2988L14.645 15.1538C14.5984 15.1072 14.5614 15.0519 14.5362 14.991C14.5109 14.93 14.498 14.8648 14.498 14.7988C14.498 14.7329 14.5109 14.6676 14.5362 14.6067C14.5614 14.5458 14.5984 14.4904 14.645 14.4438C14.6916 14.3972 14.747 14.3602 14.8079 14.335C14.8688 14.3098 14.9341 14.2968 15 14.2968C15.0659 14.2968 15.1312 14.3098 15.1921 14.335C15.253 14.3602 15.3084 14.3972 15.355 14.4438L15.5 14.5938L15.645 14.4438C15.7392 14.3497 15.8668 14.2968 16 14.2968C16.1332 14.2968 16.2608 14.3497 16.355 14.4438C16.4492 14.538 16.502 14.6657 16.502 14.7988C16.502 14.932 16.4492 15.0597 16.355 15.1538L16.205 15.2988L16.355 15.4438ZM20.5 9.79883C20.7652 9.79883 21.0196 9.90419 21.2071 10.0917C21.3946 10.2793 21.5 10.5336 21.5 10.7988V11.7988C21.5 12.064 21.3946 12.3184 21.2071 12.5059C21.0196 12.6935 20.7652 12.7988 20.5 12.7988H18C17.8674 12.7988 17.7402 12.7462 17.6464 12.6524C17.5527 12.5586 17.5 12.4314 17.5 12.2988C17.5 12.1662 17.5527 12.039 17.6464 11.9453C17.7402 11.8515 17.8674 11.7988 18 11.7988H20.5V10.7988H18.5C18.2348 10.7988 17.9804 10.6935 17.7929 10.5059C17.6054 10.3184 17.5 10.064 17.5 9.79883V8.79883C17.5 8.53361 17.6054 8.27926 17.7929 8.09172C17.9804 7.90419 18.2348 7.79883 18.5 7.79883H21C21.1326 7.79883 21.2598 7.85151 21.3536 7.94527C21.4473 8.03904 21.5 8.16622 21.5 8.29883C21.5 8.43144 21.4473 8.55861 21.3536 8.65238C21.2598 8.74615 21.1326 8.79883 21 8.79883H18.5V9.79883H20.5Z" fill="black"/>
</svg>
