<?xml version="1.0" encoding="UTF-8"?>
<svg id="Layer_1" data-name="Layer 1" xmlns="http://www.w3.org/2000/svg" xmlns:xlink="http://www.w3.org/1999/xlink" version="1.1" viewBox="0 0 24 24">
  <defs>
    <style>
      .cls-1 {
        mask: url(#mask);
      }

      .cls-2 {
        fill: #000;
      }

      .cls-2, .cls-3 {
        stroke-width: 0px;
      }

      .cls-3 {
        fill: #d9d9d9;
      }
    </style>
    <mask id="mask" x="0" y="0" width="24" height="24" maskUnits="userSpaceOnUse">
      <g id="mask0_16059_32606" data-name="mask0 16059 32606">
        <rect class="cls-3" y="0" width="24" height="24"/>
      </g>
    </mask>
  </defs>
  <g class="cls-1">
    <path class="cls-2" d="M5.7,17.6c.9-.7,1.9-1.2,2.9-1.6,1.1-.4,2.2-.6,3.4-.6s2.3.2,3.4.6c1.1.4,2,.9,2.9,1.6.7-.7,1.2-1.6,1.6-2.5.4-.9.6-2,.6-3.1,0-2.3-.8-4.3-2.5-6-1.6-1.6-3.6-2.5-6-2.5s-4.3.8-6,2.5c-1.6,1.6-2.5,3.6-2.5,6s.2,2.1.6,3.1c.4.9.9,1.8,1.6,2.5ZM12,12.8c-1,0-1.8-.3-2.4-1-.7-.7-1-1.5-1-2.4s.3-1.8,1-2.4c.7-.7,1.5-1,2.4-1s1.8.3,2.4,1c.7.7,1,1.5,1,2.4s-.3,1.8-1,2.4c-.7.7-1.5,1-2.4,1ZM12,22c-1.4,0-2.7-.3-3.9-.8-1.2-.5-2.3-1.2-3.2-2.1-.9-.9-1.6-2-2.1-3.2s-.8-2.5-.8-3.9.3-2.7.8-3.9c.5-1.2,1.2-2.3,2.1-3.2.9-.9,2-1.6,3.2-2.1,1.2-.5,2.5-.8,3.9-.8s2.7.3,3.9.8,2.3,1.2,3.2,2.1c.9.9,1.6,2,2.1,3.2.5,1.2.8,2.5.8,3.9s-.3,2.7-.8,3.9c-.5,1.2-1.2,2.3-2.1,3.2-.9.9-2,1.6-3.2,2.1-1.2.5-2.5.8-3.9.8ZM12,20.4c.9,0,1.9-.2,2.7-.5.9-.3,1.7-.7,2.3-1.3-.7-.5-1.5-.9-2.3-1.2-.9-.3-1.8-.4-2.8-.4s-1.9.1-2.8.4c-.9.3-1.6.7-2.3,1.2.7.5,1.5,1,2.3,1.3.9.3,1.8.5,2.7.5ZM12,11.2c.5,0,1-.2,1.3-.5.4-.4.5-.8.5-1.3s-.2-1-.5-1.3c-.4-.4-.8-.5-1.3-.5s-1,.2-1.3.5c-.4.4-.5.8-.5,1.3s.2,1,.5,1.3c.4.4.8.5,1.3.5Z"/>
  </g>
</svg>