<?xml version="1.0" encoding="UTF-8"?>
<svg id="Layer_1" data-name="Layer 1" xmlns="http://www.w3.org/2000/svg" xmlns:xlink="http://www.w3.org/1999/xlink" version="1.1" viewBox="0 0 24 24">
  <defs>
    <style>
      .cls-1 {
        mask: url(#mask);
      }

      .cls-2 {
        fill: #000;
      }

      .cls-2, .cls-3 {
        stroke-width: 0px;
      }

      .cls-3 {
        fill: #d9d9d9;
      }
    </style>
    <mask id="mask" x="0" y="0" width="24" height="24" maskUnits="userSpaceOnUse">
      <g id="mask0_17153_54134" data-name="mask0 17153 54134">
        <rect class="cls-3" y="0" width="24" height="24"/>
      </g>
    </mask>
  </defs>
  <g class="cls-1">
    <path class="cls-2" d="M5.1,20.5c-.5,0-.9-.2-1.3-.5s-.5-.8-.5-1.3V5.3c0-.5.2-.9.5-1.3.4-.4.8-.5,1.3-.5h7.9c.2,0,.4,0,.5.2.1.1.2.3.2.5s0,.4-.2.5c-.1.1-.3.2-.5.2h-7.9c0,0-.2,0-.2,0,0,0,0,.1,0,.2v13.4c0,0,0,.2,0,.2,0,0,.1,0,.2,0h13.4c0,0,.2,0,.2,0,0,0,0-.1,0-.2v-7.9c0-.2,0-.4.2-.5s.3-.2.5-.2.4,0,.5.2c.1.1.2.3.2.5v7.9c0,.5-.2.9-.5,1.3s-.8.5-1.3.5H5.1ZM17.2,6.6h-1.3c-.2,0-.4,0-.5-.2-.1-.1-.2-.3-.2-.5s0-.4.2-.5c.1-.1.3-.2.5-.2h1.3v-1.3c0-.2,0-.4.2-.5.1-.1.3-.2.5-.2s.4,0,.5.2c.1.1.2.3.2.5v1.3h1.2c.2,0,.4,0,.5.2.1.1.2.3.2.5s0,.4-.2.5c-.1.1-.3.2-.5.2h-1.2v1.2c0,.2,0,.4-.2.5-.1.1-.3.2-.5.2s-.4,0-.5-.2c-.1-.1-.2-.3-.2-.5v-1.2ZM11,16l-1.6-2.1c0-.1-.2-.2-.4-.2s-.3,0-.4.2l-1.6,2.1c-.1.2-.1.3,0,.5,0,.2.2.2.4.2h8.8c.2,0,.3,0,.4-.2,0-.2,0-.3,0-.5l-2.4-3.2c0-.1-.2-.2-.4-.2s-.3,0-.4.2l-2.4,3.2Z"/>
  </g>
</svg>