<?xml version="1.0" encoding="UTF-8"?>
<svg id="Layer_1" data-name="Layer 1" xmlns="http://www.w3.org/2000/svg" xmlns:xlink="http://www.w3.org/1999/xlink" version="1.1" viewBox="0 0 24 24">
  <defs>
    <style>
      .cls-1 {
        mask: url(#mask);
      }

      .cls-2 {
        fill: #000;
      }

      .cls-2, .cls-3 {
        stroke-width: 0px;
      }

      .cls-3 {
        fill: #d9d9d9;
      }
    </style>
    <mask id="mask" x="0" y="0" width="24" height="24" maskUnits="userSpaceOnUse">
      <g id="mask0_16059_32596" data-name="mask0 16059 32596">
        <rect class="cls-3" y="0" width="24" height="24"/>
      </g>
    </mask>
  </defs>
  <g class="cls-1">
    <path class="cls-2" d="M4.1,22c-.6,0-1.1-.2-1.5-.6-.4-.4-.6-.9-.6-1.5V4.6c0-.6.2-1.1.6-1.5s.9-.6,1.5-.6h9.6c.2,0,.4,0,.6.2.2.2.2.4.2.6s0,.4-.2.6c-.2.2-.4.2-.6.2H4.1c-.1,0-.2,0-.3,0,0,0,0,.2,0,.3v15.3c0,.1,0,.2,0,.3,0,0,.2,0,.3,0h15.3c.1,0,.2,0,.3,0s0-.2,0-.3v-9.6c0-.2,0-.4.2-.6.2-.2.4-.2.6-.2s.4,0,.6.2c.2.2.2.4.2.6v9.6c0,.6-.2,1.1-.6,1.5s-.9.6-1.5.6H4.1ZM7.3,10.3c-.2,0-.4,0-.6.2-.2.2-.2.4-.2.6v5.7c0,.2,0,.4.2.6.2.2.4.2.6.2s.4,0,.6-.2c.2-.2.2-.4.2-.6v-5.7c0-.2,0-.4-.2-.6-.2-.2-.4-.2-.6-.2ZM11.7,6.9c-.2,0-.4,0-.6.2-.2.2-.2.4-.2.6v9.1c0,.2,0,.4.2.6.2.2.4.2.6.2s.4,0,.6-.2c.2-.2.2-.4.2-.6V7.7c0-.2,0-.4-.2-.6-.2-.2-.4-.2-.6-.2ZM16.2,13.7c-.2,0-.4,0-.6.2-.2.2-.2.4-.2.6v2.3c0,.2,0,.4.2.6.2.2.4.2.6.2s.4,0,.6-.2c.2-.2.2-.4.2-.6v-2.3c0-.2,0-.4-.2-.6-.2-.2-.4-.2-.6-.2ZM18,6h-1.4c-.2,0-.4,0-.6-.2-.2-.2-.2-.4-.2-.6s0-.4.2-.6c.2-.2.4-.2.6-.2h1.4v-1.4c0-.2,0-.4.2-.6.2-.2.4-.2.6-.2s.4,0,.6.2c.2.2.2.4.2.6v1.4h1.4c.2,0,.4,0,.6.2.2.2.2.4.2.6s0,.4-.2.6c-.2.2-.4.2-.6.2h-1.4v1.4c0,.2,0,.4-.2.6-.2.2-.4.2-.6.2s-.4,0-.6-.2c-.2-.2-.2-.4-.2-.6v-1.4Z"/>
  </g>
</svg>