<?xml version="1.0" encoding="UTF-8"?>
<svg id="Layer_1" data-name="Layer 1" xmlns="http://www.w3.org/2000/svg" xmlns:xlink="http://www.w3.org/1999/xlink" version="1.1" viewBox="0 0 24 24">
  <defs>
    <style>
      .cls-1 {
        mask: url(#mask);
      }

      .cls-2 {
        fill: #000;
      }

      .cls-2, .cls-3 {
        stroke-width: 0px;
      }

      .cls-3 {
        fill: #d9d9d9;
      }
    </style>
    <mask id="mask" x="0" y="0" width="24" height="24" maskUnits="userSpaceOnUse">
      <g id="mask0_17229_34503" data-name="mask0 17229 34503">
        <rect class="cls-3" y="0" width="24" height="24"/>
      </g>
    </mask>
  </defs>
  <g class="cls-1">
    <path class="cls-2" d="M18.7,20.5h-8c-.2,0-.4,0-.5-.2-.1-.1-.2-.3-.2-.5s0-.4.2-.5c.1-.1.3-.2.5-.2h8c0,0,.1,0,.2,0,0,0,0-.1,0-.2V5.3c0,0,0-.1,0-.2,0,0-.1,0-.2,0H5.3c0,0-.1,0-.2,0,0,0,0,.1,0,.2v3.2c0,.2,0,.4-.2.5-.1.1-.3.2-.5.2s-.4,0-.5-.2c-.1-.1-.2-.3-.2-.5v-3.2c0-.5.2-.9.5-1.3.3-.4.8-.5,1.3-.5h13.4c.5,0,.9.2,1.3.5.4.3.5.8.5,1.3v13.4c0,.5-.2.9-.5,1.3-.3.4-.8.5-1.3.5ZM6.9,21.5c-1.2,0-2.3-.4-3.2-1.3-.9-.9-1.3-1.9-1.3-3.2s.3-1.8.8-2.5c.5-.7,1.2-1.3,2-1.6h-1.9c-.2,0-.4,0-.5-.2-.1-.1-.2-.3-.2-.5s0-.4.2-.5c.1-.1.3-.2.5-.2h3.6c.3,0,.5,0,.6.3.2.2.3.4.3.6v3.6c0,.2,0,.4-.2.5-.1.1-.3.2-.5.2s-.4,0-.5-.2c-.1-.1-.2-.3-.2-.5v-1.8c-.7.1-1.2.5-1.7,1s-.7,1.2-.7,1.9.3,1.5.9,2.1c.6.6,1.3.9,2.1.9s.4,0,.5.2c.1.1.2.3.2.5s0,.4-.2.5c-.1.1-.3.2-.5.2ZM10.7,16.8h2.3c.2,0,.4,0,.5-.2.1-.1.2-.3.2-.5s0-.4-.2-.5c-.1-.1-.3-.2-.5-.2h-2.3c-.2,0-.4,0-.5.2-.1.1-.2.3-.2.5s0,.4.2.5c.1.1.3.2.5.2ZM10.7,12.8h5.3c.2,0,.4,0,.5-.2.1-.1.2-.3.2-.5s0-.4-.2-.5c-.1-.1-.3-.2-.5-.2h-5.3c-.2,0-.4,0-.5.2-.1.1-.2.3-.2.5s0,.4.2.5c.1.1.3.2.5.2ZM8,8.8h8c.2,0,.4,0,.5-.2.1-.1.2-.3.2-.5s0-.4-.2-.5c-.1-.1-.3-.2-.5-.2H8c-.2,0-.4,0-.5.2-.1.1-.2.3-.2.5s0,.4.2.5c.1.1.3.2.5.2Z"/>
  </g>
</svg>