<!-- Generated by IcoMoon.io -->
<svg version="1.1" xmlns="http://www.w3.org/2000/svg" width="32" height="32" viewBox="0 0 32 32">
<path d="M12 13.333c-0.8 0-1.333 0.533-1.333 1.333v8c0 0.8 0.533 1.333 1.333 1.333s1.333-0.533 1.333-1.333v-8c0-0.8-0.533-1.333-1.333-1.333z"></path>
<path d="M16 16c-0.8 0-1.333 0.533-1.333 1.333v5.333c0 0.8 0.533 1.333 1.333 1.333s1.333-0.533 1.333-1.333v-5.333c0-0.8-0.533-1.333-1.333-1.333z"></path>
<path d="M20 18.667c-0.8 0-1.333 0.533-1.333 1.333v2.667c0 0.8 0.533 1.333 1.333 1.333s1.333-0.533 1.333-1.333v-2.667c0-0.8-0.533-1.333-1.333-1.333z"></path>
<path d="M17.333 2.667h-6.667c-2.933 0-5.333 2.4-5.333 5.333v16c0 2.933 2.4 5.333 5.333 5.333h10.667c2.933 0 5.333-2.4 5.333-5.333v-12c0-5.2-4.133-9.333-9.333-9.333zM18.667 5.467c2.533 0.533 4.667 2.533 5.2 5.2h-2.533c-1.467 0-2.667-1.2-2.667-2.667v-2.533zM24 24c0 1.467-1.2 2.667-2.667 2.667h-10.667c-1.467 0-2.667-1.2-2.667-2.667v-16c0-1.467 1.2-2.667 2.667-2.667h5.333v2.667c0 2.933 2.4 5.333 5.333 5.333h2.667v10.667z"></path>
</svg>
