<?xml version="1.0" encoding="UTF-8"?>
<svg id="Layer_1" data-name="Layer 1" xmlns="http://www.w3.org/2000/svg" version="1.1" viewBox="0 0 14 14">
  <defs>
    <style>
      .cls-1 {
        fill: #000;
        stroke-width: 0px;
      }
    </style>
  </defs>
  <path class="cls-1" d="M11.2,2.1c-1.5-1.5-3.9-1.5-5.3,0L1.8,6.1s0,0,0,0,0,0,0,0l.6.6s0,0,0,0,0,0,0,0L6.6,2.9c.5-.5,1.2-.8,1.9-.8s1.4.3,1.9.8c.5.5.8,1.2.8,1.9s-.3,1.4-.8,1.9l-4.2,4.2-.7.7c-.6.6-1.7.6-2.3,0-.3-.3-.5-.7-.5-1.1s.2-.8.5-1.1l4.1-4.1c.1-.1.2-.2.4-.2h0c.1,0,.3,0,.4.2.1.1.2.2.2.4s0,.3-.2.4l-3.4,3.4s0,0,0,0,0,0,0,.1l.6.6s0,0,0,0,0,0,0,0l3.4-3.4c.3-.3.5-.7.5-1.2s-.2-.9-.5-1.2c-.6-.6-1.7-.6-2.3,0l-.4.4-3.7,3.7c-.3.3-.5.5-.6.9-.1.3-.2.7-.2,1,0,.7.3,1.4.8,1.9.5.5,1.2.8,1.9.8s1.4-.3,1.9-.8l4.8-4.8c.7-.7,1.1-1.7,1.1-2.7,0-1-.4-2-1.1-2.7Z"/>
</svg>