<svg width="32" height="32" viewBox="0 0 32 32" fill="none" xmlns="http://www.w3.org/2000/svg">
<mask id="mask0_19025_18259" style="mask-type:alpha" maskUnits="userSpaceOnUse" x="4" y="4" width="24" height="24">
<rect x="4" y="4" width="24" height="24" fill="#D9D9D9"/>
</mask>
<g mask="url(#mask0_19025_18259)">
<path d="M8 20C8.24493 20 8.48134 20.09 8.66437 20.2527C8.84741 20.4155 8.96434 20.6397 8.993 20.883L9 21V23H11C11.2549 23.0003 11.5 23.0979 11.6854 23.2728C11.8707 23.4478 11.9822 23.687 11.9972 23.9414C12.0121 24.1958 11.9293 24.4464 11.7657 24.6418C11.6021 24.8373 11.3701 24.9629 11.117 24.993L11 25H9C8.49542 25.0002 8.00943 24.8096 7.63945 24.4665C7.26947 24.1234 7.04284 23.6532 7.005 23.15L7 23V21C7 20.7348 7.10536 20.4804 7.29289 20.2929C7.48043 20.1054 7.73478 20 8 20ZM24 20C24.2652 20 24.5196 20.1054 24.7071 20.2929C24.8946 20.4804 25 20.7348 25 21V23C25 23.5304 24.7893 24.0391 24.4142 24.4142C24.0391 24.7893 23.5304 25 23 25H21C20.7348 25 20.4804 24.8946 20.2929 24.7071C20.1054 24.5196 20 24.2652 20 24C20 23.7348 20.1054 23.4804 20.2929 23.2929C20.4804 23.1054 20.7348 23 21 23H23V21C23 20.7348 23.1054 20.4804 23.2929 20.2929C23.4804 20.1054 23.7348 20 24 20ZM11 7C11.2652 7 11.5196 7.10536 11.7071 7.29289C11.8946 7.48043 12 7.73478 12 8C12 8.26522 11.8946 8.51957 11.7071 8.70711C11.5196 8.89464 11.2652 9 11 9H9V11C9 11.2652 8.89464 11.5196 8.70711 11.7071C8.51957 11.8946 8.26522 12 8 12C7.73478 12 7.48043 11.8946 7.29289 11.7071C7.10536 11.5196 7 11.2652 7 11V9C7 8.46957 7.21071 7.96086 7.58579 7.58579C7.96086 7.21071 8.46957 7 9 7H11ZM23 7C23.5304 7 24.0391 7.21071 24.4142 7.58579C24.7893 7.96086 25 8.46957 25 9V11C25 11.2652 24.8946 11.5196 24.7071 11.7071C24.5196 11.8946 24.2652 12 24 12C23.7348 12 23.4804 11.8946 23.2929 11.7071C23.1054 11.5196 23 11.2652 23 11V9H21C20.7348 9 20.4804 8.89464 20.2929 8.70711C20.1054 8.51957 20 8.26522 20 8C20 7.73478 20.1054 7.48043 20.2929 7.29289C20.4804 7.10536 20.7348 7 21 7H23Z" fill="black"/>
<path d="M19.1268 17.6374C19.0044 17.6882 18.8933 17.7629 18.8 17.857C18.077 18.565 17.09 19 16 19C14.9526 19.0023 13.9466 18.5916 13.2 17.857C13.1067 17.7629 12.9956 17.6882 12.8732 17.6374C12.7508 17.5866 12.6196 17.5606 12.487 17.561C12.3545 17.5614 12.2234 17.5881 12.1013 17.6396C11.9792 17.6911 11.8685 17.7663 11.7757 17.8609C11.683 17.9556 11.6099 18.0677 11.5609 18.1908C11.5118 18.3139 11.4877 18.4455 11.4899 18.578C11.4922 18.7105 11.5208 18.8413 11.574 18.9626C11.6272 19.084 11.7041 19.1936 11.8 19.285C12.9204 20.3861 14.4291 21.0022 16 21C17.5709 21.0022 19.0796 20.3861 20.2 19.285C20.2959 19.1936 20.3728 19.084 20.426 18.9626C20.4792 18.8413 20.5078 18.7105 20.5101 18.578C20.5123 18.4455 20.4882 18.3139 20.4391 18.1908C20.3901 18.0677 20.317 17.9556 20.2243 17.8609C20.1315 17.7663 20.0208 17.6911 19.8987 17.6396C19.7766 17.5881 19.6455 17.5614 19.513 17.561C19.3804 17.5606 19.2492 17.5866 19.1268 17.6374Z" fill="black"/>
<path d="M13.5607 12.4393C13.2794 12.158 12.8978 12 12.5 12C12.1022 12 11.7206 12.158 11.4393 12.4393C11.158 12.7206 11 13.1022 11 13.5C11 13.8978 11.158 14.2794 11.4393 14.5607C11.7206 14.842 12.1022 15 12.5 15C12.8978 15 13.2794 14.842 13.5607 14.5607C13.842 14.2794 14 13.8978 14 13.5C14 13.1022 13.842 12.7206 13.5607 12.4393Z" fill="black"/>
<path d="M20.5607 12.4393C20.2794 12.158 19.8978 12 19.5 12C19.1022 12 18.7206 12.158 18.4393 12.4393C18.158 12.7206 18 13.1022 18 13.5C18 13.8978 18.158 14.2794 18.4393 14.5607C18.7206 14.842 19.1022 15 19.5 15C19.8978 15 20.2794 14.842 20.5607 14.5607C20.842 14.2794 21 13.8978 21 13.5C21 13.1022 20.842 12.7206 20.5607 12.4393Z" fill="black"/>
</g>
<g clip-path="url(#clip0_19025_18259)">
<path d="M23.9997 28.1668C26.3009 28.1668 28.1663 26.3013 28.1663 24.0002C28.1663 21.699 26.3009 19.8335 23.9997 19.8335C21.6985 19.8335 19.833 21.699 19.833 24.0002C19.833 26.3013 21.6985 28.1668 23.9997 28.1668Z" fill="black"/>
<path d="M23.9997 22.3335V25.6668M22.333 24.0002H25.6663M28.1663 24.0002C28.1663 26.3013 26.3009 28.1668 23.9997 28.1668C21.6985 28.1668 19.833 26.3013 19.833 24.0002C19.833 21.699 21.6985 19.8335 23.9997 19.8335C26.3009 19.8335 28.1663 21.699 28.1663 24.0002Z" stroke="#F3F4F6" stroke-width="0.8" stroke-linecap="round" stroke-linejoin="round"/>
</g>
<defs>
<clipPath id="clip0_19025_18259">
<rect width="10" height="10" fill="white" transform="translate(19 19)"/>
</clipPath>
</defs>
</svg>
