<!-- Generated by IcoMoon.io -->
<svg version="1.1" xmlns="http://www.w3.org/2000/svg" width="32" height="32" viewBox="0 0 32 32">
<path d="M26.667 14.101c0-0.144-0.116-0.262-0.259-0.262h-1.939c-0.142 0-0.259 0.118-0.259 0.262 0 4.593-3.675 8.315-8.21 8.315s-8.21-3.722-8.21-8.315c0-0.144-0.116-0.262-0.259-0.262h-1.939c-0.142 0-0.259 0.118-0.259 0.262 0 5.523 4.092 10.080 9.374 10.725v3.352h-4.697c-0.443 0-0.798 0.468-0.798 1.048v1.179c0 0.144 0.091 0.262 0.2 0.262h13.175c0.11 0 0.2-0.118 0.2-0.262v-1.179c0-0.579-0.356-1.048-0.798-1.048h-4.826v-3.336c5.343-0.589 9.503-5.173 9.503-10.741zM16 19.667c3.035 0 5.495-2.462 5.495-5.5v-7.333c0-3.038-2.46-5.5-5.495-5.5s-5.495 2.462-5.495 5.5v7.333c0 3.038 2.46 5.5 5.495 5.5zM12.962 6.833c0-1.657 1.354-3.012 3.038-3.012s3.038 1.355 3.038 3.012v7.333c0 1.657-1.354 3.012-3.038 3.012s-3.038-1.355-3.038-3.012v-7.333z"></path>
</svg>
