<?xml version="1.0" encoding="UTF-8"?>
<svg id="Layer_1" data-name="Layer 1" xmlns="http://www.w3.org/2000/svg" xmlns:xlink="http://www.w3.org/1999/xlink" version="1.1" viewBox="0 0 25 24">
  <defs>
    <style>
      .cls-1 {
        mask: url(#mask);
      }

      .cls-2 {
        fill: #000;
      }

      .cls-2, .cls-3 {
        stroke-width: 0px;
      }

      .cls-3 {
        fill: #d9d9d9;
      }
    </style>
    <mask id="mask" x=".6" y=".1" width="24" height="24" maskUnits="userSpaceOnUse">
      <g id="mask0_16883_36676" data-name="mask0 16883 36676">
        <rect class="cls-3" x=".6" y=".1" width="24" height="24"/>
      </g>
    </mask>
  </defs>
  <g class="cls-1">
    <path class="cls-2" d="M9.5,18.5c-.3,0-.7,0-1-.2-.3-.2-.6-.4-.8-.7l-3.2-4.6c-.2-.3-.3-.7-.3-1s.1-.7.3-1l3.2-4.5c.2-.3.4-.5.7-.7.3-.2.6-.2,1-.2h9.5c.5,0,.9.2,1.3.5.4.4.5.8.5,1.3v9.4c0,.5-.2.9-.5,1.3-.4.4-.8.5-1.3.5h-9.5ZM9.5,17h9.5c0,0,.1,0,.2,0,0,0,0-.1,0-.2V7.3c0,0,0-.1,0-.2,0,0-.1,0-.2,0h-9.5c0,0-.2,0-.3,0,0,0-.2.1-.2.2l-3.3,4.6c0,0,0,.1,0,.2s0,.1,0,.2l3.3,4.6c0,0,.1.1.2.2,0,0,.2,0,.3,0ZM14.1,13.1l2.1,2.1c.1.1.3.2.5.2.2,0,.4,0,.5-.2.1-.1.2-.3.2-.5s0-.4-.2-.5l-2.1-2.1,2.1-2.1c.1-.1.2-.3.2-.5,0-.2,0-.4-.2-.5-.1-.1-.3-.2-.5-.2s-.4,0-.5.2l-2.1,2.1-2.1-2.1c-.1-.1-.3-.2-.5-.2-.2,0-.4,0-.5.2-.1.1-.2.3-.2.5s0,.4.2.5l2.1,2.1-2.1,2.1c-.1.1-.2.3-.2.5,0,.2,0,.4.2.5.1.1.3.2.5.2s.4,0,.5-.2l2.1-2.1Z"/>
  </g>
</svg>