<!-- Generated by IcoMoon.io -->
<svg version="1.1" xmlns="http://www.w3.org/2000/svg" width="32" height="32" viewBox="0 0 32 32">
<path d="M31.2 23.401c-0.094 0.023-0.067 0.111-0.084 0.169-0.449 1.535-1.615 2.408-3.229 2.41-1.197 0.001-2.395 0.005-3.592-0.005-0.205-0.002-0.309 0.052-0.391 0.248-0.512 1.213-1.039 2.42-1.564 3.627-0.175 0.402-0.422 0.549-0.772 0.475-0.334-0.071-0.534-0.355-0.475-0.691 0.020-0.114 0.059-0.226 0.105-0.332 0.58-1.343 1.171-2.681 1.742-4.028 0.163-0.385 0.414-0.55 0.839-0.546 1.365 0.014 2.731 0.008 4.096 0.004 1.010-0.003 1.731-0.512 1.984-1.395 0.062-0.217 0.077-0.441 0.077-0.666 0.001-2.588 0.002-5.176 0-7.765-0.001-0.934-0.502-1.388-1.446-1.437-0.718-0.037-1.229 0.237-1.656 0.772-0.857 1.074-1.734 2.131-2.59 3.204-0.228 0.286-0.485 0.417-0.86 0.408-0.899-0.020-1.8-0.007-2.699-0.007-0.728 0-1.083 0.471-0.887 1.166 0.039 0.137 0.135 0.090 0.212 0.090 0.594 0.004 1.187 0.002 1.781 0.002 1.049 0 2.098-0.004 3.147 0.004 0.178 0.001 0.288-0.054 0.393-0.195 0.491-0.661 0.993-1.314 1.491-1.97 0.185-0.243 0.416-0.4 0.736-0.317 0.439 0.115 0.601 0.589 0.33 0.987-0.203 0.299-0.435 0.58-0.652 0.871-0.363 0.486-0.862 0.928-1.048 1.473-0.182 0.536-0.065 1.178-0.046 1.773 0.031 0.946-0.185 1.16-1.143 1.129-0.603-0.020-1.207-0.007-1.81-0.003-0.728 0.004-1.133 0.296-1.365 0.981-0.655 1.939-1.309 3.878-1.964 5.817-0.043 0.129-0.086 0.261-0.151 0.379-0.142 0.256-0.43 0.366-0.709 0.287-0.281-0.079-0.464-0.318-0.447-0.613 0.007-0.124 0.038-0.25 0.078-0.369 0.663-1.967 1.329-3.933 1.996-5.899 0.404-1.19 1.286-1.826 2.554-1.843 0.495-0.006 0.99-0.006 1.484 0.002 0.151 0.002 0.21-0.033 0.203-0.193-0.015-0.341 0.117-0.779-0.051-0.995-0.16-0.206-0.63-0.058-0.962-0.059-5.462-0.003-10.924 0-16.386-0.009-0.268 0-0.361 0.062-0.333 0.329 0.025 0.242 0.015 0.488 0.002 0.732-0.009 0.159 0.050 0.195 0.202 0.194 0.583-0.002 1.169-0.019 1.75 0.022 1.15 0.080 1.905 0.705 2.271 1.762 0.694 2.008 1.36 4.025 2.040 6.039 0.095 0.281 0.091 0.542-0.139 0.756-0.179 0.166-0.399 0.212-0.633 0.132-0.248-0.084-0.358-0.283-0.437-0.516-0.665-1.977-1.335-3.952-2.003-5.927-0.245-0.725-0.636-1.008-1.402-1.011-0.703-0.002-1.405 0.002-2.107-0.001-0.571-0.002-0.81-0.238-0.813-0.8-0.004-0.625-0.006-1.25 0.002-1.875 0.002-0.176-0.046-0.317-0.154-0.456-0.527-0.683-1.053-1.367-1.567-2.060-0.305-0.411-0.175-0.874 0.268-1.026 0.273-0.094 0.534 0.005 0.763 0.304 0.495 0.645 0.991 1.291 1.474 1.946 0.118 0.159 0.239 0.222 0.44 0.221 1.613-0.008 3.226-0.009 4.838 0.001 0.221 0.001 0.311-0.050 0.274-0.272-0.012-0.076-0.001-0.156-0.002-0.234-0.007-0.509-0.243-0.752-0.764-0.756-0.94-0.006-1.88-0.015-2.82 0.005-0.375 0.008-0.631-0.123-0.859-0.409-0.868-1.089-1.773-2.151-2.624-3.252-0.558-0.722-1.289-0.817-2.094-0.674-0.615 0.11-0.973 0.643-0.975 1.358-0.003 1.602-0.001 3.203-0.001 4.805 0 1.016-0.005 2.031 0.002 3.047 0.007 0.975 0.529 1.682 1.415 1.928 0.229 0.064 0.467 0.076 0.704 0.076 1.346 0 2.692 0.009 4.037-0.005 0.425-0.005 0.675 0.161 0.839 0.545 0.579 1.364 1.18 2.72 1.767 4.081 0.222 0.514 0.011 0.939-0.481 0.99-0.295 0.031-0.527-0.133-0.685-0.495-0.518-1.189-1.041-2.376-1.544-3.572-0.098-0.234-0.211-0.31-0.472-0.307-1.177 0.018-2.355 0.009-3.532 0.008-1.614-0.002-2.78-0.875-3.229-2.41-0.017-0.057 0.009-0.145-0.084-0.169v-9.143c0.163-0.201 0.167-0.465 0.293-0.686 0.513-0.903 1.306-1.294 2.33-1.357 1.136-0.070 2.013 0.347 2.706 1.217 0.795 0.997 1.608 1.98 2.406 2.975 0.115 0.144 0.232 0.202 0.421 0.2 0.821-0.012 1.642-0.006 2.464-0.005 1.235 0.003 2.026 0.77 2.043 1.981 0.005 0.349 0.189 0.524 0.553 0.524 1.395 0 2.79-0.007 4.185 0.006 0.267 0.002 0.362-0.057 0.341-0.334-0.054-0.711 0.147-1.33 0.742-1.785 0.281-0.215 0.599-0.338 0.95-0.374 0.135-0.014 0.211-0.032 0.208-0.201-0.030-1.298 0.050-2.598-0.046-3.895-0.077-1.047-1.093-2.071-2.148-2.132-1.491-0.086-2.986-0.086-4.477-0.001-1.076 0.061-2.072 1.079-2.171 2.145-0.066 0.712-0.014 1.425-0.039 2.137-0.016 0.474-0.344 0.742-0.773 0.646-0.288-0.064-0.469-0.262-0.47-0.53-0.002-0.944-0.124-1.897 0.1-2.83 0.391-1.629 1.856-2.817 3.549-2.851 1.355-0.027 2.712-0.029 4.067 0 1.992 0.044 3.614 1.657 3.659 3.63 0.027 1.191 0.016 2.383 0.001 3.575-0.003 0.254 0.073 0.307 0.311 0.293 0.432-0.025 0.926 0.104 1.283-0.062 0.347-0.161 0.559-0.611 0.825-0.937 0.607-0.746 1.215-1.491 1.816-2.241 0.71-0.887 1.635-1.222 2.767-1.147 1.342 0.088 2.261 0.984 2.454 2.038 0.004 0.022 0.034 0.039 0.052 0.059v9.084l0.001 0.003z"></path>
<path d="M0.799 7.285c0.106-0.053 0.086-0.165 0.113-0.251 0.377-1.202 1.181-1.98 2.423-2.237 1.197-0.247 2.236 0.115 3.030 1.044 0.886 1.038 1.031 2.212 0.415 3.408-0.608 1.18-1.639 1.766-2.995 1.719-1.319-0.046-2.528-1.024-2.871-2.288-0.026-0.096-0.012-0.214-0.115-0.282v-1.113zM3.98 5.983c-1.044-0.008-1.917 0.844-1.914 1.869 0.002 1.015 0.849 1.856 1.887 1.874 1.031 0.018 1.907-0.844 1.906-1.876 0-1.026-0.838-1.859-1.879-1.867z"></path>
<path d="M31.2 8.398c-0.103 0.043-0.081 0.149-0.102 0.225-0.407 1.465-1.715 2.416-3.24 2.349-1.265-0.056-2.424-0.934-2.833-2.146-0.405-1.198-0.021-2.533 0.959-3.338 1.867-1.534 4.555-0.639 5.149 1.714 0.013 0.050-0.018 0.123 0.066 0.142v1.055zM26.141 7.824c-0.017 1.032 0.829 1.888 1.879 1.903 1.018 0.015 1.876-0.815 1.911-1.849 0.035-1.009-0.839-1.886-1.886-1.894-1.039-0.008-1.888 0.811-1.904 1.84z"></path>
<path d="M19.161 4.717c0.006 1.718-1.423 3.136-3.161 3.136-1.725 0-3.147-1.398-3.161-3.107-0.013-1.722 1.404-3.14 3.147-3.147 1.745-0.007 3.169 1.392 3.175 3.117zM15.986 6.592c1.048 0.008 1.914-0.838 1.913-1.868-0.001-1.015-0.847-1.857-1.885-1.874-1.028-0.017-1.913 0.85-1.913 1.876 0 1.020 0.847 1.858 1.885 1.866z"></path>
<path d="M16.001 11.604c0.425 0 0.638 0.211 0.638 0.633 0 0.41-0.208 0.616-0.625 0.616-0.435 0-0.653-0.206-0.653-0.617 0-0.421 0.214-0.631 0.64-0.631z"></path>
<path d="M16.639 25.977c0 1.376-0.004 2.751 0.005 4.128 0.001 0.202-0.050 0.281-0.262 0.261-0.331-0.032-0.764 0.137-0.967-0.068-0.188-0.189-0.051-0.613-0.051-0.932-0.004-2.488 0.002-4.976-0.008-7.464-0.001-0.241 0.056-0.332 0.308-0.307 0.215 0.022 0.436 0.021 0.651 0 0.253-0.025 0.335 0.043 0.332 0.314-0.017 1.356-0.008 2.712-0.008 4.069z"></path>
</svg>
