<!-- Generated by IcoMoon.io -->
<svg version="1.1" xmlns="http://www.w3.org/2000/svg" width="32" height="32" viewBox="0 0 32 32">
<path fill="#fefbff" stroke="#9ca3af" stroke-linejoin="miter" stroke-linecap="butt" stroke-miterlimit="4" stroke-width="1.3333" d="M31.333 16c0 8.468-6.865 15.333-15.333 15.333s-15.333-6.865-15.333-15.333c0-8.468 6.865-15.333 15.333-15.333s15.333 6.865 15.333 15.333z"></path>
<path fill="none" stroke="#1f2937" stroke-linejoin="round" stroke-linecap="round" stroke-miterlimit="4" stroke-width="1.4713" d="M23.333 20.667c0 0.354-0.141 0.693-0.391 0.943s-0.589 0.391-0.943 0.391h-12c-0.354 0-0.693-0.141-0.943-0.391s-0.391-0.589-0.391-0.943v-7.333c0-0.354 0.14-0.693 0.391-0.943s0.589-0.391 0.943-0.391h2.667l1.333-2h4l1.333 2h2.667c0.354 0 0.693 0.14 0.943 0.391s0.391 0.589 0.391 0.943v7.333z"></path>
<path fill="none" stroke="#1f2937" stroke-linejoin="round" stroke-linecap="round" stroke-miterlimit="4" stroke-width="1.4713" d="M16 19.333c1.473 0 2.667-1.194 2.667-2.667s-1.194-2.667-2.667-2.667c-1.473 0-2.667 1.194-2.667 2.667s1.194 2.667 2.667 2.667z"></path>
</svg>
