<!-- Generated by IcoMoon.io -->
<svg version="1.1" xmlns="http://www.w3.org/2000/svg" width="32" height="32" viewBox="0 0 32 32">
<path d="M16 5.333c-5.893 0-10.667 4.773-10.667 10.667s4.773 10.667 10.667 10.667c5.893 0 10.667-4.773 10.667-10.667s-4.773-10.667-10.667-10.667zM21.427 13.4l-6.547 6.547c-0.147 0.147-0.307 0.213-0.493 0.213s-0.36-0.067-0.493-0.213l-3.067-3.067c-0.147-0.147-0.213-0.307-0.2-0.507 0-0.2 0.080-0.36 0.227-0.507s0.307-0.213 0.507-0.213c0.2 0 0.36 0.067 0.507 0.213l2.52 2.547 6.027-6.027c0.147-0.147 0.307-0.213 0.507-0.213s0.36 0.067 0.507 0.213c0.147 0.147 0.213 0.307 0.213 0.507s-0.067 0.36-0.213 0.507z"></path>
</svg>
