<svg width="32" height="32" viewBox="0 0 32 32" fill="none" xmlns="http://www.w3.org/2000/svg">
<mask id="mask0_19081_8565" style="mask-type:alpha" maskUnits="userSpaceOnUse" x="4" y="4" width="24" height="24">
<rect x="4" y="4" width="24" height="24" fill="#D9D9D9"/>
</mask>
<g mask="url(#mask0_19081_8565)">
<path d="M15.9985 8.5C18.0918 8.5 19.8654 9.22642 21.3193 10.6792C22.7731 12.1321 23.5 13.9052 23.5 15.9985C23.5 18.0918 22.7736 19.8654 21.3208 21.3193C19.8679 22.7731 18.0948 23.5 16.0015 23.5C13.9082 23.5 12.1346 22.7736 10.6808 21.3207C9.22692 19.8679 8.5 18.0948 8.5 16.0015C8.5 13.9082 9.22642 12.1346 10.6793 10.6807C12.1321 9.22692 13.9052 8.5 15.9985 8.5ZM16 22C17.6667 22 19.0833 21.4167 20.25 20.25C21.4167 19.0833 22 17.6667 22 16C22 14.3333 21.4167 12.9167 20.25 11.75C19.0833 10.5833 17.6667 10 16 10C14.3333 10 12.9167 10.5833 11.75 11.75C10.5833 12.9167 10 14.3333 10 16C10 17.6667 10.5833 19.0833 11.75 20.25C12.9167 21.4167 14.3333 22 16 22ZM12.6348 14.0017C12.6348 14.2582 12.7215 14.4728 12.895 14.6453C13.0685 14.8176 13.2836 14.9038 13.5402 14.9038C13.7967 14.9038 14.0113 14.817 14.1838 14.6435C14.3561 14.47 14.4423 14.2549 14.4423 13.9983C14.4423 13.7418 14.3555 13.5273 14.182 13.3548C14.0085 13.1824 13.7934 13.0962 13.5367 13.0962C13.2802 13.0962 13.0658 13.183 12.8933 13.3565C12.7209 13.53 12.6348 13.7451 12.6348 14.0017ZM17.5577 14.0017C17.5577 14.2582 17.6445 14.4728 17.818 14.6453C17.9915 14.8176 18.2066 14.9038 18.4633 14.9038C18.7198 14.9038 18.9343 14.817 19.1068 14.6435C19.2791 14.47 19.3652 14.2549 19.3652 13.9983C19.3652 13.7418 19.2785 13.5273 19.105 13.3548C18.9315 13.1824 18.7164 13.0962 18.4598 13.0962C18.2033 13.0962 17.9888 13.183 17.8163 13.3565C17.6439 13.53 17.5577 13.7451 17.5577 14.0017ZM5.5 9.25V7.30775C5.5 6.81058 5.677 6.385 6.031 6.031C6.385 5.677 6.81058 5.5 7.30775 5.5H9.25C9.4625 5.5 9.64067 5.57192 9.7845 5.71575C9.92817 5.85958 10 6.03775 10 6.25025C10 6.46292 9.92817 6.641 9.7845 6.7845C9.64067 6.92817 9.4625 7 9.25 7H7.30775C7.21792 7 7.14417 7.02883 7.0865 7.0865C7.02883 7.14417 7 7.21792 7 7.30775V9.25C7 9.4625 6.92808 9.64067 6.78425 9.7845C6.64042 9.92817 6.46225 10 6.24975 10C6.03708 10 5.859 9.92817 5.7155 9.7845C5.57183 9.64067 5.5 9.4625 5.5 9.25ZM9.25 26.5H7.30775C6.81058 26.5 6.385 26.323 6.031 25.969C5.677 25.615 5.5 25.1894 5.5 24.6923V22.75C5.5 22.5375 5.57192 22.3593 5.71575 22.2155C5.85958 22.0718 6.03775 22 6.25025 22C6.46292 22 6.641 22.0718 6.7845 22.2155C6.92817 22.3593 7 22.5375 7 22.75V24.6923C7 24.7821 7.02883 24.8558 7.0865 24.9135C7.14417 24.9712 7.21792 25 7.30775 25H9.25C9.4625 25 9.64067 25.0719 9.7845 25.2157C9.92817 25.3596 10 25.5377 10 25.7502C10 25.9629 9.92817 26.141 9.7845 26.2845C9.64067 26.4282 9.4625 26.5 9.25 26.5ZM24.6923 26.4038H22.75C22.5375 26.4038 22.3593 26.3318 22.2155 26.188C22.0718 26.0442 22 25.866 22 25.6535C22 25.4408 22.0718 25.2628 22.2155 25.1193C22.3593 24.9756 22.5375 24.9038 22.75 24.9038H24.6923C24.7821 24.9038 24.8558 24.8749 24.9135 24.8173C24.9712 24.7596 25 24.6858 25 24.596V22.6538C25 22.4413 25.0719 22.2632 25.2157 22.1195C25.3596 21.9757 25.5377 21.9038 25.7502 21.9038C25.9629 21.9038 26.141 21.9757 26.2845 22.1195C26.4282 22.2632 26.5 22.4413 26.5 22.6538V24.596C26.5 25.0932 26.323 25.5188 25.969 25.8728C25.615 26.2268 25.1894 26.4038 24.6923 26.4038ZM25 9.25V7.30775C25 7.21792 24.9712 7.14417 24.9135 7.0865C24.8558 7.02883 24.7821 7 24.6923 7H22.75C22.5375 7 22.3593 6.92808 22.2155 6.78425C22.0718 6.64042 22 6.46225 22 6.24975C22 6.03708 22.0718 5.859 22.2155 5.7155C22.3593 5.57183 22.5375 5.5 22.75 5.5H24.6923C25.1894 5.5 25.615 5.677 25.969 6.031C26.323 6.385 26.5 6.81058 26.5 7.30775V9.25C26.5 9.4625 26.4281 9.64067 26.2843 9.7845C26.1404 9.92817 25.9623 10 25.7498 10C25.5371 10 25.359 9.92817 25.2155 9.7845C25.0718 9.64067 25 9.4625 25 9.25ZM16 19.3077C16.5948 19.3077 17.1503 19.1706 17.6663 18.8962C18.1823 18.6217 18.6069 18.2454 18.9402 17.7673C19.0339 17.5968 19.033 17.4263 18.9375 17.2558C18.842 17.0853 18.6923 17 18.4885 17H13.5115C13.3077 17 13.158 17.0853 13.0625 17.2558C12.967 17.4263 12.9661 17.5968 13.0598 17.7673C13.3931 18.2454 13.8178 18.6217 14.3338 18.8962C14.8498 19.1706 15.4052 19.3077 16 19.3077Z" fill="black"/>
</g>
</svg>
