<?xml version="1.0" encoding="UTF-8"?>
<svg id="Layer_1" data-name="Layer 1" xmlns="http://www.w3.org/2000/svg" xmlns:xlink="http://www.w3.org/1999/xlink" version="1.1" viewBox="0 0 24 24">
  <defs>
    <style>
      .cls-1 {
        mask: url(#mask);
      }

      .cls-2 {
        fill: #000;
      }

      .cls-2, .cls-3 {
        stroke-width: 0px;
      }

      .cls-3 {
        fill: #d9d9d9;
      }
    </style>
    <mask id="mask" x="0" y="0" width="24" height="24" maskUnits="userSpaceOnUse">
      <g id="mask0_16059_32638" data-name="mask0 16059 32638">
        <rect class="cls-3" y="0" width="24" height="24"/>
      </g>
    </mask>
  </defs>
  <g class="cls-1">
    <path class="cls-2" d="M6.7,13.9c.2,0,.4,0,.6-.2s.2-.4.2-.6,0-.4-.2-.6-.4-.2-.6-.2-.4,0-.6.2c-.2.2-.2.4-.2.6s0,.4.2.6c.2.2.4.2.6.2ZM6.7,9.6c.2,0,.4,0,.6-.2.2-.2.2-.4.2-.6s0-.4-.2-.6c-.2-.2-.4-.2-.6-.2s-.4,0-.6.2c-.2.2-.2.4-.2.6s0,.4.2.6c.2.2.4.2.6.2ZM9.7,13.8h7.6c.2,0,.4,0,.6-.2.2-.2.2-.3.2-.6s0-.4-.2-.6c-.2-.2-.3-.2-.6-.2h-7.6c-.2,0-.4,0-.6.2-.2.2-.2.3-.2.6s0,.4.2.6c.2.2.3.2.6.2ZM9.7,9.6h7.6c.2,0,.4,0,.6-.2.2-.2.2-.3.2-.6s0-.4-.2-.6c-.2-.2-.3-.2-.6-.2h-7.6c-.2,0-.4,0-.6.2-.2.2-.2.3-.2.6s0,.4.2.6c.2.2.3.2.6.2ZM3.9,18.8c-.5,0-1-.2-1.4-.6-.4-.4-.6-.8-.6-1.4V4.9c0-.5.2-1,.6-1.4.4-.4.8-.6,1.4-.6h16.2c.5,0,1,.2,1.4.6.4.4.6.8.6,1.4v12c0,.5-.2,1-.6,1.4-.4.4-.8.6-1.4.6h-4.4v1.2c0,.3,0,.5-.3.7-.2.2-.4.3-.7.3h-5.5c-.3,0-.5,0-.7-.3-.2-.2-.3-.4-.3-.7v-1.2H3.9ZM3.9,17.2h16.2c0,0,.2,0,.2-.1,0,0,.1-.1.1-.2V4.9c0,0,0-.2-.1-.2,0,0-.1-.1-.2-.1H3.9c0,0-.2,0-.2.1,0,0-.1.1-.1.2v12c0,0,0,.2.1.2,0,0,.1.1.2.1Z"/>
  </g>
</svg>