<!-- Generated by IcoMoon.io -->
<svg version="1.1" xmlns="http://www.w3.org/2000/svg" width="32" height="32" viewBox="0 0 32 32">
<path d="M7.863 23.679c0.064 0 0.128-0.006 0.192-0.016l5.382-0.944c0.064-0.013 0.125-0.042 0.17-0.090l13.565-13.565c0.030-0.030 0.053-0.065 0.069-0.103s0.024-0.080 0.024-0.122-0.008-0.083-0.024-0.122c-0.016-0.039-0.040-0.074-0.069-0.103l-5.318-5.322c-0.061-0.061-0.141-0.093-0.227-0.093s-0.166 0.032-0.227 0.093l-13.565 13.565c-0.048 0.048-0.077 0.106-0.090 0.17l-0.944 5.382c-0.031 0.171-0.020 0.348 0.032 0.514s0.145 0.317 0.268 0.44c0.211 0.205 0.477 0.317 0.762 0.317zM10.020 18.098l11.606-11.603 2.346 2.346-11.606 11.603-2.845 0.502 0.499-2.848zM27.777 26.367h-23.552c-0.566 0-1.024 0.458-1.024 1.024v1.152c0 0.141 0.115 0.256 0.256 0.256h25.088c0.141 0 0.256-0.115 0.256-0.256v-1.152c0-0.566-0.458-1.024-1.024-1.024z"></path>
</svg>
