<svg width="32" height="32" viewBox="0 0 32 32" fill="none" xmlns="http://www.w3.org/2000/svg">
<mask id="mask0_19025_18265" style="mask-type:alpha" maskUnits="userSpaceOnUse" x="4" y="4" width="24" height="24">
<rect x="4" y="4" width="24" height="24" fill="#D9D9D9"/>
</mask>
<g mask="url(#mask0_19025_18265)">
<path d="M4.5 9.01683C4.59285 8.92722 4.57699 8.79931 4.61283 8.69025C4.9531 7.65393 5.8781 7.00254 7.03172 7.00136C9.51642 6.99959 12.0017 7.00077 14.4864 7.00077C16.9488 7.00077 19.4111 6.99841 21.8735 7.00195C23.0994 7.00372 24.0421 7.72702 24.3277 8.87594C24.3823 9.09523 24.3964 9.31924 24.3964 9.54501C24.3947 10.6338 24.3999 11.722 24.3911 12.8108C24.39 12.9847 24.4399 13.0206 24.6033 13.0183C25.007 13.0124 25.4137 12.9806 25.8139 13.0501C26.7795 13.2181 27.4829 14.0446 27.4911 15.0697C27.5064 17.0439 27.4982 19.0187 27.4941 20.9929C27.4929 21.4704 27.1415 21.8365 26.6931 21.8547C26.2323 21.8736 25.8727 21.5553 25.8139 21.0743C25.8033 20.9852 25.8027 20.8945 25.8027 20.8049C25.8021 18.9503 25.8027 17.0964 25.8027 15.2418C25.8027 14.8027 25.704 14.7066 25.258 14.706C24.1126 14.706 22.9678 14.706 21.8224 14.706C21.3975 14.706 21.2952 14.8092 21.2952 15.2365C21.2952 17.7513 21.2952 20.2661 21.2952 22.7814C21.2952 23.1923 21.3993 23.2949 21.8159 23.2949C23.0283 23.2949 24.2407 23.2925 25.4537 23.2972C25.8415 23.299 26.1448 23.5342 26.2588 23.8962C26.3669 24.2392 26.2388 24.6159 25.9426 24.8329C25.7716 24.9578 25.5759 24.9961 25.3708 24.9967C24.1584 24.9979 22.9454 25.0044 21.7331 24.995C20.6935 24.9867 19.943 24.4125 19.6668 23.431C19.6098 23.2289 19.5945 23.0184 19.5945 22.808C19.5945 20.2708 19.5933 17.733 19.5951 15.1959C19.5963 13.8949 20.4631 13.023 21.7572 13.0142C22.0193 13.0124 22.2814 13.0089 22.5429 13.0165C22.6575 13.0201 22.6986 12.9888 22.698 12.8674C22.6933 11.7114 22.698 10.5554 22.691 9.39941C22.6886 9.03333 22.4142 8.75274 22.0475 8.7097C21.9734 8.70086 21.8982 8.70381 21.823 8.70381C16.9053 8.70381 11.9882 8.70381 7.0705 8.70381C7.04817 8.70381 7.02584 8.70381 7.00292 8.70381C6.48282 8.70852 6.19956 8.98853 6.19898 9.51259C6.19663 11.3371 6.19839 13.1609 6.19839 14.9854C6.19839 16.3218 6.21661 17.6582 6.19075 18.994C6.17841 19.6424 6.51162 19.9395 7.12046 19.9365C10.4138 19.9206 13.7071 19.9295 16.9999 19.9283C17.165 19.9283 17.3296 19.9318 17.4865 19.9896C17.8638 20.1293 18.0812 20.5107 18.0219 20.9245C17.966 21.3148 17.6246 21.6207 17.2103 21.6278C16.6344 21.6372 16.0579 21.6355 15.4813 21.6278C15.3409 21.626 15.2892 21.6555 15.2933 21.8094C15.3045 22.2444 15.3045 22.68 15.2933 23.1157C15.2892 23.2683 15.3385 23.3002 15.4813 23.299C16.1102 23.2919 16.739 23.2902 17.3672 23.2996C17.7868 23.3061 18.1165 23.6097 18.1847 24.0258C18.247 24.4025 18.0107 24.7975 17.6405 24.936C17.5124 24.9838 17.379 24.9973 17.2438 24.9973C15.3803 24.9973 13.5162 24.9985 11.6526 24.9967C11.1989 24.9967 10.8781 24.7869 10.7523 24.4237C10.6354 24.0866 10.7388 23.7223 11.0185 23.4894C11.1872 23.3491 11.3829 23.2937 11.6003 23.2943C12.2068 23.2966 12.8127 23.2896 13.4192 23.299C13.569 23.3014 13.609 23.2583 13.6055 23.1115C13.5961 22.6912 13.5937 22.2703 13.6061 21.8506C13.6114 21.6785 13.5696 21.626 13.388 21.6266C11.367 21.6337 9.34658 21.6319 7.32556 21.6302C7.05699 21.6302 6.78783 21.6478 6.51985 21.5942C5.52491 21.3967 4.89081 20.8025 4.58521 19.8405C4.56406 19.7744 4.58051 19.6884 4.5 19.6477V9.01683Z" fill="black"/>
<path d="M8.5 12C8.5 11.4477 8.94772 11 9.5 11H13.5C14.0523 11 14.5 11.4477 14.5 12C14.5 12.5523 14.0523 13 13.5 13H9.5C8.94772 13 8.5 12.5523 8.5 12Z" fill="black"/>
<path d="M8.5 15C8.5 14.4477 8.94772 14 9.5 14H11.5C12.0523 14 12.5 14.4477 12.5 15C12.5 15.5523 12.0523 16 11.5 16H9.5C8.94772 16 8.5 15.5523 8.5 15Z" fill="black"/>
</g>
<g clip-path="url(#clip0_19025_18265)">
<path d="M23.9997 28.1668C26.3009 28.1668 28.1663 26.3013 28.1663 24.0002C28.1663 21.699 26.3009 19.8335 23.9997 19.8335C21.6985 19.8335 19.833 21.699 19.833 24.0002C19.833 26.3013 21.6985 28.1668 23.9997 28.1668Z" fill="black"/>
<path d="M23.9997 22.3335V25.6668M22.333 24.0002H25.6663M28.1663 24.0002C28.1663 26.3013 26.3009 28.1668 23.9997 28.1668C21.6985 28.1668 19.833 26.3013 19.833 24.0002C19.833 21.699 21.6985 19.8335 23.9997 19.8335C26.3009 19.8335 28.1663 21.699 28.1663 24.0002Z" stroke="#F3F4F6" stroke-width="0.8" stroke-linecap="round" stroke-linejoin="round"/>
</g>
<defs>
<clipPath id="clip0_19025_18265">
<rect width="10" height="10" fill="white" transform="translate(19 19)"/>
</clipPath>
</defs>
</svg>
