<!-- Generated by IcoMoon.io -->
<svg version="1.1" xmlns="http://www.w3.org/2000/svg" width="32" height="32" viewBox="0 0 32 32">
<path d="M16 5.333c-5.867 0-10.667 4.8-10.667 10.667s4.8 10.667 10.667 10.667c5.867 0 10.667-4.8 10.667-10.667s-4.8-10.667-10.667-10.667zM15.067 11.333c0-0.533 0.4-0.933 0.933-0.933s0.933 0.4 0.933 0.933v5.2c0 0.533-0.4 0.933-0.933 0.933s-0.933-0.4-0.933-0.8v-5.333zM16 21.6c-0.8 0-1.333-0.533-1.333-1.333s0.533-1.333 1.333-1.333c0.8 0 1.333 0.533 1.333 1.333 0 0.667-0.533 1.333-1.333 1.333z"></path>
</svg>
