<?xml version="1.0" encoding="UTF-8"?>
<svg id="Layer_1" data-name="Layer 1" xmlns="http://www.w3.org/2000/svg" xmlns:xlink="http://www.w3.org/1999/xlink" version="1.1" viewBox="0 0 24 24">
  <defs>
    <style>
      .cls-1 {
        mask: url(#mask);
      }

      .cls-2 {
        fill: #000;
      }

      .cls-2, .cls-3 {
        stroke-width: 0px;
      }

      .cls-3 {
        fill: #d9d9d9;
      }
    </style>
    <mask id="mask" x="0" y="0" width="24" height="24" maskUnits="userSpaceOnUse">
      <g id="mask0_17515_42395" data-name="mask0 17515 42395">
        <rect class="cls-3" y="0" width="24" height="24"/>
      </g>
    </mask>
  </defs>
  <g class="cls-1">
    <path class="cls-2" d="M4.3,19.5c-.5,0-.9-.2-1.3-.5-.4-.4-.5-.8-.5-1.3V6.3c0-.5.2-.9.5-1.3.3-.3.8-.5,1.3-.5h4.7c.2,0,.5,0,.7.1.2,0,.4.2.6.4l1.5,1.5h7.9c.5,0,.9.2,1.3.5s.5.8.5,1.3v9.4c0,.5-.2.9-.5,1.3s-.8.5-1.3.5H4.3ZM4.3,18h15.4c0,0,.2,0,.2,0,0,0,0-.1,0-.2v-9.4c0,0,0-.2,0-.2,0,0-.1,0-.2,0h-8.5l-1.9-1.9s0,0-.1,0c0,0,0,0-.1,0h-4.8c0,0-.2,0-.2,0,0,0,0,.1,0,.2v11.4c0,0,0,.2,0,.2,0,0,.1,0,.2,0Z"/>
  </g>
</svg>