<svg width="24" height="24" viewBox="0 0 24 24" fill="none" xmlns="http://www.w3.org/2000/svg">
<path d="M4 16C4.24493 16 4.48134 16.09 4.66437 16.2527C4.84741 16.4155 4.96434 16.6397 4.993 16.883L5 17V19H7C7.25488 19.0003 7.50003 19.0979 7.68537 19.2728C7.8707 19.4478 7.98223 19.687 7.99717 19.9414C8.01211 20.1958 7.92933 20.4464 7.76574 20.6418C7.60214 20.8373 7.3701 20.9629 7.117 20.993L7 21H5C4.49542 21.0002 4.00943 20.8096 3.63945 20.4665C3.26947 20.1234 3.04284 19.6532 3.005 19.15L3 19V17C3 16.7348 3.10536 16.4804 3.29289 16.2929C3.48043 16.1054 3.73478 16 4 16ZM20 16C20.2652 16 20.5196 16.1054 20.7071 16.2929C20.8946 16.4804 21 16.7348 21 17V19C21 19.5304 20.7893 20.0391 20.4142 20.4142C20.0391 20.7893 19.5304 21 19 21H17C16.7348 21 16.4804 20.8946 16.2929 20.7071C16.1054 20.5196 16 20.2652 16 20C16 19.7348 16.1054 19.4804 16.2929 19.2929C16.4804 19.1054 16.7348 19 17 19H19V17C19 16.7348 19.1054 16.4804 19.2929 16.2929C19.4804 16.1054 19.7348 16 20 16ZM7 3C7.26522 3 7.51957 3.10536 7.70711 3.29289C7.89464 3.48043 8 3.73478 8 4C8 4.26522 7.89464 4.51957 7.70711 4.70711C7.51957 4.89464 7.26522 5 7 5H5V7C5 7.26522 4.89464 7.51957 4.70711 7.70711C4.51957 7.89464 4.26522 8 4 8C3.73478 8 3.48043 7.89464 3.29289 7.70711C3.10536 7.51957 3 7.26522 3 7V5C3 4.46957 3.21071 3.96086 3.58579 3.58579C3.96086 3.21071 4.46957 3 5 3H7ZM19 3C19.5304 3 20.0391 3.21071 20.4142 3.58579C20.7893 3.96086 21 4.46957 21 5V7C21 7.26522 20.8946 7.51957 20.7071 7.70711C20.5196 7.89464 20.2652 8 20 8C19.7348 8 19.4804 7.89464 19.2929 7.70711C19.1054 7.51957 19 7.26522 19 7V5H17C16.7348 5 16.4804 4.89464 16.2929 4.70711C16.1054 4.51957 16 4.26522 16 4C16 3.73478 16.1054 3.48043 16.2929 3.29289C16.4804 3.10536 16.7348 3 17 3H19Z" fill="black"/>
<path d="M15.1268 13.6374C15.0044 13.6882 14.8933 13.7629 14.8 13.857C14.077 14.565 13.09 15 12 15C10.9526 15.0023 9.94658 14.5916 9.2 13.857C9.1067 13.7629 8.99563 13.6882 8.87323 13.6374C8.75084 13.5866 8.61957 13.5606 8.48704 13.561C8.35452 13.5614 8.22339 13.5881 8.10128 13.6396C7.97916 13.6911 7.8685 13.7663 7.77573 13.8609C7.68295 13.9556 7.60991 14.0677 7.56085 14.1908C7.51179 14.3139 7.48769 14.4455 7.48995 14.578C7.4922 14.7105 7.52078 14.8413 7.57401 14.9626C7.62723 15.084 7.70405 15.1936 7.8 15.285C8.92039 16.3861 10.4291 17.0022 12 17C13.5709 17.0022 15.0796 16.3861 16.2 15.285C16.2959 15.1936 16.3728 15.084 16.426 14.9626C16.4792 14.8413 16.5078 14.7105 16.5101 14.578C16.5123 14.4455 16.4882 14.3139 16.4391 14.1908C16.3901 14.0677 16.317 13.9556 16.2243 13.8609C16.1315 13.7663 16.0208 13.6911 15.8987 13.6396C15.7766 13.5881 15.6455 13.5614 15.513 13.561C15.3804 13.5606 15.2492 13.5866 15.1268 13.6374Z" fill="black"/>
<path d="M9.56066 8.43934C9.27936 8.15804 8.89782 8 8.5 8C8.10218 8 7.72064 8.15804 7.43934 8.43934C7.15804 8.72064 7 9.10218 7 9.5C7 9.89782 7.15804 10.2794 7.43934 10.5607C7.72064 10.842 8.10218 11 8.5 11C8.89782 11 9.27936 10.842 9.56066 10.5607C9.84196 10.2794 10 9.89782 10 9.5C10 9.10218 9.84196 8.72064 9.56066 8.43934Z" fill="black"/>
<path d="M16.5607 8.43934C16.2794 8.15804 15.8978 8 15.5 8C15.1022 8 14.7206 8.15804 14.4393 8.43934C14.158 8.72064 14 9.10218 14 9.5C14 9.89782 14.158 10.2794 14.4393 10.5607C14.7206 10.842 15.1022 11 15.5 11C15.8978 11 16.2794 10.842 16.5607 10.5607C16.842 10.2794 17 9.89782 17 9.5C17 9.10218 16.842 8.72064 16.5607 8.43934Z" fill="black"/>
</svg>
