<!-- Generated by IcoMoon.io -->
<svg version="1.1" xmlns="http://www.w3.org/2000/svg" width="32" height="32" viewBox="0 0 32 32">
<path d="M15.999 5.333c-2.107 0-4.173 0.627-5.92 1.8-1.76 1.173-3.12 2.84-3.933 4.787s-1.013 4.093-0.613 6.16c0.413 2.067 1.427 3.973 2.92 5.467s3.387 2.507 5.467 2.92c2.080 0.413 4.213 0.2 6.16-0.613s3.613-2.173 4.787-3.933c1.173-1.76 1.8-3.813 1.8-5.92 0-2.827-1.133-5.533-3.133-7.533s-4.707-3.133-7.533-3.133zM16.226 9.773c0.267 0 0.52 0.080 0.747 0.227 0.213 0.147 0.387 0.36 0.493 0.6s0.133 0.507 0.080 0.773c-0.053 0.253-0.173 0.493-0.36 0.68s-0.427 0.32-0.68 0.36c-0.253 0.053-0.533 0.027-0.773-0.080s-0.453-0.267-0.6-0.493c-0.147-0.213-0.227-0.48-0.227-0.747 0-0.36 0.147-0.693 0.387-0.947s0.587-0.387 0.947-0.387l-0.013 0.013zM18.226 21.773h-3.56c-0.24 0-0.467-0.093-0.627-0.267-0.173-0.173-0.267-0.387-0.267-0.627s0.093-0.467 0.267-0.627c0.173-0.173 0.387-0.267 0.627-0.267h0.667c0 0 0.12-0.027 0.16-0.067s0.067-0.093 0.067-0.16v-4c0 0-0.027-0.12-0.067-0.16s-0.093-0.067-0.16-0.067h-0.667c-0.24 0-0.467-0.093-0.627-0.267-0.173-0.173-0.267-0.387-0.267-0.627s0.093-0.467 0.267-0.627c0.173-0.173 0.387-0.267 0.627-0.267h0.893c0.467 0 0.92 0.187 1.253 0.52s0.52 0.787 0.52 1.253v4.227c0 0 0.027 0.12 0.067 0.16s0.093 0.067 0.16 0.067h0.667c0.24 0 0.467 0.093 0.627 0.267 0.16 0.16 0.267 0.387 0.267 0.627s-0.093 0.467-0.267 0.627c-0.16 0.16-0.387 0.267-0.627 0.267v0.013z"></path>
</svg>
