<!-- Generated by IcoMoon.io -->
<svg version="1.1" xmlns="http://www.w3.org/2000/svg" width="32" height="32" viewBox="0 0 32 32">
<path d="M12 9.333c0-1.473 1.194-2.667 2.667-2.667h2.667c1.473 0 2.667 1.194 2.667 2.667h-8zM9.333 9.333h-1.333c-2.946 0-5.333 2.388-5.333 5.333v8c0 2.945 2.388 5.333 5.333 5.333h16c2.945 0 5.333-2.388 5.333-5.333v-8c0-2.946-2.388-5.333-5.333-5.333h-1.333c0-2.946-2.388-5.333-5.333-5.333h-2.667c-2.946 0-5.333 2.388-5.333 5.333zM26.667 17.85v4.817c0 1.473-1.194 2.667-2.667 2.667h-16c-1.473 0-2.667-1.194-2.667-2.667v-4.817l6.029 2.010c3.011 1.003 6.265 1.003 9.276 0l6.029-2.010zM5.333 14.667c0-1.473 1.194-2.667 2.667-2.667h16c1.473 0 2.667 1.194 2.667 2.667v0.372l-6.872 2.291c-2.463 0.821-5.126 0.821-7.589 0l-6.872-2.291v-0.372z"></path>
</svg>
