<?xml version="1.0" encoding="UTF-8"?>
<svg id="Layer_1" data-name="Layer 1" xmlns="http://www.w3.org/2000/svg" xmlns:xlink="http://www.w3.org/1999/xlink" version="1.1" viewBox="0 0 24 24">
  <defs>
    <style>
      .cls-1 {
        mask: url(#mask);
      }

      .cls-2 {
        fill: #000;
      }

      .cls-2, .cls-3 {
        stroke-width: 0px;
      }

      .cls-3 {
        fill: #d9d9d9;
      }
    </style>
    <mask id="mask" x="0" y="0" width="24" height="24" maskUnits="userSpaceOnUse">
      <g id="mask0_17515_42392" data-name="mask0 17515 42392">
        <rect class="cls-3" y="0" width="24" height="24"/>
      </g>
    </mask>
  </defs>
  <g class="cls-1">
    <path class="cls-2" d="M3.3,20.4c-.5,0-.9-.2-1.3-.5-.4-.4-.5-.8-.5-1.3V7.3c0-.2,0-.4.2-.5.1-.1.3-.2.5-.2s.4,0,.5.2c.1.1.2.3.2.5v11.3c0,0,0,.2,0,.2,0,0,.1,0,.2,0h15.4c.2,0,.4,0,.5.2.1.1.2.3.2.5s0,.4-.2.5c-.1.1-.3.2-.5.2H3.3ZM6.8,16.9c-.5,0-.9-.2-1.3-.5-.4-.4-.5-.8-.5-1.3V4.3c0-.5.2-.9.5-1.3.4-.4.8-.5,1.3-.5h4.2c.2,0,.5,0,.7.1.2,0,.4.2.6.4l1.5,1.5h6.9c.5,0,.9.2,1.3.5.4.4.5.8.5,1.3v8.8c0,.5-.2.9-.5,1.3-.4.4-.8.5-1.3.5H6.8ZM6.8,15.4h13.9c0,0,.2,0,.2,0,0,0,0-.1,0-.2V6.3c0,0,0-.2,0-.2,0,0-.1,0-.2,0h-7.5l-2-2h-4.4c0,0-.2,0-.2,0,0,0,0,.1,0,.2v10.8c0,0,0,.2,0,.2,0,0,.1,0,.2,0Z"/>
  </g>
</svg>