<!-- Generated by IcoMoon.io -->
<svg version="1.1" xmlns="http://www.w3.org/2000/svg" width="32" height="32" viewBox="0 0 32 32">
<path d="M8 8h-5.333v-5.333h5.333v5.333z"></path>
<path d="M23.259 10.010v2.499c2.465 1.602 4.545 3.713 6.075 6.158v-12.053c0-2.18-1.838-3.947-4.105-3.947h-14.562v5.164l10.409 0.080c1.205 0 2.183 0.94 2.183 2.099z"></path>
<path d="M10.667 10.667v5.995c6.753 0.605 12.171 5.911 13.059 12.672h5.608c-0.718-10.063-8.709-18.078-18.667-18.667z"></path>
<path d="M8.464 22.261v-11.594h-5.797v14.633c0 2.227 1.776 4.033 3.966 4.033h14.701c0 0-0.041-1.055-0.605-2.652-0.569-1.613-1.149-2.238-1.149-2.238l-9.007-0.037c-1.165 0-2.109-0.96-2.109-2.145v-0z"></path>
</svg>
