<!-- Generated by IcoMoon.io -->
<svg version="1.1" xmlns="http://www.w3.org/2000/svg" width="32" height="32" viewBox="0 0 32 32">
<path d="M5.333 26.667c-0.733 0-1.361-0.261-1.883-0.783s-0.783-1.15-0.783-1.883v-16c0-0.733 0.261-1.361 0.783-1.883s1.15-0.783 1.883-0.783h21.333c0.733 0 1.361 0.261 1.883 0.783s0.783 1.15 0.783 1.883v16c0 0.733-0.261 1.361-0.783 1.883s-1.15 0.783-1.883 0.783h-21.333zM16 17.1c0.111 0 0.228-0.017 0.35-0.050s0.239-0.083 0.35-0.15l9.433-5.9c0.178-0.111 0.311-0.25 0.4-0.417s0.133-0.35 0.133-0.55c0-0.444-0.189-0.778-0.567-1s-0.767-0.211-1.167 0.033l-8.933 5.6-8.933-5.6c-0.4-0.244-0.789-0.25-1.167-0.017s-0.567 0.561-0.567 0.983c0 0.222 0.044 0.417 0.133 0.583s0.222 0.294 0.4 0.383l9.433 5.9c0.111 0.067 0.228 0.117 0.35 0.15s0.239 0.050 0.35 0.050z"></path>
</svg>
