<!-- Generated by IcoMoon.io -->
<svg version="1.1" xmlns="http://www.w3.org/2000/svg" width="32" height="32" viewBox="0 0 32 32">
<path d="M12 8c-6.616 0-12 5.384-12 12s5.384 12 12 12c6.616 0 12-5.384 12-12s-5.384-12-12-12zM12 29.333c-5.147 0-9.333-4.187-9.333-9.333s4.187-9.333 9.333-9.333c5.147 0 9.333 4.187 9.333 9.333s-4.187 9.333-9.333 9.333zM6.667 18c0-0.263 0.052-0.523 0.153-0.766s0.248-0.463 0.434-0.649c0.186-0.186 0.406-0.333 0.649-0.433s0.503-0.152 0.766-0.152 0.523 0.052 0.766 0.153c0.243 0.101 0.463 0.248 0.649 0.434s0.333 0.407 0.433 0.649c0.1 0.243 0.152 0.503 0.152 0.766-0 0.531-0.211 1.039-0.586 1.415s-0.884 0.586-1.415 0.585c-0.531-0-1.039-0.211-1.415-0.586s-0.586-0.884-0.585-1.415zM17.333 18c-0 0.263-0.052 0.523-0.153 0.766s-0.248 0.463-0.434 0.649c-0.186 0.186-0.407 0.333-0.649 0.433s-0.503 0.152-0.766 0.152-0.523-0.052-0.766-0.153c-0.243-0.101-0.463-0.248-0.649-0.434s-0.333-0.407-0.433-0.649c-0.1-0.243-0.152-0.503-0.152-0.766 0-0.531 0.211-1.039 0.586-1.415s0.884-0.586 1.415-0.585c0.531 0 1.039 0.211 1.415 0.586s0.586 0.884 0.585 1.415zM15.116 22.735l1.773 1.992c-0.089 0.080-2.201 1.94-4.889 1.94s-4.8-1.86-4.889-1.94l1.777-1.988c0.009 0.008 1.457 1.261 3.111 1.261s3.103-1.252 3.117-1.265z"></path>
<path d="M28 6.667h4v-2.667h-4v-4h-2.667v4h-4v2.667h4v4h2.667v-4z"></path>
</svg>
