<svg width="24" height="24" viewBox="0 0 24 24" fill="none" xmlns="http://www.w3.org/2000/svg">
<mask id="mask0_18838_25825" style="mask-type:alpha" maskUnits="userSpaceOnUse" x="0" y="0" width="24" height="24">
<rect width="24" height="24" fill="#D9D9D9"/>
</mask>
<g mask="url(#mask0_18838_25825)">
<path fill-rule="evenodd" clip-rule="evenodd" d="M8.36135 15.8601C8.68018 15.8601 8.98595 15.9867 9.2114 16.2122C9.43685 16.4376 9.5635 16.7434 9.5635 17.0622V20.6687C9.5635 20.9875 9.43685 21.2933 9.2114 21.5187C8.98595 21.7442 8.68018 21.8708 8.36135 21.8708H2.35059C2.03176 21.8708 1.72599 21.7442 1.50054 21.5187C1.27509 21.2933 1.14844 20.9875 1.14844 20.6687V17.0622C1.14844 16.7434 1.27509 16.4376 1.50054 16.2122C1.72599 15.9867 2.03176 15.8601 2.35059 15.8601H8.36135ZM2.64844 17.0622H8.14844L8.14844 20.6687H2.64844L2.64844 17.0622Z" fill="black"/>
<path d="M6.14819 12.0005V15.8601H4.64819V11.6526C4.64819 11.3337 4.77484 11.028 5.00029 10.8025C5.22574 10.5771 5.53151 10.4504 5.85034 10.4504H11.011V8.0461H12.6482V10.4504H17.8089C18.1277 10.4504 18.4335 10.5771 18.659 10.8025C18.8844 11.028 19.0111 11.3337 19.0111 11.6526V15.8601L17.4821 15.8605V12.0009L6.14819 12.0005Z" fill="black"/>
<path fill-rule="evenodd" clip-rule="evenodd" d="M21.2978 15.8601C21.6167 15.8601 21.9225 15.9867 22.1479 16.2122C22.3733 16.4376 22.5 16.7434 22.5 17.0622V20.6687C22.5 20.9875 22.3733 21.2933 22.1479 21.5187C21.9225 21.7442 21.6167 21.8708 21.2978 21.8708H15.2871C14.9683 21.8708 14.6625 21.7442 14.437 21.5187C14.2116 21.2933 14.0849 20.9875 14.0849 20.6687V17.0622C14.0849 16.7434 14.2116 16.4376 14.437 16.2122C14.6625 15.9867 14.9683 15.8601 15.2871 15.8601H21.2978ZM15.5849 17.0622H21.0849L21.0849 20.6687H15.5849L15.5849 17.0622Z" fill="black"/>
<path fill-rule="evenodd" clip-rule="evenodd" d="M14.9729 2.03448C15.2918 2.03448 15.5975 2.16114 15.823 2.38658C16.0484 2.61203 16.1751 2.9178 16.1751 3.23663V6.84309C16.1751 7.16192 16.0484 7.46769 15.823 7.69314C15.5975 7.91859 15.2918 8.04524 14.9729 8.04524H8.96218C8.64335 8.04524 8.33758 7.91859 8.11213 7.69314C7.88668 7.46769 7.76003 7.16192 7.76003 6.84309V3.23663C7.76003 2.9178 7.88668 2.61203 8.11213 2.38658C8.33758 2.16114 8.64335 2.03448 8.96218 2.03448H14.9729ZM9.26002 3.23663H14.76L14.76 6.84309H9.26003L9.26002 3.23663Z" fill="black"/>
</g>
</svg>
