<!-- Generated by IcoMoon.io -->
<svg version="1.1" xmlns="http://www.w3.org/2000/svg" width="32" height="32" viewBox="0 0 32 32">
<path d="M14.595 16.078c0-3.091 0.002-6.182-0.001-9.273-0.001-1.236-0.748-2.229-1.905-2.532-0.227-0.059-0.47-0.081-0.707-0.084-0.804-0.010-1.608-0.007-2.413-0.003-1.504 0.006-2.609 1.11-2.61 2.619-0.003 6.191-0.003 12.381 0 18.572 0.001 1.51 1.106 2.613 2.611 2.619 0.804 0.003 1.608 0.003 2.413 0 1.507-0.007 2.608-1.107 2.611-2.62 0.004-3.099 0.001-6.199 0.001-9.299v0.001z"></path>
<path d="M17.991 16.093c0 3.064 0 6.129 0 9.193 0.001 1.633 1.077 2.711 2.706 2.713 0.769 0 1.538 0.002 2.307 0 1.523-0.006 2.623-1.105 2.624-2.633 0.003-6.182 0.003-12.364 0-18.545 0-1.528-1.102-2.627-2.625-2.633-0.796-0.003-1.59-0.003-2.386 0-1.522 0.006-2.623 1.107-2.624 2.634-0.003 3.091-0.001 6.182-0.001 9.273l-0.001-0.001z"></path>
</svg>
