<!-- Generated by IcoMoon.io -->
<svg version="1.1" xmlns="http://www.w3.org/2000/svg" width="32" height="32" viewBox="0 0 32 32">
<path d="M24 14.667h-2.667c-0.378 0-0.694-0.128-0.95-0.383s-0.383-0.572-0.383-0.95c0-0.378 0.128-0.694 0.383-0.95s0.572-0.383 0.95-0.383h2.667v-2.667c0-0.378 0.128-0.694 0.383-0.95s0.572-0.383 0.95-0.383c0.378 0 0.694 0.128 0.95 0.383s0.383 0.572 0.383 0.95v2.667h2.667c0.378 0 0.694 0.128 0.95 0.383s0.383 0.572 0.383 0.95c0 0.378-0.128 0.694-0.383 0.95s-0.572 0.383-0.95 0.383h-2.667v2.667c0 0.378-0.128 0.694-0.383 0.95s-0.572 0.383-0.95 0.383c-0.378 0-0.694-0.128-0.95-0.383s-0.383-0.572-0.383-0.95v-2.667zM12 16c-1.467 0-2.722-0.522-3.767-1.567s-1.567-2.3-1.567-3.767c0-1.467 0.522-2.722 1.567-3.767s2.3-1.567 3.767-1.567c1.467 0 2.722 0.522 3.767 1.567s1.567 2.3 1.567 3.767c0 1.467-0.522 2.722-1.567 3.767s-2.3 1.567-3.767 1.567zM1.333 24v-1.067c0-0.756 0.194-1.45 0.583-2.083s0.906-1.117 1.55-1.45c1.378-0.689 2.778-1.206 4.2-1.55s2.867-0.517 4.333-0.517c1.467 0 2.911 0.172 4.333 0.517s2.822 0.861 4.2 1.55c0.644 0.333 1.161 0.817 1.55 1.45s0.583 1.328 0.583 2.083v1.067c0 0.733-0.261 1.361-0.783 1.883s-1.15 0.783-1.883 0.783h-16c-0.733 0-1.361-0.261-1.883-0.783s-0.783-1.15-0.783-1.883zM4 24h16v-1.067c0-0.244-0.061-0.467-0.183-0.667s-0.283-0.356-0.483-0.467c-1.2-0.6-2.411-1.050-3.633-1.35s-2.456-0.45-3.7-0.45c-1.244 0-2.478 0.15-3.7 0.45s-2.433 0.75-3.633 1.35c-0.2 0.111-0.361 0.267-0.483 0.467s-0.183 0.422-0.183 0.667v1.067zM12 13.333c0.733 0 1.361-0.261 1.883-0.783s0.783-1.15 0.783-1.883c0-0.733-0.261-1.361-0.783-1.883s-1.15-0.783-1.883-0.783c-0.733 0-1.361 0.261-1.883 0.783s-0.783 1.15-0.783 1.883c0 0.733 0.261 1.361 0.783 1.883s1.15 0.783 1.883 0.783z"></path>
</svg>
