<!-- Generated by IcoMoon.io -->
<svg version="1.1" xmlns="http://www.w3.org/2000/svg" width="32" height="32" viewBox="0 0 32 32">
<path d="M22.397 15.829c-0.703-1.32-1.8-2.454-3.093-3.241l-0.391-2.993c1.116-0.865 1.848-2.197 1.848-3.707 0-1.298-2.468-1.889-4.762-1.889s-4.762 0.591-4.762 1.889c0 1.51 0.732 2.842 1.848 3.707l-0.392 2.993c-1.292 0.786-2.389 1.92-3.092 3.24-0.3 0.563-0.352 1.248-0.144 1.879 0.191 0.577 0.587 1.045 1.086 1.285 1.497 0.72 3.205 0.97 4.59 1.038l0.39 6.193c0.016 0.249 0.224 0.443 0.475 0.443 0.121 0 0.238-0.046 0.326-0.128s0.142-0.195 0.149-0.315l0.39-6.193c1.385-0.068 3.093-0.318 4.589-1.037 0.499-0.24 0.896-0.708 1.086-1.285 0.208-0.631 0.156-1.316-0.144-1.879z"></path>
</svg>
