<!-- Generated by IcoMoon.io -->
<svg version="1.1" xmlns="http://www.w3.org/2000/svg" width="32" height="32" viewBox="0 0 32 32">
<path d="M21.442 18.732c-0.013-1.495-0.461-3.008-1.243-4.304l1.038-2.834c1.39-0.251 2.655-1.093 3.353-2.432 0.6-1.151-1.315-2.816-3.348-3.877s-4.495-1.678-5.095-0.528c-0.699 1.339-0.666 2.859-0.076 4.142l-1.732 2.473c-1.509 0.099-3.006 0.597-4.24 1.443-0.527 0.36-0.89 0.944-0.997 1.6-0.098 0.6 0.037 1.198 0.368 1.641 0.994 1.331 2.393 2.342 3.589 3.043l-2.518 5.671c-0.101 0.228-0.006 0.496 0.217 0.612 0.107 0.056 0.232 0.069 0.348 0.037s0.216-0.107 0.278-0.21l3.21-5.31c1.259 0.58 2.889 1.148 4.549 1.203 0.554 0.018 1.122-0.214 1.557-0.637 0.477-0.463 0.747-1.095 0.741-1.733z"></path>
</svg>
