<?xml version="1.0" encoding="UTF-8"?>
<svg id="Layer_1" data-name="Layer 1" xmlns="http://www.w3.org/2000/svg" version="1.1" viewBox="0 0 24 24">
  <defs>
    <style>
      .cls-1 {
        fill: #000;
        fill-rule: evenodd;
        stroke-width: 0px;
      }
    </style>
  </defs>
  <path class="cls-1" d="M4.5,15.5c.9-.9,2.2-1.5,3.5-1.5h8c1.3,0,2.6.5,3.5,1.5.9.9,1.5,2.2,1.5,3.5v2c0,.6-.4,1-1,1s-1-.4-1-1v-2c0-.8-.3-1.6-.9-2.1s-1.3-.9-2.1-.9h-8c-.8,0-1.6.3-2.1.9-.6.6-.9,1.3-.9,2.1v2c0,.6-.4,1-1,1s-1-.4-1-1v-2c0-1.3.5-2.6,1.5-3.5Z"/>
  <path class="cls-1" d="M12,4c-1.7,0-3,1.3-3,3s1.3,3,3,3,3-1.3,3-3-1.3-3-3-3ZM7,7c0-2.8,2.2-5,5-5s5,2.2,5,5-2.2,5-5,5-5-2.2-5-5Z"/>
</svg>