<!-- Generated by IcoMoon.io -->
<svg version="1.1" xmlns="http://www.w3.org/2000/svg" width="32" height="32" viewBox="0 0 32 32">
<path d="M4 13.333v-8c0-0.378 0.128-0.694 0.383-0.95s0.572-0.383 0.95-0.383h8c0.378 0 0.694 0.128 0.95 0.383s0.383 0.572 0.383 0.95v8c0 0.378-0.128 0.694-0.383 0.95s-0.572 0.383-0.95 0.383h-8c-0.378 0-0.694-0.128-0.95-0.383s-0.383-0.572-0.383-0.95zM6.667 12h5.333v-5.333h-5.333v5.333zM4 26.667v-8c0-0.378 0.128-0.694 0.383-0.95s0.572-0.383 0.95-0.383h8c0.378 0 0.694 0.128 0.95 0.383s0.383 0.572 0.383 0.95v8c0 0.378-0.128 0.694-0.383 0.95s-0.572 0.383-0.95 0.383h-8c-0.378 0-0.694-0.128-0.95-0.383s-0.383-0.572-0.383-0.95zM6.667 25.333h5.333v-5.333h-5.333v5.333zM17.333 13.333v-8c0-0.378 0.128-0.694 0.383-0.95s0.572-0.383 0.95-0.383h8c0.378 0 0.694 0.128 0.95 0.383s0.383 0.572 0.383 0.95v8c0 0.378-0.128 0.694-0.383 0.95s-0.572 0.383-0.95 0.383h-8c-0.378 0-0.694-0.128-0.95-0.383s-0.383-0.572-0.383-0.95zM20 12h5.333v-5.333h-5.333v5.333zM25.333 28v-2.667h2.667v2.667h-2.667zM17.333 20v-2.667h2.667v2.667h-2.667zM20 22.667v-2.667h2.667v2.667h-2.667zM17.333 25.333v-2.667h2.667v2.667h-2.667zM20 28v-2.667h2.667v2.667h-2.667zM22.667 25.333v-2.667h2.667v2.667h-2.667zM22.667 20v-2.667h2.667v2.667h-2.667zM25.333 22.667v-2.667h2.667v2.667h-2.667z"></path>
</svg>
