<svg width="32" height="32" viewBox="0 0 32 32" fill="none" xmlns="http://www.w3.org/2000/svg">
<path d="M25.2959 8.41667V22.5833H6.56122V8.41667H25.2959ZM25.2959 7H6.56122C6.14716 7 5.75006 7.14926 5.45727 7.41493C5.16449 7.68061 5 8.04094 5 8.41667V22.5833C5 22.9591 5.16449 23.3194 5.45727 23.5851C5.75006 23.8507 6.14716 24 6.56122 24H25.2959C25.71 24 26.1071 23.8507 26.3999 23.5851C26.6927 23.3194 26.8571 22.9591 26.8571 22.5833V8.41667C26.8571 8.04094 26.6927 7.68061 26.3999 7.41493C26.1071 7.14926 25.71 7 25.2959 7Z" fill="black"/>
<path d="M8.64258 11.3367H13.7426V12.7245H8.64258V11.3367ZM8.64258 14.1122H11.5569V15.5H8.64258V14.1122ZM21.0283 16.8877H16.6569C16.0772 16.8877 15.5212 17.107 15.1113 17.4974C14.7014 17.8878 14.4711 18.4173 14.4711 18.9694V20.3571H15.9283V18.9694C15.9283 18.7853 16.0051 18.6088 16.1417 18.4787C16.2783 18.3486 16.4636 18.2755 16.6569 18.2755H21.0283C21.2215 18.2755 21.4068 18.3486 21.5435 18.4787C21.6801 18.6088 21.7569 18.7853 21.7569 18.9694V20.3571H23.214V18.9694C23.214 18.4173 22.9837 17.8878 22.5738 17.4974C22.1639 17.107 21.608 16.8877 21.0283 16.8877ZM18.8426 16.1938C19.419 16.1938 19.9824 16.0311 20.4617 15.7261C20.9409 15.4211 21.3145 14.9876 21.535 14.4805C21.7556 13.9733 21.8133 13.4153 21.7009 12.8769C21.5884 12.3385 21.3109 11.8439 20.9033 11.4558C20.4957 11.0676 19.9764 10.8032 19.4111 10.6962C18.8458 10.5891 18.2598 10.644 17.7273 10.8541C17.1948 11.0642 16.7397 11.4199 16.4194 11.8763C16.0992 12.3328 15.9283 12.8694 15.9283 13.4183C15.9283 14.1544 16.2353 14.8604 16.7819 15.3809C17.3284 15.9014 18.0697 16.1938 18.8426 16.1938ZM18.8426 12.0306C19.1308 12.0306 19.4125 12.112 19.6521 12.2645C19.8917 12.4169 20.0785 12.6337 20.1888 12.8873C20.2991 13.1408 20.3279 13.4199 20.2717 13.6891C20.2155 13.9583 20.0767 14.2055 19.8729 14.3996C19.6691 14.5937 19.4095 14.7259 19.1269 14.7794C18.8442 14.833 18.5512 14.8055 18.285 14.7005C18.0187 14.5954 17.7911 14.4175 17.631 14.1893C17.4709 13.9611 17.3854 13.6928 17.3854 13.4183C17.3854 13.0503 17.539 12.6973 17.8122 12.437C18.0855 12.1768 18.4561 12.0306 18.8426 12.0306Z" fill="black"/>
<g clip-path="url(#clip0_23222_28296)">
<path d="M23.9997 28.1667C26.3009 28.1667 28.1663 26.3012 28.1663 24C28.1663 21.6989 26.3009 19.8334 23.9997 19.8334C21.6985 19.8334 19.833 21.6989 19.833 24C19.833 26.3012 21.6985 28.1667 23.9997 28.1667Z" fill="black"/>
<path d="M23.9997 22.3334V25.6667M22.333 24H25.6663M28.1663 24C28.1663 26.3012 26.3009 28.1667 23.9997 28.1667C21.6985 28.1667 19.833 26.3012 19.833 24C19.833 21.6989 21.6985 19.8334 23.9997 19.8334C26.3009 19.8334 28.1663 21.6989 28.1663 24Z" stroke="#F3F4F6" stroke-width="0.8" stroke-linecap="round" stroke-linejoin="round"/>
</g>
<defs>
<clipPath id="clip0_23222_28296">
<rect width="10" height="10" fill="white" transform="translate(19 19)"/>
</clipPath>
</defs>
</svg>
