<!-- Generated by IcoMoon.io -->
<svg version="1.1" xmlns="http://www.w3.org/2000/svg" width="32" height="32" viewBox="0 0 32 32">
<path d="M23.878 26.081c2.995-2.342 4.922-5.99 4.922-10.086 0-7.069-5.712-12.787-12.781-12.797-7.078-0.010-12.819 5.722-12.819 12.797 0 4.006 1.84 7.581 4.723 9.926 0.112 0.090 0.275 0.070 0.365-0.042l1.261-1.616c0.086-0.109 0.067-0.266-0.038-0.355-0.259-0.211-0.509-0.438-0.749-0.678-0.936-0.932-1.681-2.038-2.195-3.254-0.538-1.258-0.806-2.598-0.806-3.981s0.269-2.723 0.803-3.984c0.515-1.219 1.254-2.314 2.195-3.254s2.035-1.68 3.254-2.195c1.264-0.534 2.605-0.803 3.987-0.803s2.723 0.269 3.984 0.803c1.219 0.515 2.314 1.254 3.254 2.195s1.68 2.035 2.195 3.254c0.534 1.261 0.803 2.602 0.803 3.984s-0.269 2.723-0.803 3.984c-0.514 1.217-1.26 2.322-2.195 3.254-0.298 0.298-0.611 0.576-0.938 0.832l-1.302-1.667c-0.029-0.038-0.069-0.067-0.114-0.084s-0.094-0.020-0.141-0.010c-0.047 0.010-0.091 0.033-0.125 0.067s-0.059 0.076-0.070 0.123l-1.267 5.19c-0.038 0.16 0.083 0.317 0.246 0.317l5.344 0.026c0.214 0 0.336-0.246 0.202-0.413l-1.194-1.533z"></path>
</svg>
