<svg width="32" height="32" viewBox="0 0 32 32" fill="none" xmlns="http://www.w3.org/2000/svg">
<g clip-path="url(#clip0_23444_35299)">
<path d="M22.9999 26.1666C25.3011 26.1666 27.1666 24.3011 27.1666 21.9999C27.1666 19.6987 25.3011 17.8333 22.9999 17.8333C20.6987 17.8333 18.8333 19.6987 18.8333 21.9999C18.8333 24.3011 20.6987 26.1666 22.9999 26.1666Z" fill="#111827"/>
<path d="M22.9999 20.3333V23.6666M21.3333 21.9999H24.6666M27.1666 21.9999C27.1666 24.3011 25.3011 26.1666 22.9999 26.1666C20.6987 26.1666 18.8333 24.3011 18.8333 21.9999C18.8333 19.6987 20.6987 17.8333 22.9999 17.8333C25.3011 17.8333 27.1666 19.6987 27.1666 21.9999Z" stroke="#F3F4F6" stroke-width="0.8" stroke-linecap="round" stroke-linejoin="round"/>
</g>
<path d="M9.03376 22.2071C9.03364 20.9122 8.01005 19.8619 6.74773 19.8619C6.6578 19.862 6.56941 19.8692 6.48249 19.8795C6.48498 20.4973 6.48723 21.2281 6.48512 21.8488C6.48404 22.1964 6.75984 22.4789 7.09831 22.4779L9.01669 22.4792C9.02669 22.3901 9.03376 22.2993 9.03376 22.2071ZM12.059 16C12.0591 13.8672 13.7445 12.1382 15.8236 12.1381C17.5811 12.1381 19.0556 13.3733 19.4712 15.0423C19.5722 15.4482 19.3338 15.8613 18.9381 15.965C18.5426 16.0686 18.14 15.8237 18.0387 15.4181C17.7863 14.4045 16.889 13.6549 15.8236 13.6549C14.5613 13.655 13.5376 14.7051 13.5375 16C13.5375 17.161 14.3612 18.1267 15.4415 18.3129C15.844 18.3821 16.1165 18.7728 16.0494 19.1857C15.9818 19.5989 15.6 19.8787 15.1972 19.8094C13.4161 19.5029 12.059 17.9145 12.059 16ZM9.03376 9.79294C9.03375 9.70067 9.02671 9.61003 9.01669 9.52085C8.44323 9.52269 7.71836 9.52548 7.09831 9.52354C6.7599 9.52271 6.48524 9.80477 6.48643 10.1526L6.48249 12.1206C6.56943 12.1309 6.65778 12.1381 6.74773 12.1381C8.01012 12.1381 9.03376 11.088 9.03376 9.79294ZM9.78351 15.2417L9.93188 15.2565C10.2691 15.327 10.5227 15.6333 10.5228 16C10.5228 16.3668 10.2691 16.673 9.93188 16.7436L9.78351 16.7584H9.773C9.36468 16.7583 9.03376 16.4189 9.03376 16C9.03387 15.5812 9.36475 15.2418 9.773 15.2417H9.78351ZM10.5123 9.79294C10.5123 11.926 8.82696 13.6549 6.74773 13.6549C6.65722 13.6549 6.56758 13.6492 6.47855 13.6427V18.3573C6.56758 18.3508 6.65723 18.3452 6.74773 18.3452C8.82689 18.3452 10.5121 20.0742 10.5123 22.2071C10.5123 22.2994 10.5067 22.3911 10.5004 22.4819C10.5267 22.4819 10.5538 22.4833 10.5805 22.4833H16.6639L16.8136 22.4981C17.1504 22.5689 17.4031 22.8752 17.4032 23.2416C17.4032 23.6081 17.1504 23.9143 16.8136 23.9852L16.6639 24H10.5805L9.59443 23.9973L7.10225 23.9946C5.94288 23.9981 5.00263 23.0324 5.00662 21.8434L5.00268 19.2881C4.99939 18.9843 5.00005 18.6472 5.00005 18.2765V13.7249C5.00005 13.3543 4.9994 13.0171 5.00268 12.7133L5.00662 10.158C5.00255 8.96876 5.94373 8.00181 7.10357 8.00544C7.97114 8.00816 9.02911 8.00918 9.59443 8.00275L10.5805 8.00006H21.0679C21.4292 8.00006 21.7578 7.99938 22.054 8.00275L24.5435 8.00544L24.7589 8.01622C25.7471 8.11668 26.5325 8.9237 26.63 9.93708L26.6405 10.158C26.6377 10.9828 26.6367 11.9988 26.6444 12.7133L26.6471 13.7249V16.8621C26.6471 17.2811 26.3162 17.6205 25.9078 17.6205C25.4995 17.6204 25.1686 17.281 25.1686 16.8621V13.7249C25.1686 13.6975 25.1672 13.6697 25.1672 13.6427C25.0787 13.6491 24.9894 13.6549 24.8994 13.6549C22.8202 13.6547 21.1349 11.9259 21.1349 9.79294C21.1349 9.7001 21.1404 9.60813 21.1467 9.5168H10.5004C10.5068 9.60814 10.5122 9.70009 10.5123 9.79294ZM22.6134 9.79294C22.6134 11.0879 23.6371 12.138 24.8994 12.1381C24.9893 12.1381 25.0778 12.1309 25.1646 12.1206C25.1618 11.4907 25.1586 10.7662 25.1607 10.1526L25.1489 10.026C25.1006 9.77958 24.9119 9.58559 24.6722 9.53566L24.5488 9.52354C23.9287 9.52552 23.2038 9.52268 22.6304 9.52085C22.6204 9.61001 22.6134 9.70069 22.6134 9.79294Z" fill="#111827"/>
<defs>
<clipPath id="clip0_23444_35299">
<rect width="10" height="10" fill="white" transform="translate(18 17)"/>
</clipPath>
</defs>
</svg>
