<svg width="32" height="32" viewBox="0 0 32 32" fill="none" xmlns="http://www.w3.org/2000/svg">
<g clip-path="url(#clip0_23444_35306)">
<path d="M21.9999 27.1666C24.3011 27.1666 26.1666 25.3011 26.1666 22.9999C26.1666 20.6987 24.3011 18.8333 21.9999 18.8333C19.6987 18.8333 17.8333 20.6987 17.8333 22.9999C17.8333 25.3011 19.6987 27.1666 21.9999 27.1666Z" fill="#111827"/>
<path d="M21.9999 21.3333V24.6666M20.3333 22.9999H23.6666M26.1666 22.9999C26.1666 25.3011 24.3011 27.1666 21.9999 27.1666C19.6987 27.1666 17.8333 25.3011 17.8333 22.9999C17.8333 20.6987 19.6987 18.8333 21.9999 18.8333C24.3011 18.8333 26.1666 20.6987 26.1666 22.9999Z" stroke="#F3F4F6" stroke-width="0.8" stroke-linecap="round" stroke-linejoin="round"/>
</g>
<path d="M23.2002 17.291V9.32619C23.2002 8.61697 22.6483 8.00886 21.9023 7.91408L21.751 7.90139C21.3724 7.8893 21.1296 7.86046 20.9014 7.83889C20.8671 7.83565 20.832 7.83414 20.7959 7.83108C20.7937 7.93458 20.7915 8.03231 20.7842 8.12209C20.7709 8.28434 20.7443 8.46021 20.6807 8.63869L20.6035 8.8174C20.4526 9.11355 20.2232 9.36132 19.9414 9.5342L19.8174 9.60354C19.5789 9.72507 19.3383 9.76653 19.1221 9.7842C18.9153 9.8011 18.6671 9.79983 18.4004 9.79983H13.5996C13.333 9.79983 13.0847 9.80109 12.8779 9.7842C12.7157 9.77094 12.5398 9.74432 12.3613 9.68069L12.1826 9.60354C11.8865 9.45257 11.6387 9.22318 11.4658 8.94143L11.3965 8.8174C11.275 8.57893 11.2345 8.33828 11.2168 8.12209C11.2094 8.03202 11.2063 7.93396 11.2041 7.8301C11.168 7.83316 11.1329 7.83565 11.0986 7.83889C10.9846 7.84967 10.8669 7.86262 10.7305 7.87405L10.249 7.90139C9.47896 7.92605 8.87955 8.49181 8.80762 9.18557L8.79981 9.32619V21.7266C8.7998 22.3127 8.80062 22.7049 8.8252 23.0059C8.84899 23.2968 8.89123 23.4324 8.93555 23.5196L8.9834 23.6055C9.10308 23.8008 9.27528 23.9599 9.48047 24.0645L9.55664 24.0967C9.64518 24.1284 9.77586 24.157 9.99414 24.1748C10.2951 24.1994 10.6874 24.2002 11.2734 24.2002H16.291C16.7328 24.2002 17.0908 24.5582 17.0908 25C17.0908 25.4418 16.7328 25.7998 16.291 25.7998H11.2734C10.7138 25.7998 10.2455 25.8007 9.86426 25.7696C9.52242 25.7416 9.19661 25.6851 8.88575 25.5518L8.75391 25.4903C8.28547 25.2516 7.89351 24.8881 7.62012 24.4424L7.50977 24.2461C7.33139 23.8959 7.26236 23.5262 7.23047 23.1358C7.19934 22.7545 7.20019 22.2863 7.2002 21.7266V9.32522C7.20056 7.64059 8.57992 6.35444 10.1982 6.30276L10.5967 6.27932C10.7129 6.26951 10.8214 6.2581 10.9482 6.24612C11.0279 6.23859 11.1108 6.233 11.2012 6.22658C11.2031 6.10156 11.2081 5.98424 11.2168 5.87795C11.2345 5.66177 11.275 5.42111 11.3965 5.18264L11.4658 5.05862C11.6387 4.77687 11.8865 4.54747 12.1826 4.39651L12.3613 4.31936C12.5398 4.25573 12.7157 4.22911 12.8779 4.21584C13.0847 4.19895 13.333 4.20022 13.5996 4.20022H18.4004C18.6671 4.20022 18.9153 4.19895 19.1221 4.21584C19.2843 4.2291 19.4602 4.25574 19.6387 4.31936L19.8174 4.39651L19.9414 4.46584C20.1829 4.61401 20.386 4.81713 20.5342 5.05862L20.6035 5.18264L20.6807 5.36135C20.7443 5.53983 20.7709 5.71571 20.7842 5.87795C20.7929 5.98423 20.796 6.10156 20.7979 6.22658C20.8886 6.23302 20.9718 6.23856 21.0518 6.24612C21.3056 6.2701 21.486 6.29266 21.8018 6.30276L22.1025 6.32619C23.5878 6.51635 24.7998 7.74655 24.7998 9.32619V17.291C24.7998 17.7328 24.4418 18.0908 24 18.0908C23.5582 18.0908 23.2003 17.7328 23.2002 17.291ZM13.5996 5.79983C13.307 5.79983 13.1353 5.80026 13.0088 5.81057C12.8966 5.81974 12.8854 5.83313 12.9063 5.82326C12.8886 5.83264 12.8724 5.84443 12.8584 5.85842L12.8223 5.9092C12.8347 5.88478 12.8211 5.8918 12.8115 6.00881C12.8012 6.13534 12.7998 6.30695 12.7998 6.59963V7.40041C12.7998 7.69309 12.8012 7.86471 12.8115 7.99123C12.8164 8.05042 12.8221 8.08176 12.8252 8.09475L12.8584 8.14162C12.8723 8.1555 12.8888 8.16646 12.9063 8.1758C12.9198 8.17892 12.9511 8.18476 13.0088 8.18948C13.1353 8.19978 13.307 8.20022 13.5996 8.20022H18.4004C18.693 8.20022 18.8647 8.19978 18.9912 8.18948C19.0475 8.18488 19.0787 8.17897 19.0928 8.1758C19.1106 8.16641 19.1275 8.1557 19.1416 8.14162L19.1758 8.09475C19.1789 8.08165 19.1846 8.05014 19.1895 7.99123C19.1998 7.86472 19.2002 7.69304 19.2002 7.40041V6.59963C19.2002 6.30701 19.1998 6.13533 19.1895 6.00881C19.1846 5.94991 19.1789 5.9184 19.1758 5.9053L19.1787 5.9092L19.1416 5.85842C19.1274 5.84424 19.1107 5.83269 19.0928 5.82326C19.1148 5.83392 19.105 5.81986 18.9912 5.81057C18.8647 5.80027 18.693 5.79983 18.4004 5.79983H13.5996Z" fill="#111827"/>
<defs>
<clipPath id="clip0_23444_35306">
<rect width="10" height="10" fill="white" transform="translate(17 18)"/>
</clipPath>
</defs>
</svg>
