<svg width="24" height="24" viewBox="0 0 24 24" fill="none" xmlns="http://www.w3.org/2000/svg">
<path fill-rule="evenodd" clip-rule="evenodd" d="M19.125 13.2002C20.6852 13.2002 21.9502 14.4652 21.9502 16.0254C21.9501 17.5855 20.6851 18.8506 19.125 18.8506C17.5649 18.8506 16.2999 17.5855 16.2998 16.0254C16.2998 14.4652 17.5648 13.2002 19.125 13.2002ZM19.125 14.4756C18.9593 14.4756 18.8252 14.6097 18.8252 14.7754V15.7256H17.875C17.7093 15.7256 17.5752 15.8597 17.5752 16.0254C17.5753 16.191 17.7094 16.3252 17.875 16.3252H18.8252V17.2754C18.8253 17.441 18.9594 17.5752 19.125 17.5752C19.2906 17.5752 19.4247 17.441 19.4248 17.2754V16.3252H20.375C20.5406 16.3252 20.6747 16.191 20.6748 16.0254C20.6748 15.8805 20.5722 15.7595 20.4355 15.7314L20.375 15.7256H19.4248V14.7754C19.4248 14.6097 19.2907 14.4756 19.125 14.4756Z" fill="#111827"/>
<path d="M18.9717 5.25C19.2822 5.25 19.5802 5.36227 19.7998 5.56152C20.0193 5.76077 20.1426 6.03075 20.1426 6.3125V12.7783C19.7994 12.6629 19.4319 12.6006 19.0498 12.6006C19.0237 12.6006 18.9977 12.601 18.9717 12.6016V6.3125H4.9209V16.9375H15.749C15.8555 17.3234 16.0277 17.6816 16.2529 18H4.9209C4.61036 18 4.31236 17.8877 4.09277 17.6885C3.87335 17.4892 3.75 17.2192 3.75 16.9375V6.3125C3.75 6.03082 3.87335 5.76076 4.09277 5.56152C4.31236 5.36227 4.61036 5.25 4.9209 5.25H18.9717Z" fill="#111827"/>
<path d="M15.7715 12.666C16.2062 12.666 16.6233 12.8303 16.9307 13.123C16.9718 13.1623 17.0106 13.2033 17.0469 13.2461C16.749 13.4612 16.4877 13.7237 16.2725 14.0215C16.2453 13.9617 16.2074 13.9063 16.1582 13.8594C16.0557 13.7618 15.9164 13.707 15.7715 13.707H12.4932C12.3482 13.707 12.2089 13.7618 12.1064 13.8594C12.0042 13.9569 11.9463 14.0897 11.9463 14.2275V15.2676H10.8535V14.2275C10.8535 13.8135 11.0266 13.4158 11.334 13.123C11.6414 12.8303 12.0584 12.666 12.4932 12.666H15.7715Z" fill="#111827"/>
<path fill-rule="evenodd" clip-rule="evenodd" d="M13.2959 8.14062C13.6952 7.98309 14.1347 7.94219 14.5586 8.02246C14.9825 8.10277 15.3721 8.30076 15.6777 8.5918C15.9833 8.88282 16.192 9.25359 16.2764 9.65723C16.3607 10.061 16.3168 10.48 16.1514 10.8604C15.9859 11.2407 15.7061 11.5662 15.3467 11.7949C14.9874 12.0235 14.5649 12.1454 14.1328 12.1455C13.5532 12.1455 12.9968 11.9264 12.5869 11.5361C12.177 11.1458 11.9463 10.6156 11.9463 10.0635C11.9464 9.65189 12.0753 9.24946 12.3154 8.90723C12.5556 8.56504 12.8966 8.29815 13.2959 8.14062ZM14.1328 9.02344C13.843 9.02344 13.5643 9.13293 13.3594 9.32812C13.1547 9.52321 13.0401 9.78768 13.04 10.0635C13.04 10.2692 13.1037 10.4705 13.2236 10.6416C13.3437 10.8127 13.5143 10.9466 13.7139 11.0254C13.9136 11.1042 14.1337 11.1251 14.3457 11.085C14.5577 11.0448 14.7524 10.9454 14.9053 10.7998C15.0581 10.6542 15.1619 10.4685 15.2041 10.2666C15.2462 10.0648 15.2243 9.85516 15.1416 9.66504C15.0589 9.4751 14.9188 9.31249 14.7393 9.19824C14.5597 9.08407 14.3487 9.02351 14.1328 9.02344Z" fill="#111827"/>
<path d="M8.66797 11.625H6.48242V10.584H8.66797V11.625Z" fill="#111827"/>
<path d="M10.3076 9.54297H6.48242V8.50293H10.3076V9.54297Z" fill="#111827"/>
</svg>
