<svg width="32" height="32" viewBox="0 0 32 32" fill="none" xmlns="http://www.w3.org/2000/svg">
<mask id="mask0_23444_35313" style="mask-type:alpha" maskUnits="userSpaceOnUse" x="4" y="4" width="24" height="24">
<rect x="4" y="4" width="24" height="24" fill="#D9D9D9"/>
</mask>
<g mask="url(#mask0_23444_35313)">
<path d="M14.931 18.0898L13.2904 16.4492C13.1387 16.2974 12.9611 16.2199 12.7577 16.2165C12.5543 16.2133 12.3734 16.2908 12.2151 16.4492C12.0567 16.6075 11.9776 16.7893 11.9776 16.9946C11.9776 17.2 12.0567 17.3819 12.2151 17.5403L14.2853 19.6263C14.4699 19.8107 14.6851 19.9029 14.931 19.9029C15.1769 19.9029 15.3922 19.8107 15.5767 19.6263L19.8057 15.3973C19.9574 15.2454 20.0349 15.0652 20.0381 14.8565C20.0414 14.648 19.9639 14.4645 19.8057 14.3062C19.6474 14.1479 19.4655 14.0687 19.26 14.0687C19.0548 14.0687 18.8729 14.1479 18.7146 14.3062L14.931 18.0898ZM16.0025 25.6764C14.7989 25.6764 13.6712 25.4487 12.6194 24.9934C11.5675 24.5381 10.6504 23.9193 9.86803 23.137C9.08568 22.3546 8.46686 21.4375 8.01157 20.3856C7.55628 19.3338 7.32863 18.2061 7.32863 17.0025C7.32863 15.7989 7.55628 14.6712 8.01157 13.6194C8.46686 12.5675 9.08568 11.6504 9.86803 10.868C10.6504 10.0857 11.5675 9.46686 12.6194 9.01157C13.6712 8.55628 14.7989 8.32863 16.0025 8.32863C17.2061 8.32863 18.3338 8.55628 19.3856 9.01157C20.4375 9.46686 21.3546 10.0857 22.137 10.868C22.9193 11.6504 23.5381 12.5675 23.9934 13.6194C24.4487 14.6712 24.6764 15.7989 24.6764 17.0025C24.6764 18.2061 24.4487 19.3338 23.9934 20.3856C23.5381 21.4375 22.9193 22.3546 22.137 23.137C21.3546 23.9193 20.4375 24.5381 19.3856 24.9934C18.3338 25.4487 17.2061 25.6764 16.0025 25.6764ZM6.22195 11.1663C6.07398 11.0185 6 10.8392 6 10.6285C6 10.4179 6.07398 10.2388 6.22195 10.091L9.09096 7.22195C9.23229 7.08062 9.40985 7.00833 9.62363 7.0051C9.83759 7.0017 10.0185 7.07398 10.1663 7.22195C10.3141 7.36974 10.388 7.54892 10.388 7.75947C10.388 7.9702 10.3141 8.14946 10.1663 8.29725L7.29725 11.1663C7.15592 11.3076 6.97836 11.3799 6.76458 11.3831C6.55062 11.3863 6.36974 11.3141 6.22195 11.1663ZM25.783 11.1663C25.6352 11.3141 25.4561 11.388 25.2455 11.388C25.0348 11.388 24.8555 11.3141 24.7077 11.1663L21.8387 8.29725C21.6974 8.15592 21.6251 7.97836 21.6219 7.76458C21.6187 7.55062 21.6909 7.36974 21.8387 7.22195C21.9865 7.07398 22.1658 7 22.3765 7C22.5871 7 22.7662 7.07398 22.914 7.22195L25.783 10.091C25.9244 10.2323 25.9967 10.4098 25.9999 10.6236C26.0033 10.8376 25.931 11.0185 25.783 11.1663ZM16.0025 24.1457C17.9859 24.1457 19.6723 23.451 21.0617 22.0617C22.451 20.6723 23.1457 18.9859 23.1457 17.0025C23.1457 15.0191 22.451 13.3327 21.0617 11.9433C19.6723 10.554 17.9859 9.85931 16.0025 9.85931C14.0191 9.85931 12.3327 10.554 10.9433 11.9433C9.55399 13.3327 8.85931 15.0191 8.85931 17.0025C8.85931 18.9859 9.55399 20.6723 10.9433 22.0617C12.3327 23.451 14.0191 24.1457 16.0025 24.1457Z" fill="#111827"/>
</g>
<g clip-path="url(#clip0_23444_35313)">
<path d="M23.9999 28.1666C26.3011 28.1666 28.1666 26.3011 28.1666 23.9999C28.1666 21.6987 26.3011 19.8333 23.9999 19.8333C21.6987 19.8333 19.8333 21.6987 19.8333 23.9999C19.8333 26.3011 21.6987 28.1666 23.9999 28.1666Z" fill="#111827"/>
<path d="M23.9999 22.3333V25.6666M22.3333 23.9999H25.6666M28.1666 23.9999C28.1666 26.3011 26.3011 28.1666 23.9999 28.1666C21.6987 28.1666 19.8333 26.3011 19.8333 23.9999C19.8333 21.6987 21.6987 19.8333 23.9999 19.8333C26.3011 19.8333 28.1666 21.6987 28.1666 23.9999Z" stroke="#F3F4F6" stroke-width="0.8" stroke-linecap="round" stroke-linejoin="round"/>
</g>
<defs>
<clipPath id="clip0_23444_35313">
<rect width="10" height="10" fill="white" transform="translate(19 19)"/>
</clipPath>
</defs>
</svg>
