<svg width="24" height="24" viewBox="0 0 24 24" fill="none" xmlns="http://www.w3.org/2000/svg">
<path d="M12.0017 21.5C10.6877 21.5 9.45267 21.2507 8.2965 20.752C7.14033 20.2533 6.13467 19.5766 5.2795 18.7218C4.42433 17.8669 3.74725 16.8617 3.24825 15.706C2.74942 14.5503 2.5 13.3156 2.5 12.0017C2.5 10.6877 2.74933 9.45267 3.248 8.2965C3.74667 7.14033 4.42342 6.13467 5.27825 5.2795C6.13308 4.42433 7.13833 3.74725 8.294 3.24825C9.44967 2.74942 10.6844 2.5 11.9983 2.5C13.3123 2.5 14.5473 2.74933 15.7035 3.248C16.8597 3.74667 17.8653 4.42342 18.7205 5.27825C19.5757 6.13308 20.2528 7.13833 20.7518 8.294C21.2506 9.44967 21.5 10.6844 21.5 11.9983C21.5 13.3123 21.2507 14.5473 20.752 15.7035C20.2533 16.8597 19.5766 17.8653 18.7218 18.7205C17.8669 19.5757 16.8617 20.2528 15.706 20.7518C14.5503 21.2506 13.3156 21.5 12.0017 21.5ZM12 20C14.2333 20 16.125 19.225 17.675 17.675C19.225 16.125 20 14.2333 20 12C20 9.76667 19.225 7.875 17.675 6.325C16.125 4.775 14.2333 4 12 4C9.76667 4 7.875 4.775 6.325 6.325C4.775 7.875 4 9.76667 4 12C4 14.2333 4.775 16.125 6.325 17.675C7.875 19.225 9.76667 20 12 20Z" fill="black"/>
<path d="M8.25776 11.8231L10.5808 14.1464L15.723 9.00387C15.868 8.85904 16.0437 8.78662 16.25 8.78662C16.4563 8.78662 16.632 8.85904 16.777 9.00387C16.9218 9.14887 16.9927 9.32612 16.9895 9.53562C16.9862 9.74529 16.9153 9.91937 16.777 10.0579L11.2135 15.6214C11.0327 15.802 10.8218 15.8924 10.5808 15.8924C10.3398 15.8924 10.1288 15.802 9.94801 15.6214L7.20376 12.8771C7.05893 12.7321 6.98651 12.5565 6.98651 12.3501C6.98651 12.1438 7.05893 11.9681 7.20376 11.8231C7.34876 11.6783 7.52601 11.6075 7.73551 11.6106C7.94518 11.614 8.11926 11.6848 8.25776 11.8231Z" fill="black"/>
</svg>
