<svg width="32" height="32" viewBox="0 0 32 32" fill="none" xmlns="http://www.w3.org/2000/svg">
<g clip-path="url(#clip0_23444_35292)">
<path d="M23.9999 28.1666C26.3011 28.1666 28.1666 26.3011 28.1666 23.9999C28.1666 21.6987 26.3011 19.8333 23.9999 19.8333C21.6987 19.8333 19.8333 21.6987 19.8333 23.9999C19.8333 26.3011 21.6987 28.1666 23.9999 28.1666Z" fill="#111827"/>
<path d="M23.9999 22.3333V25.6666M22.3333 23.9999H25.6666M28.1666 23.9999C28.1666 26.3011 26.3011 28.1666 23.9999 28.1666C21.6987 28.1666 19.8333 26.3011 19.8333 23.9999C19.8333 21.6987 21.6987 19.8333 23.9999 19.8333C26.3011 19.8333 28.1666 21.6987 28.1666 23.9999Z" stroke="#F3F4F6" stroke-width="0.8" stroke-linecap="round" stroke-linejoin="round"/>
</g>
<path d="M7.2002 25.0674V6.93262C7.20038 5.97524 7.97623 5.20057 8.93262 5.2002H16.2578C16.8058 5.20025 17.3417 5.31839 17.8311 5.54102L17.9834 5.61523C18.335 5.79455 18.66 6.02916 18.9443 6.31348L23.6865 11.0557L23.8057 11.1797C24.0757 11.4753 24.2956 11.8098 24.459 12.1689L24.5371 12.3545C24.709 12.7924 24.7997 13.2626 24.7998 13.7422V17.333C24.7998 17.7748 24.4418 18.1338 24 18.1338C23.5582 18.1338 23.2002 17.7748 23.2002 17.333V13.7422C23.2002 13.5923 23.1831 13.4444 23.1533 13.2998H20.5C18.4013 13.2998 16.7002 11.5987 16.7002 9.5V6.8457C16.5557 6.81599 16.4076 6.79983 16.2578 6.7998L8.93359 6.80078C8.85961 6.80079 8.80096 6.85963 8.80078 6.93262L8.7998 25.0674L8.81055 25.1191C8.83058 25.1665 8.87727 25.2 8.93262 25.2002H18.2617L18.3438 25.2041C18.7471 25.2451 19.0615 25.5858 19.0615 26C19.0615 26.4142 18.7471 26.7549 18.3438 26.7959L18.2617 26.7998H8.93262C8.03558 26.7996 7.29749 26.1186 7.20898 25.2441L7.2002 25.0674ZM15.9287 20.2002C16.3705 20.2002 16.7285 20.5582 16.7285 21C16.7285 21.4418 16.3705 21.7998 15.9287 21.7998H13.4287C12.9869 21.7998 12.6289 21.4418 12.6289 21C12.6289 20.5582 12.9869 20.2002 13.4287 20.2002H15.9287ZM17.4287 16.7002C17.8705 16.7003 18.2285 17.0582 18.2285 17.5C18.2285 17.9418 17.8705 18.2997 17.4287 18.2998H13.4287C12.9869 18.2998 12.6289 17.9418 12.6289 17.5C12.6289 17.0582 12.9869 16.7002 13.4287 16.7002H17.4287ZM18.2998 9.5C18.2998 10.715 19.285 11.7002 20.5 11.7002H22.0693L18.2998 7.93066V9.5Z" fill="#111827"/>
<defs>
<clipPath id="clip0_23444_35292">
<rect width="10" height="10" fill="white" transform="translate(19 19)"/>
</clipPath>
</defs>
</svg>
