<?xml version="1.0" encoding="UTF-8"?>
<svg id="Layer_1" data-name="Layer 1" xmlns="http://www.w3.org/2000/svg" xmlns:xlink="http://www.w3.org/1999/xlink" version="1.1" viewBox="0 0 24 24">
  <defs>
    <style>
      .cls-1 {
        mask: url(#mask);
      }

      .cls-2 {
        fill: #000;
      }

      .cls-2, .cls-3 {
        stroke-width: 0px;
      }

      .cls-3 {
        fill: #d9d9d9;
      }
    </style>
    <mask id="mask" x="0" y="0" width="24" height="24" maskUnits="userSpaceOnUse">
      <g id="mask0_17515_42327" data-name="mask0 17515 42327">
        <rect class="cls-3" y="0" width="24" height="24"/>
      </g>
    </mask>
  </defs>
  <g class="cls-1">
    <path class="cls-2" d="M12.8,11.7v-3.9c0-.2,0-.4-.2-.5-.1-.1-.3-.2-.5-.2s-.4,0-.5.2c-.1.1-.2.3-.2.5v4.2c0,.1,0,.2,0,.3,0,.1.1.2.2.3l3.4,3.4c.1.1.3.2.5.2.2,0,.4,0,.5-.2s.2-.3.2-.5,0-.4-.2-.5l-3.2-3.2ZM12,21.5c-1.3,0-2.5-.2-3.7-.7-1.2-.5-2.2-1.2-3-2-.9-.9-1.5-1.9-2-3-.5-1.2-.7-2.4-.7-3.7s.2-2.5.7-3.7c.5-1.2,1.2-2.2,2-3,.9-.9,1.9-1.5,3-2,1.2-.5,2.4-.7,3.7-.7s2.5.2,3.7.7c1.2.5,2.2,1.2,3,2,.9.9,1.5,1.9,2,3,.5,1.2.7,2.4.7,3.7s-.2,2.5-.7,3.7c-.5,1.2-1.2,2.2-2,3-.9.9-1.9,1.5-3,2-1.2.5-2.4.7-3.7.7ZM12,20c2.2,0,4.1-.8,5.7-2.3s2.3-3.4,2.3-5.7-.8-4.1-2.3-5.7-3.4-2.3-5.7-2.3-4.1.8-5.7,2.3-2.3,3.4-2.3,5.7.8,4.1,2.3,5.7,3.4,2.3,5.7,2.3Z"/>
  </g>
</svg>