<!-- Generated by IcoMoon.io -->
<svg version="1.1" xmlns="http://www.w3.org/2000/svg" width="32" height="32" viewBox="0 0 32 32">
<path d="M16.533 25.933l-10.467-10.467c-0.511-0.511-0.767-1.111-0.767-1.8s0.256-1.289 0.767-1.8l5.8-5.8c0.511-0.511 1.111-0.767 1.8-0.767s1.289 0.256 1.8 0.767l10.467 10.467c0.511 0.511 0.767 1.111 0.767 1.8s-0.256 1.289-0.767 1.8l-5.8 5.8c-0.511 0.511-1.111 0.767-1.8 0.767s-1.289-0.256-1.8-0.767zM18.333 24l5.667-5.667-10.333-10.333-5.667 5.667 10.333 10.333zM16 32c-2.2 0-4.272-0.417-6.217-1.25s-3.644-1.978-5.1-3.433c-1.456-1.456-2.6-3.156-3.433-5.1s-1.25-4.017-1.25-6.217h2.667c0 1.578 0.267 3.089 0.8 4.533s1.272 2.744 2.217 3.9c0.944 1.156 2.072 2.139 3.383 2.95s2.744 1.383 4.3 1.717l-3.5-3.5 1.867-1.867 7.867 7.867c-0.578 0.133-1.172 0.233-1.783 0.3s-1.217 0.1-1.817 0.1zM29.333 16c0-1.578-0.267-3.089-0.8-4.533s-1.272-2.744-2.217-3.9c-0.944-1.156-2.072-2.139-3.383-2.95s-2.744-1.383-4.3-1.717l3.5 3.5-1.867 1.867-7.867-7.867c0.578-0.133 1.172-0.233 1.783-0.3s1.217-0.1 1.817-0.1c2.2 0 4.272 0.417 6.217 1.25s3.644 1.978 5.1 3.433c1.456 1.456 2.6 3.156 3.433 5.1s1.25 4.017 1.25 6.217h-2.667z"></path>
</svg>
