<!-- Generated by IcoMoon.io -->
<svg version="1.1" xmlns="http://www.w3.org/2000/svg" width="32" height="32" viewBox="0 0 32 32">
<path d="M30.702 15.038l-29.875-14.979c-0.121-0.061-0.261-0.075-0.393-0.043-0.147 0.036-0.273 0.129-0.351 0.258s-0.102 0.284-0.067 0.431l3.079 12.579c0.046 0.189 0.186 0.343 0.371 0.404l5.275 1.811-5.271 1.811c-0.186 0.064-0.325 0.214-0.368 0.403l-3.086 12.597c-0.032 0.132-0.018 0.271 0.043 0.389 0.139 0.282 0.482 0.396 0.768 0.257l29.875-14.893c0.111-0.053 0.2-0.146 0.257-0.253 0.139-0.286 0.025-0.629-0.257-0.771z"></path>
</svg>
