<!-- Generated by IcoMoon.io -->
<svg version="1.1" xmlns="http://www.w3.org/2000/svg" width="32" height="32" viewBox="0 0 32 32">
<path d="M24 29.333c-1.111 0-2.056-0.389-2.833-1.167s-1.167-1.722-1.167-2.833c0-0.156 0.011-0.317 0.033-0.483s0.056-0.317 0.1-0.45l-9.4-5.467c-0.378 0.333-0.8 0.594-1.267 0.783s-0.956 0.283-1.467 0.283c-1.111 0-2.056-0.389-2.833-1.167s-1.167-1.722-1.167-2.833c0-1.111 0.389-2.056 1.167-2.833s1.722-1.167 2.833-1.167c0.511 0 1 0.094 1.467 0.283s0.889 0.45 1.267 0.783l9.4-5.467c-0.044-0.133-0.078-0.283-0.1-0.45s-0.033-0.328-0.033-0.483c0-1.111 0.389-2.056 1.167-2.833s1.722-1.167 2.833-1.167c1.111 0 2.056 0.389 2.833 1.167s1.167 1.722 1.167 2.833c0 1.111-0.389 2.056-1.167 2.833s-1.722 1.167-2.833 1.167c-0.511 0-1-0.094-1.467-0.283s-0.889-0.45-1.267-0.783l-9.4 5.467c0.044 0.133 0.078 0.283 0.1 0.45s0.033 0.328 0.033 0.483c0 0.156-0.011 0.317-0.033 0.483s-0.056 0.317-0.1 0.45l9.4 5.467c0.378-0.333 0.8-0.594 1.267-0.783s0.956-0.283 1.467-0.283c1.111 0 2.056 0.389 2.833 1.167s1.167 1.722 1.167 2.833c0 1.111-0.389 2.056-1.167 2.833s-1.722 1.167-2.833 1.167zM24 8c0.378 0 0.694-0.128 0.95-0.383s0.383-0.572 0.383-0.95c0-0.378-0.128-0.694-0.383-0.95s-0.572-0.383-0.95-0.383c-0.378 0-0.694 0.128-0.95 0.383s-0.383 0.572-0.383 0.95c0 0.378 0.128 0.694 0.383 0.95s0.572 0.383 0.95 0.383zM8 17.333c0.378 0 0.694-0.128 0.95-0.383s0.383-0.572 0.383-0.95c0-0.378-0.128-0.694-0.383-0.95s-0.572-0.383-0.95-0.383c-0.378 0-0.694 0.128-0.95 0.383s-0.383 0.572-0.383 0.95c0 0.378 0.128 0.694 0.383 0.95s0.572 0.383 0.95 0.383zM24 26.667c0.378 0 0.694-0.128 0.95-0.383s0.383-0.572 0.383-0.95c0-0.378-0.128-0.694-0.383-0.95s-0.572-0.383-0.95-0.383c-0.378 0-0.694 0.128-0.95 0.383s-0.383 0.572-0.383 0.95c0 0.378 0.128 0.694 0.383 0.95s0.572 0.383 0.95 0.383z"></path>
</svg>
