<!-- Generated by IcoMoon.io -->
<svg version="1.1" xmlns="http://www.w3.org/2000/svg" width="32" height="32" viewBox="0 0 32 32">
<path d="M9.156 25.221l-0.927-1.694-0.927 1.694c-0.029 0.052-0.072 0.096-0.124 0.124l-1.694 0.927 1.694 0.927c0.052 0.029 0.096 0.072 0.124 0.124l0.927 1.694 0.927-1.694c0.029-0.052 0.072-0.095 0.124-0.124l1.694-0.927-1.694-0.927c-0.052-0.029-0.095-0.072-0.124-0.124zM23.531 25.928l-0.927-1.694-0.927 1.694c-0.029 0.053-0.072 0.096-0.124 0.124l-1.694 0.927 1.694 0.927c0.052 0.029 0.096 0.072 0.124 0.124l0.927 1.694 0.927-1.694c0.029-0.052 0.072-0.095 0.124-0.124l1.694-0.927-1.694-0.927c-0.052-0.029-0.095-0.072-0.124-0.124zM28.030 9.72c-0.052-0.029-0.095-0.072-0.124-0.124l-0.927-1.694-0.927 1.694c-0.029 0.052-0.072 0.095-0.124 0.124l-1.694 0.927 1.694 0.927c0.052 0.029 0.095 0.072 0.124 0.124l0.927 1.694 0.927-1.694c0.029-0.052 0.072-0.096 0.124-0.124l1.694-0.927-1.694-0.927z"></path>
</svg>
