<?xml version="1.0" encoding="UTF-8"?>
<svg id="Layer_1" data-name="Layer 1" xmlns="http://www.w3.org/2000/svg" xmlns:xlink="http://www.w3.org/1999/xlink" version="1.1" viewBox="0 0 20 20">
  <defs>
    <style>
      .cls-1 {
        mask: url(#mask);
      }

      .cls-2 {
        fill: #000;
      }

      .cls-2, .cls-3 {
        stroke-width: 0px;
      }

      .cls-3 {
        fill: #d9d9d9;
      }
    </style>
    <mask id="mask" x="-.1" y="0" width="20.2" height="20.2" maskUnits="userSpaceOnUse">
      <g id="mask0_16204_35429" data-name="mask0 16204 35429">
        <rect class="cls-3" x="-.1" y="0" width="20.2" height="20.2"/>
      </g>
    </mask>
  </defs>
  <g class="cls-1">
    <path class="cls-2" d="M10,18.1c-1.1,0-2.1-.2-3.1-.6-1-.4-1.8-1-2.5-1.7-.7-.7-1.3-1.6-1.7-2.5-.4-1-.6-2-.6-3.1s.2-2.1.6-3.1c.4-1,1-1.8,1.7-2.5.7-.7,1.6-1.3,2.5-1.7,1-.4,2-.6,3.1-.6s2.2.2,3.1.6c1,.4,1.8,1,2.5,1.7.7.7,1.3,1.6,1.7,2.5.4,1,.6,2,.6,3.1s0,.4,0,.6c0,.2,0,.4,0,.6,0,.2-.1.3-.2.4-.1,0-.3.1-.5,0-.2,0-.3-.1-.4-.3-.1-.1-.1-.3-.1-.5,0-.1,0-.3,0-.5,0-.2,0-.3,0-.5,0-.9-.2-1.8-.5-2.6-.3-.8-.8-1.5-1.4-2.1-.6-.6-1.3-1.1-2.1-1.4s-1.7-.5-2.6-.5c-1.9,0-3.5.7-4.8,2-1.3,1.3-2,2.9-2,4.8s.7,3.5,2,4.8c1.3,1.3,2.9,2,4.8,2s1.3,0,1.9-.3c.6-.2,1.2-.5,1.7-.8.1,0,.3-.1.5,0,.2,0,.3.1.4.3.1.1.1.3.1.5,0,.2-.1.3-.3.4-.6.4-1.3.7-2.1,1-.7.2-1.5.3-2.3.3ZM16,14.9c-.2,0-.4,0-.6-.2-.2-.2-.2-.4-.2-.6s0-.4.2-.6c.2-.2.4-.2.6-.2s.4,0,.6.2c.2.2.2.4.2.6s0,.4-.2.6c-.2.2-.4.2-.6.2ZM10.6,9.8l2.7,2.7c.1.1.2.3.2.4,0,.2,0,.3-.2.4s-.3.2-.4.2-.3,0-.4-.2l-2.9-2.9c0,0-.1-.2-.2-.3,0,0,0-.2,0-.3v-3.5c0-.2,0-.3.2-.5.1-.1.3-.2.5-.2s.3,0,.4.2c.1.1.2.3.2.5v3.3Z"/>
  </g>
</svg>