<svg width="25" height="25" viewBox="0 0 25 25" fill="none" xmlns="http://www.w3.org/2000/svg">
<path d="M11.6813 14.1027L10.0406 12.4621C9.88892 12.3104 9.71136 12.2328 9.50795 12.2294C9.30454 12.2262 9.12366 12.3038 8.96532 12.4621C8.80698 12.6204 8.72781 12.8022 8.72781 13.0075C8.72781 13.213 8.80698 13.3949 8.96532 13.5532L11.0356 15.6393C11.2201 15.8236 11.4353 15.9158 11.6813 15.9158C11.9272 15.9158 12.1424 15.8236 12.327 15.6393L16.556 11.4103C16.7077 11.2584 16.7851 11.0781 16.7884 10.8694C16.7916 10.6609 16.7141 10.4775 16.556 10.3191C16.3976 10.1608 16.2157 10.0816 16.0103 10.0816C15.805 10.0816 15.6232 10.1608 15.4648 10.3191L11.6813 14.1027ZM12.7527 21.6893C11.5491 21.6893 10.4214 21.4616 9.36968 21.0064C8.31776 20.5511 7.40062 19.9322 6.61828 19.1499C5.83593 18.3675 5.21711 17.4504 4.76181 16.3985C4.30652 15.3467 4.07888 14.2191 4.07888 13.0154C4.07888 11.8118 4.30652 10.6841 4.76181 9.63237C5.21711 8.58045 5.83593 7.66332 6.61828 6.88097C7.40062 6.09862 8.31776 5.4798 9.36968 5.02451C10.4214 4.56922 11.5491 4.34157 12.7527 4.34157C13.9564 4.34157 15.0841 4.56922 16.1358 5.02451C17.1877 5.4798 18.1049 6.09862 18.8872 6.88097C19.6695 7.66332 20.2884 8.58045 20.7437 9.63237C21.199 10.6841 21.4266 11.8118 21.4266 13.0154C21.4266 14.2191 21.199 15.3467 20.7437 16.3985C20.2884 17.4504 19.6695 18.3675 18.8872 19.1499C18.1049 19.9322 17.1877 20.5511 16.1358 21.0064C15.0841 21.4616 13.9564 21.6893 12.7527 21.6893ZM2.97219 7.1792C2.82423 7.0314 2.75024 6.85214 2.75024 6.64142C2.75024 6.43087 2.82423 6.25169 2.97219 6.1039L5.8412 3.23489C5.98253 3.09356 6.16009 3.02127 6.37388 3.01804C6.58783 3.01464 6.76871 3.08692 6.9165 3.23489C7.0643 3.38268 7.1382 3.56186 7.1382 3.77241C7.1382 3.98314 7.0643 4.1624 6.9165 4.31019L4.0475 7.1792C3.90616 7.32053 3.7286 7.39281 3.51482 7.39605C3.30086 7.39928 3.11999 7.32699 2.97219 7.1792ZM22.5333 7.1792C22.3855 7.32699 22.2063 7.40089 21.9958 7.40089C21.785 7.40089 21.6058 7.32699 21.458 7.1792L18.589 4.31019C18.4476 4.16886 18.3754 3.9913 18.3721 3.77752C18.3689 3.56356 18.4412 3.38268 18.589 3.23489C18.7368 3.08692 18.916 3.01294 19.1268 3.01294C19.3373 3.01294 19.5165 3.08692 19.6643 3.23489L22.5333 6.1039C22.6746 6.24523 22.7469 6.42279 22.7501 6.63657C22.7535 6.85053 22.6812 7.0314 22.5333 7.1792ZM12.7527 20.1586C14.7362 20.1586 16.4225 19.4639 17.8119 18.0746C19.2012 16.6852 19.8959 14.9989 19.8959 13.0154C19.8959 11.032 19.2012 9.34562 17.8119 7.95628C16.4225 6.56693 14.7362 5.87225 12.7527 5.87225C10.7693 5.87225 9.08293 6.56693 7.69358 7.95628C6.30423 9.34562 5.60956 11.032 5.60956 13.0154C5.60956 14.9989 6.30423 16.6852 7.69358 18.0746C9.08293 19.4639 10.7693 20.1586 12.7527 20.1586Z" fill="black"/>
</svg>
