<!-- Generated by IcoMoon.io -->
<svg version="1.1" xmlns="http://www.w3.org/2000/svg" width="32" height="32" viewBox="0 0 32 32">
<path d="M21.393 21.152l-0.87-1.741-0.87 1.741h1.741z"></path>
<path d="M24.792 14.378h-0.885v-1.874c0-0.087-0.018-0.174-0.054-0.254s-0.087-0.151-0.152-0.21c-0.065-0.059-0.141-0.103-0.224-0.13s-0.171-0.037-0.258-0.028c-0.099 0.010-2.329 0.262-3.438 2.495h-0.908v1.37c0 1.723-1.401 3.124-3.124 3.124h-1.37v5.92c0 1.033 0.841 1.874 1.874 1.874h8.541c1.033 0 1.874-0.841 1.874-1.874v-8.541c0-1.033-0.841-1.874-1.874-1.874zM17.454 22.751l2.509-5.018c0.052-0.104 0.132-0.191 0.23-0.252s0.213-0.093 0.329-0.093 0.23 0.032 0.329 0.093c0.099 0.061 0.179 0.148 0.23 0.252l2.509 5.018c0.154 0.309 0.029 0.684-0.279 0.839s-0.684 0.029-0.839-0.279l-0.454-0.909h-2.991l-0.454 0.909c-0.11 0.219-0.33 0.346-0.56 0.346-0.094 0-0.189-0.021-0.279-0.066-0.309-0.154-0.434-0.53-0.28-0.839zM12.070 10.597h-1.184c0.077 0.619 0.276 1.14 0.592 1.559 0.317-0.419 0.515-0.94 0.592-1.559z"></path>
<path d="M15.748 17.622c1.033 0 1.874-0.841 1.874-1.874v-8.541c0-1.033-0.841-1.874-1.874-1.874h-8.541c-1.033 0-1.874 0.841-1.874 1.874v8.541c0 1.033 0.841 1.874 1.874 1.874h0.885v1.873c0 0.087 0.018 0.174 0.054 0.254s0.087 0.151 0.152 0.21c0.065 0.059 0.141 0.103 0.224 0.13s0.171 0.037 0.258 0.028c0.1-0.010 2.329-0.262 3.438-2.495h3.529zM11.811 14.036c-0.114-0.061-0.225-0.127-0.333-0.197-0.108 0.071-0.219 0.137-0.333 0.197-1.066 0.569-2.131 0.575-2.176 0.575-0.345 0-0.625-0.28-0.625-0.625s0.28-0.625 0.625-0.625c0.005-0 0.777-0.011 1.544-0.406-0.439-0.562-0.785-1.325-0.885-2.359h-0.659c-0.345 0-0.625-0.28-0.625-0.625s0.28-0.625 0.625-0.625h1.884v-0.379c0-0.345 0.28-0.625 0.625-0.625s0.625 0.28 0.625 0.625v0.379h1.884c0.345 0 0.625 0.28 0.625 0.625s-0.28 0.625-0.625 0.625h-0.659c-0.1 1.034-0.446 1.796-0.885 2.359 0.767 0.394 1.539 0.405 1.546 0.406 0.345 0 0.624 0.28 0.624 0.625s-0.281 0.625-0.626 0.625c-0.045 0-1.109-0.007-2.176-0.575zM20.57 8.909c0.122 0.122 0.282 0.183 0.442 0.183s0.32-0.061 0.442-0.183c0.244-0.244 0.244-0.64 0-0.884l-0.179-0.179c2.3 0.136 4.13 2.051 4.13 4.385 0 0.345 0.28 0.625 0.625 0.625s0.625-0.28 0.625-0.625c0-3.028-2.398-5.506-5.394-5.637l0.193-0.193c0.244-0.244 0.244-0.64 0-0.884s-0.64-0.244-0.884 0l-1.254 1.254c-0.244 0.244-0.244 0.64 0 0.884l1.255 1.254zM11.418 23.078c-0.244-0.244-0.64-0.244-0.884 0s-0.244 0.64 0 0.884l0.179 0.179c-2.3-0.136-4.13-2.051-4.13-4.385 0-0.345-0.28-0.625-0.625-0.625s-0.625 0.28-0.625 0.625c0 3.028 2.398 5.506 5.394 5.637l-0.193 0.193c-0.244 0.244-0.244 0.64 0 0.884 0.122 0.122 0.282 0.183 0.442 0.183s0.32-0.061 0.442-0.183l1.254-1.254c0.244-0.244 0.244-0.64 0-0.884l-1.254-1.254z"></path>
</svg>
