<!-- Generated by IcoMoon.io -->
<svg version="1.1" xmlns="http://www.w3.org/2000/svg" width="32" height="32" viewBox="0 0 32 32">
<path d="M16.058 12.658l-9.8 9.8c-0.333 0.333-0.722 0.494-1.167 0.483s-0.833-0.183-1.167-0.517-0.5-0.722-0.5-1.167c0-0.445 0.167-0.833 0.5-1.167l10.233-10.267c0.267-0.267 0.567-0.467 0.9-0.6s0.667-0.2 1-0.2c0.333 0 0.667 0.067 1 0.2s0.633 0.333 0.9 0.6l10.267 10.267c0.333 0.333 0.495 0.728 0.483 1.183s-0.183 0.85-0.517 1.183-0.722 0.5-1.167 0.5c-0.444 0-0.833-0.167-1.167-0.5l-9.8-9.8z"></path>
</svg>
