<svg width="32" height="32" viewBox="0 0 32 32" fill="none" xmlns="http://www.w3.org/2000/svg">
<path d="M21.168 7.90332C21.5505 7.90255 21.8759 7.98705 22.1445 8.16406C22.4132 8.34109 22.6174 8.60544 22.7656 8.95215C23.0313 9.57391 23.3014 10.194 23.5713 10.8145C23.841 11.4347 24.1105 12.0554 24.376 12.6777C24.3962 12.7249 24.4123 12.7552 24.4258 12.7734C24.4381 12.7901 24.4433 12.79 24.4404 12.7891C24.4432 12.7889 24.4495 12.7877 24.4609 12.7832C24.4824 12.7748 24.512 12.7571 24.5547 12.7275C25.0296 12.3953 25.5202 12.0853 26.0039 11.7715C26.1627 11.6687 26.3265 11.6184 26.4795 11.6338C26.6349 11.6495 26.7679 11.732 26.8633 11.8682C26.9592 12.0049 26.9906 12.1594 26.9492 12.3105C26.9084 12.4594 26.8003 12.5931 26.6426 12.7002V12.7012C26.1654 13.0242 25.682 13.3389 25.1885 13.666C25.5106 13.9337 25.8191 14.196 26.1387 14.4473C26.4487 14.691 26.6547 14.9708 26.75 15.2881C26.8452 15.6052 26.8262 15.95 26.7031 16.3203C26.6777 16.397 26.6574 16.4744 26.6328 16.5566C26.6088 16.637 26.5819 16.7201 26.5469 16.8008C25.9707 18.1243 25.9752 19.5225 26.0146 20.9482V20.9492C26.0231 21.2674 26.0596 21.6219 25.9658 21.9668C25.7932 22.6035 25.2394 23.073 24.5732 23.084C23.7369 23.0988 22.8979 23.1034 22.0605 23.083C21.2826 23.0643 20.6587 22.4129 20.6318 21.6436C20.6233 21.3936 20.6098 21.1297 20.6357 20.8711C20.641 20.8173 20.6359 20.7881 20.6309 20.7734C20.6272 20.7628 20.6238 20.7608 20.6201 20.7588C20.6125 20.7547 20.5972 20.7494 20.5664 20.7471C20.5353 20.7448 20.4999 20.7459 20.4541 20.7461C17.8371 20.75 15.2203 20.748 12.6035 20.748C12.2328 20.7481 11.854 20.7575 11.4785 20.7441C11.4398 20.7428 11.415 20.745 11.3994 20.749C11.392 20.7509 11.388 20.7536 11.3857 20.7549C11.3838 20.756 11.3831 20.7565 11.3828 20.7568C11.3807 20.7593 11.3682 20.7773 11.3721 20.8564C11.3848 21.1132 11.3811 21.3699 11.374 21.624C11.3505 22.4384 10.7012 23.0775 9.875 23.0869C9.07744 23.0963 8.27938 23.0971 7.48242 23.0869C6.64463 23.0761 5.99615 22.4231 5.98926 21.5859C5.98138 20.6489 5.98453 19.7118 5.98926 18.7754L5.98535 18.6504C5.97645 18.5275 5.95334 18.4085 5.91602 18.2891C5.70135 17.6104 5.49542 16.933 5.27734 16.2568C5.16588 15.9113 5.15168 15.5892 5.24023 15.293C5.32874 14.9969 5.51701 14.7349 5.79492 14.5049C6.12419 14.2324 6.45528 13.9569 6.80664 13.666C6.32556 13.344 5.86214 13.0315 5.39648 12.7236C5.30327 12.662 5.17904 12.5863 5.10938 12.4531C5.04834 12.3365 5.02141 12.2156 5.03906 12.0967C5.05692 11.9771 5.11862 11.8695 5.21777 11.7783C5.32291 11.6817 5.44187 11.6275 5.56836 11.6211C5.69387 11.6148 5.81721 11.6556 5.93164 11.7295C6.44068 12.0583 6.95761 12.3839 7.45508 12.7354C7.50059 12.7675 7.5304 12.7837 7.5498 12.79C7.5558 12.792 7.56007 12.7927 7.5625 12.793C7.56384 12.792 7.5704 12.7873 7.58105 12.7705C7.59467 12.749 7.60989 12.7182 7.62891 12.6738C8.16376 11.4264 8.70656 10.1953 9.23926 8.94922C9.38795 8.60146 9.59298 8.33718 9.8623 8.16113C10.1315 7.98518 10.4573 7.90255 10.8389 7.90332C14.2817 7.90957 17.7251 7.90957 21.168 7.90332ZM24.8779 20.3301C24.328 20.6825 23.7531 20.78 23.1494 20.75C22.9478 20.74 22.7437 20.7423 22.5391 20.75C22.4612 20.753 22.3762 20.7457 22.2959 20.7373C22.2132 20.7286 22.1364 20.7181 22.0625 20.7129C21.9885 20.7077 21.927 20.7085 21.8799 20.7178C21.8335 20.7269 21.8118 20.7424 21.8008 20.7578C21.7486 20.8311 21.7322 20.9462 21.7373 21.1006C21.7398 21.1755 21.7468 21.254 21.7539 21.335C21.7609 21.4147 21.7689 21.4977 21.7705 21.5762C21.7733 21.7009 21.8128 21.7932 21.875 21.8545C21.9373 21.9158 22.0316 21.9556 22.1592 21.957C22.935 21.9648 23.7113 21.9648 24.4863 21.957C24.6135 21.9557 24.7079 21.9161 24.7705 21.8545C24.833 21.7929 24.8732 21.7 24.876 21.5752C24.8843 21.174 24.879 20.773 24.8779 20.3301ZM7.125 20.3291C7.12356 20.7773 7.11853 21.1852 7.12891 21.5938C7.13189 21.7135 7.1729 21.8011 7.2373 21.8594C7.30274 21.9185 7.40217 21.957 7.53613 21.958C8.30192 21.9635 9.06839 21.9643 9.83398 21.958L9.92773 21.9492C10.0148 21.9344 10.0802 21.8998 10.127 21.8525C10.1894 21.7893 10.2302 21.6919 10.2344 21.5547C10.2382 21.4355 10.2365 21.3157 10.2354 21.1934C10.2342 21.0717 10.2336 20.947 10.2393 20.8223V20.8213C10.2415 20.7761 10.2366 20.7588 10.2344 20.7539C10.2352 20.7546 10.2329 20.7516 10.2217 20.749C10.2082 20.746 10.1868 20.7446 10.1553 20.7451C9.67301 20.7531 9.21608 20.7361 8.74219 20.751C8.17383 20.7685 7.64165 20.6592 7.125 20.3291ZM16.0117 14.2236C13.3942 14.2236 10.7769 14.2244 8.15918 14.2197C7.99009 14.2197 7.86591 14.259 7.74316 14.3652C7.49925 14.6033 7.37959 14.7209 7.32129 14.7783C7.29519 14.804 7.28096 14.8166 7.27441 14.8232H7.27539C7.27396 14.825 7.27302 14.8265 7.27246 14.8271C7.26968 14.8302 7.26542 14.8342 7.2627 14.8369C7.25502 14.8445 7.23942 14.8601 7.20801 14.8906C7.14452 14.9523 7.0159 15.0767 6.75977 15.3252L6.75293 15.332L6.75195 15.3311C6.64661 15.4141 6.58893 15.4984 6.56348 15.585C6.53797 15.6719 6.54207 15.7733 6.58105 15.8975C6.72639 16.3589 6.7895 16.7209 6.85254 17.0771C6.91548 17.4328 6.97835 17.7831 7.12109 18.2305L7.20508 18.4561C7.29651 18.6686 7.41111 18.8405 7.55371 18.9668C7.74159 19.1331 7.98571 19.2281 8.31055 19.2285H23.2471C23.5737 19.2285 23.7734 19.1734 23.9473 19.0244C24.1289 18.8685 24.2923 18.602 24.5195 18.1475C24.7422 17.7021 24.8523 17.3472 24.9648 16.9961C25.0766 16.6475 25.1907 16.3032 25.4209 15.8906C25.4578 15.7696 25.4584 15.6714 25.4307 15.5869C25.4023 15.5005 25.3414 15.4169 25.2363 15.334L25.2275 15.3271C25.2257 15.3253 25.2235 15.3231 25.2217 15.3213C25.2199 15.3195 25.2186 15.3172 25.2168 15.3154C25.215 15.3136 25.2127 15.3123 25.2109 15.3105C25.2092 15.3088 25.2078 15.3064 25.2061 15.3047C25.2043 15.3029 25.2019 15.3015 25.2002 15.2998C25.1985 15.2981 25.197 15.2957 25.1953 15.2939C25.1905 15.2891 25.1893 15.2879 25.1846 15.2832C25.1787 15.2773 25.1795 15.2791 25.1738 15.2734C25.1721 15.2717 25.1707 15.2693 25.1689 15.2676C25.1672 15.2659 25.1648 15.2644 25.1631 15.2627L25.1143 15.2139C25.1128 15.2124 25.1118 15.2104 25.1104 15.209C25.1089 15.2075 25.1069 15.2065 25.1055 15.2051L25.0869 15.1865C25.0855 15.1851 25.0844 15.1831 25.083 15.1816C25.0816 15.1802 25.0795 15.1792 25.0781 15.1777L24.9512 15.0508C24.9501 15.0497 24.9493 15.0479 24.9482 15.0469C24.9472 15.0458 24.9454 15.045 24.9443 15.0439L24.8945 14.9941L24.8887 14.9893C24.8879 14.9884 24.8875 14.9871 24.8867 14.9863C24.8859 14.9855 24.8846 14.9852 24.8838 14.9844C24.8819 14.9825 24.8816 14.9812 24.8799 14.9795L24.8271 14.9268C24.824 14.9237 24.8234 14.924 24.8203 14.9209C24.8168 14.9174 24.8116 14.9113 24.8086 14.9082L24.8076 14.9072L24.8057 14.9062L24.8037 14.9033C24.7999 14.8996 24.8015 14.9021 24.7979 14.8984L24.7969 14.8965L24.7939 14.8936L24.792 14.8926L24.791 14.8906L24.751 14.8506H24.75V14.8496L24.749 14.8486H24.748V14.8477L24.7471 14.8467L24.7461 14.8457L24.707 14.8066L24.7051 14.8057L24.7041 14.8047C24.7034 14.804 24.7029 14.8025 24.7021 14.8018L24.7012 14.8008L24.6992 14.7998C24.6955 14.7961 24.6935 14.7931 24.6895 14.7891C24.681 14.7806 24.6857 14.7863 24.6768 14.7773L24.6758 14.7754L24.6738 14.7734L24.6719 14.7725L24.6709 14.7705L24.6602 14.7598C24.6569 14.7565 24.6595 14.7601 24.6562 14.7568L24.6318 14.7324C24.6311 14.7317 24.6306 14.7302 24.6299 14.7295L24.6279 14.7275C24.6272 14.7268 24.6258 14.7263 24.625 14.7256C24.6243 14.7248 24.6238 14.7234 24.623 14.7227C24.6222 14.7218 24.6186 14.7192 24.6182 14.7188L24.6035 14.7041C24.6012 14.7018 24.601 14.7006 24.5986 14.6982L24.5908 14.6904C24.59 14.6896 24.5887 14.6893 24.5879 14.6885C24.5857 14.6863 24.5843 14.6849 24.582 14.6826C24.5787 14.6793 24.5748 14.6744 24.5713 14.6709L24.5566 14.6562C24.5556 14.6552 24.5538 14.6543 24.5527 14.6533L24.4492 14.5498C24.4478 14.5484 24.4467 14.5463 24.4453 14.5449C24.441 14.5406 24.4409 14.5415 24.4365 14.5371L24.4238 14.5244C24.4224 14.523 24.4214 14.521 24.4199 14.5195C24.4185 14.5181 24.4165 14.5171 24.415 14.5156C24.4136 14.5142 24.4126 14.5122 24.4111 14.5107C24.4097 14.5093 24.4077 14.5083 24.4062 14.5068C24.4048 14.5053 24.4029 14.5035 24.4014 14.502C24.3999 14.5005 24.3989 14.4985 24.3975 14.4971C24.396 14.4956 24.3941 14.4946 24.3926 14.4932L24.3828 14.4834C24.3814 14.482 24.3804 14.48 24.3789 14.4785C24.3774 14.4771 24.3755 14.4761 24.374 14.4746L24.3447 14.4453C24.3431 14.4436 24.3415 14.4411 24.3398 14.4395C24.3382 14.4378 24.3357 14.4363 24.334 14.4346L24.2744 14.375C24.1439 14.2612 24.0129 14.2198 23.834 14.2197C21.2266 14.2252 18.6189 14.2236 16.0117 14.2236ZM7.25977 14.8379C7.25924 14.8383 7.25774 14.8395 7.25586 14.8408C7.25831 14.8391 7.26078 14.8377 7.26172 14.8369L7.25977 14.8379ZM7.26367 14.6973C7.27129 14.7041 7.27773 14.7116 7.2832 14.7188C7.27907 14.711 7.27505 14.7018 7.26758 14.6943L7.2666 14.6934C7.26543 14.6945 7.2648 14.6962 7.26367 14.6973ZM21.2588 9.27051C17.8062 9.27754 14.3539 9.27676 10.9014 9.27051C10.753 9.27057 10.6477 9.29969 10.5674 9.35352C10.487 9.40749 10.421 9.49369 10.3643 9.62793C9.86112 10.8095 9.62087 11.318 9.10938 12.4932C9.06861 12.587 9.07952 12.6214 9.08398 12.6289C9.08707 12.6339 9.10822 12.6589 9.20605 12.6592C10.3967 12.6592 11.6144 12.6738 12.8311 12.6885C14.0479 12.7031 15.264 12.7178 16.4531 12.7178C18.8512 12.7178 20.3948 12.7031 22.7939 12.7109C22.8508 12.7109 22.887 12.7073 22.9092 12.7021V12.7002C22.9043 12.6774 22.8927 12.6441 22.8711 12.5947C22.6084 11.9925 22.4657 11.5463 22.3262 11.1025C22.1869 10.6596 22.0501 10.2194 21.7988 9.62305V9.62207C21.7425 9.48909 21.6757 9.40453 21.5947 9.35156C21.5133 9.2984 21.4069 9.27017 21.2588 9.27051Z" fill="black" stroke="black" stroke-width="0.193253"/>
<g clip-path="url(#clip0_23690_32467)">
<path d="M23.9997 28.1667C26.3009 28.1667 28.1663 26.3012 28.1663 24C28.1663 21.6989 26.3009 19.8334 23.9997 19.8334C21.6985 19.8334 19.833 21.6989 19.833 24C19.833 26.3012 21.6985 28.1667 23.9997 28.1667Z" fill="black"/>
<path d="M27.7666 24.0004C27.7666 21.9202 26.0801 20.2339 24 20.2338C21.9197 20.2338 20.2334 21.9201 20.2334 24.0004C20.2336 26.0805 21.9198 27.767 24 27.767C26.08 27.7668 27.7664 26.0804 27.7666 24.0004ZM23.5996 25.6664V24.3998H22.333C22.1122 24.3998 21.9328 24.2211 21.9326 24.0004C21.9326 23.7795 22.1121 23.6 22.333 23.6H23.5996V22.3334C23.5996 22.1125 23.7791 21.933 24 21.933C24.2208 21.9332 24.3994 22.1126 24.3994 22.3334V23.6H25.666C25.8869 23.6 26.0664 23.7795 26.0664 24.0004C26.0662 24.2211 25.8868 24.3998 25.666 24.3998H24.3994V25.6664C24.3994 25.8872 24.2208 26.0666 24 26.0668C23.7791 26.0668 23.5996 25.8873 23.5996 25.6664ZM28.5664 24.0004C28.5662 26.5222 26.5218 28.5666 24 28.5668C21.478 28.5668 19.4328 26.5223 19.4326 24.0004C19.4326 21.4783 21.4779 19.433 24 19.433C26.522 19.4332 28.5664 21.4784 28.5664 24.0004Z" fill="#F3F4F6"/>
</g>
<defs>
<clipPath id="clip0_23690_32467">
<rect width="10" height="10" fill="white" transform="translate(19 19)"/>
</clipPath>
</defs>
</svg>
