<svg width="24" height="25" viewBox="0 0 24 25" fill="none" xmlns="http://www.w3.org/2000/svg">
<path fill-rule="evenodd" clip-rule="evenodd" d="M18.7704 10.4096C18.8564 10.4806 18.9412 10.5516 19.0255 10.6221C19.2033 10.7709 19.3789 10.9178 19.5589 11.0593C20.006 11.4107 20.1365 11.8507 19.9587 12.3849C19.9451 12.4261 19.9329 12.4681 19.9207 12.5099C19.898 12.5876 19.8754 12.6653 19.8436 12.7387C19.5329 13.4523 19.4442 14.193 19.4294 14.9434C18.9924 14.7493 18.5085 14.6414 17.9996 14.6414C17.0255 14.6414 16.1436 15.0366 15.5055 15.6753C15.4702 15.6527 15.417 15.6531 15.3553 15.6535L15.34 15.6536C13.8137 15.6559 12.2876 15.6557 10.7614 15.6555L9.45261 15.6553C9.3706 15.6553 9.28824 15.656 9.20624 15.6566C9.00786 15.658 8.80956 15.6595 8.61155 15.6524C8.48102 15.6477 8.4509 15.6923 8.45681 15.8123C8.46626 16.0021 8.46331 16.1925 8.45799 16.3829C8.44145 16.9546 7.98608 17.4033 7.4049 17.4098C6.80718 17.4168 6.20946 17.4174 5.61234 17.4098C5.02348 17.4022 4.56928 16.9441 4.56456 16.3554C4.55865 15.653 4.56101 14.9506 4.56456 14.2483C4.56515 14.1147 4.54566 13.9882 4.50609 13.8617C4.44271 13.6613 4.38016 13.4607 4.3176 13.26C4.22158 12.952 4.12555 12.644 4.02649 12.3369C3.86643 11.8407 3.99224 11.4324 4.39209 11.1014L4.78611 10.7751L5.22665 10.4102L4.89364 10.1872C4.6215 10.0048 4.35486 9.82616 4.08733 9.64927L4.0768 9.64231C4.00591 9.59556 3.93592 9.54941 3.89596 9.47294C3.81505 9.3183 3.83336 9.17185 3.96211 9.05352C4.09855 8.92816 4.25684 8.9264 4.40922 9.02482C4.47588 9.06787 4.54264 9.11081 4.60939 9.15374C4.92587 9.35729 5.24234 9.56083 5.54914 9.77755C5.69502 9.88065 5.73046 9.83438 5.78775 9.70082C5.97815 9.25676 6.17096 8.81332 6.36361 8.37024C6.57551 7.8829 6.78738 7.39561 6.99618 6.90719C7.21058 6.40576 7.57795 6.16559 8.12901 6.16676C10.7112 6.17144 13.2935 6.17144 15.8757 6.16676C16.428 6.16559 16.7936 6.40927 17.0074 6.90954C17.2028 7.36693 17.4012 7.82322 17.5996 8.27932C17.8059 8.75369 18.0123 9.22803 18.2152 9.70374C18.2784 9.85136 18.3239 9.86484 18.4574 9.77228C18.7441 9.57165 19.0382 9.38171 19.3324 9.19167C19.4024 9.14646 19.4724 9.10124 19.5423 9.05586C19.7615 8.9141 19.967 8.93636 20.0881 9.10917C20.2098 9.28256 20.1578 9.48525 19.941 9.63228C19.6802 9.80888 19.417 9.98274 19.1501 10.1591C19.0249 10.2418 18.8988 10.3251 18.7716 10.4096H18.7704ZM12.0083 10.7617L10.8309 10.7618C9.26028 10.762 7.68988 10.7621 6.1191 10.7593C5.97794 10.7593 5.8669 10.7927 5.7594 10.8859C5.38934 11.2471 5.39643 11.2413 5.39997 11.2384C5.40352 11.2355 5.40352 11.2355 5.01928 11.6083C4.84386 11.7465 4.80193 11.9064 4.86631 12.1115C4.97308 12.4504 5.02014 12.7163 5.06708 12.9816C5.11467 13.2505 5.16213 13.5187 5.27154 13.8617C5.42924 14.3549 5.71409 14.6599 6.23267 14.6605C9.96663 14.6616 13.7006 14.6616 17.4351 14.6605C17.9431 14.6605 18.1145 14.4894 18.4542 13.81C18.6159 13.4866 18.6996 13.2252 18.78 12.9739C18.8686 12.6972 18.9532 12.4328 19.1336 12.1115C19.1986 11.9041 19.1449 11.7471 18.9718 11.6106L18.2536 10.8935C18.1402 10.7945 18.0238 10.7593 17.875 10.7593C16.3706 10.7625 14.8661 10.7622 13.3617 10.7619L12.0083 10.7617ZM12.3397 9.77755C13.0744 9.77755 13.7019 9.7757 14.3097 9.7739C15.1908 9.7713 16.0305 9.76882 17.0954 9.77228C17.272 9.77228 17.2856 9.73479 17.2195 9.58366C17.0179 9.12148 16.9115 8.78324 16.8037 8.44039C16.7025 8.11839 16.6 7.79233 16.4161 7.3557C16.3239 7.13778 16.1839 7.0464 15.9435 7.04699C13.3542 7.05226 10.7655 7.05167 8.17617 7.04699C7.9346 7.04699 7.79817 7.1413 7.70603 7.35921C7.48252 7.8841 7.32854 8.23103 7.16031 8.61009C7.04448 8.87105 6.92188 9.14731 6.76511 9.50747C6.69974 9.65782 6.74621 9.7332 6.9045 9.73359C7.79694 9.73359 8.70951 9.74458 9.62208 9.75557C10.5347 9.76656 11.4472 9.77755 12.3397 9.77755ZM5.27035 15.6223C5.27094 15.5108 5.27154 15.3967 5.27154 15.279C5.6793 15.5765 6.09886 15.6717 6.5538 15.6577C6.75278 15.6514 6.95223 15.6526 7.15164 15.6538C7.30616 15.6547 7.46072 15.6556 7.61516 15.653C7.72029 15.6513 7.75691 15.6794 7.7516 15.7866C7.74719 15.884 7.74815 15.9815 7.74912 16.079C7.74996 16.1643 7.75081 16.2496 7.74805 16.3349C7.74097 16.5674 7.60807 16.7051 7.37596 16.7074C6.80127 16.7121 6.226 16.7115 5.65132 16.7074C5.42392 16.7057 5.27922 16.5774 5.2739 16.3642C5.26774 16.1216 5.26901 15.8787 5.27035 15.6223Z" fill="#1D4ED8"/>
<path d="M15.8755 5.96656C16.1815 5.96594 16.4514 6.03392 16.6783 6.18335C16.9051 6.33281 17.0723 6.55324 17.191 6.83082C17.3861 7.28751 17.5843 7.74375 17.7828 8.19996C17.9827 8.65957 18.1823 9.12013 18.3794 9.58179C18.6579 9.38825 18.943 9.2048 19.2242 9.0232C19.2939 8.97814 19.3637 8.9335 19.4331 8.88843L19.4341 8.88746C19.5698 8.79983 19.7206 8.75031 19.8716 8.76539C20.0278 8.7811 20.1595 8.8645 20.2505 8.9939C20.3422 9.12459 20.3766 9.27985 20.3345 9.43335C20.304 9.54477 20.2375 9.64188 20.149 9.72242L20.0533 9.79761C19.7913 9.97495 19.5271 10.1497 19.2603 10.3259C19.2088 10.3599 19.1568 10.3933 19.105 10.4275C19.1214 10.4412 19.1376 10.4549 19.1539 10.4685C19.3321 10.6176 19.5051 10.7628 19.6822 10.9021C19.9305 11.0973 20.1045 11.328 20.1851 11.5964C20.2454 11.7976 20.2505 12.009 20.2076 12.2273L20.149 12.448C20.1367 12.4852 20.1252 12.5238 20.1128 12.5662C20.0908 12.6416 20.0645 12.7313 20.0269 12.8181C19.7311 13.4974 19.6441 14.2089 19.6294 14.947L19.6236 15.2488L19.3482 15.1257C18.9363 14.9427 18.48 14.8416 17.9996 14.8416C17.0807 14.8416 16.2491 15.2144 15.647 15.8171L15.5328 15.9304L15.4126 15.8533H15.3404C13.8138 15.8556 12.2874 15.8554 10.7613 15.8552H9.45268C9.37152 15.8552 9.28968 15.8556 9.20756 15.8562C9.02723 15.8575 8.84286 15.8576 8.65776 15.8523C8.66485 16.0333 8.66265 16.2131 8.65776 16.3884C8.63809 17.0682 8.09452 17.6025 7.40678 17.6101C6.80783 17.6172 6.20866 17.6177 5.60991 17.6101C4.91192 17.6011 4.37049 17.0542 4.36479 16.3572C4.35887 15.6536 4.36125 14.9501 4.36479 14.2478L4.35307 14.0828L4.31498 13.9216C4.25151 13.721 4.189 13.5195 4.12651 13.3191C4.0305 13.0111 3.93513 12.7041 3.83647 12.3982C3.74661 12.1197 3.73304 11.8518 3.80815 11.6003C3.88324 11.3492 4.04083 11.1319 4.2642 10.947L4.65873 10.6209L4.89213 10.4265L4.78276 10.3533L3.97709 9.81617L3.96635 9.80933C3.90312 9.76764 3.78604 9.69482 3.7183 9.56519C3.66327 9.45979 3.63482 9.34201 3.65287 9.22046C3.67128 9.09718 3.73454 8.99071 3.8267 8.90601C3.92421 8.81644 4.04093 8.76213 4.16948 8.75562C4.29617 8.74925 4.41527 8.79076 4.51811 8.85718C4.58432 8.89994 4.65082 8.94234 4.71733 8.98511C5.0182 9.17863 5.32269 9.37575 5.61967 9.58375C5.80497 9.15193 5.99312 8.72108 6.18022 8.29078C6.39211 7.80345 6.60358 7.31651 6.81205 6.82886C6.93113 6.55037 7.09939 6.33008 7.3267 6.1814C7.554 6.03283 7.82437 5.96591 8.12944 5.96656C10.7114 5.97124 13.2936 5.97124 15.8755 5.96656ZM8.12846 6.36695C7.88253 6.36644 7.69318 6.4198 7.54545 6.51636C7.39806 6.61285 7.2754 6.76348 7.18022 6.98609C6.97119 7.47505 6.75921 7.96282 6.54741 8.44996C6.35472 8.89312 6.1614 9.33652 5.97123 9.78003C5.9569 9.81344 5.93851 9.85419 5.91557 9.89039C5.89273 9.92636 5.85236 9.97967 5.78373 10.0105C5.70888 10.0441 5.63499 10.037 5.57768 10.0183C5.52504 10.0011 5.47661 9.97116 5.43412 9.94117C5.13155 9.72743 4.81852 9.52592 4.50151 9.32203C4.43479 9.27911 4.36718 9.2363 4.30034 9.19312C4.25103 9.1613 4.21462 9.15385 4.18998 9.15503C4.16728 9.15618 4.13608 9.16522 4.09721 9.20093C4.06086 9.23441 4.05111 9.26091 4.04838 9.27906C4.04546 9.29865 4.04715 9.33161 4.0728 9.38062C4.07882 9.39213 4.08812 9.40249 4.10502 9.41675L4.18705 9.47535L4.1978 9.48218C4.46593 9.65948 4.73336 9.83894 5.00541 10.0212L5.33842 10.2439L5.56108 10.3933L5.35405 10.5642L4.52006 11.2556C4.3436 11.4017 4.23871 11.5549 4.19096 11.7146C4.14338 11.8739 4.14632 12.0579 4.21635 12.2752C4.31576 12.5834 4.41238 12.8931 4.50834 13.2009C4.57089 13.4015 4.63362 13.6017 4.69682 13.8015L4.72709 13.9119C4.7526 14.0217 4.76469 14.1332 4.7642 14.2488C4.76066 14.9509 4.75831 15.6525 4.7642 16.3533C4.76806 16.8335 5.1352 17.2035 5.61479 17.2097C6.21009 17.2173 6.80659 17.2167 7.40287 17.2097C7.8774 17.2044 8.24493 16.8403 8.25834 16.3767C8.26362 16.1876 8.2664 16.0035 8.25737 15.822C8.25438 15.7612 8.25199 15.6429 8.33452 15.5515C8.42188 15.4549 8.54528 15.4503 8.6187 15.4529L9.20463 15.4568L9.45268 15.4558L15.354 15.4539L15.4449 15.4558C15.6944 15.2206 15.9766 15.0198 16.2837 14.8601C12.9331 14.8609 9.58221 14.8612 6.23198 14.8601C5.93018 14.8597 5.6804 14.7695 5.48393 14.5955C5.2918 14.4252 5.16572 14.1888 5.08061 13.9226C4.96679 13.5659 4.91736 13.2858 4.86967 13.0164C4.82284 12.7517 4.77784 12.497 4.67534 12.1716C4.63507 12.0434 4.62204 11.9096 4.66069 11.7781C4.69864 11.6492 4.77996 11.5443 4.88725 11.4578C5.07415 11.2764 5.16834 11.1851 5.21537 11.1394L5.25444 11.1003C5.25636 11.0983 5.25883 11.097 5.2603 11.0955C5.26623 11.0894 5.27761 11.0778 5.29936 11.0564C5.34372 11.0127 5.43473 10.9234 5.61967 10.7429L5.62846 10.7341C5.77821 10.6045 5.93843 10.5594 6.1187 10.5593C7.68909 10.5621 9.26011 10.5615 10.8306 10.5613L13.3619 10.5623C14.8663 10.5626 16.3704 10.5625 17.8746 10.5593C18.016 10.5593 18.1449 10.5862 18.2662 10.657L18.3853 10.7429L18.3951 10.7517L18.7544 11.1111C18.7544 11.1111 18.7567 11.1133 18.7593 11.116C18.7649 11.1216 18.7769 11.1326 18.7994 11.155C18.8292 11.1848 18.8781 11.2349 18.9605 11.3171L19.108 11.4646C19.2095 11.5475 19.2907 11.6475 19.3316 11.7722C19.3745 11.9033 19.3664 12.0386 19.3247 12.1716L19.3179 12.1912L19.3081 12.2097C19.1385 12.5118 19.0585 12.759 18.9703 13.0349C18.8896 13.2869 18.8024 13.5611 18.6333 13.8992C18.5204 14.125 18.4154 14.3092 18.3052 14.4548C18.6295 14.4812 18.9421 14.5488 19.2378 14.6531C19.2697 13.9847 19.375 13.313 19.6597 12.6589L19.729 12.4539C19.7411 12.4126 19.7541 12.3672 19.7691 12.322L19.815 12.1502C19.8473 11.9858 19.8402 11.8403 19.8013 11.7107C19.7493 11.5379 19.6337 11.3727 19.4351 11.2166C19.2524 11.0729 19.0745 10.9236 18.897 10.7752C18.8128 10.7047 18.7284 10.6346 18.6431 10.5642L18.2134 10.2097H18.7105C18.8211 10.1364 18.9308 10.0639 19.0396 9.99195C19.3066 9.81552 19.5689 9.64239 19.8287 9.46656C19.9092 9.41189 19.9398 9.36063 19.9488 9.32789C19.9526 9.31384 19.9541 9.29826 19.9507 9.28101L19.9244 9.22437C19.8943 9.18152 19.8628 9.16696 19.8316 9.16382C19.7951 9.16025 19.7338 9.16979 19.6509 9.22339C19.5808 9.26888 19.5109 9.31493 19.441 9.36011C19.1463 9.55045 18.855 9.73816 18.5718 9.93628C18.5347 9.96203 18.4907 9.98957 18.4449 10.0076C18.3976 10.0261 18.3304 10.0416 18.2554 10.0203C18.18 9.99878 18.1305 9.94989 18.1001 9.90894C18.0708 9.86938 18.0494 9.8231 18.0318 9.78199C17.8292 9.3072 17.6228 8.83344 17.4165 8.35914C17.2182 7.90315 17.0195 7.44611 16.8238 6.98804C16.7287 6.76555 16.6059 6.61447 16.4585 6.51734C16.3112 6.42026 16.1224 6.36648 15.8765 6.36695C13.294 6.37163 10.7109 6.37163 8.12846 6.36695ZM5.47123 15.1716C5.81129 15.3947 6.15954 15.4697 6.54741 15.4578C6.75074 15.4514 6.95409 15.4527 7.15287 15.4539C7.30775 15.4548 7.46005 15.4554 7.61186 15.4529C7.66649 15.452 7.77625 15.454 7.86088 15.533C7.95169 15.6178 7.95485 15.7333 7.9517 15.7966C7.94764 15.8873 7.9478 15.9789 7.94877 16.0769C7.94961 16.1615 7.95071 16.2513 7.9478 16.3416C7.94305 16.4937 7.89597 16.6392 7.78862 16.7478C7.68023 16.8573 7.53393 16.9053 7.37846 16.907C6.80258 16.9117 6.22542 16.9111 5.64995 16.907C5.49984 16.9058 5.35557 16.8626 5.24565 16.7634C5.13371 16.6623 5.07758 16.5217 5.07377 16.3689C5.06753 16.1228 5.0695 15.8766 5.07084 15.6209C5.07126 15.542 5.07063 15.4621 5.07084 15.3806L4.88627 15.2459L5.1812 15.0994L5.18315 15.0984L5.47123 14.9548V15.1716ZM5.47416 16.3591L5.48686 16.4294C5.49419 16.4466 5.50398 16.4582 5.51323 16.4666C5.53381 16.4851 5.57567 16.507 5.65287 16.5076C6.22646 16.5117 6.8004 16.5122 7.37358 16.5076C7.45005 16.5068 7.48669 16.4845 7.50444 16.4666C7.52299 16.4477 7.54594 16.4086 7.54838 16.3289L7.54936 16.0808C7.54864 16.0078 7.54962 15.9312 7.55131 15.8533C7.4169 15.8547 7.28295 15.854 7.15092 15.8533C6.95089 15.8521 6.75472 15.851 6.5601 15.8572C6.18306 15.8688 5.82151 15.8099 5.47026 15.6335C5.46893 15.8866 5.46817 16.1233 5.47416 16.3591ZM6.1187 10.9597C6.01877 10.9598 5.95695 10.9796 5.89311 11.0339C5.7118 11.2109 5.62291 11.299 5.57963 11.3416C5.55777 11.3631 5.54879 11.3723 5.54545 11.3757C5.54116 11.3803 5.53666 11.3855 5.53666 11.3855C5.53062 11.3914 5.51808 11.4028 5.49467 11.4255C5.44703 11.4718 5.35071 11.5655 5.15873 11.7517L5.14311 11.7654C5.07914 11.8158 5.05432 11.8579 5.04448 11.8914C5.03445 11.9256 5.03311 11.9749 5.05717 12.0515L5.12944 12.3025C5.19225 12.5416 5.22891 12.7476 5.2642 12.947C5.31165 13.2152 5.35753 13.4717 5.46245 13.8005C5.53498 14.0274 5.63034 14.19 5.74955 14.2957C5.86448 14.3975 6.01639 14.4605 6.23295 14.4607C9.9668 14.4619 13.7007 14.4619 17.4351 14.4607L17.5874 14.4529C17.721 14.4382 17.804 14.4016 17.8775 14.3386C17.9916 14.2407 18.1035 14.0634 18.2749 13.7205C18.4292 13.412 18.5092 13.1634 18.5894 12.9128C18.6757 12.6432 18.7633 12.3698 18.9439 12.0418C18.964 11.9731 18.9621 11.9291 18.9517 11.8972C18.9404 11.8628 18.9137 11.819 18.8482 11.7673L18.8384 11.7605L18.8306 11.7517C18.6512 11.5725 18.561 11.483 18.5162 11.4382L18.4712 11.3933C18.4712 11.3933 18.4682 11.3912 18.4654 11.3884C18.4598 11.3828 18.4488 11.3708 18.4263 11.3484C18.3994 11.3215 18.3561 11.2791 18.2876 11.2107L18.1177 11.0408C18.0483 10.9816 17.9816 10.9597 17.8746 10.9597L10.8306 10.9617C9.26012 10.9619 7.68959 10.9625 6.1187 10.9597ZM5.39995 11.4353C5.41436 11.4354 5.42663 11.436 5.43608 11.4343C5.42964 11.4356 5.4169 11.4353 5.39995 11.4353ZM5.44291 11.4324C5.44694 11.4315 5.45044 11.432 5.45268 11.4314C5.45769 11.43 5.46198 11.4261 5.46635 11.4246C5.45962 11.427 5.45205 11.4303 5.44291 11.4324ZM5.31108 11.0593L5.30815 11.0603C5.31019 11.0592 5.31305 11.0587 5.31596 11.0574C5.31406 11.0583 5.31108 11.0593 5.31108 11.0593ZM15.9429 6.84742C16.088 6.84706 16.2259 6.87396 16.3453 6.95191C16.4648 7.03009 16.5439 7.14518 16.6001 7.27808C16.788 7.72396 16.8932 8.05783 16.9947 8.38062C17.1021 8.72235 17.2058 9.05197 17.4029 9.50367L17.4488 9.6355C17.458 9.67916 17.4673 9.75995 17.4195 9.83863C17.3704 9.91925 17.292 9.94759 17.2447 9.95875C17.2205 9.96442 17.1947 9.96753 17.1695 9.96949L17.0953 9.97242C16.031 9.96895 15.1912 9.97177 14.3101 9.97437C13.7024 9.97617 13.0743 9.9773 12.3394 9.9773C11.4456 9.9773 10.5319 9.9668 9.61967 9.95582C8.70699 9.94482 7.79575 9.93336 6.90483 9.93335C6.81058 9.9331 6.66154 9.91308 6.58061 9.78199C6.50233 9.655 6.54404 9.51386 6.58159 9.4275C6.7386 9.06677 6.8613 8.78997 6.97709 8.52906C7.14524 8.15021 7.29915 7.80436 7.52202 7.28101L7.56791 7.18628C7.61884 7.0946 7.68509 7.01441 7.77397 6.95484C7.89257 6.87548 8.02995 6.84742 8.17631 6.84742H15.9429ZM8.06303 7.25855C8.03403 7.26592 8.01313 7.27679 7.99662 7.28785C7.97999 7.29899 7.96271 7.31477 7.94487 7.33863L7.89018 7.43726C7.66607 7.96355 7.5116 8.31198 7.3433 8.69117C7.23331 8.939 7.11762 9.20037 6.97221 9.53394C7.84447 9.53448 8.73523 9.54471 9.62455 9.55542C10.5372 9.56642 11.4485 9.57788 12.3394 9.57789C13.0738 9.57789 13.7013 9.57578 14.3091 9.57398C15.1629 9.57146 15.9783 9.56902 16.9976 9.57203C16.8165 9.14547 16.7138 8.82199 16.6128 8.50074C16.5371 8.25981 16.4619 8.02006 16.3531 7.73511L16.232 7.43335C16.1961 7.34857 16.1589 7.3087 16.1255 7.28687C16.0917 7.26489 16.0389 7.2466 15.9439 7.24683C13.3545 7.2521 10.7657 7.25152 8.17631 7.24683L8.06303 7.25855Z" fill="#1D4ED8"/>
<path fill-rule="evenodd" clip-rule="evenodd" d="M17.5992 18.5671V19.4168C17.5992 19.6377 17.7786 19.8171 17.9996 19.8171C18.2205 19.8171 18.3999 19.6377 18.3999 19.4168V18.5671H19.2496L19.3306 18.5584C19.5126 18.5209 19.6499 18.3599 19.6499 18.1668C19.6499 17.9458 19.4705 17.7664 19.2496 17.7664H18.3999V17.4079V16.9168C18.3999 16.8399 18.3782 16.7681 18.3406 16.7071C18.2701 16.5927 18.1436 16.5164 17.9996 16.5164C17.8538 16.5164 17.7261 16.5945 17.6561 16.7111C17.6199 16.7712 17.5992 16.8416 17.5992 16.9168V17.4165V17.7664H16.7496C16.5286 17.7664 16.3492 17.9458 16.3492 18.1668C16.3492 18.3877 16.5286 18.5671 16.7496 18.5671H17.5992ZM17.9996 15.4421C18.139 15.4421 18.276 15.4526 18.4097 15.4728C18.5194 15.4894 18.627 15.5125 18.732 15.5417C18.9838 15.6118 19.2209 15.7171 19.4376 15.852C20.2101 16.3329 20.7242 17.1897 20.7242 18.1668C20.7242 19.6717 19.5045 20.8914 17.9996 20.8914C16.4946 20.8914 15.2749 19.6717 15.2749 18.1668C15.2749 17.6683 15.4087 17.2011 15.6424 16.7992C15.7989 16.53 16.0002 16.29 16.2362 16.0895C16.4463 15.911 16.6838 15.7638 16.9416 15.6551C17.2669 15.518 17.6244 15.4421 17.9996 15.4421Z" fill="#1D4ED8"/>
</svg>
