<svg aria-hidden="true" style="position: absolute; width: 0; height: 0; overflow: hidden;" version="1.1" xmlns="http://www.w3.org/2000/svg" xmlns:xlink="http://www.w3.org/1999/xlink">
<defs>
<symbol id="icon-account" viewBox="0 0 32 32">
<path d="M16.57 15.308c-1.283 0-2.382-0.457-3.296-1.371s-1.371-2.013-1.371-3.296 0.457-2.382 1.371-3.296c0.914-0.914 2.012-1.371 3.296-1.371s2.382 0.457 3.296 1.371c0.914 0.914 1.371 2.012 1.371 3.296s-0.457 2.382-1.371 3.296c-0.914 0.914-2.012 1.371-3.296 1.371zM6.57 23.436v-0.939c0-0.653 0.177-1.258 0.532-1.814s0.829-0.984 1.422-1.283c1.318-0.646 2.647-1.131 3.988-1.454s2.694-0.485 4.058-0.485 2.717 0.162 4.058 0.485c1.341 0.323 2.671 0.808 3.988 1.454 0.593 0.299 1.067 0.727 1.422 1.283s0.532 1.161 0.532 1.814v0.939c0 0.562-0.197 1.040-0.591 1.435s-0.872 0.591-1.435 0.591h-15.949c-0.562 0-1.041-0.197-1.435-0.591s-0.591-0.873-0.591-1.435zM8.57 23.462h16v-0.964c0-0.27-0.078-0.52-0.235-0.75s-0.369-0.417-0.637-0.563c-1.149-0.566-2.32-0.995-3.514-1.286s-2.399-0.437-3.614-0.437c-1.215 0-2.42 0.146-3.614 0.437s-2.365 0.72-3.514 1.286c-0.268 0.145-0.481 0.333-0.637 0.563s-0.235 0.48-0.235 0.75v0.964zM16.57 13.308c0.733 0 1.361-0.261 1.883-0.783s0.783-1.15 0.783-1.883-0.261-1.361-0.783-1.883c-0.522-0.522-1.15-0.783-1.883-0.783s-1.361 0.261-1.883 0.783c-0.522 0.522-0.783 1.15-0.783 1.883s0.261 1.361 0.783 1.883c0.522 0.522 1.15 0.783 1.883 0.783z"></path>
</symbol>
<symbol id="icon-account_filled" viewBox="0 0 32 32">
<path d="M15.336 15.308c-1.287 0-2.387-0.456-3.299-1.368s-1.368-2.011-1.368-3.299c0-1.287 0.456-2.387 1.368-3.299s2.012-1.368 3.299-1.368c1.287 0 2.387 0.456 3.299 1.368s1.368 2.012 1.368 3.299c0 1.287-0.456 2.387-1.368 3.299s-2.012 1.368-3.299 1.368zM5.336 23.436v-0.939c0-0.653 0.177-1.258 0.532-1.814s0.829-0.984 1.422-1.283c1.318-0.646 2.647-1.131 3.988-1.454s2.694-0.485 4.058-0.485c1.364 0 2.717 0.162 4.058 0.485s2.671 0.808 3.988 1.454c0.593 0.299 1.067 0.727 1.422 1.283s0.532 1.161 0.532 1.814v0.939c0 0.562-0.197 1.040-0.591 1.435s-0.872 0.591-1.435 0.591h-15.949c-0.562 0-1.041-0.197-1.435-0.591s-0.591-0.873-0.591-1.435z"></path>
</symbol>
<symbol id="icon-add-photo" viewBox="0 0 32 32">
<path d="M7.077 27.333c-0.674 0-1.244-0.233-1.71-0.7s-0.7-1.037-0.7-1.71v-17.846c0-0.674 0.233-1.244 0.7-1.71s1.037-0.7 1.71-0.7h9c0.283 0 0.521 0.096 0.712 0.288s0.288 0.429 0.288 0.713c0 0.284-0.096 0.521-0.288 0.712s-0.429 0.287-0.712 0.287h-9c-0.12 0-0.218 0.038-0.295 0.115s-0.115 0.175-0.115 0.295v17.846c0 0.12 0.038 0.218 0.115 0.295s0.175 0.115 0.295 0.115h17.846c0.12 0 0.218-0.038 0.295-0.115s0.115-0.175 0.115-0.295v-9c0-0.283 0.096-0.521 0.288-0.712s0.429-0.288 0.713-0.288c0.284 0 0.521 0.096 0.712 0.288s0.287 0.429 0.287 0.712v9c0 0.673-0.233 1.244-0.7 1.71s-1.037 0.7-1.71 0.7h-17.846zM8.513 22.256h14.974l-4.654-6.205-4 5.192-2.833-3.603-3.487 4.615zM22.667 9.333h-1.667c-0.283 0-0.521-0.096-0.713-0.288s-0.287-0.429-0.287-0.713c0-0.284 0.096-0.521 0.287-0.712s0.429-0.287 0.713-0.287h1.667v-1.667c0-0.283 0.096-0.521 0.288-0.712s0.429-0.288 0.713-0.288c0.283 0 0.521 0.096 0.712 0.288s0.287 0.429 0.287 0.712v1.667h1.667c0.283 0 0.521 0.096 0.712 0.288s0.288 0.429 0.288 0.713c0 0.284-0.096 0.521-0.288 0.712s-0.429 0.287-0.712 0.287h-1.667v1.667c0 0.283-0.096 0.521-0.288 0.713s-0.429 0.287-0.713 0.287c-0.284 0-0.521-0.096-0.712-0.287s-0.287-0.429-0.287-0.713v-1.667z"></path>
</symbol>
<symbol id="icon-add" viewBox="0 0 32 32">
<path d="M15 17h-6.667c-0.283 0-0.521-0.096-0.712-0.288s-0.288-0.429-0.288-0.713c0-0.283 0.096-0.521 0.288-0.712s0.429-0.287 0.712-0.287h6.667v-6.667c0-0.283 0.096-0.521 0.288-0.712s0.429-0.288 0.713-0.288c0.283 0 0.521 0.096 0.712 0.288s0.287 0.429 0.287 0.712v6.667h6.667c0.283 0 0.521 0.096 0.712 0.288s0.288 0.429 0.288 0.713c0 0.283-0.096 0.521-0.288 0.712s-0.429 0.287-0.712 0.287h-6.667v6.667c0 0.283-0.096 0.521-0.288 0.712s-0.429 0.288-0.713 0.288c-0.283 0-0.521-0.096-0.712-0.288s-0.287-0.429-0.287-0.712v-6.667z"></path>
</symbol>
<symbol id="icon-api-fail_filled" viewBox="0 0 32 32">
<path d="M8.667 26c-1.843 0-3.414-0.639-4.715-1.918s-1.951-2.841-1.951-4.687c0-1.627 0.522-3.076 1.567-4.348s2.377-2.025 3.997-2.257c0.427-1.993 1.43-3.623 3.007-4.89s3.387-1.9 5.429-1.9c2.414 0 4.462 0.841 6.144 2.523s2.523 3.73 2.523 6.144v0.667h0.41c1.405 0.109 2.577 0.674 3.515 1.695s1.408 2.233 1.408 3.638c0 1.487-0.517 2.748-1.551 3.782s-2.295 1.551-3.782 1.551h-16zM16 20.654c0.283 0 0.521-0.096 0.712-0.287s0.287-0.429 0.287-0.713c0-0.283-0.096-0.521-0.288-0.712s-0.429-0.287-0.713-0.287c-0.284 0-0.521 0.096-0.712 0.287s-0.287 0.429-0.287 0.713c0 0.283 0.096 0.521 0.288 0.712s0.429 0.287 0.713 0.287zM16 16.654c0.283 0 0.521-0.096 0.712-0.288s0.287-0.429 0.287-0.712v-3.654c0-0.283-0.096-0.521-0.288-0.712s-0.429-0.288-0.713-0.288c-0.284 0-0.521 0.096-0.712 0.288s-0.287 0.429-0.287 0.712v3.654c0 0.283 0.096 0.521 0.288 0.712s0.429 0.288 0.713 0.288z"></path>
</symbol>
<symbol id="icon-app_version" viewBox="0 0 32 32">
<path d="M3.787 24.742v-2h3.897l-0.969-0.928c-1.096-1.014-1.875-2.149-2.337-3.404s-0.694-2.524-0.694-3.806c0-2.304 0.675-4.37 2.024-6.199s3.119-3.083 5.309-3.765v2.108c-1.608 0.629-2.899 1.659-3.873 3.091s-1.46 3.020-1.46 4.765c0 1.043 0.197 2.055 0.592 3.038s1.009 1.891 1.844 2.726l0.846 0.846v-3.651h2v7.179h-7.179zM26.264 12.96h-2.020c-0.137-0.778-0.393-1.529-0.768-2.253s-0.878-1.408-1.509-2.052l-0.846-0.846v3.651h-2v-7.179h7.179v2h-3.897l0.969 0.928c0.843 0.865 1.498 1.781 1.966 2.749s0.776 1.968 0.927 3.003z"></path>
<path d="M21.669 27.72l-0.272-1.577c-0.386-0.111-0.72-0.247-1-0.408s-0.556-0.36-0.826-0.597l-1.498 0.536-1.051-1.703 1.238-1.051c-0.104-0.396-0.156-0.771-0.156-1.123s0.052-0.727 0.156-1.123l-1.238-1.051 1.051-1.703 1.498 0.536c0.27-0.237 0.545-0.437 0.826-0.597s0.614-0.297 1-0.408l0.272-1.577h2l0.272 1.577c0.387 0.111 0.72 0.25 1 0.418s0.556 0.377 0.826 0.628l1.497-0.577 1.051 1.744-1.238 1.051c0.104 0.369 0.156 0.737 0.156 1.103s-0.052 0.733-0.156 1.102l1.238 1.051-1.051 1.703-1.497-0.536c-0.27 0.238-0.545 0.437-0.826 0.597s-0.613 0.297-1 0.408l-0.272 1.577h-2zM22.669 24.566c0.759 0 1.41-0.272 1.954-0.815s0.816-1.195 0.816-1.954-0.272-1.41-0.816-1.954c-0.543-0.544-1.195-0.815-1.954-0.815s-1.41 0.272-1.954 0.815c-0.544 0.544-0.815 1.195-0.815 1.954s0.272 1.41 0.815 1.954c0.544 0.544 1.195 0.815 1.954 0.815z"></path>
</symbol>
<symbol id="icon-arrow_back" viewBox="0 0 32 32">
<path d="M8.994 17l4.39 4.39c0.199 0.199 0.296 0.431 0.294 0.696s-0.1 0.502-0.294 0.709c-0.207 0.207-0.444 0.313-0.713 0.32s-0.506-0.093-0.713-0.3l-5.972-5.972c-0.241-0.241-0.361-0.522-0.361-0.844s0.12-0.603 0.361-0.844l5.972-5.972c0.198-0.198 0.434-0.296 0.706-0.294s0.512 0.107 0.719 0.314c0.193 0.207 0.293 0.441 0.3 0.703s-0.093 0.496-0.3 0.703l-4.39 4.39h15.687c0.284 0 0.521 0.096 0.713 0.287s0.287 0.429 0.287 0.713-0.096 0.521-0.287 0.713c-0.191 0.192-0.429 0.287-0.713 0.287h-15.687z"></path>
</symbol>
<symbol id="icon-arrow_next" viewBox="0 0 32 32">
<path d="M21.56 16.56h-15.149c-0.284 0-0.521-0.096-0.713-0.287s-0.287-0.429-0.287-0.713c0-0.284 0.096-0.521 0.287-0.713s0.429-0.287 0.713-0.287h15.149l-4.39-4.39c-0.198-0.198-0.296-0.431-0.294-0.696s0.101-0.502 0.294-0.709c0.207-0.207 0.444-0.313 0.713-0.32s0.506 0.093 0.713 0.3l5.972 5.972c0.125 0.125 0.213 0.257 0.264 0.395s0.077 0.288 0.077 0.449-0.026 0.31-0.077 0.449c-0.051 0.139-0.139 0.27-0.264 0.395l-5.972 5.972c-0.198 0.198-0.434 0.296-0.706 0.294s-0.512-0.107-0.719-0.314c-0.193-0.207-0.293-0.441-0.3-0.703s0.093-0.496 0.3-0.703l4.39-4.39z"></path>
</symbol>
<symbol id="icon-attachment" viewBox="0 0 32 32">
<path d="M16 24.808c1.352 0 2.494-0.484 3.424-1.451s1.396-2.129 1.396-3.485v-4.718c0-0.284-0.096-0.521-0.287-0.713s-0.429-0.287-0.713-0.287c-0.283 0-0.521 0.096-0.713 0.287s-0.287 0.429-0.287 0.713v4.718c0 0.802-0.271 1.491-0.812 2.069s-1.211 0.867-2.009 0.867c-0.785 0-1.451-0.289-1.999-0.867s-0.822-1.267-0.822-2.069v-7.308c0-0.277 0.088-0.511 0.264-0.701s0.391-0.286 0.646-0.286c0.268 0 0.487 0.095 0.657 0.286s0.254 0.424 0.254 0.701v6.308c0 0.284 0.096 0.521 0.287 0.713s0.429 0.287 0.713 0.287 0.521-0.096 0.713-0.287c0.192-0.192 0.287-0.429 0.287-0.713v-6.308c0-0.822-0.279-1.526-0.838-2.11s-1.25-0.877-2.072-0.877c-0.822 0-1.513 0.292-2.072 0.877s-0.838 1.288-0.838 2.11v7.308c0 1.355 0.469 2.517 1.406 3.485s2.076 1.451 3.414 1.451zM8.41 28.667c-0.674 0-1.244-0.233-1.71-0.7s-0.7-1.037-0.7-1.71v-20.513c0-0.674 0.233-1.244 0.7-1.71s1.037-0.7 1.71-0.7h11.41l6.18 6.18v16.743c0 0.673-0.233 1.244-0.7 1.71s-1.037 0.7-1.71 0.7h-15.179zM8.41 26.667h15.179c0.103 0 0.197-0.043 0.282-0.128s0.128-0.179 0.128-0.282v-15.744h-3.974c-0.344 0-0.63-0.115-0.86-0.345s-0.345-0.517-0.345-0.86v-3.974h-10.41c-0.103 0-0.197 0.043-0.282 0.128s-0.128 0.179-0.128 0.282v20.513c0 0.103 0.043 0.197 0.128 0.282s0.179 0.128 0.282 0.128z"></path>
</symbol>
<symbol id="icon-attachment_filled" viewBox="0 0 32 32">
<path d="M16 24.808c1.352 0 2.494-0.484 3.424-1.451s1.396-2.129 1.396-3.485v-4.718c0-0.284-0.096-0.521-0.287-0.713s-0.429-0.287-0.713-0.287c-0.283 0-0.521 0.096-0.713 0.287s-0.287 0.429-0.287 0.713v4.718c0 0.802-0.271 1.491-0.812 2.069s-1.211 0.867-2.009 0.867c-0.785 0-1.451-0.289-1.999-0.867s-0.822-1.267-0.822-2.069v-7.308c0-0.277 0.088-0.511 0.264-0.701s0.391-0.286 0.646-0.286c0.268 0 0.487 0.095 0.657 0.286s0.254 0.424 0.254 0.701v6.308c0 0.284 0.096 0.521 0.287 0.713s0.429 0.287 0.713 0.287 0.521-0.096 0.713-0.287c0.192-0.192 0.287-0.429 0.287-0.713v-6.308c0-0.822-0.279-1.526-0.838-2.11s-1.25-0.877-2.072-0.877c-0.822 0-1.513 0.292-2.072 0.877s-0.838 1.288-0.838 2.11v7.308c0 1.355 0.469 2.517 1.406 3.485s2.076 1.451 3.414 1.451zM8.41 28.667c-0.674 0-1.244-0.233-1.71-0.7s-0.7-1.037-0.7-1.71v-20.513c0-0.674 0.233-1.244 0.7-1.71s1.037-0.7 1.71-0.7h11.41l6.18 6.18v16.743c0 0.673-0.233 1.244-0.7 1.71s-1.037 0.7-1.71 0.7h-15.179zM18.821 5.333v3.974c0 0.344 0.115 0.63 0.345 0.86s0.517 0.345 0.86 0.345h3.974l-5.179-5.179z"></path>
</symbol>
<symbol id="icon-back" viewBox="0 0 32 32">
<path d="M13.938 16l5.431 5.431c0.185 0.185 0.279 0.417 0.283 0.696s-0.090 0.516-0.283 0.709c-0.193 0.193-0.427 0.29-0.703 0.29s-0.509-0.097-0.703-0.29l-5.992-5.992c-0.125-0.125-0.213-0.257-0.264-0.395s-0.077-0.288-0.077-0.449c0-0.161 0.026-0.31 0.077-0.449s0.139-0.27 0.264-0.395l5.992-5.992c0.185-0.184 0.417-0.279 0.696-0.283s0.516 0.090 0.709 0.283c0.193 0.193 0.29 0.428 0.29 0.703s-0.097 0.509-0.29 0.703l-5.431 5.431z"></path>
</symbol>
<symbol id="icon-box" viewBox="0 0 31 32">
<path d="M14.079 25.915v-9.137l-8-4.633v8.916c0 0.065 0.016 0.127 0.049 0.185s0.082 0.107 0.148 0.148l7.803 4.522zM15.999 25.915l7.803-4.522c0.066-0.041 0.115-0.090 0.148-0.148s0.049-0.119 0.049-0.185v-8.916l-8 4.633v9.137zM13.882 28.010l-8.566-4.931c-0.364-0.21-0.648-0.491-0.852-0.842s-0.305-0.737-0.305-1.157v-9.708c0-0.42 0.102-0.806 0.305-1.157s0.487-0.632 0.852-0.842l8.566-4.931c0.364-0.21 0.75-0.315 1.157-0.315s0.793 0.105 1.157 0.315l8.566 4.931c0.364 0.21 0.648 0.49 0.852 0.842s0.305 0.737 0.305 1.157v9.708c0 0.42-0.102 0.806-0.305 1.157s-0.488 0.632-0.852 0.842l-8.566 4.931c-0.364 0.21-0.75 0.315-1.157 0.315s-0.793-0.105-1.157-0.315zM19.974 12.258l2.969-1.703-7.707-4.458c-0.065-0.041-0.131-0.061-0.197-0.061s-0.131 0.020-0.197 0.061l-2.779 1.6 7.911 4.561zM15.039 15.124l2.976-1.723-7.904-4.569-2.976 1.723 7.904 4.569z"></path>
</symbol>
<symbol id="icon-box_filled" viewBox="0 0 33 32">
<path d="M15.912 27.969v-11.815l-10.333-5.974v10.456c0 0.438 0.106 0.839 0.318 1.205s0.508 0.658 0.887 0.877l9.128 5.251zM17.912 27.969l9.128-5.251c0.38-0.219 0.675-0.511 0.887-0.877s0.318-0.768 0.318-1.205v-10.456l-10.333 5.974v11.815zM23.006 10.905l4.151-2.403-9.041-5.197c-0.379-0.219-0.781-0.328-1.205-0.328s-0.826 0.109-1.205 0.328l-2.928 1.68 10.228 5.92zM16.912 14.431l4.095-2.356-10.233-5.928-4.115 2.364 10.254 5.921z"></path>
</symbol>
<symbol id="icon-calendar" viewBox="0 0 32 32">
<path d="M7.077 28.667c-0.674 0-1.244-0.233-1.71-0.7s-0.7-1.037-0.7-1.71v-17.846c0-0.674 0.233-1.244 0.7-1.71s1.037-0.7 1.71-0.7h1.846v-1.795c0-0.292 0.098-0.536 0.294-0.732s0.44-0.293 0.732-0.293c0.292 0 0.536 0.098 0.732 0.293s0.294 0.44 0.294 0.732v1.795h10.103v-1.82c0-0.284 0.096-0.521 0.287-0.713s0.429-0.287 0.713-0.287c0.284 0 0.521 0.096 0.713 0.287s0.287 0.429 0.287 0.713v1.82h1.846c0.673 0 1.244 0.233 1.71 0.7s0.7 1.037 0.7 1.71v17.846c0 0.673-0.233 1.244-0.7 1.71s-1.037 0.7-1.71 0.7h-17.846zM7.077 26.667h17.846c0.103 0 0.197-0.043 0.282-0.128s0.128-0.179 0.128-0.282v-12.513h-18.667v12.513c0 0.103 0.043 0.197 0.128 0.282s0.179 0.128 0.282 0.128zM6.667 11.744h18.667v-3.333c0-0.103-0.043-0.197-0.128-0.282s-0.179-0.128-0.282-0.128h-17.846c-0.103 0-0.197 0.043-0.282 0.128s-0.128 0.179-0.128 0.282v3.333z"></path>
</symbol>
<symbol id="icon-calendar_filled" viewBox="0 0 32 32">
<path d="M7.077 28.667c-0.674 0-1.244-0.233-1.71-0.7s-0.7-1.037-0.7-1.71v-17.846c0-0.674 0.233-1.244 0.7-1.71s1.037-0.7 1.71-0.7h1.846v-1.795c0-0.292 0.098-0.536 0.294-0.732s0.44-0.293 0.732-0.293c0.292 0 0.536 0.098 0.732 0.293s0.294 0.44 0.294 0.732v1.795h10.103v-1.82c0-0.284 0.096-0.521 0.287-0.713s0.429-0.287 0.713-0.287c0.284 0 0.521 0.096 0.713 0.287s0.287 0.429 0.287 0.713v1.82h1.846c0.673 0 1.244 0.233 1.71 0.7s0.7 1.037 0.7 1.71v17.846c0 0.673-0.233 1.244-0.7 1.71s-1.037 0.7-1.71 0.7h-17.846zM7.077 26.667h17.846c0.103 0 0.197-0.043 0.282-0.128s0.128-0.179 0.128-0.282v-12.513h-18.667v12.513c0 0.103 0.043 0.197 0.128 0.282s0.179 0.128 0.282 0.128z"></path>
</symbol>
<symbol id="icon-camera" viewBox="0 0 32 32">
<path d="M15.669 23.079c1.53 0 2.827-0.532 3.891-1.596s1.596-2.361 1.596-3.891c0-1.53-0.532-2.827-1.596-3.891s-2.361-1.596-3.891-1.596c-1.53 0-2.827 0.532-3.891 1.596s-1.596 2.361-1.596 3.891c0 1.53 0.532 2.827 1.596 3.891s2.361 1.596 3.891 1.596zM15.669 21.079c-0.985 0-1.812-0.335-2.482-1.005s-1.005-1.497-1.005-2.482 0.335-1.812 1.005-2.482c0.67-0.67 1.497-1.005 2.482-1.005s1.812 0.335 2.482 1.005c0.67 0.67 1.005 1.497 1.005 2.482s-0.335 1.812-1.005 2.482c-0.67 0.67-1.497 1.005-2.482 1.005zM5.413 27.592c-0.674 0-1.244-0.233-1.71-0.7s-0.7-1.037-0.7-1.71v-15.179c0-0.674 0.233-1.244 0.7-1.71s1.037-0.7 1.71-0.7h4.072l1.744-1.89c0.219-0.241 0.483-0.431 0.794-0.569s0.637-0.208 0.981-0.208h5.333c0.343 0 0.67 0.069 0.981 0.208s0.575 0.328 0.794 0.569l1.744 1.89h4.072c0.674 0 1.244 0.233 1.71 0.7s0.7 1.037 0.7 1.71v15.179c0 0.674-0.233 1.244-0.7 1.71s-1.037 0.7-1.71 0.7h-20.513zM5.413 25.592h20.513c0.12 0 0.218-0.038 0.295-0.115s0.115-0.175 0.115-0.295v-15.179c0-0.12-0.039-0.218-0.115-0.295s-0.175-0.115-0.295-0.115h-4.964l-2.446-2.667h-5.692l-2.446 2.667h-4.964c-0.12 0-0.218 0.038-0.295 0.115s-0.115 0.175-0.115 0.295v15.179c0 0.12 0.038 0.218 0.115 0.295s0.175 0.115 0.295 0.115z"></path>
</symbol>
<symbol id="icon-camera_filled" viewBox="0 0 33 32">
<path d="M16.006 22.807c1.53 0 2.827-0.532 3.891-1.596s1.596-2.361 1.596-3.891c0-1.53-0.532-2.827-1.596-3.891s-2.361-1.596-3.891-1.596c-1.53 0-2.827 0.532-3.891 1.596s-1.596 2.361-1.596 3.891c0 1.53 0.532 2.827 1.596 3.891s2.361 1.596 3.891 1.596zM16.006 20.808c-0.985 0-1.812-0.335-2.482-1.005s-1.005-1.497-1.005-2.482 0.335-1.812 1.005-2.482c0.67-0.67 1.497-1.005 2.482-1.005s1.812 0.335 2.482 1.005c0.67 0.67 1.005 1.497 1.005 2.482s-0.335 1.812-1.005 2.482c-0.67 0.67-1.497 1.005-2.482 1.005zM5.749 27.32c-0.674 0-1.244-0.233-1.71-0.7s-0.7-1.037-0.7-1.71v-15.179c0-0.674 0.233-1.244 0.7-1.71s1.037-0.7 1.71-0.7h4.072l1.744-1.89c0.219-0.241 0.483-0.431 0.794-0.569s0.637-0.208 0.981-0.208h5.333c0.343 0 0.67 0.069 0.981 0.208s0.575 0.328 0.794 0.569l1.744 1.89h4.072c0.674 0 1.244 0.233 1.71 0.7s0.7 1.037 0.7 1.71v15.179c0 0.674-0.233 1.244-0.7 1.71s-1.037 0.7-1.71 0.7h-20.513z"></path>
</symbol>
<symbol id="icon-camera_flip" viewBox="0 0 32 32">
<path d="M20.805 17.379c-0.116 1.332-0.621 2.469-1.513 3.412s-1.99 1.414-3.292 1.414c-0.186 0-0.373-0.013-0.559-0.040s-0.373-0.062-0.559-0.106c-0.161-0.036-0.328-0.032-0.503 0.013s-0.311 0.129-0.41 0.254c-0.168 0.193-0.22 0.417-0.158 0.672s0.21 0.425 0.445 0.51c0.285 0.111 0.574 0.187 0.865 0.227s0.584 0.060 0.878 0.060c1.756 0 3.239-0.629 4.45-1.886s1.859-2.781 1.945-4.571l0.646 0.587c0.166 0.143 0.354 0.213 0.565 0.209s0.388-0.078 0.532-0.222c0.166-0.166 0.252-0.355 0.259-0.569s-0.073-0.404-0.238-0.569l-1.649-1.649c-0.227-0.227-0.509-0.341-0.844-0.341s-0.616 0.114-0.844 0.341l-1.649 1.649c-0.166 0.166-0.249 0.352-0.249 0.559s0.083 0.393 0.249 0.559c0.166 0.166 0.352 0.249 0.559 0.249s0.393-0.083 0.559-0.249l0.513-0.513zM9.605 17.328l-0.646-0.587c-0.166-0.144-0.354-0.213-0.565-0.209s-0.388 0.078-0.532 0.222c-0.166 0.166-0.252 0.355-0.259 0.569s0.073 0.403 0.238 0.569l1.649 1.649c0.227 0.227 0.509 0.341 0.844 0.341s0.616-0.114 0.844-0.341l1.649-1.649c0.166-0.166 0.249-0.352 0.249-0.559s-0.083-0.393-0.249-0.559c-0.166-0.166-0.352-0.249-0.559-0.249s-0.393 0.083-0.559 0.249l-0.513 0.513c0.116-1.332 0.62-2.469 1.513-3.412s1.99-1.414 3.292-1.414c0.186 0 0.373 0.013 0.559 0.040s0.368 0.062 0.546 0.106c0.161 0.044 0.33 0.044 0.509 0s0.318-0.133 0.417-0.267c0.168-0.193 0.222-0.417 0.164-0.672s-0.204-0.425-0.439-0.51c-0.294-0.094-0.585-0.165-0.872-0.214s-0.582-0.073-0.885-0.073c-1.756 0-3.239 0.629-4.45 1.886s-1.859 2.781-1.945 4.571zM5.744 27.333c-0.674 0-1.244-0.233-1.71-0.7s-0.7-1.037-0.7-1.71v-15.179c0-0.674 0.233-1.244 0.7-1.71s1.037-0.7 1.71-0.7h4.072l1.744-1.89c0.219-0.241 0.483-0.431 0.794-0.569s0.637-0.208 0.981-0.208h5.333c0.344 0 0.67 0.069 0.981 0.208s0.575 0.328 0.794 0.569l1.744 1.89h4.072c0.673 0 1.244 0.233 1.71 0.7s0.7 1.037 0.7 1.71v15.179c0 0.673-0.233 1.244-0.7 1.71s-1.037 0.7-1.71 0.7h-20.513zM5.744 25.333h20.513c0.12 0 0.218-0.038 0.295-0.115s0.115-0.175 0.115-0.295v-15.179c0-0.12-0.038-0.218-0.115-0.295s-0.175-0.115-0.295-0.115h-4.964l-2.446-2.667h-5.692l-2.446 2.667h-4.964c-0.12 0-0.218 0.038-0.295 0.115s-0.115 0.175-0.115 0.295v15.179c0 0.12 0.038 0.218 0.115 0.295s0.175 0.115 0.295 0.115z"></path>
</symbol>
<symbol id="icon-camera_flip_filled" viewBox="0 0 32 32">
<path d="M5.744 27.333c-0.674 0-1.244-0.233-1.71-0.7s-0.7-1.037-0.7-1.71v-15.179c0-0.674 0.233-1.244 0.7-1.71s1.037-0.7 1.71-0.7h4.072l1.744-1.89c0.219-0.241 0.483-0.431 0.794-0.569s0.637-0.208 0.981-0.208h5.333c0.344 0 0.67 0.069 0.981 0.208s0.575 0.328 0.794 0.569l1.744 1.89h4.072c0.673 0 1.244 0.233 1.71 0.7s0.7 1.037 0.7 1.71v15.179c0 0.673-0.233 1.244-0.7 1.71s-1.037 0.7-1.71 0.7h-20.513zM20.805 17.379c-0.116 1.332-0.621 2.469-1.513 3.412s-1.99 1.414-3.292 1.414c-0.186 0-0.373-0.013-0.559-0.040s-0.373-0.062-0.559-0.106c-0.161-0.036-0.328-0.032-0.503 0.013s-0.311 0.129-0.41 0.254c-0.168 0.193-0.22 0.417-0.158 0.672s0.21 0.425 0.445 0.51c0.285 0.111 0.574 0.187 0.865 0.227s0.584 0.060 0.878 0.060c1.756 0 3.239-0.629 4.45-1.886s1.859-2.781 1.945-4.571l0.646 0.587c0.166 0.143 0.354 0.213 0.565 0.209s0.388-0.078 0.532-0.222c0.166-0.166 0.252-0.355 0.259-0.569s-0.073-0.404-0.238-0.569l-1.649-1.649c-0.227-0.227-0.509-0.341-0.844-0.341s-0.616 0.114-0.844 0.341l-1.649 1.649c-0.166 0.166-0.249 0.352-0.249 0.559s0.083 0.393 0.249 0.559c0.166 0.166 0.352 0.249 0.559 0.249s0.393-0.083 0.559-0.249l0.513-0.513zM9.605 17.328l-0.646-0.587c-0.166-0.144-0.354-0.213-0.565-0.209s-0.388 0.078-0.532 0.222c-0.166 0.166-0.252 0.355-0.259 0.569s0.073 0.403 0.238 0.569l1.649 1.649c0.227 0.227 0.509 0.341 0.844 0.341s0.616-0.114 0.844-0.341l1.649-1.649c0.166-0.166 0.249-0.352 0.249-0.559s-0.083-0.393-0.249-0.559c-0.166-0.166-0.352-0.249-0.559-0.249s-0.393 0.083-0.559 0.249l-0.513 0.513c0.116-1.332 0.62-2.469 1.513-3.412s1.99-1.414 3.292-1.414c0.186 0 0.373 0.013 0.559 0.040s0.368 0.062 0.546 0.106c0.161 0.044 0.33 0.044 0.509 0s0.318-0.133 0.417-0.267c0.168-0.193 0.222-0.417 0.164-0.672s-0.204-0.425-0.439-0.51c-0.294-0.094-0.585-0.165-0.872-0.214s-0.582-0.073-0.885-0.073c-1.756 0-3.239 0.629-4.45 1.886s-1.859 2.781-1.945 4.571z"></path>
</symbol>
<symbol id="icon-certificate" viewBox="0 0 32 32">
<path d="M14.6 17.421l-2.123-2.123c-0.198-0.198-0.431-0.299-0.696-0.304s-0.502 0.097-0.709 0.304c-0.207 0.207-0.31 0.445-0.31 0.713s0.103 0.506 0.31 0.713l2.685 2.705c0.241 0.241 0.522 0.361 0.844 0.361s0.603-0.121 0.844-0.361l5.526-5.526c0.198-0.198 0.299-0.434 0.304-0.707s-0.097-0.512-0.304-0.719c-0.207-0.207-0.445-0.31-0.713-0.31s-0.506 0.103-0.713 0.31l-4.944 4.944zM16 28.495c-0.138 0-0.274-0.011-0.408-0.033s-0.262-0.056-0.387-0.1c-2.812-1-5.049-2.773-6.711-5.319s-2.494-5.294-2.494-8.242v-6.005c0-0.504 0.146-0.96 0.439-1.365s0.668-0.7 1.128-0.883l7.59-2.833c0.286-0.103 0.567-0.154 0.844-0.154s0.558 0.051 0.844 0.154l7.59 2.833c0.46 0.183 0.836 0.477 1.128 0.883s0.439 0.861 0.439 1.365v6.005c0 2.949-0.831 5.696-2.494 8.242s-3.9 4.319-6.711 5.319c-0.125 0.044-0.254 0.078-0.387 0.1s-0.269 0.033-0.408 0.033zM16 26.533c2.311-0.733 4.222-2.2 5.733-4.4s2.267-4.644 2.267-7.333v-6.018c0-0.085-0.024-0.162-0.071-0.231s-0.113-0.12-0.199-0.154l-7.59-2.833c-0.043-0.017-0.090-0.026-0.141-0.026s-0.098 0.009-0.141 0.026l-7.59 2.833c-0.086 0.034-0.152 0.086-0.199 0.154s-0.071 0.145-0.071 0.231v6.018c0 2.689 0.756 5.133 2.267 7.333s3.422 3.667 5.733 4.4z"></path>
</symbol>
<symbol id="icon-certificate_filled" viewBox="0 0 32 32">
<path d="M14.6 17.421l-2.123-2.123c-0.198-0.198-0.431-0.299-0.696-0.304s-0.502 0.097-0.709 0.304c-0.207 0.207-0.31 0.445-0.31 0.713s0.103 0.506 0.31 0.713l2.685 2.705c0.241 0.241 0.522 0.361 0.844 0.361s0.603-0.121 0.844-0.361l5.526-5.526c0.198-0.198 0.299-0.434 0.304-0.707s-0.097-0.512-0.304-0.719c-0.207-0.207-0.445-0.31-0.713-0.31s-0.506 0.103-0.713 0.31l-4.944 4.944zM16 28.495c-0.138 0-0.274-0.011-0.408-0.033s-0.262-0.056-0.387-0.1c-2.812-1-5.049-2.773-6.711-5.319s-2.494-5.294-2.494-8.242v-6.005c0-0.504 0.146-0.96 0.439-1.365s0.668-0.7 1.128-0.883l7.59-2.833c0.286-0.103 0.567-0.154 0.844-0.154s0.558 0.051 0.844 0.154l7.59 2.833c0.46 0.183 0.836 0.477 1.128 0.883s0.439 0.861 0.439 1.365v6.005c0 2.949-0.831 5.696-2.494 8.242s-3.9 4.319-6.711 5.319c-0.125 0.044-0.254 0.078-0.387 0.1s-0.269 0.033-0.408 0.033z"></path>
</symbol>
<symbol id="icon-check" viewBox="0 0 32 32">
<path d="M14.058 18.862l-3.097-3.098c-0.185-0.184-0.417-0.279-0.696-0.283s-0.516 0.090-0.709 0.283c-0.193 0.193-0.29 0.428-0.29 0.703s0.097 0.509 0.29 0.703l3.659 3.659c0.241 0.241 0.522 0.361 0.844 0.361s0.603-0.121 0.844-0.361l7.418-7.418c0.184-0.185 0.279-0.417 0.283-0.696s-0.090-0.516-0.283-0.709c-0.193-0.193-0.428-0.29-0.703-0.29s-0.509 0.097-0.703 0.29l-6.856 6.857zM15.953 28.667c-1.752 0-3.399-0.332-4.94-0.997s-2.882-1.567-4.023-2.707c-1.14-1.14-2.043-2.48-2.708-4.021s-0.998-3.187-0.998-4.939c0-1.752 0.332-3.399 0.997-4.94s1.567-2.882 2.707-4.023c1.14-1.14 2.48-2.043 4.021-2.708s3.187-0.998 4.939-0.998c1.752 0 3.399 0.332 4.94 0.997s2.882 1.567 4.023 2.707c1.14 1.14 2.043 2.48 2.708 4.021s0.998 3.187 0.998 4.939c0 1.752-0.332 3.399-0.997 4.94s-1.567 2.882-2.707 4.023c-1.14 1.14-2.48 2.043-4.021 2.708s-3.187 0.998-4.939 0.998zM15.951 26.667c2.978 0 5.5-1.033 7.567-3.1s3.1-4.589 3.1-7.567c0-2.978-1.033-5.5-3.1-7.567s-4.589-3.1-7.567-3.1c-2.978 0-5.5 1.033-7.567 3.1s-3.1 4.589-3.1 7.567c0 2.978 1.033 5.5 3.1 7.567s4.589 3.1 7.567 3.1z"></path>
</symbol>
<symbol id="icon-check_filled" viewBox="0 0 32 32">
<path d="M14.108 18.724l-3.097-3.098c-0.185-0.184-0.417-0.279-0.696-0.283s-0.516 0.090-0.709 0.283c-0.193 0.193-0.29 0.428-0.29 0.703s0.097 0.509 0.29 0.703l3.659 3.659c0.241 0.241 0.522 0.361 0.844 0.361s0.603-0.121 0.844-0.361l7.418-7.418c0.184-0.185 0.279-0.417 0.283-0.696s-0.090-0.516-0.283-0.709c-0.193-0.193-0.428-0.29-0.703-0.29s-0.509 0.097-0.703 0.29l-6.856 6.857zM16.002 28.529c-1.752 0-3.399-0.332-4.94-0.997s-2.882-1.567-4.023-2.707c-1.14-1.14-2.043-2.48-2.708-4.021s-0.998-3.187-0.998-4.939c0-1.752 0.332-3.399 0.997-4.94s1.567-2.882 2.707-4.023c1.14-1.14 2.48-2.043 4.021-2.708s3.187-0.998 4.939-0.998c1.752 0 3.399 0.332 4.94 0.997s2.882 1.567 4.023 2.707c1.14 1.14 2.043 2.48 2.708 4.021s0.998 3.187 0.998 4.939c0 1.752-0.332 3.399-0.997 4.94s-1.567 2.883-2.707 4.023c-1.14 1.14-2.48 2.043-4.021 2.708s-3.187 0.998-4.939 0.998z"></path>
</symbol>
<symbol id="icon-close" viewBox="0 0 32 32">
<path d="M16 17.405l-6.764 6.764c-0.185 0.184-0.417 0.279-0.696 0.283s-0.516-0.090-0.709-0.283c-0.193-0.193-0.29-0.428-0.29-0.703s0.097-0.509 0.29-0.703l6.764-6.764-6.764-6.764c-0.184-0.185-0.279-0.417-0.283-0.696s0.090-0.516 0.283-0.709c0.193-0.193 0.428-0.29 0.703-0.29s0.509 0.097 0.703 0.29l6.764 6.764 6.764-6.764c0.185-0.184 0.417-0.279 0.696-0.283s0.516 0.090 0.709 0.283c0.193 0.193 0.29 0.428 0.29 0.703s-0.097 0.509-0.29 0.703l-6.764 6.764 6.764 6.764c0.184 0.185 0.279 0.417 0.283 0.696s-0.090 0.516-0.283 0.709c-0.193 0.193-0.428 0.29-0.703 0.29s-0.509-0.097-0.703-0.29l-6.764-6.764z"></path>
</symbol>
<symbol id="icon-config" viewBox="0 0 31 32">
<path d="M13.942 27.624c-0.436 0-0.813-0.145-1.131-0.435s-0.511-0.646-0.58-1.069l-0.313-2.395c-0.343-0.115-0.694-0.275-1.055-0.482s-0.682-0.429-0.966-0.665l-2.218 0.943c-0.402 0.177-0.806 0.195-1.212 0.052s-0.722-0.402-0.947-0.778l-1.443-2.501c-0.225-0.376-0.29-0.773-0.194-1.193s0.313-0.765 0.655-1.037l1.917-1.44c-0.029-0.19-0.050-0.381-0.063-0.573s-0.019-0.383-0.019-0.574c0-0.182 0.006-0.367 0.019-0.555s0.033-0.393 0.063-0.617l-1.917-1.44c-0.341-0.272-0.558-0.62-0.649-1.044s-0.024-0.823 0.201-1.199l1.43-2.464c0.225-0.368 0.54-0.625 0.947-0.772s0.81-0.132 1.212 0.045l2.205 0.931c0.309-0.244 0.638-0.468 0.988-0.671s0.694-0.366 1.033-0.489l0.325-2.395c0.069-0.423 0.262-0.78 0.58-1.069s0.694-0.435 1.131-0.435h2.836c0.436 0 0.813 0.145 1.131 0.435s0.511 0.646 0.58 1.069l0.313 2.407c0.384 0.14 0.731 0.302 1.042 0.489s0.625 0.406 0.942 0.659l2.267-0.931c0.402-0.177 0.806-0.192 1.212-0.045s0.722 0.404 0.946 0.772l1.43 2.476c0.225 0.376 0.29 0.773 0.194 1.193s-0.313 0.765-0.655 1.037l-1.967 1.477c0.046 0.207 0.071 0.4 0.075 0.58s0.006 0.361 0.006 0.543c0 0.174-0.004 0.351-0.012 0.531s-0.038 0.385-0.088 0.617l1.93 1.452c0.341 0.273 0.562 0.618 0.661 1.037s0.036 0.817-0.189 1.193l-1.45 2.489c-0.225 0.376-0.542 0.635-0.952 0.778s-0.816 0.125-1.219-0.052l-2.191-0.943c-0.317 0.253-0.64 0.476-0.97 0.671s-0.668 0.353-1.014 0.476l-0.313 2.407c-0.069 0.423-0.262 0.78-0.58 1.069s-0.694 0.435-1.131 0.435h-2.836zM14.080 25.704h2.516l0.46-3.429c0.653-0.171 1.25-0.413 1.791-0.727s1.062-0.719 1.564-1.213l3.18 1.337 1.261-2.176-2.777-2.092c0.107-0.332 0.179-0.657 0.218-0.975s0.058-0.64 0.058-0.965c0-0.333-0.019-0.655-0.058-0.965s-0.111-0.627-0.218-0.95l2.801-2.117-1.26-2.176-3.217 1.356c-0.428-0.458-0.942-0.862-1.54-1.213s-1.203-0.6-1.815-0.746l-0.404-3.429h-2.54l-0.424 3.417c-0.653 0.154-1.256 0.39-1.809 0.709s-1.081 0.729-1.583 1.231l-3.18-1.324-1.26 2.176 2.764 2.060c-0.107 0.304-0.181 0.62-0.224 0.948s-0.064 0.674-0.064 1.036c0 0.333 0.021 0.66 0.064 0.98s0.113 0.636 0.212 0.948l-2.752 2.092 1.26 2.176 3.168-1.344c0.486 0.499 1.005 0.907 1.558 1.226s1.165 0.563 1.834 0.733l0.416 3.417z"></path>
<path d="M18.093 18.183c-0.748 0.748-1.654 1.121-2.719 1.121-1.078 0-1.988-0.374-2.729-1.121s-1.111-1.654-1.111-2.719 0.37-1.971 1.111-2.719c0.741-0.748 1.65-1.121 2.729-1.121 1.065 0 1.971 0.374 2.719 1.121s1.121 1.654 1.121 2.719c0 1.065-0.374 1.971-1.121 2.719z"></path>
</symbol>
<symbol id="icon-delete" viewBox="0 0 32 32">
<path d="M9.744 27.333c-0.663 0-1.23-0.236-1.702-0.708s-0.708-1.039-0.708-1.702v-16.923h-0.333c-0.283 0-0.521-0.096-0.712-0.288s-0.288-0.429-0.288-0.713c0-0.284 0.096-0.521 0.288-0.712s0.429-0.287 0.712-0.287h5c0-0.326 0.115-0.605 0.345-0.835s0.508-0.345 0.834-0.345h5.641c0.326 0 0.605 0.115 0.834 0.345s0.345 0.508 0.345 0.835h5c0.283 0 0.521 0.096 0.712 0.288s0.288 0.429 0.288 0.713c0 0.284-0.096 0.521-0.288 0.712s-0.429 0.287-0.712 0.287h-0.333v16.923c0 0.663-0.236 1.23-0.708 1.702s-1.039 0.708-1.702 0.708h-12.513zM22.667 8h-13.333v16.923c0 0.12 0.038 0.218 0.115 0.295s0.175 0.115 0.295 0.115h12.513c0.12 0 0.218-0.039 0.295-0.115s0.115-0.175 0.115-0.295v-16.923zM13.539 22.667c0.283 0 0.521-0.096 0.712-0.287s0.287-0.429 0.287-0.713v-10c0-0.283-0.096-0.521-0.288-0.713s-0.429-0.287-0.713-0.287c-0.283 0-0.521 0.096-0.712 0.287s-0.287 0.429-0.287 0.713v10c0 0.283 0.096 0.521 0.287 0.713s0.429 0.287 0.713 0.287zM18.462 22.667c0.283 0 0.521-0.096 0.712-0.287s0.287-0.429 0.287-0.713v-10c0-0.283-0.096-0.521-0.287-0.713s-0.429-0.287-0.713-0.287c-0.283 0-0.521 0.096-0.712 0.287s-0.287 0.429-0.287 0.713v10c0 0.283 0.096 0.521 0.288 0.713s0.429 0.287 0.713 0.287z"></path>
</symbol>
<symbol id="icon-delete_filled" viewBox="0 0 32 32">
<path d="M9.744 27.333c-0.663 0-1.23-0.236-1.702-0.708s-0.708-1.039-0.708-1.702v-16.923h-0.333c-0.283 0-0.521-0.096-0.712-0.288s-0.288-0.429-0.288-0.713c0-0.284 0.096-0.521 0.288-0.712s0.429-0.287 0.712-0.287h5c0-0.326 0.115-0.605 0.345-0.835s0.508-0.345 0.834-0.345h5.641c0.326 0 0.605 0.115 0.834 0.345s0.345 0.508 0.345 0.835h5c0.283 0 0.521 0.096 0.712 0.288s0.288 0.429 0.288 0.713c0 0.284-0.096 0.521-0.288 0.712s-0.429 0.287-0.712 0.287h-0.333v16.923c0 0.663-0.236 1.23-0.708 1.702s-1.039 0.708-1.702 0.708h-12.513zM13.539 22.667c0.283 0 0.521-0.096 0.712-0.287s0.287-0.429 0.287-0.713v-10c0-0.283-0.096-0.521-0.288-0.713s-0.429-0.287-0.713-0.287c-0.283 0-0.521 0.096-0.712 0.287s-0.287 0.429-0.287 0.713v10c0 0.283 0.096 0.521 0.287 0.713s0.429 0.287 0.713 0.287zM18.462 22.667c0.283 0 0.521-0.096 0.712-0.287s0.287-0.429 0.287-0.713v-10c0-0.283-0.096-0.521-0.287-0.713s-0.429-0.287-0.713-0.287c-0.283 0-0.521 0.096-0.712 0.287s-0.287 0.429-0.287 0.713v10c0 0.283 0.096 0.521 0.288 0.713s0.429 0.287 0.713 0.287z"></path>
</symbol>
<symbol id="icon-deliver" viewBox="0 0 31 32">
<path d="M8.897 25.956c-0.999 0-1.847-0.349-2.545-1.048s-1.046-1.547-1.046-2.546h-1.132c-0.636 0-1.181-0.227-1.634-0.68s-0.68-0.998-0.68-1.634v-4.086c0-0.636 0.227-1.181 0.68-1.634s0.998-0.68 1.634-0.68h11.766v-4.726c0-0.636 0.227-1.181 0.68-1.634s0.998-0.68 1.634-0.68h2.486v-0.96c0-0.328 0.111-0.602 0.333-0.824s0.497-0.332 0.824-0.332h0.886c0.328 0 0.602 0.111 0.824 0.332s0.332 0.497 0.332 0.824v0.96h0.741c0.501 0 0.954 0.144 1.359 0.433s0.684 0.674 0.839 1.155l1.749 5.183c0.040 0.121 0.069 0.242 0.086 0.365s0.026 0.25 0.026 0.382v5.923c0 0.636-0.227 1.181-0.68 1.634s-0.998 0.68-1.634 0.68h-1.132c0 1.001-0.35 1.85-1.049 2.548s-1.548 1.046-2.547 1.046-1.847-0.349-2.545-1.048c-0.698-0.699-1.046-1.547-1.046-2.546h-5.612c0 1.001-0.35 1.85-1.049 2.548s-1.548 1.046-2.548 1.046zM8.9 24.036c0.469 0 0.866-0.162 1.189-0.485s0.485-0.717 0.485-1.183-0.162-0.862-0.485-1.189c-0.323-0.327-0.719-0.491-1.189-0.491s-0.866 0.164-1.189 0.491c-0.323 0.327-0.485 0.724-0.485 1.189s0.162 0.86 0.485 1.183c0.323 0.323 0.719 0.485 1.189 0.485zM21.7 24.036c0.469 0 0.866-0.162 1.189-0.485s0.485-0.717 0.485-1.183-0.162-0.862-0.485-1.189c-0.323-0.327-0.72-0.491-1.189-0.491s-0.866 0.164-1.189 0.491c-0.323 0.327-0.485 0.724-0.485 1.189s0.162 0.86 0.485 1.183c0.323 0.323 0.72 0.485 1.189 0.485zM3.78 15.962v4.086c0 0.115 0.037 0.209 0.111 0.283s0.168 0.111 0.283 0.111h1.792c0.297-0.512 0.705-0.919 1.225-1.221s1.089-0.453 1.709-0.453 1.19 0.151 1.709 0.453c0.519 0.302 0.928 0.709 1.225 1.221h4.106v-4.874h-11.766c-0.115 0-0.209 0.037-0.283 0.111s-0.111 0.168-0.111 0.283zM17.86 20.442h0.906c0.297-0.512 0.705-0.919 1.225-1.221s1.089-0.453 1.709-0.453c0.62 0 1.19 0.151 1.709 0.453s0.928 0.709 1.225 1.221h1.792c0.115 0 0.209-0.037 0.283-0.111s0.111-0.168 0.111-0.283v-4.48h-8.96v4.874zM17.86 13.648h8.832l-1.629-4.849c-0.025-0.082-0.072-0.148-0.142-0.197s-0.15-0.074-0.24-0.074h-6.427c-0.115 0-0.209 0.037-0.283 0.111s-0.111 0.168-0.111 0.283v4.726z"></path>
<path d="M3.14 8.134h-0.517c-0.221 0-0.403-0.072-0.547-0.216s-0.216-0.326-0.216-0.546c0-0.22 0.072-0.403 0.216-0.547s0.326-0.217 0.547-0.217h10.88c0.22 0 0.403 0.072 0.547 0.216s0.216 0.326 0.216 0.547c0 0.22-0.072 0.402-0.216 0.547s-0.326 0.217-0.547 0.217h-0.517v2.708h0.517c0.22 0 0.403 0.072 0.547 0.216s0.216 0.326 0.216 0.547c0 0.22-0.072 0.402-0.216 0.547s-0.326 0.217-0.547 0.217h-10.88c-0.221 0-0.403-0.072-0.547-0.216s-0.216-0.326-0.216-0.547c0-0.22 0.072-0.402 0.216-0.547s0.326-0.217 0.547-0.217h0.517v-2.708zM8.826 10.842h2.634v-2.708h-2.634v2.708zM7.3 10.842v-2.708h-2.634v2.708h2.634z"></path>
</symbol>
<symbol id="icon-distributor-01" viewBox="0 0 32 32">
<path d="M15.922 21.287c1.377 0 2.55-0.479 3.519-1.437s1.454-2.123 1.454-3.494c0-0.665-0.125-1.293-0.374-1.885s-0.613-1.117-1.090-1.574l-2.692-2.639c-0.241-0.219-0.522-0.328-0.844-0.328s-0.603 0.109-0.844 0.328l-2.692 2.639c-0.478 0.457-0.841 0.981-1.090 1.574s-0.374 1.22-0.374 1.885c0 1.371 0.494 2.536 1.481 3.494s2.169 1.437 3.546 1.437zM12.895 16.287c0-0.376 0.077-0.732 0.232-1.068s0.369-0.64 0.642-0.913l2.126-2.081 2.126 2.081c0.274 0.273 0.488 0.577 0.642 0.913s0.232 0.692 0.232 1.068h-6zM8.305 25.621c-0.663 0-1.23-0.236-1.702-0.708s-0.708-1.039-0.708-1.702v-11.385c0-0.382 0.085-0.743 0.256-1.084s0.407-0.623 0.708-0.844l7.59-5.705c0.421-0.322 0.902-0.482 1.444-0.482s1.024 0.161 1.448 0.482l7.59 5.705c0.301 0.221 0.537 0.502 0.708 0.844s0.256 0.703 0.256 1.084v11.385c0 0.663-0.236 1.23-0.708 1.702s-1.039 0.708-1.702 0.708h-15.179zM8.305 23.621h15.179c0.12 0 0.218-0.038 0.295-0.115s0.115-0.175 0.115-0.295v-11.385c0-0.068-0.015-0.13-0.045-0.186s-0.070-0.105-0.122-0.148l-7.59-5.692c-0.068-0.060-0.15-0.090-0.244-0.090s-0.175 0.030-0.244 0.090l-7.59 5.692c-0.051 0.043-0.092 0.092-0.122 0.148s-0.045 0.117-0.045 0.186v11.385c0 0.12 0.038 0.218 0.115 0.295s0.175 0.115 0.295 0.115z"></path>
</symbol>
<symbol id="icon-distributor-01_filled" viewBox="0 0 32 32">
<path d="M16.569 21.287c1.377 0 2.55-0.479 3.519-1.437s1.454-2.123 1.454-3.494c0-0.665-0.125-1.293-0.374-1.885s-0.613-1.117-1.090-1.574l-2.692-2.639c-0.241-0.219-0.522-0.328-0.844-0.328s-0.603 0.109-0.844 0.328l-2.692 2.639c-0.478 0.457-0.841 0.981-1.090 1.574s-0.374 1.22-0.374 1.885c0 1.371 0.494 2.536 1.481 3.494s2.169 1.437 3.546 1.437zM13.542 16.287c0-0.376 0.077-0.732 0.232-1.068s0.369-0.64 0.642-0.913l2.126-2.081 2.126 2.081c0.274 0.273 0.488 0.577 0.642 0.913s0.232 0.692 0.232 1.068h-6zM8.952 25.621c-0.663 0-1.23-0.236-1.702-0.708s-0.708-1.039-0.708-1.702v-11.385c0-0.382 0.085-0.743 0.256-1.084s0.407-0.623 0.708-0.844l7.59-5.705c0.421-0.322 0.902-0.482 1.444-0.482s1.024 0.161 1.448 0.482l7.59 5.705c0.301 0.221 0.537 0.502 0.708 0.844s0.256 0.703 0.256 1.084v11.385c0 0.663-0.236 1.23-0.708 1.702s-1.039 0.708-1.702 0.708h-15.179z"></path>
</symbol>
<symbol id="icon-distributor-02" viewBox="0 0 31 32">
<path d="M4.852 25.992c0.448 0.448 0.995 0.672 1.642 0.672h17.773c0.646 0 1.194-0.224 1.642-0.672s0.672-0.995 0.672-1.642v-10.201c-0.24 0.484-1.38 0.789-1.92 0.881v9.319c0 0.115-0.037 0.209-0.111 0.283s-0.168 0.111-0.283 0.111h-17.773c-0.115 0-0.209-0.037-0.283-0.111s-0.111-0.168-0.111-0.283v-9.319c-0.527-0.108-1.648-0.441-1.92-0.906v10.225c0 0.647 0.224 1.194 0.672 1.642z"></path>
<path d="M26.58 14.15c0.515-0.45 0.902-1.010 1.161-1.68s0.264-1.397 0.016-2.18l-1.319-4.253c-0.184-0.551-0.477-0.985-0.879-1.3s-0.887-0.473-1.455-0.473h-17.472c-0.568 0-1.056 0.165-1.465 0.495s-0.698 0.764-0.869 1.302l-1.295 4.229c-0.248 0.783-0.243 1.512 0.016 2.187s0.645 1.225 1.161 1.648c0.272 0.465 1.393 0.798 1.92 0.906 0.113 0.051 0.223 0.083 0.33 0.095s0.21 0.019 0.31 0.019c0.432 0 0.874-0.084 1.328-0.253s0.95-0.523 1.488-1.061c0.384 0.458 0.829 0.791 1.334 1.001s1.047 0.314 1.625 0.314c0.514 0 1.021-0.113 1.521-0.339s0.948-0.551 1.344-0.976c0.425 0.425 0.878 0.75 1.359 0.976s0.993 0.339 1.536 0.339c0.628 0 1.188-0.119 1.679-0.357s0.916-0.557 1.275-0.958c0.41 0.46 0.834 0.793 1.272 1.002s0.944 0.313 1.52 0.313c0.1 0 0.197-0.006 0.29-0.019s0.21-0.044 0.35-0.095c0.54-0.092 1.679-0.397 1.92-0.881zM19.773 12.583c-0.352 0.428-0.878 0.641-1.577 0.641-0.509 0-0.945-0.196-1.31-0.588s-0.547-0.858-0.547-1.396v-5.056h3.087l0.778 5.021c0.064 0.491-0.080 0.95-0.432 1.377zM13.869 12.636c-0.367 0.392-0.845 0.588-1.434 0.588-0.614 0-1.098-0.215-1.452-0.644s-0.497-0.871-0.428-1.326l0.778-5.071h3.087v5.056c0 0.538-0.183 1.004-0.55 1.396zM7.963 12.728c-0.341 0.331-0.749 0.496-1.223 0.496-0.75 0-1.289-0.28-1.617-0.841s-0.408-1.116-0.239-1.665l1.231-4.165c0.041-0.123 0.103-0.215 0.185-0.277s0.193-0.092 0.332-0.092h2.717l-0.753 5.297c-0.080 0.5-0.291 0.916-0.633 1.247zM25.61 12.408c-0.368 0.544-0.898 0.816-1.59 0.816-0.474 0-0.882-0.165-1.224-0.496s-0.552-0.746-0.633-1.247l-0.753-5.297h2.653c0.14 0 0.25 0.027 0.333 0.080s0.143 0.142 0.184 0.265l1.295 4.189c0.19 0.583 0.102 1.146-0.266 1.69z"></path>
</symbol>
<symbol id="icon-down" viewBox="0 0 32 32">
<path d="M16 19.569c-0.161 0-0.31-0.026-0.449-0.077s-0.27-0.139-0.395-0.264l-5.992-5.992c-0.184-0.185-0.279-0.417-0.283-0.696s0.090-0.516 0.283-0.709c0.193-0.193 0.428-0.29 0.703-0.29s0.509 0.097 0.703 0.29l5.431 5.431 5.431-5.431c0.185-0.184 0.417-0.279 0.696-0.283s0.516 0.090 0.709 0.283c0.193 0.193 0.29 0.428 0.29 0.703s-0.097 0.509-0.29 0.703l-5.992 5.992c-0.125 0.125-0.257 0.213-0.395 0.264s-0.288 0.077-0.449 0.077z"></path>
</symbol>
<symbol id="icon-download" viewBox="0 0 32 32">
<path d="M16 20.549c-0.161 0-0.31-0.026-0.449-0.077s-0.27-0.139-0.395-0.264l-4.146-4.146c-0.198-0.199-0.296-0.431-0.294-0.696s0.101-0.502 0.294-0.709c0.207-0.207 0.444-0.313 0.713-0.32s0.506 0.093 0.713 0.3l2.564 2.564v-10.2c0-0.284 0.096-0.521 0.287-0.713s0.429-0.287 0.713-0.287 0.521 0.096 0.713 0.287c0.192 0.191 0.287 0.429 0.287 0.713v10.2l2.564-2.564c0.198-0.198 0.434-0.296 0.706-0.294s0.512 0.107 0.719 0.314c0.193 0.207 0.293 0.441 0.3 0.703s-0.093 0.496-0.3 0.703l-4.146 4.146c-0.125 0.125-0.257 0.213-0.395 0.264s-0.288 0.077-0.449 0.077zM8.41 26c-0.674 0-1.244-0.233-1.71-0.7s-0.7-1.037-0.7-1.71v-2.615c0-0.284 0.096-0.521 0.287-0.713s0.429-0.287 0.713-0.287 0.521 0.096 0.713 0.287c0.192 0.191 0.287 0.429 0.287 0.713v2.615c0 0.103 0.043 0.197 0.128 0.282s0.179 0.128 0.282 0.128h15.179c0.103 0 0.197-0.043 0.282-0.128s0.128-0.179 0.128-0.282v-2.615c0-0.284 0.096-0.521 0.287-0.713s0.429-0.287 0.713-0.287 0.521 0.096 0.713 0.287c0.192 0.191 0.287 0.429 0.287 0.713v2.615c0 0.673-0.233 1.244-0.7 1.71s-1.037 0.7-1.71 0.7h-15.179z"></path>
</symbol>
<symbol id="icon-edit" viewBox="0 0 32 32">
<path d="M6.667 25.333h1.682l13.649-13.649-1.682-1.682-13.649 13.649v1.682zM5.872 27.333c-0.342 0-0.628-0.116-0.859-0.347s-0.347-0.517-0.347-0.859v-2.31c0-0.325 0.062-0.635 0.187-0.93s0.296-0.551 0.515-0.77l16.885-16.877c0.202-0.183 0.424-0.325 0.668-0.424s0.499-0.15 0.767-0.15 0.526 0.047 0.777 0.142c0.251 0.095 0.473 0.246 0.666 0.453l1.628 1.649c0.207 0.193 0.354 0.415 0.442 0.667s0.132 0.503 0.132 0.754c0 0.268-0.046 0.524-0.137 0.768s-0.237 0.466-0.437 0.668l-16.877 16.864c-0.219 0.219-0.476 0.391-0.77 0.515s-0.605 0.187-0.93 0.187h-2.31zM21.142 10.858l-0.826-0.856 1.682 1.682-0.856-0.826z"></path>
</symbol>
<symbol id="icon-edit_filled" viewBox="0 0 32 32">
<path d="M5.872 27.333c-0.342 0-0.628-0.116-0.859-0.347s-0.347-0.517-0.347-0.859v-2.31c0-0.325 0.062-0.635 0.187-0.93s0.296-0.551 0.515-0.77l16.885-16.877c0.202-0.183 0.424-0.325 0.668-0.424s0.499-0.15 0.767-0.15 0.526 0.047 0.777 0.142c0.251 0.095 0.473 0.246 0.666 0.453l1.628 1.649c0.207 0.193 0.354 0.415 0.442 0.667s0.132 0.503 0.132 0.754c0 0.268-0.046 0.524-0.137 0.768s-0.237 0.466-0.437 0.668l-16.877 16.864c-0.219 0.219-0.476 0.391-0.77 0.515s-0.605 0.187-0.93 0.187h-2.31zM23.403 10.259l1.931-1.918-1.674-1.674-1.918 1.931 1.662 1.662z"></path>
</symbol>
<symbol id="icon-face_id" viewBox="0 0 32 32">
<path d="M16.018 6c2.791 0 5.156 0.969 7.094 2.906s2.908 4.301 2.908 7.092c0 2.791-0.969 5.156-2.906 7.094s-4.301 2.908-7.092 2.908c-2.791 0-5.156-0.969-7.094-2.906s-2.908-4.301-2.908-7.092c0-2.791 0.969-5.156 2.906-7.094s4.301-2.908 7.092-2.908zM16.020 24c2.222 0 4.111-0.778 5.667-2.333s2.333-3.444 2.333-5.667-0.778-4.111-2.333-5.667c-1.555-1.556-3.444-2.333-5.667-2.333s-4.111 0.778-5.667 2.333-2.333 3.444-2.333 5.667c0 2.222 0.778 4.111 2.333 5.667s3.444 2.333 5.667 2.333zM11.533 13.336c0 0.342 0.116 0.628 0.347 0.858s0.518 0.345 0.86 0.345c0.342 0 0.628-0.116 0.858-0.347s0.345-0.518 0.345-0.86c0-0.342-0.116-0.628-0.347-0.858s-0.518-0.345-0.86-0.345c-0.342 0-0.628 0.116-0.858 0.347s-0.345 0.518-0.345 0.86zM18.097 13.336c0 0.342 0.116 0.628 0.347 0.858s0.518 0.345 0.86 0.345c0.342 0 0.628-0.116 0.858-0.347s0.345-0.518 0.345-0.86c0-0.342-0.116-0.628-0.347-0.858s-0.518-0.345-0.86-0.345c-0.342 0-0.628 0.116-0.858 0.347s-0.345 0.518-0.345 0.86zM2.020 7v-2.59c0-0.663 0.236-1.23 0.708-1.702s1.039-0.708 1.702-0.708h2.59c0.283 0 0.521 0.096 0.713 0.288s0.287 0.429 0.287 0.713c0 0.284-0.096 0.521-0.287 0.712s-0.429 0.287-0.713 0.287h-2.59c-0.12 0-0.218 0.038-0.295 0.115s-0.115 0.175-0.115 0.295v2.59c0 0.283-0.096 0.521-0.288 0.713s-0.429 0.287-0.713 0.287c-0.284 0-0.521-0.096-0.712-0.287s-0.287-0.429-0.287-0.713zM7.020 30h-2.59c-0.663 0-1.23-0.236-1.702-0.708s-0.708-1.039-0.708-1.702v-2.59c0-0.283 0.096-0.521 0.288-0.713s0.429-0.287 0.713-0.287c0.284 0 0.521 0.096 0.712 0.287s0.287 0.429 0.287 0.713v2.59c0 0.12 0.038 0.218 0.115 0.295s0.175 0.115 0.295 0.115h2.59c0.283 0 0.521 0.096 0.713 0.288s0.287 0.429 0.287 0.713c0 0.284-0.096 0.521-0.287 0.712s-0.429 0.287-0.713 0.287zM27.61 29.872h-2.59c-0.283 0-0.521-0.096-0.713-0.288s-0.287-0.429-0.287-0.713c0-0.284 0.096-0.521 0.287-0.712s0.429-0.287 0.713-0.287h2.59c0.12 0 0.218-0.039 0.295-0.115s0.115-0.175 0.115-0.295v-2.59c0-0.283 0.096-0.521 0.288-0.712s0.429-0.288 0.713-0.288c0.284 0 0.521 0.096 0.712 0.288s0.287 0.429 0.287 0.712v2.59c0 0.663-0.236 1.23-0.708 1.702s-1.039 0.708-1.702 0.708zM28.020 7v-2.59c0-0.12-0.038-0.218-0.115-0.295s-0.175-0.115-0.295-0.115h-2.59c-0.283 0-0.521-0.096-0.713-0.288s-0.287-0.429-0.287-0.713c0-0.284 0.096-0.521 0.287-0.712s0.429-0.287 0.713-0.287h2.59c0.663 0 1.23 0.236 1.702 0.708s0.708 1.039 0.708 1.702v2.59c0 0.283-0.096 0.521-0.288 0.713s-0.429 0.287-0.713 0.287c-0.284 0-0.521-0.096-0.712-0.287s-0.287-0.429-0.287-0.713zM16.020 20.41c0.793 0 1.534-0.183 2.222-0.549s1.254-0.868 1.699-1.505c0.125-0.227 0.124-0.455-0.004-0.682s-0.327-0.341-0.599-0.341h-6.636c-0.272 0-0.471 0.114-0.599 0.341s-0.129 0.455-0.004 0.682c0.444 0.637 1.011 1.139 1.699 1.505s1.429 0.549 2.222 0.549z"></path>
</symbol>
<symbol id="icon-face_id_filled" viewBox="0 0 32 32">
<path d="M16.064 5.567c2.791 0 5.156 0.969 7.094 2.906s2.908 4.301 2.908 7.092c0 2.791-0.969 5.156-2.906 7.094s-4.301 2.908-7.092 2.908c-2.791 0-5.156-0.969-7.094-2.906s-2.908-4.301-2.908-7.092c0-2.791 0.969-5.156 2.906-7.094s4.301-2.908 7.092-2.908zM11.579 12.903c0 0.342 0.116 0.628 0.347 0.858s0.518 0.345 0.86 0.345c0.342 0 0.628-0.116 0.858-0.347s0.345-0.518 0.345-0.86c0-0.342-0.116-0.628-0.347-0.858s-0.518-0.345-0.86-0.345c-0.342 0-0.628 0.116-0.858 0.347s-0.345 0.518-0.345 0.86zM18.143 12.903c0 0.342 0.116 0.628 0.347 0.858s0.518 0.345 0.86 0.345c0.342 0 0.628-0.116 0.858-0.347s0.345-0.518 0.345-0.86c0-0.342-0.116-0.628-0.347-0.858s-0.518-0.345-0.86-0.345c-0.342 0-0.628 0.116-0.858 0.347s-0.345 0.518-0.345 0.86zM2.066 6.567v-2.59c0-0.663 0.236-1.23 0.708-1.702s1.039-0.708 1.702-0.708h2.59c0.283 0 0.521 0.096 0.713 0.288s0.287 0.429 0.287 0.713c0 0.284-0.096 0.521-0.287 0.712s-0.429 0.287-0.713 0.287h-2.59c-0.12 0-0.218 0.038-0.295 0.115s-0.115 0.175-0.115 0.295v2.59c0 0.283-0.096 0.521-0.288 0.713s-0.429 0.287-0.713 0.287c-0.284 0-0.521-0.096-0.712-0.287s-0.287-0.429-0.287-0.713zM7.066 29.567h-2.59c-0.663 0-1.23-0.236-1.702-0.708s-0.708-1.039-0.708-1.702v-2.59c0-0.283 0.096-0.521 0.288-0.713s0.429-0.287 0.713-0.287c0.284 0 0.521 0.096 0.712 0.287s0.287 0.429 0.287 0.713v2.59c0 0.12 0.038 0.218 0.115 0.295s0.175 0.115 0.295 0.115h2.59c0.283 0 0.521 0.096 0.713 0.288s0.287 0.429 0.287 0.713c0 0.284-0.096 0.521-0.287 0.712s-0.429 0.287-0.713 0.287zM27.655 29.439h-2.59c-0.283 0-0.521-0.096-0.713-0.288s-0.287-0.429-0.287-0.713c0-0.284 0.096-0.521 0.287-0.712s0.429-0.287 0.713-0.287h2.59c0.12 0 0.218-0.038 0.295-0.115s0.115-0.175 0.115-0.295v-2.59c0-0.283 0.096-0.521 0.288-0.712s0.429-0.288 0.713-0.288c0.284 0 0.521 0.096 0.712 0.288s0.287 0.429 0.287 0.712v2.59c0 0.663-0.236 1.23-0.708 1.702s-1.039 0.708-1.702 0.708zM28.066 6.567v-2.59c0-0.12-0.038-0.218-0.115-0.295s-0.175-0.115-0.295-0.115h-2.59c-0.283 0-0.521-0.096-0.713-0.288s-0.287-0.429-0.287-0.713c0-0.284 0.096-0.521 0.287-0.712s0.429-0.287 0.713-0.287h2.59c0.663 0 1.23 0.236 1.702 0.708s0.708 1.039 0.708 1.702v2.59c0 0.283-0.096 0.521-0.288 0.713s-0.429 0.287-0.713 0.287c-0.283 0-0.521-0.096-0.712-0.287s-0.287-0.429-0.287-0.713zM16.066 19.977c0.793 0 1.534-0.183 2.222-0.549s1.254-0.868 1.699-1.505c0.125-0.227 0.124-0.455-0.004-0.682s-0.327-0.341-0.599-0.341h-6.636c-0.272 0-0.471 0.114-0.599 0.341s-0.129 0.455-0.004 0.682c0.444 0.638 1.011 1.139 1.699 1.505s1.429 0.549 2.222 0.549z"></path>
</symbol>
<symbol id="icon-farm" viewBox="0 0 32 32">
<path d="M16.345 25.569c-1.207 0-2.345-0.199-3.412-0.596s-2.035-0.952-2.903-1.663l-2.315 2.282c-0.182 0.185-0.413 0.277-0.694 0.277s-0.514-0.092-0.698-0.277c-0.185-0.185-0.277-0.417-0.277-0.698s0.092-0.512 0.277-0.694l2.282-2.282c-0.711-0.868-1.265-1.841-1.663-2.92s-0.596-2.221-0.596-3.429c0-2.792 0.969-5.156 2.906-7.094s4.302-2.906 7.094-2.906h7.974c0.562 0 1.041 0.197 1.435 0.591s0.591 0.872 0.591 1.435v7.974c0 2.792-0.969 5.156-2.906 7.094s-4.302 2.906-7.094 2.906zM16.345 23.569c2.222 0 4.111-0.778 5.667-2.333s2.333-3.444 2.333-5.667v-8h-8c-2.222 0-4.111 0.778-5.667 2.333s-2.333 3.444-2.333 5.667c0 0.927 0.15 1.808 0.451 2.644s0.719 1.589 1.254 2.259l6.939-6.938c0.182-0.185 0.413-0.277 0.694-0.277s0.515 0.094 0.702 0.281c0.204 0.204 0.306 0.441 0.306 0.709s-0.103 0.506-0.31 0.713l-6.939 6.926c0.67 0.535 1.423 0.95 2.259 1.244s1.717 0.441 2.644 0.441z"></path>
</symbol>
<symbol id="icon-farm_filled" viewBox="0 0 32 32">
<path d="M6.624 25.593c-0.185-0.185-0.277-0.417-0.277-0.698s0.092-0.512 0.277-0.694l2.282-2.282c-0.711-0.868-1.265-1.841-1.663-2.92s-0.596-2.221-0.596-3.429c0-2.792 0.969-5.156 2.906-7.094s4.302-2.906 7.094-2.906h7.974c0.562 0 1.041 0.197 1.435 0.591s0.591 0.872 0.591 1.435v7.974c0 2.792-0.969 5.156-2.906 7.094s-4.302 2.906-7.094 2.906c-1.207 0-2.345-0.199-3.412-0.596s-2.035-0.952-2.903-1.663l-2.315 2.282c-0.182 0.185-0.413 0.277-0.694 0.277s-0.514-0.092-0.698-0.277zM12.037 20.178c0.185 0.213 0.417 0.316 0.697 0.308s0.519-0.11 0.716-0.306l5.233-5.221c0.207-0.207 0.31-0.444 0.31-0.713s-0.102-0.505-0.306-0.709c-0.187-0.187-0.421-0.281-0.702-0.281s-0.512 0.092-0.694 0.277l-5.254 5.254c-0.184 0.183-0.277 0.411-0.277 0.684s0.092 0.509 0.277 0.706z"></path>
</symbol>
<symbol id="icon-farmer" viewBox="0 0 32 32">
<path d="M5.894 27.438c-0.663 0-1.23-0.236-1.702-0.708s-0.708-1.039-0.708-1.702v-11.385c0-0.382 0.085-0.743 0.256-1.084s0.407-0.623 0.708-0.844l7.59-5.718c0.221-0.161 0.453-0.281 0.694-0.362s0.493-0.12 0.755-0.12c0.262 0 0.513 0.040 0.753 0.12s0.471 0.201 0.691 0.362l3.403 2.567c0.27 0.207 0.409 0.444 0.415 0.713s-0.065 0.506-0.214 0.713-0.354 0.341-0.612 0.401c-0.258 0.060-0.529-0.013-0.812-0.22l-3.382-2.567c-0.068-0.060-0.15-0.090-0.244-0.090s-0.175 0.030-0.244 0.090l-7.59 5.705c-0.051 0.043-0.092 0.092-0.122 0.148s-0.045 0.117-0.045 0.186v11.385c0 0.12 0.038 0.218 0.115 0.295s0.175 0.115 0.295 0.115h4c0.283 0 0.521 0.096 0.712 0.288s0.288 0.429 0.288 0.713c0 0.284-0.096 0.521-0.288 0.712s-0.429 0.287-0.712 0.287h-4zM21.484 21.566c1.166 0 2.297 0.149 3.394 0.447s2.143 0.743 3.14 1.335c0.34 0.21 0.614 0.487 0.822 0.829s0.312 0.713 0.312 1.112v0.231c0 0.531-0.182 0.984-0.547 1.358s-0.822 0.56-1.371 0.56h-11.497c-0.531 0-0.984-0.187-1.358-0.56s-0.56-0.826-0.56-1.358v-0.231c0-0.399 0.104-0.769 0.312-1.112s0.481-0.619 0.822-0.829c0.997-0.592 2.043-1.036 3.14-1.335s2.228-0.447 3.394-0.447zM15.94 25.438h11.087v-0.359c-0.846-0.487-1.735-0.861-2.665-1.122s-1.89-0.391-2.878-0.391-1.947 0.13-2.878 0.391c-0.931 0.261-1.819 0.635-2.665 1.122v0.359zM21.486 19.502c-1.018 0-1.884-0.356-2.598-1.069s-1.071-1.578-1.071-2.596c0-1.018 0.356-1.884 1.069-2.598s1.578-1.071 2.596-1.071c1.018 0 1.884 0.356 2.598 1.069s1.071 1.578 1.071 2.596c0 1.018-0.356 1.884-1.069 2.598s-1.578 1.070-2.596 1.070zM21.484 17.502c0.463 0 0.857-0.162 1.181-0.486s0.486-0.718 0.486-1.181c0-0.463-0.162-0.857-0.486-1.181s-0.717-0.486-1.181-0.486-0.857 0.162-1.181 0.486c-0.324 0.324-0.486 0.717-0.486 1.181s0.162 0.857 0.486 1.181c0.324 0.324 0.717 0.486 1.181 0.486z"></path>
</symbol>
<symbol id="icon-farmer_filled" viewBox="0 0 32 32">
<path d="M9.689 27.438h-3.795c-0.663 0-1.23-0.236-1.702-0.708s-0.708-1.039-0.708-1.702v-11.385c0-0.382 0.085-0.743 0.256-1.084s0.407-0.623 0.708-0.844l7.59-5.718c0.221-0.161 0.453-0.281 0.694-0.362s0.493-0.12 0.755-0.12c0.262 0 0.513 0.040 0.753 0.12s0.471 0.201 0.691 0.362l3.81 2.885c0.205 0.161 0.288 0.364 0.25 0.609s-0.181 0.421-0.427 0.527c-0.764 0.371-1.43 0.877-1.999 1.519s-0.999 1.372-1.291 2.191c-0.292 0.819-0.414 1.657-0.364 2.515s0.263 1.675 0.641 2.451c0.111 0.255 0.122 0.508 0.033 0.761s-0.252 0.43-0.489 0.531c-0.959 0.422-1.704 0.84-2.236 1.253s-0.957 0.908-1.277 1.486c-0.236 0.392-0.409 0.805-0.52 1.241s-0.167 0.877-0.167 1.323v0.943c0 0.341-0.116 0.628-0.347 0.859s-0.517 0.347-0.859 0.347zM21.485 21.566c1.174 0 2.309 0.151 3.405 0.454s2.139 0.745 3.127 1.328c0.349 0.219 0.625 0.5 0.828 0.843s0.305 0.709 0.305 1.098v0.231c0 0.538-0.185 0.993-0.555 1.363s-0.824 0.555-1.363 0.555h-11.497c-0.531 0-0.984-0.187-1.358-0.56s-0.56-0.826-0.56-1.358v-0.231c0-0.389 0.102-0.755 0.305-1.098s0.48-0.624 0.828-0.843c0.988-0.583 2.031-1.026 3.128-1.328s2.233-0.454 3.406-0.454zM21.486 19.502c-1.018 0-1.884-0.356-2.598-1.069s-1.071-1.578-1.071-2.596c0-1.018 0.356-1.884 1.069-2.598s1.578-1.071 2.596-1.071c1.018 0 1.884 0.356 2.598 1.069s1.071 1.578 1.071 2.596c0 1.018-0.356 1.884-1.069 2.598s-1.578 1.070-2.596 1.070z"></path>
</symbol>
<symbol id="icon-file" viewBox="0 0 32 32">
<path d="M7.077 27.333c-0.674 0-1.244-0.233-1.71-0.7s-0.7-1.037-0.7-1.71v-17.846c0-0.674 0.233-1.244 0.7-1.71s1.037-0.7 1.71-0.7h13.974l6.282 6.282v13.974c0 0.673-0.233 1.244-0.7 1.71s-1.037 0.7-1.71 0.7h-17.846zM7.077 25.333h17.846c0.12 0 0.218-0.038 0.295-0.115s0.115-0.175 0.115-0.295v-12.923h-5.333v-5.333h-12.923c-0.12 0-0.218 0.038-0.295 0.115s-0.115 0.175-0.115 0.295v17.846c0 0.12 0.038 0.218 0.115 0.295s0.175 0.115 0.295 0.115zM9.667 22h12.667v-2h-12.667v2zM9.667 12h6.333v-2h-6.333v2zM9.667 17h12.667v-2h-12.667v2z"></path>
</symbol>
<symbol id="icon-hide" viewBox="0 0 32 32">
<path d="M19.393 11.497c0.542 0.542 0.961 1.201 1.256 1.976s0.408 1.553 0.336 2.335c0 0.256-0.092 0.473-0.277 0.651s-0.405 0.267-0.662 0.267c-0.257 0-0.474-0.089-0.651-0.267s-0.267-0.395-0.267-0.651c0.085-0.586 0.037-1.142-0.145-1.667s-0.462-0.976-0.84-1.354c-0.378-0.378-0.833-0.665-1.367-0.86s-1.096-0.247-1.687-0.153c-0.256 0.009-0.478-0.077-0.664-0.258s-0.284-0.399-0.292-0.655c-0.009-0.256 0.074-0.478 0.247-0.664s0.389-0.284 0.645-0.292c0.776-0.089 1.556 0.012 2.34 0.304s1.459 0.721 2.027 1.288zM15.557 8c-0.473 0-0.938 0.023-1.394 0.069s-0.909 0.122-1.36 0.228c-0.284 0.058-0.539 0.018-0.767-0.122s-0.384-0.34-0.469-0.601c-0.086-0.27-0.057-0.527 0.085-0.77s0.348-0.394 0.618-0.453c0.537-0.128 1.079-0.219 1.627-0.272s1.101-0.080 1.66-0.080c2.865 0 5.497 0.744 7.895 2.233s4.243 3.503 5.533 6.044c0.089 0.169 0.153 0.339 0.194 0.511s0.060 0.353 0.060 0.545-0.017 0.373-0.050 0.545c-0.033 0.172-0.094 0.342-0.183 0.511-0.408 0.855-0.905 1.652-1.49 2.391s-1.228 1.418-1.931 2.037c-0.207 0.185-0.443 0.261-0.709 0.229s-0.484-0.164-0.655-0.399c-0.171-0.234-0.242-0.485-0.213-0.754s0.147-0.495 0.354-0.68c0.602-0.545 1.151-1.141 1.646-1.788s0.923-1.345 1.282-2.094c-1.111-2.244-2.717-4.028-4.817-5.35s-4.405-1.983-6.917-1.983zM15.557 24.667c-2.807 0-5.38-0.75-7.718-2.25s-4.197-3.476-5.577-5.927c-0.111-0.169-0.192-0.353-0.244-0.551s-0.077-0.4-0.077-0.605 0.022-0.403 0.067-0.595c0.044-0.191 0.122-0.379 0.233-0.561 0.496-0.906 1.057-1.769 1.685-2.589s1.349-1.554 2.164-2.204l-3.010-3.031c-0.184-0.198-0.275-0.434-0.273-0.706s0.101-0.506 0.294-0.699 0.427-0.29 0.703-0.29c0.275 0 0.509 0.097 0.702 0.29l22.103 22.103c0.185 0.185 0.283 0.413 0.294 0.686s-0.087 0.512-0.294 0.719c-0.193 0.193-0.427 0.29-0.703 0.29s-0.509-0.097-0.702-0.29l-4.692-4.651c-0.786 0.304-1.595 0.524-2.425 0.659s-1.673 0.203-2.529 0.203zM7.496 10.79c-0.781 0.604-1.484 1.286-2.107 2.047s-1.145 1.594-1.565 2.496c1.111 2.244 2.717 4.028 4.817 5.35s4.406 1.983 6.917 1.983c0.573 0 1.136-0.038 1.691-0.115s1.105-0.196 1.653-0.356l-1.687-1.728c-0.27 0.118-0.54 0.198-0.809 0.24s-0.551 0.063-0.847 0.063c-1.513 0-2.797-0.528-3.853-1.583s-1.583-2.34-1.583-3.853c0-0.296 0.023-0.578 0.069-0.847s0.124-0.539 0.233-0.809l-2.928-2.887z"></path>
</symbol>
<symbol id="icon-hide_filled" viewBox="0 0 32 32">
<path d="M25.726 28.456l-4.692-4.651c-0.786 0.304-1.595 0.524-2.425 0.659s-1.673 0.203-2.529 0.203c-2.807 0-5.377-0.747-7.712-2.24s-4.184-3.461-5.55-5.904c-0.111-0.191-0.192-0.386-0.244-0.585s-0.077-0.4-0.077-0.605 0.028-0.409 0.083-0.612c0.056-0.203 0.139-0.395 0.25-0.578 0.532-0.884 1.097-1.739 1.695-2.565s1.294-1.558 2.087-2.194l-3.010-3.031c-0.184-0.184-0.279-0.413-0.283-0.686s0.097-0.512 0.304-0.719c0.193-0.193 0.427-0.29 0.703-0.29s0.509 0.097 0.702 0.29l22.103 22.103c0.185 0.185 0.283 0.413 0.294 0.686s-0.087 0.512-0.294 0.719c-0.193 0.193-0.427 0.29-0.703 0.29s-0.509-0.097-0.702-0.29zM16.079 20.769c0.296 0 0.578-0.018 0.847-0.053s0.532-0.112 0.789-0.23l-6.79-6.79c-0.11 0.256-0.184 0.519-0.223 0.789s-0.059 0.552-0.059 0.847c0 1.513 0.528 2.797 1.583 3.853s2.34 1.583 3.853 1.583zM16.079 6c2.815 0 5.398 0.75 7.747 2.25s4.203 3.48 5.56 5.94c0.102 0.169 0.181 0.351 0.237 0.545s0.083 0.394 0.083 0.599-0.024 0.405-0.073 0.599c-0.049 0.194-0.124 0.376-0.227 0.545-0.405 0.771-0.858 1.497-1.359 2.179s-1.061 1.324-1.68 1.926c-0.277 0.277-0.605 0.404-0.985 0.382s-0.708-0.172-0.985-0.449l-2.795-2.782c-0.138-0.138-0.23-0.298-0.274-0.48s-0.042-0.37 0.008-0.567c0.063-0.229 0.108-0.451 0.136-0.667s0.041-0.444 0.041-0.687c0-1.513-0.528-2.797-1.583-3.853s-2.34-1.583-3.853-1.583c-0.243 0-0.469 0.016-0.681 0.048s-0.427 0.079-0.648 0.142c-0.196 0.058-0.393 0.065-0.59 0.020s-0.364-0.136-0.502-0.274l-1.241-1.241c-0.379-0.38-0.505-0.821-0.378-1.326s0.447-0.826 0.96-0.964c0.504-0.103 1.012-0.179 1.523-0.228s1.030-0.074 1.556-0.074zM18.661 12.815c0.27 0.298 0.493 0.631 0.668 1.001s0.285 0.757 0.329 1.16c0.022 0.161-0.038 0.272-0.181 0.335s-0.276 0.031-0.401-0.094l-2.861-2.849c-0.125-0.125-0.153-0.259-0.083-0.401s0.184-0.214 0.345-0.214c0.431 0.036 0.828 0.144 1.192 0.324s0.695 0.426 0.992 0.737z"></path>
</symbol>
<symbol id="icon-home" viewBox="0 0 32 32">
<path d="M7.401 25.964h4.462v-6.718c0-0.341 0.115-0.628 0.346-0.859s0.517-0.346 0.859-0.346h4.667c0.341 0 0.627 0.115 0.859 0.346s0.346 0.517 0.346 0.859v6.718h4.462v-11.795c0-0.068-0.015-0.13-0.045-0.186s-0.070-0.105-0.122-0.148l-7.59-5.705c-0.068-0.060-0.15-0.090-0.244-0.090s-0.175 0.030-0.244 0.090l-7.59 5.705c-0.051 0.043-0.092 0.092-0.122 0.148s-0.045 0.117-0.045 0.186v11.795zM5.401 25.964v-11.795c0-0.382 0.085-0.743 0.256-1.084s0.407-0.623 0.708-0.844l7.59-5.718c0.421-0.321 0.902-0.482 1.444-0.482s1.024 0.161 1.448 0.482l7.59 5.718c0.301 0.221 0.537 0.502 0.708 0.844s0.256 0.703 0.256 1.084v11.795c0 0.545-0.197 1.015-0.591 1.409s-0.864 0.591-1.409 0.591h-5.256c-0.341 0-0.628-0.116-0.859-0.347s-0.347-0.517-0.347-0.859v-6.718h-3.077v6.718c0 0.342-0.115 0.628-0.347 0.859s-0.517 0.347-0.859 0.347h-5.256c-0.545 0-1.015-0.197-1.409-0.591s-0.591-0.864-0.591-1.409z"></path>
</symbol>
<symbol id="icon-home_filled" viewBox="0 0 32 32">
<path d="M6.058 25.964v-11.795c0-0.382 0.085-0.743 0.256-1.084s0.407-0.623 0.708-0.844l7.59-5.718c0.421-0.321 0.902-0.482 1.444-0.482s1.024 0.161 1.448 0.482l7.59 5.718c0.301 0.221 0.537 0.502 0.708 0.844s0.256 0.703 0.256 1.084v11.795c0 0.545-0.197 1.015-0.591 1.409s-0.864 0.591-1.409 0.591h-4.256c-0.342 0-0.628-0.116-0.859-0.347s-0.347-0.517-0.347-0.859v-6.513c0-0.341-0.115-0.628-0.346-0.859s-0.517-0.346-0.859-0.346h-2.667c-0.342 0-0.628 0.115-0.859 0.346s-0.346 0.517-0.346 0.859v6.513c0 0.342-0.116 0.628-0.347 0.859s-0.517 0.347-0.859 0.347h-4.256c-0.545 0-1.015-0.197-1.409-0.591s-0.591-0.864-0.591-1.409z"></path>
</symbol>
<symbol id="icon-ic_testttt" viewBox="0 0 32 32">
<path d="M5.894 27.438c-0.663 0-1.23-0.236-1.702-0.708s-0.708-1.039-0.708-1.702v-11.385c0-0.382 0.085-0.743 0.256-1.084s0.407-0.623 0.708-0.844l7.59-5.718c0.221-0.161 0.453-0.281 0.694-0.362s0.493-0.12 0.755-0.12c0.262 0 0.513 0.040 0.753 0.12s0.471 0.201 0.691 0.362l3.403 2.567c0.27 0.207 0.409 0.444 0.415 0.713s-0.065 0.506-0.214 0.713-0.354 0.341-0.612 0.401c-0.258 0.060-0.529-0.013-0.812-0.22l-3.382-2.567c-0.068-0.060-0.15-0.090-0.244-0.090s-0.175 0.030-0.244 0.090l-7.59 5.705c-0.051 0.043-0.092 0.092-0.122 0.148s-0.045 0.117-0.045 0.186v11.385c0 0.12 0.038 0.218 0.115 0.295s0.175 0.115 0.295 0.115h4c0.283 0 0.521 0.096 0.712 0.288s0.288 0.429 0.288 0.713c0 0.284-0.096 0.521-0.288 0.712s-0.429 0.287-0.712 0.287h-4zM21.484 21.566c1.166 0 2.297 0.149 3.394 0.447s2.143 0.743 3.14 1.335c0.34 0.21 0.614 0.487 0.822 0.829s0.312 0.713 0.312 1.112v0.231c0 0.531-0.182 0.984-0.547 1.358s-0.822 0.56-1.371 0.56h-11.497c-0.531 0-0.984-0.187-1.358-0.56s-0.56-0.826-0.56-1.358v-0.231c0-0.399 0.104-0.769 0.312-1.112s0.481-0.619 0.822-0.829c0.997-0.592 2.043-1.036 3.14-1.335s2.228-0.447 3.394-0.447zM15.94 25.438h11.087v-0.359c-0.846-0.487-1.735-0.861-2.665-1.122s-1.89-0.391-2.878-0.391-1.947 0.13-2.878 0.391c-0.931 0.261-1.819 0.635-2.665 1.122v0.359zM21.486 19.502c-1.018 0-1.884-0.356-2.598-1.069s-1.071-1.578-1.071-2.596c0-1.018 0.356-1.884 1.069-2.598s1.578-1.071 2.596-1.071c1.018 0 1.884 0.356 2.598 1.069s1.071 1.578 1.071 2.596c0 1.018-0.356 1.884-1.069 2.598s-1.578 1.070-2.596 1.070zM21.484 17.502c0.463 0 0.857-0.162 1.181-0.486s0.486-0.718 0.486-1.181c0-0.463-0.162-0.857-0.486-1.181s-0.717-0.486-1.181-0.486-0.857 0.162-1.181 0.486c-0.324 0.324-0.486 0.717-0.486 1.181s0.162 0.857 0.486 1.181c0.324 0.324 0.717 0.486 1.181 0.486z"></path>
</symbol>
<symbol id="icon-layer" viewBox="0 0 32 32">
<path d="M16 17.941c-0.197 0-0.388-0.026-0.573-0.077s-0.37-0.124-0.553-0.218l-10.882-5.787c-0.219-0.125-0.376-0.279-0.472-0.462s-0.144-0.384-0.144-0.602c0-0.219 0.048-0.42 0.144-0.603s0.253-0.337 0.472-0.462l10.882-5.787c0.183-0.094 0.367-0.167 0.553-0.218s0.376-0.077 0.573-0.077 0.388 0.026 0.573 0.077c0.186 0.051 0.37 0.124 0.553 0.218l10.895 5.787c0.219 0.125 0.376 0.279 0.472 0.462s0.144 0.384 0.144 0.603c0 0.219-0.048 0.419-0.144 0.602s-0.253 0.337-0.472 0.462l-10.895 5.787c-0.183 0.094-0.367 0.167-0.553 0.218s-0.376 0.077-0.573 0.077zM16 15.98l9.831-5.185-9.831-5.185-9.818 5.185 9.818 5.185zM16 21.185l10.672-5.649c0.053-0.031 0.234-0.061 0.544-0.090 0.267 0.017 0.485 0.117 0.655 0.3s0.255 0.408 0.255 0.674c0 0.184-0.041 0.351-0.122 0.5s-0.214 0.273-0.399 0.372l-10.479 5.559c-0.183 0.094-0.367 0.167-0.553 0.218s-0.376 0.077-0.573 0.077-0.388-0.026-0.573-0.077c-0.186-0.051-0.37-0.124-0.553-0.218l-10.467-5.559c-0.185-0.099-0.32-0.223-0.405-0.372s-0.128-0.315-0.128-0.5c0-0.267 0.087-0.491 0.262-0.674s0.395-0.283 0.661-0.3c0.094-0.017 0.185-0.018 0.272-0.001s0.178 0.047 0.272 0.091l10.659 5.649zM16 26.39l10.672-5.649c0.053-0.031 0.234-0.061 0.544-0.090 0.267 0.017 0.485 0.117 0.655 0.3s0.255 0.408 0.255 0.674c0 0.185-0.041 0.351-0.122 0.5s-0.214 0.273-0.399 0.372l-10.479 5.559c-0.183 0.094-0.367 0.167-0.553 0.218s-0.376 0.077-0.573 0.077-0.388-0.026-0.573-0.077c-0.186-0.051-0.37-0.124-0.553-0.218l-10.467-5.559c-0.185-0.099-0.32-0.223-0.405-0.372s-0.128-0.315-0.128-0.5c0-0.267 0.087-0.491 0.262-0.674s0.395-0.283 0.661-0.3c0.094-0.017 0.185-0.018 0.272-0.001s0.178 0.047 0.272 0.091l10.659 5.649z"></path>
</symbol>
<symbol id="icon-map" viewBox="0 0 32 32">
<path d="M16 22.3c2.192-1.846 3.851-3.63 4.977-5.351s1.69-3.334 1.69-4.838c0-1.983-0.622-3.608-1.867-4.876s-2.844-1.901-4.8-1.901c-1.956 0-3.556 0.634-4.8 1.901s-1.867 2.893-1.867 4.876c0 1.504 0.563 3.117 1.69 4.838s2.785 3.505 4.977 5.351zM16 24.213c-0.25 0-0.496-0.042-0.738-0.127s-0.465-0.212-0.667-0.381c-2.417-2.029-4.232-4.014-5.444-5.956s-1.818-3.821-1.818-5.638c0-2.564 0.807-4.668 2.421-6.312s3.696-2.465 6.246-2.465 4.632 0.822 6.246 2.465c1.614 1.644 2.421 3.747 2.421 6.312 0 1.817-0.606 3.694-1.818 5.632s-3.027 3.923-5.444 5.957c-0.205 0.173-0.428 0.302-0.669 0.387s-0.486 0.127-0.736 0.127zM16.002 14.41c0.663 0 1.23-0.236 1.701-0.709s0.707-1.040 0.707-1.704c0-0.663-0.236-1.23-0.709-1.701s-1.040-0.707-1.704-0.707c-0.663 0-1.231 0.236-1.701 0.709s-0.707 1.040-0.707 1.704c0 0.663 0.236 1.23 0.709 1.701s1.040 0.707 1.704 0.707zM8.333 28.667c-0.283 0-0.521-0.096-0.712-0.288s-0.288-0.429-0.288-0.713c0-0.284 0.096-0.521 0.288-0.712s0.429-0.287 0.712-0.287h15.333c0.283 0 0.521 0.096 0.712 0.288s0.288 0.429 0.288 0.713c0 0.284-0.096 0.521-0.288 0.712s-0.429 0.287-0.712 0.287h-15.333z"></path>
</symbol>
<symbol id="icon-map_filled" viewBox="0 0 32 32">
<path d="M16 24.213c-0.25 0-0.496-0.042-0.738-0.127s-0.465-0.212-0.667-0.381c-2.417-2.029-4.232-4.014-5.444-5.956s-1.818-3.821-1.818-5.638c0-2.564 0.807-4.668 2.421-6.312s3.696-2.465 6.246-2.465 4.632 0.822 6.246 2.465c1.614 1.644 2.421 3.747 2.421 6.312 0 1.817-0.606 3.694-1.818 5.632s-3.027 3.923-5.444 5.957c-0.205 0.173-0.428 0.302-0.669 0.387s-0.486 0.127-0.736 0.127zM16.002 14.41c0.663 0 1.23-0.236 1.701-0.709s0.707-1.040 0.707-1.704c0-0.663-0.236-1.23-0.709-1.701s-1.040-0.707-1.704-0.707c-0.663 0-1.231 0.236-1.701 0.709s-0.707 1.040-0.707 1.704c0 0.663 0.236 1.23 0.709 1.701s1.040 0.707 1.704 0.707zM8.333 28.667c-0.283 0-0.521-0.096-0.712-0.288s-0.288-0.429-0.288-0.713c0-0.284 0.096-0.521 0.288-0.712s0.429-0.287 0.712-0.287h15.333c0.283 0 0.521 0.096 0.712 0.288s0.288 0.429 0.288 0.713c0 0.284-0.096 0.521-0.288 0.712s-0.429 0.287-0.712 0.287h-15.333z"></path>
</symbol>
<symbol id="icon-minus" viewBox="0 0 32 32">
<path d="M8.333 17c-0.283 0-0.521-0.096-0.712-0.288s-0.288-0.429-0.288-0.713c0-0.283 0.096-0.521 0.288-0.712s0.429-0.287 0.712-0.287h15.333c0.283 0 0.521 0.096 0.712 0.288s0.288 0.429 0.288 0.713c0 0.283-0.096 0.521-0.288 0.712s-0.429 0.287-0.712 0.287h-15.333z"></path>
</symbol>
<symbol id="icon-next" viewBox="0 0 32 32">
<path d="M17.262 16l-5.431-5.431c-0.184-0.185-0.279-0.417-0.283-0.696s0.090-0.516 0.283-0.709c0.193-0.193 0.428-0.29 0.703-0.29s0.509 0.097 0.703 0.29l5.992 5.992c0.125 0.125 0.213 0.257 0.264 0.395s0.077 0.288 0.077 0.449c0 0.161-0.026 0.31-0.077 0.449s-0.139 0.27-0.264 0.395l-5.992 5.992c-0.185 0.184-0.417 0.279-0.696 0.283s-0.516-0.090-0.709-0.283c-0.193-0.193-0.29-0.428-0.29-0.703s0.097-0.509 0.29-0.703l5.431-5.431z"></path>
</symbol>
<symbol id="icon-no-internet_filled" viewBox="0 0 32 32">
<path d="M25.727 27.7l-11.087-11.154c-0.928 0.096-1.824 0.315-2.689 0.659s-1.642 0.79-2.335 1.339c-0.347 0.243-0.729 0.37-1.146 0.381s-0.768-0.132-1.051-0.43c-0.297-0.297-0.432-0.659-0.403-1.084s0.21-0.767 0.544-1.023c0.656-0.532 1.379-0.998 2.168-1.399s1.607-0.7 2.455-0.899l-3.949-3.949c-0.714 0.32-1.442 0.711-2.183 1.176s-1.44 0.973-2.096 1.527c-0.333 0.27-0.711 0.409-1.132 0.418s-0.774-0.136-1.058-0.433c-0.297-0.297-0.435-0.653-0.413-1.068s0.196-0.757 0.521-1.027c0.643-0.571 1.316-1.097 2.019-1.58s1.413-0.891 2.127-1.228l-2.226-2.226c-0.185-0.185-0.279-0.417-0.283-0.696s0.090-0.516 0.283-0.709c0.193-0.193 0.427-0.29 0.703-0.29s0.509 0.097 0.703 0.29l21.966 21.966c0.207 0.207 0.31 0.447 0.31 0.719s-0.103 0.512-0.31 0.719c-0.207 0.184-0.446 0.282-0.719 0.293s-0.512-0.087-0.719-0.293zM15.994 26.705c-0.754 0-1.391-0.264-1.912-0.791s-0.781-1.161-0.781-1.901c0-0.754 0.26-1.391 0.781-1.911s1.158-0.781 1.912-0.781 1.391 0.26 1.912 0.781c0.521 0.52 0.781 1.157 0.781 1.911 0 0.74-0.26 1.374-0.781 1.901s-1.158 0.791-1.912 0.791zM24.735 18.282c-0.253 0.253-0.548 0.376-0.885 0.369s-0.631-0.137-0.885-0.39l-2.815-2.815c-0.238-0.238-0.278-0.482-0.122-0.733s0.406-0.321 0.747-0.21c0.701 0.21 1.369 0.484 2.004 0.822s1.234 0.729 1.799 1.176c0.289 0.225 0.45 0.516 0.485 0.87s-0.075 0.659-0.328 0.912zM30.235 12.828c-0.292 0.306-0.648 0.454-1.067 0.444s-0.799-0.155-1.141-0.433c-1.626-1.396-3.463-2.481-5.512-3.255s-4.223-1.16-6.522-1.16c-0.467 0-0.923 0.017-1.369 0.050s-0.878 0.083-1.297 0.15c-0.41 0.072-0.782-0.015-1.115-0.26s-0.536-0.573-0.608-0.983c-0.072-0.41 0.018-0.782 0.27-1.115s0.583-0.536 0.994-0.608c0.474-0.072 0.97-0.124 1.488-0.158s1.065-0.050 1.637-0.050c2.726 0 5.288 0.465 7.683 1.396s4.541 2.216 6.437 3.855c0.333 0.284 0.511 0.635 0.533 1.054s-0.115 0.777-0.413 1.074z"></path>
</symbol>
<symbol id="icon-noti" viewBox="0 0 32 32">
<path d="M7.488 25.652c-0.283 0-0.521-0.096-0.712-0.287s-0.288-0.429-0.288-0.713c0-0.283 0.096-0.521 0.288-0.712s0.429-0.287 0.712-0.287h1.41v-9.949c0-1.793 0.553-3.378 1.66-4.756s2.528-2.259 4.263-2.644v-0.831c0-0.463 0.162-0.856 0.486-1.181s0.717-0.486 1.179-0.486c0.463 0 0.856 0.162 1.181 0.486s0.487 0.718 0.487 1.181v0.831c1.735 0.385 3.156 1.266 4.263 2.644s1.66 2.963 1.66 4.756v9.949h1.41c0.283 0 0.521 0.096 0.712 0.287s0.288 0.429 0.288 0.713c0 0.283-0.096 0.521-0.288 0.712s-0.429 0.287-0.712 0.287h-18zM16.485 29.396c-0.663 0-1.231-0.236-1.701-0.708s-0.707-1.039-0.707-1.702h4.821c0 0.665-0.236 1.233-0.709 1.704s-1.041 0.706-1.704 0.706zM10.898 23.653h11.179v-9.949c0-1.543-0.546-2.861-1.637-3.952s-2.409-1.637-3.953-1.637c-1.543 0-2.861 0.546-3.953 1.637s-1.637 2.409-1.637 3.952v9.949z"></path>
</symbol>
<symbol id="icon-noti_filled" viewBox="0 0 32 32">
<path d="M7 25.179c-0.283 0-0.521-0.096-0.712-0.287s-0.288-0.429-0.288-0.713c0-0.283 0.096-0.521 0.288-0.712s0.429-0.287 0.712-0.287h1.41v-9.949c0-1.793 0.553-3.379 1.66-4.756s2.528-2.259 4.263-2.644v-0.831c0-0.463 0.162-0.856 0.486-1.181s0.717-0.486 1.179-0.486c0.463 0 0.856 0.162 1.181 0.486s0.487 0.718 0.487 1.181v0.831c1.735 0.385 3.156 1.266 4.263 2.644s1.66 2.963 1.66 4.756v9.949h1.41c0.283 0 0.521 0.096 0.712 0.287s0.288 0.429 0.288 0.713c0 0.283-0.096 0.521-0.288 0.712s-0.429 0.287-0.712 0.287h-18zM15.998 28.923c-0.663 0-1.231-0.236-1.701-0.708s-0.707-1.039-0.707-1.702h4.821c0 0.665-0.236 1.233-0.709 1.704s-1.040 0.706-1.704 0.706z"></path>
</symbol>
<symbol id="icon-overview" viewBox="0 0 31 32">
<path d="M4.874 12.781v-6.646c0-0.328 0.111-0.602 0.332-0.824s0.497-0.332 0.824-0.332h6.646c0.328 0 0.603 0.111 0.824 0.332s0.333 0.497 0.333 0.824v6.646c0 0.328-0.111 0.603-0.333 0.824s-0.496 0.333-0.824 0.333h-6.646c-0.328 0-0.602-0.111-0.824-0.333s-0.332-0.496-0.332-0.824zM16.886 24.793v-6.646c0-0.328 0.111-0.603 0.333-0.824s0.497-0.333 0.824-0.333h6.646c0.328 0 0.602 0.111 0.824 0.333s0.332 0.497 0.332 0.824v6.646c0 0.328-0.111 0.602-0.332 0.824s-0.497 0.332-0.824 0.332h-6.646c-0.328 0-0.603-0.111-0.824-0.332s-0.333-0.497-0.333-0.824zM4.874 24.793v-6.646c0-0.328 0.111-0.603 0.332-0.824s0.497-0.333 0.824-0.333h6.646c0.328 0 0.603 0.111 0.824 0.333s0.333 0.497 0.333 0.824v6.646c0 0.328-0.111 0.602-0.333 0.824s-0.496 0.332-0.824 0.332h-6.646c-0.328 0-0.602-0.111-0.824-0.332s-0.332-0.497-0.332-0.824zM6.794 12.018h5.12v-5.12h-5.12v5.12zM18.806 24.030h5.12v-5.12h-5.12v5.12zM6.794 24.030h5.12v-5.12h-5.12v5.12z"></path>
<path d="M20.281 15.27l-4.701-4.701c-0.12-0.12-0.205-0.247-0.254-0.381s-0.074-0.278-0.074-0.431 0.025-0.296 0.074-0.429c0.049-0.133 0.134-0.259 0.254-0.379l4.701-4.702c0.12-0.12 0.247-0.204 0.381-0.253s0.277-0.074 0.431-0.074c0.153 0 0.296 0.025 0.429 0.074s0.259 0.134 0.379 0.253l4.702 4.702c0.12 0.12 0.204 0.246 0.253 0.38s0.074 0.278 0.074 0.431c0 0.153-0.025 0.296-0.074 0.429s-0.134 0.26-0.253 0.379l-4.702 4.701c-0.12 0.12-0.247 0.204-0.38 0.253s-0.278 0.074-0.431 0.074c-0.153 0-0.296-0.025-0.429-0.074s-0.259-0.133-0.379-0.253zM21.123 13.406l3.616-3.616-3.616-3.616-3.616 3.616 3.616 3.616z"></path>
</symbol>
<symbol id="icon-procurement" viewBox="0 0 32 32">
<path d="M7.699 28.288c-0.932 0-1.72-0.323-2.365-0.968s-0.968-1.434-0.968-2.365v-2.128c0-0.344 0.115-0.631 0.345-0.86s0.517-0.345 0.86-0.345h2.795v-17.751c0-0.138 0.056-0.231 0.168-0.278s0.219-0.028 0.322 0.058l0.98 0.813c0.116 0.099 0.242 0.149 0.377 0.149s0.26-0.050 0.377-0.149l1.118-0.913c0.116-0.099 0.242-0.149 0.377-0.149s0.261 0.050 0.377 0.149l1.118 0.913c0.116 0.099 0.242 0.149 0.377 0.149s0.261-0.050 0.377-0.149l1.118-0.913c0.116-0.099 0.242-0.149 0.377-0.149s0.26 0.050 0.377 0.149l1.118 0.913c0.116 0.099 0.242 0.149 0.377 0.149s0.261-0.050 0.377-0.149l1.118-0.913c0.116-0.099 0.242-0.149 0.377-0.149s0.261 0.050 0.377 0.149l1.118 0.913c0.116 0.099 0.242 0.149 0.377 0.149s0.26-0.050 0.377-0.149l1.118-0.913c0.116-0.099 0.242-0.149 0.377-0.149s0.261 0.050 0.377 0.149l1.118 0.913c0.116 0.099 0.242 0.149 0.377 0.149s0.261-0.050 0.377-0.149l0.98-0.813c0.102-0.086 0.21-0.105 0.322-0.058s0.168 0.14 0.168 0.278v21.085c0 0.931-0.323 1.72-0.968 2.365s-1.434 0.968-2.365 0.968h-16zM23.699 26.288c0.378 0 0.695-0.128 0.95-0.383s0.383-0.572 0.383-0.95v-18.667h-14.667v15.333h10.795c0.343 0 0.63 0.115 0.86 0.345s0.345 0.517 0.345 0.86v2.128c0 0.378 0.128 0.694 0.383 0.95s0.572 0.383 0.95 0.383zM12.955 9.288h5.564c0.284 0 0.521 0.096 0.713 0.287s0.287 0.429 0.287 0.713-0.096 0.521-0.287 0.713c-0.191 0.192-0.429 0.287-0.713 0.287h-5.564c-0.284 0-0.521-0.096-0.713-0.287s-0.287-0.429-0.287-0.713 0.096-0.521 0.287-0.713c0.191-0.192 0.429-0.287 0.713-0.287zM12.955 13.288h5.564c0.284 0 0.521 0.096 0.713 0.287s0.287 0.429 0.287 0.713c0 0.284-0.096 0.521-0.287 0.713s-0.429 0.287-0.713 0.287h-5.564c-0.284 0-0.521-0.096-0.713-0.287s-0.287-0.429-0.287-0.713c0-0.284 0.096-0.521 0.287-0.713s0.429-0.287 0.713-0.287zM22.288 11.467c-0.327 0-0.605-0.115-0.835-0.345s-0.345-0.508-0.345-0.835 0.115-0.605 0.345-0.835c0.23-0.23 0.508-0.345 0.835-0.345s0.605 0.115 0.835 0.345c0.23 0.23 0.345 0.508 0.345 0.835s-0.115 0.605-0.345 0.835c-0.23 0.23-0.508 0.345-0.835 0.345zM22.288 15.467c-0.327 0-0.605-0.115-0.835-0.345s-0.345-0.508-0.345-0.835c0-0.327 0.115-0.605 0.345-0.835s0.508-0.345 0.835-0.345c0.326 0 0.605 0.115 0.835 0.345s0.345 0.508 0.345 0.835c0 0.326-0.115 0.605-0.345 0.835s-0.508 0.345-0.835 0.345zM7.699 26.288h12.667v-2.667h-14v1.333c0 0.378 0.128 0.694 0.383 0.95s0.572 0.383 0.95 0.383z"></path>
</symbol>
<symbol id="icon-procurement_filled" viewBox="0 0 32 32">
<path d="M8.151 28.288c-0.932 0-1.72-0.323-2.365-0.968s-0.968-1.434-0.968-2.365v-2.128c0-0.344 0.115-0.631 0.345-0.86s0.517-0.345 0.86-0.345h2.795v-17.751c0-0.138 0.056-0.231 0.168-0.278s0.219-0.028 0.322 0.058l0.98 0.813c0.116 0.099 0.242 0.149 0.377 0.149s0.26-0.050 0.377-0.149l1.118-0.913c0.116-0.099 0.242-0.149 0.377-0.149s0.261 0.050 0.377 0.149l1.118 0.913c0.116 0.099 0.242 0.149 0.377 0.149s0.261-0.050 0.377-0.149l1.118-0.913c0.116-0.099 0.242-0.149 0.377-0.149s0.261 0.050 0.377 0.149l1.118 0.913c0.116 0.099 0.242 0.149 0.377 0.149s0.261-0.050 0.377-0.149l1.118-0.913c0.116-0.099 0.242-0.149 0.377-0.149s0.261 0.050 0.377 0.149l1.118 0.913c0.116 0.099 0.242 0.149 0.377 0.149s0.261-0.050 0.377-0.149l1.118-0.913c0.116-0.099 0.242-0.149 0.377-0.149s0.261 0.050 0.377 0.149l1.118 0.913c0.116 0.099 0.242 0.149 0.377 0.149s0.261-0.050 0.377-0.149l0.98-0.813c0.103-0.086 0.21-0.105 0.322-0.058s0.168 0.14 0.168 0.278v21.085c0 0.931-0.323 1.72-0.968 2.365s-1.434 0.968-2.365 0.968h-16zM24.151 26.288c0.378 0 0.694-0.128 0.95-0.383s0.383-0.572 0.383-0.95v-18.667h-14.667v15.333h10.795c0.344 0 0.63 0.115 0.86 0.345s0.345 0.517 0.345 0.86v2.128c0 0.378 0.128 0.694 0.383 0.95s0.572 0.383 0.95 0.383zM13.407 9.288h5.564c0.283 0 0.521 0.096 0.713 0.287s0.287 0.429 0.287 0.713-0.096 0.521-0.287 0.713c-0.192 0.192-0.429 0.287-0.713 0.287h-5.564c-0.284 0-0.521-0.096-0.713-0.287s-0.287-0.429-0.287-0.713 0.096-0.521 0.287-0.713c0.191-0.192 0.429-0.287 0.713-0.287zM13.407 13.288h5.564c0.283 0 0.521 0.096 0.713 0.287s0.287 0.429 0.287 0.713c0 0.284-0.096 0.521-0.287 0.713s-0.429 0.287-0.713 0.287h-5.564c-0.284 0-0.521-0.096-0.713-0.287s-0.287-0.429-0.287-0.713c0-0.284 0.096-0.521 0.287-0.713s0.429-0.287 0.713-0.287zM22.741 11.467c-0.326 0-0.605-0.115-0.835-0.345s-0.345-0.508-0.345-0.835 0.115-0.605 0.345-0.835c0.23-0.23 0.508-0.345 0.835-0.345s0.605 0.115 0.835 0.345c0.23 0.23 0.345 0.508 0.345 0.835s-0.115 0.605-0.345 0.835c-0.23 0.23-0.508 0.345-0.835 0.345zM22.741 15.467c-0.326 0-0.605-0.115-0.835-0.345s-0.345-0.508-0.345-0.835c0-0.327 0.115-0.605 0.345-0.835s0.508-0.345 0.835-0.345c0.327 0 0.605 0.115 0.835 0.345s0.345 0.508 0.345 0.835c0 0.326-0.115 0.605-0.345 0.835s-0.508 0.345-0.835 0.345z"></path>
</symbol>
<symbol id="icon-product" viewBox="0 0 31 32">
<path d="M15.362 27.624c-1.682 0-3.263-0.319-4.743-0.957s-2.767-1.505-3.862-2.599c-1.095-1.094-1.961-2.381-2.6-3.86s-0.958-3.060-0.958-4.742c0-1.682 0.319-3.263 0.957-4.743s1.505-2.767 2.599-3.862c1.094-1.095 2.381-1.961 3.86-2.6s3.060-0.958 4.742-0.958c1.682 0 3.263 0.319 4.743 0.957s2.767 1.505 3.862 2.599c1.095 1.094 1.961 2.381 2.6 3.86s0.958 3.060 0.958 4.741c0 1.682-0.319 3.263-0.957 4.743s-1.505 2.767-2.599 3.862c-1.094 1.095-2.381 1.961-3.86 2.6s-3.060 0.958-4.742 0.958zM15.36 25.704c2.859 0 5.28-0.992 7.264-2.976s2.976-4.405 2.976-7.264c0-2.859-0.992-5.28-2.976-7.264s-4.405-2.976-7.264-2.976c-2.859 0-5.28 0.992-7.264 2.976s-2.976 4.405-2.976 7.264c0 2.859 0.992 5.28 2.976 7.264s4.405 2.976 7.264 2.976z"></path>
<path d="M13.543 18.211l-2.973-2.974c-0.177-0.177-0.4-0.268-0.668-0.272s-0.495 0.087-0.681 0.272c-0.185 0.186-0.278 0.411-0.278 0.675s0.093 0.489 0.278 0.675l3.513 3.513c0.231 0.231 0.501 0.347 0.81 0.347s0.578-0.116 0.81-0.347l7.121-7.121c0.177-0.177 0.268-0.4 0.272-0.668s-0.087-0.495-0.272-0.681c-0.186-0.185-0.41-0.278-0.675-0.278s-0.489 0.093-0.675 0.278l-6.582 6.582z"></path>
</symbol>
<symbol id="icon-qr_code" viewBox="0 0 32 32">
<path d="M5.333 12.795v-7.59c0-0.342 0.116-0.628 0.347-0.859s0.517-0.347 0.859-0.347h7.59c0.341 0 0.627 0.116 0.859 0.347s0.346 0.517 0.346 0.859v7.59c0 0.341-0.115 0.628-0.346 0.859s-0.517 0.346-0.859 0.346h-7.59c-0.342 0-0.628-0.115-0.859-0.346s-0.347-0.517-0.347-0.859zM7.333 12h6v-6h-6v6zM5.333 25.461v-7.59c0-0.341 0.116-0.628 0.347-0.859s0.517-0.346 0.859-0.346h7.59c0.341 0 0.627 0.115 0.859 0.346s0.346 0.517 0.346 0.859v7.59c0 0.342-0.115 0.628-0.346 0.859s-0.517 0.347-0.859 0.347h-7.59c-0.342 0-0.628-0.116-0.859-0.347s-0.347-0.517-0.347-0.859zM7.333 24.667h6v-6h-6v6zM18 12.795v-7.59c0-0.342 0.115-0.628 0.346-0.859s0.517-0.347 0.859-0.347h7.59c0.342 0 0.628 0.116 0.859 0.347s0.347 0.517 0.347 0.859v7.59c0 0.341-0.116 0.628-0.347 0.859s-0.517 0.346-0.859 0.346h-7.59c-0.341 0-0.628-0.115-0.859-0.346s-0.346-0.517-0.346-0.859zM20 12h6v-6h-6v6zM25.5 26.667v-2.5h2.5v2.5h-2.5zM18 19.167v-2.5h2.5v2.5h-2.5zM20.5 21.667v-2.5h2.5v2.5h-2.5zM18 24.167v-2.5h2.5v2.5h-2.5zM20.5 26.667v-2.5h2.5v2.5h-2.5zM23 24.167v-2.5h2.5v2.5h-2.5zM23 19.167v-2.5h2.5v2.5h-2.5zM25.5 21.667v-2.5h2.5v2.5h-2.5z"></path>
</symbol>
<symbol id="icon-report" viewBox="0 0 31 32">
<path d="M5.060 26.817c-0.272 0-0.5-0.092-0.684-0.276s-0.276-0.412-0.276-0.684v-1.145c0-0.272 0.092-0.5 0.276-0.684s0.412-0.276 0.684-0.276c0.272 0 0.5 0.092 0.684 0.276s0.276 0.412 0.276 0.684v1.145c0 0.272-0.092 0.5-0.276 0.684s-0.412 0.276-0.684 0.276zM10.18 26.817c-0.272 0-0.5-0.092-0.684-0.276s-0.276-0.412-0.276-0.684v-6.905c0-0.272 0.092-0.5 0.276-0.684s0.412-0.276 0.684-0.276c0.272 0 0.5 0.092 0.684 0.276s0.276 0.412 0.276 0.684v6.905c0 0.272-0.092 0.5-0.276 0.684s-0.412 0.276-0.684 0.276zM15.3 26.817c-0.272 0-0.5-0.092-0.684-0.276s-0.276-0.412-0.276-0.684v-4.345c0-0.272 0.092-0.5 0.276-0.684s0.412-0.276 0.684-0.276c0.272 0 0.5 0.092 0.684 0.276s0.276 0.412 0.276 0.684v4.345c0 0.272-0.092 0.5-0.276 0.684s-0.412 0.276-0.684 0.276zM20.42 26.817c-0.272 0-0.5-0.092-0.684-0.276s-0.276-0.412-0.276-0.684v-6.265c0-0.272 0.092-0.5 0.276-0.684s0.412-0.276 0.684-0.276c0.272 0 0.5 0.092 0.684 0.276s0.276 0.412 0.276 0.684v6.265c0 0.272-0.092 0.5-0.276 0.684s-0.412 0.276-0.684 0.276zM25.54 26.817c-0.272 0-0.5-0.092-0.684-0.276s-0.276-0.412-0.276-0.684v-11.385c0-0.272 0.092-0.5 0.276-0.684s0.412-0.276 0.684-0.276c0.272 0 0.5 0.092 0.684 0.276s0.276 0.412 0.276 0.684v11.385c0 0.272-0.092 0.5-0.276 0.684s-0.412 0.276-0.684 0.276z"></path>
<path d="M17.86 15.241c-0.3 0-0.591-0.058-0.871-0.173s-0.536-0.278-0.768-0.489l-3.197-3.198c-0.074-0.074-0.168-0.111-0.283-0.111s-0.209 0.037-0.283 0.111l-6.722 6.723c-0.191 0.19-0.419 0.284-0.684 0.282s-0.494-0.103-0.684-0.301c-0.177-0.19-0.262-0.417-0.254-0.68s0.099-0.482 0.274-0.657l6.715-6.715c0.232-0.23 0.488-0.398 0.768-0.504s0.571-0.158 0.871-0.158c0.3 0 0.596 0.053 0.885 0.158s0.541 0.274 0.754 0.504l3.197 3.198c0.074 0.074 0.168 0.111 0.283 0.111s0.209-0.037 0.283-0.111l6.722-6.723c0.191-0.19 0.419-0.284 0.685-0.282s0.494 0.103 0.684 0.301c0.177 0.191 0.262 0.417 0.254 0.68s-0.099 0.482-0.274 0.657l-6.715 6.715c-0.213 0.211-0.464 0.374-0.754 0.489s-0.585 0.173-0.886 0.173z"></path>
</symbol>
<symbol id="icon-scan_qr" viewBox="0 0 32 32">
<path d="M4.333 9.359c-0.284 0-0.521-0.096-0.712-0.288s-0.287-0.429-0.287-0.712v-3.82c0-0.342 0.116-0.628 0.347-0.859s0.517-0.347 0.859-0.347h3.82c0.283 0 0.521 0.096 0.712 0.288s0.288 0.429 0.288 0.713c0 0.284-0.096 0.521-0.288 0.712s-0.429 0.287-0.712 0.287h-3.026v3.026c0 0.283-0.096 0.521-0.288 0.712s-0.429 0.288-0.713 0.288zM4.539 28.667c-0.342 0-0.628-0.116-0.859-0.347s-0.347-0.517-0.347-0.859v-3.82c0-0.283 0.096-0.521 0.288-0.712s0.429-0.288 0.713-0.288c0.284 0 0.521 0.096 0.712 0.288s0.287 0.429 0.287 0.712v3.026h3.026c0.283 0 0.521 0.096 0.712 0.288s0.288 0.429 0.288 0.713c0 0.284-0.096 0.521-0.288 0.712s-0.429 0.287-0.712 0.287h-3.82zM23.641 28.667c-0.283 0-0.521-0.096-0.712-0.288s-0.288-0.429-0.288-0.713c0-0.284 0.096-0.521 0.288-0.712s0.429-0.287 0.712-0.287h3.026v-3.026c0-0.283 0.096-0.521 0.288-0.712s0.429-0.288 0.713-0.288c0.284 0 0.521 0.096 0.712 0.288s0.287 0.429 0.287 0.712v3.82c0 0.342-0.116 0.628-0.347 0.859s-0.517 0.347-0.859 0.347h-3.82zM27.666 9.359c-0.284 0-0.521-0.096-0.712-0.288s-0.287-0.429-0.287-0.712v-3.026h-3.026c-0.283 0-0.521-0.096-0.712-0.288s-0.288-0.429-0.288-0.713c0-0.284 0.096-0.521 0.288-0.712s0.429-0.287 0.712-0.287h3.82c0.342 0 0.628 0.116 0.859 0.347s0.347 0.517 0.347 0.859v3.82c0 0.283-0.096 0.521-0.288 0.712s-0.429 0.288-0.713 0.288zM22.962 24.769v-1.808h1.808v1.808h-1.808zM22.962 21.154v-1.808h1.808v1.808h-1.808zM21.154 22.962v-1.808h1.808v1.808h-1.808zM19.346 24.769v-1.808h1.808v1.808h-1.808zM17.538 22.962v-1.808h1.808v1.808h-1.808zM21.154 19.346v-1.808h1.808v1.808h-1.808zM19.346 21.154v-1.808h1.808v1.808h-1.808zM17.538 19.346v-1.808h1.808v1.808h-1.808zM18.741 14.462c-0.342 0-0.627-0.115-0.857-0.347s-0.345-0.518-0.345-0.859v-4.823c0-0.342 0.115-0.627 0.347-0.857s0.518-0.345 0.859-0.345h4.823c0.341 0 0.627 0.116 0.857 0.347s0.345 0.518 0.345 0.859v4.823c0 0.342-0.116 0.627-0.347 0.857s-0.518 0.345-0.859 0.345h-4.823zM8.433 24.769c-0.342 0-0.627-0.116-0.857-0.347s-0.345-0.518-0.345-0.859v-4.823c0-0.342 0.116-0.627 0.347-0.857s0.518-0.345 0.859-0.345h4.823c0.342 0 0.627 0.115 0.857 0.347s0.345 0.518 0.345 0.859v4.823c0 0.341-0.116 0.627-0.347 0.857s-0.518 0.345-0.859 0.345h-4.823zM8.433 14.462c-0.342 0-0.627-0.115-0.857-0.347s-0.345-0.518-0.345-0.859v-4.823c0-0.342 0.116-0.627 0.347-0.857s0.518-0.345 0.859-0.345h4.823c0.342 0 0.627 0.116 0.857 0.347s0.345 0.518 0.345 0.859v4.823c0 0.342-0.116 0.627-0.347 0.857s-0.518 0.345-0.859 0.345h-4.823zM8.821 23.179h4.051v-4.051h-4.051v4.051zM8.821 12.872h4.051v-4.051h-4.051v4.051zM19.128 12.872h4.051v-4.051h-4.051v4.051z"></path>
</symbol>
<symbol id="icon-search" viewBox="0 0 32 32">
<path d="M12.564 21.312c-2.277 0-4.205-0.79-5.785-2.369s-2.369-3.508-2.369-5.785 0.79-4.205 2.369-5.785c1.58-1.579 3.508-2.369 5.785-2.369s4.205 0.79 5.785 2.369c1.579 1.58 2.369 3.508 2.369 5.785 0 0.952-0.16 1.862-0.479 2.728s-0.746 1.62-1.28 2.261l7.672 7.672c0.185 0.184 0.279 0.416 0.283 0.696s-0.090 0.516-0.283 0.709c-0.193 0.193-0.427 0.29-0.703 0.29s-0.509-0.097-0.702-0.29l-7.672-7.672c-0.667 0.551-1.433 0.981-2.3 1.292s-1.763 0.467-2.69 0.467zM12.564 19.312c1.718 0 3.173-0.596 4.365-1.789s1.789-2.647 1.789-4.365-0.596-3.173-1.789-4.365c-1.192-1.192-2.647-1.789-4.365-1.789s-3.173 0.596-4.365 1.789c-1.192 1.192-1.789 2.647-1.789 4.365s0.596 3.173 1.789 4.365c1.192 1.193 2.647 1.789 4.365 1.789z"></path>
</symbol>
<symbol id="icon-shipment" viewBox="0 0 31 32">
<path d="M4.48 26.831v-22.735c0-0.133 0.056-0.222 0.167-0.267s0.217-0.026 0.315 0.056l0.916 0.805c0.112 0.095 0.236 0.143 0.374 0.143s0.263-0.048 0.374-0.143l1.073-0.901c0.112-0.095 0.236-0.143 0.374-0.143s0.262 0.048 0.374 0.143l1.073 0.901c0.112 0.095 0.236 0.143 0.374 0.143s0.262-0.048 0.374-0.143l1.073-0.901c0.112-0.095 0.236-0.143 0.374-0.143s0.263 0.048 0.374 0.143l1.073 0.901c0.111 0.095 0.236 0.143 0.374 0.143s0.263-0.048 0.374-0.143l1.073-0.901c0.111-0.095 0.236-0.143 0.374-0.143s0.263 0.048 0.374 0.143l1.073 0.901c0.112 0.095 0.236 0.143 0.374 0.143s0.263-0.048 0.374-0.143l1.073-0.901c0.111-0.095 0.236-0.143 0.374-0.143s0.263 0.048 0.374 0.143l1.073 0.901c0.112 0.095 0.236 0.143 0.374 0.143s0.262-0.048 0.374-0.143l1.073-0.901c0.112-0.095 0.236-0.143 0.374-0.143s0.262 0.048 0.374 0.143l1.073 0.901c0.112 0.095 0.236 0.143 0.374 0.143s0.263-0.048 0.375-0.143l0.915-0.805c0.099-0.082 0.204-0.101 0.315-0.056s0.167 0.134 0.167 0.267v22.735c0 0.133-0.056 0.222-0.167 0.267s-0.217 0.026-0.315-0.056l-0.915-0.805c-0.112-0.095-0.236-0.143-0.375-0.143s-0.262 0.048-0.374 0.143l-1.073 0.901c-0.112 0.095-0.236 0.143-0.374 0.143s-0.263-0.048-0.374-0.143l-1.073-0.901c-0.112-0.095-0.236-0.143-0.374-0.143s-0.263 0.048-0.374 0.143l-1.073 0.901c-0.112 0.095-0.236 0.143-0.374 0.143s-0.263-0.048-0.374-0.143l-1.073-0.901c-0.112-0.095-0.236-0.143-0.374-0.143s-0.263 0.048-0.374 0.143l-1.073 0.901c-0.112 0.095-0.236 0.143-0.374 0.143s-0.263-0.048-0.374-0.143l-1.073-0.901c-0.111-0.095-0.236-0.143-0.374-0.143s-0.263 0.048-0.374 0.143l-1.073 0.901c-0.112 0.095-0.236 0.143-0.374 0.143s-0.262-0.048-0.374-0.143l-1.073-0.901c-0.112-0.095-0.236-0.143-0.374-0.143s-0.262 0.048-0.374 0.143l-1.073 0.901c-0.112 0.095-0.236 0.143-0.374 0.143s-0.263-0.048-0.374-0.143l-1.073-0.901c-0.112-0.095-0.236-0.143-0.374-0.143s-0.263 0.048-0.374 0.143l-0.916 0.805c-0.099 0.082-0.204 0.101-0.315 0.056s-0.167-0.134-0.167-0.267zM6.4 24.552h17.92v-18.176h-17.92v18.176z"></path>
<path d="M8.96 21.15h12.8c0.272 0 0.5-0.092 0.684-0.275s0.276-0.412 0.276-0.685c0-0.272-0.092-0.5-0.276-0.684s-0.412-0.276-0.684-0.276h-12.8c-0.272 0-0.5 0.092-0.684 0.276s-0.276 0.412-0.276 0.684c0 0.273 0.092 0.501 0.276 0.685s0.412 0.275 0.684 0.275zM8.96 16.424h12.8c0.272 0 0.5-0.092 0.684-0.276s0.276-0.412 0.276-0.684c0-0.273-0.092-0.5-0.276-0.684s-0.412-0.276-0.684-0.276h-12.8c-0.272 0-0.5 0.092-0.684 0.276s-0.276 0.412-0.276 0.684c0 0.272 0.092 0.5 0.276 0.684s0.412 0.276 0.684 0.276zM8.96 11.698h12.8c0.272 0 0.5-0.092 0.684-0.276s0.276-0.412 0.276-0.684-0.092-0.501-0.276-0.684c-0.184-0.184-0.412-0.276-0.684-0.276h-12.8c-0.272 0-0.5 0.092-0.684 0.276s-0.276 0.412-0.276 0.684 0.092 0.5 0.276 0.684c0.184 0.184 0.412 0.276 0.684 0.276z"></path>
</symbol>
<symbol id="icon-sort" viewBox="0 0 32 32">
<path d="M16 24.621l3.395-3.395c0.198-0.198 0.437-0.3 0.717-0.304s0.523 0.097 0.729 0.304c0.207 0.207 0.31 0.448 0.31 0.723s-0.103 0.516-0.31 0.723l-3.997 3.998c-0.125 0.125-0.257 0.213-0.395 0.264s-0.288 0.077-0.449 0.077-0.31-0.026-0.449-0.077c-0.139-0.051-0.27-0.139-0.395-0.264l-3.997-3.998c-0.198-0.198-0.3-0.437-0.304-0.717s0.097-0.522 0.304-0.729 0.448-0.31 0.723-0.31c0.275 0 0.516 0.103 0.723 0.31l3.395 3.395zM16 7.461l-3.395 3.395c-0.198 0.198-0.437 0.3-0.717 0.304s-0.522-0.097-0.729-0.304-0.31-0.448-0.31-0.723c0-0.275 0.103-0.516 0.31-0.723l3.997-3.997c0.125-0.125 0.257-0.213 0.395-0.264s0.288-0.077 0.449-0.077 0.31 0.026 0.449 0.077c0.138 0.051 0.27 0.139 0.395 0.264l3.997 3.997c0.198 0.198 0.3 0.437 0.304 0.717s-0.097 0.522-0.304 0.729c-0.207 0.207-0.448 0.31-0.723 0.31s-0.516-0.103-0.723-0.31l-3.395-3.395z"></path>
</symbol>
<symbol id="icon-square" viewBox="0 0 32 32">
<path d="M9.395 25.197c-0.762 0-1.408-0.264-1.936-0.792s-0.792-1.173-0.792-1.936v-15.83c0-0.568 0.255-0.962 0.765-1.183s0.958-0.14 1.342 0.245l2.487 2.487-1.415 1.415 0.779 0.779 1.415-1.415 3.159 3.159-1.415 1.415 0.779 0.779 1.415-1.415 3.21 3.21-1.415 1.415 0.779 0.779 1.415-1.415 3.159 3.159-1.415 1.415 0.78 0.78 1.415-1.415 2.282 2.282c0.376 0.376 0.453 0.817 0.232 1.323s-0.611 0.759-1.171 0.759h-15.856zM10.051 22.222h10.656l-11.067-11.067v10.656c0 0.12 0.038 0.218 0.115 0.295s0.175 0.115 0.295 0.115z"></path>
</symbol>
<symbol id="icon-up" viewBox="0 0 32 32">
<path d="M16 13.938l-5.431 5.431c-0.185 0.184-0.417 0.279-0.696 0.283s-0.516-0.090-0.709-0.283c-0.193-0.193-0.29-0.428-0.29-0.703s0.097-0.509 0.29-0.703l5.992-5.992c0.241-0.241 0.522-0.361 0.844-0.361s0.603 0.12 0.844 0.361l5.992 5.992c0.184 0.185 0.279 0.417 0.283 0.696s-0.090 0.516-0.283 0.709c-0.193 0.193-0.428 0.29-0.703 0.29s-0.509-0.097-0.703-0.29l-5.431-5.431z"></path>
</symbol>
<symbol id="icon-update" viewBox="0 0 32 32">
<path d="M7.667 16.066c0 0.39 0.026 0.778 0.079 1.165s0.144 0.769 0.272 1.145c0.085 0.284 0.076 0.555-0.027 0.814s-0.279 0.445-0.527 0.558c-0.262 0.127-0.522 0.137-0.781 0.031s-0.431-0.301-0.517-0.584c-0.178-0.503-0.306-1.019-0.383-1.548s-0.117-1.056-0.117-1.581c0-2.884 1.003-5.338 3.010-7.363s4.448-3.037 7.323-3.037h1.041l-1.764-1.764c-0.185-0.185-0.279-0.417-0.283-0.696s0.090-0.516 0.283-0.709c0.193-0.193 0.427-0.29 0.702-0.29s0.51 0.097 0.703 0.29l3.326 3.326c0.241 0.241 0.362 0.522 0.362 0.844s-0.121 0.603-0.362 0.844l-3.326 3.326c-0.185 0.184-0.417 0.279-0.696 0.283s-0.516-0.090-0.709-0.283c-0.193-0.193-0.29-0.428-0.29-0.703s0.097-0.509 0.29-0.703l1.764-1.764h-1.041c-2.316 0-4.284 0.815-5.904 2.446s-2.429 3.616-2.429 5.954zM24.333 15.933c0-0.39-0.026-0.778-0.079-1.165s-0.144-0.769-0.272-1.145c-0.085-0.284-0.076-0.555 0.027-0.814s0.279-0.445 0.527-0.558c0.262-0.126 0.52-0.137 0.774-0.031s0.425 0.301 0.51 0.584c0.178 0.503 0.308 1.019 0.39 1.548s0.123 1.056 0.123 1.581c0 2.884-1.003 5.338-3.010 7.363s-4.448 3.037-7.323 3.037h-1.041l1.764 1.764c0.185 0.185 0.279 0.417 0.283 0.696s-0.090 0.516-0.283 0.709c-0.193 0.193-0.427 0.29-0.702 0.29s-0.51-0.097-0.703-0.29l-3.326-3.326c-0.241-0.241-0.362-0.522-0.362-0.844s0.121-0.603 0.362-0.844l3.326-3.326c0.185-0.184 0.417-0.279 0.696-0.283s0.516 0.090 0.709 0.283c0.193 0.193 0.29 0.428 0.29 0.703s-0.097 0.509-0.29 0.703l-1.764 1.764h1.041c2.316 0 4.284-0.815 5.904-2.446s2.429-3.615 2.429-5.954z"></path>
</symbol>
<symbol id="icon-update_filled" viewBox="0 0 32 32">
<path d="M4.333 16c0-3.274 1.175-6.036 3.526-8.288s5.175-3.378 8.474-3.378v-1.128c0-0.241 0.109-0.42 0.328-0.536s0.431-0.098 0.636 0.054l3.526 2.646c0.321 0.241 0.482 0.562 0.482 0.964s-0.161 0.723-0.482 0.964l-3.526 2.646c-0.205 0.152-0.417 0.17-0.636 0.054s-0.328-0.295-0.328-0.536v-1.128c-2.185 0-4.064 0.74-5.638 2.22s-2.362 3.296-2.362 5.446c0 0.759 0.108 1.492 0.323 2.2s0.525 1.368 0.928 1.98c0.219 0.321 0.306 0.666 0.261 1.034s-0.216 0.662-0.515 0.881l-0.838 0.615c-0.366 0.285-0.77 0.397-1.212 0.335s-0.794-0.283-1.058-0.663c-0.619-0.93-1.088-1.936-1.409-3.017s-0.481-2.203-0.481-3.365zM15.667 27.667v1.128c0 0.241-0.109 0.42-0.328 0.536s-0.431 0.098-0.636-0.054l-3.526-2.646c-0.321-0.241-0.482-0.562-0.482-0.964s0.161-0.723 0.482-0.964l3.526-2.646c0.205-0.152 0.417-0.17 0.636-0.054s0.328 0.295 0.328 0.536v1.128c2.185 0 4.064-0.74 5.638-2.22s2.362-3.296 2.362-5.446c0-0.759-0.108-1.494-0.323-2.206s-0.525-1.374-0.928-1.986c-0.219-0.321-0.306-0.666-0.261-1.035s0.216-0.662 0.515-0.881l0.838-0.615c0.366-0.286 0.77-0.394 1.212-0.324s0.794 0.287 1.058 0.652c0.605 0.939 1.071 1.946 1.399 3.023s0.491 2.201 0.491 3.372c0 3.273-1.175 6.036-3.526 8.288s-5.175 3.378-8.474 3.378z"></path>
</symbol>
<symbol id="icon-view" viewBox="0 0 32 32">
<path d="M16.003 20.769c1.511 0 2.794-0.529 3.85-1.586s1.583-2.342 1.583-3.853c0-1.511-0.529-2.794-1.586-3.85s-2.342-1.583-3.853-1.583c-1.511 0-2.794 0.529-3.85 1.586s-1.583 2.342-1.583 3.853c0 1.511 0.529 2.794 1.586 3.85s2.342 1.583 3.853 1.583zM16 18.933c-1 0-1.85-0.35-2.55-1.050s-1.050-1.55-1.050-2.55 0.35-1.85 1.050-2.55c0.7-0.7 1.55-1.050 2.55-1.050s1.85 0.35 2.55 1.050c0.7 0.7 1.050 1.55 1.050 2.55s-0.35 1.85-1.050 2.55c-0.7 0.7-1.55 1.050-2.55 1.050zM16 24.667c-2.807 0-5.374-0.749-7.701-2.246s-4.185-3.467-5.573-5.91c-0.111-0.192-0.192-0.385-0.244-0.579s-0.077-0.394-0.077-0.599 0.026-0.404 0.077-0.598c0.051-0.194 0.133-0.387 0.244-0.578 1.388-2.443 3.246-4.413 5.573-5.91s4.894-2.246 7.701-2.246c2.807 0 5.374 0.749 7.701 2.246s4.185 3.467 5.573 5.91c0.111 0.192 0.192 0.385 0.244 0.579s0.077 0.394 0.077 0.599-0.026 0.404-0.077 0.598c-0.051 0.194-0.133 0.387-0.244 0.578-1.388 2.443-3.246 4.413-5.573 5.91s-4.895 2.246-7.701 2.246zM16 22.667c2.511 0 4.817-0.661 6.917-1.983s3.705-3.106 4.817-5.35c-1.111-2.244-2.717-4.028-4.817-5.35s-4.406-1.983-6.917-1.983c-2.511 0-4.817 0.661-6.917 1.983s-3.706 3.106-4.817 5.35c1.111 2.244 2.717 4.028 4.817 5.35s4.406 1.983 6.917 1.983z"></path>
</symbol>
<symbol id="icon-view_filled" viewBox="0 0 32 32">
<path d="M16.003 20.769c1.511 0 2.794-0.529 3.85-1.586s1.583-2.342 1.583-3.853c0-1.511-0.529-2.794-1.586-3.85s-2.342-1.583-3.853-1.583c-1.511 0-2.794 0.529-3.85 1.586s-1.583 2.342-1.583 3.853c0 1.511 0.529 2.794 1.586 3.85s2.342 1.583 3.853 1.583zM16 18.933c-1 0-1.85-0.35-2.55-1.050s-1.050-1.55-1.050-2.55 0.35-1.85 1.050-2.55c0.7-0.7 1.55-1.050 2.55-1.050s1.85 0.35 2.55 1.050c0.7 0.7 1.050 1.55 1.050 2.55s-0.35 1.85-1.050 2.55c-0.7 0.7-1.55 1.050-2.55 1.050zM16 24.667c-2.807 0-5.374-0.749-7.701-2.246s-4.185-3.467-5.573-5.91c-0.111-0.192-0.192-0.385-0.244-0.579s-0.077-0.394-0.077-0.599 0.026-0.404 0.077-0.598c0.051-0.194 0.133-0.387 0.244-0.578 1.388-2.443 3.246-4.413 5.573-5.91s4.894-2.246 7.701-2.246c2.807 0 5.374 0.749 7.701 2.246s4.185 3.467 5.573 5.91c0.111 0.192 0.192 0.385 0.244 0.579s0.077 0.394 0.077 0.599-0.026 0.404-0.077 0.598c-0.051 0.194-0.133 0.387-0.244 0.578-1.388 2.443-3.246 4.413-5.573 5.91s-4.895 2.246-7.701 2.246z"></path>
</symbol>
<symbol id="icon-warning" viewBox="0 0 32 32">
<path d="M16 22.308c0.305 0 0.561-0.103 0.767-0.31s0.31-0.462 0.31-0.767c0-0.305-0.103-0.561-0.31-0.767s-0.462-0.309-0.767-0.309-0.561 0.103-0.767 0.309c-0.206 0.206-0.31 0.462-0.31 0.767s0.103 0.561 0.31 0.767c0.206 0.206 0.462 0.31 0.767 0.31zM16 17.436c0.283 0 0.521-0.096 0.712-0.288s0.287-0.429 0.287-0.712v-6c0-0.283-0.096-0.521-0.288-0.713s-0.429-0.287-0.713-0.287c-0.284 0-0.521 0.096-0.712 0.287s-0.287 0.429-0.287 0.713v6c0 0.283 0.096 0.521 0.288 0.712s0.429 0.288 0.713 0.288zM16.002 28.667c-1.752 0-3.399-0.332-4.94-0.997s-2.882-1.567-4.023-2.707c-1.14-1.14-2.043-2.48-2.708-4.021s-0.998-3.187-0.998-4.939c0-1.752 0.332-3.399 0.997-4.94s1.567-2.882 2.707-4.023c1.14-1.14 2.48-2.043 4.021-2.708s3.187-0.998 4.939-0.998c1.752 0 3.399 0.332 4.94 0.997s2.882 1.567 4.023 2.707c1.14 1.14 2.043 2.48 2.708 4.021s0.998 3.187 0.998 4.939c0 1.752-0.332 3.399-0.997 4.94s-1.567 2.882-2.707 4.023c-1.14 1.14-2.48 2.043-4.021 2.708s-3.187 0.998-4.939 0.998zM16 26.667c2.978 0 5.5-1.033 7.567-3.1s3.1-4.589 3.1-7.567c0-2.978-1.033-5.5-3.1-7.567s-4.589-3.1-7.567-3.1c-2.978 0-5.5 1.033-7.567 3.1s-3.1 4.589-3.1 7.567c0 2.978 1.033 5.5 3.1 7.567s4.589 3.1 7.567 3.1z"></path>
</symbol>
<symbol id="icon-warning_filled" viewBox="0 0 32 32">
<path d="M16 22.308c0.305 0 0.561-0.103 0.767-0.31s0.31-0.462 0.31-0.767c0-0.305-0.103-0.561-0.31-0.767s-0.462-0.309-0.767-0.309-0.561 0.103-0.767 0.309c-0.206 0.206-0.31 0.462-0.31 0.767s0.103 0.561 0.31 0.767c0.206 0.206 0.462 0.31 0.767 0.31zM16 17.436c0.283 0 0.521-0.096 0.712-0.288s0.287-0.429 0.287-0.712v-6c0-0.283-0.096-0.521-0.288-0.713s-0.429-0.287-0.713-0.287c-0.284 0-0.521 0.096-0.712 0.287s-0.287 0.429-0.287 0.713v6c0 0.283 0.096 0.521 0.288 0.712s0.429 0.288 0.713 0.288zM16.002 28.667c-1.752 0-3.399-0.332-4.94-0.997s-2.882-1.567-4.023-2.707c-1.14-1.14-2.043-2.48-2.708-4.021s-0.998-3.187-0.998-4.939c0-1.752 0.332-3.399 0.997-4.94s1.567-2.882 2.707-4.023c1.14-1.14 2.48-2.043 4.021-2.708s3.187-0.998 4.939-0.998c1.752 0 3.399 0.332 4.94 0.997s2.882 1.567 4.023 2.707c1.14 1.14 2.043 2.48 2.708 4.021s0.998 3.187 0.998 4.939c0 1.752-0.332 3.399-0.997 4.94s-1.567 2.882-2.707 4.023c-1.14 1.14-2.48 2.043-4.021 2.708s-3.187 0.998-4.939 0.998z"></path>
</symbol>
</defs>
</svg>
