<!-- Generated by IcoMoon.io -->
<svg version="1.1" xmlns="http://www.w3.org/2000/svg" width="32" height="32" viewBox="0 0 32 32">
<title>apartment</title>
<path d="M27.886 19.657h-2.972v-4.343c0-0.126-0.103-0.229-0.228-0.229h-7.086v-2.743h3.086c0.251 0 0.457-0.206 0.457-0.457v-8.229c0-0.251-0.206-0.457-0.457-0.457h-8.229c-0.251 0-0.457 0.206-0.457 0.457v8.229c0 0.251 0.206 0.457 0.457 0.457h3.086v2.743h-7.086c-0.126 0-0.229 0.103-0.229 0.229v4.343h-2.971c-0.251 0-0.457 0.206-0.457 0.457v8.229c0 0.251 0.206 0.457 0.457 0.457h8.229c0.251 0 0.457-0.206 0.457-0.457v-8.229c0-0.251-0.206-0.457-0.457-0.457h-3.2v-2.514h12.571v2.514h-3.2c-0.251 0-0.457 0.206-0.457 0.457v8.229c0 0.251 0.206 0.457 0.457 0.457h8.229c0.251 0 0.457-0.206 0.457-0.457v-8.229c0-0.251-0.206-0.457-0.457-0.457zM11.771 21.829v4.8h-4.8v-4.8h4.8zM14.171 10.171v-4.8h4.8v4.8h-4.8zM26.171 26.629h-4.8v-4.8h4.8v4.8z"></path>
</svg>
