<!-- Generated by IcoMoon.io -->
<svg version="1.1" xmlns="http://www.w3.org/2000/svg" width="32" height="32" viewBox="0 0 32 32">
<title>arrow-right1</title>
<path d="M28.416 14.74l-13.14-11.405c-0.101-0.087-0.23-0.136-0.365-0.136h-3.078c-0.257 0-0.376 0.32-0.181 0.487l12.18 10.574h-20.354c-0.153 0-0.278 0.125-0.278 0.278v2.087c0 0.153 0.125 0.278 0.278 0.278h20.351l-12.18 10.574c-0.195 0.17-0.077 0.487 0.181 0.487h3.183c0.066 0 0.132-0.024 0.181-0.070l13.224-11.471c0.12-0.105 0.217-0.234 0.283-0.379s0.1-0.303 0.1-0.462-0.034-0.317-0.1-0.462c-0.066-0.145-0.163-0.275-0.283-0.379v0z"></path>
</svg>
