<!-- Generated by IcoMoon.io -->
<svg version="1.1" xmlns="http://www.w3.org/2000/svg" width="32" height="32" viewBox="0 0 32 32">
<title>arrow-left1</title>
<path d="M28.522 14.26h-20.351l12.18-10.574c0.195-0.17 0.076-0.487-0.181-0.487h-3.078c-0.136 0-0.264 0.049-0.365 0.136l-13.144 11.405c-0.12 0.104-0.217 0.233-0.283 0.378s-0.1 0.302-0.1 0.462c0 0.159 0.034 0.317 0.1 0.462s0.163 0.274 0.283 0.378l13.22 11.474c0.052 0.045 0.115 0.070 0.181 0.070h3.182c0.257 0 0.376-0.32 0.181-0.487l-12.177-10.574h20.351c0.153 0 0.278-0.125 0.278-0.278v-2.087c0-0.153-0.125-0.278-0.278-0.278z"></path>
</svg>
