<!-- Generated by IcoMoon.io -->
<svg version="1.1" xmlns="http://www.w3.org/2000/svg" width="32" height="32" viewBox="0 0 32 32">
<title>arrow-up1</title>
<path d="M28.584 17.192l-11.8-13.6c-0.107-0.123-0.239-0.222-0.387-0.289s-0.309-0.103-0.472-0.103c-0.163 0-0.324 0.035-0.472 0.103s-0.28 0.166-0.387 0.289l-11.797 13.6c-0.036 0.041-0.059 0.091-0.067 0.145s-0 0.109 0.022 0.158c0.022 0.049 0.059 0.091 0.104 0.121s0.099 0.045 0.153 0.045h2.88c0.164 0 0.32-0.071 0.43-0.196l7.783-8.97v20.021c0 0.156 0.128 0.284 0.284 0.284h2.133c0.156 0 0.284-0.128 0.284-0.284v-20.021l7.783 8.97c0.107 0.124 0.263 0.196 0.43 0.196h2.88c0.242 0 0.373-0.284 0.213-0.469z"></path>
</svg>
