<!-- Generated by IcoMoon.io -->
<svg version="1.1" xmlns="http://www.w3.org/2000/svg" width="32" height="32" viewBox="0 0 32 32">
<title>arrow-down1</title>
<path d="M28.372 14.339h-2.88c-0.164 0-0.32 0.071-0.43 0.196l-7.783 8.97v-20.021c0-0.156-0.128-0.284-0.284-0.284h-2.133c-0.156 0-0.284 0.128-0.284 0.284v20.021l-7.783-8.97c-0.107-0.124-0.263-0.196-0.43-0.196h-2.88c-0.242 0-0.373 0.288-0.213 0.469l11.8 13.6c0.107 0.123 0.239 0.222 0.387 0.289s0.309 0.103 0.472 0.103 0.324-0.035 0.472-0.103c0.148-0.068 0.28-0.166 0.387-0.289l11.797-13.6c0.16-0.185 0.028-0.469-0.213-0.469z"></path>
</svg>
