<!-- Generated by IcoMoon.io -->
<svg version="1.1" xmlns="http://www.w3.org/2000/svg" width="32" height="32" viewBox="0 0 32 32">
<title>auctionnnn</title>
<path d="M18.7 26.2h-0.7c-0.3-1.5-1.7-2.7-3.3-2.7h-5.5c-1.6 0-3 1.2-3.3 2.7h-0.7c-0.4 0-0.7 0.3-0.7 0.7s0.3 0.7 0.7 0.7h13.5c0.4 0 0.7-0.3 0.7-0.7-0.1-0.4-0.4-0.7-0.7-0.7zM22 10.6l-5.7-5.7c-0.5-0.5-1.4-0.5-1.9 0s-0.5 1.4 0 1.9l5.7 5.7c0.5 0.5 1.4 0.5 1.9 0 0.6-0.5 0.6-1.4 0-1.9zM12.5 20.1l-5.7-5.7c-0.5-0.5-1.4-0.5-1.9 0s-0.5 1.4 0 1.9l5.7 5.7c0.5 0.5 1.4 0.5 1.9 0s0.5-1.3 0-1.9zM7.8 13.5l5.7-5.7 5.7 5.7-5.7 5.7-5.7-5.7zM26.9 24l-1-1-2.9 2.9 1 1c0.8 0.8 2.1 0.8 2.9 0s0.8-2.1 0-2.9zM20.5 17.6c0.1-0.4 0-0.9-0.3-1.3-0.5-0.5-1.4-0.5-1.9 0l-1.9 1.9c-0.5 0.5-0.5 1.4 0 1.9 0.3 0.3 0.8 0.4 1.3 0.3l4.5 4.4 2.9-2.9-4.6-4.3z"></path>
</svg>
