<!-- Generated by IcoMoon.io -->
<svg version="1.1" xmlns="http://www.w3.org/2000/svg" width="32" height="32" viewBox="0 0 32 32">
<title>barcode</title>
<path d="M4.798 6.4h-1.37c-0.126 0-0.228 0.103-0.228 0.228v19.635c0 0.126 0.103 0.228 0.228 0.228h1.37c0.126 0 0.228-0.103 0.228-0.228v-19.635c0-0.126-0.103-0.228-0.228-0.228zM28.572 6.4h-1.37c-0.126 0-0.228 0.103-0.228 0.228v19.635c0 0.126 0.103 0.228 0.228 0.228h1.37c0.126 0 0.228-0.103 0.228-0.228v-19.635c0-0.126-0.103-0.228-0.228-0.228zM7.081 22.839h3.196c0.126 0 0.228-0.103 0.228-0.228v-15.982c0-0.126-0.103-0.228-0.228-0.228h-3.196c-0.126 0-0.228 0.103-0.228 0.228v15.982c0 0.126 0.103 0.228 0.228 0.228zM16.243 22.839h1.37c0.126 0 0.228-0.103 0.228-0.228v-15.982c0-0.126-0.103-0.228-0.228-0.228h-1.37c-0.126 0-0.228 0.103-0.228 0.228v15.982c0 0.126 0.103 0.228 0.228 0.228zM19.839 22.839h5.080c0.126 0 0.228-0.103 0.228-0.228v-15.982c0-0.126-0.103-0.228-0.228-0.228h-5.080c-0.126 0-0.228 0.103-0.228 0.228v15.982c0 0.126 0.103 0.228 0.228 0.228zM12.561 22.839h1.37c0.126 0 0.228-0.103 0.228-0.228v-15.982c0-0.126-0.103-0.228-0.228-0.228h-1.37c-0.126 0-0.228 0.103-0.228 0.228v15.982c0 0.126 0.103 0.228 0.228 0.228zM10.306 24.665h-3.196c-0.126 0-0.228 0.103-0.228 0.228v1.37c0 0.126 0.103 0.228 0.228 0.228h3.196c0.126 0 0.228-0.103 0.228-0.228v-1.37c0-0.126-0.103-0.228-0.228-0.228zM17.641 24.665h-1.37c-0.126 0-0.228 0.103-0.228 0.228v1.37c0 0.126 0.103 0.228 0.228 0.228h1.37c0.126 0 0.228-0.103 0.228-0.228v-1.37c0-0.126-0.103-0.228-0.228-0.228zM24.947 24.665h-5.080c-0.125 0-0.228 0.103-0.228 0.228v1.37c0 0.126 0.103 0.228 0.228 0.228h5.080c0.126 0 0.228-0.103 0.228-0.228v-1.37c0-0.126-0.103-0.228-0.228-0.228zM13.959 24.665h-1.37c-0.126 0-0.228 0.103-0.228 0.228v1.37c0 0.126 0.103 0.228 0.228 0.228h1.37c0.126 0 0.228-0.103 0.228-0.228v-1.37c0-0.126-0.103-0.228-0.228-0.228z"></path>
</svg>
