<!-- Generated by IcoMoon.io -->
<svg version="1.1" xmlns="http://www.w3.org/2000/svg" width="32" height="32" viewBox="0 0 32 32">
<title>cars-rental</title>
<path d="M8 8.4l-0.2-0.7c-0.2-0.5 0-1.6 0.9-1.9 0.5-0.1 4.8-1.2 4.8-1.2z"></path>
<path d="M10.6 9.1l1.6 2.6c0.4 0.7 0.4 1.3-0.3 1.7s-1.2 0-1.6-0.6l-1.6-2.6z"></path>
<path d="M11.4 13.9c-0.5 0-1-0.3-1.3-0.9l-1.6-2.6c-0.2-0.2-0.1-0.4 0-0.5 0.2-0.1 0.4 0 0.5 0.1l1.6 2.6c0 0 0 0 0 0 0.5 0.8 1 0.6 1.1 0.5 0.6-0.3 0.4-0.9 0.2-1.2l-1.6-2.6c-0.1-0.2-0.1-0.4 0.1-0.5s0.4-0.1 0.5 0.1l1.6 2.6c0 0 0 0 0 0 0.5 0.9 0.3 1.8-0.4 2.2-0.3 0.1-0.5 0.2-0.7 0.2v0z"></path>
<path d="M22.1 9.5c-0.8 1.7-2.9 2.1-3.6 1.9-0.3-0.1-0.6 0-0.9 0.2l-2.2 1.8c-0.5 0.4-1.3 0.4-1.7-0.2-0.4-0.5-0.4-1.3 0.2-1.7l2.3-1.9z"></path>
<path d="M21.3 5.6h5l-1.8 4.4h-4.4z"></path>
<path d="M22.9 7.2c0 2.2-1.7 3.5-4 3.3s-5.6-2.5-5.6-2.5l-5.3 3.6c-0.6 0.5-1.4 0.7-1.9 0.1s-0.4-1.2 0.2-1.6l6.7-5.3c0.3-0.2 0.7-0.3 1-0.3l7.7 1.1h3.8z"></path>
<path d="M12.9 14.7c-0.5 0-1-0.4-1-1v-0.6c0-0.2 0.2-0.3 0.3-0.3 0.2 0 0.3 0.2 0.3 0.3v0.6c0 0.2 0.1 0.3 0.3 0.3s0.3-0.1 0.3-0.3v-0.5c0-0.2 0.2-0.3 0.3-0.3 0.2 0 0.3 0.2 0.3 0.3v0.5c0.2 0.5-0.2 1-0.8 1z"></path>
<path d="M12.3 13.7c-0.2 0-0.3-0.2-0.3-0.3v-1.8c0-0.5 0.4-1 1-1s1 0.4 1 1v1.8c0 0.2-0.2 0.3-0.3 0.3s-0.3-0.2-0.3-0.3v-1.8c0-0.2-0.1-0.3-0.3-0.3s-0.3 0.1-0.3 0.3v1.8c-0.2 0.2-0.3 0.3-0.5 0.3z"></path>
<path d="M12.9 16.3c-0.2 0-0.3-0.2-0.3-0.3v-1.5c0-0.2 0.2-0.3 0.3-0.3 0.2 0 0.3 0.2 0.3 0.3v1.5c0.1 0.2-0.1 0.3-0.3 0.3z"></path>
<path d="M14.3 15.5h-2.7c-1.1 0-2 0.9-2 2v8.8c0 0.5 0.4 0.9 0.9 0.9h5c0.5 0 0.9-0.4 0.9-0.9v-8.8c-0.1-1.1-1-2-2.1-2v0zM11.3 16.8c0.2-0.2 0.4-0.2 0.6-0.2h2.1c0.5 0 0.8 0.4 0.8 0.8 0 0.2-0.1 0.4-0.2 0.6-0.2 0.2-0.4 0.2-0.6 0.2h-2.1c-0.5 0-0.8-0.4-0.8-0.8-0.1-0.2 0-0.4 0.2-0.6zM15.2 25.1c0 0.2-0.1 0.3-0.3 0.3h-3.9c-0.2 0-0.3-0.1-0.3-0.3v-1.7c0-0.2 0.1-0.3 0.3-0.3h3.9c0.2 0 0.3 0.1 0.3 0.3v1.7zM15.2 19.9v1.7c0 0.2-0.1 0.3-0.3 0.3h-3.9c-0.2 0-0.3-0.1-0.3-0.3v-1.7c0-0.2 0.1-0.3 0.3-0.3h3.9c0.2 0 0.3 0.1 0.3 0.3z"></path>
<path d="M15.4 27.5h-5c-0.6 0-1.1-0.5-1.1-1.1v-8.8c0-1.2 1-2.2 2.2-2.2h2.7c1.2 0 2.2 1 2.2 2.2v8.8c0.1 0.6-0.4 1.1-1 1.1v0zM11.6 15.7c-1 0-1.8 0.8-1.8 1.8v8.8c0 0.4 0.3 0.7 0.7 0.7h5c0.4 0 0.7-0.3 0.7-0.7v-8.8c0-1-0.8-1.8-1.8-1.8h-2.8zM14.9 25.6h-3.9c-0.3 0-0.5-0.2-0.5-0.5v-1.7c0-0.3 0.2-0.5 0.5-0.5h3.9c0.3 0 0.5 0.2 0.5 0.5v1.7c0 0.3-0.2 0.5-0.5 0.5v0zM11 23.4c-0.1 0-0.1 0 0 0l-0.1 1.8c0 0 0 0.1 0.1 0.1h3.9c0 0 0.1 0 0.1-0.1v-1.7c0 0 0-0.1-0.1-0.1h-3.9zM14.9 22h-3.9c-0.3 0-0.5-0.2-0.5-0.5v-1.7c0-0.3 0.2-0.5 0.5-0.5h3.9c0.3 0 0.5 0.2 0.5 0.5v1.7c0 0.3-0.2 0.5-0.5 0.5v0zM11 19.8c-0.1 0-0.1 0 0 0l-0.1 1.8c0 0 0 0.1 0.1 0.1h3.9c0 0 0.1 0 0.1-0.1v-1.7c0 0 0-0.1-0.1-0.1h-3.9zM14 18.5h-2.1c-0.6 0-1-0.5-1-1 0-0.3 0.1-0.5 0.3-0.7s0.5-0.3 0.7-0.3h2.1c0.6 0 1 0.5 1 1 0 0.3-0.1 0.5-0.3 0.7-0.2 0.1-0.4 0.3-0.7 0.3v0zM11.9 16.8c-0.2 0-0.3 0.1-0.4 0.2s-0.2 0.3-0.2 0.4c0 0.3 0.3 0.6 0.6 0.6h2.1c0.2 0 0.3-0.1 0.4-0.2s0.2-0.3 0.2-0.4c0-0.3-0.3-0.6-0.6-0.6h-2.1z"></path>
</svg>
