<!-- Generated by IcoMoon.io -->
<svg version="1.1" xmlns="http://www.w3.org/2000/svg" width="32" height="32" viewBox="0 0 32 32">
<title>cloud-download</title>
<path d="M19.2 22.014h-2.117v-6.923c0-0.126-0.103-0.229-0.229-0.229h-1.714c-0.126 0-0.229 0.103-0.229 0.229v6.923h-2.111c-0.191 0-0.297 0.22-0.18 0.369l3.2 4.048c0.021 0.027 0.049 0.049 0.080 0.065s0.065 0.023 0.1 0.023c0.035 0 0.069-0.008 0.1-0.023s0.059-0.037 0.080-0.065l3.2-4.048c0.117-0.149 0.011-0.369-0.18-0.369z"></path>
<path d="M24.554 12.306c-1.308-3.451-4.643-5.906-8.548-5.906s-7.24 2.451-8.549 5.903c-2.449 0.643-4.257 2.874-4.257 5.526 0 3.157 2.557 5.714 5.711 5.714h1.146c0.126 0 0.229-0.103 0.229-0.229v-1.714c0-0.126-0.103-0.229-0.229-0.229h-1.146c-0.963 0-1.869-0.383-2.543-1.077-0.671-0.691-1.029-1.623-0.997-2.588 0.026-0.754 0.283-1.463 0.749-2.060 0.477-0.609 1.146-1.051 1.889-1.249l1.083-0.283 0.397-1.046c0.246-0.651 0.589-1.26 1.020-1.811 0.426-0.547 0.93-1.027 1.497-1.426 1.174-0.826 2.557-1.263 4-1.263s2.826 0.437 4 1.263c0.568 0.4 1.071 0.88 1.497 1.426 0.431 0.551 0.774 1.163 1.020 1.811l0.394 1.043 1.080 0.286c1.549 0.417 2.632 1.826 2.632 3.431 0 0.946-0.369 1.837-1.037 2.506-0.328 0.33-0.718 0.591-1.148 0.769s-0.89 0.269-1.355 0.268h-1.146c-0.126 0-0.229 0.103-0.229 0.229v1.714c0 0.126 0.103 0.229 0.229 0.229h1.146c3.154 0 5.711-2.557 5.711-5.714 0-2.649-1.803-4.877-4.246-5.523z"></path>
</svg>
