<!-- Generated by IcoMoon.io -->
<svg version="1.1" xmlns="http://www.w3.org/2000/svg" width="32" height="32" viewBox="0 0 32 32">
<title>comprehensive1</title>
<path d="M28 12.96c-0.96 0-1.6-0.64-1.76-1.28-0.32-0.48-0.32-1.44 0.32-2.080s0.64-1.76 0-2.4l-1.76-1.76c-0.64-0.64-1.76-0.64-2.4 0s-1.6 0.64-2.24 0.48c-0.64-0.32-1.28-0.8-1.28-1.76s-0.8-1.76-1.76-1.76h-2.4c-0.96 0-1.76 0.8-1.76 1.76s-0.64 1.6-1.28 1.76c-0.48 0.16-1.44 0.16-2.080-0.48s-1.76-0.64-2.4 0l-1.76 1.76c-0.64 0.64-0.64 1.76 0 2.4s0.64 1.6 0.48 2.24c-0.32 0.48-0.96 1.12-1.92 1.12s-1.76 0.8-1.76 1.76v2.56c0 0.96 0.8 1.76 1.76 1.76s1.6 0.64 1.76 1.28c0.32 0.48 0.32 1.44-0.32 2.080s-0.64 1.76 0 2.4l1.76 1.76c0.64 0.64 1.76 0.64 2.4 0s1.6-0.64 2.24-0.48c0.64 0.32 1.28 0.8 1.28 1.76s0.8 1.76 1.76 1.76h2.56c0.96 0 1.76-0.8 1.76-1.76s0.64-1.6 1.28-1.76c0.64-0.32 1.44-0.32 2.24 0.48 0.64 0.64 1.76 0.64 2.4 0l1.76-1.76c0.64-0.64 0.64-1.76 0-2.4s-0.64-1.6-0.48-2.24c0.32-0.64 0.8-1.28 1.76-1.28s1.76-0.8 1.76-1.76v-2.4c-0.16-0.96-0.96-1.76-1.92-1.76zM28 17.28c-1.44 0-2.88 0.96-3.36 2.24-0.64 1.44-0.32 2.88 0.8 4l-1.76 1.76c-1.12-1.12-2.56-1.44-4-0.8s-2.24 1.92-2.24 3.36h-2.72c0-1.6-0.8-2.88-2.24-3.36-1.44-0.64-2.88-0.32-4 0.8l-1.76-1.76c1.12-1.12 1.44-2.56 0.8-4s-1.92-2.24-3.36-2.24v-2.56c1.44 0 2.88-0.8 3.36-2.24s0.16-3.040-0.96-4l1.76-1.76c1.12 0.96 2.72 1.28 4.16 0.64s2.24-1.92 2.24-3.36h2.56c0 1.44 0.96 2.88 2.24 3.36 1.44 0.64 2.88 0.32 4-0.8l1.76 1.76c-1.12 1.12-1.44 2.56-0.8 4s1.92 2.24 3.36 2.24l0.16 2.72zM16 8.8c-4 0-7.2 3.2-7.2 7.2s3.2 7.2 7.2 7.2c4 0 7.2-3.2 7.2-7.2s-3.2-7.2-7.2-7.2zM16 21.44c-3.040 0-5.44-2.4-5.44-5.44s2.4-5.44 5.44-5.44c3.040 0 5.44 2.4 5.44 5.44s-2.4 5.44-5.44 5.44zM19.52 13.6c0.32 0.32 0.32 0.96-0.16 1.28l-4.48 3.84c-0.16 0.16-0.32 0.16-0.48 0.16s-0.48-0.16-0.64-0.32l-1.44-1.28c-0.32-0.32-0.32-0.8 0-1.28 0.32-0.32 0.8-0.32 1.28 0l0.8 0.8 3.84-3.2c0.48-0.48 0.96-0.48 1.28 0z"></path>
</svg>
