<!-- Generated by IcoMoon.io -->
<svg version="1.1" xmlns="http://www.w3.org/2000/svg" width="32" height="32" viewBox="0 0 32 32">
<title>dashboard-fill</title>
<path d="M4.208 12.624c0.64-1.52 1.568-2.912 2.736-4.080s2.56-2.096 4.080-2.736c1.568-0.672 3.248-1.008 4.976-1.008s3.408 0.336 4.976 1.008c1.52 0.64 2.912 1.568 4.080 2.736s2.096 2.56 2.736 4.080c0.672 1.568 1.008 3.248 1.008 4.976 0 3.792-1.664 7.36-4.576 9.808l-0.048 0.032c-0.16 0.144-0.368 0.224-0.576 0.224h-15.2c-0.208 0-0.416-0.080-0.592-0.224l-0.048-0.032c-2.896-2.448-4.56-6.016-4.56-9.808 0-1.728 0.336-3.408 1.008-4.976zM17.008 6.56c0-0.16-0.128-0.272-0.288-0.272h-1.488c-0.144 0-0.288 0.112-0.288 0.272v2.72c0 0.16 0.128 0.272 0.288 0.272h1.488c0.144 0 0.288-0.112 0.288-0.272v-2.72zM17.456 17.36c-0.080-0.208-0.208-0.4-0.368-0.576-0.464-0.448-1.104-0.592-1.68-0.432l-2.608-2.608c0 0-0.096-0.064-0.176-0.064s-0.128 0.016-0.176 0.064l-0.88 0.864c-0.080 0.096-0.080 0.256 0 0.352l2.608 2.608c-0.064 0.288-0.064 0.608 0 0.896 0.080 0.288 0.24 0.56 0.448 0.784 0.16 0.16 0.352 0.288 0.576 0.384 0.208 0.080 0.432 0.128 0.656 0.128s0.448-0.032 0.656-0.128c0.208-0.080 0.4-0.224 0.576-0.384 0.16-0.16 0.272-0.352 0.368-0.576 0.080-0.208 0.144-0.432 0.144-0.656s-0.048-0.448-0.144-0.656zM24.192 18.448c0 0.144 0.128 0.288 0.272 0.288h2.72c0.144 0 0.288-0.128 0.288-0.288v-1.488c0-0.144-0.128-0.288-0.288-0.288h-2.72c-0.128 0-0.272 0.128-0.272 0.288v1.488zM24.48 10.656c0 0 0.080-0.128 0.080-0.192 0-0.080-0.016-0.16-0.080-0.192l-1.072-1.072c0 0-0.112-0.080-0.192-0.080-0.064 0-0.128 0.016-0.192 0.080l-1.92 1.92c-0.096 0.112-0.096 0.288 0 0.384l1.072 1.072c0.096 0.096 0.272 0.096 0.384 0l1.92-1.92zM9.232 25.552c0 0.16 0.128 0.288 0.288 0.288h12.96c0.16 0 0.288-0.128 0.288-0.288v-1.408c0-0.16-0.128-0.288-0.288-0.288h-12.944c-0.16 0-0.288 0.128-0.288 0.288v1.408h-0.016zM9.392 12.576c0.112 0.096 0.288 0.096 0.4 0l1.040-1.072c0 0 0.080-0.112 0.080-0.192s-0.016-0.128-0.080-0.192l-1.92-1.92c0 0-0.112-0.080-0.192-0.080s-0.128 0.016-0.192 0.080l-1.072 1.072c-0.096 0.096-0.096 0.272 0 0.384l1.92 1.92h0.016zM4.656 18.448c0 0.144 0.112 0.288 0.272 0.288h2.72c0.16 0 0.272-0.128 0.272-0.288v-1.488c0-0.144-0.112-0.288-0.272-0.288h-2.72c-0.16 0-0.272 0.128-0.272 0.288v1.488z"></path>
</svg>
