<!-- Generated by IcoMoon.io -->
<svg version="1.1" xmlns="http://www.w3.org/2000/svg" width="32" height="32" viewBox="0 0 32 32">
<title>download</title>
<path d="M15.784 20.347c0.026 0.033 0.058 0.059 0.096 0.077s0.078 0.028 0.12 0.028c0.042 0 0.083-0.009 0.12-0.028s0.070-0.045 0.096-0.077l3.833-4.85c0.14-0.178 0.014-0.441-0.216-0.441h-2.536v-11.582c0-0.151-0.123-0.274-0.274-0.274h-2.054c-0.151 0-0.274 0.123-0.274 0.274v11.578h-2.529c-0.229 0-0.356 0.264-0.216 0.441l3.833 4.853zM28.526 19.149h-2.053c-0.151 0-0.274 0.123-0.274 0.274v5.271h-20.398v-5.271c0-0.151-0.123-0.274-0.274-0.274h-2.054c-0.151 0-0.274 0.123-0.274 0.274v6.776c0 0.606 0.489 1.095 1.095 1.095h23.41c0.606 0 1.095-0.489 1.095-1.095v-6.776c0-0.151-0.123-0.274-0.274-0.274z"></path>
</svg>
