<!-- Generated by IcoMoon.io -->
<svg version="1.1" xmlns="http://www.w3.org/2000/svg" width="32" height="32" viewBox="0 0 32 32">
<title>font-size</title>
<path d="M28.554 12.677h-9.354c-0.135 0-0.246 0.111-0.246 0.246v3.446c0 0.135 0.111 0.246 0.246 0.246h1.477c0.135 0 0.246-0.111 0.246-0.246v-1.723h1.846v9.846h-1.415c-0.136 0-0.246 0.111-0.246 0.246v1.477c0 0.135 0.111 0.246 0.246 0.246h5.046c0.135 0 0.246-0.111 0.246-0.246v-1.477c0-0.135-0.111-0.246-0.246-0.246h-1.415v-9.846h1.846v1.723c0 0.135 0.111 0.246 0.246 0.246h1.477c0.135 0 0.246-0.111 0.246-0.246v-3.446c0-0.135-0.111-0.246-0.246-0.246zM20.431 8.985v-3.938c0-0.135-0.111-0.246-0.246-0.246h-16.738c-0.135 0-0.246 0.111-0.246 0.246v3.938c0 0.135 0.111 0.246 0.246 0.246h1.723c0.135 0 0.246-0.111 0.246-0.246v-1.969h5.169v17.231h-2.831c-0.135 0-0.246 0.111-0.246 0.246v1.723c0 0.135 0.111 0.246 0.246 0.246h8.123c0.135 0 0.246-0.111 0.246-0.246v-1.723c0-0.135-0.111-0.246-0.246-0.246h-2.831v-17.231h5.169v1.969c0 0.135 0.111 0.246 0.246 0.246h1.723c0.135 0 0.246-0.111 0.246-0.246z"></path>
</svg>
