<!-- Generated by IcoMoon.io -->
<svg version="1.1" xmlns="http://www.w3.org/2000/svg" width="32" height="32" viewBox="0 0 32 32">
<title>font-colors</title>
<path d="M28.544 25.728h-25.088c-0.141 0-0.256 0.115-0.256 0.256v2.56c0 0.141 0.115 0.256 0.256 0.256h25.088c0.141 0 0.256-0.115 0.256-0.256v-2.56c0-0.141-0.115-0.256-0.256-0.256zM7.734 23.168h2.72c0.134 0 0.256-0.086 0.298-0.218l1.718-5.312h7.014l1.702 5.312c0.042 0.128 0.16 0.218 0.298 0.218h2.851c0.035 0 0.070-0.006 0.102-0.016 0.039-0.013 0.075-0.034 0.105-0.061s0.056-0.060 0.074-0.097c0.018-0.037 0.028-0.077 0.030-0.118s-0.004-0.082-0.017-0.12l-6.659-19.344c-0.022-0.061-0.061-0.114-0.114-0.152s-0.116-0.058-0.18-0.059h-3.274c-0.134 0-0.253 0.083-0.294 0.211l-6.669 19.344c-0.013 0.032-0.016 0.067-0.016 0.102-0.003 0.17 0.138 0.31 0.31 0.31zM15.923 6.653h0.131l2.682 8.442h-5.523l2.71-8.442z"></path>
</svg>
