<!-- Generated by IcoMoon.io -->
<svg version="1.1" xmlns="http://www.w3.org/2000/svg" width="32" height="32" viewBox="0 0 32 32">
<title>insert-row-below</title>
<path d="M28.544 24.256h-25.088c-0.141 0-0.256 0.115-0.256 0.256v2.56c0 0.141 0.115 0.256 0.256 0.256h25.088c0.141 0 0.256-0.115 0.256-0.256v-2.56c0-0.141-0.115-0.256-0.256-0.256zM27.734 4.8h-23.469c-0.589 0-1.066 0.458-1.066 1.024v14.848c0 0.566 0.477 1.024 1.066 1.024h23.466c0.589 0 1.066-0.458 1.066-1.024v-14.848c0.003-0.566-0.474-1.024-1.062-1.024v0zM11.136 19.392h-5.632v-5.12h5.632v5.12zM11.136 12.224h-5.632v-5.12h5.632v5.12zM18.816 19.392h-5.632v-5.12h5.632v5.12zM18.816 12.224h-5.632v-5.12h5.632v5.12zM26.496 19.392h-5.632v-5.12h5.632v5.12zM26.496 12.224h-5.632v-5.12h5.632v5.12z"></path>
</svg>
