<!-- Generated by IcoMoon.io -->
<svg version="1.1" xmlns="http://www.w3.org/2000/svg" width="32" height="32" viewBox="0 0 32 32">
<title>joystick1</title>
<path d="M17.027 12.735c1.289-0.201 2.45-0.84 3.251-1.791s1.186-2.144 1.076-3.344c-0.109-1.199-0.704-2.317-1.667-3.132s-2.222-1.267-3.53-1.267c-1.308 0-2.567 0.452-3.53 1.267s-1.557 1.933-1.667 3.132c-0.109 1.199 0.275 2.393 1.076 3.344s1.962 1.59 3.251 1.791v4.866h-3.477c-0.692 0-1.355 0.253-1.844 0.703s-0.764 1.060-0.764 1.697v0.8h13.906v-0.8c0-0.637-0.275-1.247-0.764-1.697s-1.152-0.703-1.844-0.703h-3.476v-4.866zM3.2 25.602c0-0.849 0.366-1.663 1.018-2.263s1.536-0.937 2.458-0.937h18.647c0.922 0 1.806 0.337 2.458 0.937s1.018 1.414 1.018 2.263v2.4c0 0.212-0.092 0.416-0.255 0.566s-0.384 0.234-0.615 0.234h-23.862c-0.231 0-0.452-0.084-0.615-0.234s-0.255-0.354-0.255-0.566v-2.4z"></path>
</svg>
