<!-- Generated by IcoMoon.io -->
<svg version="1.1" xmlns="http://www.w3.org/2000/svg" width="32" height="32" viewBox="0 0 32 32">
<title>linkedin</title>
<path d="M26.742 3.2h-21.485c-1.136 0-2.058 0.922-2.058 2.058v21.485c0 1.136 0.922 2.058 2.058 2.058h21.485c1.136 0 2.058-0.922 2.058-2.058v-21.485c0-1.136-0.922-2.058-2.058-2.058v0zM26.742 26.752c-14.33-0.003-21.494-0.006-21.494-0.010 0.003-14.33 0.006-21.494 0.010-21.494 14.33 0.003 21.494 0.006 21.494 0.010-0.003 14.33-0.006 21.494-0.010 21.494zM6.995 12.797h3.798v12.218h-3.798v-12.218zM8.896 11.126c1.213 0 2.202-0.986 2.202-2.202 0-0.289-0.057-0.575-0.168-0.842s-0.273-0.51-0.477-0.714c-0.204-0.204-0.447-0.367-0.714-0.477s-0.553-0.168-0.842-0.168c-0.289 0-0.575 0.057-0.842 0.168s-0.51 0.273-0.714 0.477c-0.204 0.204-0.367 0.447-0.477 0.714s-0.168 0.553-0.168 0.842c-0.003 1.216 0.982 2.202 2.202 2.202zM16.97 18.97c0-1.594 0.304-3.136 2.278-3.136 1.946 0 1.974 1.821 1.974 3.238v5.942h3.795v-6.701c0-3.29-0.71-5.821-4.554-5.821-1.846 0-3.085 1.014-3.594 1.974h-0.051v-1.67h-3.645v12.218h3.795v-6.045z"></path>
</svg>
