<!-- Generated by IcoMoon.io -->
<svg version="1.1" xmlns="http://www.w3.org/2000/svg" width="32" height="32" viewBox="0 0 32 32">
<title>link1</title>
<path d="M18.069 21.116c-0.050-0.050-0.118-0.077-0.188-0.077s-0.138 0.028-0.188 0.077l-3.873 3.874c-1.793 1.793-4.82 1.983-6.8 0-1.983-1.984-1.793-5.007 0-6.8l3.874-3.874c0.103-0.103 0.103-0.273 0-0.377l-1.327-1.327c-0.050-0.050-0.118-0.077-0.188-0.077s-0.138 0.028-0.188 0.077l-3.874 3.873c-2.82 2.82-2.82 7.384 0 10.2s7.384 2.82 10.2 0l3.874-3.873c0.103-0.103 0.103-0.273 0-0.377l-1.32-1.32zM26.689 5.315c-2.82-2.82-7.384-2.82-10.2 0l-3.877 3.874c-0.050 0.050-0.077 0.118-0.077 0.188s0.028 0.138 0.077 0.188l1.323 1.323c0.103 0.103 0.273 0.103 0.377 0l3.874-3.874c1.793-1.793 4.82-1.983 6.8 0 1.983 1.983 1.793 5.007 0 6.8l-3.874 3.873c-0.050 0.050-0.077 0.118-0.077 0.188s0.028 0.138 0.077 0.188l1.327 1.327c0.103 0.103 0.273 0.103 0.377 0l3.873-3.874c2.817-2.82 2.817-7.384 0-10.204v0zM19.272 11.345c-0.050-0.050-0.118-0.077-0.188-0.077s-0.138 0.028-0.188 0.077l-7.55 7.547c-0.050 0.050-0.077 0.118-0.077 0.188s0.028 0.138 0.077 0.188l1.32 1.32c0.103 0.103 0.273 0.103 0.377 0l7.547-7.547c0.103-0.103 0.103-0.273 0-0.377l-1.317-1.32z"></path>
</svg>
