<!-- Generated by IcoMoon.io -->
<svg version="1.1" xmlns="http://www.w3.org/2000/svg" width="32" height="32" viewBox="0 0 32 32">
<title>mac-command</title>
<path d="M27.776 3.2h-23.552c-0.566 0-1.024 0.458-1.024 1.024v23.552c0 0.566 0.458 1.024 1.024 1.024h23.552c0.566 0 1.024-0.458 1.024-1.024v-23.552c0-0.566-0.458-1.024-1.024-1.024zM26.496 26.496h-20.992v-20.992h20.992v20.992z"></path>
<path d="M11.48 17.358c-1.747 0-3.162 1.414-3.162 3.162s1.414 3.162 3.162 3.162c1.747 0 3.162-1.414 3.162-3.162v-1.357h2.71v1.357c0 1.747 1.414 3.162 3.162 3.162s3.162-1.414 3.162-3.162c0-1.747-1.414-3.162-3.162-3.162h-1.357v-2.71h1.357c1.747 0 3.162-1.414 3.162-3.162s-1.414-3.162-3.162-3.162c-1.747 0-3.162 1.414-3.162 3.162v1.357h-2.71v-1.357c0-1.747-1.414-3.162-3.162-3.162s-3.162 1.411-3.162 3.158c0 1.747 1.414 3.162 3.162 3.162h1.357v2.71h-1.357v0.003zM12.837 20.519c0 0.749-0.608 1.357-1.357 1.357s-1.357-0.608-1.357-1.357c0-0.749 0.608-1.357 1.357-1.357h1.357v1.357zM19.16 11.482c0-0.749 0.608-1.357 1.357-1.357s1.357 0.608 1.357 1.357c0 0.749-0.608 1.357-1.357 1.357h-1.357v-1.357zM19.16 19.162h1.357c0.749 0 1.357 0.608 1.357 1.357s-0.608 1.357-1.357 1.357c-0.749 0-1.357-0.608-1.357-1.357v-1.357zM14.642 14.644h2.71v2.71h-2.71v-2.71zM11.48 12.839c-0.749 0-1.357-0.608-1.357-1.357s0.608-1.357 1.357-1.357c0.749 0 1.357 0.608 1.357 1.357v1.357h-1.357z"></path>
</svg>
