<!-- Generated by IcoMoon.io -->
<svg version="1.1" xmlns="http://www.w3.org/2000/svg" width="32" height="32" viewBox="0 0 32 32">
<title>search1</title>
<path d="M20.924 13.581c0-4.056-3.288-7.343-7.343-7.343s-7.343 3.288-7.343 7.343c0 4.056 3.288 7.343 7.343 7.343s7.343-3.288 7.343-7.343zM19.705 21.963c-1.717 1.256-3.834 1.998-6.124 1.998-5.733 0-10.381-4.648-10.381-10.381s4.648-10.381 10.381-10.381c5.733 0 10.381 4.648 10.381 10.381 0 2.29-0.742 4.407-1.998 6.124l6.837 6.837-2.259 2.259-6.837-6.837z"></path>
</svg>
