<!-- Generated by IcoMoon.io -->
<svg version="1.1" xmlns="http://www.w3.org/2000/svg" width="32" height="32" viewBox="0 0 32 32">
<title>send</title>
<path d="M28.542 15.612l-24.659-12.363c-0.1-0.050-0.215-0.062-0.324-0.035-0.121 0.030-0.225 0.107-0.29 0.213s-0.084 0.235-0.055 0.356l2.541 10.382c0.038 0.156 0.153 0.283 0.307 0.333l4.354 1.495-4.351 1.495c-0.153 0.053-0.268 0.177-0.304 0.333l-2.547 10.397c-0.027 0.109-0.015 0.224 0.035 0.321 0.115 0.233 0.398 0.327 0.634 0.212l24.659-12.292c0.091-0.044 0.165-0.121 0.212-0.209 0.115-0.236 0.021-0.519-0.212-0.637zM6.12 25.264l1.483-6.061 8.702-2.986c0.068-0.024 0.124-0.077 0.147-0.147 0.041-0.124-0.024-0.257-0.147-0.301l-8.702-2.983-1.477-6.037 18.512 9.283-18.518 9.233z"></path>
</svg>
