<!-- Generated by IcoMoon.io -->
<svg version="1.1" xmlns="http://www.w3.org/2000/svg" width="32" height="32" viewBox="0 0 32 32">
<title>setting1</title>
<path d="M27.116 19.254l-1.872-1.6c0.089-0.543 0.134-1.097 0.134-1.652s-0.046-1.109-0.134-1.651l1.872-1.6c0.141-0.121 0.242-0.282 0.29-0.461s0.039-0.37-0.024-0.544l-0.026-0.074c-0.515-1.44-1.287-2.775-2.277-3.94l-0.052-0.060c-0.12-0.141-0.28-0.243-0.459-0.291s-0.368-0.042-0.544 0.020l-2.323 0.826c-0.857-0.703-1.814-1.257-2.849-1.646l-0.448-2.429c-0.034-0.183-0.123-0.351-0.254-0.482s-0.3-0.219-0.483-0.252l-0.077-0.014c-1.489-0.269-3.055-0.269-4.543 0l-0.077 0.014c-0.183 0.033-0.351 0.121-0.483 0.252s-0.22 0.299-0.254 0.482l-0.451 2.44c-1.026 0.389-1.982 0.943-2.829 1.64l-2.34-0.832c-0.175-0.062-0.365-0.069-0.544-0.021s-0.339 0.15-0.459 0.292l-0.051 0.060c-0.989 1.166-1.761 2.501-2.277 3.94l-0.026 0.074c-0.129 0.357-0.023 0.757 0.266 1.006l1.894 1.617c-0.089 0.537-0.131 1.086-0.131 1.632 0 0.549 0.043 1.097 0.131 1.632l-1.894 1.617c-0.141 0.121-0.242 0.282-0.29 0.461s-0.039 0.369 0.024 0.544l0.026 0.074c0.517 1.44 1.283 2.769 2.277 3.94l0.051 0.060c0.12 0.141 0.28 0.243 0.459 0.291s0.369 0.041 0.544-0.020l2.34-0.831c0.851 0.7 1.803 1.254 2.829 1.64l0.451 2.44c0.034 0.183 0.123 0.351 0.254 0.482s0.3 0.219 0.483 0.252l0.077 0.014c1.502 0.27 3.041 0.27 4.543 0l0.077-0.014c0.183-0.033 0.351-0.121 0.483-0.252s0.22-0.299 0.254-0.482l0.448-2.429c1.034-0.388 1.997-0.944 2.849-1.646l2.323 0.826c0.175 0.062 0.365 0.069 0.544 0.021s0.339-0.15 0.459-0.292l0.052-0.060c0.994-1.174 1.76-2.5 2.277-3.94l0.026-0.074c0.128-0.352 0.023-0.752-0.266-1v0zM23.216 14.688c0.071 0.431 0.109 0.874 0.109 1.317s-0.037 0.886-0.109 1.317l-0.189 1.146 2.135 1.826c-0.324 0.745-0.732 1.451-1.217 2.103l-2.652-0.94-0.897 0.737c-0.683 0.56-1.443 1-2.266 1.309l-1.089 0.408-0.512 2.772c-0.807 0.092-1.622 0.092-2.429 0l-0.511-2.777-1.080-0.414c-0.814-0.308-1.572-0.749-2.249-1.306l-0.897-0.74-2.669 0.949c-0.486-0.654-0.891-1.36-1.217-2.103l2.157-1.843-0.186-1.143c-0.069-0.426-0.106-0.866-0.106-1.3 0-0.437 0.034-0.874 0.106-1.3l0.186-1.143-2.157-1.843c0.323-0.746 0.731-1.449 1.217-2.103l2.669 0.949 0.897-0.74c0.677-0.557 1.434-0.997 2.249-1.306l1.083-0.409 0.511-2.777c0.803-0.091 1.623-0.091 2.429 0l0.512 2.772 1.089 0.409c0.82 0.309 1.583 0.749 2.266 1.309l0.897 0.737 2.652-0.94c0.486 0.654 0.892 1.36 1.217 2.103l-2.134 1.826 0.186 1.14zM15.321 10.691c-2.777 0-5.029 2.252-5.029 5.029s2.252 5.029 5.029 5.029c2.777 0 5.029-2.252 5.029-5.029s-2.252-5.029-5.029-5.029zM17.584 17.982c-0.297 0.298-0.65 0.534-1.038 0.695s-0.805 0.243-1.225 0.243c-0.854 0-1.657-0.334-2.263-0.937-0.298-0.297-0.534-0.649-0.695-1.038s-0.243-0.805-0.243-1.225c0-0.854 0.334-1.657 0.937-2.263 0.606-0.606 1.409-0.937 2.263-0.937s1.657 0.331 2.263 0.937c0.298 0.297 0.534 0.65 0.695 1.038s0.243 0.805 0.243 1.225c0 0.854-0.334 1.657-0.937 2.263z"></path>
</svg>
