<!-- Generated by IcoMoon.io -->
<svg version="1.1" xmlns="http://www.w3.org/2000/svg" width="32" height="32" viewBox="0 0 32 32">
<title>sort-by</title>
<path d="M19.814 6.176c1.639 0.923 3.169 1.785 4.699 2.646 0.141 0.079 0.278 0.162 0.426 0.235 0.656 0.322 1.433 0.274 1.921-0.115 0.49-0.392 0.457-0.923-0.154-1.284-1.105-0.651-2.242-1.278-3.368-1.913-1.282-0.723-2.568-1.444-3.851-2.167-0.235-0.133-0.475-0.256-0.774-0.325-0.72-0.166-1.386 0.053-1.575 0.545-0.076 0.195-0.095 0.405-0.095 0.609-0.005 7.736-0.003 15.474-0.005 23.21 0 0.192-0.005 0.386 0.099 0.567 0.22 0.382 0.638 0.597 1.254 0.615 0.595 0.016 1.128-0.231 1.323-0.604 0.112-0.211 0.1-0.43 0.1-0.649 0-6.944 0-13.888 0-20.832 0-0.148 0-0.296 0-0.536v-0.001z"></path>
<path d="M10.584 25.825c-1.486-0.836-2.857-1.607-4.228-2.378-0.266-0.15-0.529-0.303-0.801-0.447-0.69-0.368-1.517-0.34-2.023 0.066-0.516 0.413-0.429 0.957 0.25 1.342 1.841 1.044 3.692 2.080 5.539 3.12 0.579 0.326 1.157 0.653 1.737 0.978 0.455 0.256 0.966 0.367 1.534 0.2 0.556-0.163 0.718-0.5 0.761-0.872 0.013-0.109 0.005-0.218 0.005-0.328 0-7.683 0-15.366 0-23.049 0-0.15 0.005-0.303-0.031-0.45-0.117-0.484-0.644-0.792-1.338-0.797-0.717-0.005-1.271 0.315-1.379 0.814-0.034 0.161-0.025 0.327-0.025 0.491 0 6.931 0 13.862 0 20.793v0.515l-0.002 0.001z"></path>
</svg>
