<!-- Generated by IcoMoon.io -->
<svg version="1.1" xmlns="http://www.w3.org/2000/svg" width="32" height="32" viewBox="0 0 32 32">
<title>sort-descending</title>
<path d="M27.606 13.28l-3.151-9.854c-0.020-0.066-0.062-0.124-0.117-0.164s-0.123-0.062-0.192-0.062h-2.692c-0.143 0-0.264 0.090-0.31 0.226l-3.176 9.854c-0.011 0.031-0.017 0.066-0.017 0.101 0 0.177 0.146 0.323 0.324 0.323h1.962c0.146 0 0.271-0.097 0.313-0.236l0.609-2.143h3.096l0.602 2.139c0.038 0.139 0.167 0.237 0.313 0.237h2.129c0.035 0 0.066-0.004 0.097-0.014 0.083-0.028 0.149-0.083 0.191-0.16 0.038-0.076 0.045-0.163 0.021-0.247v0zM21.473 9.513l1.141-4.066h0.219l1.116 4.066h-2.476zM26.465 26.657h-4.508v-0.014l4.612-6.57c0.038-0.056 0.059-0.118 0.059-0.188v-1.266c0-0.177-0.146-0.324-0.324-0.324h-7.096c-0.177 0-0.323 0.146-0.323 0.324v1.496c0 0.177 0.146 0.324 0.323 0.324h4.264v0.014l-4.63 6.57c-0.039 0.055-0.059 0.121-0.059 0.188v1.266c0 0.177 0.146 0.324 0.324 0.324h7.353c0.177 0 0.323-0.146 0.323-0.324v-1.496c0-0.042-0.007-0.084-0.023-0.124s-0.039-0.075-0.069-0.105-0.065-0.054-0.104-0.070c-0.039-0.016-0.081-0.025-0.123-0.025v0zM9.195 4.003c-0.026-0.033-0.059-0.060-0.097-0.079s-0.080-0.028-0.122-0.028c-0.042 0-0.084 0.010-0.122 0.028s-0.071 0.045-0.097 0.079l-3.896 4.936c-0.146 0.184-0.014 0.452 0.219 0.452h2.643v18.435c0 0.153 0.125 0.278 0.278 0.278h1.948c0.153 0 0.278-0.125 0.278-0.278v-18.435h2.643c0.233 0 0.365-0.271 0.219-0.452l-3.896-4.936z"></path>
</svg>
