<!-- Generated by IcoMoon.io -->
<svg version="1.1" xmlns="http://www.w3.org/2000/svg" width="32" height="32" viewBox="0 0 32 32">
<title>store1</title>
<path d="M27.5 12.2h-23v1c0 0.5 0.2 1 0.6 1.4 0.3 0.2 0.8 0.4 1.3 0.4h2.9c0.5 0 1-0.2 1.4-0.6s0.6-0.8 0.6-1.4c0 0.5 0.2 1 0.6 1.4s0.8 0.6 1.4 0.6h5.8c0.5 0 1-0.2 1.4-0.6s0.6-0.8 0.6-1.4c0 0.5 0.2 1 0.6 1.4s0.8 0.6 1.4 0.6h2.9c0.5 0 1-0.2 1.4-0.6s0.6-0.8 0.6-1.4l-0.5-0.8zM27.3 11.2l-1.7-6c-0.1-0.2-0.2-0.4-0.3-0.5-0.2-0.1-0.4-0.2-0.6-0.2h-4.4l1.3 6.7h5.7zM11.8 4.5h-4.4c-0.2 0-0.4 0.1-0.6 0.2s-0.3 0.3-0.3 0.5l-1.7 6h5.7l1.3-6.7zM18.3 4.5h-4.6l-1.3 6.7h7.2l-1.3-6.7zM22.7 16c-0.7 0-1.4-0.3-1.9-0.7-0.5 0.5-1.2 0.7-1.9 0.7h-5.8c-0.7 0-1.4-0.3-1.9-0.7-0.5 0.4-1.2 0.7-1.9 0.7h-2.9c-0.3 0-0.7-0.1-1-0.2v10.7c0 0.3 0.1 0.5 0.3 0.7s0.4 0.3 0.7 0.3h1.9v-8.6c0-0.3 0.1-0.5 0.3-0.7s0.4-0.3 0.7-0.3h4.8c0.3 0 0.5 0.1 0.7 0.3s0.3 0.4 0.3 0.7v8.6h10.5c0.3 0 0.5-0.1 0.7-0.3s0.3-0.4 0.3-0.7v-10.7c-0.3 0.1-0.6 0.2-1 0.2h-2.9zM23.7 21.8c0 0.3-0.1 0.5-0.3 0.7s-0.4 0.3-0.7 0.3h-4.8c-0.3 0-0.5-0.1-0.7-0.3-0.1-0.3-0.2-0.5-0.2-0.7v-2.9c0-0.3 0.1-0.5 0.3-0.7s0.4-0.3 0.7-0.3h4.8c0.3 0 0.5 0.1 0.7 0.3s0.3 0.4 0.3 0.7v2.9z"></path>
</svg>
