<!-- Generated by IcoMoon.io -->
<svg version="1.1" xmlns="http://www.w3.org/2000/svg" width="32" height="32" viewBox="0 0 32 32">
<title>tiktok1</title>
<path d="M15.014 3.938c0-0.408 0.331-0.738 0.738-0.738h4.922c0.408 0 0.738 0.331 0.738 0.738 0 1.632 0.648 3.197 1.802 4.351s2.719 1.802 4.351 1.802c0.408 0 0.738 0.331 0.738 0.738v4.922c0 0.407-0.33 0.738-0.738 0.738-2.163 0.001-4.281-0.556-6.153-1.609v4.808c0 0 0 0 0 0 0.001 1.732-0.493 3.429-1.422 4.891s-2.257 2.628-3.827 3.362c-1.569 0.734-3.316 1.005-5.034 0.781s-3.337-0.933-4.666-2.044-2.313-2.579-2.838-4.23c-0.524-1.651-0.567-3.418-0.122-5.092s1.358-3.187 2.632-4.361 2.857-1.96 4.562-2.265c0.215-0.039 0.436 0.020 0.604 0.16s0.265 0.348 0.265 0.566v5.119c0 0.285-0.164 0.545-0.422 0.667-0.438 0.208-0.812 0.529-1.083 0.93s-0.43 0.868-0.459 1.352c-0.029 0.484 0.072 0.966 0.292 1.397s0.553 0.795 0.963 1.054c0.409 0.259 0.881 0.403 1.365 0.418s0.964-0.101 1.388-0.335c0.424-0.234 0.778-0.577 1.025-0.994s0.377-0.893 0.377-1.377c0 0 0 0 0 0v-15.751zM16.49 4.677v15.013c-0 0.749-0.201 1.484-0.582 2.128s-0.928 1.175-1.584 1.536c-0.656 0.361-1.397 0.54-2.145 0.517s-1.477-0.246-2.11-0.646c-0.633-0.4-1.147-0.963-1.488-1.629s-0.497-1.412-0.452-2.16 0.29-1.469 0.71-2.089c0.329-0.487 0.756-0.898 1.252-1.207v-3.747c-1.096 0.332-2.106 0.908-2.954 1.689-1.068 0.983-1.833 2.251-2.205 3.654s-0.337 2.883 0.102 4.267 1.264 2.613 2.378 3.544c1.114 0.931 2.47 1.525 3.909 1.713s2.902-0.040 4.217-0.654c1.315-0.615 2.427-1.592 3.206-2.817s1.192-2.646 1.192-4.098v-6.153c0-0.277 0.155-0.531 0.401-0.657s0.543-0.104 0.768 0.057c1.682 1.208 3.666 1.916 5.722 2.052v-3.457c-1.752-0.17-3.401-0.943-4.657-2.199s-2.028-2.904-2.199-4.657h-3.481z"></path>
<path fill="none" stroke-linejoin="round" stroke-linecap="round" stroke-miterlimit="4" stroke-width="0.64" stroke="#000" d="M15.014 19.69c-0 0.484-0.13 0.96-0.377 1.377s-0.6 0.76-1.025 0.994-0.904 0.349-1.388 0.335c-0.484-0.015-0.956-0.159-1.365-0.418s-0.742-0.623-0.963-1.054c-0.221-0.431-0.322-0.914-0.292-1.397s0.188-0.951 0.459-1.352 0.645-0.723 1.083-0.93c0.258-0.122 0.422-0.382 0.422-0.667v-5.119c0-0.219-0.097-0.426-0.265-0.566s-0.389-0.199-0.604-0.16c-1.705 0.306-3.288 1.092-4.562 2.265s-2.187 2.687-2.632 4.361c-0.445 1.675-0.402 3.441 0.122 5.092s1.509 3.119 2.838 4.23 2.948 1.821 4.666 2.044c1.718 0.224 3.464-0.047 5.034-0.781s2.897-1.9 3.827-3.362c0.93-1.462 1.423-3.158 1.422-4.891 0-0 0-0 0-0v-4.808c1.872 1.052 3.99 1.61 6.153 1.609 0.408-0 0.738-0.331 0.738-0.738v-4.922c0-0.408-0.331-0.738-0.738-0.738-1.632 0-3.197-0.648-4.351-1.802s-1.802-2.719-1.802-4.351c0-0.408-0.331-0.738-0.738-0.738h-4.922c-0.408 0-0.738 0.331-0.738 0.738v15.751zM15.014 19.69c0 0 0 0 0 0zM16.49 19.69c-0 0.749-0.201 1.484-0.582 2.128s-0.928 1.175-1.584 1.536c-0.656 0.361-1.397 0.54-2.145 0.517s-1.477-0.246-2.11-0.646c-0.633-0.4-1.147-0.963-1.488-1.629s-0.497-1.412-0.452-2.16 0.29-1.469 0.71-2.089c0.329-0.487 0.756-0.898 1.252-1.207v-3.747c-1.096 0.332-2.106 0.908-2.954 1.689-1.068 0.983-1.833 2.251-2.205 3.654s-0.337 2.883 0.102 4.267 1.264 2.613 2.378 3.544c1.114 0.931 2.47 1.525 3.909 1.713s2.902-0.040 4.217-0.654c1.315-0.615 2.427-1.592 3.206-2.817s1.192-2.646 1.192-4.098v-6.153c0-0.277 0.155-0.531 0.401-0.657s0.543-0.104 0.768 0.057c1.682 1.208 3.666 1.916 5.722 2.052v-3.457c-1.752-0.17-3.401-0.943-4.657-2.199s-2.028-2.904-2.199-4.657h-3.481v15.013z"></path>
</svg>
