<!-- Generated by IcoMoon.io -->
<svg version="1.1" xmlns="http://www.w3.org/2000/svg" width="32" height="32" viewBox="0 0 32 32">
<title>top-deal</title>
<path d="M26.4 16.3c0-0.1-0.1-0.2-0.1-0.3s0-0.2 0.1-0.3l0.9-1.8c0.5-1 0.1-2.1-0.9-2.7l-1.8-0.9c-0.1 0-0.2-0.1-0.2-0.2-0.1-0.1-0.1-0.2-0.1-0.3l-0.4-1.8c-0.2-1.1-1.2-1.8-2.4-1.6l-2 0.3c-0.1 0-0.2 0-0.3 0s-0.2-0.1-0.3-0.2l-1.5-1.4c-0.8-0.8-2.1-0.8-2.9 0l-1.5 1.4c-0.1 0.1-0.2 0.1-0.3 0.2-0.1 0-0.2 0-0.3 0l-2-0.3c-1-0.2-2.1 0.5-2.3 1.6l-0.3 1.9c0 0.1-0.1 0.2-0.1 0.3-0.1 0.1-0.1 0.2-0.2 0.2l-1.8 0.9c-1 0.5-1.4 1.7-0.9 2.7l0.9 1.8c0 0.1 0.1 0.2 0.1 0.3s0 0.2-0.1 0.3l-0.9 1.8c-0.5 1-0.1 2.1 0.9 2.7l1.8 0.9c0.1 0 0.2 0.1 0.2 0.2 0.1 0.1 0.1 0.2 0.1 0.3l0.3 1.7c0.2 1 1 1.7 2.1 1.7 0.1 0 0.2 0 0.3 0l2-0.3c0.1 0 0.2 0 0.3 0s0.2 0.1 0.3 0.2l1.5 1.4c0.4 0.4 0.9 0.6 1.5 0.6 0.5 0 1-0.2 1.5-0.6l1.5-1.4c0.2-0.1 0.4-0.2 0.6-0.2l2 0.3c1.1 0.2 2.2-0.6 2.4-1.6l0.4-1.9c0-0.1 0.1-0.2 0.1-0.3 0.1-0.1 0.1-0.2 0.2-0.2l1.8-0.9c1-0.5 1.4-1.7 0.9-2.7l-1.1-1.8zM13.2 10c1.4 0 2.5 1.1 2.5 2.4s-1.1 2.4-2.5 2.4c-1.4 0-2.5-1.1-2.5-2.4s1.1-2.4 2.5-2.4zM11.9 20.8c-0.1 0.2-0.3 0.2-0.5 0.2s-0.4-0.1-0.5-0.2c-0.3-0.3-0.3-0.7 0-0.9l9.1-8.8c0.3-0.3 0.7-0.3 1 0s0.3 0.7 0 0.9l-9.1 8.8zM18.8 22c-1.4 0-2.5-1.1-2.5-2.4s1.1-2.4 2.5-2.4c1.4 0 2.5 1.1 2.5 2.4s-1.1 2.4-2.5 2.4z"></path>
<path d="M18.8 18.4c-0.6 0-1.2 0.5-1.2 1.1s0.5 1.1 1.2 1.1c0.6 0 1.2-0.5 1.2-1.1-0.1-0.6-0.6-1.1-1.2-1.1zM13.2 11.4c-0.6 0-1.2 0.5-1.2 1.1s0.5 1.1 1.2 1.1c0.6 0 1.2-0.5 1.2-1.1s-0.5-1.1-1.2-1.1z"></path>
</svg>
