<!-- Generated by IcoMoon.io -->
<svg version="1.1" xmlns="http://www.w3.org/2000/svg" width="32" height="32" viewBox="0 0 32 32">
<title>wechat</title>
<path d="M21.091 12.875c0.169 0 0.337 0.006 0.503 0.014-0.697-3.678-4.523-6.489-9.141-6.489-5.109 0-9.252 3.446-9.252 7.698 0 2.317 1.246 4.406 3.197 5.818 0.080 0.057 0.146 0.132 0.191 0.22s0.069 0.185 0.069 0.283c0 0.069-0.014 0.131-0.031 0.197-0.157 0.58-0.406 1.509-0.417 1.552-0.020 0.074-0.049 0.148-0.049 0.226 0 0.168 0.137 0.308 0.309 0.308 0.066 0 0.12-0.026 0.177-0.057l2.026-1.169c0.151-0.089 0.314-0.143 0.492-0.143 0.091 0 0.183 0.014 0.271 0.040 0.946 0.271 1.966 0.423 3.020 0.423 0.171 0 0.34-0.003 0.509-0.011-0.203-0.6-0.311-1.232-0.311-1.886 0-3.88 3.778-7.024 8.438-7.024v0zM15.539 10.403c0.68 0 1.234 0.552 1.234 1.232s-0.552 1.232-1.234 1.232c-0.68 0-1.234-0.552-1.234-1.232s0.554-1.232 1.234-1.232zM9.369 12.866c-0.68 0-1.234-0.552-1.234-1.232s0.552-1.232 1.234-1.232c0.683 0 1.234 0.552 1.234 1.232s-0.554 1.232-1.234 1.232zM26.137 24.742c1.626-1.177 2.663-2.915 2.663-4.849 0-3.543-3.452-6.415-7.712-6.415-4.258 0-7.712 2.872-7.712 6.415s3.452 6.415 7.712 6.415c0.88 0 1.732-0.126 2.517-0.352 0.074-0.023 0.149-0.034 0.226-0.034 0.149 0 0.283 0.046 0.409 0.117l1.689 0.972c0.048 0.029 0.094 0.049 0.148 0.049 0.034 0 0.068-0.006 0.099-0.019s0.060-0.032 0.084-0.055c0.024-0.024 0.043-0.053 0.055-0.084s0.019-0.065 0.019-0.099c0-0.063-0.026-0.126-0.040-0.188-0.009-0.034-0.217-0.809-0.349-1.295-0.014-0.054-0.026-0.108-0.026-0.163 0.003-0.168 0.089-0.32 0.217-0.414v0zM18.522 18.87c-0.569 0-1.029-0.46-1.029-1.026s0.46-1.026 1.029-1.026c0.569 0 1.029 0.46 1.029 1.026s-0.463 1.026-1.029 1.026zM23.662 18.87c-0.569 0-1.029-0.46-1.029-1.026s0.46-1.026 1.029-1.026c0.569 0 1.029 0.46 1.029 1.026-0.001 0.272-0.11 0.533-0.303 0.725s-0.454 0.3-0.726 0.301v0z"></path>
</svg>
