<!-- Generated by IcoMoon.io -->
<svg version="1.1" xmlns="http://www.w3.org/2000/svg" width="32" height="32" viewBox="0 0 32 32">
<title>success</title>
<path d="M16 30.667c8 0 14.667-6.667 14.667-14.667s-6.667-14.667-14.667-14.667c-8 0-14.667 6.667-14.667 14.667s6.667 14.667 14.667 14.667zM14.4 22.933c-0.533 0-1.067-0.267-1.467-0.8l-3.333-4c-0.267-0.4-0.4-0.667-0.4-1.067 0-0.8 0.667-1.467 1.467-1.467 0.4 0 0.8 0.133 1.2 0.667l2.533 3.2 5.6-8.933c0.4-0.533 0.8-0.8 1.2-0.8 0.8 0 1.467 0.533 1.467 1.333 0 0.4-0.133 0.667-0.4 1.067l-6.533 10.133c-0.267 0.4-0.667 0.667-1.333 0.667z"></path>
</svg>
