<!-- Generated by IcoMoon.io -->
<svg version="1.1" xmlns="http://www.w3.org/2000/svg" width="32" height="32" viewBox="0 0 32 32">
<path d="M15.336 15.308c-1.287 0-2.387-0.456-3.299-1.368s-1.368-2.011-1.368-3.299c0-1.287 0.456-2.387 1.368-3.299s2.012-1.368 3.299-1.368c1.287 0 2.387 0.456 3.299 1.368s1.368 2.012 1.368 3.299c0 1.287-0.456 2.387-1.368 3.299s-2.012 1.368-3.299 1.368zM5.336 23.436v-0.939c0-0.653 0.177-1.258 0.532-1.814s0.829-0.984 1.422-1.283c1.318-0.646 2.647-1.131 3.988-1.454s2.694-0.485 4.058-0.485c1.364 0 2.717 0.162 4.058 0.485s2.671 0.808 3.988 1.454c0.593 0.299 1.067 0.727 1.422 1.283s0.532 1.161 0.532 1.814v0.939c0 0.562-0.197 1.040-0.591 1.435s-0.872 0.591-1.435 0.591h-15.949c-0.562 0-1.041-0.197-1.435-0.591s-0.591-0.873-0.591-1.435z"></path>
</svg>
