<!-- Generated by IcoMoon.io -->
<svg version="1.1" xmlns="http://www.w3.org/2000/svg" width="32" height="32" viewBox="0 0 32 32">
<path d="M16.57 15.308c-1.283 0-2.382-0.457-3.296-1.371s-1.371-2.013-1.371-3.296 0.457-2.382 1.371-3.296c0.914-0.914 2.012-1.371 3.296-1.371s2.382 0.457 3.296 1.371c0.914 0.914 1.371 2.012 1.371 3.296s-0.457 2.382-1.371 3.296c-0.914 0.914-2.012 1.371-3.296 1.371zM6.57 23.436v-0.939c0-0.653 0.177-1.258 0.532-1.814s0.829-0.984 1.422-1.283c1.318-0.646 2.647-1.131 3.988-1.454s2.694-0.485 4.058-0.485 2.717 0.162 4.058 0.485c1.341 0.323 2.671 0.808 3.988 1.454 0.593 0.299 1.067 0.727 1.422 1.283s0.532 1.161 0.532 1.814v0.939c0 0.562-0.197 1.040-0.591 1.435s-0.872 0.591-1.435 0.591h-15.949c-0.562 0-1.041-0.197-1.435-0.591s-0.591-0.873-0.591-1.435zM8.57 23.462h16v-0.964c0-0.27-0.078-0.52-0.235-0.75s-0.369-0.417-0.637-0.563c-1.149-0.566-2.32-0.995-3.514-1.286s-2.399-0.437-3.614-0.437c-1.215 0-2.42 0.146-3.614 0.437s-2.365 0.72-3.514 1.286c-0.268 0.145-0.481 0.333-0.637 0.563s-0.235 0.48-0.235 0.75v0.964zM16.57 13.308c0.733 0 1.361-0.261 1.883-0.783s0.783-1.15 0.783-1.883-0.261-1.361-0.783-1.883c-0.522-0.522-1.15-0.783-1.883-0.783s-1.361 0.261-1.883 0.783c-0.522 0.522-0.783 1.15-0.783 1.883s0.261 1.361 0.783 1.883c0.522 0.522 1.15 0.783 1.883 0.783z"></path>
</svg>
