<!-- Generated by IcoMoon.io -->
<svg version="1.1" xmlns="http://www.w3.org/2000/svg" width="32" height="32" viewBox="0 0 32 32">
<path d="M7.077 27.333c-0.674 0-1.244-0.233-1.71-0.7s-0.7-1.037-0.7-1.71v-17.846c0-0.674 0.233-1.244 0.7-1.71s1.037-0.7 1.71-0.7h9c0.283 0 0.521 0.096 0.712 0.288s0.288 0.429 0.288 0.713c0 0.284-0.096 0.521-0.288 0.712s-0.429 0.287-0.712 0.287h-9c-0.12 0-0.218 0.038-0.295 0.115s-0.115 0.175-0.115 0.295v17.846c0 0.12 0.038 0.218 0.115 0.295s0.175 0.115 0.295 0.115h17.846c0.12 0 0.218-0.038 0.295-0.115s0.115-0.175 0.115-0.295v-9c0-0.283 0.096-0.521 0.288-0.712s0.429-0.288 0.713-0.288c0.284 0 0.521 0.096 0.712 0.288s0.287 0.429 0.287 0.712v9c0 0.673-0.233 1.244-0.7 1.71s-1.037 0.7-1.71 0.7h-17.846zM8.513 22.256h14.974l-4.654-6.205-4 5.192-2.833-3.603-3.487 4.615zM22.667 9.333h-1.667c-0.283 0-0.521-0.096-0.713-0.288s-0.287-0.429-0.287-0.713c0-0.284 0.096-0.521 0.287-0.712s0.429-0.287 0.713-0.287h1.667v-1.667c0-0.283 0.096-0.521 0.288-0.712s0.429-0.288 0.713-0.288c0.283 0 0.521 0.096 0.712 0.288s0.287 0.429 0.287 0.712v1.667h1.667c0.283 0 0.521 0.096 0.712 0.288s0.288 0.429 0.288 0.713c0 0.284-0.096 0.521-0.288 0.712s-0.429 0.287-0.712 0.287h-1.667v1.667c0 0.283-0.096 0.521-0.288 0.713s-0.429 0.287-0.713 0.287c-0.284 0-0.521-0.096-0.712-0.287s-0.287-0.429-0.287-0.713v-1.667z"></path>
</svg>
