<!-- Generated by IcoMoon.io -->
<svg version="1.1" xmlns="http://www.w3.org/2000/svg" width="32" height="32" viewBox="0 0 32 32">
<path d="M15 17h-6.667c-0.283 0-0.521-0.096-0.712-0.288s-0.288-0.429-0.288-0.713c0-0.283 0.096-0.521 0.288-0.712s0.429-0.287 0.712-0.287h6.667v-6.667c0-0.283 0.096-0.521 0.288-0.712s0.429-0.288 0.713-0.288c0.283 0 0.521 0.096 0.712 0.288s0.287 0.429 0.287 0.712v6.667h6.667c0.283 0 0.521 0.096 0.712 0.288s0.288 0.429 0.288 0.713c0 0.283-0.096 0.521-0.288 0.712s-0.429 0.287-0.712 0.287h-6.667v6.667c0 0.283-0.096 0.521-0.288 0.712s-0.429 0.288-0.713 0.288c-0.283 0-0.521-0.096-0.712-0.288s-0.287-0.429-0.287-0.712v-6.667z"></path>
</svg>
