<!-- Generated by IcoMoon.io -->
<svg version="1.1" xmlns="http://www.w3.org/2000/svg" width="32" height="32" viewBox="0 0 32 32">
<path d="M8.667 26c-1.843 0-3.414-0.639-4.715-1.918s-1.951-2.841-1.951-4.687c0-1.627 0.522-3.076 1.567-4.348s2.377-2.025 3.997-2.257c0.427-1.993 1.43-3.623 3.007-4.89s3.387-1.9 5.429-1.9c2.414 0 4.462 0.841 6.144 2.523s2.523 3.73 2.523 6.144v0.667h0.41c1.405 0.109 2.577 0.674 3.515 1.695s1.408 2.233 1.408 3.638c0 1.487-0.517 2.748-1.551 3.782s-2.295 1.551-3.782 1.551h-16zM16 20.654c0.283 0 0.521-0.096 0.712-0.287s0.287-0.429 0.287-0.713c0-0.283-0.096-0.521-0.288-0.712s-0.429-0.287-0.713-0.287c-0.284 0-0.521 0.096-0.712 0.287s-0.287 0.429-0.287 0.713c0 0.283 0.096 0.521 0.288 0.712s0.429 0.287 0.713 0.287zM16 16.654c0.283 0 0.521-0.096 0.712-0.288s0.287-0.429 0.287-0.712v-3.654c0-0.283-0.096-0.521-0.288-0.712s-0.429-0.288-0.713-0.288c-0.284 0-0.521 0.096-0.712 0.288s-0.287 0.429-0.287 0.712v3.654c0 0.283 0.096 0.521 0.288 0.712s0.429 0.288 0.713 0.288z"></path>
</svg>
