<!-- Generated by IcoMoon.io -->
<svg version="1.1" xmlns="http://www.w3.org/2000/svg" width="32" height="32" viewBox="0 0 32 32">
<path d="M8.994 17l4.39 4.39c0.199 0.199 0.296 0.431 0.294 0.696s-0.1 0.502-0.294 0.709c-0.207 0.207-0.444 0.313-0.713 0.32s-0.506-0.093-0.713-0.3l-5.972-5.972c-0.241-0.241-0.361-0.522-0.361-0.844s0.12-0.603 0.361-0.844l5.972-5.972c0.198-0.198 0.434-0.296 0.706-0.294s0.512 0.107 0.719 0.314c0.193 0.207 0.293 0.441 0.3 0.703s-0.093 0.496-0.3 0.703l-4.39 4.39h15.687c0.284 0 0.521 0.096 0.713 0.287s0.287 0.429 0.287 0.713-0.096 0.521-0.287 0.713c-0.191 0.192-0.429 0.287-0.713 0.287h-15.687z"></path>
</svg>
