<!-- Generated by IcoMoon.io -->
<svg version="1.1" xmlns="http://www.w3.org/2000/svg" width="32" height="32" viewBox="0 0 32 32">
<path d="M21.56 16.56h-15.149c-0.284 0-0.521-0.096-0.713-0.287s-0.287-0.429-0.287-0.713c0-0.284 0.096-0.521 0.287-0.713s0.429-0.287 0.713-0.287h15.149l-4.39-4.39c-0.198-0.198-0.296-0.431-0.294-0.696s0.101-0.502 0.294-0.709c0.207-0.207 0.444-0.313 0.713-0.32s0.506 0.093 0.713 0.3l5.972 5.972c0.125 0.125 0.213 0.257 0.264 0.395s0.077 0.288 0.077 0.449-0.026 0.31-0.077 0.449c-0.051 0.139-0.139 0.27-0.264 0.395l-5.972 5.972c-0.198 0.198-0.434 0.296-0.706 0.294s-0.512-0.107-0.719-0.314c-0.193-0.207-0.293-0.441-0.3-0.703s0.093-0.496 0.3-0.703l4.39-4.39z"></path>
</svg>
