<!-- Generated by IcoMoon.io -->
<svg version="1.1" xmlns="http://www.w3.org/2000/svg" width="32" height="32" viewBox="0 0 32 32">
<path d="M16 24.808c1.352 0 2.494-0.484 3.424-1.451s1.396-2.129 1.396-3.485v-4.718c0-0.284-0.096-0.521-0.287-0.713s-0.429-0.287-0.713-0.287c-0.283 0-0.521 0.096-0.713 0.287s-0.287 0.429-0.287 0.713v4.718c0 0.802-0.271 1.491-0.812 2.069s-1.211 0.867-2.009 0.867c-0.785 0-1.451-0.289-1.999-0.867s-0.822-1.267-0.822-2.069v-7.308c0-0.277 0.088-0.511 0.264-0.701s0.391-0.286 0.646-0.286c0.268 0 0.487 0.095 0.657 0.286s0.254 0.424 0.254 0.701v6.308c0 0.284 0.096 0.521 0.287 0.713s0.429 0.287 0.713 0.287 0.521-0.096 0.713-0.287c0.192-0.192 0.287-0.429 0.287-0.713v-6.308c0-0.822-0.279-1.526-0.838-2.11s-1.25-0.877-2.072-0.877c-0.822 0-1.513 0.292-2.072 0.877s-0.838 1.288-0.838 2.11v7.308c0 1.355 0.469 2.517 1.406 3.485s2.076 1.451 3.414 1.451zM8.41 28.667c-0.674 0-1.244-0.233-1.71-0.7s-0.7-1.037-0.7-1.71v-20.513c0-0.674 0.233-1.244 0.7-1.71s1.037-0.7 1.71-0.7h11.41l6.18 6.18v16.743c0 0.673-0.233 1.244-0.7 1.71s-1.037 0.7-1.71 0.7h-15.179zM8.41 26.667h15.179c0.103 0 0.197-0.043 0.282-0.128s0.128-0.179 0.128-0.282v-15.744h-3.974c-0.344 0-0.63-0.115-0.86-0.345s-0.345-0.517-0.345-0.86v-3.974h-10.41c-0.103 0-0.197 0.043-0.282 0.128s-0.128 0.179-0.128 0.282v20.513c0 0.103 0.043 0.197 0.128 0.282s0.179 0.128 0.282 0.128z"></path>
</svg>
