<!-- Generated by IcoMoon.io -->
<svg version="1.1" xmlns="http://www.w3.org/2000/svg" width="32" height="32" viewBox="0 0 32 32">
<path d="M14.719 25.915v-9.137l-8-4.633v8.916c0 0.065 0.016 0.127 0.049 0.185s0.082 0.107 0.148 0.148l7.803 4.522zM16.639 25.915l7.803-4.522c0.066-0.041 0.115-0.090 0.148-0.148s0.049-0.119 0.049-0.185v-8.916l-8 4.633v9.137zM14.522 28.010l-8.566-4.931c-0.364-0.21-0.648-0.491-0.852-0.842s-0.305-0.737-0.305-1.157v-9.708c0-0.42 0.102-0.806 0.305-1.157s0.487-0.632 0.852-0.842l8.566-4.931c0.364-0.21 0.75-0.315 1.157-0.315s0.793 0.105 1.157 0.315l8.566 4.931c0.364 0.21 0.648 0.49 0.852 0.842s0.305 0.737 0.305 1.157v9.708c0 0.42-0.102 0.806-0.305 1.157s-0.488 0.632-0.852 0.842l-8.566 4.931c-0.364 0.21-0.75 0.315-1.157 0.315s-0.793-0.105-1.157-0.315zM20.614 12.258l2.969-1.703-7.707-4.458c-0.065-0.041-0.131-0.061-0.197-0.061s-0.131 0.020-0.197 0.061l-2.779 1.6 7.911 4.561zM15.679 15.124l2.976-1.723-7.904-4.569-2.976 1.723 7.904 4.569z"></path>
</svg>
