<!-- Generated by IcoMoon.io -->
<svg version="1.1" xmlns="http://www.w3.org/2000/svg" width="33" height="32" viewBox="0 0 33 32">
<path d="M15.912 27.969v-11.815l-10.333-5.974v10.456c0 0.438 0.106 0.839 0.318 1.205s0.508 0.658 0.887 0.877l9.128 5.251zM17.912 27.969l9.128-5.251c0.38-0.219 0.675-0.511 0.887-0.877s0.318-0.768 0.318-1.205v-10.456l-10.333 5.974v11.815zM23.006 10.905l4.151-2.403-9.041-5.197c-0.379-0.219-0.781-0.328-1.205-0.328s-0.826 0.109-1.205 0.328l-2.928 1.68 10.228 5.92zM16.912 14.431l4.095-2.356-10.233-5.928-4.115 2.364 10.254 5.921z"></path>
</svg>
