<!-- Generated by IcoMoon.io -->
<svg version="1.1" xmlns="http://www.w3.org/2000/svg" width="32" height="32" viewBox="0 0 32 32">
<path d="M7.077 28.667c-0.674 0-1.244-0.233-1.71-0.7s-0.7-1.037-0.7-1.71v-17.846c0-0.674 0.233-1.244 0.7-1.71s1.037-0.7 1.71-0.7h1.846v-1.795c0-0.292 0.098-0.536 0.294-0.732s0.44-0.293 0.732-0.293c0.292 0 0.536 0.098 0.732 0.293s0.294 0.44 0.294 0.732v1.795h10.103v-1.82c0-0.284 0.096-0.521 0.287-0.713s0.429-0.287 0.713-0.287c0.284 0 0.521 0.096 0.713 0.287s0.287 0.429 0.287 0.713v1.82h1.846c0.673 0 1.244 0.233 1.71 0.7s0.7 1.037 0.7 1.71v17.846c0 0.673-0.233 1.244-0.7 1.71s-1.037 0.7-1.71 0.7h-17.846zM7.077 26.667h17.846c0.103 0 0.197-0.043 0.282-0.128s0.128-0.179 0.128-0.282v-12.513h-18.667v12.513c0 0.103 0.043 0.197 0.128 0.282s0.179 0.128 0.282 0.128zM6.667 11.744h18.667v-3.333c0-0.103-0.043-0.197-0.128-0.282s-0.179-0.128-0.282-0.128h-17.846c-0.103 0-0.197 0.043-0.282 0.128s-0.128 0.179-0.128 0.282v3.333z"></path>
</svg>
