<!-- Generated by IcoMoon.io -->
<svg version="1.1" xmlns="http://www.w3.org/2000/svg" width="32" height="32" viewBox="0 0 32 32">
<path d="M5.744 27.333c-0.674 0-1.244-0.233-1.71-0.7s-0.7-1.037-0.7-1.71v-15.179c0-0.674 0.233-1.244 0.7-1.71s1.037-0.7 1.71-0.7h4.072l1.744-1.89c0.219-0.241 0.483-0.431 0.794-0.569s0.637-0.208 0.981-0.208h5.333c0.344 0 0.67 0.069 0.981 0.208s0.575 0.328 0.794 0.569l1.744 1.89h4.072c0.673 0 1.244 0.233 1.71 0.7s0.7 1.037 0.7 1.71v15.179c0 0.673-0.233 1.244-0.7 1.71s-1.037 0.7-1.71 0.7h-20.513zM20.805 17.379c-0.116 1.332-0.621 2.469-1.513 3.412s-1.99 1.414-3.292 1.414c-0.186 0-0.373-0.013-0.559-0.040s-0.373-0.062-0.559-0.106c-0.161-0.036-0.328-0.032-0.503 0.013s-0.311 0.129-0.41 0.254c-0.168 0.193-0.22 0.417-0.158 0.672s0.21 0.425 0.445 0.51c0.285 0.111 0.574 0.187 0.865 0.227s0.584 0.060 0.878 0.060c1.756 0 3.239-0.629 4.45-1.886s1.859-2.781 1.945-4.571l0.646 0.587c0.166 0.143 0.354 0.213 0.565 0.209s0.388-0.078 0.532-0.222c0.166-0.166 0.252-0.355 0.259-0.569s-0.073-0.404-0.238-0.569l-1.649-1.649c-0.227-0.227-0.509-0.341-0.844-0.341s-0.616 0.114-0.844 0.341l-1.649 1.649c-0.166 0.166-0.249 0.352-0.249 0.559s0.083 0.393 0.249 0.559c0.166 0.166 0.352 0.249 0.559 0.249s0.393-0.083 0.559-0.249l0.513-0.513zM9.605 17.328l-0.646-0.587c-0.166-0.144-0.354-0.213-0.565-0.209s-0.388 0.078-0.532 0.222c-0.166 0.166-0.252 0.355-0.259 0.569s0.073 0.403 0.238 0.569l1.649 1.649c0.227 0.227 0.509 0.341 0.844 0.341s0.616-0.114 0.844-0.341l1.649-1.649c0.166-0.166 0.249-0.352 0.249-0.559s-0.083-0.393-0.249-0.559c-0.166-0.166-0.352-0.249-0.559-0.249s-0.393 0.083-0.559 0.249l-0.513 0.513c0.116-1.332 0.62-2.469 1.513-3.412s1.99-1.414 3.292-1.414c0.186 0 0.373 0.013 0.559 0.040s0.368 0.062 0.546 0.106c0.161 0.044 0.33 0.044 0.509 0s0.318-0.133 0.417-0.267c0.168-0.193 0.222-0.417 0.164-0.672s-0.204-0.425-0.439-0.51c-0.294-0.094-0.585-0.165-0.872-0.214s-0.582-0.073-0.885-0.073c-1.756 0-3.239 0.629-4.45 1.886s-1.859 2.781-1.945 4.571z"></path>
</svg>
