<!-- Generated by IcoMoon.io -->
<svg version="1.1" xmlns="http://www.w3.org/2000/svg" width="32" height="32" viewBox="0 0 32 32">
<path d="M15.669 23.079c1.53 0 2.827-0.532 3.891-1.596s1.596-2.361 1.596-3.891c0-1.53-0.532-2.827-1.596-3.891s-2.361-1.596-3.891-1.596c-1.53 0-2.827 0.532-3.891 1.596s-1.596 2.361-1.596 3.891c0 1.53 0.532 2.827 1.596 3.891s2.361 1.596 3.891 1.596zM15.669 21.079c-0.985 0-1.812-0.335-2.482-1.005s-1.005-1.497-1.005-2.482 0.335-1.812 1.005-2.482c0.67-0.67 1.497-1.005 2.482-1.005s1.812 0.335 2.482 1.005c0.67 0.67 1.005 1.497 1.005 2.482s-0.335 1.812-1.005 2.482c-0.67 0.67-1.497 1.005-2.482 1.005zM5.413 27.592c-0.674 0-1.244-0.233-1.71-0.7s-0.7-1.037-0.7-1.71v-15.179c0-0.674 0.233-1.244 0.7-1.71s1.037-0.7 1.71-0.7h4.072l1.744-1.89c0.219-0.241 0.483-0.431 0.794-0.569s0.637-0.208 0.981-0.208h5.333c0.343 0 0.67 0.069 0.981 0.208s0.575 0.328 0.794 0.569l1.744 1.89h4.072c0.674 0 1.244 0.233 1.71 0.7s0.7 1.037 0.7 1.71v15.179c0 0.674-0.233 1.244-0.7 1.71s-1.037 0.7-1.71 0.7h-20.513zM5.413 25.592h20.513c0.12 0 0.218-0.038 0.295-0.115s0.115-0.175 0.115-0.295v-15.179c0-0.12-0.039-0.218-0.115-0.295s-0.175-0.115-0.295-0.115h-4.964l-2.446-2.667h-5.692l-2.446 2.667h-4.964c-0.12 0-0.218 0.038-0.295 0.115s-0.115 0.175-0.115 0.295v15.179c0 0.12 0.038 0.218 0.115 0.295s0.175 0.115 0.295 0.115z"></path>
</svg>
