<!-- Generated by IcoMoon.io -->
<svg version="1.1" xmlns="http://www.w3.org/2000/svg" width="32" height="32" viewBox="0 0 32 32">
<path d="M14.6 17.421l-2.123-2.123c-0.198-0.198-0.431-0.299-0.696-0.304s-0.502 0.097-0.709 0.304c-0.207 0.207-0.31 0.445-0.31 0.713s0.103 0.506 0.31 0.713l2.685 2.705c0.241 0.241 0.522 0.361 0.844 0.361s0.603-0.121 0.844-0.361l5.526-5.526c0.198-0.198 0.299-0.434 0.304-0.707s-0.097-0.512-0.304-0.719c-0.207-0.207-0.445-0.31-0.713-0.31s-0.506 0.103-0.713 0.31l-4.944 4.944zM16 28.495c-0.138 0-0.274-0.011-0.408-0.033s-0.262-0.056-0.387-0.1c-2.812-1-5.049-2.773-6.711-5.319s-2.494-5.294-2.494-8.242v-6.005c0-0.504 0.146-0.96 0.439-1.365s0.668-0.7 1.128-0.883l7.59-2.833c0.286-0.103 0.567-0.154 0.844-0.154s0.558 0.051 0.844 0.154l7.59 2.833c0.46 0.183 0.836 0.477 1.128 0.883s0.439 0.861 0.439 1.365v6.005c0 2.949-0.831 5.696-2.494 8.242s-3.9 4.319-6.711 5.319c-0.125 0.044-0.254 0.078-0.387 0.1s-0.269 0.033-0.408 0.033z"></path>
</svg>
