<!-- Generated by IcoMoon.io -->
<svg version="1.1" xmlns="http://www.w3.org/2000/svg" width="32" height="32" viewBox="0 0 32 32">
<path d="M14.108 18.724l-3.097-3.098c-0.185-0.184-0.417-0.279-0.696-0.283s-0.516 0.090-0.709 0.283c-0.193 0.193-0.29 0.428-0.29 0.703s0.097 0.509 0.29 0.703l3.659 3.659c0.241 0.241 0.522 0.361 0.844 0.361s0.603-0.121 0.844-0.361l7.418-7.418c0.184-0.185 0.279-0.417 0.283-0.696s-0.090-0.516-0.283-0.709c-0.193-0.193-0.428-0.29-0.703-0.29s-0.509 0.097-0.703 0.29l-6.856 6.857zM16.002 28.529c-1.752 0-3.399-0.332-4.94-0.997s-2.882-1.567-4.023-2.707c-1.14-1.14-2.043-2.48-2.708-4.021s-0.998-3.187-0.998-4.939c0-1.752 0.332-3.399 0.997-4.94s1.567-2.882 2.707-4.023c1.14-1.14 2.48-2.043 4.021-2.708s3.187-0.998 4.939-0.998c1.752 0 3.399 0.332 4.94 0.997s2.882 1.567 4.023 2.707c1.14 1.14 2.043 2.48 2.708 4.021s0.998 3.187 0.998 4.939c0 1.752-0.332 3.399-0.997 4.94s-1.567 2.883-2.707 4.023c-1.14 1.14-2.48 2.043-4.021 2.708s-3.187 0.998-4.939 0.998z"></path>
</svg>
