<!-- Generated by IcoMoon.io -->
<svg version="1.1" xmlns="http://www.w3.org/2000/svg" width="32" height="32" viewBox="0 0 32 32">
<path d="M16 17.405l-6.764 6.764c-0.185 0.184-0.417 0.279-0.696 0.283s-0.516-0.090-0.709-0.283c-0.193-0.193-0.29-0.428-0.29-0.703s0.097-0.509 0.29-0.703l6.764-6.764-6.764-6.764c-0.184-0.185-0.279-0.417-0.283-0.696s0.090-0.516 0.283-0.709c0.193-0.193 0.428-0.29 0.703-0.29s0.509 0.097 0.703 0.29l6.764 6.764 6.764-6.764c0.185-0.184 0.417-0.279 0.696-0.283s0.516 0.090 0.709 0.283c0.193 0.193 0.29 0.428 0.29 0.703s-0.097 0.509-0.29 0.703l-6.764 6.764 6.764 6.764c0.184 0.185 0.279 0.417 0.283 0.696s-0.090 0.516-0.283 0.709c-0.193 0.193-0.428 0.29-0.703 0.29s-0.509-0.097-0.703-0.29l-6.764-6.764z"></path>
</svg>
