<!-- Generated by IcoMoon.io -->
<svg version="1.1" xmlns="http://www.w3.org/2000/svg" width="32" height="32" viewBox="0 0 32 32">
<path d="M14.582 27.624c-0.436 0-0.813-0.145-1.131-0.435s-0.511-0.646-0.58-1.069l-0.313-2.395c-0.343-0.115-0.694-0.275-1.055-0.482s-0.682-0.429-0.966-0.665l-2.218 0.943c-0.402 0.177-0.806 0.195-1.212 0.052s-0.722-0.402-0.947-0.778l-1.443-2.501c-0.225-0.376-0.29-0.773-0.194-1.193s0.313-0.765 0.655-1.037l1.917-1.44c-0.029-0.19-0.050-0.381-0.063-0.573s-0.019-0.383-0.019-0.574c0-0.182 0.006-0.367 0.019-0.555s0.033-0.393 0.063-0.617l-1.917-1.44c-0.341-0.272-0.558-0.62-0.649-1.044s-0.024-0.823 0.201-1.199l1.43-2.464c0.225-0.368 0.54-0.625 0.947-0.772s0.81-0.132 1.212 0.045l2.205 0.931c0.309-0.244 0.638-0.468 0.988-0.671s0.694-0.366 1.033-0.489l0.325-2.395c0.069-0.423 0.262-0.78 0.58-1.069s0.694-0.435 1.131-0.435h2.836c0.436 0 0.813 0.145 1.131 0.435s0.511 0.646 0.58 1.069l0.313 2.407c0.384 0.14 0.731 0.302 1.042 0.489s0.625 0.406 0.942 0.659l2.267-0.931c0.402-0.177 0.806-0.192 1.212-0.045s0.722 0.404 0.946 0.772l1.43 2.476c0.225 0.376 0.29 0.773 0.194 1.193s-0.313 0.765-0.655 1.037l-1.967 1.477c0.046 0.207 0.071 0.4 0.075 0.58s0.006 0.361 0.006 0.543c0 0.174-0.004 0.351-0.012 0.531s-0.038 0.385-0.088 0.617l1.93 1.452c0.341 0.273 0.562 0.618 0.661 1.037s0.036 0.817-0.189 1.193l-1.45 2.489c-0.225 0.376-0.542 0.635-0.952 0.778s-0.816 0.125-1.219-0.052l-2.191-0.943c-0.317 0.253-0.64 0.476-0.97 0.671s-0.668 0.353-1.014 0.476l-0.313 2.407c-0.069 0.423-0.262 0.78-0.58 1.069s-0.694 0.435-1.131 0.435h-2.836zM14.72 25.704h2.516l0.46-3.429c0.653-0.171 1.25-0.413 1.791-0.727s1.062-0.719 1.564-1.213l3.18 1.337 1.261-2.176-2.777-2.092c0.107-0.332 0.179-0.657 0.218-0.975s0.058-0.64 0.058-0.965c0-0.333-0.019-0.655-0.058-0.965s-0.111-0.627-0.218-0.95l2.801-2.117-1.26-2.176-3.217 1.356c-0.428-0.458-0.942-0.862-1.54-1.213s-1.203-0.6-1.815-0.746l-0.404-3.429h-2.54l-0.424 3.417c-0.653 0.154-1.256 0.39-1.809 0.709s-1.081 0.729-1.583 1.231l-3.18-1.324-1.26 2.176 2.764 2.060c-0.107 0.304-0.181 0.62-0.224 0.948s-0.064 0.674-0.064 1.036c0 0.333 0.021 0.66 0.064 0.98s0.113 0.636 0.212 0.948l-2.752 2.092 1.26 2.176 3.168-1.344c0.486 0.499 1.005 0.907 1.558 1.226s1.165 0.563 1.834 0.733l0.416 3.417z"></path>
<path d="M18.733 18.183c-0.748 0.748-1.654 1.121-2.719 1.121-1.078 0-1.988-0.374-2.729-1.121s-1.111-1.654-1.111-2.719 0.37-1.971 1.111-2.719c0.741-0.748 1.65-1.121 2.729-1.121 1.065 0 1.971 0.374 2.719 1.121s1.121 1.654 1.121 2.719c0 1.065-0.374 1.971-1.121 2.719z"></path>
</svg>
