<!-- Generated by IcoMoon.io -->
<svg version="1.1" xmlns="http://www.w3.org/2000/svg" width="32" height="32" viewBox="0 0 32 32">
<path d="M9.744 27.333c-0.663 0-1.23-0.236-1.702-0.708s-0.708-1.039-0.708-1.702v-16.923h-0.333c-0.283 0-0.521-0.096-0.712-0.288s-0.288-0.429-0.288-0.713c0-0.284 0.096-0.521 0.288-0.712s0.429-0.287 0.712-0.287h5c0-0.326 0.115-0.605 0.345-0.835s0.508-0.345 0.834-0.345h5.641c0.326 0 0.605 0.115 0.834 0.345s0.345 0.508 0.345 0.835h5c0.283 0 0.521 0.096 0.712 0.288s0.288 0.429 0.288 0.713c0 0.284-0.096 0.521-0.288 0.712s-0.429 0.287-0.712 0.287h-0.333v16.923c0 0.663-0.236 1.23-0.708 1.702s-1.039 0.708-1.702 0.708h-12.513zM13.539 22.667c0.283 0 0.521-0.096 0.712-0.287s0.287-0.429 0.287-0.713v-10c0-0.283-0.096-0.521-0.288-0.713s-0.429-0.287-0.713-0.287c-0.283 0-0.521 0.096-0.712 0.287s-0.287 0.429-0.287 0.713v10c0 0.283 0.096 0.521 0.287 0.713s0.429 0.287 0.713 0.287zM18.462 22.667c0.283 0 0.521-0.096 0.712-0.287s0.287-0.429 0.287-0.713v-10c0-0.283-0.096-0.521-0.287-0.713s-0.429-0.287-0.713-0.287c-0.283 0-0.521 0.096-0.712 0.287s-0.287 0.429-0.287 0.713v10c0 0.283 0.096 0.521 0.288 0.713s0.429 0.287 0.713 0.287z"></path>
</svg>
