<!-- Generated by IcoMoon.io -->
<svg version="1.1" xmlns="http://www.w3.org/2000/svg" width="31" height="32" viewBox="0 0 31 32">
<path d="M8.897 25.956c-0.999 0-1.847-0.349-2.545-1.048s-1.046-1.547-1.046-2.546h-1.132c-0.636 0-1.181-0.227-1.634-0.68s-0.68-0.998-0.68-1.634v-4.086c0-0.636 0.227-1.181 0.68-1.634s0.998-0.68 1.634-0.68h11.766v-4.726c0-0.636 0.227-1.181 0.68-1.634s0.998-0.68 1.634-0.68h2.486v-0.96c0-0.328 0.111-0.602 0.333-0.824s0.497-0.332 0.824-0.332h0.886c0.328 0 0.602 0.111 0.824 0.332s0.332 0.497 0.332 0.824v0.96h0.741c0.501 0 0.954 0.144 1.359 0.433s0.684 0.674 0.839 1.155l1.749 5.183c0.040 0.121 0.069 0.242 0.086 0.365s0.026 0.25 0.026 0.382v5.923c0 0.636-0.227 1.181-0.68 1.634s-0.998 0.68-1.634 0.68h-1.132c0 1.001-0.35 1.85-1.049 2.548s-1.548 1.046-2.547 1.046-1.847-0.349-2.545-1.048c-0.698-0.699-1.046-1.547-1.046-2.546h-5.612c0 1.001-0.35 1.85-1.049 2.548s-1.548 1.046-2.548 1.046zM8.9 24.036c0.469 0 0.866-0.162 1.189-0.485s0.485-0.717 0.485-1.183-0.162-0.862-0.485-1.189c-0.323-0.327-0.719-0.491-1.189-0.491s-0.866 0.164-1.189 0.491c-0.323 0.327-0.485 0.724-0.485 1.189s0.162 0.86 0.485 1.183c0.323 0.323 0.719 0.485 1.189 0.485zM21.7 24.036c0.469 0 0.866-0.162 1.189-0.485s0.485-0.717 0.485-1.183-0.162-0.862-0.485-1.189c-0.323-0.327-0.72-0.491-1.189-0.491s-0.866 0.164-1.189 0.491c-0.323 0.327-0.485 0.724-0.485 1.189s0.162 0.86 0.485 1.183c0.323 0.323 0.72 0.485 1.189 0.485zM3.78 15.962v4.086c0 0.115 0.037 0.209 0.111 0.283s0.168 0.111 0.283 0.111h1.792c0.297-0.512 0.705-0.919 1.225-1.221s1.089-0.453 1.709-0.453 1.19 0.151 1.709 0.453c0.519 0.302 0.928 0.709 1.225 1.221h4.106v-4.874h-11.766c-0.115 0-0.209 0.037-0.283 0.111s-0.111 0.168-0.111 0.283zM17.86 20.442h0.906c0.297-0.512 0.705-0.919 1.225-1.221s1.089-0.453 1.709-0.453c0.62 0 1.19 0.151 1.709 0.453s0.928 0.709 1.225 1.221h1.792c0.115 0 0.209-0.037 0.283-0.111s0.111-0.168 0.111-0.283v-4.48h-8.96v4.874zM17.86 13.648h8.832l-1.629-4.849c-0.025-0.082-0.072-0.148-0.142-0.197s-0.15-0.074-0.24-0.074h-6.427c-0.115 0-0.209 0.037-0.283 0.111s-0.111 0.168-0.111 0.283v4.726z"></path>
<path d="M3.14 8.134h-0.517c-0.221 0-0.403-0.072-0.547-0.216s-0.216-0.326-0.216-0.546c0-0.22 0.072-0.403 0.216-0.547s0.326-0.217 0.547-0.217h10.88c0.22 0 0.403 0.072 0.547 0.216s0.216 0.326 0.216 0.547c0 0.22-0.072 0.402-0.216 0.547s-0.326 0.217-0.547 0.217h-0.517v2.708h0.517c0.22 0 0.403 0.072 0.547 0.216s0.216 0.326 0.216 0.547c0 0.22-0.072 0.402-0.216 0.547s-0.326 0.217-0.547 0.217h-10.88c-0.221 0-0.403-0.072-0.547-0.216s-0.216-0.326-0.216-0.547c0-0.22 0.072-0.402 0.216-0.547s0.326-0.217 0.547-0.217h0.517v-2.708zM8.826 10.842h2.634v-2.708h-2.634v2.708zM7.3 10.842v-2.708h-2.634v2.708h2.634z"></path>
</svg>
