<!-- Generated by IcoMoon.io -->
<svg version="1.1" xmlns="http://www.w3.org/2000/svg" width="32" height="32" viewBox="0 0 32 32">
<path d="M16.569 21.287c1.377 0 2.55-0.479 3.519-1.437s1.454-2.123 1.454-3.494c0-0.665-0.125-1.293-0.374-1.885s-0.613-1.117-1.090-1.574l-2.692-2.639c-0.241-0.219-0.522-0.328-0.844-0.328s-0.603 0.109-0.844 0.328l-2.692 2.639c-0.478 0.457-0.841 0.981-1.090 1.574s-0.374 1.22-0.374 1.885c0 1.371 0.494 2.536 1.481 3.494s2.169 1.437 3.546 1.437zM13.542 16.287c0-0.376 0.077-0.732 0.232-1.068s0.369-0.64 0.642-0.913l2.126-2.081 2.126 2.081c0.274 0.273 0.488 0.577 0.642 0.913s0.232 0.692 0.232 1.068h-6zM8.952 25.621c-0.663 0-1.23-0.236-1.702-0.708s-0.708-1.039-0.708-1.702v-11.385c0-0.382 0.085-0.743 0.256-1.084s0.407-0.623 0.708-0.844l7.59-5.705c0.421-0.322 0.902-0.482 1.444-0.482s1.024 0.161 1.448 0.482l7.59 5.705c0.301 0.221 0.537 0.502 0.708 0.844s0.256 0.703 0.256 1.084v11.385c0 0.663-0.236 1.23-0.708 1.702s-1.039 0.708-1.702 0.708h-15.179z"></path>
</svg>
