<!-- Generated by IcoMoon.io -->
<svg version="1.1" xmlns="http://www.w3.org/2000/svg" width="32" height="32" viewBox="0 0 32 32">
<path d="M5.492 25.992c0.448 0.448 0.995 0.672 1.642 0.672h17.773c0.646 0 1.194-0.224 1.642-0.672s0.672-0.995 0.672-1.642v-10.201c-0.24 0.484-1.38 0.789-1.92 0.881v9.319c0 0.115-0.037 0.209-0.111 0.283s-0.168 0.111-0.283 0.111h-17.773c-0.115 0-0.209-0.037-0.283-0.111s-0.111-0.168-0.111-0.283v-9.319c-0.527-0.108-1.648-0.441-1.92-0.906v10.225c0 0.647 0.224 1.194 0.672 1.642z"></path>
<path d="M27.22 14.15c0.515-0.45 0.902-1.010 1.161-1.68s0.264-1.397 0.016-2.18l-1.319-4.253c-0.184-0.551-0.477-0.985-0.879-1.3s-0.887-0.473-1.455-0.473h-17.472c-0.568 0-1.056 0.165-1.465 0.495s-0.698 0.764-0.869 1.302l-1.295 4.229c-0.248 0.783-0.243 1.512 0.016 2.187s0.645 1.225 1.161 1.648c0.272 0.465 1.393 0.798 1.92 0.906 0.113 0.051 0.223 0.083 0.33 0.095s0.21 0.019 0.31 0.019c0.432 0 0.874-0.084 1.328-0.253s0.95-0.523 1.488-1.061c0.384 0.458 0.829 0.791 1.334 1.001s1.047 0.314 1.625 0.314c0.514 0 1.021-0.113 1.521-0.339s0.948-0.551 1.344-0.976c0.425 0.425 0.878 0.75 1.359 0.976s0.993 0.339 1.536 0.339c0.628 0 1.188-0.119 1.679-0.357s0.916-0.557 1.275-0.958c0.41 0.46 0.834 0.793 1.272 1.002s0.944 0.313 1.52 0.313c0.1 0 0.197-0.006 0.29-0.019s0.21-0.044 0.35-0.095c0.54-0.092 1.679-0.397 1.92-0.881zM20.413 12.583c-0.352 0.428-0.878 0.641-1.577 0.641-0.509 0-0.945-0.196-1.31-0.588s-0.547-0.858-0.547-1.396v-5.056h3.087l0.778 5.021c0.064 0.491-0.080 0.95-0.432 1.377zM14.509 12.636c-0.367 0.392-0.845 0.588-1.434 0.588-0.614 0-1.098-0.215-1.452-0.644s-0.497-0.871-0.428-1.326l0.778-5.071h3.087v5.056c0 0.538-0.183 1.004-0.55 1.396zM8.603 12.728c-0.341 0.331-0.749 0.496-1.223 0.496-0.75 0-1.289-0.28-1.617-0.841s-0.408-1.116-0.239-1.665l1.231-4.165c0.041-0.123 0.103-0.215 0.185-0.277s0.193-0.092 0.332-0.092h2.717l-0.753 5.297c-0.080 0.5-0.291 0.916-0.633 1.247zM26.25 12.408c-0.368 0.544-0.898 0.816-1.59 0.816-0.474 0-0.882-0.165-1.224-0.496s-0.552-0.746-0.633-1.247l-0.753-5.297h2.653c0.14 0 0.25 0.027 0.333 0.080s0.143 0.142 0.184 0.265l1.295 4.189c0.19 0.583 0.102 1.146-0.266 1.69z"></path>
</svg>
