<!-- Generated by IcoMoon.io -->
<svg version="1.1" xmlns="http://www.w3.org/2000/svg" width="32" height="32" viewBox="0 0 32 32">
<path d="M16 20.549c-0.161 0-0.31-0.026-0.449-0.077s-0.27-0.139-0.395-0.264l-4.146-4.146c-0.198-0.199-0.296-0.431-0.294-0.696s0.101-0.502 0.294-0.709c0.207-0.207 0.444-0.313 0.713-0.32s0.506 0.093 0.713 0.3l2.564 2.564v-10.2c0-0.284 0.096-0.521 0.287-0.713s0.429-0.287 0.713-0.287 0.521 0.096 0.713 0.287c0.192 0.191 0.287 0.429 0.287 0.713v10.2l2.564-2.564c0.198-0.198 0.434-0.296 0.706-0.294s0.512 0.107 0.719 0.314c0.193 0.207 0.293 0.441 0.3 0.703s-0.093 0.496-0.3 0.703l-4.146 4.146c-0.125 0.125-0.257 0.213-0.395 0.264s-0.288 0.077-0.449 0.077zM8.41 26c-0.674 0-1.244-0.233-1.71-0.7s-0.7-1.037-0.7-1.71v-2.615c0-0.284 0.096-0.521 0.287-0.713s0.429-0.287 0.713-0.287 0.521 0.096 0.713 0.287c0.192 0.191 0.287 0.429 0.287 0.713v2.615c0 0.103 0.043 0.197 0.128 0.282s0.179 0.128 0.282 0.128h15.179c0.103 0 0.197-0.043 0.282-0.128s0.128-0.179 0.128-0.282v-2.615c0-0.284 0.096-0.521 0.287-0.713s0.429-0.287 0.713-0.287 0.521 0.096 0.713 0.287c0.192 0.191 0.287 0.429 0.287 0.713v2.615c0 0.673-0.233 1.244-0.7 1.71s-1.037 0.7-1.71 0.7h-15.179z"></path>
</svg>
