<!-- Generated by IcoMoon.io -->
<svg version="1.1" xmlns="http://www.w3.org/2000/svg" width="32" height="32" viewBox="0 0 32 32">
<path d="M16 19.569c-0.161 0-0.31-0.026-0.449-0.077s-0.27-0.139-0.395-0.264l-5.992-5.992c-0.184-0.185-0.279-0.417-0.283-0.696s0.090-0.516 0.283-0.709c0.193-0.193 0.428-0.29 0.703-0.29s0.509 0.097 0.703 0.29l5.431 5.431 5.431-5.431c0.185-0.184 0.417-0.279 0.696-0.283s0.516 0.090 0.709 0.283c0.193 0.193 0.29 0.428 0.29 0.703s-0.097 0.509-0.29 0.703l-5.992 5.992c-0.125 0.125-0.257 0.213-0.395 0.264s-0.288 0.077-0.449 0.077z"></path>
</svg>
