<!-- Generated by IcoMoon.io -->
<svg version="1.1" xmlns="http://www.w3.org/2000/svg" width="32" height="32" viewBox="0 0 32 32">
<path d="M6.667 25.333h1.682l13.649-13.649-1.682-1.682-13.649 13.649v1.682zM5.872 27.333c-0.342 0-0.628-0.116-0.859-0.347s-0.347-0.517-0.347-0.859v-2.31c0-0.325 0.062-0.635 0.187-0.93s0.296-0.551 0.515-0.77l16.885-16.877c0.202-0.183 0.424-0.325 0.668-0.424s0.499-0.15 0.767-0.15 0.526 0.047 0.777 0.142c0.251 0.095 0.473 0.246 0.666 0.453l1.628 1.649c0.207 0.193 0.354 0.415 0.442 0.667s0.132 0.503 0.132 0.754c0 0.268-0.046 0.524-0.137 0.768s-0.237 0.466-0.437 0.668l-16.877 16.864c-0.219 0.219-0.476 0.391-0.77 0.515s-0.605 0.187-0.93 0.187h-2.31zM21.142 10.858l-0.826-0.856 1.682 1.682-0.856-0.826z"></path>
</svg>
