<!-- Generated by IcoMoon.io -->
<svg version="1.1" xmlns="http://www.w3.org/2000/svg" width="32" height="32" viewBox="0 0 32 32">
<path d="M16.064 5.567c2.791 0 5.156 0.969 7.094 2.906s2.908 4.301 2.908 7.092c0 2.791-0.969 5.156-2.906 7.094s-4.301 2.908-7.092 2.908c-2.791 0-5.156-0.969-7.094-2.906s-2.908-4.301-2.908-7.092c0-2.791 0.969-5.156 2.906-7.094s4.301-2.908 7.092-2.908zM11.579 12.903c0 0.342 0.116 0.628 0.347 0.858s0.518 0.345 0.86 0.345c0.342 0 0.628-0.116 0.858-0.347s0.345-0.518 0.345-0.86c0-0.342-0.116-0.628-0.347-0.858s-0.518-0.345-0.86-0.345c-0.342 0-0.628 0.116-0.858 0.347s-0.345 0.518-0.345 0.86zM18.143 12.903c0 0.342 0.116 0.628 0.347 0.858s0.518 0.345 0.86 0.345c0.342 0 0.628-0.116 0.858-0.347s0.345-0.518 0.345-0.86c0-0.342-0.116-0.628-0.347-0.858s-0.518-0.345-0.86-0.345c-0.342 0-0.628 0.116-0.858 0.347s-0.345 0.518-0.345 0.86zM2.066 6.567v-2.59c0-0.663 0.236-1.23 0.708-1.702s1.039-0.708 1.702-0.708h2.59c0.283 0 0.521 0.096 0.713 0.288s0.287 0.429 0.287 0.713c0 0.284-0.096 0.521-0.287 0.712s-0.429 0.287-0.713 0.287h-2.59c-0.12 0-0.218 0.038-0.295 0.115s-0.115 0.175-0.115 0.295v2.59c0 0.283-0.096 0.521-0.288 0.713s-0.429 0.287-0.713 0.287c-0.284 0-0.521-0.096-0.712-0.287s-0.287-0.429-0.287-0.713zM7.066 29.567h-2.59c-0.663 0-1.23-0.236-1.702-0.708s-0.708-1.039-0.708-1.702v-2.59c0-0.283 0.096-0.521 0.288-0.713s0.429-0.287 0.713-0.287c0.284 0 0.521 0.096 0.712 0.287s0.287 0.429 0.287 0.713v2.59c0 0.12 0.038 0.218 0.115 0.295s0.175 0.115 0.295 0.115h2.59c0.283 0 0.521 0.096 0.713 0.288s0.287 0.429 0.287 0.713c0 0.284-0.096 0.521-0.287 0.712s-0.429 0.287-0.713 0.287zM27.655 29.439h-2.59c-0.283 0-0.521-0.096-0.713-0.288s-0.287-0.429-0.287-0.713c0-0.284 0.096-0.521 0.287-0.712s0.429-0.287 0.713-0.287h2.59c0.12 0 0.218-0.038 0.295-0.115s0.115-0.175 0.115-0.295v-2.59c0-0.283 0.096-0.521 0.288-0.712s0.429-0.288 0.713-0.288c0.284 0 0.521 0.096 0.712 0.288s0.287 0.429 0.287 0.712v2.59c0 0.663-0.236 1.23-0.708 1.702s-1.039 0.708-1.702 0.708zM28.066 6.567v-2.59c0-0.12-0.038-0.218-0.115-0.295s-0.175-0.115-0.295-0.115h-2.59c-0.283 0-0.521-0.096-0.713-0.288s-0.287-0.429-0.287-0.713c0-0.284 0.096-0.521 0.287-0.712s0.429-0.287 0.713-0.287h2.59c0.663 0 1.23 0.236 1.702 0.708s0.708 1.039 0.708 1.702v2.59c0 0.283-0.096 0.521-0.288 0.713s-0.429 0.287-0.713 0.287c-0.283 0-0.521-0.096-0.712-0.287s-0.287-0.429-0.287-0.713zM16.066 19.977c0.793 0 1.534-0.183 2.222-0.549s1.254-0.868 1.699-1.505c0.125-0.227 0.124-0.455-0.004-0.682s-0.327-0.341-0.599-0.341h-6.636c-0.272 0-0.471 0.114-0.599 0.341s-0.129 0.455-0.004 0.682c0.444 0.638 1.011 1.139 1.699 1.505s1.429 0.549 2.222 0.549z"></path>
</svg>
