<!-- Generated by IcoMoon.io -->
<svg version="1.1" xmlns="http://www.w3.org/2000/svg" width="32" height="32" viewBox="0 0 32 32">
<path d="M9.689 27.438h-3.795c-0.663 0-1.23-0.236-1.702-0.708s-0.708-1.039-0.708-1.702v-11.385c0-0.382 0.085-0.743 0.256-1.084s0.407-0.623 0.708-0.844l7.59-5.718c0.221-0.161 0.453-0.281 0.694-0.362s0.493-0.12 0.755-0.12c0.262 0 0.513 0.040 0.753 0.12s0.471 0.201 0.691 0.362l3.81 2.885c0.205 0.161 0.288 0.364 0.25 0.609s-0.181 0.421-0.427 0.527c-0.764 0.371-1.43 0.877-1.999 1.519s-0.999 1.372-1.291 2.191c-0.292 0.819-0.414 1.657-0.364 2.515s0.263 1.675 0.641 2.451c0.111 0.255 0.122 0.508 0.033 0.761s-0.252 0.43-0.489 0.531c-0.959 0.422-1.704 0.84-2.236 1.253s-0.957 0.908-1.277 1.486c-0.236 0.392-0.409 0.805-0.52 1.241s-0.167 0.877-0.167 1.323v0.943c0 0.341-0.116 0.628-0.347 0.859s-0.517 0.347-0.859 0.347zM21.485 21.566c1.174 0 2.309 0.151 3.405 0.454s2.139 0.745 3.127 1.328c0.349 0.219 0.625 0.5 0.828 0.843s0.305 0.709 0.305 1.098v0.231c0 0.538-0.185 0.993-0.555 1.363s-0.824 0.555-1.363 0.555h-11.497c-0.531 0-0.984-0.187-1.358-0.56s-0.56-0.826-0.56-1.358v-0.231c0-0.389 0.102-0.755 0.305-1.098s0.48-0.624 0.828-0.843c0.988-0.583 2.031-1.026 3.128-1.328s2.233-0.454 3.406-0.454zM21.486 19.502c-1.018 0-1.884-0.356-2.598-1.069s-1.071-1.578-1.071-2.596c0-1.018 0.356-1.884 1.069-2.598s1.578-1.071 2.596-1.071c1.018 0 1.884 0.356 2.598 1.069s1.071 1.578 1.071 2.596c0 1.018-0.356 1.884-1.069 2.598s-1.578 1.070-2.596 1.070z"></path>
</svg>
