<!-- Generated by IcoMoon.io -->
<svg version="1.1" xmlns="http://www.w3.org/2000/svg" width="32" height="32" viewBox="0 0 32 32">
<path d="M6.624 25.593c-0.185-0.185-0.277-0.417-0.277-0.698s0.092-0.512 0.277-0.694l2.282-2.282c-0.711-0.868-1.265-1.841-1.663-2.92s-0.596-2.221-0.596-3.429c0-2.792 0.969-5.156 2.906-7.094s4.302-2.906 7.094-2.906h7.974c0.562 0 1.041 0.197 1.435 0.591s0.591 0.872 0.591 1.435v7.974c0 2.792-0.969 5.156-2.906 7.094s-4.302 2.906-7.094 2.906c-1.207 0-2.345-0.199-3.412-0.596s-2.035-0.952-2.903-1.663l-2.315 2.282c-0.182 0.185-0.413 0.277-0.694 0.277s-0.514-0.092-0.698-0.277zM12.037 20.178c0.185 0.213 0.417 0.316 0.697 0.308s0.519-0.11 0.716-0.306l5.233-5.221c0.207-0.207 0.31-0.444 0.31-0.713s-0.102-0.505-0.306-0.709c-0.187-0.187-0.421-0.281-0.702-0.281s-0.512 0.092-0.694 0.277l-5.254 5.254c-0.184 0.183-0.277 0.411-0.277 0.684s0.092 0.509 0.277 0.706z"></path>
</svg>
