<!-- Generated by IcoMoon.io -->
<svg version="1.1" xmlns="http://www.w3.org/2000/svg" width="32" height="32" viewBox="0 0 32 32">
<path d="M16.345 25.569c-1.207 0-2.345-0.199-3.412-0.596s-2.035-0.952-2.903-1.663l-2.315 2.282c-0.182 0.185-0.413 0.277-0.694 0.277s-0.514-0.092-0.698-0.277c-0.185-0.185-0.277-0.417-0.277-0.698s0.092-0.512 0.277-0.694l2.282-2.282c-0.711-0.868-1.265-1.841-1.663-2.92s-0.596-2.221-0.596-3.429c0-2.792 0.969-5.156 2.906-7.094s4.302-2.906 7.094-2.906h7.974c0.562 0 1.041 0.197 1.435 0.591s0.591 0.872 0.591 1.435v7.974c0 2.792-0.969 5.156-2.906 7.094s-4.302 2.906-7.094 2.906zM16.345 23.569c2.222 0 4.111-0.778 5.667-2.333s2.333-3.444 2.333-5.667v-8h-8c-2.222 0-4.111 0.778-5.667 2.333s-2.333 3.444-2.333 5.667c0 0.927 0.15 1.808 0.451 2.644s0.719 1.589 1.254 2.259l6.939-6.938c0.182-0.185 0.413-0.277 0.694-0.277s0.515 0.094 0.702 0.281c0.204 0.204 0.306 0.441 0.306 0.709s-0.103 0.506-0.31 0.713l-6.939 6.926c0.67 0.535 1.423 0.95 2.259 1.244s1.717 0.441 2.644 0.441z"></path>
</svg>
