<!-- Generated by IcoMoon.io -->
<svg version="1.1" xmlns="http://www.w3.org/2000/svg" width="32" height="32" viewBox="0 0 32 32">
<path d="M19.393 11.497c0.542 0.542 0.961 1.201 1.256 1.976s0.408 1.553 0.336 2.335c0 0.256-0.092 0.473-0.277 0.651s-0.405 0.267-0.662 0.267c-0.257 0-0.474-0.089-0.651-0.267s-0.267-0.395-0.267-0.651c0.085-0.586 0.037-1.142-0.145-1.667s-0.462-0.976-0.84-1.354c-0.378-0.378-0.833-0.665-1.367-0.86s-1.096-0.247-1.687-0.153c-0.256 0.009-0.478-0.077-0.664-0.258s-0.284-0.399-0.292-0.655c-0.009-0.256 0.074-0.478 0.247-0.664s0.389-0.284 0.645-0.292c0.776-0.089 1.556 0.012 2.34 0.304s1.459 0.721 2.027 1.288zM15.557 8c-0.473 0-0.938 0.023-1.394 0.069s-0.909 0.122-1.36 0.228c-0.284 0.058-0.539 0.018-0.767-0.122s-0.384-0.34-0.469-0.601c-0.086-0.27-0.057-0.527 0.085-0.77s0.348-0.394 0.618-0.453c0.537-0.128 1.079-0.219 1.627-0.272s1.101-0.080 1.66-0.080c2.865 0 5.497 0.744 7.895 2.233s4.243 3.503 5.533 6.044c0.089 0.169 0.153 0.339 0.194 0.511s0.060 0.353 0.060 0.545-0.017 0.373-0.050 0.545c-0.033 0.172-0.094 0.342-0.183 0.511-0.408 0.855-0.905 1.652-1.49 2.391s-1.228 1.418-1.931 2.037c-0.207 0.185-0.443 0.261-0.709 0.229s-0.484-0.164-0.655-0.399c-0.171-0.234-0.242-0.485-0.213-0.754s0.147-0.495 0.354-0.68c0.602-0.545 1.151-1.141 1.646-1.788s0.923-1.345 1.282-2.094c-1.111-2.244-2.717-4.028-4.817-5.35s-4.405-1.983-6.917-1.983zM15.557 24.667c-2.807 0-5.38-0.75-7.718-2.25s-4.197-3.476-5.577-5.927c-0.111-0.169-0.192-0.353-0.244-0.551s-0.077-0.4-0.077-0.605 0.022-0.403 0.067-0.595c0.044-0.191 0.122-0.379 0.233-0.561 0.496-0.906 1.057-1.769 1.685-2.589s1.349-1.554 2.164-2.204l-3.010-3.031c-0.184-0.198-0.275-0.434-0.273-0.706s0.101-0.506 0.294-0.699 0.427-0.29 0.703-0.29c0.275 0 0.509 0.097 0.702 0.29l22.103 22.103c0.185 0.185 0.283 0.413 0.294 0.686s-0.087 0.512-0.294 0.719c-0.193 0.193-0.427 0.29-0.703 0.29s-0.509-0.097-0.702-0.29l-4.692-4.651c-0.786 0.304-1.595 0.524-2.425 0.659s-1.673 0.203-2.529 0.203zM7.496 10.79c-0.781 0.604-1.484 1.286-2.107 2.047s-1.145 1.594-1.565 2.496c1.111 2.244 2.717 4.028 4.817 5.35s4.406 1.983 6.917 1.983c0.573 0 1.136-0.038 1.691-0.115s1.105-0.196 1.653-0.356l-1.687-1.728c-0.27 0.118-0.54 0.198-0.809 0.24s-0.551 0.063-0.847 0.063c-1.513 0-2.797-0.528-3.853-1.583s-1.583-2.34-1.583-3.853c0-0.296 0.023-0.578 0.069-0.847s0.124-0.539 0.233-0.809l-2.928-2.887z"></path>
</svg>
