<!-- Generated by IcoMoon.io -->
<svg version="1.1" xmlns="http://www.w3.org/2000/svg" width="32" height="32" viewBox="0 0 32 32">
<path d="M25.726 28.456l-4.692-4.651c-0.786 0.304-1.595 0.524-2.425 0.659s-1.673 0.203-2.529 0.203c-2.807 0-5.377-0.747-7.712-2.24s-4.184-3.461-5.55-5.904c-0.111-0.191-0.192-0.386-0.244-0.585s-0.077-0.4-0.077-0.605 0.028-0.409 0.083-0.612c0.056-0.203 0.139-0.395 0.25-0.578 0.532-0.884 1.097-1.739 1.695-2.565s1.294-1.558 2.087-2.194l-3.010-3.031c-0.184-0.184-0.279-0.413-0.283-0.686s0.097-0.512 0.304-0.719c0.193-0.193 0.427-0.29 0.703-0.29s0.509 0.097 0.702 0.29l22.103 22.103c0.185 0.185 0.283 0.413 0.294 0.686s-0.087 0.512-0.294 0.719c-0.193 0.193-0.427 0.29-0.703 0.29s-0.509-0.097-0.702-0.29zM16.079 20.769c0.296 0 0.578-0.018 0.847-0.053s0.532-0.112 0.789-0.23l-6.79-6.79c-0.11 0.256-0.184 0.519-0.223 0.789s-0.059 0.552-0.059 0.847c0 1.513 0.528 2.797 1.583 3.853s2.34 1.583 3.853 1.583zM16.079 6c2.815 0 5.398 0.75 7.747 2.25s4.203 3.48 5.56 5.94c0.102 0.169 0.181 0.351 0.237 0.545s0.083 0.394 0.083 0.599-0.024 0.405-0.073 0.599c-0.049 0.194-0.124 0.376-0.227 0.545-0.405 0.771-0.858 1.497-1.359 2.179s-1.061 1.324-1.68 1.926c-0.277 0.277-0.605 0.404-0.985 0.382s-0.708-0.172-0.985-0.449l-2.795-2.782c-0.138-0.138-0.23-0.298-0.274-0.48s-0.042-0.37 0.008-0.567c0.063-0.229 0.108-0.451 0.136-0.667s0.041-0.444 0.041-0.687c0-1.513-0.528-2.797-1.583-3.853s-2.34-1.583-3.853-1.583c-0.243 0-0.469 0.016-0.681 0.048s-0.427 0.079-0.648 0.142c-0.196 0.058-0.393 0.065-0.59 0.020s-0.364-0.136-0.502-0.274l-1.241-1.241c-0.379-0.38-0.505-0.821-0.378-1.326s0.447-0.826 0.96-0.964c0.504-0.103 1.012-0.179 1.523-0.228s1.030-0.074 1.556-0.074zM18.661 12.815c0.27 0.298 0.493 0.631 0.668 1.001s0.285 0.757 0.329 1.16c0.022 0.161-0.038 0.272-0.181 0.335s-0.276 0.031-0.401-0.094l-2.861-2.849c-0.125-0.125-0.153-0.259-0.083-0.401s0.184-0.214 0.345-0.214c0.431 0.036 0.828 0.144 1.192 0.324s0.695 0.426 0.992 0.737z"></path>
</svg>
