<!-- Generated by IcoMoon.io -->
<svg version="1.1" xmlns="http://www.w3.org/2000/svg" width="32" height="32" viewBox="0 0 32 32">
<path d="M6.058 25.964v-11.795c0-0.382 0.085-0.743 0.256-1.084s0.407-0.623 0.708-0.844l7.59-5.718c0.421-0.321 0.902-0.482 1.444-0.482s1.024 0.161 1.448 0.482l7.59 5.718c0.301 0.221 0.537 0.502 0.708 0.844s0.256 0.703 0.256 1.084v11.795c0 0.545-0.197 1.015-0.591 1.409s-0.864 0.591-1.409 0.591h-4.256c-0.342 0-0.628-0.116-0.859-0.347s-0.347-0.517-0.347-0.859v-6.513c0-0.341-0.115-0.628-0.346-0.859s-0.517-0.346-0.859-0.346h-2.667c-0.342 0-0.628 0.115-0.859 0.346s-0.346 0.517-0.346 0.859v6.513c0 0.342-0.116 0.628-0.347 0.859s-0.517 0.347-0.859 0.347h-4.256c-0.545 0-1.015-0.197-1.409-0.591s-0.591-0.864-0.591-1.409z"></path>
</svg>
