<!-- Generated by IcoMoon.io -->
<svg version="1.1" xmlns="http://www.w3.org/2000/svg" width="32" height="32" viewBox="0 0 32 32">
<path d="M5.894 27.438c-0.663 0-1.23-0.236-1.702-0.708s-0.708-1.039-0.708-1.702v-11.385c0-0.382 0.085-0.743 0.256-1.084s0.407-0.623 0.708-0.844l7.59-5.718c0.221-0.161 0.453-0.281 0.694-0.362s0.493-0.12 0.755-0.12c0.262 0 0.513 0.040 0.753 0.12s0.471 0.201 0.691 0.362l3.403 2.567c0.27 0.207 0.409 0.444 0.415 0.713s-0.065 0.506-0.214 0.713-0.354 0.341-0.612 0.401c-0.258 0.060-0.529-0.013-0.812-0.22l-3.382-2.567c-0.068-0.060-0.15-0.090-0.244-0.090s-0.175 0.030-0.244 0.090l-7.59 5.705c-0.051 0.043-0.092 0.092-0.122 0.148s-0.045 0.117-0.045 0.186v11.385c0 0.12 0.038 0.218 0.115 0.295s0.175 0.115 0.295 0.115h4c0.283 0 0.521 0.096 0.712 0.288s0.288 0.429 0.288 0.713c0 0.284-0.096 0.521-0.288 0.712s-0.429 0.287-0.712 0.287h-4zM21.484 21.566c1.166 0 2.297 0.149 3.394 0.447s2.143 0.743 3.14 1.335c0.34 0.21 0.614 0.487 0.822 0.829s0.312 0.713 0.312 1.112v0.231c0 0.531-0.182 0.984-0.547 1.358s-0.822 0.56-1.371 0.56h-11.497c-0.531 0-0.984-0.187-1.358-0.56s-0.56-0.826-0.56-1.358v-0.231c0-0.399 0.104-0.769 0.312-1.112s0.481-0.619 0.822-0.829c0.997-0.592 2.043-1.036 3.14-1.335s2.228-0.447 3.394-0.447zM15.94 25.438h11.087v-0.359c-0.846-0.487-1.735-0.861-2.665-1.122s-1.89-0.391-2.878-0.391-1.947 0.13-2.878 0.391c-0.931 0.261-1.819 0.635-2.665 1.122v0.359zM21.486 19.502c-1.018 0-1.884-0.356-2.598-1.069s-1.071-1.578-1.071-2.596c0-1.018 0.356-1.884 1.069-2.598s1.578-1.071 2.596-1.071c1.018 0 1.884 0.356 2.598 1.069s1.071 1.578 1.071 2.596c0 1.018-0.356 1.884-1.069 2.598s-1.578 1.070-2.596 1.070zM21.484 17.502c0.463 0 0.857-0.162 1.181-0.486s0.486-0.718 0.486-1.181c0-0.463-0.162-0.857-0.486-1.181s-0.717-0.486-1.181-0.486-0.857 0.162-1.181 0.486c-0.324 0.324-0.486 0.717-0.486 1.181s0.162 0.857 0.486 1.181c0.324 0.324 0.717 0.486 1.181 0.486z"></path>
</svg>
