<!-- Generated by IcoMoon.io -->
<svg version="1.1" xmlns="http://www.w3.org/2000/svg" width="32" height="32" viewBox="0 0 32 32">
<path d="M16 17.941c-0.197 0-0.388-0.026-0.573-0.077s-0.37-0.124-0.553-0.218l-10.882-5.787c-0.219-0.125-0.376-0.279-0.472-0.462s-0.144-0.384-0.144-0.602c0-0.219 0.048-0.42 0.144-0.603s0.253-0.337 0.472-0.462l10.882-5.787c0.183-0.094 0.367-0.167 0.553-0.218s0.376-0.077 0.573-0.077 0.388 0.026 0.573 0.077c0.186 0.051 0.37 0.124 0.553 0.218l10.895 5.787c0.219 0.125 0.376 0.279 0.472 0.462s0.144 0.384 0.144 0.603c0 0.219-0.048 0.419-0.144 0.602s-0.253 0.337-0.472 0.462l-10.895 5.787c-0.183 0.094-0.367 0.167-0.553 0.218s-0.376 0.077-0.573 0.077zM16 15.98l9.831-5.185-9.831-5.185-9.818 5.185 9.818 5.185zM16 21.185l10.672-5.649c0.053-0.031 0.234-0.061 0.544-0.090 0.267 0.017 0.485 0.117 0.655 0.3s0.255 0.408 0.255 0.674c0 0.184-0.041 0.351-0.122 0.5s-0.214 0.273-0.399 0.372l-10.479 5.559c-0.183 0.094-0.367 0.167-0.553 0.218s-0.376 0.077-0.573 0.077-0.388-0.026-0.573-0.077c-0.186-0.051-0.37-0.124-0.553-0.218l-10.467-5.559c-0.185-0.099-0.32-0.223-0.405-0.372s-0.128-0.315-0.128-0.5c0-0.267 0.087-0.491 0.262-0.674s0.395-0.283 0.661-0.3c0.094-0.017 0.185-0.018 0.272-0.001s0.178 0.047 0.272 0.091l10.659 5.649zM16 26.39l10.672-5.649c0.053-0.031 0.234-0.061 0.544-0.090 0.267 0.017 0.485 0.117 0.655 0.3s0.255 0.408 0.255 0.674c0 0.185-0.041 0.351-0.122 0.5s-0.214 0.273-0.399 0.372l-10.479 5.559c-0.183 0.094-0.367 0.167-0.553 0.218s-0.376 0.077-0.573 0.077-0.388-0.026-0.573-0.077c-0.186-0.051-0.37-0.124-0.553-0.218l-10.467-5.559c-0.185-0.099-0.32-0.223-0.405-0.372s-0.128-0.315-0.128-0.5c0-0.267 0.087-0.491 0.262-0.674s0.395-0.283 0.661-0.3c0.094-0.017 0.185-0.018 0.272-0.001s0.178 0.047 0.272 0.091l10.659 5.649z"></path>
</svg>
