<!-- Generated by IcoMoon.io -->
<svg version="1.1" xmlns="http://www.w3.org/2000/svg" width="32" height="32" viewBox="0 0 32 32">
<path d="M16 24.213c-0.25 0-0.496-0.042-0.738-0.127s-0.465-0.212-0.667-0.381c-2.417-2.029-4.232-4.014-5.444-5.956s-1.818-3.821-1.818-5.638c0-2.564 0.807-4.668 2.421-6.312s3.696-2.465 6.246-2.465 4.632 0.822 6.246 2.465c1.614 1.644 2.421 3.747 2.421 6.312 0 1.817-0.606 3.694-1.818 5.632s-3.027 3.923-5.444 5.957c-0.205 0.173-0.428 0.302-0.669 0.387s-0.486 0.127-0.736 0.127zM16.002 14.41c0.663 0 1.23-0.236 1.701-0.709s0.707-1.040 0.707-1.704c0-0.663-0.236-1.23-0.709-1.701s-1.040-0.707-1.704-0.707c-0.663 0-1.231 0.236-1.701 0.709s-0.707 1.040-0.707 1.704c0 0.663 0.236 1.23 0.709 1.701s1.040 0.707 1.704 0.707zM8.333 28.667c-0.283 0-0.521-0.096-0.712-0.288s-0.288-0.429-0.288-0.713c0-0.284 0.096-0.521 0.288-0.712s0.429-0.287 0.712-0.287h15.333c0.283 0 0.521 0.096 0.712 0.288s0.288 0.429 0.288 0.713c0 0.284-0.096 0.521-0.288 0.712s-0.429 0.287-0.712 0.287h-15.333z"></path>
</svg>
