<!-- Generated by IcoMoon.io -->
<svg version="1.1" xmlns="http://www.w3.org/2000/svg" width="32" height="32" viewBox="0 0 32 32">
<path d="M2.56 17.217c-0.198-0.198-0.296-0.431-0.293-0.696s0.107-0.502 0.314-0.709c0.207-0.193 0.441-0.293 0.703-0.3s0.495 0.093 0.702 0.3l4.964 4.964 0.333-0.333c0.13 0.062 0.266 0.138 0.409 0.229s0.283 0.207 0.422 0.345c0.207 0.207 0.307 0.441 0.3 0.702s-0.114 0.496-0.321 0.703l-0.32 0.321c-0.241 0.227-0.522 0.344-0.844 0.351s-0.603-0.11-0.844-0.351l-5.526-5.526zM16.463 20.755l11.564-11.564c0.199-0.198 0.431-0.296 0.696-0.294s0.502 0.107 0.709 0.314c0.193 0.207 0.293 0.441 0.3 0.703s-0.093 0.496-0.3 0.703l-12.126 12.126c-0.241 0.241-0.522 0.361-0.844 0.361s-0.603-0.12-0.844-0.361l-5.526-5.526c-0.184-0.185-0.279-0.413-0.283-0.686s0.090-0.512 0.283-0.719c0.207-0.207 0.445-0.31 0.713-0.31s0.506 0.103 0.713 0.31l4.944 4.944zM21.878 10.637l-5.174 5.174c-0.185 0.185-0.413 0.279-0.686 0.283s-0.512-0.090-0.719-0.283c-0.207-0.207-0.31-0.444-0.31-0.713s0.103-0.506 0.31-0.713l5.174-5.175c0.185-0.184 0.413-0.279 0.686-0.283s0.513 0.090 0.719 0.283c0.207 0.207 0.31 0.445 0.31 0.713s-0.103 0.506-0.31 0.713z"></path>
</svg>
