<!-- Generated by IcoMoon.io -->
<svg version="1.1" xmlns="http://www.w3.org/2000/svg" width="32" height="32" viewBox="0 0 32 32">
<path d="M17.262 16l-5.431-5.431c-0.184-0.185-0.279-0.417-0.283-0.696s0.090-0.516 0.283-0.709c0.193-0.193 0.428-0.29 0.703-0.29s0.509 0.097 0.703 0.29l5.992 5.992c0.125 0.125 0.213 0.257 0.264 0.395s0.077 0.288 0.077 0.449c0 0.161-0.026 0.31-0.077 0.449s-0.139 0.27-0.264 0.395l-5.992 5.992c-0.185 0.184-0.417 0.279-0.696 0.283s-0.516-0.090-0.709-0.283c-0.193-0.193-0.29-0.428-0.29-0.703s0.097-0.509 0.29-0.703l5.431-5.431z"></path>
</svg>
