<!-- Generated by IcoMoon.io -->
<svg version="1.1" xmlns="http://www.w3.org/2000/svg" width="32" height="32" viewBox="0 0 32 32">
<path d="M25.727 27.7l-11.087-11.154c-0.928 0.096-1.824 0.315-2.689 0.659s-1.642 0.79-2.335 1.339c-0.347 0.243-0.729 0.37-1.146 0.381s-0.768-0.132-1.051-0.43c-0.297-0.297-0.432-0.659-0.403-1.084s0.21-0.767 0.544-1.023c0.656-0.532 1.379-0.998 2.168-1.399s1.607-0.7 2.455-0.899l-3.949-3.949c-0.714 0.32-1.442 0.711-2.183 1.176s-1.44 0.973-2.096 1.527c-0.333 0.27-0.711 0.409-1.132 0.418s-0.774-0.136-1.058-0.433c-0.297-0.297-0.435-0.653-0.413-1.068s0.196-0.757 0.521-1.027c0.643-0.571 1.316-1.097 2.019-1.58s1.413-0.891 2.127-1.228l-2.226-2.226c-0.185-0.185-0.279-0.417-0.283-0.696s0.090-0.516 0.283-0.709c0.193-0.193 0.427-0.29 0.703-0.29s0.509 0.097 0.703 0.29l21.966 21.966c0.207 0.207 0.31 0.447 0.31 0.719s-0.103 0.512-0.31 0.719c-0.207 0.184-0.446 0.282-0.719 0.293s-0.512-0.087-0.719-0.293zM15.994 26.705c-0.754 0-1.391-0.264-1.912-0.791s-0.781-1.161-0.781-1.901c0-0.754 0.26-1.391 0.781-1.911s1.158-0.781 1.912-0.781 1.391 0.26 1.912 0.781c0.521 0.52 0.781 1.157 0.781 1.911 0 0.74-0.26 1.374-0.781 1.901s-1.158 0.791-1.912 0.791zM24.735 18.282c-0.253 0.253-0.548 0.376-0.885 0.369s-0.631-0.137-0.885-0.39l-2.815-2.815c-0.238-0.238-0.278-0.482-0.122-0.733s0.406-0.321 0.747-0.21c0.701 0.21 1.369 0.484 2.004 0.822s1.234 0.729 1.799 1.176c0.289 0.225 0.45 0.516 0.485 0.87s-0.075 0.659-0.328 0.912zM30.235 12.828c-0.292 0.306-0.648 0.454-1.067 0.444s-0.799-0.155-1.141-0.433c-1.626-1.396-3.463-2.481-5.512-3.255s-4.223-1.16-6.522-1.16c-0.467 0-0.923 0.017-1.369 0.050s-0.878 0.083-1.297 0.15c-0.41 0.072-0.782-0.015-1.115-0.26s-0.536-0.573-0.608-0.983c-0.072-0.41 0.018-0.782 0.27-1.115s0.583-0.536 0.994-0.608c0.474-0.072 0.97-0.124 1.488-0.158s1.065-0.050 1.637-0.050c2.726 0 5.288 0.465 7.683 1.396s4.541 2.216 6.437 3.855c0.333 0.284 0.511 0.635 0.533 1.054s-0.115 0.777-0.413 1.074z"></path>
</svg>
