<!-- Generated by IcoMoon.io -->
<svg version="1.1" xmlns="http://www.w3.org/2000/svg" width="32" height="32" viewBox="0 0 32 32">
<path d="M7 25.179c-0.283 0-0.521-0.096-0.712-0.287s-0.288-0.429-0.288-0.713c0-0.283 0.096-0.521 0.288-0.712s0.429-0.287 0.712-0.287h1.41v-9.949c0-1.793 0.553-3.379 1.66-4.756s2.528-2.259 4.263-2.644v-0.831c0-0.463 0.162-0.856 0.486-1.181s0.717-0.486 1.179-0.486c0.463 0 0.856 0.162 1.181 0.486s0.487 0.718 0.487 1.181v0.831c1.735 0.385 3.156 1.266 4.263 2.644s1.66 2.963 1.66 4.756v9.949h1.41c0.283 0 0.521 0.096 0.712 0.287s0.288 0.429 0.288 0.713c0 0.283-0.096 0.521-0.288 0.712s-0.429 0.287-0.712 0.287h-18zM15.998 28.923c-0.663 0-1.231-0.236-1.701-0.708s-0.707-1.039-0.707-1.702h4.821c0 0.665-0.236 1.233-0.709 1.704s-1.040 0.706-1.704 0.706z"></path>
</svg>
