<!-- Generated by IcoMoon.io -->
<svg version="1.1" xmlns="http://www.w3.org/2000/svg" width="31" height="32" viewBox="0 0 31 32">
<path d="M4.874 12.781v-6.646c0-0.328 0.111-0.602 0.332-0.824s0.497-0.332 0.824-0.332h6.646c0.328 0 0.603 0.111 0.824 0.332s0.333 0.497 0.333 0.824v6.646c0 0.328-0.111 0.603-0.333 0.824s-0.496 0.333-0.824 0.333h-6.646c-0.328 0-0.602-0.111-0.824-0.333s-0.332-0.496-0.332-0.824zM16.886 24.793v-6.646c0-0.328 0.111-0.603 0.333-0.824s0.497-0.333 0.824-0.333h6.646c0.328 0 0.602 0.111 0.824 0.333s0.332 0.497 0.332 0.824v6.646c0 0.328-0.111 0.602-0.332 0.824s-0.497 0.332-0.824 0.332h-6.646c-0.328 0-0.603-0.111-0.824-0.332s-0.333-0.497-0.333-0.824zM4.874 24.793v-6.646c0-0.328 0.111-0.603 0.332-0.824s0.497-0.333 0.824-0.333h6.646c0.328 0 0.603 0.111 0.824 0.333s0.333 0.497 0.333 0.824v6.646c0 0.328-0.111 0.602-0.333 0.824s-0.496 0.332-0.824 0.332h-6.646c-0.328 0-0.602-0.111-0.824-0.332s-0.332-0.497-0.332-0.824zM6.794 12.018h5.12v-5.12h-5.12v5.12zM18.806 24.030h5.12v-5.12h-5.12v5.12zM6.794 24.030h5.12v-5.12h-5.12v5.12z"></path>
<path d="M20.281 15.27l-4.701-4.701c-0.12-0.12-0.205-0.247-0.254-0.381s-0.074-0.278-0.074-0.431 0.025-0.296 0.074-0.429c0.049-0.133 0.134-0.259 0.254-0.379l4.701-4.702c0.12-0.12 0.247-0.204 0.381-0.253s0.277-0.074 0.431-0.074c0.153 0 0.296 0.025 0.429 0.074s0.259 0.134 0.379 0.253l4.702 4.702c0.12 0.12 0.204 0.246 0.253 0.38s0.074 0.278 0.074 0.431c0 0.153-0.025 0.296-0.074 0.429s-0.134 0.26-0.253 0.379l-4.702 4.701c-0.12 0.12-0.247 0.204-0.38 0.253s-0.278 0.074-0.431 0.074c-0.153 0-0.296-0.025-0.429-0.074s-0.259-0.133-0.379-0.253zM21.123 13.406l3.616-3.616-3.616-3.616-3.616 3.616 3.616 3.616z"></path>
</svg>
