<!-- Generated by IcoMoon.io -->
<svg version="1.1" xmlns="http://www.w3.org/2000/svg" width="32" height="32" viewBox="0 0 32 32">
<path d="M7.699 28.288c-0.932 0-1.72-0.323-2.365-0.968s-0.968-1.434-0.968-2.365v-2.128c0-0.344 0.115-0.631 0.345-0.86s0.517-0.345 0.86-0.345h2.795v-17.751c0-0.138 0.056-0.231 0.168-0.278s0.219-0.028 0.322 0.058l0.98 0.813c0.116 0.099 0.242 0.149 0.377 0.149s0.26-0.050 0.377-0.149l1.118-0.913c0.116-0.099 0.242-0.149 0.377-0.149s0.261 0.050 0.377 0.149l1.118 0.913c0.116 0.099 0.242 0.149 0.377 0.149s0.261-0.050 0.377-0.149l1.118-0.913c0.116-0.099 0.242-0.149 0.377-0.149s0.26 0.050 0.377 0.149l1.118 0.913c0.116 0.099 0.242 0.149 0.377 0.149s0.261-0.050 0.377-0.149l1.118-0.913c0.116-0.099 0.242-0.149 0.377-0.149s0.261 0.050 0.377 0.149l1.118 0.913c0.116 0.099 0.242 0.149 0.377 0.149s0.26-0.050 0.377-0.149l1.118-0.913c0.116-0.099 0.242-0.149 0.377-0.149s0.261 0.050 0.377 0.149l1.118 0.913c0.116 0.099 0.242 0.149 0.377 0.149s0.261-0.050 0.377-0.149l0.98-0.813c0.102-0.086 0.21-0.105 0.322-0.058s0.168 0.14 0.168 0.278v21.085c0 0.931-0.323 1.72-0.968 2.365s-1.434 0.968-2.365 0.968h-16zM23.699 26.288c0.378 0 0.695-0.128 0.95-0.383s0.383-0.572 0.383-0.95v-18.667h-14.667v15.333h10.795c0.343 0 0.63 0.115 0.86 0.345s0.345 0.517 0.345 0.86v2.128c0 0.378 0.128 0.694 0.383 0.95s0.572 0.383 0.95 0.383zM12.955 9.288h5.564c0.284 0 0.521 0.096 0.713 0.287s0.287 0.429 0.287 0.713-0.096 0.521-0.287 0.713c-0.191 0.192-0.429 0.287-0.713 0.287h-5.564c-0.284 0-0.521-0.096-0.713-0.287s-0.287-0.429-0.287-0.713 0.096-0.521 0.287-0.713c0.191-0.192 0.429-0.287 0.713-0.287zM12.955 13.288h5.564c0.284 0 0.521 0.096 0.713 0.287s0.287 0.429 0.287 0.713c0 0.284-0.096 0.521-0.287 0.713s-0.429 0.287-0.713 0.287h-5.564c-0.284 0-0.521-0.096-0.713-0.287s-0.287-0.429-0.287-0.713c0-0.284 0.096-0.521 0.287-0.713s0.429-0.287 0.713-0.287zM22.288 11.467c-0.327 0-0.605-0.115-0.835-0.345s-0.345-0.508-0.345-0.835 0.115-0.605 0.345-0.835c0.23-0.23 0.508-0.345 0.835-0.345s0.605 0.115 0.835 0.345c0.23 0.23 0.345 0.508 0.345 0.835s-0.115 0.605-0.345 0.835c-0.23 0.23-0.508 0.345-0.835 0.345zM22.288 15.467c-0.327 0-0.605-0.115-0.835-0.345s-0.345-0.508-0.345-0.835c0-0.327 0.115-0.605 0.345-0.835s0.508-0.345 0.835-0.345c0.326 0 0.605 0.115 0.835 0.345s0.345 0.508 0.345 0.835c0 0.326-0.115 0.605-0.345 0.835s-0.508 0.345-0.835 0.345zM7.699 26.288h12.667v-2.667h-14v1.333c0 0.378 0.128 0.694 0.383 0.95s0.572 0.383 0.95 0.383z"></path>
</svg>
