<!-- Generated by IcoMoon.io -->
<svg version="1.1" xmlns="http://www.w3.org/2000/svg" width="32" height="32" viewBox="0 0 32 32">
<path d="M16.002 27.624c-1.682 0-3.263-0.319-4.743-0.957s-2.767-1.505-3.862-2.599c-1.095-1.094-1.961-2.381-2.6-3.86s-0.958-3.060-0.958-4.742c0-1.682 0.319-3.263 0.957-4.743s1.505-2.767 2.599-3.862c1.094-1.095 2.381-1.961 3.86-2.6s3.060-0.958 4.742-0.958c1.682 0 3.263 0.319 4.743 0.957s2.767 1.505 3.862 2.599c1.095 1.094 1.961 2.381 2.6 3.86s0.958 3.060 0.958 4.741c0 1.682-0.319 3.263-0.957 4.743s-1.505 2.767-2.599 3.862c-1.094 1.095-2.381 1.961-3.86 2.6s-3.060 0.958-4.742 0.958zM16 25.704c2.859 0 5.28-0.992 7.264-2.976s2.976-4.405 2.976-7.264c0-2.859-0.992-5.28-2.976-7.264s-4.405-2.976-7.264-2.976c-2.859 0-5.28 0.992-7.264 2.976s-2.976 4.405-2.976 7.264c0 2.859 0.992 5.28 2.976 7.264s4.405 2.976 7.264 2.976z"></path>
<path d="M14.183 18.211l-2.973-2.974c-0.177-0.177-0.4-0.268-0.668-0.272s-0.495 0.087-0.681 0.272c-0.185 0.186-0.278 0.411-0.278 0.675s0.093 0.489 0.278 0.675l3.513 3.513c0.231 0.231 0.501 0.347 0.81 0.347s0.578-0.116 0.81-0.347l7.121-7.121c0.177-0.177 0.268-0.4 0.272-0.668s-0.087-0.495-0.272-0.681c-0.186-0.185-0.41-0.278-0.675-0.278s-0.489 0.093-0.675 0.278l-6.582 6.582z"></path>
</svg>
