<!-- Generated by IcoMoon.io -->
<svg version="1.1" xmlns="http://www.w3.org/2000/svg" width="32" height="32" viewBox="0 0 32 32">
<path d="M5.333 12.795v-7.59c0-0.342 0.116-0.628 0.347-0.859s0.517-0.347 0.859-0.347h7.59c0.341 0 0.627 0.116 0.859 0.347s0.346 0.517 0.346 0.859v7.59c0 0.341-0.115 0.628-0.346 0.859s-0.517 0.346-0.859 0.346h-7.59c-0.342 0-0.628-0.115-0.859-0.346s-0.347-0.517-0.347-0.859zM7.333 12h6v-6h-6v6zM5.333 25.461v-7.59c0-0.341 0.116-0.628 0.347-0.859s0.517-0.346 0.859-0.346h7.59c0.341 0 0.627 0.115 0.859 0.346s0.346 0.517 0.346 0.859v7.59c0 0.342-0.115 0.628-0.346 0.859s-0.517 0.347-0.859 0.347h-7.59c-0.342 0-0.628-0.116-0.859-0.347s-0.347-0.517-0.347-0.859zM7.333 24.667h6v-6h-6v6zM18 12.795v-7.59c0-0.342 0.115-0.628 0.346-0.859s0.517-0.347 0.859-0.347h7.59c0.342 0 0.628 0.116 0.859 0.347s0.347 0.517 0.347 0.859v7.59c0 0.341-0.116 0.628-0.347 0.859s-0.517 0.346-0.859 0.346h-7.59c-0.341 0-0.628-0.115-0.859-0.346s-0.346-0.517-0.346-0.859zM20 12h6v-6h-6v6zM25.5 26.667v-2.5h2.5v2.5h-2.5zM18 19.167v-2.5h2.5v2.5h-2.5zM20.5 21.667v-2.5h2.5v2.5h-2.5zM18 24.167v-2.5h2.5v2.5h-2.5zM20.5 26.667v-2.5h2.5v2.5h-2.5zM23 24.167v-2.5h2.5v2.5h-2.5zM23 19.167v-2.5h2.5v2.5h-2.5zM25.5 21.667v-2.5h2.5v2.5h-2.5z"></path>
</svg>
