<!-- Generated by IcoMoon.io -->
<svg version="1.1" xmlns="http://www.w3.org/2000/svg" width="32" height="32" viewBox="0 0 32 32">
<path d="M24.066 19.333c2.025 0 3.667 1.642 3.667 3.667s-1.642 3.667-3.667 3.667c-2.025 0-3.667-1.642-3.667-3.667s1.642-3.667 3.667-3.667zM24.066 20.932c-0.295 0-0.534 0.239-0.534 0.534v1.133h-1.133c-0.295 0-0.534 0.239-0.534 0.534s0.239 0.534 0.534 0.534h1.133v1.133c0 0.295 0.239 0.534 0.534 0.534s0.534-0.239 0.534-0.534v-1.133h1.133l0.108-0.012c0.243-0.050 0.426-0.265 0.426-0.522s-0.183-0.472-0.426-0.522l-0.108-0.012h-1.133v-1.133c0-0.295-0.239-0.534-0.534-0.534zM25.296 7c0.414 0 0.811 0.15 1.104 0.415s0.457 0.626 0.457 1.001v11.221c-0.441-0.416-0.971-0.739-1.561-0.932v-10.289h-18.734v14.167h13.275c-0.001 0.028-0.003 0.055-0.003 0.083 0 0.466 0.077 0.915 0.219 1.333h-13.491c-0.414 0-0.811-0.15-1.104-0.415s-0.457-0.626-0.457-1.001v-14.167c0-0.376 0.164-0.736 0.457-1.001s0.69-0.415 1.104-0.415h18.734zM21.029 16.888c0.58 0 1.136 0.219 1.546 0.609 0.312 0.297 0.519 0.676 0.6 1.083-0.514 0.103-0.991 0.305-1.418 0.578v-0.19c-0-0.184-0.076-0.36-0.212-0.49s-0.322-0.203-0.516-0.203h-4.371c-0.193 0-0.379 0.073-0.516 0.203s-0.213 0.306-0.213 0.49v1.388h-1.457v-1.388c0-0.552 0.231-1.081 0.641-1.471s0.966-0.609 1.546-0.609h4.371zM17.728 10.854c0.532-0.21 1.118-0.265 1.684-0.158s1.085 0.371 1.492 0.759c0.407 0.388 0.684 0.882 0.797 1.421s0.055 1.097-0.165 1.604c-0.221 0.507-0.594 0.941-1.073 1.246s-1.043 0.467-1.62 0.467c-0.773-0-1.513-0.292-2.060-0.813s-0.854-1.227-0.854-1.963c0-0.549 0.171-1.085 0.491-1.542s0.776-0.812 1.309-1.022zM11.557 15.5h-2.914v-1.388h2.914v1.388zM18.842 12.031c-0.386 0-0.757 0.146-1.030 0.406s-0.427 0.613-0.427 0.98c0 0.274 0.086 0.543 0.246 0.771s0.387 0.407 0.654 0.512 0.56 0.133 0.842 0.079c0.283-0.054 0.542-0.186 0.746-0.38s0.342-0.442 0.398-0.711c0.056-0.269 0.027-0.549-0.083-0.802s-0.297-0.47-0.536-0.622c-0.24-0.152-0.522-0.233-0.81-0.233zM13.743 12.724h-5.1v-1.387h5.1v1.387z"></path>
</svg>
