<!-- Generated by IcoMoon.io -->
<svg version="1.1" xmlns="http://www.w3.org/2000/svg" width="32" height="32" viewBox="0 0 32 32">
<path d="M25.296 8.417v14.167h-18.735v-14.167h18.735zM25.296 7h-18.735c-0.414 0-0.811 0.149-1.104 0.415s-0.457 0.626-0.457 1.002v14.167c0 0.376 0.165 0.736 0.457 1.002s0.69 0.415 1.104 0.415h18.735c0.414 0 0.811-0.149 1.104-0.415s0.457-0.626 0.457-1.002v-14.167c0-0.376-0.164-0.736-0.457-1.002s-0.69-0.415-1.104-0.415z"></path>
<path d="M8.643 11.337h5.1v1.388h-5.1v-1.388zM8.643 14.112h2.914v1.388h-2.914v-1.388zM21.028 16.888h-4.371c-0.58 0-1.136 0.219-1.546 0.61s-0.64 0.92-0.64 1.472v1.388h1.457v-1.388c0-0.184 0.077-0.361 0.213-0.491s0.322-0.203 0.515-0.203h4.371c0.193 0 0.378 0.073 0.515 0.203s0.213 0.307 0.213 0.491v1.388h1.457v-1.388c0-0.552-0.23-1.082-0.64-1.472s-0.966-0.61-1.546-0.61zM18.843 16.194c0.576 0 1.14-0.163 1.619-0.468s0.853-0.739 1.073-1.246c0.221-0.507 0.278-1.065 0.166-1.604s-0.39-1.033-0.798-1.421c-0.408-0.388-0.927-0.653-1.492-0.76s-1.151-0.052-1.684 0.158-0.988 0.566-1.308 1.022c-0.32 0.457-0.491 0.993-0.491 1.542 0 0.736 0.307 1.442 0.854 1.963s1.288 0.813 2.061 0.813zM18.843 12.031c0.288 0 0.57 0.081 0.809 0.234s0.426 0.369 0.537 0.623c0.11 0.254 0.139 0.533 0.083 0.802s-0.195 0.516-0.399 0.71c-0.204 0.194-0.463 0.326-0.746 0.38s-0.576 0.026-0.842-0.079c-0.266-0.105-0.494-0.283-0.654-0.511s-0.246-0.496-0.246-0.771c0-0.368 0.154-0.721 0.427-0.981s0.644-0.406 1.030-0.406z"></path>
<path d="M24 28.167c2.301 0 4.167-1.866 4.167-4.167s-1.865-4.167-4.167-4.167-4.167 1.866-4.167 4.167c0 2.301 1.866 4.167 4.167 4.167z"></path>
<path fill="none" stroke="#f3f4f6" stroke-linejoin="round" stroke-linecap="round" stroke-miterlimit="4" stroke-width="0.8" d="M24 22.333v3.333M22.333 24h3.333M28.166 24c0 2.301-1.865 4.167-4.167 4.167s-4.167-1.866-4.167-4.167c0-2.301 1.866-4.167 4.167-4.167s4.167 1.866 4.167 4.167z"></path>
</svg>
