<!-- Generated by IcoMoon.io -->
<svg version="1.1" xmlns="http://www.w3.org/2000/svg" width="31" height="32" viewBox="0 0 31 32">
<path d="M5.060 26.817c-0.272 0-0.5-0.092-0.684-0.276s-0.276-0.412-0.276-0.684v-1.145c0-0.272 0.092-0.5 0.276-0.684s0.412-0.276 0.684-0.276c0.272 0 0.5 0.092 0.684 0.276s0.276 0.412 0.276 0.684v1.145c0 0.272-0.092 0.5-0.276 0.684s-0.412 0.276-0.684 0.276zM10.18 26.817c-0.272 0-0.5-0.092-0.684-0.276s-0.276-0.412-0.276-0.684v-6.905c0-0.272 0.092-0.5 0.276-0.684s0.412-0.276 0.684-0.276c0.272 0 0.5 0.092 0.684 0.276s0.276 0.412 0.276 0.684v6.905c0 0.272-0.092 0.5-0.276 0.684s-0.412 0.276-0.684 0.276zM15.3 26.817c-0.272 0-0.5-0.092-0.684-0.276s-0.276-0.412-0.276-0.684v-4.345c0-0.272 0.092-0.5 0.276-0.684s0.412-0.276 0.684-0.276c0.272 0 0.5 0.092 0.684 0.276s0.276 0.412 0.276 0.684v4.345c0 0.272-0.092 0.5-0.276 0.684s-0.412 0.276-0.684 0.276zM20.42 26.817c-0.272 0-0.5-0.092-0.684-0.276s-0.276-0.412-0.276-0.684v-6.265c0-0.272 0.092-0.5 0.276-0.684s0.412-0.276 0.684-0.276c0.272 0 0.5 0.092 0.684 0.276s0.276 0.412 0.276 0.684v6.265c0 0.272-0.092 0.5-0.276 0.684s-0.412 0.276-0.684 0.276zM25.54 26.817c-0.272 0-0.5-0.092-0.684-0.276s-0.276-0.412-0.276-0.684v-11.385c0-0.272 0.092-0.5 0.276-0.684s0.412-0.276 0.684-0.276c0.272 0 0.5 0.092 0.684 0.276s0.276 0.412 0.276 0.684v11.385c0 0.272-0.092 0.5-0.276 0.684s-0.412 0.276-0.684 0.276z"></path>
<path d="M17.86 15.241c-0.3 0-0.591-0.058-0.871-0.173s-0.536-0.278-0.768-0.489l-3.197-3.198c-0.074-0.074-0.168-0.111-0.283-0.111s-0.209 0.037-0.283 0.111l-6.722 6.723c-0.191 0.19-0.419 0.284-0.684 0.282s-0.494-0.103-0.684-0.301c-0.177-0.19-0.262-0.417-0.254-0.68s0.099-0.482 0.274-0.657l6.715-6.715c0.232-0.23 0.488-0.398 0.768-0.504s0.571-0.158 0.871-0.158c0.3 0 0.596 0.053 0.885 0.158s0.541 0.274 0.754 0.504l3.197 3.198c0.074 0.074 0.168 0.111 0.283 0.111s0.209-0.037 0.283-0.111l6.722-6.723c0.191-0.19 0.419-0.284 0.685-0.282s0.494 0.103 0.684 0.301c0.177 0.191 0.262 0.417 0.254 0.68s-0.099 0.482-0.274 0.657l-6.715 6.715c-0.213 0.211-0.464 0.374-0.754 0.489s-0.585 0.173-0.886 0.173z"></path>
</svg>
