<!-- Generated by IcoMoon.io -->
<svg version="1.1" xmlns="http://www.w3.org/2000/svg" width="32" height="32" viewBox="0 0 32 32">
<path d="M4.333 9.359c-0.284 0-0.521-0.096-0.712-0.288s-0.287-0.429-0.287-0.712v-3.82c0-0.342 0.116-0.628 0.347-0.859s0.517-0.347 0.859-0.347h3.82c0.283 0 0.521 0.096 0.712 0.288s0.288 0.429 0.288 0.713c0 0.284-0.096 0.521-0.288 0.712s-0.429 0.287-0.712 0.287h-3.026v3.026c0 0.283-0.096 0.521-0.288 0.712s-0.429 0.288-0.713 0.288zM4.539 28.667c-0.342 0-0.628-0.116-0.859-0.347s-0.347-0.517-0.347-0.859v-3.82c0-0.283 0.096-0.521 0.288-0.712s0.429-0.288 0.713-0.288c0.284 0 0.521 0.096 0.712 0.288s0.287 0.429 0.287 0.712v3.026h3.026c0.283 0 0.521 0.096 0.712 0.288s0.288 0.429 0.288 0.713c0 0.284-0.096 0.521-0.288 0.712s-0.429 0.287-0.712 0.287h-3.82zM23.641 28.667c-0.283 0-0.521-0.096-0.712-0.288s-0.288-0.429-0.288-0.713c0-0.284 0.096-0.521 0.288-0.712s0.429-0.287 0.712-0.287h3.026v-3.026c0-0.283 0.096-0.521 0.288-0.712s0.429-0.288 0.713-0.288c0.284 0 0.521 0.096 0.712 0.288s0.287 0.429 0.287 0.712v3.82c0 0.342-0.116 0.628-0.347 0.859s-0.517 0.347-0.859 0.347h-3.82zM27.666 9.359c-0.284 0-0.521-0.096-0.712-0.288s-0.287-0.429-0.287-0.712v-3.026h-3.026c-0.283 0-0.521-0.096-0.712-0.288s-0.288-0.429-0.288-0.713c0-0.284 0.096-0.521 0.288-0.712s0.429-0.287 0.712-0.287h3.82c0.342 0 0.628 0.116 0.859 0.347s0.347 0.517 0.347 0.859v3.82c0 0.283-0.096 0.521-0.288 0.712s-0.429 0.288-0.713 0.288zM22.962 24.769v-1.808h1.808v1.808h-1.808zM22.962 21.154v-1.808h1.808v1.808h-1.808zM21.154 22.962v-1.808h1.808v1.808h-1.808zM19.346 24.769v-1.808h1.808v1.808h-1.808zM17.538 22.962v-1.808h1.808v1.808h-1.808zM21.154 19.346v-1.808h1.808v1.808h-1.808zM19.346 21.154v-1.808h1.808v1.808h-1.808zM17.538 19.346v-1.808h1.808v1.808h-1.808zM18.741 14.462c-0.342 0-0.627-0.115-0.857-0.347s-0.345-0.518-0.345-0.859v-4.823c0-0.342 0.115-0.627 0.347-0.857s0.518-0.345 0.859-0.345h4.823c0.341 0 0.627 0.116 0.857 0.347s0.345 0.518 0.345 0.859v4.823c0 0.342-0.116 0.627-0.347 0.857s-0.518 0.345-0.859 0.345h-4.823zM8.433 24.769c-0.342 0-0.627-0.116-0.857-0.347s-0.345-0.518-0.345-0.859v-4.823c0-0.342 0.116-0.627 0.347-0.857s0.518-0.345 0.859-0.345h4.823c0.342 0 0.627 0.115 0.857 0.347s0.345 0.518 0.345 0.859v4.823c0 0.341-0.116 0.627-0.347 0.857s-0.518 0.345-0.859 0.345h-4.823zM8.433 14.462c-0.342 0-0.627-0.115-0.857-0.347s-0.345-0.518-0.345-0.859v-4.823c0-0.342 0.116-0.627 0.347-0.857s0.518-0.345 0.859-0.345h4.823c0.342 0 0.627 0.116 0.857 0.347s0.345 0.518 0.345 0.859v4.823c0 0.342-0.116 0.627-0.347 0.857s-0.518 0.345-0.859 0.345h-4.823zM8.821 23.179h4.051v-4.051h-4.051v4.051zM8.821 12.872h4.051v-4.051h-4.051v4.051zM19.128 12.872h4.051v-4.051h-4.051v4.051z"></path>
</svg>
