<!-- Generated by IcoMoon.io -->
<svg version="1.1" xmlns="http://www.w3.org/2000/svg" width="32" height="32" viewBox="0 0 32 32">
<path d="M12.564 21.312c-2.277 0-4.205-0.79-5.785-2.369s-2.369-3.508-2.369-5.785 0.79-4.205 2.369-5.785c1.58-1.579 3.508-2.369 5.785-2.369s4.205 0.79 5.785 2.369c1.579 1.58 2.369 3.508 2.369 5.785 0 0.952-0.16 1.862-0.479 2.728s-0.746 1.62-1.28 2.261l7.672 7.672c0.185 0.184 0.279 0.416 0.283 0.696s-0.090 0.516-0.283 0.709c-0.193 0.193-0.427 0.29-0.703 0.29s-0.509-0.097-0.702-0.29l-7.672-7.672c-0.667 0.551-1.433 0.981-2.3 1.292s-1.763 0.467-2.69 0.467zM12.564 19.312c1.718 0 3.173-0.596 4.365-1.789s1.789-2.647 1.789-4.365-0.596-3.173-1.789-4.365c-1.192-1.192-2.647-1.789-4.365-1.789s-3.173 0.596-4.365 1.789c-1.192 1.192-1.789 2.647-1.789 4.365s0.596 3.173 1.789 4.365c1.192 1.193 2.647 1.789 4.365 1.789z"></path>
</svg>
