<!-- Generated by IcoMoon.io -->
<svg version="1.1" xmlns="http://www.w3.org/2000/svg" width="32" height="32" viewBox="0 0 32 32">
<path d="M16.6 15.728l-2.164-2.144c-0.185-0.185-0.413-0.279-0.686-0.283s-0.512 0.097-0.719 0.304c-0.193 0.193-0.29 0.427-0.29 0.703s0.097 0.509 0.29 0.703l2.726 2.726c0.241 0.241 0.522 0.361 0.844 0.361s0.603-0.12 0.844-0.361l5.526-5.526c0.198-0.198 0.296-0.431 0.293-0.696s-0.1-0.502-0.293-0.709c-0.207-0.207-0.445-0.313-0.713-0.32s-0.506 0.093-0.713 0.3l-4.944 4.944zM10.744 23.667c-0.674 0-1.244-0.233-1.71-0.7s-0.7-1.037-0.7-1.71v-15.179c0-0.674 0.233-1.244 0.7-1.71s1.037-0.7 1.71-0.7h15.179c0.673 0 1.244 0.233 1.71 0.7s0.7 1.037 0.7 1.71v15.179c0 0.673-0.233 1.244-0.7 1.71s-1.037 0.7-1.71 0.7h-15.179zM10.744 21.667h15.179c0.103 0 0.197-0.043 0.282-0.128s0.128-0.179 0.128-0.282v-15.179c0-0.103-0.043-0.197-0.128-0.282s-0.179-0.128-0.282-0.128h-15.179c-0.103 0-0.197 0.043-0.282 0.128s-0.128 0.179-0.128 0.282v15.179c0 0.103 0.043 0.197 0.128 0.282s0.179 0.128 0.282 0.128zM6.077 28.333c-0.674 0-1.244-0.233-1.71-0.7s-0.7-1.037-0.7-1.71v-16.179c0-0.284 0.096-0.521 0.287-0.713s0.429-0.287 0.713-0.287 0.521 0.096 0.713 0.287c0.191 0.192 0.287 0.429 0.287 0.713v16.179c0 0.103 0.043 0.197 0.128 0.282s0.179 0.128 0.282 0.128h16.179c0.284 0 0.521 0.096 0.713 0.287s0.287 0.429 0.287 0.713-0.096 0.521-0.287 0.713c-0.192 0.192-0.429 0.287-0.713 0.287h-16.179z"></path>
</svg>
