<!-- Generated by IcoMoon.io -->
<svg version="1.1" xmlns="http://www.w3.org/2000/svg" width="31" height="32" viewBox="0 0 31 32">
<path d="M4.48 26.831v-22.735c0-0.133 0.056-0.222 0.167-0.267s0.217-0.026 0.315 0.056l0.916 0.805c0.112 0.095 0.236 0.143 0.374 0.143s0.263-0.048 0.374-0.143l1.073-0.901c0.112-0.095 0.236-0.143 0.374-0.143s0.262 0.048 0.374 0.143l1.073 0.901c0.112 0.095 0.236 0.143 0.374 0.143s0.262-0.048 0.374-0.143l1.073-0.901c0.112-0.095 0.236-0.143 0.374-0.143s0.263 0.048 0.374 0.143l1.073 0.901c0.111 0.095 0.236 0.143 0.374 0.143s0.263-0.048 0.374-0.143l1.073-0.901c0.111-0.095 0.236-0.143 0.374-0.143s0.263 0.048 0.374 0.143l1.073 0.901c0.112 0.095 0.236 0.143 0.374 0.143s0.263-0.048 0.374-0.143l1.073-0.901c0.111-0.095 0.236-0.143 0.374-0.143s0.263 0.048 0.374 0.143l1.073 0.901c0.112 0.095 0.236 0.143 0.374 0.143s0.262-0.048 0.374-0.143l1.073-0.901c0.112-0.095 0.236-0.143 0.374-0.143s0.262 0.048 0.374 0.143l1.073 0.901c0.112 0.095 0.236 0.143 0.374 0.143s0.263-0.048 0.375-0.143l0.915-0.805c0.099-0.082 0.204-0.101 0.315-0.056s0.167 0.134 0.167 0.267v22.735c0 0.133-0.056 0.222-0.167 0.267s-0.217 0.026-0.315-0.056l-0.915-0.805c-0.112-0.095-0.236-0.143-0.375-0.143s-0.262 0.048-0.374 0.143l-1.073 0.901c-0.112 0.095-0.236 0.143-0.374 0.143s-0.263-0.048-0.374-0.143l-1.073-0.901c-0.112-0.095-0.236-0.143-0.374-0.143s-0.263 0.048-0.374 0.143l-1.073 0.901c-0.112 0.095-0.236 0.143-0.374 0.143s-0.263-0.048-0.374-0.143l-1.073-0.901c-0.112-0.095-0.236-0.143-0.374-0.143s-0.263 0.048-0.374 0.143l-1.073 0.901c-0.112 0.095-0.236 0.143-0.374 0.143s-0.263-0.048-0.374-0.143l-1.073-0.901c-0.111-0.095-0.236-0.143-0.374-0.143s-0.263 0.048-0.374 0.143l-1.073 0.901c-0.112 0.095-0.236 0.143-0.374 0.143s-0.262-0.048-0.374-0.143l-1.073-0.901c-0.112-0.095-0.236-0.143-0.374-0.143s-0.262 0.048-0.374 0.143l-1.073 0.901c-0.112 0.095-0.236 0.143-0.374 0.143s-0.263-0.048-0.374-0.143l-1.073-0.901c-0.112-0.095-0.236-0.143-0.374-0.143s-0.263 0.048-0.374 0.143l-0.916 0.805c-0.099 0.082-0.204 0.101-0.315 0.056s-0.167-0.134-0.167-0.267zM6.4 24.552h17.92v-18.176h-17.92v18.176z"></path>
<path d="M8.96 21.15h12.8c0.272 0 0.5-0.092 0.684-0.275s0.276-0.412 0.276-0.685c0-0.272-0.092-0.5-0.276-0.684s-0.412-0.276-0.684-0.276h-12.8c-0.272 0-0.5 0.092-0.684 0.276s-0.276 0.412-0.276 0.684c0 0.273 0.092 0.501 0.276 0.685s0.412 0.275 0.684 0.275zM8.96 16.424h12.8c0.272 0 0.5-0.092 0.684-0.276s0.276-0.412 0.276-0.684c0-0.273-0.092-0.5-0.276-0.684s-0.412-0.276-0.684-0.276h-12.8c-0.272 0-0.5 0.092-0.684 0.276s-0.276 0.412-0.276 0.684c0 0.272 0.092 0.5 0.276 0.684s0.412 0.276 0.684 0.276zM8.96 11.698h12.8c0.272 0 0.5-0.092 0.684-0.276s0.276-0.412 0.276-0.684-0.092-0.501-0.276-0.684c-0.184-0.184-0.412-0.276-0.684-0.276h-12.8c-0.272 0-0.5 0.092-0.684 0.276s-0.276 0.412-0.276 0.684 0.092 0.5 0.276 0.684c0.184 0.184 0.412 0.276 0.684 0.276z"></path>
</svg>
