<!-- Generated by IcoMoon.io -->
<svg version="1.1" xmlns="http://www.w3.org/2000/svg" width="32" height="32" viewBox="0 0 32 32">
<path d="M16 24.621l3.395-3.395c0.198-0.198 0.437-0.3 0.717-0.304s0.523 0.097 0.729 0.304c0.207 0.207 0.31 0.448 0.31 0.723s-0.103 0.516-0.31 0.723l-3.997 3.998c-0.125 0.125-0.257 0.213-0.395 0.264s-0.288 0.077-0.449 0.077-0.31-0.026-0.449-0.077c-0.139-0.051-0.27-0.139-0.395-0.264l-3.997-3.998c-0.198-0.198-0.3-0.437-0.304-0.717s0.097-0.522 0.304-0.729 0.448-0.31 0.723-0.31c0.275 0 0.516 0.103 0.723 0.31l3.395 3.395zM16 7.461l-3.395 3.395c-0.198 0.198-0.437 0.3-0.717 0.304s-0.522-0.097-0.729-0.304-0.31-0.448-0.31-0.723c0-0.275 0.103-0.516 0.31-0.723l3.997-3.997c0.125-0.125 0.257-0.213 0.395-0.264s0.288-0.077 0.449-0.077 0.31 0.026 0.449 0.077c0.138 0.051 0.27 0.139 0.395 0.264l3.997 3.997c0.198 0.198 0.3 0.437 0.304 0.717s-0.097 0.522-0.304 0.729c-0.207 0.207-0.448 0.31-0.723 0.31s-0.516-0.103-0.723-0.31l-3.395-3.395z"></path>
</svg>
