<!-- Generated by IcoMoon.io -->
<svg version="1.1" xmlns="http://www.w3.org/2000/svg" width="32" height="32" viewBox="0 0 32 32">
<path d="M9.395 25.197c-0.762 0-1.408-0.264-1.936-0.792s-0.792-1.173-0.792-1.936v-15.83c0-0.568 0.255-0.962 0.765-1.183s0.958-0.14 1.342 0.245l2.487 2.487-1.415 1.415 0.779 0.779 1.415-1.415 3.159 3.159-1.415 1.415 0.779 0.779 1.415-1.415 3.21 3.21-1.415 1.415 0.779 0.779 1.415-1.415 3.159 3.159-1.415 1.415 0.78 0.78 1.415-1.415 2.282 2.282c0.376 0.376 0.453 0.817 0.232 1.323s-0.611 0.759-1.171 0.759h-15.856zM10.051 22.222h10.656l-11.067-11.067v10.656c0 0.12 0.038 0.218 0.115 0.295s0.175 0.115 0.295 0.115z"></path>
</svg>
