<!-- Generated by IcoMoon.io -->
<svg version="1.1" xmlns="http://www.w3.org/2000/svg" width="32" height="32" viewBox="0 0 32 32">
<path d="M7.077 27.333c-0.674 0-1.244-0.233-1.71-0.7s-0.7-1.037-0.7-1.71v-17.846c0-0.674 0.233-1.244 0.7-1.71s1.037-0.7 1.71-0.7h13.974l6.282 6.282v13.974c0 0.673-0.233 1.244-0.7 1.71s-1.037 0.7-1.71 0.7h-17.846zM7.077 25.333h17.846c0.12 0 0.218-0.038 0.295-0.115s0.115-0.175 0.115-0.295v-12.923h-5.333v-5.333h-12.923c-0.12 0-0.218 0.038-0.295 0.115s-0.115 0.175-0.115 0.295v17.846c0 0.12 0.038 0.218 0.115 0.295s0.175 0.115 0.295 0.115zM9.667 22h12.667v-2h-12.667v2zM9.667 12h6.333v-2h-6.333v2zM9.667 17h12.667v-2h-12.667v2z"></path>
</svg>
