<!-- Generated by IcoMoon.io -->
<svg version="1.1" xmlns="http://www.w3.org/2000/svg" width="32" height="32" viewBox="0 0 32 32">
<path d="M10.744 23.667c-0.674 0-1.244-0.233-1.71-0.7s-0.7-1.037-0.7-1.71v-15.179c0-0.674 0.233-1.244 0.7-1.71s1.037-0.7 1.71-0.7h15.179c0.673 0 1.244 0.233 1.71 0.7s0.7 1.037 0.7 1.71v15.179c0 0.673-0.233 1.244-0.7 1.71s-1.037 0.7-1.71 0.7h-15.179zM10.744 21.667h15.179c0.103 0 0.197-0.043 0.282-0.128s0.128-0.179 0.128-0.282v-15.179c0-0.103-0.043-0.197-0.128-0.282s-0.179-0.128-0.282-0.128h-15.179c-0.103 0-0.197 0.043-0.282 0.128s-0.128 0.179-0.128 0.282v15.179c0 0.103 0.043 0.197 0.128 0.282s0.179 0.128 0.282 0.128zM6.077 28.333c-0.674 0-1.244-0.233-1.71-0.7s-0.7-1.037-0.7-1.71v-16.179c0-0.284 0.096-0.521 0.287-0.713s0.429-0.287 0.713-0.287 0.521 0.096 0.713 0.287c0.191 0.192 0.287 0.429 0.287 0.713v16.179c0 0.103 0.043 0.197 0.128 0.282s0.179 0.128 0.282 0.128h16.179c0.284 0 0.521 0.096 0.713 0.287s0.287 0.429 0.287 0.713-0.096 0.521-0.287 0.713c-0.192 0.192-0.429 0.287-0.713 0.287h-16.179z"></path>
<path d="M24 12.333c0.552 0 1 0.448 1 1s-0.448 1-1 1h-10.667c-0.552 0-1-0.448-1-1s0.448-1 1-1h10.667z"></path>
</svg>
