<!-- Generated by IcoMoon.io -->
<svg version="1.1" xmlns="http://www.w3.org/2000/svg" width="32" height="32" viewBox="0 0 32 32">
<path d="M16 13.938l-5.431 5.431c-0.185 0.184-0.417 0.279-0.696 0.283s-0.516-0.090-0.709-0.283c-0.193-0.193-0.29-0.428-0.29-0.703s0.097-0.509 0.29-0.703l5.992-5.992c0.241-0.241 0.522-0.361 0.844-0.361s0.603 0.12 0.844 0.361l5.992 5.992c0.184 0.185 0.279 0.417 0.283 0.696s-0.090 0.516-0.283 0.709c-0.193 0.193-0.428 0.29-0.703 0.29s-0.509-0.097-0.703-0.29l-5.431-5.431z"></path>
</svg>
