<!-- Generated by IcoMoon.io -->
<svg version="1.1" xmlns="http://www.w3.org/2000/svg" width="32" height="32" viewBox="0 0 32 32">
<path d="M4.333 16c0-3.274 1.175-6.036 3.526-8.288s5.175-3.378 8.474-3.378v-1.128c0-0.241 0.109-0.42 0.328-0.536s0.431-0.098 0.636 0.054l3.526 2.646c0.321 0.241 0.482 0.562 0.482 0.964s-0.161 0.723-0.482 0.964l-3.526 2.646c-0.205 0.152-0.417 0.17-0.636 0.054s-0.328-0.295-0.328-0.536v-1.128c-2.185 0-4.064 0.74-5.638 2.22s-2.362 3.296-2.362 5.446c0 0.759 0.108 1.492 0.323 2.2s0.525 1.368 0.928 1.98c0.219 0.321 0.306 0.666 0.261 1.034s-0.216 0.662-0.515 0.881l-0.838 0.615c-0.366 0.285-0.77 0.397-1.212 0.335s-0.794-0.283-1.058-0.663c-0.619-0.93-1.088-1.936-1.409-3.017s-0.481-2.203-0.481-3.365zM15.667 27.667v1.128c0 0.241-0.109 0.42-0.328 0.536s-0.431 0.098-0.636-0.054l-3.526-2.646c-0.321-0.241-0.482-0.562-0.482-0.964s0.161-0.723 0.482-0.964l3.526-2.646c0.205-0.152 0.417-0.17 0.636-0.054s0.328 0.295 0.328 0.536v1.128c2.185 0 4.064-0.74 5.638-2.22s2.362-3.296 2.362-5.446c0-0.759-0.108-1.494-0.323-2.206s-0.525-1.374-0.928-1.986c-0.219-0.321-0.306-0.666-0.261-1.035s0.216-0.662 0.515-0.881l0.838-0.615c0.366-0.286 0.77-0.394 1.212-0.324s0.794 0.287 1.058 0.652c0.605 0.939 1.071 1.946 1.399 3.023s0.491 2.201 0.491 3.372c0 3.273-1.175 6.036-3.526 8.288s-5.175 3.378-8.474 3.378z"></path>
</svg>
