<!-- Generated by IcoMoon.io -->
<svg version="1.1" xmlns="http://www.w3.org/2000/svg" width="32" height="32" viewBox="0 0 32 32">
<path d="M7.667 16.066c0 0.39 0.026 0.778 0.079 1.165s0.144 0.769 0.272 1.145c0.085 0.284 0.076 0.555-0.027 0.814s-0.279 0.445-0.527 0.558c-0.262 0.127-0.522 0.137-0.781 0.031s-0.431-0.301-0.517-0.584c-0.178-0.503-0.306-1.019-0.383-1.548s-0.117-1.056-0.117-1.581c0-2.884 1.003-5.338 3.010-7.363s4.448-3.037 7.323-3.037h1.041l-1.764-1.764c-0.185-0.185-0.279-0.417-0.283-0.696s0.090-0.516 0.283-0.709c0.193-0.193 0.427-0.29 0.702-0.29s0.51 0.097 0.703 0.29l3.326 3.326c0.241 0.241 0.362 0.522 0.362 0.844s-0.121 0.603-0.362 0.844l-3.326 3.326c-0.185 0.184-0.417 0.279-0.696 0.283s-0.516-0.090-0.709-0.283c-0.193-0.193-0.29-0.428-0.29-0.703s0.097-0.509 0.29-0.703l1.764-1.764h-1.041c-2.316 0-4.284 0.815-5.904 2.446s-2.429 3.616-2.429 5.954zM24.333 15.933c0-0.39-0.026-0.778-0.079-1.165s-0.144-0.769-0.272-1.145c-0.085-0.284-0.076-0.555 0.027-0.814s0.279-0.445 0.527-0.558c0.262-0.126 0.52-0.137 0.774-0.031s0.425 0.301 0.51 0.584c0.178 0.503 0.308 1.019 0.39 1.548s0.123 1.056 0.123 1.581c0 2.884-1.003 5.338-3.010 7.363s-4.448 3.037-7.323 3.037h-1.041l1.764 1.764c0.185 0.185 0.279 0.417 0.283 0.696s-0.090 0.516-0.283 0.709c-0.193 0.193-0.427 0.29-0.702 0.29s-0.51-0.097-0.703-0.29l-3.326-3.326c-0.241-0.241-0.362-0.522-0.362-0.844s0.121-0.603 0.362-0.844l3.326-3.326c0.185-0.184 0.417-0.279 0.696-0.283s0.516 0.090 0.709 0.283c0.193 0.193 0.29 0.428 0.29 0.703s-0.097 0.509-0.29 0.703l-1.764 1.764h1.041c2.316 0 4.284-0.815 5.904-2.446s2.429-3.615 2.429-5.954z"></path>
</svg>
