<!-- Generated by IcoMoon.io -->
<svg version="1.1" xmlns="http://www.w3.org/2000/svg" width="32" height="32" viewBox="0 0 32 32">
<path d="M16.003 20.769c1.511 0 2.794-0.529 3.85-1.586s1.583-2.342 1.583-3.853c0-1.511-0.529-2.794-1.586-3.85s-2.342-1.583-3.853-1.583c-1.511 0-2.794 0.529-3.85 1.586s-1.583 2.342-1.583 3.853c0 1.511 0.529 2.794 1.586 3.85s2.342 1.583 3.853 1.583zM16 18.933c-1 0-1.85-0.35-2.55-1.050s-1.050-1.55-1.050-2.55 0.35-1.85 1.050-2.55c0.7-0.7 1.55-1.050 2.55-1.050s1.85 0.35 2.55 1.050c0.7 0.7 1.050 1.55 1.050 2.55s-0.35 1.85-1.050 2.55c-0.7 0.7-1.55 1.050-2.55 1.050zM16 24.667c-2.807 0-5.374-0.749-7.701-2.246s-4.185-3.467-5.573-5.91c-0.111-0.192-0.192-0.385-0.244-0.579s-0.077-0.394-0.077-0.599 0.026-0.404 0.077-0.598c0.051-0.194 0.133-0.387 0.244-0.578 1.388-2.443 3.246-4.413 5.573-5.91s4.894-2.246 7.701-2.246c2.807 0 5.374 0.749 7.701 2.246s4.185 3.467 5.573 5.91c0.111 0.192 0.192 0.385 0.244 0.579s0.077 0.394 0.077 0.599-0.026 0.404-0.077 0.598c-0.051 0.194-0.133 0.387-0.244 0.578-1.388 2.443-3.246 4.413-5.573 5.91s-4.895 2.246-7.701 2.246z"></path>
</svg>
