<!-- Generated by IcoMoon.io -->
<svg version="1.1" xmlns="http://www.w3.org/2000/svg" width="32" height="32" viewBox="0 0 32 32">
<path d="M16 22.308c0.305 0 0.561-0.103 0.767-0.31s0.31-0.462 0.31-0.767c0-0.305-0.103-0.561-0.31-0.767s-0.462-0.309-0.767-0.309-0.561 0.103-0.767 0.309c-0.206 0.206-0.31 0.462-0.31 0.767s0.103 0.561 0.31 0.767c0.206 0.206 0.462 0.31 0.767 0.31zM16 17.436c0.283 0 0.521-0.096 0.712-0.288s0.287-0.429 0.287-0.712v-6c0-0.283-0.096-0.521-0.288-0.713s-0.429-0.287-0.713-0.287c-0.284 0-0.521 0.096-0.712 0.287s-0.287 0.429-0.287 0.713v6c0 0.283 0.096 0.521 0.288 0.712s0.429 0.288 0.713 0.288zM16.002 28.667c-1.752 0-3.399-0.332-4.94-0.997s-2.882-1.567-4.023-2.707c-1.14-1.14-2.043-2.48-2.708-4.021s-0.998-3.187-0.998-4.939c0-1.752 0.332-3.399 0.997-4.94s1.567-2.882 2.707-4.023c1.14-1.14 2.48-2.043 4.021-2.708s3.187-0.998 4.939-0.998c1.752 0 3.399 0.332 4.94 0.997s2.882 1.567 4.023 2.707c1.14 1.14 2.043 2.48 2.708 4.021s0.998 3.187 0.998 4.939c0 1.752-0.332 3.399-0.997 4.94s-1.567 2.882-2.707 4.023c-1.14 1.14-2.48 2.043-4.021 2.708s-3.187 0.998-4.939 0.998z"></path>
</svg>
