<!-- Generated by IcoMoon.io -->
<svg version="1.1" xmlns="http://www.w3.org/2000/svg" width="32" height="32" viewBox="0 0 32 32">
<path d="M15 25.333v-4.569c-1.157-0.168-2.177-0.62-3.058-1.358s-1.479-1.665-1.794-2.781c-1.538-0.183-2.837-0.836-3.895-1.959s-1.587-2.456-1.587-4v-0.923c0-0.663 0.236-1.23 0.708-1.702s1.039-0.708 1.702-0.708h2.692v-0.256c0-0.663 0.236-1.23 0.708-1.702s1.039-0.708 1.702-0.708h7.641c0.663 0 1.23 0.236 1.702 0.708s0.708 1.039 0.708 1.702v0.256h2.692c0.663 0 1.23 0.236 1.702 0.708s0.708 1.039 0.708 1.702v0.923c0 1.544-0.529 2.877-1.587 4s-2.356 1.776-3.895 1.959c-0.315 1.116-0.913 2.043-1.794 2.781s-1.9 1.19-3.058 1.358v4.569h3.744c0.283 0 0.521 0.096 0.712 0.288s0.288 0.429 0.288 0.713c0 0.284-0.096 0.521-0.288 0.712s-0.429 0.287-0.712 0.287h-9.487c-0.283 0-0.521-0.096-0.712-0.288s-0.288-0.429-0.288-0.713c0-0.284 0.096-0.521 0.288-0.712s0.429-0.287 0.712-0.287h3.744zM9.769 14.477v-5.144h-2.692c-0.12 0-0.218 0.038-0.295 0.115s-0.115 0.175-0.115 0.295v0.923c0 0.921 0.291 1.736 0.874 2.444s1.326 1.163 2.228 1.367zM16.003 18.846c1.169 0 2.161-0.409 2.978-1.227s1.224-1.811 1.224-2.979v-7.564c0-0.12-0.039-0.218-0.115-0.295s-0.175-0.115-0.295-0.115h-7.59c-0.12 0-0.218 0.038-0.295 0.115s-0.115 0.175-0.115 0.295v7.564c0 1.168 0.409 2.161 1.227 2.979s1.812 1.227 2.981 1.227zM22.231 14.477c0.903-0.203 1.645-0.659 2.228-1.367s0.874-1.522 0.874-2.444v-0.923c0-0.12-0.038-0.218-0.115-0.295s-0.175-0.115-0.295-0.115h-2.692v5.144z"></path>
</svg>
