<!-- Generated by IcoMoon.io -->
<svg version="1.1" xmlns="http://www.w3.org/2000/svg" width="32" height="32" viewBox="0 0 32 32">
<path d="M16.4 17.467l7.2-4.8-7.2-4.8v9.733zM19.867 24.933h4.667c0 0.4-0.267 0.8-0.533 1.067s-0.667 0.533-1.2 0.533l-14.8 1.867c-0.667 0-1.2 0-1.733-0.533-0.533-0.4-0.8-0.933-0.933-1.6l-1.733-13.733c0-0.667 0-1.2 0.533-1.733 0.4-0.533 0.933-0.8 1.6-0.933h1.2c0 0 0 1.867 0 1.867h-0.933c0 0-0.267 0.133-0.267 0.267 0 0 0 0.133 0 0.267l1.733 13.733c0 0 0 0.267 0.133 0.267 0 0 0.133 0 0.267 0l12.133-1.467zM11.867 22.267c-0.667 0-1.2-0.267-1.733-0.667s-0.667-1.067-0.667-1.733v-14.267c0-0.667 0.267-1.2 0.667-1.733 0.4-0.4 1.067-0.667 1.733-0.667h14.4c0.667 0 1.2 0.267 1.733 0.667 0.533 0.533 0.667 1.067 0.667 1.733v14.4c0 0.667-0.267 1.2-0.667 1.733s-1.067 0.667-1.733 0.667h-14.4zM11.867 20.267h14.4c0 0 0.267 0 0.267 0s0-0.133 0-0.267v-14.4c0 0 0-0.267 0-0.267s-0.133 0-0.267 0h-14.4c0 0-0.267 0-0.267 0s0 0.133 0 0.267v14.4c0 0 0 0.267 0 0.267s0.133 0 0.267 0z"></path>
</svg>
