<!-- Generated by IcoMoon.io -->
<svg version="1.1" xmlns="http://www.w3.org/2000/svg" width="32" height="32" viewBox="0 0 32 32">
<path d="M14.286 17.714h-8.571c-0.486 0-0.893-0.164-1.221-0.493s-0.493-0.736-0.493-1.221 0.164-0.893 0.493-1.221c0.329-0.329 0.736-0.493 1.221-0.493h8.571v-8.571c0-0.486 0.164-0.893 0.493-1.221s0.736-0.493 1.221-0.493 0.893 0.164 1.221 0.493c0.329 0.329 0.493 0.736 0.493 1.221v8.571h8.571c0.486 0 0.893 0.164 1.221 0.493s0.493 0.736 0.493 1.221-0.164 0.893-0.493 1.221c-0.329 0.329-0.736 0.493-1.221 0.493h-8.571v8.571c0 0.486-0.164 0.893-0.493 1.221s-0.736 0.493-1.221 0.493-0.893-0.164-1.221-0.493c-0.329-0.329-0.493-0.736-0.493-1.221v-8.571z"></path>
</svg>
