<!-- Generated by IcoMoon.io -->
<svg version="1.1" xmlns="http://www.w3.org/2000/svg" width="32" height="32" viewBox="0 0 32 32">
<path d="M24.933 27.333h-10.667c-0.267 0-0.533 0-0.667-0.267-0.133-0.133-0.267-0.4-0.267-0.667s0-0.533 0.267-0.667c0.133-0.133 0.4-0.267 0.667-0.267h10.667c0 0 0.133 0 0.267 0 0 0 0-0.133 0-0.267v-18.133c0 0 0-0.133 0-0.267 0 0-0.133 0-0.267 0h-17.867c0 0-0.133 0-0.267 0 0 0 0 0.133 0 0.267v4.267c0 0.267 0 0.533-0.267 0.667-0.133 0.133-0.4 0.267-0.667 0.267s-0.533 0-0.667-0.267c-0.133-0.133-0.267-0.4-0.267-0.667v-4.267c0-0.667 0.267-1.2 0.667-1.733s1.067-0.667 1.733-0.667h17.867c0.667 0 1.2 0.267 1.733 0.667s0.667 1.067 0.667 1.733v17.867c0 0.667-0.267 1.2-0.667 1.733s-1.067 0.667-1.733 0.667zM9.2 28.667c-1.6 0-3.067-0.533-4.267-1.733s-1.733-2.533-1.733-4.267 0.4-2.4 1.067-3.333c0.667-0.933 1.6-1.733 2.667-2.133h-2.533c-0.267 0-0.533 0-0.667-0.267-0.133-0.133-0.267-0.4-0.267-0.667s0-0.533 0.267-0.667c0.133-0.133 0.4-0.267 0.667-0.267h4.8c0.4 0 0.667 0 0.8 0.4 0.267 0.267 0.4 0.533 0.4 0.8v4.8c0 0.267 0 0.533-0.267 0.667-0.133 0.133-0.4 0.267-0.667 0.267s-0.533 0-0.667-0.267c-0.133-0.133-0.267-0.4-0.267-0.667v-2.4c-0.933 0.133-1.6 0.667-2.267 1.333s-0.933 1.6-0.933 2.533 0.4 2 1.2 2.8c0.8 0.8 1.733 1.2 2.8 1.2s0.533 0 0.667 0.267c0.133 0.133 0.267 0.4 0.267 0.667s0 0.533-0.267 0.667c-0.133 0.133-0.4 0.267-0.667 0.267zM14.267 22.4h3.067c0.267 0 0.533 0 0.667-0.267 0.133-0.133 0.267-0.4 0.267-0.667s0-0.533-0.267-0.667c-0.133-0.133-0.4-0.267-0.667-0.267h-3.067c-0.267 0-0.533 0-0.667 0.267-0.133 0.133-0.267 0.4-0.267 0.667s0 0.533 0.267 0.667c0.133 0.133 0.4 0.267 0.667 0.267zM14.267 17.067h7.067c0.267 0 0.533 0 0.667-0.267 0.133-0.133 0.267-0.4 0.267-0.667s0-0.533-0.267-0.667c-0.133-0.133-0.4-0.267-0.667-0.267h-7.067c-0.267 0-0.533 0-0.667 0.267-0.133 0.133-0.267 0.4-0.267 0.667s0 0.533 0.267 0.667c0.133 0.133 0.4 0.267 0.667 0.267zM10.667 11.733h10.667c0.267 0 0.533 0 0.667-0.267 0.133-0.133 0.267-0.4 0.267-0.667s0-0.533-0.267-0.667c-0.133-0.133-0.4-0.267-0.667-0.267h-10.667c-0.267 0-0.533 0-0.667 0.267-0.133 0.133-0.267 0.4-0.267 0.667s0 0.533 0.267 0.667c0.133 0.133 0.4 0.267 0.667 0.267z"></path>
</svg>
