<!-- Generated by IcoMoon.io -->
<svg version="1.1" xmlns="http://www.w3.org/2000/svg" width="32" height="32" viewBox="0 0 32 32">
<path d="M5.467 29.333c-0.8 0-1.467-0.267-2-0.8s-0.8-1.2-0.8-2v-20.4c0-0.8 0.267-1.467 0.8-2s1.2-0.8 2-0.8h12.8c0.267 0 0.533 0 0.8 0.267s0.267 0.533 0.267 0.8 0 0.533-0.267 0.8-0.533 0.267-0.8 0.267h-12.8c-0.133 0-0.267 0-0.4 0 0 0 0 0.267 0 0.4v20.4c0 0.133 0 0.267 0 0.4 0 0 0.267 0 0.4 0h20.4c0.133 0 0.267 0 0.4 0s0-0.267 0-0.4v-12.8c0-0.267 0-0.533 0.267-0.8s0.533-0.267 0.8-0.267 0.533 0 0.8 0.267 0.267 0.533 0.267 0.8v12.8c0 0.8-0.267 1.467-0.8 2s-1.2 0.8-2 0.8h-20.133zM9.733 13.733c-0.267 0-0.533 0-0.8 0.267s-0.267 0.533-0.267 0.8v7.6c0 0.267 0 0.533 0.267 0.8s0.533 0.267 0.8 0.267 0.533 0 0.8-0.267 0.267-0.533 0.267-0.8v-7.6c0-0.267 0-0.533-0.267-0.8s-0.533-0.267-0.8-0.267zM15.6 9.2c-0.267 0-0.533 0-0.8 0.267s-0.267 0.533-0.267 0.8v12.133c0 0.267 0 0.533 0.267 0.8s0.533 0.267 0.8 0.267 0.533 0 0.8-0.267 0.267-0.533 0.267-0.8v-12.133c0-0.267 0-0.533-0.267-0.8s-0.533-0.267-0.8-0.267zM21.6 18.267c-0.267 0-0.533 0-0.8 0.267s-0.267 0.533-0.267 0.8v3.067c0 0.267 0 0.533 0.267 0.8s0.533 0.267 0.8 0.267 0.533 0 0.8-0.267 0.267-0.533 0.267-0.8v-3.067c0-0.267 0-0.533-0.267-0.8s-0.533-0.267-0.8-0.267zM24 8h-1.867c-0.267 0-0.533 0-0.8-0.267s-0.267-0.533-0.267-0.8 0-0.533 0.267-0.8 0.533-0.267 0.8-0.267h1.867v-1.867c0-0.267 0-0.533 0.267-0.8s0.533-0.267 0.8-0.267 0.533 0 0.8 0.267 0.267 0.533 0.267 0.8v1.867h1.867c0.267 0 0.533 0 0.8 0.267s0.267 0.533 0.267 0.8 0 0.533-0.267 0.8-0.533 0.267-0.8 0.267h-1.867v1.867c0 0.267 0 0.533-0.267 0.8s-0.533 0.267-0.8 0.267-0.533 0-0.8-0.267-0.267-0.533-0.267-0.8v-1.867z"></path>
</svg>
