<!-- Generated by IcoMoon.io -->
<svg version="1.1" xmlns="http://www.w3.org/2000/svg" width="32" height="32" viewBox="0 0 32 32">
<path d="M6.8 27.333c-0.667 0-1.2-0.267-1.733-0.667s-0.667-1.067-0.667-1.733v-17.867c0-0.667 0.267-1.2 0.667-1.733 0.533-0.533 1.067-0.667 1.733-0.667h10.533c0.267 0 0.533 0 0.667 0.267 0.133 0.133 0.267 0.4 0.267 0.667s0 0.533-0.267 0.667c-0.133 0.133-0.4 0.267-0.667 0.267h-10.533c0 0-0.267 0-0.267 0s0 0.133 0 0.267v17.867c0 0 0 0.267 0 0.267s0.133 0 0.267 0h17.867c0 0 0.267 0 0.267 0s0-0.133 0-0.267v-10.533c0-0.267 0-0.533 0.267-0.667s0.4-0.267 0.667-0.267 0.533 0 0.667 0.267c0.133 0.133 0.267 0.4 0.267 0.667v10.533c0 0.667-0.267 1.2-0.667 1.733s-1.067 0.667-1.733 0.667h-17.6zM22.933 8.8h-1.733c-0.267 0-0.533 0-0.667-0.267-0.133-0.133-0.267-0.4-0.267-0.667s0-0.533 0.267-0.667c0.133-0.133 0.4-0.267 0.667-0.267h1.733v-1.733c0-0.267 0-0.533 0.267-0.667 0.133-0.133 0.4-0.267 0.667-0.267s0.533 0 0.667 0.267c0.133 0.133 0.267 0.4 0.267 0.667v1.733h1.6c0.267 0 0.533 0 0.667 0.267 0.133 0.133 0.267 0.4 0.267 0.667s0 0.533-0.267 0.667c-0.133 0.133-0.4 0.267-0.667 0.267h-1.6v1.6c0 0.267 0 0.533-0.267 0.667-0.133 0.133-0.4 0.267-0.667 0.267s-0.533 0-0.667-0.267c-0.133-0.133-0.267-0.4-0.267-0.667v-1.6zM14.667 21.333l-2.133-2.8c0-0.133-0.267-0.267-0.533-0.267s-0.4 0-0.533 0.267l-2.133 2.8c-0.133 0.267-0.133 0.4 0 0.667 0 0.267 0.267 0.267 0.533 0.267h11.733c0.267 0 0.4 0 0.533-0.267 0-0.267 0-0.4 0-0.667l-3.2-4.267c0-0.133-0.267-0.267-0.533-0.267s-0.4 0-0.533 0.267l-3.2 4.267z"></path>
</svg>
