<!-- Generated by IcoMoon.io -->
<svg version="1.1" xmlns="http://www.w3.org/2000/svg" width="32" height="32" viewBox="0 0 32 32">
<path d="M14.533 18.8l-2.133-2.133c-0.267-0.267-0.4-0.267-0.667-0.267s-0.533 0-0.667 0.267c-0.267 0.267-0.267 0.4-0.267 0.667s0 0.533 0.267 0.667l2.8 2.8c0.267 0.267 0.533 0.4 0.8 0.4s0.667 0 0.8-0.4l5.6-5.6c0.267-0.267 0.267-0.4 0.267-0.667s0-0.533-0.267-0.8c-0.267-0.267-0.4-0.267-0.667-0.267s-0.533 0-0.667 0.267l-5.067 5.067zM16 28.933c-1.6 0-3.067-0.267-4.533-0.933s-2.667-1.467-3.733-2.533c-1.067-1.067-1.867-2.267-2.533-3.733s-0.933-2.933-0.933-4.533 0.267-3.067 0.933-4.533c0.667-1.467 1.467-2.667 2.533-3.733s2.267-1.867 3.733-2.533c1.467-0.667 2.933-0.933 4.533-0.933s3.067 0.267 4.533 0.933c1.467 0.667 2.667 1.467 3.733 2.533s1.867 2.267 2.533 3.733c0.667 1.467 0.933 2.933 0.933 4.533s-0.267 3.067-0.933 4.533c-0.667 1.467-1.467 2.667-2.533 3.733s-2.267 1.867-3.733 2.533c-1.467 0.667-2.933 0.933-4.533 0.933zM2.933 9.6c-0.133-0.133-0.267-0.4-0.267-0.667s0-0.533 0.267-0.667l3.867-3.867c0.133-0.133 0.4-0.267 0.667-0.267s0.533 0 0.667 0.267c0.133 0.133 0.267 0.4 0.267 0.667s0 0.533-0.267 0.667l-3.867 3.867c-0.133 0.133-0.4 0.267-0.667 0.267s-0.533 0-0.667-0.267zM29.067 9.6c-0.133 0.133-0.4 0.267-0.667 0.267s-0.533 0-0.667-0.267l-3.867-3.867c-0.133-0.133-0.267-0.4-0.267-0.667s0-0.533 0.267-0.667c0.133-0.133 0.4-0.267 0.667-0.267s0.533 0 0.667 0.267l3.867 3.867c0.133 0.133 0.267 0.4 0.267 0.667s0 0.533-0.267 0.667zM16 26.8c2.667 0 4.933-0.933 6.8-2.8s2.8-4.133 2.8-6.8-0.933-4.933-2.8-6.8c-1.867-1.867-4.133-2.8-6.8-2.8s-4.933 0.933-6.8 2.8c-1.867 1.867-2.8 4.133-2.8 6.8s0.933 4.933 2.8 6.8c1.867 1.867 4.133 2.8 6.8 2.8z"></path>
</svg>
