<!-- Generated by IcoMoon.io -->
<svg version="1.1" xmlns="http://www.w3.org/2000/svg" width="32" height="32" viewBox="0 0 32 32">
<path d="M26.533 10.667c-0.533-4-3.733-7.333-7.867-7.867-0.4-0.133-0.933-0.133-1.333-0.133h-7.2c-2.667 0-4.8 2-4.8 4.4v17.867c0 2.4 2.133 4.4 4.8 4.4h11.733c2.667 0 4.8-1.867 4.8-4.4v-12.933c0-0.4 0-0.933-0.133-1.333zM12 22.667c0 0.8-0.533 1.333-1.333 1.333s-1.333-0.533-1.333-1.333v-8c0-0.8 0.533-1.333 1.333-1.333s1.333 0.533 1.333 1.333v8zM17.333 22.667c0 0.8-0.533 1.333-1.333 1.333s-1.333-0.533-1.333-1.333v-5.333c0-0.8 0.533-1.333 1.333-1.333s1.333 0.533 1.333 1.333v5.333zM22.667 22.667c0 0.8-0.533 1.333-1.333 1.333s-1.333-0.533-1.333-1.333v-2.667c0-0.8 0.533-1.333 1.333-1.333s1.333 0.533 1.333 1.333v2.667z"></path>
</svg>
