<!-- Generated by IcoMoon.io -->
<svg version="1.1" xmlns="http://www.w3.org/2000/svg" width="32" height="32" viewBox="0 0 32 32">
<path d="M17.75 28h-8.88c-1.654 0-3-1.346-3-3v-18c0-1.654 1.346-3 3-3h7v9c0 0.265 0.105 0.52 0.293 0.707s0.442 0.293 0.707 0.293h9v7.070c0 0.251 0.101 0.474 0.254 0.65 0.183 0.21 0.444 0.35 0.746 0.35 0.265 0 0.52-0.105 0.707-0.293s0.293-0.442 0.293-0.707v-8.070c-0.027-0.26-0.099-0.516-0.293-0.707l-10-10c-0.19-0.195-0.447-0.265-0.707-0.293h-8c-2.757 0-5 2.243-5 5v18c0 2.757 2.243 5 5 5h8.88c0.265 0 0.52-0.105 0.707-0.293s0.293-0.442 0.293-0.707c-0.003-0.24-0.092-0.471-0.253-0.649-0.092-0.109-0.206-0.197-0.335-0.258s-0.27-0.093-0.412-0.093zM17.87 12v-6.586l6.586 6.586h-6.586z"></path>
<path d="M21.113 17.383h-10.485c-0.265 0-0.52 0.105-0.707 0.293s-0.293 0.442-0.293 0.707 0.105 0.52 0.293 0.707c0.188 0.188 0.442 0.293 0.707 0.293h10.485c0.265 0 0.519-0.105 0.707-0.293s0.293-0.442 0.293-0.707-0.105-0.52-0.293-0.707c-0.188-0.188-0.442-0.293-0.707-0.293zM18.522 22.624h-7.891c-0.265 0-0.52 0.105-0.707 0.293s-0.293 0.442-0.293 0.707c0 0.265 0.105 0.519 0.293 0.707s0.442 0.293 0.707 0.293h7.89c0.265 0 0.519-0.105 0.707-0.293s0.293-0.442 0.293-0.707c0-0.265-0.105-0.52-0.293-0.707s-0.441-0.293-0.706-0.293zM20.33 26.028c-0.12 0.123-0.206 0.275-0.249 0.441s-0.042 0.341 0.003 0.507c0.042 0.17 0.113 0.334 0.246 0.466l2.211 2.211c0.093 0.093 0.203 0.167 0.324 0.218s0.251 0.076 0.383 0.076 0.261-0.026 0.383-0.076c0.121-0.050 0.232-0.124 0.324-0.218l3.887-3.885c0.095-0.092 0.172-0.203 0.224-0.325s0.080-0.253 0.081-0.386c0.001-0.133-0.024-0.264-0.074-0.387s-0.125-0.235-0.218-0.328c-0.094-0.094-0.206-0.168-0.328-0.219s-0.255-0.075-0.387-0.074c-0.133 0.001-0.264 0.029-0.386 0.081s-0.232 0.129-0.325 0.224l-3.18 3.178-1.504-1.504c-0.093-0.093-0.203-0.167-0.324-0.217s-0.251-0.076-0.383-0.076c-0.131 0-0.261 0.026-0.383 0.076s-0.232 0.124-0.324 0.217z"></path>
</svg>
