<!-- Generated by IcoMoon.io -->
<svg version="1.1" xmlns="http://www.w3.org/2000/svg" width="32" height="32" viewBox="0 0 32 32">
<path d="M6.533 29.333c-0.667 0-1.333-0.267-1.733-0.8-0.533-0.533-0.8-1.067-0.8-1.733v-18.8c0-0.667 0.267-1.333 0.8-1.733 0.533-0.533 1.067-0.8 1.733-0.8h6.267c0-0.8 0.4-1.467 1.067-2 0.533-0.533 1.333-0.8 2.133-0.8s1.6 0.267 2.133 0.8c0.533 0.533 0.933 1.2 1.067 2h6.267c0.667 0 1.333 0.267 1.733 0.8 0.533 0.533 0.8 1.067 0.8 1.733v18.8c0 0.667-0.267 1.333-0.8 1.733-0.533 0.533-1.067 0.8-1.733 0.8h-18.933zM6.533 27.2h18.8c0 0 0.267 0 0.267-0.133 0 0 0.133-0.133 0.133-0.267v-18.8c0 0 0-0.267-0.133-0.267 0 0-0.133-0.133-0.267-0.133h-18.8c0 0-0.267 0-0.267 0.133 0 0-0.133 0.133-0.133 0.267v18.8c0 0 0 0.267 0.133 0.267 0 0 0.133 0.133 0.267 0.133zM10.267 23.867h7.067c0.267 0 0.533 0 0.8-0.267s0.267-0.4 0.267-0.8 0-0.533-0.267-0.8-0.4-0.267-0.8-0.267h-7.067c-0.267 0-0.533 0-0.8 0.267s-0.267 0.4-0.267 0.8 0 0.533 0.267 0.8 0.4 0.267 0.8 0.267zM10.267 18.4h11.2c0.267 0 0.533 0 0.8-0.267s0.267-0.4 0.267-0.8 0-0.533-0.267-0.8-0.4-0.267-0.8-0.267h-11.2c-0.267 0-0.533 0-0.8 0.267s-0.267 0.4-0.267 0.8 0 0.533 0.267 0.8 0.4 0.267 0.8 0.267zM10.267 13.067h11.2c0.267 0 0.533 0 0.8-0.267s0.267-0.4 0.267-0.8 0-0.533-0.267-0.8-0.4-0.267-0.8-0.267h-11.2c-0.267 0-0.533 0-0.8 0.267s-0.267 0.4-0.267 0.8 0 0.533 0.267 0.8 0.4 0.267 0.8 0.267zM15.867 6.667c0.267 0 0.533 0 0.8-0.267 0.133-0.133 0.267-0.4 0.267-0.8s0-0.533-0.267-0.8c-0.133-0.133-0.4-0.267-0.8-0.267s-0.533 0-0.8 0.267c-0.133 0.133-0.267 0.4-0.267 0.8s0 0.533 0.267 0.8c0.133 0.133 0.4 0.267 0.8 0.267z"></path>
</svg>
