<!-- Generated by IcoMoon.io -->
<svg version="1.1" xmlns="http://www.w3.org/2000/svg" width="32" height="32" viewBox="0 0 32 32">
<path d="M25.6 4.8c-3.429-3.429-8.914-3.429-12.114 0l-9.371 9.143s0 0 0 0 0 0 0 0l1.371 1.371s0 0 0 0 0 0 0 0l9.6-8.686c1.143-1.143 2.743-1.829 4.343-1.829s3.2 0.686 4.343 1.829c1.143 1.143 1.829 2.743 1.829 4.343s-0.686 3.2-1.829 4.343l-11.2 11.2c-1.371 1.371-3.886 1.371-5.257 0-0.686-0.686-1.143-1.6-1.143-2.514s0.457-1.829 1.143-2.514l9.371-9.371c0.229-0.229 0.457-0.457 0.914-0.457v0c0.229 0 0.686 0 0.914 0.457 0.229 0.229 0.457 0.457 0.457 0.914s0 0.686-0.457 0.914l-7.771 7.771s0 0 0 0 0 0 0 0.229l1.371 1.371s0 0 0 0 0 0 0 0l7.771-7.771c0.686-0.686 1.143-1.6 1.143-2.743s-0.457-2.057-1.143-2.743c-1.371-1.371-3.886-1.371-5.257 0l-9.371 9.371c-0.686 0.686-1.143 1.143-1.371 2.057-0.229 0.686-0.457 1.6-0.457 2.286 0 1.6 0.686 3.2 1.829 4.343s2.743 1.829 4.343 1.829 3.2-0.686 4.343-1.829l10.971-10.971c1.6-1.6 2.514-3.886 2.514-6.171s-0.914-4.571-2.514-6.171z"></path>
</svg>
