<!-- Generated by IcoMoon.io -->
<svg version="1.1" xmlns="http://www.w3.org/2000/svg" width="32" height="32" viewBox="0 0 32 32">
<path d="M8 20c0.245 0 0.481 0.090 0.664 0.253s0.3 0.387 0.329 0.63l0.007 0.117v2h2c0.255 0 0.5 0.098 0.685 0.273s0.297 0.414 0.312 0.669c0.015 0.254-0.068 0.505-0.232 0.7s-0.396 0.321-0.649 0.351l-0.117 0.007h-2c-0.505 0-0.991-0.19-1.361-0.534s-0.597-0.813-0.634-1.317l-0.005-0.15v-2c0-0.265 0.105-0.52 0.293-0.707s0.442-0.293 0.707-0.293zM24 20c0.265 0 0.52 0.105 0.707 0.293s0.293 0.442 0.293 0.707v2c0 0.53-0.211 1.039-0.586 1.414s-0.884 0.586-1.414 0.586h-2c-0.265 0-0.52-0.105-0.707-0.293s-0.293-0.442-0.293-0.707c0-0.265 0.105-0.52 0.293-0.707s0.442-0.293 0.707-0.293h2v-2c0-0.265 0.105-0.52 0.293-0.707s0.442-0.293 0.707-0.293zM11 7c0.265 0 0.52 0.105 0.707 0.293s0.293 0.442 0.293 0.707c0 0.265-0.105 0.52-0.293 0.707s-0.442 0.293-0.707 0.293h-2v2c0 0.265-0.105 0.52-0.293 0.707s-0.442 0.293-0.707 0.293c-0.265 0-0.52-0.105-0.707-0.293s-0.293-0.442-0.293-0.707v-2c0-0.53 0.211-1.039 0.586-1.414s0.884-0.586 1.414-0.586h2zM23 7c0.53 0 1.039 0.211 1.414 0.586s0.586 0.884 0.586 1.414v2c0 0.265-0.105 0.52-0.293 0.707s-0.442 0.293-0.707 0.293c-0.265 0-0.52-0.105-0.707-0.293s-0.293-0.442-0.293-0.707v-2h-2c-0.265 0-0.52-0.105-0.707-0.293s-0.293-0.442-0.293-0.707c0-0.265 0.105-0.52 0.293-0.707s0.442-0.293 0.707-0.293h2z"></path>
<path d="M19.127 17.637c-0.122 0.051-0.233 0.125-0.327 0.22-0.723 0.708-1.71 1.143-2.8 1.143-1.047 0.002-2.053-0.408-2.8-1.143-0.093-0.094-0.204-0.169-0.327-0.22s-0.254-0.077-0.386-0.076c-0.133 0-0.264 0.027-0.386 0.079s-0.233 0.127-0.326 0.221c-0.093 0.095-0.166 0.207-0.215 0.33s-0.073 0.255-0.071 0.387c0.002 0.133 0.031 0.263 0.084 0.385s0.13 0.231 0.226 0.322c1.12 1.101 2.629 1.717 4.2 1.715 1.571 0.002 3.080-0.614 4.2-1.715 0.096-0.091 0.173-0.201 0.226-0.322s0.082-0.252 0.084-0.385c0.002-0.133-0.022-0.264-0.071-0.387s-0.122-0.235-0.215-0.33c-0.093-0.095-0.203-0.17-0.326-0.221s-0.253-0.078-0.386-0.079c-0.133-0-0.264 0.026-0.386 0.076z"></path>
<path d="M13.561 12.439c-0.281-0.281-0.663-0.439-1.061-0.439s-0.779 0.158-1.061 0.439c-0.281 0.281-0.439 0.663-0.439 1.061s0.158 0.779 0.439 1.061c0.281 0.281 0.663 0.439 1.061 0.439s0.779-0.158 1.061-0.439c0.281-0.281 0.439-0.663 0.439-1.061s-0.158-0.779-0.439-1.061z"></path>
<path d="M20.561 12.439c-0.281-0.281-0.663-0.439-1.061-0.439s-0.779 0.158-1.061 0.439c-0.281 0.281-0.439 0.663-0.439 1.061s0.158 0.779 0.439 1.061c0.281 0.281 0.663 0.439 1.061 0.439s0.779-0.158 1.061-0.439c0.281-0.281 0.439-0.663 0.439-1.061s-0.158-0.779-0.439-1.061z"></path>
<path d="M24 28.167c2.301 0 4.167-1.866 4.167-4.167s-1.865-4.167-4.167-4.167-4.167 1.866-4.167 4.167c0 2.301 1.866 4.167 4.167 4.167z"></path>
<path fill="none" stroke="#f3f4f6" stroke-linejoin="round" stroke-linecap="round" stroke-miterlimit="4" stroke-width="0.8" d="M24 22.334v3.333M22.333 24h3.333M28.166 24c0 2.301-1.865 4.167-4.167 4.167s-4.167-1.866-4.167-4.167c0-2.301 1.866-4.167 4.167-4.167s4.167 1.866 4.167 4.167z"></path>
</svg>
