<!-- Generated by IcoMoon.io -->
<svg version="1.1" xmlns="http://www.w3.org/2000/svg" width="32" height="32" viewBox="0 0 32 32">
<path fill="#fff" d="M10.5 8.995l3.605-4.731c0.239-0.32 0.524-0.555 0.853-0.705s0.677-0.225 1.042-0.225 0.713 0.075 1.042 0.225c0.329 0.15 0.613 0.385 0.853 0.705l3.605 4.731 5.513 1.861c0.527 0.169 0.937 0.468 1.232 0.896s0.442 0.901 0.442 1.418c0 0.239-0.035 0.477-0.105 0.714s-0.185 0.465-0.344 0.682l-3.59 4.982 0.133 5.287c0.022 0.702-0.209 1.294-0.694 1.775s-1.050 0.722-1.695 0.722c-0.019 0-0.242-0.029-0.669-0.087l-5.723-1.641-5.723 1.641c-0.111 0.044-0.226 0.070-0.344 0.077s-0.227 0.010-0.325 0.010c-0.651 0-1.218-0.241-1.7-0.722s-0.712-1.073-0.69-1.775l0.133-5.321-3.569-4.949c-0.16-0.218-0.274-0.447-0.344-0.685s-0.105-0.477-0.105-0.715c0-0.503 0.146-0.971 0.439-1.403s0.702-0.739 1.227-0.92l5.5-1.849zM11.736 10.718l-6.095 2.031c-0.128 0.043-0.216 0.13-0.263 0.263s-0.028 0.254 0.058 0.365l3.928 5.544-0.146 5.956c-0.009 0.145 0.043 0.261 0.154 0.346s0.235 0.107 0.372 0.064l6.256-1.757 6.256 1.79c0.137 0.043 0.261 0.021 0.372-0.064s0.162-0.201 0.154-0.346l-0.146-5.99 3.928-5.477c0.086-0.111 0.105-0.233 0.058-0.365s-0.135-0.22-0.263-0.263l-6.095-2.097-3.943-5.205c-0.077-0.111-0.184-0.167-0.321-0.167s-0.244 0.056-0.321 0.167l-3.943 5.205z"></path>
</svg>
