<!-- Generated by IcoMoon.io -->
<svg version="1.1" xmlns="http://www.w3.org/2000/svg" width="32" height="32" viewBox="0 0 32 32">
<path d="M12.16 24.32c-0.384 0-0.896 0-1.28-0.256s-0.768-0.512-1.024-0.896l-4.096-5.888c-0.256-0.384-0.384-0.896-0.384-1.28s0.128-0.896 0.384-1.28l4.096-5.76c0.256-0.384 0.512-0.64 0.896-0.896s0.768-0.256 1.28-0.256h12.16c0.64 0 1.152 0.256 1.664 0.64 0.512 0.512 0.64 1.024 0.64 1.664v12.032c0 0.64-0.256 1.152-0.64 1.664-0.512 0.512-1.024 0.64-1.664 0.64h-12.16zM12.16 22.4h12.16c0 0 0.128 0 0.256 0 0 0 0-0.128 0-0.256v-12.16c0 0 0-0.128 0-0.256 0 0-0.128 0-0.256 0h-12.16c0 0-0.256 0-0.384 0 0 0-0.256 0.128-0.256 0.256l-4.224 5.888c0 0 0 0.128 0 0.256s0 0.128 0 0.256l4.224 5.888c0 0 0.128 0.128 0.256 0.256 0 0 0.256 0 0.384 0zM18.048 17.408l2.688 2.688c0.128 0.128 0.384 0.256 0.64 0.256s0.512 0 0.64-0.256c0.128-0.128 0.256-0.384 0.256-0.64s0-0.512-0.256-0.64l-2.688-2.688 2.688-2.688c0.128-0.128 0.256-0.384 0.256-0.64s0-0.512-0.256-0.64c-0.128-0.128-0.384-0.256-0.64-0.256s-0.512 0-0.64 0.256l-2.688 2.688-2.688-2.688c-0.128-0.128-0.384-0.256-0.64-0.256s-0.512 0-0.64 0.256c-0.128 0.128-0.256 0.384-0.256 0.64s0 0.512 0.256 0.64l2.688 2.688-2.688 2.688c-0.128 0.128-0.256 0.384-0.256 0.64s0 0.512 0.256 0.64c0.128 0.128 0.384 0.256 0.64 0.256s0.512 0 0.64-0.256l2.688-2.688z"></path>
</svg>
