<!-- Generated by IcoMoon.io -->
<svg version="1.1" xmlns="http://www.w3.org/2000/svg" width="32" height="32" viewBox="0 0 32 32">
<path d="M5.904 27.709c-0.314 0-0.577-0.11-0.789-0.331s-0.319-0.488-0.319-0.801v-6.252c0-0.638 0.226-1.183 0.678-1.636s0.998-0.678 1.636-0.678h0.246v-5.218c0-0.639 0.226-1.184 0.678-1.636s0.998-0.678 1.636-0.678h5.046v-1.881c-0.376-0.248-0.683-0.539-0.922-0.873s-0.358-0.732-0.358-1.195c0-0.287 0.056-0.565 0.167-0.833s0.279-0.514 0.502-0.737l1.159-1.159c0.035-0.035 0.172-0.095 0.411-0.18 0.043 0 0.18 0.060 0.411 0.18l1.159 1.159c0.223 0.223 0.391 0.469 0.502 0.737s0.167 0.546 0.167 0.833c0 0.463-0.119 0.861-0.358 1.195s-0.546 0.625-0.922 0.873v1.881h5.046c0.638 0 1.183 0.226 1.636 0.678s0.678 0.997 0.678 1.636v5.218h0.246c0.638 0 1.183 0.226 1.636 0.678s0.678 0.998 0.678 1.636v6.252c0 0.314-0.11 0.581-0.331 0.801s-0.488 0.331-0.801 0.331h-19.52zM9.276 18.010h12.8v-5.218c0-0.115-0.037-0.209-0.111-0.283s-0.168-0.111-0.283-0.111h-12.012c-0.115 0-0.209 0.037-0.283 0.111s-0.111 0.168-0.111 0.283v5.218zM6.716 25.789h17.92v-5.465c0-0.115-0.037-0.209-0.111-0.283s-0.168-0.111-0.283-0.111h-17.132c-0.115 0-0.209 0.037-0.283 0.111s-0.111 0.168-0.111 0.283v5.465z"></path>
</svg>
