<!-- Generated by IcoMoon.io -->
<svg version="1.1" xmlns="http://www.w3.org/2000/svg" width="32" height="32" viewBox="0 0 32 32">
<path d="M26 14c0.4 0.3 0.8 0.6 1.2 1 0.7 0.5 0.9 1.2 0.6 2 0 0.2 0 0.4-0.2 0.5-0.6 1.5-0.6 3.1-0.6 4.6 0 0.4 0 0.7 0 1.1-0.2 0.7-0.8 1.1-1.4 1.2-0.9 0-1.8 0-2.8 0-0.8 0-1.4-0.7-1.5-1.5 0-0.3 0-0.6 0-0.8 0-0.3-0.1-0.3-0.3-0.3-2.9 0-5.8 0-8.7 0s-0.8 0-1.2 0c-0.2 0-0.2 0-0.2 0.2 0 0.3 0 0.6 0 0.8 0 0.8-0.7 1.5-1.6 1.5s-1.8 0-2.6 0c-0.9 0-1.5-0.7-1.5-1.6 0-1 0-2.1 0-3.1 0-0.2 0-0.4 0-0.6-0.2-0.7-0.5-1.5-0.7-2.2s0-1.3 0.5-1.8c0.4-0.3 0.8-0.7 1.2-1-0.6-0.4-1.1-0.8-1.7-1.1-0.1 0-0.2-0.1-0.3-0.3s0-0.4 0-0.6c0.2-0.2 0.4-0.2 0.7 0 0.6 0.4 1.1 0.7 1.7 1.1 0.2 0.2 0.3 0 0.4-0.1 0.6-1.4 1.2-2.7 1.8-4.1 0.3-0.7 0.9-1.1 1.7-1.1 3.8 0 7.6 0 11.4 0 0.8 0 1.4 0.4 1.7 1.1 0.6 1.4 1.2 2.7 1.8 4.1 0 0.2 0.2 0.2 0.4 0.1 0.5-0.4 1.1-0.7 1.6-1.1 0.3-0.2 0.6-0.2 0.8 0 0.2 0.3 0.1 0.6-0.2 0.8-0.6 0.4-1.1 0.8-1.7 1.1v0zM16 14.5c-2.9 0-5.8 0-8.7 0-0.2 0-0.4 0-0.5 0.2-1.1 1.1 0 0-1.1 1.1-0.3 0.2-0.3 0.4-0.2 0.7 0.3 1 0.3 1.6 0.6 2.6 0.2 0.7 0.7 1.2 1.4 1.2 5.5 0 11 0 16.5 0 0.7 0 1-0.3 1.5-1.3s0.5-1.6 1-2.5c0-0.3 0-0.5-0.2-0.7l-1.1-1.1c-0.2-0.1-0.3-0.2-0.6-0.2-2.9 0-5.8 0-8.6 0zM16.5 13c2.6 0 4.4 0 7 0 0.3 0 0.3 0 0.2-0.3-0.6-1.3-0.6-2-1.2-3.3-0.1-0.3-0.3-0.5-0.7-0.5-3.8 0-7.6 0-11.4 0-0.4 0-0.6 0.1-0.7 0.5-0.6 1.3-0.8 1.9-1.4 3.2 0 0.2 0 0.3 0.2 0.3 2.6 0 5.4 0 8 0zM6.1 21.1c0 0.6 0 1.1 0 1.6 0 0.3 0.2 0.5 0.6 0.5 0.8 0 1.7 0 2.5 0 0.3 0 0.5-0.2 0.5-0.5s0-0.5 0-0.8c0-0.2 0-0.2-0.2-0.2-0.5 0-1 0-1.6 0-0.7 0-1.3-0.1-1.9-0.6v0zM25.9 21.1c-0.6 0.5-1.3 0.6-2 0.6-0.2 0-0.5 0-0.7 0-0.3 0-0.8-0.1-0.9 0-0.2 0.2 0 0.6 0 1 0 0.3 0.2 0.5 0.5 0.5 0.9 0 1.7 0 2.6 0 0.3 0 0.5-0.2 0.5-0.5 0-0.5 0-1 0-1.6z"></path>
</svg>
