<!-- Generated by IcoMoon.io -->
<svg version="1.1" xmlns="http://www.w3.org/2000/svg" width="32" height="32" viewBox="0 0 32 32">
<path d="M27 4h-4v-1c0-0.265-0.105-0.52-0.293-0.707s-0.442-0.293-0.707-0.293-0.52 0.105-0.707 0.293c-0.188 0.188-0.293 0.442-0.293 0.707v1h-10v-1c0-0.265-0.105-0.52-0.293-0.707s-0.442-0.293-0.707-0.293c-0.265 0-0.52 0.105-0.707 0.293s-0.293 0.442-0.293 0.707v1h-4c-0.796 0-1.559 0.316-2.121 0.879s-0.879 1.326-0.879 2.121v20c0 0.796 0.316 1.559 0.879 2.121s1.326 0.879 2.121 0.879h22c0.796 0 1.559-0.316 2.121-0.879s0.879-1.326 0.879-2.121v-20c0-0.796-0.316-1.559-0.879-2.121s-1.326-0.879-2.121-0.879zM5 6h22c0.265 0 0.52 0.105 0.707 0.293s0.293 0.442 0.293 0.707v3h-24v-3c0-0.265 0.105-0.52 0.293-0.707s0.442-0.293 0.707-0.293zM27 28h-22c-0.265 0-0.52-0.105-0.707-0.293s-0.293-0.442-0.293-0.707v-15h24v15c0 0.265-0.105 0.52-0.293 0.707s-0.442 0.293-0.707 0.293z"></path>
<path d="M20.351 15.241l-6.3 5.4-2.346-2.345c-0.189-0.182-0.441-0.283-0.703-0.281s-0.513 0.107-0.698 0.293c-0.185 0.185-0.291 0.436-0.293 0.698s0.099 0.515 0.281 0.703l3 3c0.178 0.178 0.417 0.282 0.668 0.292s0.497-0.076 0.689-0.24l7-6c0.105-0.084 0.193-0.187 0.257-0.306s0.104-0.248 0.117-0.382-0.001-0.269-0.042-0.397c-0.041-0.128-0.107-0.247-0.194-0.349s-0.195-0.186-0.315-0.245c-0.12-0.060-0.252-0.095-0.386-0.102s-0.269 0.011-0.395 0.057-0.243 0.116-0.342 0.207l0.003-0.003z"></path>
</svg>
