<!-- Generated by IcoMoon.io -->
<svg version="1.1" xmlns="http://www.w3.org/2000/svg" width="32" height="32" viewBox="0 0 32 32">
<path d="M6.533 29.333c-0.667 0-1.333-0.267-1.733-0.667-0.533-0.533-0.667-1.067-0.667-1.733v-18.8c0-0.667 0.267-1.333 0.667-1.733 0.533-0.533 1.067-0.667 1.733-0.667h1.867v-1.867c0-0.267 0-0.533 0.267-0.8s0.4-0.267 0.8-0.267 0.533 0 0.8 0.267 0.267 0.4 0.267 0.8v1.867h10.533v-1.867c0-0.267 0-0.533 0.267-0.8s0.4-0.267 0.8-0.267 0.533 0 0.8 0.267 0.267 0.4 0.267 0.8v1.867h1.867c0.667 0 1.333 0.267 1.733 0.667 0.533 0.533 0.667 1.067 0.667 1.733v18.667c0 0.667-0.267 1.333-0.667 1.733s-1.067 0.667-1.733 0.667h-18.533zM6.533 27.2h18.667c0 0 0.267 0 0.267-0.133 0 0 0.133-0.133 0.133-0.267v-13.067h-19.467v13.067c0 0 0 0.267 0.133 0.267 0 0 0.133 0.133 0.267 0.133zM6.133 11.6h19.467v-3.467c0 0 0-0.267-0.133-0.267 0 0-0.133-0.133-0.267-0.133h-18.667c0 0-0.267 0-0.267 0.133 0 0-0.133 0.133-0.133 0.267v3.467zM15.867 18.933c-0.4 0-0.667 0-0.933-0.4-0.267-0.267-0.4-0.533-0.4-0.933s0-0.667 0.4-0.933c0.267-0.267 0.533-0.4 0.933-0.4s0.667 0 0.933 0.4c0.267 0.267 0.4 0.533 0.4 0.933s0 0.667-0.4 0.933-0.533 0.4-0.933 0.4zM10.267 18.933c-0.4 0-0.667 0-0.933-0.4-0.267-0.267-0.4-0.533-0.4-0.933s0-0.667 0.4-0.933c0.267-0.267 0.533-0.4 0.933-0.4s0.667 0 0.933 0.4c0.267 0.267 0.4 0.533 0.4 0.933s0 0.667-0.4 0.933c-0.267 0.267-0.533 0.4-0.933 0.4zM21.467 18.933c-0.4 0-0.667 0-0.933-0.4s-0.4-0.533-0.4-0.933 0-0.667 0.4-0.933c0.267-0.267 0.533-0.4 0.933-0.4s0.667 0 0.933 0.4c0.267 0.267 0.4 0.533 0.4 0.933s0 0.667-0.4 0.933c-0.267 0.267-0.533 0.4-0.933 0.4zM15.867 24.4c-0.4 0-0.667 0-0.933-0.4-0.267-0.267-0.4-0.533-0.4-0.933s0-0.667 0.4-0.933c0.267-0.267 0.533-0.4 0.933-0.4s0.667 0 0.933 0.4 0.4 0.533 0.4 0.933 0 0.667-0.4 0.933c-0.267 0.267-0.533 0.4-0.933 0.4zM10.267 24.4c-0.4 0-0.667 0-0.933-0.4-0.267-0.267-0.4-0.533-0.4-0.933s0-0.667 0.4-0.933c0.267-0.267 0.533-0.4 0.933-0.4s0.667 0 0.933 0.4c0.267 0.267 0.4 0.533 0.4 0.933s0 0.667-0.4 0.933c-0.267 0.267-0.533 0.4-0.933 0.4zM21.467 24.4c-0.4 0-0.667 0-0.933-0.4-0.267-0.267-0.4-0.533-0.4-0.933s0-0.667 0.4-0.933 0.533-0.4 0.933-0.4 0.667 0 0.933 0.4c0.267 0.267 0.4 0.533 0.4 0.933s0 0.667-0.4 0.933c-0.267 0.267-0.533 0.4-0.933 0.4z"></path>
</svg>
