<!-- Generated by IcoMoon.io -->
<svg version="1.1" xmlns="http://www.w3.org/2000/svg" width="32" height="32" viewBox="0 0 32 32">
<path fill="none" stroke-linejoin="round" stroke-linecap="round" stroke-miterlimit="4" stroke-width="1.4713" stroke="#000" d="M25.333 22.222c0 0.471-0.179 0.924-0.497 1.257s-0.75 0.521-1.2 0.521h-15.273c-0.45 0-0.882-0.187-1.2-0.521s-0.497-0.786-0.497-1.257v-9.778c0-0.472 0.179-0.924 0.497-1.257s0.75-0.521 1.2-0.521h3.394l1.697-2.667h5.091l1.697 2.667h3.394c0.45 0 0.882 0.187 1.2 0.521s0.497 0.786 0.497 1.257v9.778z"></path>
<path fill="none" stroke-linejoin="round" stroke-linecap="round" stroke-miterlimit="4" stroke-width="1.4713" stroke="#000" d="M16 19.333c1.473 0 2.667-1.194 2.667-2.667s-1.194-2.667-2.667-2.667c-1.473 0-2.667 1.194-2.667 2.667s1.194 2.667 2.667 2.667z"></path>
</svg>
