<!-- Generated by IcoMoon.io -->
<svg version="1.1" xmlns="http://www.w3.org/2000/svg" width="32" height="32" viewBox="0 0 32 32">
<path d="M5.204 25.623l9.4-3.333-6.067-6.067-3.333 9.4zM27.965 10.39c-0.157 0.166-0.342 0.249-0.553 0.249s-0.395-0.079-0.552-0.236l-0.087-0.087c-0.362-0.362-0.803-0.544-1.32-0.544s-0.958 0.181-1.321 0.544l-6.754 6.754c-0.157 0.157-0.341 0.238-0.552 0.242s-0.399-0.076-0.565-0.242c-0.166-0.166-0.249-0.352-0.249-0.559s0.083-0.393 0.249-0.559l6.754-6.754c0.668-0.668 1.477-1.002 2.426-1.002s1.757 0.334 2.426 1.002l0.1 0.1c0.157 0.157 0.236 0.339 0.236 0.546s-0.079 0.389-0.236 0.546zM11.347 6.556c0.166-0.166 0.352-0.249 0.559-0.249s0.393 0.083 0.559 0.249l0.282 0.282c0.711 0.711 1.067 1.564 1.067 2.559s-0.356 1.848-1.067 2.559l-0.241 0.241c-0.157 0.157-0.341 0.238-0.552 0.242s-0.4-0.077-0.566-0.242c-0.166-0.166-0.249-0.352-0.249-0.559s0.083-0.393 0.249-0.559l0.241-0.241c0.396-0.396 0.595-0.877 0.595-1.441s-0.198-1.044-0.595-1.441l-0.282-0.282c-0.157-0.157-0.238-0.342-0.242-0.553s0.077-0.4 0.242-0.565zM16.491 4.249c0.166-0.166 0.352-0.249 0.559-0.249s0.393 0.083 0.559 0.249l1.42 1.421c0.677 0.677 1.016 1.49 1.016 2.438s-0.339 1.761-1.016 2.438l-4.087 4.087c-0.157 0.157-0.341 0.238-0.553 0.242s-0.399-0.077-0.565-0.242c-0.166-0.166-0.249-0.352-0.249-0.559s0.083-0.393 0.249-0.559l4.087-4.087c0.362-0.362 0.543-0.803 0.543-1.321s-0.181-0.958-0.543-1.321l-1.421-1.42c-0.157-0.157-0.238-0.342-0.242-0.553s0.077-0.4 0.242-0.565zM25.978 19.505c-0.166 0.166-0.352 0.249-0.559 0.249s-0.393-0.083-0.559-0.249l-1.036-1.036c-0.405-0.405-0.901-0.608-1.487-0.608s-1.082 0.203-1.487 0.608l-1.036 1.036c-0.157 0.157-0.342 0.238-0.553 0.242s-0.4-0.077-0.565-0.242c-0.166-0.166-0.249-0.352-0.249-0.559s0.083-0.393 0.249-0.559l1.036-1.036c0.719-0.72 1.588-1.080 2.605-1.080s1.886 0.36 2.605 1.080l1.036 1.036c0.157 0.157 0.238 0.341 0.242 0.553s-0.077 0.399-0.242 0.565zM2.75 26.51l4.367-12.141c0.103-0.263 0.258-0.464 0.465-0.603s0.432-0.208 0.673-0.208c0.161 0 0.31 0.027 0.449 0.081s0.27 0.143 0.395 0.268l7.821 7.82c0.125 0.125 0.214 0.257 0.268 0.395s0.081 0.288 0.081 0.449c0 0.241-0.069 0.465-0.208 0.673s-0.339 0.363-0.603 0.465l-12.141 4.367c-0.241 0.094-0.473 0.109-0.696 0.044s-0.415-0.178-0.576-0.338-0.273-0.353-0.338-0.576c-0.065-0.223-0.051-0.455 0.043-0.696z"></path>
</svg>
