<!-- Generated by IcoMoon.io -->
<svg version="1.1" xmlns="http://www.w3.org/2000/svg" width="32" height="32" viewBox="0 0 32 32">
<path d="M16.033 5.912c2.68 0 4.95 0.93 6.811 2.789s2.791 4.129 2.791 6.809c0 2.679-0.93 4.95-2.789 6.811s-4.129 2.791-6.809 2.791c-2.679 0-4.95-0.93-6.811-2.79s-2.791-4.129-2.791-6.809c0-2.68 0.93-4.95 2.789-6.811s4.129-2.791 6.809-2.791zM16.035 23.192c2.133 0 3.947-0.747 5.44-2.24s2.24-3.307 2.24-5.44c0-2.133-0.747-3.947-2.24-5.44s-3.307-2.24-5.44-2.24c-2.133 0-3.947 0.747-5.44 2.24s-2.24 3.307-2.24 5.44c0 2.133 0.747 3.947 2.24 5.44s3.307 2.24 5.44 2.24zM11.727 12.954c0 0.328 0.111 0.603 0.333 0.824s0.497 0.331 0.826 0.331c0.328 0 0.603-0.111 0.824-0.333s0.331-0.497 0.331-0.826c0-0.328-0.111-0.603-0.333-0.824s-0.497-0.331-0.826-0.331c-0.328 0-0.603 0.111-0.824 0.333s-0.331 0.497-0.331 0.826zM18.029 12.954c0 0.328 0.111 0.603 0.333 0.824s0.497 0.331 0.826 0.331c0.328 0 0.603-0.111 0.824-0.333s0.331-0.497 0.331-0.826c0-0.328-0.111-0.603-0.333-0.824s-0.497-0.331-0.826-0.331c-0.328 0-0.603 0.111-0.824 0.333s-0.331 0.497-0.331 0.826zM2.595 6.872v-2.486c0-0.636 0.227-1.181 0.68-1.634s0.998-0.68 1.634-0.68h2.486c0.272 0 0.5 0.092 0.684 0.276s0.276 0.412 0.276 0.684c0 0.272-0.092 0.5-0.276 0.684s-0.412 0.276-0.684 0.276h-2.486c-0.115 0-0.209 0.037-0.283 0.111s-0.111 0.168-0.111 0.283v2.486c0 0.272-0.092 0.5-0.276 0.684s-0.412 0.276-0.684 0.276c-0.272 0-0.5-0.092-0.684-0.276s-0.276-0.412-0.276-0.684zM7.395 28.952h-2.486c-0.636 0-1.181-0.227-1.634-0.68s-0.68-0.998-0.68-1.634v-2.486c0-0.272 0.092-0.5 0.276-0.684s0.412-0.276 0.684-0.276c0.272 0 0.5 0.092 0.684 0.276s0.276 0.412 0.276 0.684v2.486c0 0.115 0.037 0.209 0.111 0.283s0.168 0.111 0.283 0.111h2.486c0.272 0 0.5 0.092 0.684 0.276s0.276 0.412 0.276 0.684c0 0.272-0.092 0.5-0.276 0.684s-0.412 0.276-0.684 0.276zM27.161 28.829h-2.486c-0.272 0-0.5-0.092-0.684-0.276s-0.276-0.412-0.276-0.684c0-0.272 0.092-0.5 0.276-0.684s0.412-0.276 0.684-0.276h2.486c0.115 0 0.209-0.037 0.283-0.111s0.111-0.168 0.111-0.283v-2.486c0-0.272 0.092-0.5 0.276-0.684s0.412-0.276 0.684-0.276c0.272 0 0.5 0.092 0.684 0.276s0.276 0.412 0.276 0.684v2.486c0 0.636-0.227 1.181-0.68 1.634s-0.998 0.68-1.634 0.68zM27.555 6.872v-2.486c0-0.115-0.037-0.209-0.111-0.283s-0.168-0.111-0.283-0.111h-2.486c-0.272 0-0.5-0.092-0.684-0.276s-0.276-0.412-0.276-0.684c0-0.272 0.092-0.5 0.276-0.684s0.412-0.276 0.684-0.276h2.486c0.636 0 1.181 0.227 1.634 0.68s0.68 0.998 0.68 1.634v2.486c0 0.272-0.092 0.5-0.276 0.684s-0.412 0.276-0.684 0.276c-0.272 0-0.5-0.092-0.684-0.276s-0.276-0.412-0.276-0.684zM16.035 19.746c0.761 0 1.472-0.176 2.133-0.527s1.204-0.833 1.631-1.445c0.12-0.218 0.119-0.436-0.004-0.655s-0.314-0.327-0.575-0.327h-6.371c-0.261 0-0.452 0.109-0.575 0.327s-0.123 0.436-0.004 0.655c0.427 0.612 0.97 1.094 1.631 1.445s1.371 0.527 2.133 0.527z"></path>
</svg>
