<!-- Generated by IcoMoon.io -->
<svg version="1.1" xmlns="http://www.w3.org/2000/svg" width="32" height="32" viewBox="0 0 32 32">
<path d="M15.998 8.5c2.093 0 3.867 0.726 5.321 2.179s2.181 3.226 2.181 5.319-0.726 3.867-2.179 5.321c-1.453 1.454-3.226 2.181-5.319 2.181s-3.867-0.726-5.321-2.179c-1.454-1.453-2.181-3.226-2.181-5.319s0.726-3.867 2.179-5.321c1.453-1.454 3.226-2.181 5.319-2.181zM16 22c1.667 0 3.083-0.583 4.25-1.75s1.75-2.583 1.75-4.25c0-1.667-0.583-3.083-1.75-4.25s-2.583-1.75-4.25-1.75c-1.667 0-3.083 0.583-4.25 1.75s-1.75 2.583-1.75 4.25c0 1.667 0.583 3.083 1.75 4.25s2.583 1.75 4.25 1.75zM12.635 14.002c0 0.257 0.087 0.471 0.26 0.644s0.389 0.258 0.645 0.258c0.257 0 0.471-0.087 0.644-0.26s0.258-0.389 0.258-0.645c0-0.257-0.087-0.471-0.26-0.643s-0.389-0.259-0.645-0.259c-0.257 0-0.471 0.087-0.643 0.26s-0.258 0.389-0.258 0.645zM17.558 14.002c0 0.257 0.087 0.471 0.26 0.644s0.389 0.258 0.645 0.258c0.256 0 0.471-0.087 0.643-0.26s0.258-0.389 0.258-0.645c0-0.257-0.087-0.471-0.26-0.643s-0.389-0.259-0.645-0.259c-0.256 0-0.471 0.087-0.643 0.26s-0.259 0.389-0.259 0.645zM5.5 9.25v-1.942c0-0.497 0.177-0.923 0.531-1.277s0.78-0.531 1.277-0.531h1.942c0.213 0 0.391 0.072 0.534 0.216s0.216 0.322 0.216 0.535c0 0.213-0.072 0.391-0.216 0.534s-0.322 0.215-0.534 0.215h-1.942c-0.090 0-0.164 0.029-0.221 0.087s-0.087 0.131-0.087 0.221v1.942c0 0.213-0.072 0.391-0.216 0.534s-0.322 0.216-0.534 0.216c-0.213 0-0.391-0.072-0.534-0.216s-0.215-0.322-0.215-0.534zM9.25 26.5h-1.942c-0.497 0-0.923-0.177-1.277-0.531s-0.531-0.78-0.531-1.277v-1.942c0-0.212 0.072-0.391 0.216-0.535s0.322-0.215 0.535-0.215c0.213 0 0.391 0.072 0.534 0.215s0.215 0.322 0.215 0.535v1.942c0 0.090 0.029 0.163 0.087 0.221s0.131 0.087 0.221 0.087h1.942c0.213 0 0.391 0.072 0.534 0.216s0.216 0.322 0.216 0.535c0 0.213-0.072 0.391-0.216 0.534s-0.322 0.215-0.534 0.215zM24.692 26.404h-1.942c-0.212 0-0.391-0.072-0.535-0.216s-0.215-0.322-0.215-0.535c0-0.213 0.072-0.391 0.215-0.534s0.322-0.215 0.535-0.215h1.942c0.090 0 0.163-0.029 0.221-0.087s0.087-0.131 0.087-0.221v-1.942c0-0.212 0.072-0.391 0.216-0.534s0.322-0.216 0.535-0.216c0.213 0 0.391 0.072 0.534 0.216s0.215 0.322 0.215 0.534v1.942c0 0.497-0.177 0.923-0.531 1.277s-0.78 0.531-1.277 0.531zM25 9.25v-1.942c0-0.090-0.029-0.164-0.087-0.221s-0.131-0.087-0.221-0.087h-1.942c-0.212 0-0.391-0.072-0.535-0.216s-0.215-0.322-0.215-0.534c0-0.213 0.072-0.391 0.215-0.534s0.322-0.215 0.535-0.215h1.942c0.497 0 0.923 0.177 1.277 0.531s0.531 0.78 0.531 1.277v1.942c0 0.213-0.072 0.391-0.216 0.534s-0.322 0.216-0.535 0.216c-0.213 0-0.391-0.072-0.534-0.216s-0.215-0.322-0.215-0.534zM16 19.308c0.595 0 1.15-0.137 1.666-0.412s0.941-0.651 1.274-1.129c0.094-0.171 0.093-0.341-0.003-0.512s-0.245-0.256-0.449-0.256h-4.977c-0.204 0-0.354 0.085-0.449 0.256s-0.096 0.341-0.003 0.512c0.333 0.478 0.758 0.854 1.274 1.129s1.071 0.412 1.666 0.412z"></path>
</svg>
