<!-- Generated by IcoMoon.io -->
<svg version="1.1" xmlns="http://www.w3.org/2000/svg" width="32" height="32" viewBox="0 0 32 32">
<path d="M27.467 9.333c-1.867-3.333-5.2-5.6-9.067-6.4-3.867-0.667-7.867 0.267-10.8 2.8 0 0 0 0-0.267 0.133 0 0-0.133 0.133-0.267 0.267-0.267 0.267-0.4 0.533-0.4 0.933 0 0.133 0 0.267 0 0.4s0.133 0.267 0.267 0.4c0 0 0.267 0.133 0.4 0.267 0.4 0.133 0.933 0 1.2-0.267 0.933-0.933 2.133-1.6 3.333-2.133-0.667 1.333-1.333 2.933-1.733 4.8-2.267-0.533-3.6-1.333-4-1.733-0.4-0.267-1.067-0.267-1.467 0.267v0c-2.533 4-2.667 9.067-0.267 13.333s6.667 6.8 11.333 6.8c0 0 0.267 0 0.267 0 4.667 0 8.933-2.533 11.333-6.667 2.4-4.267 2.4-9.2 0-13.2zM22.133 12.8c1.733-0.4 3.067-0.933 3.867-1.333 0.8 1.733 1.067 3.467 0.933 5.333-1.467 0.8-3.067 1.467-4.8 1.867 0.133-1.867 0.133-3.867 0-5.867zM12.4 10.933c0.4-1.733 0.933-3.333 1.6-4.4s1.333-1.6 2-1.6 1.333 0.533 2 1.6c0.667 1.067 1.2 2.667 1.6 4.4-2.133 0.267-5.067 0.4-7.2 0zM19.867 19.2c-2.533 0.4-5.2 0.4-7.733 0-0.267-1.867-0.267-4.133 0-6 2.4 0.4 5.467 0.4 7.867 0 0.267 2 0.133 4.133 0 6zM20.133 5.733c1.867 0.8 3.6 2.133 4.8 3.733-0.533 0.267-1.6 0.667-3.067 1.067-0.4-1.867-0.933-3.467-1.733-4.8zM19.467 21.467c-0.133 0.667-0.4 1.467-0.667 2.133 0 0.267 0 0.533 0 0.8s0.4 0.533 0.667 0.533c0.267 0 0.533 0 0.8 0s0.533-0.4 0.533-0.667v0s0 0 0 0c0.4-1.067 0.667-2.133 0.933-3.467 1.6-0.4 3.067-0.933 4.667-1.6-1.467 4.4-6 7.6-10.533 7.467-0.667 0-1.333-0.667-1.867-1.6-0.667-0.933-1.067-2.267-1.467-3.867 2.267 0.267 4.667 0.267 6.933 0zM5.6 19.6c1.467 0.667 2.933 1.2 4.533 1.6 0.4 2 0.933 3.733 1.733 5.067-2.933-1.2-5.333-3.733-6.267-6.667zM9.733 18.667c-1.6-0.4-3.2-1.067-4.8-1.867 0-1.867 0.267-3.733 0.933-5.333 0.8 0.4 2.133 0.933 3.867 1.333-0.267 1.867-0.267 4 0 5.867z"></path>
</svg>
