<!-- Generated by IcoMoon.io -->
<svg version="1.1" xmlns="http://www.w3.org/2000/svg" width="32" height="32" viewBox="0 0 32 32">
<path fill="#9ca3af" stroke="#9ca3af" stroke-linejoin="miter" stroke-linecap="butt" stroke-miterlimit="4" stroke-width="0.48" d="M8.393 7.689c1.173-1.078 2.561-1.893 4.069-2.392-0.918 1.377-1.634 3.283-2.069 5.519-2.212-0.538-3.652-1.276-4.358-1.76l0-0-0.010-0.006c-0.337-0.207-0.838-0.175-1.12 0.162l-0.010 0.012-0.008 0.013c-5.367 8.417 1.146 19.921 11.122 19.769 9.984 0.105 16.322-11.162 11.233-19.597-3.898-6.887-13.421-8.564-19.452-3.546l-0-0-0.013 0.012c-0.065 0.063-0.143 0.124-0.233 0.195l-0.009 0.007c-0.085 0.067-0.18 0.142-0.268 0.224-0.182 0.171-0.361 0.403-0.367 0.733h-0v0.003c-0 0.117 0.022 0.233 0.067 0.341s0.11 0.206 0.192 0.289c0.082 0.083 0.18 0.149 0.288 0.194s0.224 0.068 0.341 0.069h0.002c0.224-0.001 0.44-0.087 0.604-0.24zM20.708 24.409l0 0 0.002-0.006c0.409-1.152 0.713-2.331 0.941-3.524 1.792-0.408 3.533-1.014 5.191-1.807-1.307 4.8-6.127 8.291-10.92 8.14-0.652-0.044-1.391-0.605-2.083-1.71-0.644-1.029-1.214-2.483-1.604-4.266 2.479 0.374 5.040 0.374 7.519 0.001-0.187 0.859-0.424 1.706-0.711 2.537-0.083 0.219-0.076 0.463 0.019 0.677 0.096 0.216 0.273 0.385 0.494 0.47s0.465 0.079 0.681-0.017c0.216-0.096 0.385-0.274 0.47-0.494zM19.543 5.281c2.267 0.735 4.367 2.312 5.681 4.229-0.797 0.424-2.017 0.918-3.601 1.306-0.437-2.244-1.157-4.156-2.080-5.534zM16.008 4.724c0.678 0 1.46 0.57 2.189 1.748 0.691 1.117 1.295 2.722 1.68 4.696-2.273 0.39-5.467 0.39-7.74 0 0.386-1.975 0.99-3.58 1.681-4.697 0.729-1.178 1.511-1.748 2.189-1.748zM11.91 19.385c-0.268-1.98-0.284-4.443-0.042-6.454 2.447 0.414 5.83 0.414 8.277 0 0.237 2.056 0.255 4.364-0.046 6.453-2.709 0.472-5.48 0.472-8.189 0.001zM4.812 16.897c-0.169-2.011 0.21-4.029 1.094-5.84 0.966 0.521 2.39 1.097 4.21 1.528-0.251 2.019-0.266 4.356-0.042 6.399-1.833-0.476-3.6-1.177-5.262-2.086zM12.458 26.645c-3.473-1.116-6.314-4.161-7.251-7.548 1.643 0.781 3.366 1.379 5.14 1.783 0.429 2.341 1.161 4.338 2.111 5.765zM27.223 16.881c-1.669 0.917-3.445 1.622-5.287 2.101 0.247-2.098 0.209-4.355-0.038-6.397 1.832-0.434 3.262-1.015 4.228-1.538 0.879 1.811 1.258 3.826 1.096 5.834z"></path>
</svg>
