<!-- Generated by IcoMoon.io -->
<svg version="1.1" xmlns="http://www.w3.org/2000/svg" width="32" height="32" viewBox="0 0 32 32">
<path fill="#9ca3af" d="M1.333 22.933c0-0.756 0.194-1.45 0.583-2.083s0.906-1.117 1.55-1.45c1.378-0.689 2.778-1.206 4.2-1.55s2.867-0.517 4.333-0.517c1.467 0 2.911 0.172 4.333 0.517s2.822 0.861 4.2 1.55c0.644 0.333 1.161 0.817 1.55 1.45s0.583 1.328 0.583 2.083v1.067c0 0.733-0.261 1.361-0.783 1.883s-1.15 0.783-1.883 0.783h-16c-0.733 0-1.361-0.261-1.883-0.783s-0.783-1.15-0.783-1.883v-1.067zM28 26.667h-3.4c0.244-0.4 0.428-0.828 0.55-1.283s0.183-0.917 0.183-1.383v-1.333c0-0.978-0.272-1.917-0.817-2.817s-1.317-1.672-2.317-2.317c1.133 0.133 2.2 0.361 3.2 0.683s1.933 0.717 2.8 1.183c0.8 0.444 1.411 0.939 1.833 1.483s0.633 1.139 0.633 1.783v1.333c0 0.733-0.261 1.361-0.783 1.883s-1.15 0.783-1.883 0.783zM12 16c-1.467 0-2.722-0.522-3.767-1.567s-1.567-2.3-1.567-3.767c0-1.467 0.522-2.722 1.567-3.767s2.3-1.567 3.767-1.567c1.467 0 2.722 0.522 3.767 1.567s1.567 2.3 1.567 3.767c0 1.467-0.522 2.722-1.567 3.767s-2.3 1.567-3.767 1.567zM25.333 10.667c0 1.467-0.522 2.722-1.567 3.767s-2.3 1.567-3.767 1.567c-0.244 0-0.556-0.028-0.933-0.083s-0.689-0.117-0.933-0.183c0.6-0.711 1.061-1.5 1.383-2.367s0.483-1.767 0.483-2.7c0-0.933-0.161-1.833-0.483-2.7s-0.783-1.656-1.383-2.367c0.311-0.111 0.622-0.183 0.933-0.217s0.622-0.050 0.933-0.050c1.467 0 2.722 0.522 3.767 1.567s1.567 2.3 1.567 3.767zM4 24h16v-1.067c0-0.244-0.061-0.467-0.183-0.667s-0.283-0.356-0.483-0.467c-1.2-0.6-2.411-1.050-3.633-1.35s-2.456-0.45-3.7-0.45c-1.244 0-2.478 0.15-3.7 0.45s-2.433 0.75-3.633 1.35c-0.2 0.111-0.361 0.267-0.483 0.467s-0.183 0.422-0.183 0.667v1.067zM12 13.333c0.733 0 1.361-0.261 1.883-0.783s0.783-1.15 0.783-1.883c0-0.733-0.261-1.361-0.783-1.883s-1.15-0.783-1.883-0.783c-0.733 0-1.361 0.261-1.883 0.783s-0.783 1.15-0.783 1.883c0 0.733 0.261 1.361 0.783 1.883s1.15 0.783 1.883 0.783z"></path>
<path fill="#dc2626" d="M32 5.333c0 2.946-2.388 5.333-5.333 5.333s-5.333-2.388-5.333-5.333c0-2.946 2.388-5.333 5.333-5.333s5.333 2.388 5.333 5.333z"></path>
</svg>
