<!-- Generated by IcoMoon.io -->
<svg version="1.1" xmlns="http://www.w3.org/2000/svg" width="32" height="32" viewBox="0 0 32 32">
<path d="M10.667 20h2.667v-4h4.667v3.333l4.667-4.667-4.667-4.667v3.333h-6c-0.378 0-0.694 0.128-0.95 0.383s-0.383 0.572-0.383 0.95v5.333zM16 29.333c-0.333 0-0.661-0.067-0.983-0.2s-0.617-0.333-0.883-0.6l-10.667-10.667c-0.267-0.267-0.467-0.561-0.6-0.883s-0.2-0.65-0.2-0.983c0-0.333 0.067-0.661 0.2-0.983s0.333-0.617 0.6-0.883l10.667-10.667c0.267-0.267 0.561-0.467 0.883-0.6s0.65-0.2 0.983-0.2c0.333 0 0.661 0.067 0.983 0.2s0.617 0.333 0.883 0.6l10.667 10.667c0.267 0.267 0.467 0.561 0.6 0.883s0.2 0.65 0.2 0.983c0 0.333-0.067 0.661-0.2 0.983s-0.333 0.617-0.6 0.883l-10.667 10.667c-0.267 0.267-0.561 0.467-0.883 0.6s-0.65 0.2-0.983 0.2zM16 26.667l10.667-10.667-10.667-10.667-10.667 10.667 10.667 10.667z"></path>
</svg>
