<!-- Generated by IcoMoon.io -->
<svg version="1.1" xmlns="http://www.w3.org/2000/svg" width="32" height="32" viewBox="0 0 32 32">
<path d="M8 23.067l-5.667-5.667c-0.267-0.267-0.394-0.578-0.383-0.933s0.15-0.667 0.417-0.933c0.267-0.245 0.578-0.372 0.933-0.383s0.667 0.117 0.933 0.383l6.6 6.6-0.967 0.933c-0.267 0.244-0.578 0.372-0.933 0.383s-0.667-0.117-0.933-0.383zM15.533 23.067l-5.667-5.667c-0.244-0.245-0.367-0.55-0.367-0.917s0.122-0.683 0.367-0.95c0.267-0.267 0.583-0.4 0.95-0.4s0.683 0.133 0.95 0.4l4.7 4.7 11.333-11.333c0.267-0.267 0.578-0.394 0.933-0.383s0.667 0.15 0.933 0.417c0.244 0.267 0.372 0.578 0.383 0.933s-0.117 0.667-0.383 0.933l-12.267 12.267c-0.267 0.267-0.578 0.4-0.933 0.4s-0.667-0.133-0.933-0.4zM16.467 16.467l-1.9-1.867 5.667-5.667c0.244-0.244 0.55-0.367 0.917-0.367s0.683 0.122 0.95 0.367c0.267 0.267 0.4 0.583 0.4 0.95s-0.133 0.683-0.4 0.95l-5.633 5.633z"></path>
</svg>
