<!-- Generated by IcoMoon.io -->
<svg version="1.1" xmlns="http://www.w3.org/2000/svg" width="32" height="32" viewBox="0 0 32 32">
<path d="M16 19.933c-0.178 0-0.344-0.028-0.5-0.083s-0.3-0.15-0.433-0.283l-6.133-6.133c-0.244-0.245-0.372-0.55-0.383-0.917s0.117-0.683 0.383-0.95c0.244-0.244 0.556-0.367 0.933-0.367s0.689 0.122 0.933 0.367l5.2 5.167 5.2-5.167c0.244-0.244 0.55-0.372 0.917-0.383s0.683 0.117 0.95 0.383c0.244 0.244 0.367 0.556 0.367 0.933s-0.122 0.689-0.367 0.933l-6.133 6.133c-0.133 0.133-0.278 0.228-0.433 0.283s-0.322 0.083-0.5 0.083z"></path>
</svg>
