<!-- Generated by IcoMoon.io -->
<svg version="1.1" xmlns="http://www.w3.org/2000/svg" width="32" height="32" viewBox="0 0 32 32">
<path d="M8.933 18.533c0.267 0 0.533 0 0.8-0.267s0.267-0.533 0.267-0.8 0-0.533-0.267-0.8-0.533-0.267-0.8-0.267-0.533 0-0.8 0.267-0.267 0.533-0.267 0.8 0 0.533 0.267 0.8 0.533 0.267 0.8 0.267zM8.933 12.8c0.267 0 0.533 0 0.8-0.267s0.267-0.533 0.267-0.8 0-0.533-0.267-0.8-0.533-0.267-0.8-0.267-0.533 0-0.8 0.267-0.267 0.533-0.267 0.8 0 0.533 0.267 0.8 0.533 0.267 0.8 0.267zM12.933 18.4h10.133c0.267 0 0.533 0 0.8-0.267s0.267-0.4 0.267-0.8 0-0.533-0.267-0.8-0.4-0.267-0.8-0.267h-10.133c-0.267 0-0.533 0-0.8 0.267s-0.267 0.4-0.267 0.8 0 0.533 0.267 0.8 0.4 0.267 0.8 0.267zM12.933 12.8h10.133c0.267 0 0.533 0 0.8-0.267s0.267-0.4 0.267-0.8 0-0.533-0.267-0.8-0.4-0.267-0.8-0.267h-10.133c-0.267 0-0.533 0-0.8 0.267s-0.267 0.4-0.267 0.8 0 0.533 0.267 0.8 0.4 0.267 0.8 0.267zM5.2 25.067c-0.667 0-1.333-0.267-1.867-0.8s-0.8-1.067-0.8-1.867v-15.867c0-0.667 0.267-1.333 0.8-1.867s1.067-0.8 1.867-0.8h21.6c0.667 0 1.333 0.267 1.867 0.8s0.8 1.067 0.8 1.867v16c0 0.667-0.267 1.333-0.8 1.867s-1.067 0.8-1.867 0.8h-5.867v1.6c0 0.4 0 0.667-0.4 0.933-0.267 0.267-0.533 0.4-0.933 0.4h-7.333c-0.4 0-0.667 0-0.933-0.4-0.267-0.267-0.4-0.533-0.4-0.933v-1.6h-5.733zM5.2 22.933h21.6c0 0 0.267 0 0.267-0.133 0 0 0.133-0.133 0.133-0.267v-16c0 0 0-0.267-0.133-0.267 0 0-0.133-0.133-0.267-0.133h-21.6c0 0-0.267 0-0.267 0.133 0 0-0.133 0.133-0.133 0.267v16c0 0 0 0.267 0.133 0.267 0 0 0.133 0.133 0.267 0.133z"></path>
</svg>
