<!-- Generated by IcoMoon.io -->
<svg version="1.1" xmlns="http://www.w3.org/2000/svg" width="32" height="32" viewBox="0 0 32 32">
<path d="M8.667 21.359c1.104 0 2.179 0.125 3.223 0.376s2.081 0.643 3.11 1.178v-13.108c-0.937-0.61-1.95-1.068-3.041-1.373s-2.188-0.458-3.292-0.458c-0.8 0-1.547 0.063-2.242 0.188s-1.409 0.331-2.142 0.617c-0.102 0.034-0.175 0.083-0.218 0.148s-0.064 0.134-0.064 0.211v12.61c0 0.12 0.043 0.207 0.128 0.263s0.179 0.062 0.282 0.019c0.632-0.215 1.3-0.381 2.002-0.497s1.454-0.174 2.254-0.174zM17 22.913c1.029-0.535 2.066-0.928 3.11-1.178s2.119-0.376 3.223-0.376c0.8 0 1.551 0.058 2.254 0.174s1.37 0.282 2.002 0.497c0.103 0.043 0.197 0.037 0.282-0.019s0.128-0.143 0.128-0.263v-12.61c0-0.077-0.021-0.145-0.064-0.205s-0.116-0.111-0.218-0.154c-0.733-0.285-1.447-0.491-2.142-0.617s-1.442-0.188-2.242-0.188c-1.104 0-2.202 0.153-3.292 0.458s-2.104 0.763-3.041 1.373v13.108zM16 25.846c-1.075-0.793-2.235-1.406-3.479-1.838s-2.529-0.649-3.854-0.649c-0.814 0-1.613 0.090-2.397 0.27s-1.541 0.446-2.269 0.796c-0.475 0.219-0.927 0.184-1.356-0.104s-0.644-0.696-0.644-1.224v-14.477c0-0.287 0.074-0.557 0.222-0.809s0.361-0.434 0.64-0.545c0.902-0.439 1.843-0.765 2.822-0.976s1.973-0.317 2.983-0.317c1.297 0 2.565 0.177 3.803 0.532s2.414 0.878 3.531 1.571c1.116-0.692 2.293-1.216 3.531-1.571s2.505-0.532 3.803-0.532c1.010 0 2.005 0.106 2.983 0.317s1.919 0.536 2.822 0.976c0.279 0.111 0.492 0.293 0.64 0.545s0.222 0.522 0.222 0.809v14.477c0 0.528-0.223 0.932-0.669 1.212s-0.915 0.31-1.408 0.091c-0.72-0.342-1.465-0.601-2.237-0.777s-1.556-0.264-2.353-0.264c-1.325 0-2.61 0.216-3.854 0.649s-2.404 1.045-3.479 1.838z"></path>
</svg>
