<!-- Generated by IcoMoon.io -->
<svg version="1.1" xmlns="http://www.w3.org/2000/svg" width="32" height="32" viewBox="0 0 32 32">
<path d="M4.5 9.017c0.093-0.090 0.077-0.218 0.113-0.327 0.34-1.036 1.265-1.688 2.419-1.689 2.485-0.002 4.97-0.001 7.455-0.001 2.462 0 4.925-0.002 7.387 0.001 1.226 0.002 2.169 0.725 2.454 1.874 0.055 0.219 0.069 0.443 0.069 0.669-0.002 1.089 0.003 2.177-0.005 3.266-0.001 0.174 0.049 0.21 0.212 0.207 0.404-0.006 0.81-0.038 1.211 0.032 0.966 0.168 1.669 0.995 1.677 2.020 0.015 1.974 0.007 3.949 0.003 5.923-0.001 0.477-0.353 0.844-0.801 0.862-0.461 0.019-0.82-0.299-0.879-0.78-0.011-0.089-0.011-0.18-0.011-0.269-0.001-1.855 0-3.709 0-5.563 0-0.439-0.099-0.535-0.545-0.536-1.145 0-2.29 0-3.436 0-0.425 0-0.527 0.103-0.527 0.53 0 2.515 0 5.030 0 7.545 0 0.411 0.104 0.514 0.521 0.514 1.212 0 2.425-0.002 3.638 0.002 0.388 0.002 0.691 0.237 0.805 0.599 0.108 0.343-0.020 0.72-0.316 0.937-0.171 0.125-0.367 0.163-0.572 0.164-1.212 0.001-2.425 0.008-3.638-0.002-1.040-0.008-1.79-0.582-2.066-1.564-0.057-0.202-0.072-0.413-0.072-0.623 0-2.537-0.001-5.075 0.001-7.612 0.001-1.301 0.868-2.173 2.162-2.182 0.262-0.002 0.524-0.005 0.786 0.002 0.115 0.004 0.156-0.028 0.155-0.149-0.005-1.156 0-2.312-0.007-3.468-0.002-0.366-0.277-0.647-0.643-0.69-0.074-0.009-0.149-0.006-0.224-0.006-4.918 0-9.835 0-14.752 0-0.022 0-0.045 0-0.068 0-0.52 0.005-0.803 0.285-0.804 0.809-0.002 1.825-0.001 3.648-0.001 5.473 0 1.336 0.018 2.673-0.008 4.009-0.012 0.648 0.321 0.945 0.93 0.942 3.293-0.016 6.587-0.007 9.879-0.008 0.165 0 0.33 0.003 0.487 0.061 0.377 0.14 0.595 0.521 0.535 0.935-0.056 0.39-0.397 0.696-0.812 0.703-0.576 0.009-1.152 0.008-1.729 0-0.14-0.002-0.192 0.028-0.188 0.182 0.011 0.435 0.011 0.871 0 1.306-0.004 0.153 0.045 0.184 0.188 0.183 0.629-0.007 1.258-0.009 1.886 0.001 0.42 0.006 0.749 0.31 0.817 0.726 0.062 0.377-0.174 0.772-0.544 0.91-0.128 0.048-0.262 0.061-0.397 0.061-1.864 0-3.728 0.001-5.591-0.001-0.454 0-0.774-0.21-0.9-0.573-0.117-0.337-0.014-0.701 0.266-0.934 0.169-0.14 0.364-0.196 0.582-0.195 0.607 0.002 1.212-0.005 1.819 0.005 0.15 0.002 0.19-0.041 0.186-0.188-0.009-0.42-0.012-0.841 0.001-1.261 0.005-0.172-0.037-0.225-0.218-0.224-2.021 0.007-4.041 0.005-6.062 0.004-0.269 0-0.538 0.018-0.806-0.036-0.995-0.198-1.629-0.792-1.935-1.754-0.021-0.066-0.005-0.152-0.085-0.193v-10.631z"></path>
<path d="M8.5 12c0-0.552 0.448-1 1-1h4c0.552 0 1 0.448 1 1s-0.448 1-1 1h-4c-0.552 0-1-0.448-1-1z"></path>
<path d="M8.5 15c0-0.552 0.448-1 1-1h2c0.552 0 1 0.448 1 1s-0.448 1-1 1h-2c-0.552 0-1-0.448-1-1z"></path>
<path d="M24 28.167c2.301 0 4.167-1.866 4.167-4.167s-1.865-4.167-4.167-4.167-4.167 1.866-4.167 4.167c0 2.301 1.866 4.167 4.167 4.167z"></path>
<path fill="none" stroke="#f3f4f6" stroke-linejoin="round" stroke-linecap="round" stroke-miterlimit="4" stroke-width="0.8" d="M24 22.334v3.333M22.333 24h3.333M28.166 24c0 2.301-1.865 4.167-4.167 4.167s-4.167-1.866-4.167-4.167c0-2.301 1.866-4.167 4.167-4.167s4.167 1.866 4.167 4.167z"></path>
</svg>
