<!-- Generated by IcoMoon.io -->
<svg version="1.1" xmlns="http://www.w3.org/2000/svg" width="32" height="32" viewBox="0 0 32 32">
<path d="M24 3.84v1.76c0 0 0 0.32 0.32 0.32h2.080v20.64h-20.64v-20.64h2.080c0 0 0.32 0 0.32-0.32v-1.76c0 0 0-0.32-0.32-0.32h-3.36c-0.48 0-0.96 0.48-0.96 0.96v23.2c0 0.48 0.48 0.96 0.96 0.96h23.2c0.48 0 0.96-0.48 0.96-0.96v-23.040c0-0.48-0.48-0.96-0.96-0.96h-3.36c0 0-0.32 0-0.32 0.32zM15.84 3.36l-3.68 4.64c0 0.16 0 0.48 0.16 0.48h2.56v10.24c0 0 0 0.32 0.32 0.32h1.76c0 0 0.32 0 0.32-0.32v-10.24h2.56c0.16 0 0.32-0.32 0.16-0.48l-3.68-4.64s0 0 0 0c0 0 0 0 0 0s0 0 0 0 0 0 0 0z"></path>
</svg>
