<!-- Generated by IcoMoon.io -->
<svg version="1.1" xmlns="http://www.w3.org/2000/svg" width="32" height="32" viewBox="0 0 32 32">
<path d="M12 15.733c-0.267 0-0.533 0-0.667-0.267-0.133-0.133-0.267-0.4-0.267-0.667s0-0.533 0.267-0.667c0.133-0.133 0.4-0.267 0.667-0.267h8c0.267 0 0.533 0 0.667 0.267 0.133 0.133 0.267 0.4 0.267 0.667s0 0.533-0.267 0.667c-0.133 0.133-0.4 0.267-0.667 0.267h-8zM12 10.4c-0.267 0-0.533 0-0.667-0.267-0.133-0.133-0.267-0.4-0.267-0.667s0-0.533 0.267-0.667c0.133-0.133 0.4-0.267 0.667-0.267h8c0.267 0 0.533 0 0.667 0.267 0.133 0.133 0.267 0.4 0.267 0.667s0 0.533-0.267 0.667c-0.133 0.133-0.4 0.267-0.667 0.267h-8zM8 19.067h10c0.533 0 1.2 0 1.6 0.4 0.533 0.267 0.933 0.667 1.333 1.067l3.067 4v-18.8c0 0 0-0.267 0-0.267s-0.133 0-0.267 0h-15.333c0 0-0.267 0-0.267 0s0 0.133 0 0.267v13.2zM8.4 26.667h14.8l-3.867-4.933c-0.133-0.267-0.4-0.4-0.533-0.533-0.267 0-0.533-0.133-0.8-0.133h-10v5.2c0 0 0 0.267 0 0.267s0.133 0 0.267 0zM23.6 28.667h-15.2c-0.667 0-1.2-0.267-1.733-0.667s-0.667-1.067-0.667-1.733v-20.533c0-0.667 0.267-1.2 0.667-1.733s1.067-0.667 1.733-0.667h15.2c0.667 0 1.2 0.267 1.733 0.667s0.667 1.067 0.667 1.733v20.533c0 0.667-0.267 1.2-0.667 1.733s-1.067 0.667-1.733 0.667z"></path>
</svg>
