<!-- Generated by IcoMoon.io -->
<svg version="1.1" xmlns="http://www.w3.org/2000/svg" width="32" height="32" viewBox="0 0 32 32">
<path d="M9.129 2.667c3.383 0 6.768 0 10.151 0 0.613 0.142 1.168 0.379 1.635 0.809 1.569 1.446 3.144 2.887 4.729 4.317 0.698 0.63 1.026 1.383 1.024 2.306-0.010 4.914-0.004 9.827-0.005 14.741 0 0.189 0.003 0.379-0.005 0.569-0.047 1.156-0.909 2.194-2.066 2.491-0.13 0.034-0.26 0.067-0.39 0.1h-15.073c-0.014-0.010-0.026-0.024-0.041-0.028-1.637-0.374-2.42-1.331-2.42-2.958 0-4.805 0-9.61 0-14.416 0-1.723-0.003-3.445 0.001-5.168 0.003-0.956 0.397-1.741 1.224-2.266 0.366-0.232 0.821-0.336 1.236-0.497zM18.664 4.151h-0.298c-2.914 0-5.827 0-8.741 0-0.899 0-1.42 0.499-1.42 1.362 0 6.547 0 13.095 0 19.642 0 0.861 0.523 1.36 1.422 1.361 4.691 0 9.381 0 14.072 0 0.909 0 1.425-0.501 1.425-1.383 0-4.923 0-9.846 0-14.768v-0.276h-0.314c-1.384 0-2.768 0-4.153 0-1.273 0-1.994-0.7-1.994-1.936s0-2.474 0-3.711v-0.29zM24.286 8.604c-1.381-1.261-2.71-2.474-4.035-3.683-0.029 0.022-0.040 0.026-0.040 0.031-0.003 1.128-0.007 2.256-0.007 3.384 0 0.18 0.113 0.268 0.296 0.268 1.236 0 2.472 0 3.785 0h0.001z"></path>
<path d="M16.513 14.047c-1.861 0-3.722 0.002-5.583-0.001-0.601-0.001-0.989-0.519-0.766-1.021 0.138-0.311 0.397-0.462 0.748-0.462 0.623-0.001 1.247 0 1.87 0 3.099 0 6.198-0.001 9.298 0.001 0.616 0 1.010 0.524 0.775 1.032-0.148 0.319-0.423 0.453-0.782 0.453-1.588-0.003-3.176-0.001-4.764-0.001-0.264 0-0.529 0-0.794 0v0.001z"></path>
<path d="M16.506 16.521c1.861 0 3.722-0.002 5.583 0.001 0.601 0.001 0.989 0.515 0.769 1.019-0.132 0.302-0.381 0.458-0.721 0.463-0.384 0.006-0.769 0.001-1.153 0.001-3.312 0-6.625 0-9.937-0.001-0.11 0-0.224 0.004-0.331-0.018-0.389-0.081-0.651-0.431-0.61-0.8 0.042-0.383 0.368-0.664 0.791-0.664 1.631-0.003 3.262-0.001 4.892-0.001 0.239 0 0.478 0 0.717 0l-0.001-0.001z"></path>
<path d="M12.718 21.964c-0.59 0-1.179 0.002-1.768 0-0.497-0.002-0.845-0.309-0.845-0.741s0.347-0.741 0.843-0.742c1.196-0.002 2.392-0.002 3.588 0 0.488 0.001 0.845 0.327 0.836 0.753-0.009 0.42-0.356 0.728-0.833 0.73-0.607 0.003-1.213 0.001-1.82 0.001v-0.001z"></path>
</svg>
