<!-- Generated by IcoMoon.io -->
<svg version="1.1" xmlns="http://www.w3.org/2000/svg" width="32" height="32" viewBox="0 0 32 32">
<path d="M25.434 29.2l-22.667-22.633c-0.267-0.267-0.4-0.583-0.4-0.95s0.133-0.683 0.4-0.95c0.267-0.267 0.583-0.4 0.95-0.4s0.683 0.133 0.95 0.4l22.667 22.667c0.267 0.267 0.4 0.578 0.4 0.933s-0.133 0.667-0.4 0.933-0.583 0.4-0.95 0.4c-0.367 0-0.683-0.133-0.95-0.4zM21.101 17.333l-2.667-2.667h4.233c0.378 0 0.694 0.128 0.95 0.383s0.383 0.572 0.383 0.95c0 0.378-0.128 0.694-0.383 0.95s-0.572 0.383-0.95 0.383h-1.567zM14.434 10.667l-2.667-2.667h14.9c0.378 0 0.694 0.128 0.95 0.383s0.383 0.572 0.383 0.95c0 0.378-0.128 0.694-0.383 0.95s-0.572 0.383-0.95 0.383h-12.233zM14.667 24c-0.378 0-0.694-0.128-0.95-0.383s-0.383-0.572-0.383-0.95c0-0.378 0.128-0.695 0.383-0.95s0.572-0.383 0.95-0.383h2.667c0.378 0 0.694 0.128 0.95 0.383s0.383 0.572 0.383 0.95c0 0.378-0.128 0.694-0.383 0.95s-0.572 0.383-0.95 0.383h-2.667zM13.534 17.333h-4.2c-0.378 0-0.694-0.128-0.95-0.383s-0.383-0.572-0.383-0.95c0-0.378 0.128-0.695 0.383-0.95s0.572-0.383 0.95-0.383h4.2v2.667zM6.867 10.667h-1.533c-0.378 0-0.694-0.128-0.95-0.383s-0.383-0.572-0.383-0.95c0-0.378 0.128-0.694 0.383-0.95s0.572-0.383 0.95-0.383h1.533v2.667z"></path>
</svg>
