<!-- Generated by IcoMoon.io -->
<svg version="1.1" xmlns="http://www.w3.org/2000/svg" width="32" height="32" viewBox="0 0 32 32">
<path d="M20.6 17.867c-0.133 1.178-0.633 2.161-1.5 2.95s-1.9 1.183-3.1 1.183c-0.178 0-0.356-0.011-0.533-0.033s-0.356-0.056-0.533-0.1c-0.178-0.044-0.367-0.044-0.567 0s-0.367 0.133-0.5 0.267c-0.244 0.244-0.333 0.539-0.267 0.883s0.256 0.572 0.567 0.683c0.311 0.111 0.617 0.189 0.917 0.233s0.606 0.067 0.917 0.067c1.756 0 3.267-0.594 4.533-1.783s1.956-2.661 2.067-4.417l0.3 0.267c0.2 0.178 0.433 0.267 0.7 0.267s0.489-0.089 0.667-0.267c0.2-0.2 0.306-0.439 0.317-0.717s-0.083-0.517-0.283-0.717l-1.7-1.7c-0.244-0.244-0.556-0.367-0.933-0.367s-0.689 0.122-0.933 0.367l-1.7 1.7c-0.2 0.2-0.3 0.433-0.3 0.7s0.1 0.5 0.3 0.7c0.2 0.2 0.433 0.3 0.7 0.3s0.5-0.1 0.7-0.3l0.167-0.167zM9.4 16.867l-0.3-0.267c-0.2-0.178-0.433-0.267-0.7-0.267s-0.489 0.089-0.667 0.267c-0.2 0.2-0.306 0.439-0.317 0.717s0.083 0.517 0.283 0.717l1.7 1.7c0.244 0.244 0.556 0.367 0.933 0.367s0.689-0.122 0.933-0.367l1.7-1.7c0.2-0.2 0.3-0.433 0.3-0.7s-0.1-0.5-0.3-0.7c-0.2-0.2-0.433-0.3-0.7-0.3s-0.5 0.1-0.7 0.3l-0.167 0.167c0.133-1.178 0.633-2.161 1.5-2.95s1.9-1.183 3.1-1.183c0.178 0 0.356 0.011 0.533 0.033s0.356 0.056 0.533 0.1c0.178 0.044 0.367 0.044 0.567 0s0.367-0.133 0.5-0.267c0.244-0.244 0.333-0.539 0.267-0.883s-0.256-0.572-0.567-0.683c-0.311-0.111-0.617-0.189-0.917-0.233s-0.606-0.067-0.917-0.067c-1.756 0-3.267 0.594-4.533 1.783s-1.956 2.661-2.067 4.417zM5.333 28c-0.733 0-1.361-0.261-1.883-0.783s-0.783-1.15-0.783-1.883v-16c0-0.733 0.261-1.361 0.783-1.883s1.15-0.783 1.883-0.783h4.2l1.667-1.8c0.244-0.267 0.539-0.478 0.883-0.633s0.706-0.233 1.083-0.233h5.667c0.378 0 0.739 0.078 1.083 0.233s0.639 0.367 0.883 0.633l1.667 1.8h4.2c0.733 0 1.361 0.261 1.883 0.783s0.783 1.15 0.783 1.883v16c0 0.733-0.261 1.361-0.783 1.883s-1.15 0.783-1.883 0.783h-21.333zM5.333 25.333h21.333v-16h-5.4l-2.433-2.667h-5.667l-2.433 2.667h-5.4v16z"></path>
</svg>
