<!-- Generated by IcoMoon.io -->
<svg version="1.1" xmlns="http://www.w3.org/2000/svg" width="32" height="32" viewBox="0 0 32 32">
<path fill="none" stroke="#9ca3af" stroke-linejoin="miter" stroke-linecap="butt" stroke-miterlimit="4" stroke-width="1.3333" d="M31.333 16c0 8.468-6.865 15.333-15.333 15.333s-15.333-6.865-15.333-15.333c0-8.468 6.865-15.333 15.333-15.333s15.333 6.865 15.333 15.333z"></path>
<path d="M19.066 17.244c-0.089 0.785-0.422 1.441-1 1.967s-1.267 0.789-2.067 0.789c-0.119 0-0.237-0.007-0.356-0.022s-0.237-0.037-0.356-0.067c-0.118-0.030-0.244-0.030-0.378 0s-0.244 0.089-0.333 0.178c-0.163 0.163-0.222 0.359-0.178 0.589s0.17 0.381 0.378 0.456c0.207 0.074 0.411 0.126 0.611 0.156s0.404 0.044 0.611 0.044c1.17 0 2.178-0.396 3.022-1.189s1.304-1.774 1.378-2.944l0.2 0.178c0.133 0.119 0.289 0.178 0.467 0.178s0.326-0.059 0.444-0.178c0.133-0.133 0.204-0.293 0.211-0.478s-0.055-0.344-0.189-0.478l-1.133-1.133c-0.163-0.163-0.37-0.245-0.622-0.245s-0.459 0.081-0.622 0.245l-1.133 1.133c-0.133 0.133-0.2 0.289-0.2 0.467s0.067 0.333 0.2 0.467 0.289 0.2 0.467 0.2c0.178 0 0.333-0.067 0.467-0.2l0.111-0.111zM11.6 16.578l-0.2-0.178c-0.133-0.119-0.289-0.178-0.467-0.178s-0.326 0.059-0.444 0.178c-0.133 0.133-0.204 0.293-0.211 0.478s0.056 0.345 0.189 0.478l1.133 1.133c0.163 0.163 0.37 0.244 0.622 0.244s0.459-0.081 0.622-0.244l1.133-1.133c0.133-0.133 0.2-0.289 0.2-0.467s-0.067-0.333-0.2-0.467-0.289-0.2-0.467-0.2c-0.178 0-0.333 0.067-0.467 0.2l-0.111 0.111c0.089-0.785 0.422-1.441 1-1.967s1.267-0.789 2.067-0.789c0.119 0 0.237 0.007 0.355 0.022s0.237 0.037 0.356 0.067 0.244 0.030 0.378 0c0.133-0.030 0.245-0.089 0.333-0.178 0.163-0.163 0.222-0.359 0.178-0.589s-0.17-0.381-0.378-0.456c-0.207-0.074-0.411-0.126-0.611-0.156s-0.404-0.044-0.611-0.044c-1.17 0-2.178 0.396-3.022 1.189s-1.304 1.774-1.378 2.944zM8.888 24c-0.489 0-0.907-0.174-1.256-0.522s-0.522-0.767-0.522-1.255v-10.667c0-0.489 0.174-0.907 0.522-1.256s0.767-0.522 1.256-0.522h2.8l1.111-1.2c0.163-0.178 0.359-0.319 0.589-0.422s0.47-0.156 0.722-0.156h3.778c0.252 0 0.493 0.052 0.722 0.156s0.426 0.244 0.589 0.422l1.111 1.2h2.8c0.489 0 0.907 0.174 1.256 0.522s0.522 0.767 0.522 1.256v10.667c0 0.489-0.174 0.907-0.522 1.255s-0.767 0.522-1.256 0.522h-14.222zM8.888 22.222h14.222v-10.667h-3.6l-1.622-1.778h-3.778l-1.622 1.778h-3.6v10.667z"></path>
</svg>
