<!-- Generated by IcoMoon.io -->
<svg version="1.1" xmlns="http://www.w3.org/2000/svg" width="32" height="32" viewBox="0 0 32 32">
<path d="M5.733 26c-0.667 0-1.2-0.267-1.733-0.667-0.533-0.533-0.667-1.067-0.667-1.733v-15.2c0-0.667 0.267-1.2 0.667-1.733 0.4-0.4 1.067-0.667 1.733-0.667h6.267c0.267 0 0.667 0 0.933 0.133 0.267 0 0.533 0.267 0.8 0.533l2 2h10.533c0.667 0 1.2 0.267 1.733 0.667s0.667 1.067 0.667 1.733v12.533c0 0.667-0.267 1.2-0.667 1.733s-1.067 0.667-1.733 0.667h-20.533zM5.733 24h20.533c0 0 0.267 0 0.267 0s0-0.133 0-0.267v-12.533c0 0 0-0.267 0-0.267s-0.133 0-0.267 0h-11.333l-2.533-2.533s0 0-0.133 0c0 0 0 0-0.133 0h-6.4c0 0-0.267 0-0.267 0s0 0.133 0 0.267v15.2c0 0 0 0.267 0 0.267s0.133 0 0.267 0z"></path>
</svg>
