<!-- Generated by IcoMoon.io -->
<svg version="1.1" xmlns="http://www.w3.org/2000/svg" width="32" height="32" viewBox="0 0 32 32">
<path fill="#fff" d="M15.985 23.487c0.381 0 0.702-0.131 0.965-0.394s0.394-0.585 0.394-0.966c0-0.381-0.131-0.702-0.394-0.965s-0.585-0.393-0.965-0.393-0.702 0.131-0.965 0.394c-0.262 0.263-0.394 0.585-0.394 0.965s0.131 0.702 0.394 0.965c0.263 0.262 0.585 0.393 0.965 0.393zM16.002 28.667c-1.752 0-3.399-0.332-4.94-0.997s-2.882-1.567-4.023-2.707c-1.14-1.14-2.043-2.48-2.708-4.021s-0.998-3.187-0.998-4.939c0-1.752 0.332-3.399 0.997-4.94s1.567-2.882 2.707-4.023c1.14-1.14 2.48-2.043 4.021-2.708s3.187-0.998 4.939-0.998c1.752 0 3.399 0.332 4.94 0.997s2.882 1.567 4.023 2.707c1.14 1.14 2.043 2.48 2.708 4.021s0.998 3.187 0.998 4.939c0 1.752-0.332 3.399-0.997 4.94s-1.567 2.882-2.707 4.023c-1.14 1.14-2.48 2.043-4.021 2.708s-3.187 0.998-4.939 0.998zM16 26.667c2.978 0 5.5-1.033 7.567-3.1s3.1-4.589 3.1-7.567c0-2.978-1.033-5.5-3.1-7.567s-4.589-3.1-7.567-3.1c-2.978 0-5.5 1.033-7.567 3.1s-3.1 4.589-3.1 7.567c0 2.978 1.033 5.5 3.1 7.567s4.589 3.1 7.567 3.1zM16.108 10.292c0.615 0 1.147 0.194 1.597 0.581s0.675 0.871 0.675 1.452c0 0.489-0.144 0.926-0.431 1.313s-0.615 0.746-0.985 1.080c-0.484 0.429-0.91 0.902-1.278 1.417s-0.565 1.089-0.591 1.721c-0.009 0.243 0.077 0.446 0.256 0.61s0.389 0.246 0.628 0.246c0.256 0 0.474-0.085 0.651-0.256s0.291-0.38 0.341-0.628c0.089-0.458 0.278-0.866 0.568-1.224s0.604-0.699 0.942-1.022c0.486-0.474 0.91-0.99 1.272-1.549s0.544-1.183 0.544-1.871c0-1.056-0.416-1.924-1.249-2.604s-1.804-1.019-2.915-1.019c-0.793 0-1.541 0.176-2.244 0.527s-1.249 0.864-1.641 1.537c-0.121 0.207-0.16 0.425-0.117 0.653s0.161 0.402 0.352 0.521c0.243 0.135 0.493 0.174 0.75 0.116s0.474-0.204 0.654-0.438c0.27-0.35 0.597-0.632 0.981-0.844s0.797-0.318 1.24-0.318z"></path>
</svg>
