<!-- Generated by IcoMoon.io -->
<svg version="1.1" xmlns="http://www.w3.org/2000/svg" width="32" height="32" viewBox="0 0 32 32">
<path d="M15.2 2.933c0.4-0.4 1.067-0.4 1.467 0l10.933 8.533c0.267 0.267 0.533 0.533 0.533 0.933v13.333c0 0.933-0.4 1.867-1.067 2.533s-1.6 1.067-2.533 1.067h-17.067c-0.933 0-1.867-0.4-2.533-1.067s-1.067-1.6-1.067-2.533v-13.333c0-0.4 0.133-0.667 0.533-0.933 0 0 10.933-8.533 10.933-8.533zM6.267 12.933v12.8c0 0.267 0 0.667 0.4 0.8s0.533 0.4 0.8 0.4h16.933c0.267 0 0.667 0 0.8-0.4s0.4-0.533 0.4-0.8v-12.8l-9.733-7.6-9.733 7.6z"></path>
<path d="M11.2 16c0-0.667 0.533-1.2 1.2-1.2h7.333c0.667 0 1.2 0.533 1.2 1.2v12.133c0 0.667-0.533 1.2-1.2 1.2s-1.2-0.533-1.2-1.2v-10.933h-4.8v10.933c0 0.667-0.533 1.2-1.2 1.2s-1.2-0.533-1.2-1.2v-12.133z"></path>
</svg>
