<!-- Generated by IcoMoon.io -->
<svg version="1.1" xmlns="http://www.w3.org/2000/svg" width="32" height="32" viewBox="0 0 32 32">
<path d="M5.333 21.333c0.327 0 0.642 0.12 0.886 0.337s0.4 0.516 0.438 0.84l0.009 0.156v2.667h2.667c0.34 0 0.667 0.131 0.914 0.364s0.396 0.552 0.416 0.891-0.090 0.673-0.309 0.934c-0.218 0.261-0.528 0.428-0.865 0.468l-0.156 0.009h-2.667c-0.673 0-1.321-0.254-1.814-0.711s-0.795-1.084-0.846-1.755l-0.007-0.2v-2.667c0-0.354 0.14-0.693 0.391-0.943s0.589-0.391 0.943-0.391zM26.667 21.333c0.354 0 0.693 0.141 0.943 0.391s0.391 0.589 0.391 0.943v2.667c0 0.707-0.281 1.385-0.781 1.886s-1.178 0.781-1.886 0.781h-2.667c-0.354 0-0.693-0.141-0.943-0.391s-0.391-0.589-0.391-0.943c0-0.354 0.141-0.693 0.391-0.943s0.589-0.391 0.943-0.391h2.667v-2.667c0-0.354 0.141-0.693 0.391-0.943s0.589-0.391 0.943-0.391zM9.333 4c0.354 0 0.693 0.14 0.943 0.391s0.391 0.589 0.391 0.943c0 0.354-0.14 0.693-0.391 0.943s-0.589 0.391-0.943 0.391h-2.667v2.667c0 0.354-0.14 0.693-0.391 0.943s-0.589 0.391-0.943 0.391c-0.354 0-0.693-0.14-0.943-0.391s-0.391-0.589-0.391-0.943v-2.667c0-0.707 0.281-1.386 0.781-1.886s1.178-0.781 1.886-0.781h2.667zM25.333 4c0.707 0 1.385 0.281 1.886 0.781s0.781 1.178 0.781 1.886v2.667c0 0.354-0.141 0.693-0.391 0.943s-0.589 0.391-0.943 0.391c-0.354 0-0.693-0.14-0.943-0.391s-0.391-0.589-0.391-0.943v-2.667h-2.667c-0.354 0-0.693-0.14-0.943-0.391s-0.391-0.589-0.391-0.943c0-0.354 0.141-0.693 0.391-0.943s0.589-0.391 0.943-0.391h2.667z"></path>
<path d="M20.169 18.183c-0.163 0.068-0.311 0.167-0.436 0.293-0.964 0.944-2.28 1.524-3.733 1.524-1.397 0.003-2.738-0.545-3.733-1.524-0.124-0.125-0.273-0.225-0.436-0.293s-0.338-0.102-0.515-0.102c-0.177 0.001-0.352 0.036-0.514 0.105s-0.31 0.169-0.434 0.295c-0.124 0.126-0.221 0.276-0.287 0.44s-0.098 0.34-0.095 0.516c0.003 0.177 0.041 0.351 0.112 0.513s0.173 0.308 0.301 0.43c1.494 1.468 3.505 2.29 5.6 2.287 2.095 0.003 4.106-0.819 5.6-2.287 0.128-0.122 0.23-0.268 0.301-0.43s0.109-0.336 0.112-0.513c0.003-0.177-0.029-0.352-0.095-0.516s-0.163-0.314-0.286-0.44c-0.124-0.126-0.271-0.226-0.434-0.295s-0.338-0.104-0.514-0.105c-0.177-0.001-0.352 0.034-0.515 0.102z"></path>
<path d="M12.748 11.252c-0.375-0.375-0.884-0.586-1.414-0.586s-1.039 0.211-1.414 0.586c-0.375 0.375-0.586 0.884-0.586 1.414s0.211 1.039 0.586 1.414c0.375 0.375 0.884 0.586 1.414 0.586s1.039-0.211 1.414-0.586c0.375-0.375 0.586-0.884 0.586-1.414s-0.211-1.039-0.586-1.414z"></path>
<path d="M22.081 11.252c-0.375-0.375-0.884-0.586-1.414-0.586s-1.039 0.211-1.414 0.586c-0.375 0.375-0.586 0.884-0.586 1.414s0.211 1.039 0.586 1.414c0.375 0.375 0.884 0.586 1.414 0.586s1.039-0.211 1.414-0.586c0.375-0.375 0.586-0.884 0.586-1.414s-0.211-1.039-0.586-1.414z"></path>
</svg>
