<!-- Generated by IcoMoon.io -->
<svg version="1.1" xmlns="http://www.w3.org/2000/svg" width="32" height="32" viewBox="0 0 32 32">
<path d="M14.667 22.667h-5.333c-1.844 0-3.417-0.65-4.717-1.95s-1.95-2.872-1.95-4.717c0-1.844 0.65-3.417 1.95-4.717s2.872-1.95 4.717-1.95h5.333v2.667h-5.333c-1.111 0-2.056 0.389-2.833 1.167s-1.167 1.722-1.167 2.833 0.389 2.056 1.167 2.833c0.778 0.778 1.722 1.167 2.833 1.167h5.333v2.667zM10.667 17.333v-2.667h10.667v2.667h-10.667zM17.333 22.667v-2.667h5.333c1.111 0 2.056-0.389 2.833-1.167s1.167-1.722 1.167-2.833c0-1.111-0.389-2.056-1.167-2.833s-1.722-1.167-2.833-1.167h-5.333v-2.667h5.333c1.844 0 3.417 0.65 4.717 1.95s1.95 2.872 1.95 4.717c0 1.844-0.65 3.417-1.95 4.717s-2.872 1.95-4.717 1.95h-5.333z"></path>
</svg>
