<!-- Generated by IcoMoon.io -->
<svg version="1.1" xmlns="http://www.w3.org/2000/svg" width="32" height="32" viewBox="0 0 32 32">
<path d="M4.4 27.2c-0.667 0-1.2-0.267-1.733-0.667-0.533-0.533-0.667-1.067-0.667-1.733v-15.067c0-0.267 0-0.533 0.267-0.667 0.133-0.133 0.4-0.267 0.667-0.267s0.533 0 0.667 0.267c0.133 0.133 0.267 0.4 0.267 0.667v15.067c0 0 0 0.267 0 0.267s0.133 0 0.267 0h20.533c0.267 0 0.533 0 0.667 0.267 0.133 0.133 0.267 0.4 0.267 0.667s0 0.533-0.267 0.667c-0.133 0.133-0.4 0.267-0.667 0.267h-20.267zM9.067 22.533c-0.667 0-1.2-0.267-1.733-0.667-0.533-0.533-0.667-1.067-0.667-1.733v-14.4c0-0.667 0.267-1.2 0.667-1.733 0.533-0.533 1.067-0.667 1.733-0.667h5.6c0.267 0 0.667 0 0.933 0.133 0.267 0 0.533 0.267 0.8 0.533l2 2h9.2c0.667 0 1.2 0.267 1.733 0.667 0.533 0.533 0.667 1.067 0.667 1.733v11.733c0 0.667-0.267 1.2-0.667 1.733-0.533 0.533-1.067 0.667-1.733 0.667h-18.533zM9.067 20.533h18.533c0 0 0.267 0 0.267 0s0-0.133 0-0.267v-11.867c0 0 0-0.267 0-0.267s-0.133 0-0.267 0h-10l-2.667-2.667h-5.867c0 0-0.267 0-0.267 0s0 0.133 0 0.267v14.4c0 0 0 0.267 0 0.267s0.133 0 0.267 0z"></path>
</svg>
