<!-- Generated by IcoMoon.io -->
<svg version="1.1" xmlns="http://www.w3.org/2000/svg" width="32" height="32" viewBox="0 0 32 32">
<path d="M11.238 9.905c0-1.212 0.482-2.375 1.339-3.232s2.020-1.339 3.232-1.339c1.213 0 2.375 0.482 3.233 1.339s1.339 2.020 1.339 3.232v0.762h1.143c0.909 0 1.781 0.361 2.424 1.004s1.004 1.515 1.004 2.424v9.143c0 0.909-0.361 1.781-1.004 2.424s-1.515 1.004-2.424 1.004h-11.429c-0.909 0-1.781-0.361-2.424-1.004s-1.004-1.515-1.004-2.424v-9.143c0-0.909 0.361-1.781 1.004-2.424s1.515-1.004 2.424-1.004h1.143v-0.762zM15.809 6.857c-0.808 0-1.583 0.321-2.155 0.893s-0.893 1.347-0.893 2.155v0.762h6.095v-0.762c0-0.808-0.321-1.583-0.893-2.155s-1.347-0.893-2.155-0.893zM15.809 20.571c0.404 0 0.792-0.161 1.078-0.446s0.446-0.673 0.446-1.077-0.161-0.792-0.446-1.077c-0.286-0.286-0.673-0.446-1.078-0.446s-0.792 0.161-1.077 0.446c-0.286 0.286-0.446 0.673-0.446 1.077s0.161 0.792 0.446 1.077c0.286 0.286 0.673 0.446 1.077 0.446z"></path>
</svg>
