<!-- Generated by IcoMoon.io -->
<svg version="1.1" xmlns="http://www.w3.org/2000/svg" width="32" height="32" viewBox="0 0 32 32">
<path d="M8 29.333c-0.733 0-1.361-0.261-1.883-0.783s-0.783-1.15-0.783-1.883v-13.333c0-0.733 0.261-1.361 0.783-1.883s1.15-0.783 1.883-0.783h1.333v-2.667c0-1.844 0.65-3.417 1.95-4.717s2.872-1.95 4.717-1.95c1.844 0 3.417 0.65 4.717 1.95s1.95 2.872 1.95 4.717v2.667h1.333c0.733 0 1.361 0.261 1.883 0.783s0.783 1.15 0.783 1.883v13.333c0 0.733-0.261 1.361-0.783 1.883s-1.15 0.783-1.883 0.783h-16zM8 26.667h16v-13.333h-16v13.333zM16 22.667c0.733 0 1.361-0.261 1.883-0.783s0.783-1.15 0.783-1.883c0-0.733-0.261-1.361-0.783-1.883s-1.15-0.783-1.883-0.783c-0.733 0-1.361 0.261-1.883 0.783s-0.783 1.15-0.783 1.883c0 0.733 0.261 1.361 0.783 1.883s1.15 0.783 1.883 0.783zM12 10.667h8v-2.667c0-1.111-0.389-2.056-1.167-2.833s-1.722-1.167-2.833-1.167c-1.111 0-2.056 0.389-2.833 1.167s-1.167 1.722-1.167 2.833v2.667z"></path>
</svg>
