<!-- Generated by IcoMoon.io -->
<svg version="1.1" xmlns="http://www.w3.org/2000/svg" width="32" height="32" viewBox="0 0 32 32">
<path d="M26.286 5.857h-20.571c-0.455 0-0.891 0.181-1.212 0.502s-0.502 0.758-0.502 1.212v17.143c0 0.455 0.181 0.891 0.502 1.212s0.758 0.502 1.212 0.502h8.571v-1.714h-8.571v-12h20.571v2.572h1.714v-7.714c0-0.455-0.181-0.891-0.502-1.212s-0.757-0.502-1.212-0.502zM26.286 11h-20.571v-3.429h20.571v3.429z"></path>
<path d="M28 23v-1.714h-1.801c-0.111-0.536-0.324-1.046-0.627-1.503l1.277-1.277-1.212-1.212-1.277 1.277c-0.456-0.303-0.966-0.516-1.503-0.627v-1.801h-1.714v1.801c-0.536 0.111-1.046 0.324-1.503 0.627l-1.277-1.277-1.212 1.212 1.277 1.277c-0.303 0.456-0.516 0.966-0.627 1.503h-1.801v1.714h1.801c0.111 0.536 0.324 1.046 0.627 1.503l-1.277 1.277 1.212 1.212 1.277-1.277c0.456 0.303 0.966 0.516 1.503 0.627v1.801h1.714v-1.801c0.536-0.111 1.046-0.324 1.503-0.627l1.277 1.277 1.212-1.212-1.277-1.277c0.303-0.456 0.516-0.966 0.627-1.503h1.801zM22 24.714c-0.509 0-1.006-0.151-1.429-0.433s-0.752-0.684-0.947-1.154c-0.195-0.47-0.245-0.987-0.146-1.486s0.344-0.957 0.704-1.317c0.36-0.36 0.818-0.605 1.317-0.704s1.016-0.048 1.486 0.146c0.47 0.195 0.871 0.524 1.154 0.947s0.433 0.92 0.433 1.429c-0.001 0.682-0.272 1.335-0.754 1.817s-1.136 0.753-1.817 0.754z"></path>
<path d="M19.429 10.143c0.473 0 0.857-0.384 0.857-0.857s-0.384-0.857-0.857-0.857c-0.473 0-0.857 0.384-0.857 0.857s0.384 0.857 0.857 0.857z"></path>
<path d="M22 10.143c0.473 0 0.857-0.384 0.857-0.857s-0.384-0.857-0.857-0.857c-0.473 0-0.857 0.384-0.857 0.857s0.384 0.857 0.857 0.857z"></path>
<path d="M24.571 10.143c0.473 0 0.857-0.384 0.857-0.857s-0.384-0.857-0.857-0.857c-0.473 0-0.857 0.384-0.857 0.857s0.384 0.857 0.857 0.857z"></path>
</svg>
