<!-- Generated by IcoMoon.io -->
<svg version="1.1" xmlns="http://www.w3.org/2000/svg" width="32" height="32" viewBox="0 0 32 32">
<path d="M6.667 25.333c-0.378 0-0.694-0.128-0.95-0.383s-0.383-0.572-0.383-0.95c0-0.378 0.128-0.694 0.383-0.95s0.572-0.383 0.95-0.383h1.333v-9.333c0-1.844 0.556-3.483 1.667-4.917s2.556-2.372 4.333-2.817v-0.933c0-0.556 0.194-1.028 0.583-1.417s0.861-0.583 1.417-0.583c0.556 0 1.028 0.194 1.417 0.583s0.583 0.861 0.583 1.417v0.933c1.778 0.444 3.222 1.383 4.333 2.817s1.667 3.072 1.667 4.917v9.333h1.333c0.378 0 0.694 0.128 0.95 0.383s0.383 0.572 0.383 0.95c0 0.378-0.128 0.694-0.383 0.95s-0.572 0.383-0.95 0.383h-18.667zM16 29.333c-0.733 0-1.361-0.261-1.883-0.783s-0.783-1.15-0.783-1.883h5.333c0 0.733-0.261 1.361-0.783 1.883s-1.15 0.783-1.883 0.783z"></path>
</svg>
