<!-- Generated by IcoMoon.io -->
<svg version="1.1" xmlns="http://www.w3.org/2000/svg" width="32" height="32" viewBox="0 0 32 32">
<path d="M6.667 25.333c-0.4 0-0.667 0-0.933-0.4s-0.4-0.533-0.4-0.933 0-0.667 0.4-0.933 0.533-0.4 0.933-0.4h1.333v-9.333c0-1.867 0.533-3.467 1.733-4.933s2.533-2.4 4.267-2.8v-0.933c0-0.533 0.133-1.067 0.533-1.467s0.8-0.533 1.467-0.533 1.067 0.133 1.467 0.533 0.533 0.8 0.533 1.467v0.933c1.733 0.4 3.2 1.333 4.267 2.8s1.733 3.067 1.733 4.933v9.333h1.333c0.4 0 0.667 0 0.933 0.4s0.4 0.533 0.4 0.933 0 0.667-0.4 0.933-0.533 0.4-0.933 0.4h-18.667zM16 29.333c-0.667 0-1.333-0.267-1.867-0.8s-0.8-1.2-0.8-1.867h5.333c0 0.667-0.267 1.333-0.8 1.867s-1.2 0.8-1.867 0.8v0zM10.667 22.667h10.667v-9.333c0-1.467-0.533-2.667-1.6-3.733s-2.267-1.6-3.733-1.6-2.667 0.533-3.733 1.6-1.6 2.267-1.6 3.733v9.333z"></path>
</svg>
