<!-- Generated by IcoMoon.io -->
<svg version="1.1" xmlns="http://www.w3.org/2000/svg" width="32" height="32" viewBox="0 0 32 32">
<path fill="#fff" d="M23.832 2.444c-0.11-0.164-0.266-0.293-0.449-0.368s-0.384-0.096-0.578-0.057c-0.194 0.038-0.372 0.134-0.512 0.273l-4 4c-0.093 0.093-0.166 0.203-0.217 0.325s-0.076 0.252-0.075 0.383v5.586l-1.482 1.482c-0.289-0.077-0.591-0.089-0.885-0.034s-0.572 0.175-0.813 0.352c-0.241 0.177-0.44 0.405-0.582 0.669s-0.222 0.555-0.236 0.854l-0.002 0.092c0 0.53 0.211 1.039 0.586 1.414s0.884 0.586 1.414 0.586c0.307 0 0.61-0.070 0.885-0.205s0.516-0.333 0.703-0.576c0.187-0.243 0.315-0.527 0.375-0.828s0.050-0.612-0.030-0.909l1.48-1.482h5.586c0.131 0 0.261-0.025 0.383-0.075s0.232-0.124 0.325-0.217l4-4c0.14-0.14 0.236-0.318 0.274-0.512s0.019-0.396-0.057-0.579c-0.076-0.183-0.204-0.339-0.369-0.449s-0.358-0.168-0.556-0.168h-5v-5c-0-0.198-0.059-0.391-0.169-0.556zM26.587 10l-2 2h-4.586v-4.586l2-2v3.586c0 0.265 0.105 0.52 0.293 0.707s0.442 0.293 0.707 0.293h3.586zM28.003 16.002v0c0-0.68-0.909-1.093-1.447-0.677-0.085 0.066-0.173 0.138-0.263 0.219-0.194 0.174-0.287 0.43-0.293 0.69-0.043 1.844-0.596 3.642-1.6 5.195-1.078 1.667-2.627 2.975-4.451 3.759s-3.84 1.006-5.791 0.64c-1.951-0.366-3.749-1.305-5.165-2.696s-2.385-3.173-2.785-5.117c-0.4-1.944-0.212-3.964 0.539-5.801s2.033-3.409 3.681-4.516 3.588-1.698 5.573-1.698v0c0.111 0.001 0.219-0.038 0.297-0.116 0.037-0.036 0.072-0.073 0.106-0.11 0.512-0.557-0.078-1.611-0.832-1.547-1.598 0.137-3.74 0.432-4.991 1.066-2.18 1.104-3.971 2.847-5.133 4.996s-1.641 4.602-1.372 7.031c0.269 2.429 1.273 4.717 2.878 6.56s3.734 3.151 6.103 3.751 4.864 0.462 7.153-0.394c2.288-0.857 4.261-2.391 5.654-4.399s2.139-4.393 2.14-6.836z"></path>
<path fill="#fff" d="M16.001 10c0-0.552-0.45-1.007-0.997-0.929-1.031 0.148-2.020 0.525-2.892 1.108-1.151 0.769-2.048 1.862-2.578 3.142s-0.668 2.687-0.398 4.044 0.937 2.605 1.916 3.584c0.979 0.979 2.226 1.646 3.584 1.916s2.765 0.131 4.044-0.398c1.279-0.53 2.372-1.427 3.142-2.578 0.583-0.873 0.96-1.862 1.108-2.892 0.079-0.547-0.376-0.997-0.929-0.997v0c-0.552 0-0.99 0.452-1.1 0.993-0.129 0.634-0.38 1.241-0.743 1.785-0.549 0.822-1.33 1.463-2.244 1.842s-1.919 0.477-2.889 0.285c-0.97-0.193-1.861-0.669-2.56-1.368s-1.175-1.59-1.368-2.56-0.094-1.975 0.285-2.889c0.378-0.914 1.019-1.695 1.842-2.244 0.543-0.363 1.15-0.614 1.784-0.743 0.541-0.11 0.993-0.547 0.993-1.1v0z"></path>
</svg>
