<!-- Generated by IcoMoon.io -->
<svg version="1.1" xmlns="http://www.w3.org/2000/svg" width="32" height="32" viewBox="0 0 32 32">
<path d="M8.316 24.5c-0.505 0-0.933-0.175-1.283-0.525s-0.525-0.778-0.525-1.283v-10.384c0-0.505 0.175-0.933 0.525-1.283s0.778-0.525 1.283-0.525h4.192v-1.692c0-0.505 0.175-0.933 0.525-1.283s0.778-0.525 1.283-0.525h3.384c0.505 0 0.933 0.175 1.283 0.525s0.525 0.778 0.525 1.283v1.692h4.192c0.505 0 0.933 0.175 1.283 0.525s0.525 0.778 0.525 1.283v10.384c0 0.505-0.175 0.933-0.525 1.283s-0.778 0.525-1.283 0.525h-15.385zM14.008 10.5h4v-1.692c0-0.077-0.032-0.148-0.096-0.211s-0.134-0.096-0.212-0.096h-3.384c-0.077 0-0.148 0.032-0.211 0.096s-0.096 0.134-0.096 0.211v1.692zM24.008 18.75h-5.5v0.846c0 0.258-0.086 0.473-0.259 0.645s-0.387 0.259-0.645 0.259h-3.192c-0.258 0-0.473-0.086-0.645-0.259s-0.259-0.387-0.259-0.645v-0.846h-5.5v3.942c0 0.077 0.032 0.148 0.096 0.212s0.134 0.096 0.211 0.096h15.385c0.077 0 0.148-0.032 0.212-0.096s0.096-0.134 0.096-0.212v-3.942zM15.008 19h2v-2h-2v2zM8.008 17.25h5.5v-0.846c0-0.258 0.086-0.473 0.259-0.645s0.387-0.259 0.645-0.259h3.192c0.258 0 0.473 0.086 0.645 0.259s0.259 0.387 0.259 0.645v0.846h5.5v-4.942c0-0.077-0.032-0.148-0.096-0.212s-0.134-0.096-0.212-0.096h-15.385c-0.077 0-0.148 0.032-0.211 0.096s-0.096 0.135-0.096 0.212v4.942z"></path>
<path d="M24 28.167c2.301 0 4.167-1.866 4.167-4.167s-1.865-4.167-4.167-4.167-4.167 1.866-4.167 4.167c0 2.301 1.866 4.167 4.167 4.167z"></path>
<path fill="none" stroke="#f3f4f6" stroke-linejoin="round" stroke-linecap="round" stroke-miterlimit="4" stroke-width="0.8" d="M24 22.334v3.333M22.333 24h3.333M28.166 24c0 2.301-1.865 4.167-4.167 4.167s-4.167-1.866-4.167-4.167c0-2.301 1.866-4.167 4.167-4.167s4.167 1.866 4.167 4.167z"></path>
</svg>
