<!-- Generated by IcoMoon.io -->
<svg version="1.1" xmlns="http://www.w3.org/2000/svg" width="32" height="32" viewBox="0 0 32 32">
<path d="M11.148 21.147h-8.014c-0.425 0-0.833 0.169-1.133 0.469s-0.469 0.708-0.469 1.133v4.809c0 0.425 0.169 0.833 0.469 1.133s0.708 0.469 1.133 0.469h8.014c0.425 0 0.833-0.169 1.133-0.469s0.469-0.708 0.469-1.133v-4.809c0-0.425-0.169-0.833-0.469-1.133s-0.708-0.469-1.133-0.469zM3.531 22.75h7.333v4.809h-7.333v-4.809z"></path>
<path d="M8.198 16.001v5.146h-2v-5.61c0-0.425 0.169-0.833 0.469-1.133s0.708-0.469 1.133-0.469h6.881v-3.206h2.183v3.206h6.881c0.425 0 0.833 0.169 1.133 0.469s0.469 0.708 0.469 1.133v5.61l-2.039 0.001v-5.146l-15.112-0.001z"></path>
<path d="M28.397 21.147h-8.014c-0.425 0-0.833 0.169-1.133 0.469s-0.469 0.708-0.469 1.133v4.809c0 0.425 0.169 0.833 0.469 1.133s0.708 0.469 1.133 0.469h8.014c0.425 0 0.833-0.169 1.133-0.469s0.469-0.708 0.469-1.133v-4.809c0-0.425-0.169-0.833-0.469-1.133s-0.708-0.469-1.133-0.469zM20.78 22.75h7.333v4.809h-7.333v-4.809z"></path>
<path d="M19.964 2.713h-8.014c-0.425 0-0.833 0.169-1.133 0.469s-0.469 0.708-0.469 1.133v4.809c0 0.425 0.169 0.833 0.469 1.133s0.708 0.469 1.133 0.469h8.014c0.425 0 0.833-0.169 1.133-0.469s0.469-0.708 0.469-1.133v-4.809c0-0.425-0.169-0.833-0.469-1.133s-0.708-0.469-1.133-0.469zM12.347 4.316h7.333v4.809h-7.333v-4.809z"></path>
</svg>
