<!-- Generated by IcoMoon.io -->
<svg version="1.1" xmlns="http://www.w3.org/2000/svg" width="32" height="32" viewBox="0 0 32 32">
<path d="M9.333 27c-0.926 0-1.713-0.324-2.361-0.972s-0.972-1.435-0.972-2.361v-2.222c0-0.315 0.106-0.579 0.319-0.792s0.477-0.319 0.792-0.319h2.222v-14.889c0-0.13 0.056-0.218 0.167-0.264s0.213-0.023 0.306 0.069l0.806 0.806c0.111 0.111 0.241 0.167 0.389 0.167s0.278-0.056 0.389-0.167l0.889-0.889c0.111-0.111 0.241-0.167 0.389-0.167s0.278 0.056 0.389 0.167l0.889 0.889c0.111 0.111 0.241 0.167 0.389 0.167s0.278-0.056 0.389-0.167l0.889-0.889c0.111-0.111 0.241-0.167 0.389-0.167s0.278 0.056 0.389 0.167l0.889 0.889c0.111 0.111 0.241 0.167 0.389 0.167s0.278-0.056 0.389-0.167l0.889-0.889c0.111-0.111 0.241-0.167 0.389-0.167s0.278 0.056 0.389 0.167l0.889 0.889c0.111 0.111 0.241 0.167 0.389 0.167s0.278-0.056 0.389-0.167l0.889-0.889c0.111-0.111 0.241-0.167 0.389-0.167s0.278 0.056 0.389 0.167l0.889 0.889c0.111 0.111 0.241 0.167 0.389 0.167s0.278-0.056 0.389-0.167l0.805-0.806c0.093-0.093 0.195-0.116 0.306-0.069s0.167 0.134 0.167 0.264v18.222c0 0.926-0.324 1.713-0.972 2.361s-1.435 0.972-2.361 0.972h-13.333zM22.667 24.778c0.315 0 0.579-0.106 0.792-0.319s0.319-0.477 0.319-0.792v-15.556h-12.222v12.222h8.889c0.315 0 0.579 0.107 0.792 0.319s0.319 0.477 0.319 0.792v2.222c0 0.315 0.106 0.579 0.319 0.792s0.477 0.319 0.792 0.319zM9.333 24.778h10v-2.222h-11.111v1.111c0 0.315 0.106 0.579 0.319 0.792s0.477 0.319 0.792 0.319z"></path>
<path d="M18.222 10.334h-4.445c-0.315 0-0.579 0.107-0.792 0.319s-0.319 0.477-0.319 0.792c0 0.315 0.106 0.579 0.319 0.792s0.477 0.319 0.792 0.319h4.445c0.315 0 0.579-0.106 0.792-0.319s0.319-0.477 0.319-0.792c0-0.315-0.107-0.579-0.319-0.792s-0.477-0.319-0.792-0.319z"></path>
<path d="M18.222 13.667h-4.445c-0.315 0-0.579 0.107-0.792 0.319s-0.319 0.477-0.319 0.792c0 0.315 0.106 0.579 0.319 0.792s0.477 0.319 0.792 0.319h4.445c0.315 0 0.579-0.106 0.792-0.319s0.319-0.477 0.319-0.792-0.107-0.579-0.319-0.792c-0.213-0.213-0.477-0.319-0.792-0.319z"></path>
<path d="M20.764 12.236c0.213 0.213 0.477 0.319 0.792 0.319s0.579-0.106 0.792-0.319c0.213-0.213 0.319-0.477 0.319-0.792s-0.107-0.579-0.319-0.792c-0.213-0.213-0.477-0.319-0.792-0.319s-0.579 0.107-0.792 0.319c-0.213 0.213-0.319 0.477-0.319 0.792s0.107 0.579 0.319 0.792z"></path>
<path d="M20.764 15.57c0.213 0.213 0.477 0.319 0.792 0.319s0.579-0.106 0.792-0.319c0.213-0.213 0.319-0.477 0.319-0.792s-0.107-0.579-0.319-0.792c-0.213-0.213-0.477-0.319-0.792-0.319s-0.579 0.107-0.792 0.319c-0.213 0.213-0.319 0.477-0.319 0.792s0.107 0.579 0.319 0.792z"></path>
</svg>
