<!-- Generated by IcoMoon.io -->
<svg version="1.1" xmlns="http://www.w3.org/2000/svg" width="32" height="32" viewBox="0 0 32 32">
<path d="M6.533 27.333c-0.667 0-1.333-0.267-1.733-0.8-0.533-0.533-0.8-1.067-0.8-1.733v-17.6c0-0.667 0.267-1.333 0.8-1.733 0.533-0.533 1.067-0.8 1.733-0.8h17.733c0.667 0 1.333 0.267 1.733 0.8 0.533 0.533 0.8 1.067 0.8 1.733v3.2h-2.533v-3.2h-17.733v17.733h17.733v-3.2h2.533v3.2c0 0.667-0.267 1.333-0.8 1.733-0.533 0.533-1.067 0.8-1.733 0.8h-17.733z"></path>
<path d="M20.4 17.867c0.533 0 0.933-0.133 1.333-0.533s0.533-0.8 0.533-1.333-0.133-0.933-0.533-1.333c-0.4-0.4-0.8-0.533-1.333-0.533s-0.933 0.133-1.333 0.533c-0.4 0.4-0.533 0.8-0.533 1.333s0.133 0.933 0.533 1.333 0.8 0.533 1.333 0.533z"></path>
<path d="M27.2 10.4c-0.533-0.533-1.067-0.8-1.733-0.8h-8.8c-0.667 0-1.333 0.267-1.733 0.8-0.533 0.533-0.8 1.067-0.8 1.733v7.6c0 0.667 0.267 1.333 0.8 1.733 0.533 0.533 1.067 0.8 1.733 0.8h8.8c0.667 0 1.333-0.267 1.733-0.8 0.533-0.533 0.8-1.067 0.8-1.733v-7.6c0-0.667-0.267-1.333-0.8-1.733zM25.467 19.733h-8.8v-7.6h8.8v7.6z"></path>
</svg>
