<!-- Generated by IcoMoon.io -->
<svg version="1.1" xmlns="http://www.w3.org/2000/svg" width="32" height="32" viewBox="0 0 32 32">
<path d="M16.427 6.907c-1.040-1.053-2.293-1.573-3.76-1.573s-2.72 0.52-3.76 1.573c-1.053 1.040-1.573 2.293-1.573 3.76s0.52 2.72 1.573 3.76c1.040 1.053 2.293 1.573 3.76 1.573 0.893 0 1.707-0.187 2.44-0.587 0.467-0.24 0.907-0.573 1.32-0.987 1.027-1.013 1.547-2.24 1.573-3.667v-0.093c0-1.467-0.52-2.72-1.573-3.76zM14.547 12.547c-0.52 0.52-1.147 0.787-1.88 0.787s-1.36-0.267-1.88-0.787c-0.52-0.52-0.787-1.147-0.787-1.88s0.267-1.36 0.787-1.88c0.52-0.52 1.147-0.787 1.88-0.787s1.36 0.267 1.88 0.787c0.52 0.52 0.787 1.147 0.787 1.88s-0.267 1.36-0.787 1.88z"></path>
<path d="M15.733 24h-11.067v-1.067c0-0.24 0.067-0.467 0.187-0.667s0.28-0.36 0.48-0.467c1.2-0.6 2.413-1.053 3.627-1.347 1.227-0.307 2.467-0.453 3.707-0.453 0.2 0 0.387 0 0.587 0.013 0.733 0 1.333-0.6 1.333-1.333s-0.533-1.267-1.213-1.32c-0.053-0.013-0.12-0.013-0.173-0.013-0.173-0.013-0.36-0.013-0.533-0.013-1.467 0-2.907 0.173-4.333 0.52s-2.827 0.853-4.2 1.547c-0.64 0.333-1.16 0.813-1.547 1.453-0.387 0.627-0.587 1.32-0.587 2.080v1.067c0 0.733 0.267 1.36 0.787 1.88s1.147 0.787 1.88 0.787h11.093c0.52-0.013 0.96-0.333 1.16-0.773 0.080-0.173 0.12-0.36 0.12-0.56 0-0.72-0.587-1.32-1.307-1.333z"></path>
<path fill="none" stroke="#1f2937" stroke-linejoin="round" stroke-linecap="round" stroke-miterlimit="4" stroke-width="2.1333" d="M17.573 17.173h11.2c0.253 0 0.36-0.32 0.16-0.48l-4.693-3.52"></path>
<path fill="none" stroke="#1f2937" stroke-linejoin="round" stroke-linecap="round" stroke-miterlimit="4" stroke-width="2.1333" d="M29.040 20.507h-11.2c-0.253 0-0.36 0.32-0.16 0.48l4.693 3.52"></path>
</svg>
