<!-- Generated by IcoMoon.io -->
<svg version="1.1" xmlns="http://www.w3.org/2000/svg" width="32" height="32" viewBox="0 0 32 32">
<path d="M23.428 29.714h-0.686c-10.514-1.6-18.857-9.943-20.457-20.457-0.114-1.6 0.457-3.314 1.6-4.457l1.371-1.371c1.6-1.486 4-1.486 5.486 0l2.743 2.743c1.371 1.371 1.371 3.543 0 4.8-1.486 1.486-1.486 3.886 0 5.486l2.057 2.057c1.486 1.486 3.886 1.486 5.371 0 1.371-1.257 3.543-1.257 4.8 0l2.743 2.743c0.686 0.686 1.143 1.714 1.143 2.743s-0.457 2.057-1.143 2.743l-1.371 1.371c-0.914 1.029-2.286 1.6-3.657 1.6zM7.999 4.571c-0.457 0-0.8 0.114-1.143 0.457l-1.371 1.371c-0.686 0.686-1.029 1.6-0.914 2.629 1.371 9.486 8.914 17.029 18.4 18.4 0.914 0.114 1.829-0.229 2.514-0.914l1.371-1.371c0.343-0.343 0.457-0.686 0.457-1.143s-0.114-0.8-0.457-1.143l-2.743-2.743c-0.457-0.457-1.143-0.457-1.6 0-2.4 2.4-6.286 2.4-8.686 0l-1.828-1.828c-2.4-2.4-2.629-6.514-0.229-8.914 0.457-0.457 0.457-1.143 0-1.6l-2.629-2.743c-0.229-0.343-0.686-0.457-1.143-0.457z"></path>
</svg>
