<!-- Generated by IcoMoon.io -->
<svg version="1.1" xmlns="http://www.w3.org/2000/svg" width="32" height="32" viewBox="0 0 32 32">
<path d="M28.571 26.743l-1.371 1.371c-1.143 1.143-2.743 1.714-4.457 1.486-5.143-0.686-9.943-3.086-13.6-6.857-3.657-3.657-6.171-8.457-6.857-13.6-0.114-1.486 0.457-3.2 1.6-4.343l1.371-1.371c1.6-1.486 4-1.486 5.486 0l2.743 2.743c1.371 1.371 1.371 3.543 0 4.8-0.686 0.686-1.143 1.714-1.143 2.743-0.114 1.486 1.029 2.743 2.171 3.771 1.029 1.143 2.286 2.286 3.771 2.171 1.029 0 1.943-0.457 2.743-1.143 1.371-1.371 3.543-1.371 4.8 0l2.743 2.743c1.486 1.486 1.6 4 0 5.486z"></path>
</svg>
