<!-- Generated by IcoMoon.io -->
<svg version="1.1" xmlns="http://www.w3.org/2000/svg" width="32" height="32" viewBox="0 0 32 32">
<path d="M26.667 15.376v1.25c-0.012 0.060-0.031 0.119-0.035 0.179-0.104 1.488-0.497 2.897-1.218 4.2-1.659 3.004-4.18 4.844-7.556 5.492-0.407 0.078-0.822 0.113-1.233 0.169h-1.25c-0.054-0.011-0.107-0.031-0.161-0.034-1.309-0.086-2.565-0.399-3.739-0.977-3.271-1.613-5.273-4.212-5.973-7.799-0.079-0.406-0.113-0.821-0.168-1.231 0-0.417 0-0.833 0-1.25 0.012-0.060 0.031-0.119 0.035-0.179 0.104-1.488 0.49-2.903 1.22-4.201 1.965-3.493 4.961-5.395 8.964-5.642 1.924-0.118 3.759 0.305 5.45 1.235 3.008 1.655 4.847 4.179 5.495 7.556 0.078 0.406 0.113 0.821 0.168 1.232v0.001zM13.333 15.993c0 1.076 0.003 2.151-0.002 3.227-0.001 0.292 0.078 0.537 0.341 0.689 0.273 0.158 0.529 0.087 0.782-0.071 1.71-1.072 3.422-2.139 5.133-3.209 0.556-0.347 0.553-0.906-0.004-1.256-0.61-0.383-1.222-0.765-1.834-1.147-1.099-0.687-2.2-1.373-3.299-2.061-0.188-0.118-0.382-0.2-0.609-0.139-0.323 0.087-0.506 0.342-0.507 0.721-0.002 1.083-0.001 2.165-0.001 3.248h0.001z"></path>
</svg>
