<!-- Generated by IcoMoon.io -->
<svg version="1.1" xmlns="http://www.w3.org/2000/svg" width="32" height="32" viewBox="0 0 32 32">
<path d="M6 20.667c1.2-1.2 2.933-2 4.667-2h10.667c1.733 0 3.467 0.667 4.667 2 1.2 1.2 2 2.933 2 4.667v2.667c0 0.8-0.533 1.333-1.333 1.333s-1.333-0.533-1.333-1.333v-2.667c0-1.067-0.4-2.133-1.2-2.8s-1.733-1.2-2.8-1.2h-10.667c-1.067 0-2.133 0.4-2.8 1.2-0.8 0.8-1.2 1.733-1.2 2.8v2.667c0 0.8-0.533 1.333-1.333 1.333s-1.333-0.533-1.333-1.333v-2.667c0-1.733 0.667-3.467 2-4.667z"></path>
<path d="M16 5.333c-2.267 0-4 1.733-4 4s1.733 4 4 4 4-1.733 4-4-1.733-4-4-4zM9.333 9.333c0-3.733 2.933-6.667 6.667-6.667s6.667 2.933 6.667 6.667-2.933 6.667-6.667 6.667-6.667-2.933-6.667-6.667z"></path>
</svg>
