<!-- Generated by IcoMoon.io -->
<svg version="1.1" xmlns="http://www.w3.org/2000/svg" width="32" height="32" viewBox="0 0 32 32">
<path d="M26.286 8.222v15.555h-20.571v-15.556h20.571zM26.286 6.667h-20.571c-0.455 0-0.891 0.164-1.212 0.456s-0.502 0.687-0.502 1.1v15.555c0 0.413 0.181 0.808 0.502 1.1s0.758 0.456 1.212 0.456h20.571c0.455 0 0.891-0.164 1.212-0.456s0.502-0.687 0.502-1.1v-15.556c0-0.413-0.181-0.808-0.502-1.1s-0.757-0.456-1.212-0.456z"></path>
<path d="M8 11.429h5.6v1.524h-5.6v-1.524zM8 14.476h3.2v1.524h-3.2v-1.524zM21.6 17.524h-4.8c-0.637 0-1.247 0.241-1.697 0.669s-0.703 1.010-0.703 1.616v1.524h1.6v-1.524c0-0.202 0.084-0.396 0.234-0.539s0.354-0.223 0.566-0.223h4.8c0.212 0 0.416 0.080 0.566 0.223s0.234 0.337 0.234 0.539v1.524h1.6v-1.524c0-0.606-0.253-1.187-0.703-1.616s-1.061-0.669-1.697-0.669zM19.2 16.762c0.633 0 1.252-0.179 1.778-0.514s0.936-0.811 1.179-1.368c0.242-0.557 0.306-1.17 0.182-1.761s-0.428-1.134-0.876-1.56c-0.448-0.426-1.018-0.716-1.639-0.834s-1.264-0.057-1.849 0.173c-0.585 0.231-1.085 0.621-1.436 1.122s-0.539 1.090-0.539 1.693c0 0.808 0.337 1.583 0.937 2.155s1.414 0.893 2.263 0.893zM19.2 12.19c0.316 0 0.626 0.089 0.889 0.257s0.468 0.405 0.589 0.684c0.121 0.278 0.153 0.585 0.091 0.88s-0.214 0.567-0.438 0.78c-0.224 0.213-0.509 0.358-0.819 0.417s-0.632 0.029-0.924-0.087c-0.292-0.115-0.542-0.311-0.718-0.561s-0.27-0.545-0.27-0.847c0-0.404 0.169-0.792 0.469-1.077s0.707-0.446 1.131-0.446z"></path>
</svg>
