<!-- Generated by IcoMoon.io -->
<svg version="1.1" xmlns="http://www.w3.org/2000/svg" width="32" height="32" viewBox="0 0 32 32">
<path d="M11.040 5.998c-0.257-0.012-0.509 0.077-0.703 0.246l-8 7c-0.107 0.094-0.193 0.209-0.252 0.339s-0.089 0.27-0.089 0.413c0 0.142 0.030 0.283 0.089 0.413s0.145 0.245 0.252 0.339l8 7c0.145 0.126 0.322 0.208 0.512 0.236s0.384 0.001 0.559-0.079 0.323-0.207 0.427-0.369c0.104-0.161 0.16-0.349 0.16-0.541v-3h1c5.981 0 11.61 2.815 15.2 7.6 0.132 0.176 0.319 0.304 0.532 0.363s0.439 0.046 0.643-0.036c0.205-0.083 0.376-0.231 0.487-0.421s0.157-0.412 0.13-0.631c-1.025-8.201-7.716-14.331-15.652-14.951-0.77-0.060-1.551-0.064-2.34-0.017v-2.907c0-0.192-0.055-0.38-0.159-0.541s-0.252-0.289-0.427-0.369c-0.117-0.053-0.241-0.083-0.369-0.088z"></path>
</svg>
