<!-- Generated by IcoMoon.io -->
<svg version="1.1" xmlns="http://www.w3.org/2000/svg" width="32" height="32" viewBox="0 0 32 32">
<path d="M24 28.167c2.301 0 4.167-1.866 4.167-4.167s-1.866-4.167-4.167-4.167c-2.301 0-4.167 1.865-4.167 4.167s1.865 4.167 4.167 4.167z"></path>
<path fill="none" stroke="#f3f4f6" stroke-linejoin="round" stroke-linecap="round" stroke-miterlimit="4" stroke-width="0.8" d="M24 22.333v3.333M22.333 24h3.333M28.167 24c0 2.301-1.866 4.167-4.167 4.167s-4.167-1.866-4.167-4.167c0-2.301 1.865-4.167 4.167-4.167s4.167 1.865 4.167 4.167z"></path>
<path d="M7.2 25.067v-18.135c0-0.957 0.776-1.732 1.732-1.732h7.325c0.548 0 1.084 0.118 1.573 0.341l0.152 0.074c0.352 0.179 0.677 0.414 0.961 0.698l4.861 4.866c0.27 0.296 0.49 0.63 0.653 0.989l0.078 0.186c0.172 0.438 0.263 0.908 0.263 1.388v3.591c0 0.442-0.358 0.801-0.8 0.801s-0.8-0.359-0.8-0.801v-3.591c0-0.15-0.017-0.298-0.047-0.442h-2.653c-2.099 0-3.8-1.701-3.8-3.8v-2.654c-0.145-0.030-0.293-0.046-0.442-0.046l-7.324 0.001c-0.074 0-0.133 0.059-0.133 0.132l-0.001 18.135 0.011 0.052c0.020 0.047 0.067 0.081 0.122 0.081l9.411 0.004c0.403 0.041 0.718 0.382 0.718 0.796s-0.314 0.755-0.718 0.796l-0.082 0.004h-9.329c-0.897-0-1.635-0.681-1.724-1.556l-0.009-0.177zM15.929 20.2c0.442 0 0.8 0.358 0.8 0.8s-0.358 0.8-0.8 0.8h-2.5c-0.442 0-0.8-0.358-0.8-0.8s0.358-0.8 0.8-0.8h2.5zM17.429 16.7c0.442 0 0.8 0.358 0.8 0.8s-0.358 0.8-0.8 0.8h-4c-0.442 0-0.8-0.358-0.8-0.8s0.358-0.8 0.8-0.8h4zM18.3 9.5c0 1.215 0.985 2.2 2.2 2.2h1.569l-3.77-3.77v1.569z"></path>
</svg>
