<!-- Generated by IcoMoon.io -->
<svg version="1.1" xmlns="http://www.w3.org/2000/svg" width="32" height="32" viewBox="0 0 32 32">
<path d="M16.002 28.667c-1.752 0-3.399-0.332-4.94-0.997s-2.882-1.567-4.023-2.707c-1.14-1.14-2.043-2.48-2.708-4.021s-0.998-3.187-0.998-4.939c0-1.752 0.332-3.399 0.997-4.94s1.567-2.882 2.707-4.023c1.14-1.14 2.48-2.043 4.021-2.708s3.187-0.998 4.939-0.998c1.752 0 3.399 0.332 4.94 0.997s2.882 1.567 4.023 2.707c1.14 1.14 2.043 2.48 2.708 4.021s0.998 3.187 0.998 4.939c0 1.752-0.332 3.399-0.997 4.94s-1.567 2.882-2.707 4.023c-1.14 1.14-2.48 2.043-4.021 2.708s-3.187 0.998-4.939 0.998zM16 26.667c2.978 0 5.5-1.033 7.567-3.1s3.1-4.589 3.1-7.567c0-2.978-1.033-5.5-3.1-7.567s-4.589-3.1-7.567-3.1c-2.978 0-5.5 1.033-7.567 3.1s-3.1 4.589-3.1 7.567c0 2.978 1.033 5.5 3.1 7.567s4.589 3.1 7.567 3.1z"></path>
<path d="M11.010 15.764l3.097 3.098 6.856-6.857c0.193-0.193 0.428-0.29 0.703-0.29s0.509 0.097 0.703 0.29c0.193 0.193 0.288 0.43 0.283 0.709s-0.099 0.512-0.283 0.696l-7.418 7.418c-0.241 0.241-0.522 0.361-0.844 0.361s-0.603-0.121-0.844-0.361l-3.659-3.659c-0.193-0.193-0.29-0.427-0.29-0.703s0.097-0.509 0.29-0.703c0.193-0.193 0.43-0.287 0.709-0.283s0.512 0.099 0.696 0.283z"></path>
</svg>
