<!-- Generated by IcoMoon.io -->
<svg version="1.1" xmlns="http://www.w3.org/2000/svg" width="32" height="32" viewBox="0 0 32 32">
<path d="M22 27.167c2.301 0 4.167-1.866 4.167-4.167s-1.866-4.167-4.167-4.167c-2.301 0-4.167 1.865-4.167 4.167s1.865 4.167 4.167 4.167z"></path>
<path fill="none" stroke="#f3f4f6" stroke-linejoin="round" stroke-linecap="round" stroke-miterlimit="4" stroke-width="0.8" d="M22 21.333v3.333M20.333 23h3.333M26.167 23c0 2.301-1.866 4.167-4.167 4.167s-4.167-1.866-4.167-4.167c0-2.301 1.865-4.167 4.167-4.167s4.167 1.865 4.167 4.167z"></path>
<path d="M23.2 17.291v-7.965c0-0.709-0.552-1.317-1.298-1.412l-0.151-0.013c-0.379-0.012-0.621-0.041-0.85-0.063-0.034-0.003-0.069-0.005-0.105-0.008-0.002 0.104-0.004 0.201-0.012 0.291-0.013 0.162-0.040 0.338-0.104 0.517l-0.077 0.179c-0.151 0.296-0.38 0.544-0.662 0.717l-0.124 0.069c-0.238 0.122-0.479 0.163-0.695 0.181-0.207 0.017-0.455 0.016-0.722 0.016h-4.801c-0.267 0-0.515 0.001-0.722-0.016-0.162-0.013-0.338-0.040-0.517-0.104l-0.179-0.077c-0.296-0.151-0.544-0.38-0.717-0.662l-0.069-0.124c-0.121-0.238-0.162-0.479-0.18-0.695-0.007-0.090-0.011-0.188-0.013-0.292-0.036 0.003-0.071 0.006-0.105 0.009-0.114 0.011-0.232 0.024-0.368 0.035l-0.482 0.027c-0.77 0.025-1.369 0.59-1.441 1.284l-0.008 0.141v12.4c0 0.586 0.001 0.978 0.025 1.279 0.024 0.291 0.066 0.427 0.11 0.514l0.048 0.086c0.12 0.195 0.292 0.354 0.497 0.459l0.076 0.032c0.089 0.032 0.219 0.060 0.438 0.078 0.301 0.025 0.693 0.025 1.279 0.025h5.018c0.442 0 0.8 0.358 0.8 0.8s-0.358 0.8-0.8 0.8h-5.018c-0.56 0-1.028 0.001-1.409-0.030-0.342-0.028-0.668-0.084-0.979-0.218l-0.132-0.061c-0.468-0.239-0.86-0.602-1.134-1.048l-0.11-0.196c-0.178-0.35-0.247-0.72-0.279-1.11-0.031-0.381-0.030-0.849-0.030-1.409v-12.401c0-1.685 1.38-2.971 2.998-3.022l0.399-0.023c0.116-0.010 0.225-0.021 0.351-0.033 0.080-0.008 0.163-0.013 0.253-0.020 0.002-0.125 0.007-0.242 0.016-0.349 0.018-0.216 0.058-0.457 0.18-0.695l0.069-0.124c0.173-0.282 0.421-0.511 0.717-0.662l0.179-0.077c0.178-0.064 0.354-0.090 0.517-0.104 0.207-0.017 0.455-0.016 0.722-0.016h4.801c0.267 0 0.515-0.001 0.722 0.016 0.162 0.013 0.338 0.040 0.517 0.104l0.179 0.077 0.124 0.069c0.241 0.148 0.445 0.351 0.593 0.593l0.069 0.124 0.077 0.179c0.064 0.178 0.090 0.354 0.104 0.517 0.009 0.106 0.012 0.224 0.014 0.349 0.091 0.006 0.174 0.012 0.254 0.020 0.254 0.024 0.434 0.047 0.75 0.057l0.301 0.023c1.485 0.19 2.697 1.42 2.697 3v7.965c0 0.442-0.358 0.8-0.8 0.8s-0.8-0.358-0.8-0.8zM13.6 5.8c-0.293 0-0.464 0-0.591 0.011-0.112 0.009-0.123 0.023-0.102 0.013-0.018 0.009-0.034 0.021-0.048 0.035l-0.036 0.051c0.012-0.024-0.001-0.017-0.011 0.1-0.010 0.127-0.012 0.298-0.012 0.591v0.801c0 0.293 0.001 0.464 0.012 0.591 0.005 0.059 0.011 0.091 0.014 0.104l0.033 0.047c0.014 0.014 0.030 0.025 0.048 0.034 0.014 0.003 0.045 0.009 0.102 0.014 0.127 0.010 0.298 0.011 0.591 0.011h4.801c0.293 0 0.464-0 0.591-0.011 0.056-0.005 0.087-0.011 0.102-0.014 0.018-0.009 0.035-0.020 0.049-0.034l0.034-0.047c0.003-0.013 0.009-0.045 0.014-0.104 0.010-0.127 0.011-0.298 0.011-0.591v-0.801c0-0.293-0-0.464-0.011-0.591-0.005-0.059-0.011-0.090-0.014-0.104l0.003 0.004-0.037-0.051c-0.014-0.014-0.031-0.026-0.049-0.035 0.022 0.011 0.012-0.003-0.102-0.013-0.127-0.010-0.298-0.011-0.591-0.011h-4.801z"></path>
</svg>
