<!-- Generated by IcoMoon.io -->
<svg version="1.1" xmlns="http://www.w3.org/2000/svg" width="32" height="32" viewBox="0 0 32 32">
<path d="M23 26.167c2.301 0 4.167-1.866 4.167-4.167s-1.866-4.167-4.167-4.167c-2.301 0-4.167 1.865-4.167 4.167s1.865 4.167 4.167 4.167z"></path>
<path fill="none" stroke="#f3f4f6" stroke-linejoin="round" stroke-linecap="round" stroke-miterlimit="4" stroke-width="0.8" d="M23 20.333v3.333M21.333 22h3.333M27.167 22c0 2.301-1.866 4.167-4.167 4.167s-4.167-1.866-4.167-4.167c0-2.301 1.865-4.167 4.167-4.167s4.167 1.865 4.167 4.167z"></path>
<path d="M9.034 22.207c-0-1.295-1.024-2.345-2.286-2.345-0.090 0-0.178 0.007-0.265 0.018 0.003 0.618 0.005 1.349 0.003 1.969-0.001 0.348 0.275 0.63 0.613 0.629l1.918 0.001c0.010-0.089 0.017-0.18 0.017-0.272zM12.059 16c0-2.133 1.685-3.862 3.765-3.862 1.757 0 3.232 1.235 3.648 2.904 0.101 0.406-0.137 0.819-0.533 0.923s-0.798-0.141-0.899-0.547c-0.252-1.014-1.15-1.763-2.215-1.763-1.262 0-2.286 1.050-2.286 2.345 0 1.161 0.824 2.127 1.904 2.313 0.402 0.069 0.675 0.46 0.608 0.873s-0.449 0.693-0.852 0.624c-1.781-0.306-3.138-1.895-3.138-3.809zM9.034 9.793c0-0.092-0.007-0.183-0.017-0.272-0.573 0.002-1.298 0.005-1.918 0.003-0.338-0.001-0.613 0.281-0.612 0.629l-0.004 1.968c0.087 0.010 0.175 0.018 0.265 0.018 1.262 0 2.286-1.050 2.286-2.345zM9.784 15.242l0.148 0.015c0.337 0.070 0.591 0.377 0.591 0.744s-0.254 0.673-0.591 0.744l-0.148 0.015h-0.011c-0.408-0-0.739-0.34-0.739-0.758s0.331-0.758 0.739-0.758h0.011zM10.512 9.793c0 2.133-1.685 3.862-3.765 3.862-0.090 0-0.18-0.006-0.269-0.012v4.715c0.089-0.006 0.179-0.012 0.269-0.012 2.079 0 3.764 1.729 3.765 3.862 0 0.092-0.006 0.184-0.012 0.275 0.026 0 0.053 0.001 0.080 0.001h6.083l0.15 0.015c0.337 0.071 0.59 0.377 0.59 0.744s-0.253 0.673-0.59 0.744l-0.15 0.015-9.562-0.005c-1.159 0.003-2.1-0.962-2.096-2.151l-0.004-2.555c-0.003-0.304-0.003-0.641-0.003-1.012v-4.552c0-0.371-0.001-0.708 0.003-1.012l0.004-2.555c-0.004-1.189 0.937-2.156 2.097-2.153 0.868 0.003 1.926 0.004 2.491-0.003l0.986-0.003h10.487c0.361 0 0.69-0.001 0.986 0.003l2.489 0.003 0.215 0.011c0.988 0.1 1.774 0.907 1.871 1.921l0.011 0.221c-0.003 0.825-0.004 1.841 0.004 2.555l0.003 1.012v3.137c0 0.419-0.331 0.758-0.739 0.758s-0.739-0.34-0.739-0.758v-3.137c0-0.027-0.001-0.055-0.001-0.082-0.088 0.006-0.178 0.012-0.268 0.012-2.079-0-3.764-1.729-3.764-3.862 0-0.093 0.006-0.185 0.012-0.276h-10.646c0.006 0.091 0.012 0.183 0.012 0.276zM22.613 9.793c0 1.295 1.024 2.345 2.286 2.345 0.090 0 0.178-0.007 0.265-0.018-0.003-0.63-0.006-1.354-0.004-1.968l-0.012-0.127c-0.048-0.246-0.237-0.44-0.477-0.49l-0.123-0.012c-0.62 0.002-1.345-0.001-1.918-0.003-0.010 0.089-0.017 0.18-0.017 0.272z"></path>
</svg>
