<!-- Generated by IcoMoon.io -->
<svg version="1.1" xmlns="http://www.w3.org/2000/svg" width="32" height="32" viewBox="0 0 32 32">
<path d="M14.931 18.090l-1.641-1.641c-0.152-0.152-0.329-0.229-0.533-0.233s-0.384 0.074-0.543 0.233c-0.158 0.158-0.238 0.34-0.238 0.545s0.079 0.387 0.238 0.546l2.070 2.086c0.185 0.184 0.4 0.277 0.646 0.277s0.461-0.092 0.646-0.277l4.229-4.229c0.152-0.152 0.229-0.332 0.232-0.541s-0.074-0.392-0.232-0.55c-0.158-0.158-0.34-0.238-0.546-0.238s-0.387 0.079-0.545 0.238l-3.784 3.784zM16.003 25.676c-1.204 0-2.331-0.228-3.383-0.683s-1.969-1.074-2.751-1.856c-0.782-0.782-1.401-1.7-1.856-2.751s-0.683-2.18-0.683-3.383 0.228-2.331 0.683-3.383c0.455-1.052 1.074-1.969 1.856-2.751s1.699-1.401 2.751-1.856c1.052-0.455 2.18-0.683 3.383-0.683s2.331 0.228 3.383 0.683c1.052 0.455 1.969 1.074 2.751 1.856s1.401 1.7 1.856 2.751c0.455 1.052 0.683 2.18 0.683 3.383s-0.228 2.331-0.683 3.383c-0.455 1.052-1.074 1.969-1.856 2.751s-1.7 1.401-2.751 1.856c-1.052 0.455-2.18 0.683-3.383 0.683zM6.222 11.166c-0.148-0.148-0.222-0.327-0.222-0.538s0.074-0.39 0.222-0.537l2.869-2.869c0.141-0.141 0.319-0.214 0.533-0.217s0.395 0.069 0.543 0.217c0.148 0.148 0.222 0.327 0.222 0.538s-0.074 0.39-0.222 0.538l-2.869 2.869c-0.141 0.141-0.319 0.214-0.533 0.217s-0.395-0.069-0.543-0.217zM25.783 11.166c-0.148 0.148-0.327 0.222-0.538 0.222s-0.39-0.074-0.538-0.222l-2.869-2.869c-0.141-0.141-0.214-0.319-0.217-0.533s0.069-0.395 0.217-0.543c0.148-0.148 0.327-0.222 0.538-0.222s0.39 0.074 0.538 0.222l2.869 2.869c0.141 0.141 0.214 0.319 0.217 0.533s-0.069 0.395-0.217 0.543zM16.003 24.146c1.983 0 3.67-0.695 5.059-2.084s2.084-3.076 2.084-5.059-0.695-3.67-2.084-5.059c-1.389-1.389-3.076-2.084-5.059-2.084s-3.67 0.695-5.059 2.084c-1.389 1.389-2.084 3.076-2.084 5.059s0.695 3.67 2.084 5.059c1.389 1.389 3.076 2.084 5.059 2.084z"></path>
<path d="M24 28.167c2.301 0 4.167-1.866 4.167-4.167s-1.866-4.167-4.167-4.167c-2.301 0-4.167 1.865-4.167 4.167s1.865 4.167 4.167 4.167z"></path>
<path fill="none" stroke="#f3f4f6" stroke-linejoin="round" stroke-linecap="round" stroke-miterlimit="4" stroke-width="0.8" d="M24 22.333v3.333M22.333 24h3.333M28.167 24c0 2.301-1.866 4.167-4.167 4.167s-4.167-1.866-4.167-4.167c0-2.301 1.865-4.167 4.167-4.167s4.167 1.865 4.167 4.167z"></path>
</svg>
