<!-- Generated by IcoMoon.io -->
<svg version="1.1" xmlns="http://www.w3.org/2000/svg" width="32" height="32" viewBox="0 0 32 32">
<path d="M25.5 17.6c2.080 0 3.767 1.687 3.767 3.767s-1.687 3.767-3.767 3.767-3.767-1.687-3.767-3.767c0-2.080 1.687-3.767 3.767-3.767zM25.5 19.301c-0.221 0-0.4 0.179-0.4 0.4v1.267h-1.267c-0.221 0-0.4 0.179-0.4 0.4s0.179 0.4 0.4 0.4h1.267v1.267c0 0.221 0.179 0.4 0.4 0.4s0.4-0.179 0.4-0.4v-1.267h1.267c0.221 0 0.4-0.179 0.4-0.4 0-0.193-0.137-0.355-0.319-0.392l-0.081-0.008h-1.267v-1.267c0-0.221-0.179-0.4-0.4-0.4z"></path>
<path d="M25.296 7c0.414 0 0.811 0.15 1.104 0.415s0.457 0.626 0.457 1.001v8.621c-0.458-0.154-0.948-0.237-1.457-0.237-0.035 0-0.069 0.001-0.104 0.001v-8.385h-18.734v14.167h14.437c0.142 0.515 0.372 0.992 0.672 1.417h-15.109c-0.414 0-0.811-0.15-1.104-0.415s-0.457-0.626-0.457-1.001v-14.167c0-0.376 0.164-0.736 0.457-1.001s0.69-0.415 1.104-0.415h18.734z"></path>
<path d="M21.029 16.888c0.58 0 1.136 0.219 1.546 0.609 0.055 0.052 0.107 0.107 0.155 0.164-0.397 0.287-0.746 0.637-1.033 1.034-0.036-0.080-0.087-0.154-0.152-0.216-0.137-0.13-0.322-0.203-0.516-0.203h-4.371c-0.193 0-0.379 0.073-0.516 0.203s-0.213 0.307-0.213 0.491v1.387h-1.457v-1.387c0-0.552 0.231-1.082 0.641-1.473s0.966-0.609 1.546-0.609h4.371z"></path>
<path d="M17.728 10.854c0.532-0.21 1.118-0.265 1.684-0.158s1.085 0.371 1.492 0.759 0.686 0.882 0.798 1.421c0.112 0.538 0.054 1.097-0.167 1.604s-0.594 0.941-1.073 1.246c-0.479 0.305-1.042 0.467-1.619 0.467-0.773 0-1.515-0.292-2.061-0.813s-0.854-1.227-0.854-1.963c0-0.549 0.172-1.085 0.492-1.542s0.775-0.812 1.307-1.022zM18.844 12.031c-0.386 0-0.758 0.146-1.031 0.406s-0.426 0.613-0.426 0.98c0 0.274 0.085 0.543 0.245 0.771s0.388 0.407 0.654 0.512c0.266 0.105 0.56 0.133 0.842 0.079s0.542-0.186 0.746-0.38c0.204-0.194 0.342-0.442 0.398-0.711s0.027-0.549-0.083-0.802c-0.11-0.253-0.297-0.47-0.536-0.622s-0.521-0.233-0.809-0.233z"></path>
<path d="M11.557 15.5h-2.914v-1.388h2.914v1.388z"></path>
<path d="M13.743 12.724h-5.1v-1.387h5.1v1.387z"></path>
</svg>
