<!-- Generated by IcoMoon.io -->
<svg version="1.1" xmlns="http://www.w3.org/2000/svg" width="32" height="32" viewBox="0 0 32 32">
<path d="M19.299 16l-9.8-9.8c-0.333-0.333-0.494-0.728-0.483-1.183s0.183-0.85 0.517-1.183c0.333-0.333 0.728-0.5 1.183-0.5s0.85 0.167 1.183 0.5l10.233 10.267c0.267 0.267 0.467 0.567 0.6 0.9s0.2 0.667 0.2 1c0 0.333-0.067 0.667-0.2 1s-0.333 0.633-0.6 0.9l-10.267 10.267c-0.333 0.333-0.722 0.494-1.167 0.483s-0.833-0.183-1.167-0.517c-0.333-0.333-0.5-0.728-0.5-1.183s0.167-0.85 0.5-1.183l9.767-9.767z"></path>
</svg>
