<!-- Generated by IcoMoon.io -->
<svg version="1.1" xmlns="http://www.w3.org/2000/svg" width="32" height="32" viewBox="0 0 32 32">
<path d="M16.8 16l-5.2-5.2c-0.244-0.244-0.367-0.556-0.367-0.933s0.122-0.689 0.367-0.933c0.244-0.244 0.556-0.367 0.933-0.367s0.689 0.122 0.933 0.367l6.133 6.133c0.133 0.133 0.228 0.278 0.283 0.433s0.083 0.322 0.083 0.5c0 0.178-0.028 0.345-0.083 0.5s-0.15 0.3-0.283 0.433l-6.133 6.133c-0.244 0.245-0.556 0.367-0.933 0.367s-0.689-0.122-0.933-0.367c-0.244-0.244-0.367-0.555-0.367-0.933s0.122-0.689 0.367-0.933l5.2-5.2z"></path>
</svg>
