<!-- Generated by IcoMoon.io -->
<svg version="1.1" xmlns="http://www.w3.org/2000/svg" width="32" height="32" viewBox="0 0 32 32">
<path d="M4 11.731h1.867c0.147 0 0.267-0.12 0.267-0.267v-5.867h5.867c0.147 0 0.267-0.12 0.267-0.267v-1.867c0-0.147-0.12-0.267-0.267-0.267h-6c-1.253 0-2.267 1.013-2.267 2.267v6c0 0.147 0.12 0.267 0.267 0.267zM21.067 5.598h5.867v5.867c0 0.147 0.12 0.267 0.267 0.267h1.867c0.147 0 0.267-0.12 0.267-0.267v-6c0-1.253-1.013-2.267-2.267-2.267h-6c-0.147 0-0.267 0.12-0.267 0.267v1.867c0 0.147 0.12 0.267 0.267 0.267zM12 26.398h-5.867v-5.867c0-0.147-0.12-0.267-0.267-0.267h-1.867c-0.147 0-0.267 0.12-0.267 0.267v6c0 1.253 1.013 2.267 2.267 2.267h6c0.147 0 0.267-0.12 0.267-0.267v-1.867c0-0.147-0.12-0.267-0.267-0.267zM29.067 20.265h-1.867c-0.147 0-0.267 0.12-0.267 0.267v5.867h-5.867c-0.147 0-0.267 0.12-0.267 0.267v1.867c0 0.147 0.12 0.267 0.267 0.267h6c1.253 0 2.267-1.013 2.267-2.267v-6c0-0.147-0.12-0.267-0.267-0.267zM29.6 14.798h-26.133c-0.147 0-0.267 0.12-0.267 0.267v1.867c0 0.147 0.12 0.267 0.267 0.267h26.133c0.147 0 0.267-0.12 0.267-0.267v-1.867c0-0.147-0.12-0.267-0.267-0.267z"></path>
</svg>
