<!-- Generated by IcoMoon.io -->
<svg version="1.1" xmlns="http://www.w3.org/2000/svg" width="32" height="32" viewBox="0 0 32 32">
<path d="M17.067 15.6v-5.2c0-0.267 0-0.533-0.267-0.667-0.133-0.133-0.4-0.267-0.667-0.267s-0.533 0-0.667 0.267c-0.133 0.133-0.267 0.4-0.267 0.667v5.6c0 0.133 0 0.267 0 0.4s0.133 0.267 0.267 0.4l4.533 4.533c0.133 0.133 0.4 0.267 0.667 0.267s0.533 0 0.667-0.267 0.267-0.4 0.267-0.667 0-0.533-0.267-0.667l-4.267-4.267zM16 28.667c-1.733 0-3.333-0.267-4.933-0.933s-2.933-1.6-4-2.667c-1.2-1.2-2-2.533-2.667-4-0.667-1.6-0.933-3.2-0.933-4.933s0.267-3.333 0.933-4.933c0.667-1.6 1.6-2.933 2.667-4 1.2-1.2 2.533-2 4-2.667 1.6-0.667 3.2-0.933 4.933-0.933s3.333 0.267 4.933 0.933c1.6 0.667 2.933 1.6 4 2.667 1.2 1.2 2 2.533 2.667 4 0.667 1.6 0.933 3.2 0.933 4.933s-0.267 3.333-0.933 4.933c-0.667 1.6-1.6 2.933-2.667 4-1.2 1.2-2.533 2-4 2.667-1.6 0.667-3.2 0.933-4.933 0.933zM16 26.667c2.933 0 5.467-1.067 7.6-3.067s3.067-4.533 3.067-7.6-1.067-5.467-3.067-7.6-4.533-3.067-7.6-3.067-5.467 1.067-7.6 3.067-3.067 4.533-3.067 7.6 1.067 5.467 3.067 7.6 4.533 3.067 7.6 3.067z"></path>
</svg>
