<!-- Generated by IcoMoon.io -->
<svg version="1.1" xmlns="http://www.w3.org/2000/svg" width="32" height="32" viewBox="0 0 32 32">
<path d="M13.5 29.333c-0.333 0-0.622-0.111-0.867-0.333s-0.389-0.5-0.433-0.833l-0.4-3.1c-0.289-0.111-0.561-0.244-0.817-0.4s-0.506-0.322-0.75-0.5l-2.9 1.2c-0.311 0.133-0.622 0.15-0.933 0.050s-0.556-0.294-0.733-0.583l-2.467-4.3c-0.178-0.289-0.233-0.6-0.167-0.933s0.233-0.6 0.5-0.8l2.5-1.9c-0.022-0.156-0.033-0.306-0.033-0.45v-0.9c0-0.144 0.011-0.294 0.033-0.45l-2.5-1.9c-0.267-0.2-0.433-0.467-0.5-0.8s-0.011-0.644 0.167-0.933l2.467-4.3c0.178-0.289 0.422-0.483 0.733-0.583s0.622-0.083 0.933 0.050l2.9 1.2c0.244-0.178 0.5-0.344 0.767-0.5s0.533-0.289 0.8-0.4l0.4-3.1c0.044-0.333 0.189-0.611 0.433-0.833s0.533-0.333 0.867-0.333h5c0.333 0 0.622 0.111 0.867 0.333s0.389 0.5 0.433 0.833l0.4 3.1c0.289 0.111 0.561 0.244 0.817 0.4s0.506 0.322 0.75 0.5l2.9-1.2c0.311-0.133 0.622-0.15 0.933-0.050s0.556 0.294 0.733 0.583l2.467 4.3c0.178 0.289 0.233 0.6 0.167 0.933s-0.233 0.6-0.5 0.8l-2.5 1.9c0.022 0.156 0.033 0.306 0.033 0.45v0.9c0 0.144-0.022 0.294-0.067 0.45l2.5 1.9c0.267 0.2 0.433 0.467 0.5 0.8s0.011 0.644-0.167 0.933l-2.467 4.267c-0.178 0.289-0.428 0.489-0.75 0.6s-0.639 0.1-0.95-0.033l-2.833-1.2c-0.244 0.178-0.5 0.344-0.767 0.5s-0.533 0.289-0.8 0.4l-0.4 3.1c-0.044 0.333-0.189 0.611-0.433 0.833s-0.533 0.333-0.867 0.333h-5zM16.067 20.667c1.289 0 2.389-0.456 3.3-1.367s1.367-2.011 1.367-3.3-0.455-2.389-1.367-3.3c-0.911-0.911-2.011-1.367-3.3-1.367-1.311 0-2.417 0.456-3.317 1.367s-1.35 2.011-1.35 3.3 0.45 2.389 1.35 3.3c0.9 0.911 2.006 1.367 3.317 1.367z"></path>
</svg>
