<!-- Generated by IcoMoon.io -->
<svg version="1.1" xmlns="http://www.w3.org/2000/svg" width="32" height="32" viewBox="0 0 32 32">
<path fill="#1d4ed8" d="M12.882 8.906l3.744 3.81c0.323 0.322 0.753 0.5 1.21 0.5s0.888-0.178 1.212-0.502c0.668-0.668 0.668-1.756 0-2.424l-3.57-3.567c-0.896-0.896-2.087-1.389-3.354-1.389s-2.458 0.493-3.357 1.392l-4.713 4.76c-1.772 1.772-1.845 4.609-0.221 6.47l9.050-9.050z"></path>
<path fill="#1d4ed8" d="M27.944 10.81l-4.080-4.080c-0.896-0.896-2.087-1.389-3.354-1.389-1.138 0-2.215 0.399-3.071 1.13l2.715 2.715c1.277 1.278 1.277 3.356 0 4.634-0.619 0.619-1.442 0.96-2.317 0.96s-1.698-0.341-2.317-0.96l-0.005-0.005-2.642-2.688-8.973 8.972c0.1 0.468 0.334 0.897 0.672 1.235 0.309 0.309 0.695 0.532 1.117 0.644l7.68-7.68 1.105 1.105-7.301 7.301c0.104 0.455 0.335 0.872 0.665 1.202 0.319 0.32 0.719 0.546 1.157 0.655l7.59-7.59 1.105 1.105-7.215 7.215c0.101 0.467 0.334 0.895 0.672 1.233 0.317 0.317 0.704 0.538 1.127 0.649l7.481-7.481 1.105 1.105-5.675 5.675c0.522 0.613 1.231 0.875 1.897 0.875s1.293-0.26 1.765-0.731l9.097-9.097c0.896-0.896 1.389-2.087 1.389-3.354s-0.493-2.459-1.39-3.354z"></path>
<path fill="#dc2626" d="M32 5.333c0 2.946-2.388 5.333-5.333 5.333s-5.333-2.388-5.333-5.333c0-2.946 2.388-5.333 5.333-5.333s5.333 2.388 5.333 5.333z"></path>
</svg>
