<!-- Generated by IcoMoon.io -->
<svg version="1.1" xmlns="http://www.w3.org/2000/svg" width="32" height="32" viewBox="0 0 32 32">
<path d="M14.667 24c-0.378 0-0.694-0.128-0.95-0.383s-0.383-0.572-0.383-0.95c0-0.378 0.128-0.694 0.383-0.95s0.572-0.383 0.95-0.383h5.333c0.378 0 0.694 0.128 0.95 0.383s0.383 0.572 0.383 0.95c0 0.378-0.128 0.694-0.383 0.95s-0.572 0.383-0.95 0.383h-5.333zM8.067 20.2l11.267-11.267c0.267-0.267 0.578-0.4 0.933-0.4s0.667 0.133 0.933 0.4c0.267 0.267 0.4 0.583 0.4 0.95s-0.133 0.683-0.4 0.95l-12.2 12.233c-0.267 0.267-0.578 0.4-0.933 0.4s-0.667-0.133-0.933-0.4l-5.7-5.7c-0.267-0.267-0.394-0.583-0.383-0.95s0.15-0.683 0.417-0.95c0.267-0.267 0.583-0.4 0.95-0.4s0.683 0.133 0.95 0.4l4.7 4.733zM20 18.667c-0.378 0-0.694-0.128-0.95-0.383s-0.383-0.572-0.383-0.95c0-0.378 0.128-0.694 0.383-0.95s0.572-0.383 0.95-0.383h5.333c0.378 0 0.694 0.128 0.95 0.383s0.383 0.572 0.383 0.95c0 0.378-0.128 0.694-0.383 0.95s-0.572 0.383-0.95 0.383h-5.333zM25.333 13.333c-0.378 0-0.694-0.128-0.95-0.383s-0.383-0.572-0.383-0.95c0-0.378 0.128-0.694 0.383-0.95s0.572-0.383 0.95-0.383h5.333c0.378 0 0.694 0.128 0.95 0.383s0.383 0.572 0.383 0.95c0 0.378-0.128 0.694-0.383 0.95s-0.572 0.383-0.95 0.383h-5.333z"></path>
</svg>
