<!-- Generated by IcoMoon.io -->
<svg version="1.1" xmlns="http://www.w3.org/2000/svg" width="32" height="32" viewBox="0 0 32 32">
<path d="M14.952 18.051l-2.1-2.1c-0.194-0.194-0.421-0.293-0.682-0.298s-0.492 0.095-0.695 0.298-0.304 0.435-0.304 0.698c0 0.263 0.101 0.496 0.304 0.698l2.65 2.67c0.236 0.236 0.512 0.354 0.826 0.354s0.59-0.118 0.826-0.354l5.413-5.413c0.194-0.194 0.293-0.425 0.297-0.692s-0.095-0.502-0.297-0.704c-0.203-0.203-0.436-0.304-0.698-0.304s-0.495 0.101-0.698 0.304l-4.843 4.843zM16.323 27.762c-1.541 0-2.984-0.291-4.33-0.874s-2.52-1.375-3.522-2.376c-1.001-1.001-1.793-2.175-2.376-3.522s-0.874-2.79-0.874-4.33c0-1.541 0.291-2.984 0.874-4.33s1.375-2.52 2.376-3.522 2.175-1.793 3.522-2.376c1.346-0.583 2.79-0.874 4.33-0.874s2.984 0.291 4.33 0.874c1.346 0.583 2.52 1.375 3.522 2.376s1.794 2.175 2.376 3.522c0.583 1.346 0.874 2.79 0.874 4.33s-0.291 2.984-0.874 4.33c-0.583 1.346-1.375 2.52-2.376 3.522s-2.175 1.794-3.522 2.376c-1.346 0.583-2.79 0.874-4.33 0.874zM3.804 9.189c-0.189-0.189-0.284-0.419-0.284-0.688s0.095-0.499 0.284-0.688l3.672-3.672c0.181-0.181 0.408-0.273 0.682-0.278s0.505 0.088 0.695 0.278c0.189 0.189 0.284 0.419 0.284 0.688s-0.095 0.499-0.284 0.688l-3.672 3.672c-0.181 0.181-0.408 0.273-0.682 0.278s-0.505-0.088-0.695-0.278zM28.843 9.189c-0.189 0.189-0.419 0.284-0.688 0.284s-0.499-0.095-0.688-0.284l-3.672-3.672c-0.181-0.181-0.273-0.408-0.278-0.682s0.088-0.505 0.278-0.695c0.189-0.189 0.419-0.284 0.688-0.284s0.499 0.095 0.688 0.284l3.672 3.672c0.181 0.181 0.273 0.408 0.277 0.682s-0.088 0.505-0.277 0.695zM16.323 25.803c2.539 0 4.697-0.889 6.476-2.668s2.668-3.937 2.668-6.476c0-2.539-0.889-4.697-2.668-6.476s-3.937-2.668-6.476-2.668c-2.539 0-4.697 0.889-6.476 2.668s-2.668 3.937-2.668 6.476c0 2.539 0.889 4.697 2.668 6.476s3.937 2.668 6.476 2.668z"></path>
</svg>
