<!-- Generated by IcoMoon.io -->
<svg version="1.1" xmlns="http://www.w3.org/2000/svg" width="32" height="32" viewBox="0 0 32 32">
<path d="M25.72 14.183h-7.892v-7.892c0-1.265-1.026-2.291-2.291-2.291h-9.267c-1.259 0.006-2.276 1.031-2.27 2.291v9.256c0 1.254 1.016 2.27 2.27 2.27h7.913v7.913c0 1.254 1.016 2.27 2.27 2.27h9.256c1.259 0.006 2.285-1.011 2.291-2.27v-9.256c0-1.261-1.019-2.285-2.28-2.291zM14.183 16.484v0.302l-7.913-0.010c-0.679 0-1.229-0.55-1.229-1.229v-9.256c-0.006-0.684 0.544-1.244 1.229-1.249h9.256c0.69 0 1.249 0.559 1.249 1.249v7.903h-0.323c-1.259 0.006-2.276 1.031-2.27 2.291zM26.969 25.73c-0.006 0.684-0.565 1.234-1.249 1.229h-9.257c-0.679 0-1.229-0.55-1.229-1.229v-9.256c-0.006-0.684 0.544-1.244 1.229-1.249h9.256c0.69 0 1.249 0.559 1.249 1.249v9.256z"></path>
<path d="M24.169 24.345l-2.582-6.862c-0.128-0.27-0.451-0.386-0.721-0.258-0.113 0.054-0.204 0.145-0.258 0.258l-2.52 6.851c-0.101 0.27 0.037 0.571 0.307 0.672s0.571-0.037 0.671-0.307l0.614-1.645h2.895l0.614 1.645c0.036 0.101 0.103 0.188 0.19 0.249s0.192 0.095 0.299 0.095c0.288 0 0.521-0.233 0.52-0.521 0-0.060-0.011-0.12-0.031-0.177zM20.035 22.023l1.041-2.863 1.041 2.863h-2.082zM14.215 14.225c-0.877-0.002-1.736-0.251-2.478-0.718 0.918-0.941 1.484-2.169 1.603-3.478h0.875c0.288 0 0.521-0.233 0.521-0.521s-0.233-0.521-0.521-0.521h-2.78v-1.905c0-0.288-0.233-0.521-0.521-0.521s-0.521 0.233-0.521 0.521v1.905h-2.801c-0.288 0-0.521 0.233-0.521 0.521s0.233 0.521 0.521 0.521h0.885c0.12 1.309 0.686 2.536 1.603 3.478-0.743 0.466-1.601 0.715-2.478 0.718-0.288 0-0.521 0.233-0.521 0.521s0.233 0.521 0.521 0.521c1.185 0.002 2.341-0.361 3.311-1.041 0.966 0.68 2.119 1.043 3.301 1.041 0.288 0 0.521-0.233 0.521-0.521s-0.233-0.521-0.521-0.521zM9.55 10.029h2.728c-0.11 1.080-0.592 2.089-1.364 2.853-0.771-0.765-1.253-1.773-1.364-2.853zM27.98 11.851c-0.006-4.317-3.492-7.822-7.809-7.851-0.287 0-0.521 0.233-0.521 0.521s0.233 0.521 0.521 0.521c3.626 0.007 6.611 2.854 6.789 6.476h-1.718c-0.288 0-0.521 0.233-0.521 0.521s0.233 0.521 0.521 0.521h2.218c0.287 0 0.521-0.233 0.521-0.521 0.003-0.031 0.003-0.063 0-0.094 0.003-0.031 0.003-0.063 0-0.094zM11.841 26.969c-3.623-0.007-6.606-2.848-6.789-6.466h1.708c0.288 0 0.521-0.233 0.521-0.521s-0.233-0.521-0.521-0.521h-2.207c-0.288 0-0.521 0.233-0.521 0.521-0.002 0.028-0.002 0.056 0 0.083-0.002 0.028-0.002 0.056 0 0.083 0 4.321 3.488 7.833 7.809 7.861 0.288 0 0.521-0.233 0.521-0.521s-0.233-0.521-0.521-0.521z"></path>
</svg>
