<!-- Generated by IcoMoon.io -->
<svg version="1.1" xmlns="http://www.w3.org/2000/svg" width="32" height="32" viewBox="0 0 32 32">
<path d="M15.981 3.198c-7.069 0.010-12.781 5.728-12.781 12.797 0 4.096 1.926 7.744 4.922 10.086l-1.2 1.536c-0.131 0.17-0.010 0.416 0.202 0.413l5.344-0.026c0.166 0 0.288-0.157 0.246-0.317l-1.264-5.194c-0.011-0.047-0.036-0.089-0.070-0.123s-0.078-0.057-0.125-0.067c-0.047-0.010-0.096-0.007-0.141 0.010s-0.085 0.046-0.114 0.084l-1.302 1.667c-0.326-0.256-0.64-0.534-0.938-0.832-0.936-0.932-1.681-2.038-2.195-3.254-0.534-1.261-0.803-2.602-0.803-3.984s0.269-2.723 0.803-3.984c0.515-1.219 1.254-2.314 2.195-3.254s2.035-1.68 3.254-2.195c1.264-0.534 2.605-0.803 3.987-0.803s2.723 0.269 3.984 0.803c1.219 0.515 2.314 1.254 3.254 2.195s1.68 2.035 2.195 3.254c0.534 1.261 0.803 2.602 0.803 3.984s-0.269 2.723-0.803 3.984c-0.514 1.217-1.26 2.322-2.195 3.254-0.24 0.24-0.49 0.464-0.749 0.678-0.052 0.042-0.085 0.103-0.092 0.17s0.012 0.133 0.054 0.185l1.261 1.616c0.090 0.112 0.253 0.131 0.365 0.042 2.883-2.349 4.723-5.923 4.723-9.93 0-7.075-5.741-12.806-12.819-12.797z"></path>
</svg>
