<!-- Generated by IcoMoon.io -->
<svg version="1.1" xmlns="http://www.w3.org/2000/svg" width="32" height="32" viewBox="0 0 32 32">
<path d="M8 26.667c-0.733 0-1.361-0.261-1.883-0.783s-0.783-1.15-0.783-1.883v-2.667c0-0.378 0.128-0.694 0.383-0.95s0.572-0.383 0.95-0.383 0.694 0.128 0.95 0.383c0.256 0.256 0.383 0.572 0.383 0.95v2.667h16v-2.667c0-0.378 0.128-0.694 0.383-0.95s0.572-0.383 0.95-0.383 0.694 0.128 0.95 0.383c0.256 0.256 0.383 0.572 0.383 0.95v2.667c0 0.733-0.261 1.361-0.783 1.883s-1.15 0.783-1.883 0.783h-16zM14.667 10.467l-2.5 2.5c-0.267 0.267-0.583 0.394-0.95 0.383s-0.683-0.15-0.95-0.417c-0.244-0.267-0.372-0.578-0.383-0.933s0.117-0.667 0.383-0.933l4.8-4.8c0.133-0.133 0.278-0.228 0.433-0.283s0.322-0.083 0.5-0.083c0.178 0 0.344 0.028 0.5 0.083s0.3 0.15 0.433 0.283l4.8 4.8c0.267 0.267 0.394 0.578 0.383 0.933s-0.139 0.667-0.383 0.933c-0.267 0.267-0.583 0.406-0.95 0.417s-0.683-0.117-0.95-0.383l-2.5-2.5v9.533c0 0.378-0.128 0.695-0.383 0.95s-0.572 0.383-0.95 0.383-0.694-0.128-0.95-0.383c-0.256-0.255-0.383-0.572-0.383-0.95v-9.533z"></path>
</svg>
