<!-- Generated by IcoMoon.io -->
<svg version="1.1" xmlns="http://www.w3.org/2000/svg" width="32" height="32" viewBox="0 0 32 32">
<path d="M16 16c-1.467 0-2.722-0.522-3.767-1.567s-1.567-2.3-1.567-3.767c0-1.467 0.522-2.722 1.567-3.767s2.3-1.567 3.767-1.567c1.467 0 2.722 0.522 3.767 1.567s1.567 2.3 1.567 3.767c0 1.467-0.522 2.722-1.567 3.767s-2.3 1.567-3.767 1.567zM5.333 24v-1.067c0-0.756 0.194-1.45 0.583-2.083s0.906-1.117 1.55-1.45c1.378-0.689 2.778-1.206 4.2-1.55s2.867-0.517 4.333-0.517c1.467 0 2.911 0.172 4.333 0.517s2.822 0.861 4.2 1.55c0.644 0.333 1.161 0.817 1.55 1.45s0.583 1.328 0.583 2.083v1.067c0 0.733-0.261 1.361-0.783 1.883s-1.15 0.783-1.883 0.783h-16c-0.733 0-1.361-0.261-1.883-0.783s-0.783-1.15-0.783-1.883z"></path>
</svg>
