<!-- Generated by IcoMoon.io -->
<svg version="1.1" xmlns="http://www.w3.org/2000/svg" width="32" height="32" viewBox="0 0 32 32">
<path fill="#000" d="M21.168 7.903c0.383-0.001 0.708 0.084 0.977 0.261s0.473 0.441 0.621 0.788c0.266 0.622 0.536 1.242 0.806 1.862s0.539 1.241 0.805 1.863c0.020 0.047 0.036 0.078 0.050 0.096 0.012 0.017 0.017 0.017 0.015 0.016 0.003-0 0.009-0.001 0.020-0.006 0.021-0.008 0.051-0.026 0.094-0.056 0.475-0.332 0.965-0.642 1.449-0.956 0.159-0.103 0.323-0.153 0.476-0.138 0.155 0.016 0.288 0.098 0.384 0.234s0.127 0.291 0.086 0.442c-0.041 0.149-0.149 0.283-0.307 0.39v0.001c-0.477 0.323-0.961 0.638-1.454 0.965 0.322 0.268 0.631 0.53 0.95 0.781 0.31 0.244 0.516 0.524 0.611 0.841s0.076 0.662-0.047 1.032c-0.025 0.077-0.046 0.154-0.070 0.236-0.024 0.080-0.051 0.163-0.086 0.244-0.576 1.323-0.572 2.722-0.532 4.147v0.001c0.009 0.318 0.045 0.673-0.049 1.018-0.173 0.637-0.726 1.106-1.393 1.117-0.836 0.015-1.675 0.019-2.513-0.001-0.778-0.019-1.402-0.67-1.429-1.439-0.009-0.25-0.022-0.514 0.004-0.773 0.005-0.054 0-0.083-0.005-0.098-0.004-0.011-0.007-0.013-0.011-0.015-0.008-0.004-0.023-0.009-0.054-0.012s-0.067-0.001-0.112-0.001c-2.617 0.004-5.234 0.002-7.851 0.002-0.371 0-0.749 0.009-1.125-0.004-0.039-0.001-0.063 0.001-0.079 0.005-0.007 0.002-0.011 0.005-0.014 0.006s-0.003 0.002-0.003 0.002c-0.002 0.003-0.015 0.020-0.011 0.1 0.013 0.257 0.009 0.514 0.002 0.768-0.024 0.814-0.673 1.454-1.499 1.463-0.798 0.009-1.596 0.010-2.393 0-0.838-0.011-1.486-0.664-1.493-1.501-0.008-0.937-0.005-1.874 0-2.811l-0.004-0.125c-0.009-0.123-0.032-0.242-0.069-0.361-0.215-0.679-0.421-1.356-0.639-2.032-0.111-0.345-0.126-0.668-0.037-0.964s0.277-0.558 0.555-0.788c0.329-0.273 0.66-0.548 1.012-0.839-0.481-0.322-0.944-0.634-1.41-0.942-0.093-0.062-0.217-0.137-0.287-0.271-0.061-0.117-0.088-0.238-0.070-0.356s0.080-0.227 0.179-0.318c0.105-0.097 0.224-0.151 0.351-0.157 0.125-0.006 0.249 0.034 0.363 0.108 0.509 0.329 1.026 0.654 1.523 1.006 0.045 0.032 0.075 0.048 0.095 0.055 0.006 0.002 0.010 0.003 0.013 0.003 0.001-0.001 0.008-0.006 0.019-0.023 0.014-0.021 0.029-0.052 0.048-0.097 0.535-1.247 1.078-2.479 1.61-3.725 0.149-0.348 0.354-0.612 0.623-0.788s0.595-0.259 0.977-0.258c3.443 0.006 6.886 0.006 10.329 0zM24.878 20.33c-0.55 0.352-1.125 0.45-1.729 0.42-0.202-0.010-0.406-0.008-0.61 0-0.078 0.003-0.163-0.004-0.243-0.013-0.083-0.009-0.16-0.019-0.233-0.024s-0.136-0.004-0.183 0.005c-0.046 0.009-0.068 0.025-0.079 0.040-0.052 0.073-0.069 0.188-0.064 0.343 0.003 0.075 0.009 0.153 0.017 0.234 0.007 0.080 0.015 0.163 0.017 0.241 0.003 0.125 0.042 0.217 0.105 0.278s0.157 0.101 0.284 0.102c0.776 0.008 1.552 0.008 2.327 0 0.127-0.001 0.222-0.041 0.284-0.102s0.103-0.154 0.105-0.279c0.008-0.401 0.003-0.802 0.002-1.245zM7.125 20.329c-0.001 0.448-0.006 0.856 0.004 1.265 0.003 0.12 0.044 0.207 0.108 0.266 0.065 0.059 0.165 0.098 0.299 0.099 0.766 0.006 1.532 0.006 2.298 0l0.094-0.009c0.087-0.015 0.152-0.049 0.199-0.097 0.062-0.063 0.103-0.161 0.107-0.298 0.004-0.119 0.002-0.239 0.001-0.361s-0.002-0.246 0.004-0.371v-0.001c0.002-0.045-0.003-0.063-0.005-0.067 0.001 0.001-0.002-0.002-0.013-0.005-0.014-0.003-0.035-0.004-0.066-0.004-0.482 0.008-0.939-0.009-1.413 0.006-0.568 0.017-1.101-0.092-1.617-0.422zM16.012 14.224c-2.617 0-5.235 0.001-7.853-0.004-0.169 0-0.293 0.039-0.416 0.146-0.244 0.238-0.364 0.356-0.422 0.413-0.026 0.026-0.040 0.038-0.047 0.045h0.001c-0.001 0.002-0.002 0.003-0.003 0.004-0.003 0.003-0.007 0.007-0.010 0.010-0.008 0.008-0.023 0.023-0.055 0.054-0.064 0.062-0.192 0.186-0.448 0.435l-0.007 0.007-0.001-0.001c-0.105 0.083-0.163 0.167-0.188 0.254s-0.021 0.188 0.018 0.313c0.145 0.461 0.208 0.823 0.271 1.18s0.126 0.706 0.269 1.153l0.084 0.226c0.091 0.212 0.206 0.384 0.349 0.511 0.188 0.166 0.432 0.261 0.757 0.262h14.937c0.327 0 0.526-0.055 0.7-0.204 0.182-0.156 0.345-0.422 0.572-0.877 0.223-0.445 0.333-0.8 0.445-1.151 0.112-0.349 0.226-0.693 0.456-1.105 0.037-0.121 0.038-0.219 0.010-0.304-0.028-0.086-0.089-0.17-0.194-0.253l-0.009-0.007c-0.002-0.002-0.004-0.004-0.006-0.006s-0.003-0.004-0.005-0.006c-0.002-0.002-0.004-0.003-0.006-0.005s-0.003-0.004-0.005-0.006c-0.002-0.002-0.004-0.003-0.006-0.005s-0.003-0.004-0.005-0.006c-0.005-0.005-0.006-0.006-0.011-0.011-0.006-0.006-0.005-0.004-0.011-0.010-0.002-0.002-0.003-0.004-0.005-0.006s-0.004-0.003-0.006-0.005l-0.049-0.049c-0.002-0.002-0.003-0.004-0.004-0.005s-0.003-0.002-0.005-0.004l-0.019-0.019c-0.001-0.001-0.003-0.003-0.004-0.005s-0.003-0.002-0.005-0.004l-0.127-0.127c-0.001-0.001-0.002-0.003-0.003-0.004s-0.003-0.002-0.004-0.003l-0.050-0.050-0.006-0.005c-0.001-0.001-0.001-0.002-0.002-0.003s-0.002-0.001-0.003-0.002-0.002-0.003-0.004-0.005l-0.053-0.053c-0.003-0.003-0.004-0.003-0.007-0.006s-0.009-0.010-0.012-0.013l-0.001-0.001-0.002-0.001-0.002-0.003c-0.004-0.004-0.002-0.001-0.006-0.005l-0.001-0.002-0.003-0.003-0.002-0.001-0.001-0.002-0.040-0.040h-0.001v-0.001l-0.001-0.001h-0.001v-0.001l-0.001-0.001-0.040-0.040-0.002-0.001-0.001-0.001c-0.001-0.001-0.001-0.002-0.002-0.003l-0.001-0.001-0.002-0.001c-0.004-0.004-0.006-0.007-0.010-0.011-0.009-0.008-0.004-0.003-0.013-0.012l-0.001-0.002-0.002-0.002-0.002-0.001-0.001-0.002-0.011-0.011c-0.003-0.003-0.001 0-0.004-0.003l-0.024-0.024c-0.001-0.001-0.001-0.002-0.002-0.003l-0.002-0.002c-0.001-0.001-0.002-0.001-0.003-0.002s-0.001-0.002-0.002-0.003c-0.001-0.001-0.004-0.004-0.005-0.004l-0.015-0.015c-0.002-0.002-0.003-0.004-0.005-0.006l-0.008-0.008c-0.001-0.001-0.002-0.001-0.003-0.002-0.002-0.002-0.004-0.004-0.006-0.006-0.003-0.003-0.007-0.008-0.011-0.012l-0.015-0.015c-0.001-0.001-0.003-0.002-0.004-0.003l-0.104-0.104c-0.001-0.001-0.003-0.004-0.004-0.005-0.004-0.004-0.004-0.003-0.009-0.008l-0.013-0.013c-0.001-0.001-0.002-0.003-0.004-0.005s-0.003-0.002-0.005-0.004c-0.001-0.001-0.002-0.003-0.004-0.005s-0.003-0.002-0.005-0.004c-0.001-0.002-0.003-0.003-0.005-0.005s-0.003-0.004-0.004-0.005c-0.002-0.002-0.003-0.002-0.005-0.004l-0.010-0.010c-0.001-0.001-0.002-0.003-0.004-0.005s-0.003-0.002-0.005-0.004l-0.029-0.029c-0.002-0.002-0.003-0.004-0.005-0.006s-0.004-0.003-0.006-0.005l-0.060-0.060c-0.131-0.114-0.262-0.155-0.44-0.155-2.607 0.005-5.215 0.004-7.822 0.004zM7.26 14.838c-0.001 0-0.002 0.002-0.004 0.003 0.002-0.002 0.005-0.003 0.006-0.004l-0.002 0.001zM7.264 14.697c0.008 0.007 0.014 0.014 0.020 0.021-0.004-0.008-0.008-0.017-0.016-0.024l-0.001-0.001c-0.001 0.001-0.002 0.003-0.003 0.004zM21.259 9.271c-3.453 0.007-6.905 0.006-10.357 0-0.148 0-0.254 0.029-0.334 0.083s-0.146 0.14-0.203 0.274c-0.503 1.182-0.743 1.69-1.255 2.865-0.041 0.094-0.030 0.128-0.025 0.136 0.003 0.005 0.024 0.030 0.122 0.030 1.191 0 2.408 0.015 3.625 0.029s2.433 0.029 3.622 0.029c2.398 0 3.942-0.015 6.341-0.007 0.057 0 0.093-0.004 0.115-0.009v-0.002c-0.005-0.023-0.017-0.056-0.038-0.105-0.263-0.602-0.405-1.048-0.545-1.492s-0.276-0.883-0.527-1.479v-0.001c-0.056-0.133-0.123-0.218-0.204-0.271s-0.188-0.081-0.336-0.081z"></path>
<path fill="#000" d="M24 28.167c2.301 0 4.167-1.866 4.167-4.167s-1.865-4.167-4.167-4.167-4.167 1.866-4.167 4.167c0 2.301 1.866 4.167 4.167 4.167z"></path>
<path fill="#f3f4f6" d="M27.767 24c0-2.080-1.686-3.767-3.767-3.767s-3.767 1.686-3.767 3.767c0 2.080 1.686 3.767 3.767 3.767s3.766-1.687 3.767-3.767zM23.6 25.666v-1.267h-1.267c-0.221 0-0.4-0.179-0.4-0.399s0.18-0.4 0.4-0.4h1.267v-1.267c0-0.221 0.18-0.4 0.4-0.4s0.399 0.18 0.399 0.4v1.267h1.267c0.221 0 0.4 0.18 0.4 0.4s-0.18 0.399-0.4 0.399h-1.267v1.267c0 0.221-0.179 0.4-0.399 0.4s-0.4-0.18-0.4-0.4zM28.566 24c-0 2.522-2.045 4.566-4.566 4.566s-4.567-2.044-4.567-4.566c0-2.522 2.045-4.567 4.567-4.567s4.566 2.045 4.566 4.567z"></path>
</svg>
