<!-- Generated by IcoMoon.io -->
<svg version="1.1" xmlns="http://www.w3.org/2000/svg" width="32" height="32" viewBox="0 0 32 32">
<path d="M24.666 13.324c0.11 0.091 0.219 0.182 0.327 0.272 0.228 0.19 0.452 0.379 0.683 0.56 0.572 0.45 0.739 1.013 0.512 1.697-0.017 0.053-0.033 0.107-0.049 0.16-0.029 0.099-0.058 0.199-0.099 0.293-0.398 0.913-0.511 1.861-0.53 2.822-0.559-0.248-1.179-0.387-1.83-0.387-1.247 0-2.376 0.506-3.192 1.323-0.045-0.029-0.113-0.028-0.192-0.028l-0.020 0c-1.954 0.003-3.907 0.003-5.861 0.002l-1.675-0c-0.105 0-0.21 0.001-0.315 0.002-0.254 0.002-0.508 0.004-0.761-0.005-0.167-0.006-0.206 0.051-0.198 0.205 0.012 0.243 0.008 0.487 0.002 0.73-0.021 0.732-0.604 1.306-1.348 1.314-0.765 0.009-1.53 0.010-2.294 0-0.754-0.010-1.335-0.596-1.341-1.35-0.008-0.899-0.005-1.798 0-2.697 0.001-0.171-0.024-0.333-0.075-0.495-0.081-0.256-0.161-0.513-0.241-0.77-0.123-0.394-0.246-0.788-0.373-1.182-0.205-0.635-0.044-1.158 0.468-1.581l1.068-0.885-0.426-0.285c-0.348-0.233-0.69-0.462-1.032-0.689l-0.013-0.009c-0.091-0.060-0.18-0.119-0.231-0.217-0.104-0.198-0.080-0.385 0.085-0.537 0.175-0.16 0.377-0.163 0.572-0.037 0.085 0.055 0.171 0.11 0.256 0.165 0.405 0.261 0.81 0.521 1.203 0.798 0.187 0.132 0.232 0.073 0.305-0.098 0.244-0.568 0.491-1.136 0.737-1.703 0.271-0.624 0.542-1.248 0.81-1.873 0.274-0.642 0.745-0.949 1.45-0.948 3.305 0.006 6.611 0.006 9.916 0 0.707-0.002 1.175 0.31 1.449 0.951 0.25 0.585 0.504 1.169 0.758 1.753 0.264 0.607 0.528 1.214 0.788 1.823 0.081 0.189 0.139 0.206 0.31 0.088 0.367-0.257 0.743-0.5 1.12-0.743 0.090-0.058 0.179-0.116 0.269-0.174 0.281-0.181 0.544-0.153 0.699 0.068s0.089 0.481-0.188 0.67c-0.334 0.226-0.671 0.449-1.012 0.674-0.16 0.106-0.322 0.212-0.484 0.321h-0.002zM16.011 13.775l-1.507 0c-2.010 0-4.021 0-6.031-0.003-0.181 0-0.323 0.043-0.46 0.162-0.474 0.462-0.465 0.455-0.46 0.451s0.005-0.004-0.487 0.473c-0.225 0.177-0.278 0.382-0.196 0.644 0.137 0.434 0.197 0.774 0.257 1.114 0.061 0.344 0.122 0.688 0.262 1.127 0.202 0.631 0.566 1.022 1.23 1.022 4.779 0.001 9.559 0.001 14.339 0 0.65 0 0.87-0.219 1.304-1.089 0.207-0.414 0.314-0.749 0.417-1.070 0.113-0.354 0.222-0.693 0.453-1.104 0.083-0.265 0.014-0.466-0.207-0.641l-0.919-0.918c-0.145-0.127-0.294-0.172-0.485-0.172-1.926 0.004-3.851 0.004-5.777 0.003l-1.732-0zM16.435 12.515c0.94 0 1.744-0.002 2.522-0.005 1.128-0.003 2.203-0.007 3.566-0.002 0.226 0 0.243-0.048 0.159-0.241-0.258-0.592-0.394-1.025-0.532-1.463-0.13-0.412-0.261-0.83-0.496-1.388-0.118-0.279-0.297-0.396-0.605-0.395-3.314 0.007-6.628 0.006-9.942 0-0.309 0-0.484 0.121-0.602 0.4-0.286 0.672-0.483 1.116-0.699 1.601-0.148 0.334-0.305 0.688-0.506 1.149-0.084 0.192-0.024 0.289 0.178 0.289 1.142 0 2.31 0.014 3.479 0.028s2.336 0.028 3.479 0.028zM7.386 19.997c-0.002 0.328-0.003 0.639 0.005 0.95 0.007 0.273 0.192 0.437 0.483 0.439 0.736 0.005 1.472 0.006 2.208 0 0.297-0.003 0.467-0.179 0.476-0.477 0.004-0.109 0.002-0.218 0.001-0.328-0.001-0.125-0.002-0.25 0.003-0.374 0.007-0.137-0.040-0.173-0.175-0.171-0.198 0.003-0.396 0.002-0.593 0.001-0.255-0.002-0.511-0.003-0.765 0.005-0.582 0.018-1.119-0.104-1.641-0.485 0 0.151-0.001 0.297-0.002 0.439z"></path>
<path d="M20.961 7.637c0.392-0.001 0.737 0.086 1.028 0.277s0.504 0.473 0.656 0.829c0.25 0.585 0.503 1.169 0.758 1.752 0.256 0.588 0.511 1.178 0.764 1.769 0.356-0.248 0.721-0.483 1.081-0.715 0.089-0.058 0.179-0.115 0.267-0.172l0.001-0.001c0.174-0.112 0.367-0.176 0.56-0.156 0.2 0.020 0.369 0.127 0.485 0.293 0.117 0.167 0.161 0.366 0.108 0.563-0.039 0.143-0.124 0.267-0.237 0.37l-0.122 0.096c-0.335 0.227-0.674 0.451-1.015 0.676-0.066 0.044-0.132 0.086-0.199 0.13 0.021 0.018 0.042 0.035 0.063 0.052 0.228 0.191 0.45 0.377 0.676 0.555 0.318 0.25 0.541 0.545 0.644 0.889 0.077 0.258 0.084 0.528 0.029 0.808l-0.075 0.283c-0.016 0.048-0.030 0.097-0.046 0.151-0.028 0.096-0.062 0.211-0.11 0.322-0.379 0.869-0.49 1.78-0.509 2.725l-0.007 0.386-0.352-0.158c-0.527-0.234-1.111-0.364-1.726-0.364-1.176 0-2.241 0.477-3.011 1.249l-0.146 0.145-0.154-0.099h-0.092c-1.954 0.003-3.908 0.003-5.861 0.002h-1.675c-0.104 0-0.209 0-0.314 0.001-0.231 0.002-0.467 0.002-0.704-0.005 0.009 0.232 0.006 0.462 0 0.686-0.025 0.87-0.721 1.554-1.601 1.564-0.767 0.009-1.534 0.010-2.3 0-0.893-0.012-1.586-0.712-1.594-1.604-0.008-0.901-0.005-1.801 0-2.7l-0.015-0.211-0.049-0.206c-0.081-0.257-0.161-0.515-0.241-0.771-0.123-0.394-0.245-0.787-0.371-1.179-0.115-0.356-0.132-0.699-0.036-1.021s0.298-0.6 0.584-0.836l0.505-0.417 0.299-0.249-0.14-0.094-1.045-0.696c-0.081-0.053-0.231-0.147-0.317-0.313-0.070-0.135-0.107-0.286-0.084-0.441 0.024-0.158 0.105-0.294 0.223-0.402 0.125-0.115 0.274-0.184 0.439-0.193 0.162-0.008 0.315 0.045 0.446 0.13 0.085 0.055 0.17 0.109 0.255 0.164 0.385 0.248 0.775 0.5 1.155 0.766 0.237-0.553 0.478-1.104 0.718-1.655 0.271-0.624 0.542-1.247 0.809-1.871 0.152-0.356 0.368-0.638 0.659-0.829s0.637-0.276 1.027-0.275c3.305 0.006 6.61 0.006 9.915 0zM11.044 8.15c-0.315-0.001-0.557 0.068-0.746 0.191s-0.346 0.316-0.467 0.601c-0.268 0.626-0.539 1.25-0.81 1.874-0.247 0.567-0.494 1.135-0.738 1.703-0.018 0.043-0.042 0.095-0.071 0.141s-0.081 0.114-0.169 0.154c-0.096 0.043-0.19 0.034-0.264 0.010-0.067-0.022-0.129-0.060-0.184-0.099-0.387-0.274-0.788-0.532-1.194-0.793-0.085-0.055-0.172-0.11-0.258-0.165-0.063-0.041-0.11-0.050-0.141-0.049-0.029 0.001-0.069 0.013-0.119 0.059-0.047 0.043-0.059 0.077-0.063 0.1-0.004 0.025-0.002 0.067 0.031 0.13 0.008 0.015 0.020 0.028 0.041 0.046l0.105 0.075 0.014 0.009c0.343 0.227 0.686 0.457 1.034 0.69l0.711 0.476-0.265 0.219-1.067 0.885c-0.226 0.187-0.36 0.383-0.421 0.588s-0.057 0.439 0.032 0.718c0.127 0.394 0.251 0.791 0.374 1.185 0.080 0.257 0.16 0.513 0.241 0.769l0.039 0.141c0.033 0.141 0.048 0.283 0.048 0.431-0.005 0.899-0.008 1.797 0 2.694 0.005 0.615 0.475 1.088 1.089 1.096 0.762 0.010 1.526 0.009 2.289 0 0.607-0.007 1.078-0.473 1.095-1.066 0.007-0.242 0.010-0.478-0.001-0.71-0.004-0.078-0.007-0.229 0.099-0.346 0.112-0.124 0.27-0.13 0.364-0.126l0.75 0.005 0.318-0.001h7.67c0.319-0.301 0.681-0.558 1.074-0.762-4.289 0.001-8.578 0.001-12.866 0-0.386-0-0.706-0.116-0.957-0.339-0.246-0.218-0.407-0.521-0.516-0.861-0.146-0.457-0.209-0.815-0.27-1.16-0.060-0.339-0.118-0.665-0.249-1.081-0.052-0.164-0.068-0.335-0.019-0.504 0.049-0.165 0.153-0.299 0.29-0.41 0.239-0.232 0.36-0.349 0.42-0.408l0.050-0.050c0.002-0.003 0.006-0.004 0.008-0.006 0.008-0.008 0.022-0.023 0.050-0.050 0.057-0.056 0.173-0.17 0.41-0.401l0.011-0.011c0.192-0.166 0.397-0.224 0.628-0.224 2.010 0.004 4.021 0.003 6.031 0.003l3.24 0.001c1.926 0 3.851 0 5.776-0.004 0.181 0 0.346 0.034 0.501 0.125l0.152 0.11 0.013 0.011 0.46 0.46c0 0 0.003 0.003 0.006 0.006 0.007 0.007 0.023 0.021 0.051 0.050 0.038 0.038 0.101 0.102 0.206 0.207l0.189 0.189c0.13 0.106 0.234 0.234 0.286 0.394 0.055 0.168 0.045 0.341-0.009 0.511l-0.009 0.025-0.013 0.024c-0.217 0.387-0.32 0.703-0.432 1.056-0.103 0.323-0.215 0.674-0.431 1.106-0.145 0.289-0.279 0.525-0.42 0.711 0.415 0.034 0.815 0.12 1.194 0.254 0.041-0.856 0.176-1.715 0.54-2.553l0.089-0.262c0.015-0.053 0.032-0.111 0.051-0.169l0.059-0.22c0.041-0.21 0.032-0.397-0.018-0.563-0.067-0.221-0.215-0.433-0.469-0.632-0.234-0.184-0.462-0.375-0.689-0.565-0.108-0.090-0.216-0.18-0.325-0.27l-0.55-0.454h0.636c0.142-0.094 0.282-0.187 0.421-0.279 0.342-0.226 0.677-0.447 1.010-0.672 0.103-0.070 0.142-0.136 0.154-0.178 0.005-0.018 0.007-0.038 0.002-0.060l-0.034-0.072c-0.039-0.055-0.079-0.073-0.119-0.078-0.047-0.005-0.125 0.008-0.231 0.076-0.090 0.058-0.179 0.117-0.269 0.175-0.377 0.244-0.75 0.484-1.113 0.738-0.047 0.033-0.104 0.068-0.162 0.091-0.061 0.024-0.147 0.044-0.243 0.016s-0.16-0.090-0.199-0.143c-0.038-0.051-0.065-0.11-0.087-0.162-0.259-0.608-0.524-1.214-0.788-1.821-0.254-0.584-0.508-1.169-0.759-1.755-0.122-0.285-0.279-0.478-0.468-0.602s-0.43-0.193-0.745-0.193c-3.306 0.006-6.612 0.006-9.918 0zM7.643 19.42c0.435 0.286 0.881 0.382 1.377 0.366 0.26-0.008 0.521-0.007 0.775-0.005 0.198 0.001 0.393 0.002 0.588-0.001 0.070-0.001 0.21 0.001 0.319 0.103 0.116 0.109 0.12 0.256 0.116 0.337-0.005 0.116-0.005 0.233-0.004 0.359 0.001 0.108 0.002 0.223-0.001 0.339-0.006 0.195-0.066 0.381-0.204 0.52-0.139 0.14-0.326 0.202-0.525 0.204-0.737 0.006-1.476 0.005-2.213 0-0.192-0.002-0.377-0.057-0.518-0.184-0.143-0.129-0.215-0.309-0.22-0.505-0.008-0.315-0.005-0.63-0.004-0.957 0.001-0.101-0-0.203 0-0.308l-0.236-0.172 0.749-0.373v0.277zM7.647 20.94l0.016 0.090c0.009 0.022 0.022 0.037 0.034 0.048 0.026 0.024 0.080 0.052 0.179 0.052 0.734 0.005 1.469 0.006 2.202 0 0.098-0.001 0.145-0.030 0.168-0.052 0.024-0.024 0.053-0.074 0.056-0.176l0.001-0.318c-0.001-0.093 0-0.192 0.002-0.291-0.172 0.002-0.344 0.001-0.512 0-0.256-0.002-0.507-0.003-0.756 0.005-0.483 0.015-0.945-0.061-1.395-0.286-0.002 0.324-0.003 0.627 0.005 0.929zM8.472 14.028c-0.128 0-0.207 0.025-0.289 0.095-0.232 0.227-0.346 0.339-0.401 0.394-0.028 0.028-0.039 0.039-0.044 0.044-0.005 0.006-0.011 0.013-0.011 0.013-0.008 0.008-0.024 0.022-0.054 0.051-0.061 0.059-0.184 0.179-0.43 0.418l-0.020 0.018c-0.082 0.065-0.114 0.118-0.126 0.161s-0.015 0.107 0.016 0.205l0.093 0.321c0.080 0.306 0.127 0.57 0.173 0.825 0.061 0.343 0.119 0.672 0.254 1.092 0.093 0.29 0.215 0.499 0.367 0.634 0.147 0.13 0.342 0.211 0.619 0.211 4.779 0.002 9.559 0.002 14.339 0l0.195-0.010c0.171-0.019 0.277-0.066 0.371-0.146 0.146-0.125 0.289-0.352 0.509-0.791 0.198-0.395 0.3-0.713 0.403-1.034 0.11-0.345 0.223-0.695 0.454-1.115 0.026-0.088 0.023-0.144 0.010-0.185-0.014-0.044-0.049-0.1-0.132-0.166l-0.013-0.009-0.010-0.011c-0.23-0.229-0.345-0.344-0.402-0.401l-0.058-0.057c0 0-0.004-0.003-0.007-0.006-0.007-0.007-0.021-0.023-0.050-0.051-0.034-0.034-0.090-0.089-0.178-0.176l-0.217-0.217c-0.089-0.076-0.174-0.104-0.311-0.104l-9.016 0.003c-2.010 0-4.021 0.001-6.031-0.003zM7.552 14.637c0.018 0 0.034 0.001 0.046-0.001-0.008 0.002-0.025 0.001-0.046 0.001zM7.607 14.633c0.005-0.001 0.010-0.001 0.013-0.001 0.006-0.002 0.012-0.007 0.018-0.009-0.009 0.003-0.018 0.007-0.030 0.010zM7.438 14.156l-0.004 0.001c0.003-0.001 0.006-0.002 0.010-0.004-0.002 0.001-0.006 0.002-0.006 0.002zM21.047 8.765c0.186-0 0.362 0.034 0.515 0.134s0.254 0.247 0.326 0.418c0.241 0.571 0.375 0.998 0.505 1.411 0.137 0.437 0.27 0.859 0.523 1.438l0.059 0.169c0.012 0.056 0.024 0.159-0.038 0.26-0.063 0.103-0.163 0.139-0.224 0.154-0.031 0.007-0.064 0.011-0.096 0.014l-0.095 0.004c-1.362-0.004-2.437-0.001-3.565 0.002-0.778 0.002-1.582 0.004-2.523 0.004-1.144 0-2.314-0.013-3.481-0.027s-2.335-0.029-3.475-0.029c-0.121-0-0.311-0.026-0.415-0.194-0.1-0.163-0.047-0.343 0.001-0.454 0.201-0.462 0.358-0.816 0.506-1.15 0.215-0.485 0.412-0.928 0.697-1.598l0.059-0.121c0.065-0.117 0.15-0.22 0.264-0.296 0.152-0.102 0.328-0.137 0.515-0.137h9.941zM10.961 9.291c-0.037 0.009-0.064 0.023-0.085 0.037s-0.043 0.034-0.066 0.065l-0.070 0.126c-0.287 0.674-0.485 1.12-0.7 1.605-0.141 0.317-0.289 0.652-0.475 1.079 1.117 0.001 2.257 0.014 3.395 0.027 1.168 0.014 2.335 0.029 3.475 0.029 0.94 0 1.743-0.003 2.521-0.005 1.093-0.003 2.137-0.006 3.441-0.002-0.232-0.546-0.363-0.96-0.493-1.371-0.097-0.308-0.193-0.615-0.332-0.98l-0.155-0.386c-0.046-0.109-0.094-0.16-0.136-0.188s-0.111-0.052-0.232-0.051c-3.314 0.007-6.628 0.006-9.943 0l-0.145 0.015z"></path>
<path d="M23.167 23.766v1.088c0 0.283 0.23 0.512 0.512 0.512s0.512-0.23 0.512-0.512v-1.088h1.088l0.104-0.011c0.233-0.048 0.409-0.254 0.409-0.501 0-0.283-0.23-0.512-0.512-0.512h-1.088v-1.087c0-0.098-0.028-0.19-0.076-0.268-0.090-0.146-0.252-0.244-0.436-0.244-0.187 0-0.35 0.1-0.44 0.249-0.046 0.077-0.073 0.167-0.073 0.263v1.087h-1.087c-0.283 0-0.512 0.23-0.512 0.512s0.23 0.512 0.512 0.512h1.087zM23.68 19.766c0.178 0 0.354 0.013 0.525 0.039 0.14 0.021 0.278 0.051 0.413 0.088 0.322 0.090 0.626 0.224 0.903 0.397 0.989 0.616 1.647 1.712 1.647 2.963 0 1.926-1.561 3.488-3.488 3.488s-3.488-1.561-3.488-3.488c0-0.638 0.171-1.236 0.47-1.751 0.2-0.345 0.458-0.652 0.76-0.908 0.269-0.228 0.573-0.417 0.903-0.556 0.416-0.175 0.874-0.273 1.354-0.273z"></path>
</svg>
