<!-- Generated by IcoMoon.io -->
<svg version="1.1" xmlns="http://www.w3.org/2000/svg" width="32" height="32" viewBox="0 0 32 32">
<path d="M20.882 12.71c0.609-0.334 1.164-0.639 1.72-0.943 1.141-0.626 2.287-1.244 3.419-1.881 0.934-0.525 1.919-0.652 2.935-0.223 1.060 0.446 1.672 1.196 1.685 2.167 0.037 2.782 0.031 5.564 0.004 8.346-0.011 1.221-1.185 2.247-2.655 2.396-0.686 0.070-1.305-0.096-1.873-0.41-1.645-0.907-3.293-1.81-4.941-2.714-0.082-0.045-0.167-0.085-0.294-0.151 0 0.491 0.007 0.945-0.002 1.399-0.007 0.432 0.021 0.871-0.056 1.295-0.21 1.147-1.4 1.98-2.817 2.002-0.794 0.012-1.588 0.003-2.382 0.003-3.716 0-7.431 0-11.146 0-1.916-0.001-3.146-1.009-3.146-2.579 0-3.615 0-7.23 0-10.846 0-1.566 1.234-2.572 3.153-2.572 4.418 0 8.835 0 13.253 0 1.916 0 3.141 1.008 3.141 2.582 0 0.691 0 1.382 0 2.128l0.001 0.001zM18.927 15.998c0-1.833 0.001-3.665 0-5.498 0-0.579-0.39-0.9-1.093-0.9-4.479-0.001-8.959 0-13.438 0-0.721 0-1.107 0.318-1.108 0.913 0 3.657 0 7.314 0 10.971 0 0.594 0.386 0.913 1.108 0.913 4.47 0.001 8.938 0 13.408 0 0.746 0 1.123-0.311 1.123-0.925 0.001-1.825 0-3.649 0-5.473h-0.001zM28.702 16.002c0-0.766 0-1.531 0-2.298 0-0.591 0.008-1.183-0.004-1.773-0.008-0.368-0.216-0.657-0.611-0.838-0.378-0.174-0.694-0.033-1.013 0.143-1.989 1.098-3.982 2.19-5.978 3.281-0.149 0.081-0.22 0.164-0.219 0.319 0.011 0.774 0.011 1.548 0 2.322-0.002 0.153 0.060 0.239 0.214 0.321 0.53 0.28 1.049 0.572 1.572 0.86 1.511 0.83 3.021 1.661 4.533 2.49 0.437 0.239 0.829 0.205 1.172-0.101 0.239-0.212 0.335-0.466 0.335-0.754-0.004-1.324-0.002-2.647-0.002-3.971v-0.001z"></path>
</svg>
