<!-- Generated by IcoMoon.io -->
<svg version="1.1" xmlns="http://www.w3.org/2000/svg" width="32" height="32" viewBox="0 0 32 32">
<path d="M6.144 27.264c-0.64 0-1.152-0.256-1.664-0.64s-0.64-1.024-0.64-1.664v-13.312c0-0.64 0.256-1.152 0.64-1.664s1.024-0.64 1.664-0.64h5.376v-2.176c0-0.64 0.256-1.152 0.64-1.664 0.512-0.512 1.024-0.64 1.664-0.64h4.352c0.64 0 1.152 0.256 1.664 0.64 0.384 0.384 0.64 1.024 0.64 1.664v2.176h5.376c0.64 0 1.152 0.256 1.664 0.64s0.64 1.024 0.64 1.664v13.312c0 0.64-0.256 1.152-0.64 1.664s-1.024 0.64-1.664 0.64h-19.712zM13.44 9.344h5.12v-2.176c0 0 0-0.128 0-0.256 0 0-0.128 0-0.256 0h-4.352c0 0-0.128 0-0.256 0 0 0 0 0.128 0 0.256v2.176zM26.24 19.84h-7.040v1.024c0 0.384 0 0.64-0.384 0.768-0.256 0.256-0.512 0.384-0.768 0.384h-4.096c-0.384 0-0.64 0-0.768-0.384-0.256-0.256-0.384-0.512-0.384-0.768v-1.024h-7.040v4.992c0 0 0 0.128 0 0.256 0 0 0.128 0 0.256 0h19.712c0 0 0.128 0 0.256 0 0 0 0-0.128 0-0.256v-4.992zM14.72 20.096h2.56v-2.56h-2.56v2.56zM5.76 17.92h7.040v-1.024c0-0.384 0-0.64 0.384-0.768 0.256-0.256 0.512-0.384 0.768-0.384h4.096c0.384 0 0.64 0 0.768 0.384 0.256 0.256 0.384 0.512 0.384 0.768v1.024h7.040v-6.272c0 0 0-0.128 0-0.256 0 0-0.128 0-0.256 0h-19.84c0 0-0.128 0-0.256 0 0 0 0 0.128 0 0.256v6.272z"></path>
</svg>
