<!-- Generated by IcoMoon.io -->
<svg version="1.1" xmlns="http://www.w3.org/2000/svg" width="32" height="32" viewBox="0 0 32 32">
<path fill="#9ca3af" d="M6.538 26.88c-0.647 0-1.194-0.224-1.642-0.672s-0.672-0.995-0.672-1.642v-13.292c0-0.647 0.224-1.194 0.672-1.642s0.995-0.672 1.642-0.672h5.366v-2.166c0-0.647 0.224-1.194 0.672-1.642s0.995-0.672 1.642-0.672h4.332c0.647 0 1.194 0.224 1.642 0.672s0.672 0.995 0.672 1.642v2.166h5.366c0.647 0 1.194 0.224 1.642 0.672s0.672 0.995 0.672 1.642v13.292c0 0.647-0.224 1.194-0.672 1.642s-0.995 0.672-1.642 0.672h-19.692zM13.824 8.96h5.12v-2.166c0-0.099-0.041-0.189-0.123-0.271s-0.172-0.123-0.271-0.123h-4.332c-0.099 0-0.189 0.041-0.271 0.123s-0.123 0.172-0.123 0.271v2.166zM26.624 19.52h-7.040v1.083c0 0.33-0.11 0.605-0.331 0.826s-0.496 0.331-0.826 0.331h-4.086c-0.33 0-0.605-0.11-0.826-0.331s-0.331-0.496-0.331-0.826v-1.083h-7.040v5.046c0 0.099 0.041 0.189 0.123 0.271s0.172 0.123 0.271 0.123h19.692c0.099 0 0.189-0.041 0.271-0.123s0.123-0.172 0.123-0.271v-5.046zM15.104 19.84h2.56v-2.56h-2.56v2.56zM6.144 17.6h7.040v-1.083c0-0.33 0.11-0.605 0.331-0.826s0.496-0.331 0.826-0.331h4.086c0.33 0 0.605 0.11 0.826 0.331s0.331 0.496 0.331 0.826v1.083h7.040v-6.326c0-0.099-0.041-0.189-0.123-0.271s-0.172-0.123-0.271-0.123h-19.692c-0.099 0-0.189 0.041-0.271 0.123s-0.123 0.172-0.123 0.271v6.326z"></path>
</svg>
